<?xml version="1.0" encoding="UTF-8"?>
<svg id="Layer_2" data-name="Layer 2" xmlns="http://www.w3.org/2000/svg" viewBox="0 0 773.28 270.89">
  <defs>
    <style>
      .cls-1 {
        fill: #e5007e;
      }
    </style>
  </defs>
  <g id="Layer_1-2" data-name="Layer 1">
    <g>
      <polygon class="cls-1" points="16.98 182.96 16.98 218.9 54.95 218.9 54.95 182.96 71.93 182.96 71.93 269.81 54.95 269.81 54.95 233.87 16.98 233.87 16.98 269.81 0 269.81 0 182.96 16.98 182.96"/>
      <polygon class="cls-1" points="33.97 3.25 33.97 105.09 74.93 105.09 74.93 118.06 33.97 118.06 34.13 124.4 35.47 126.05 74.93 126.05 74.93 138.03 21.98 138.03 21.98 3.25 33.97 3.25"/>
      <rect class="cls-1" x="1" y="3.25" width="12.99" height="134.78"/>
      <path class="cls-1" d="M668.88,182.96l17.98,61.91,18.09-61.97,16.89,1.04c6.6,18.65,9.66,40.13,16.37,58.52.51,1.39-.35,1.7,2.1,1.4l15.99-60.9h16.98l-23.45,85.88-18.05,1.04-19.43-62.96-16.09,62.8-19.84.06-24.02-86.81h16.48Z"/>
      <polygon class="cls-1" points="207.31 182.96 235.79 245.85 266.25 182.96 282.24 182.96 283.74 184.46 283.74 269.81 266.75 269.81 266.75 215.9 240.32 269.89 230.9 269.7 206.81 215.9 206.81 269.81 189.82 269.81 189.82 182.96 207.31 182.96"/>
      <path class="cls-1" d="M649.11,226.45c0,24.51-19.88,44.38-44.41,44.38s-44.41-19.87-44.41-44.38,19.88-44.38,44.41-44.38,44.41,19.87,44.41,44.38ZM632.73,226.42c0-15.46-12.54-27.99-28.01-27.99s-28.01,12.53-28.01,27.99,12.54,27.99,28.01,27.99,28.01-12.53,28.01-27.99Z"/>
      <path class="cls-1" d="M175.19,226.44c0,24.51-19.89,44.39-44.42,44.39s-44.42-19.87-44.42-44.39,19.89-44.39,44.42-44.39,44.42,19.87,44.42,44.39ZM158.79,226.48c0-15.46-12.54-27.99-28.01-27.99s-28.01,12.53-28.01,27.99,12.54,27.99,28.01,27.99,28.01-12.53,28.01-27.99Z"/>
      <polygon class="cls-1" points="490.55 182.96 490.55 218.9 528.51 218.9 528.51 184.46 530.01 182.96 545.49 182.96 545.49 269.81 528.51 269.81 528.51 233.87 490.55 233.87 490.55 269.81 474.56 269.81 474.56 182.96 490.55 182.96"/>
      <polygon class="cls-1" points="354.67 182.96 354.67 197.93 320.7 197.93 320.7 218.9 350.68 218.9 350.68 233.87 320.7 233.87 320.7 254.84 354.67 254.84 354.67 269.81 303.72 269.81 303.72 184.46 305.22 182.96 354.67 182.96"/>
      <path class="cls-1" d="M399.76,250.99l13.25-7.22c4.05,13.1,32.2,16.55,29.52-.36-1.27-8.01-20.09-12.24-26.93-16.02-33.22-18.34,1.19-63.4,34.48-38.45,10.63,7.96,2.24,9.88-4.13,16.9-5.99-5.36-18.25-14.03-24.9-4.99-9.33,12.68,19.42,18.72,26.84,23.23,21.77,13.22,12.21,43.8-12.89,46.61-12.96,1.45-32.45-5.56-35.23-19.71Z"/>
      <polygon class="cls-1" points="355.67 122.06 355.67 137.03 276.74 72.14 276.74 138.03 263.76 138.03 263.76 60.66 255.76 54.17 255.76 138.03 242.78 138.03 242.78 29.21 355.67 122.06"/>
      <path class="cls-1" d="M335.69,3.25v77.37c0,.46,5.65,5.34,6.51,6.48h1.49s0-83.85,0-83.85h11.99v108.82L243.72,18.78c-1.51-2.64-1.18-8.8-.94-12.05.11-1.49-.77-2.89,1.49-2.47l78.44,64.88V3.25h12.99Z"/>
      <polygon class="cls-1" points="752.3 3.25 752.3 80.63 760.3 87.12 760.3 3.25 773.28 3.25 773.28 112.07 660.39 19.23 660.39 4.25 739.32 69.14 739.32 3.25 752.3 3.25"/>
      <path class="cls-1" d="M773.28,138.03l-79.93-65.89v65.89h-12.99V60.66c0-.46-5.65-5.34-6.51-6.48h-1.49s0,83.85,0,83.85h-11.99V29.21l112.9,94.34v14.48Z"/>
      <rect class="cls-1" x="377.65" y="3.25" width="12.99" height="134.78"/>
      <path class="cls-1" d="M397.63,138.03V3.25h31.47c4.81,0,16.64,3.58,21.46,5.51,55.65,22.32,51.33,110.4-7.2,126.55-2.3.63-10.56,2.72-12.27,2.72h-33.47ZM410.62,118.06l.14,6.35c.34,1.29,1.22,1.43,2.36,1.64,8.37,1.54,24.91-1.7,32.83-5.14,42.01-18.23,41.46-84.47-1.37-101.18-1.59-.62-10.61-3.51-11.48-3.51h-22.48l.94,7.55c9.61.86,17.89-.41,27.27,2.7,45.78,15.24,34.44,91.58-13.71,91.58h-14.49ZM410.62,105.09h18.48c.42,0,6.79-2.6,7.87-3.12,29.62-14.23,19.62-65.77-9.87-65.77h-16.48v68.89Z"/>
      <path class="cls-1" d="M226.59,70.4c0,38.86-31.53,70.37-70.42,70.37s-70.42-31.51-70.42-70.37S117.28.03,156.17.03s70.42,31.51,70.42,70.37ZM213.94,70.44c0-31.88-25.87-57.73-57.77-57.73s-57.77,25.85-57.77,57.73,25.87,57.73,57.77,57.73,57.77-25.85,57.77-57.73Z"/>
      <path class="cls-1" d="M204.91,70.68c0,26.9-21.82,48.71-48.75,48.71s-48.75-21.81-48.75-48.71,21.82-48.71,48.75-48.71,48.75,21.81,48.75,48.71ZM192.32,70.69c0-19.94-16.18-36.11-36.14-36.11s-36.14,16.17-36.14,36.11,16.18,36.11,36.14,36.11,36.14-16.17,36.14-36.11Z"/>
      <path class="cls-1" d="M642.77,70.38c0,38.87-31.53,70.38-70.43,70.38s-70.43-31.51-70.43-70.38S533.44,0,572.34,0s70.43,31.51,70.43,70.38ZM630.09,70.46c0-31.9-25.87-57.75-57.79-57.75s-57.79,25.86-57.79,57.75,25.87,57.75,57.79,57.75,57.79-25.86,57.79-57.75Z"/>
      <path class="cls-1" d="M621.04,70.68c0,26.88-21.81,48.67-48.71,48.67s-48.71-21.79-48.71-48.67,21.81-48.67,48.71-48.67,48.71,21.79,48.71,48.67ZM608.43,70.69c0-19.93-16.17-36.08-36.11-36.08s-36.11,16.15-36.11,36.08,16.17,36.08,36.11,36.08,36.11-16.15,36.11-36.08Z"/>
    </g>
  </g>
</svg>