<?xml version="1.0" encoding="UTF-8"?>
<svg id="Layer_1" data-name="Layer 1" xmlns="http://www.w3.org/2000/svg" xmlns:xlink="http://www.w3.org/1999/xlink" viewBox="0 0 1080 329.87">
  <defs>
    <style>
      .cls-1 {
        fill: url(#radial-gradient-3);
      }

      .cls-2 {
        fill: url(#radial-gradient-2);
      }

      .cls-3 {
        fill: url(#radial-gradient);
      }

      .cls-4 {
        fill: #2f4858;
      }
    </style>
    <radialGradient id="radial-gradient" cx="219.43" cy="71.78" fx="219.43" fy="71.78" r="143.47" gradientUnits="userSpaceOnUse">
      <stop offset="0" stop-color="#e94e77"/>
      <stop offset="1" stop-color="#ff8aa2"/>
    </radialGradient>
    <radialGradient id="radial-gradient-2" cx="219.43" cy="71.78" fx="219.43" fy="71.78" r="143.47" xlink:href="#radial-gradient"/>
    <radialGradient id="radial-gradient-3" cx="219.43" fx="219.43" r="143.47" xlink:href="#radial-gradient"/>
  </defs>
  <g>
    <path class="cls-3" d="M402.81,3.57c-2.95-3.29-7.72-4.44-11.9-2.87-4.19,1.59-6.93,5.53-6.99,9.98,0,.12-.45,12.52-9.94,27.6-14.51,17.81-32.84,31-51.78,37.23l-.21.07c-27.85,9.92-51.72,27.9-69.03,52.02-17.7,24.65-27.05,53.76-27.05,84.21,0,.65,0,1.33.02,1.99.03,2.28.11,4.36.22,6.35,1.2,21.19,6.9,41.4,16.95,60.08,3.07,5.7,9,9.24,15.47,9.24,6.12,0,11.71-3.11,14.94-8.32,10.98-17.73,26.57-32.11,45.09-41.59,2.94-1.5,6.07-2.93,9.33-4.25l19.13-7.82.27-.12c7.14-3.32,13.98-6.81,20.32-10.35,26.03-14.53,43.85-29.88,52.95-45.62,12.56-21.71,19.19-46.5,19.19-71.7,0-35.6-13.14-69.75-37-96.14ZM259.02,264.16c-6.7-14.21-10.55-29.41-11.45-45.29-.1-1.67-.16-3.44-.19-5.48-.01-.53-.01-1.06-.01-1.59,0-51.98,32.88-98.6,81.68-115.97,25.11-8.26,49.11-26.55,66.69-50.66,10.64,24.8,9.24,52.99-4.06,76.62h0c-17.23,30.6-46.69,52.44-80.83,59.93-3.82.84-6.39,4.42-5.97,8.31.42,3.9,3.68,6.84,7.62,6.86h.56c20.87,0,40.98-4.65,59.3-13.61-12.96,13.23-28.81,23.52-46.23,29.8-.51.18-1.02.36-1.5.54-5.36,1.93-10.66,4.23-15.76,6.84-19.98,10.23-37.09,25.25-49.82,43.69Z"/>
    <path class="cls-2" d="M117.65,75.52l-.19-.06c-18.8-6.18-37.13-19.37-51.63-37.18-9.5-15.09-9.94-27.48-9.94-27.56-.05-4.49-2.8-8.43-7.01-10.03-4.17-1.57-8.94-.41-11.87,2.86C13.14,29.95,0,64.1,0,99.71c0,25.2,6.64,50,19.2,71.7,9.1,15.74,26.92,31.08,52.95,45.62,6.35,3.55,13.18,7.03,20.32,10.35l19.42,7.95c3.23,1.3,6.36,2.73,9.3,4.24,18.52,9.47,34.11,23.86,45.1,41.59,3.23,5.2,8.82,8.31,14.94,8.31,6.48,0,12.41-3.54,15.48-9.24,10.04-18.67,15.74-38.89,16.94-60.06.12-1.99.19-4.07.22-6.31.02-.72.02-1.39.02-2.05,0-30.45-9.35-59.57-27.05-84.21-17.3-24.12-41.17-42.1-69.19-52.08ZM126.77,196.91h.58c3.91-.02,7.18-2.96,7.59-6.86.42-3.9-2.15-7.47-5.98-8.31-34.14-7.49-63.6-29.33-80.83-59.93-13.31-23.63-14.7-51.82-4.06-76.62,17.58,24.11,41.57,42.4,66.55,50.61,48.94,17.42,81.82,64.04,81.82,116.02,0,.53,0,1.05-.02,1.67-.02,1.89-.08,3.71-.19,5.43-.9,15.86-4.75,31.05-11.45,45.26-12.74-18.44-29.84-33.46-49.82-43.68-5.11-2.62-10.42-4.92-15.73-6.83-.51-.19-1.02-.37-1.47-.53-17.47-6.29-33.33-16.58-46.29-29.81,18.31,8.95,38.42,13.6,59.29,13.6Z"/>
    <path class="cls-1" d="M262.02,76.21c0-23.07-18.77-41.85-41.85-41.85s-41.85,18.77-41.85,41.85,18.77,41.85,41.85,41.85,41.85-18.77,41.85-41.85ZM220.17,96.96c-11.44,0-20.75-9.31-20.75-20.75s9.31-20.75,20.75-20.75,20.75,9.31,20.75,20.75-9.31,20.75-20.75,20.75Z"/>
  </g>
  <g>
    <path class="cls-4" d="M466.23,289.65c-3.75,0-6.77-1.17-9.05-3.52-2.28-2.35-3.42-5.26-3.42-8.75v-116.24c0-3.49,1.21-6.4,3.62-8.75,2.41-2.35,5.5-3.52,9.25-3.52s6.74,1.18,8.95,3.52,3.32,5.26,3.32,8.75v116.24c0,3.49-1.14,6.4-3.42,8.75-2.28,2.35-5.36,3.52-9.25,3.52ZM553.11,147.87c3.22,0,5.86,1.31,7.94,3.92,2.08,2.62,3.12,5.26,3.12,7.95,0,2.81-1.21,5.43-3.62,7.84l-84.26,80.64-1.01-28.76,67.97-66.97c3.08-3.08,6.37-4.63,9.85-4.63ZM550.7,289.65c-3.75,0-6.77-1.54-9.05-4.63l-46.45-61.14,18.3-18.7,48.06,63.55c1.88,2.55,2.81,5.3,2.81,8.25,0,3.76-1.41,6.81-4.22,9.15-2.81,2.35-5.97,3.52-9.45,3.52Z"/>
    <path class="cls-4" d="M589.59,168.99c-4.56,0-7.78-.73-9.65-2.21-1.88-1.47-2.81-4.09-2.81-7.84v-3.82c0-3.89,1.04-6.54,3.12-7.94,2.08-1.41,5.26-2.11,9.55-2.11,4.69,0,7.97.74,9.85,2.21,1.88,1.48,2.82,4.09,2.82,7.84v3.82c0,3.89-1.01,6.54-3.02,7.94-2.01,1.41-5.3,2.11-9.86,2.11ZM601.86,277.38c0,3.49-1.14,6.4-3.42,8.75-2.28,2.35-5.16,3.52-8.65,3.52s-6.37-1.17-8.65-3.52c-2.28-2.35-3.42-5.26-3.42-8.75v-83.06c0-3.49,1.14-6.4,3.42-8.75,2.28-2.35,5.16-3.52,8.65-3.52s6.37,1.17,8.65,3.52c2.28,2.35,3.42,5.26,3.42,8.75v83.06Z"/>
    <path class="cls-4" d="M681.94,180.05c9.92,0,17.46,2.08,22.62,6.24,5.16,4.16,8.71,9.69,10.66,16.59,1.94,6.91,2.92,14.58,2.92,23.03v51.48c0,3.49-1.14,6.4-3.42,8.75-2.28,2.35-5.16,3.52-8.65,3.52s-6.37-1.17-8.65-3.52c-2.28-2.35-3.42-5.26-3.42-8.75v-51.48c0-4.42-.57-8.41-1.71-11.97-1.14-3.55-3.19-6.4-6.13-8.55-2.95-2.14-7.17-3.22-12.67-3.22s-9.89,1.07-13.57,3.22c-3.69,2.15-6.51,5-8.45,8.55-1.94,3.55-2.92,7.54-2.92,11.97v51.48c0,3.49-1.14,6.4-3.42,8.75-2.28,2.35-5.16,3.52-8.65,3.52s-6.37-1.17-8.65-3.52c-2.28-2.35-3.42-5.26-3.42-8.75v-83.06c0-3.49,1.14-6.4,3.42-8.75,2.28-2.35,5.16-3.52,8.65-3.52s6.37,1.17,8.65,3.52c2.28,2.35,3.42,5.26,3.42,8.75v8.65l-3.02-.6c1.21-2.28,2.95-4.73,5.23-7.34,2.28-2.61,4.96-5.06,8.05-7.34,3.08-2.28,6.57-4.12,10.46-5.53,3.89-1.41,8.11-2.11,12.67-2.11Z"/>
    <path class="cls-4" d="M794.84,180.45l-43.44,102.16c-.94,2.55-2.38,4.52-4.32,5.93-1.95,1.41-4.06,2.11-6.34,2.11-3.62,0-6.3-1.01-8.05-3.02-1.74-2.01-2.61-4.49-2.61-7.44,0-1.21.2-2.48.6-3.82l50.07-120.26c1.07-2.68,2.72-4.76,4.93-6.24,2.21-1.47,4.59-2.08,7.14-1.81,2.41,0,4.66.71,6.74,2.11,2.08,1.41,3.58,3.39,4.52,5.93l49.47,117.85c.67,1.75,1.01,3.35,1.01,4.83,0,3.62-1.18,6.5-3.52,8.65-2.35,2.15-4.93,3.22-7.74,3.22-2.41,0-4.59-.74-6.54-2.21-1.94-1.48-3.45-3.49-4.53-6.03l-43.24-100.75,5.83-1.21ZM757.63,258.08l11.06-23.13h54.3l3.82,23.13h-69.18Z"/>
    <path class="cls-4" d="M944.56,182.06c3.48,0,6.37,1.17,8.65,3.52,2.28,2.35,3.42,5.26,3.42,8.75v85.47c0,12.33-2.31,22.15-6.94,29.46-4.63,7.31-10.83,12.57-18.6,15.79-7.78,3.22-16.49,4.83-26.14,4.83-4.29,0-8.85-.34-13.68-1.01-4.83-.67-8.78-1.68-11.87-3.02-4.02-1.74-6.81-3.92-8.35-6.54-1.54-2.62-1.85-5.4-.91-8.35,1.21-3.89,3.15-6.54,5.83-7.94,2.68-1.41,5.5-1.58,8.45-.5,2.14.67,4.96,1.71,8.45,3.11,3.49,1.41,7.51,2.11,12.07,2.11,6.16,0,11.29-.84,15.38-2.51,4.09-1.68,7.17-4.49,9.25-8.45,2.08-3.96,3.12-9.35,3.12-16.19v-13.47l4.22,4.83c-2.28,4.42-5.13,8.08-8.55,10.96-3.42,2.89-7.48,5.06-12.17,6.54-4.69,1.48-10.05,2.21-16.09,2.21-7.11,0-13.31-1.64-18.6-4.93-5.3-3.28-9.42-7.84-12.37-13.68-2.95-5.83-4.42-12.5-4.42-20.01v-58.72c0-3.49,1.14-6.4,3.42-8.75,2.28-2.35,5.16-3.52,8.65-3.52s6.37,1.17,8.65,3.52c2.28,2.35,3.42,5.26,3.42,8.75v51.48c0,8.72,1.91,14.85,5.73,18.4,3.82,3.55,9.15,5.33,15.99,5.33,4.69,0,8.65-.91,11.87-2.71,3.22-1.81,5.7-4.49,7.44-8.04,1.74-3.55,2.61-7.87,2.61-12.97v-51.48c0-3.49,1.14-6.4,3.42-8.75,2.28-2.35,5.16-3.52,8.65-3.52Z"/>
    <path class="cls-4" d="M1067.93,180.05c3.49,0,6.37,1.14,8.65,3.42,2.28,2.28,3.42,5.23,3.42,8.85v85.07c0,3.49-1.14,6.4-3.42,8.75-2.28,2.35-5.16,3.52-8.65,3.52s-6.37-1.17-8.65-3.52c-2.28-2.35-3.42-5.26-3.42-8.75v-9.86l4.42,1.81c0,1.75-.94,3.86-2.81,6.34-1.88,2.48-4.42,4.93-7.64,7.34-3.22,2.41-7.01,4.46-11.36,6.13-4.36,1.67-9.08,2.51-14.18,2.51-9.25,0-17.63-2.38-25.14-7.14-7.51-4.76-13.44-11.33-17.8-19.71-4.36-8.38-6.54-18-6.54-28.86s2.18-20.68,6.54-29.06c4.35-8.38,10.22-14.95,17.6-19.71,7.37-4.76,15.55-7.14,24.54-7.14,5.76,0,11.06.87,15.89,2.62s9.01,3.96,12.57,6.64c3.55,2.68,6.3,5.4,8.24,8.14,1.94,2.75,2.92,5.06,2.92,6.94l-7.24,2.62v-14.68c0-3.49,1.14-6.4,3.42-8.75,2.28-2.34,5.16-3.52,8.65-3.52ZM1027.31,269.54c5.9,0,11.06-1.47,15.48-4.42,4.42-2.95,7.87-6.97,10.36-12.06,2.48-5.1,3.72-10.79,3.72-17.09s-1.24-12.2-3.72-17.3c-2.48-5.09-5.93-9.12-10.36-12.07-4.42-2.95-9.59-4.42-15.48-4.42s-10.86,1.48-15.28,4.42c-4.42,2.95-7.88,6.97-10.36,12.07-2.48,5.1-3.72,10.86-3.72,17.3s1.24,12,3.72,17.09c2.48,5.1,5.93,9.12,10.36,12.06,4.42,2.95,9.52,4.42,15.28,4.42Z"/>
  </g>
</svg>