<?xml version="1.0" encoding="UTF-8"?>
<svg id="Layer_1" xmlns="http://www.w3.org/2000/svg" version="1.1" viewBox="0 0 411.5 84.5">
  <!-- Generator: Adobe Illustrator 29.0.0, SVG Export Plug-In . SVG Version: 2.1.0 Build 186)  -->
  <defs>
    <style>
      .st0 {
        fill: #ed1c24;
      }
    </style>
  </defs>
  <path class="st0" d="M47.8,15.5h7.2v46.2h-7.2V15.5Z"/>
  <path class="st0" d="M61.4,28.2h7.2v4.3h.2c2-3,5.9-4.9,10.2-4.9,8.6,0,14.4,6.6,14.4,17.4s-5.6,17.3-14.5,17.3-8.3-1.7-10.3-4.8h-.2c.3,4.1.2,16.5.2,16.5h-7.2V28.2h0ZM85.8,45c0-7-3.3-11.7-8.7-11.7s-8.8,4.5-8.8,11.7,3.4,11.6,8.7,11.6,8.7-4.5,8.7-11.6Z"/>
  <path class="st0" d="M97.9,15.5h7.2s0,11.3-.1,17h.2c2-3.4,5.7-4.9,9.9-4.9,8.3,0,12.3,5.4,12.3,13.2v21h-7.2v-21c0-5-2.7-7.5-6.8-7.5s-8.3,4.2-8.3,10.6v17.9h-7.2V15.5Z"/>
  <path class="st0" d="M132,45c0-10.5,5.8-17.4,15-17.4s8,1.8,9.9,4.9h.2v-4.3h7.1v26.9c0,2.6.5,4.7,1.3,6.3v.3h-7.5c-.8-1.2-.9-3.5-.9-4.2h-.2c-2,3-5.8,4.8-10.1,4.8-8.9,0-14.9-6.6-14.9-17.3ZM157.4,45c0-7.5-3.5-11.7-8.7-11.7s-9.1,4.6-9.1,11.7,3.6,11.6,9,11.6,8.8-4.7,8.8-11.6Z"/>
  <path class="st0" d="M180.7,15.5h7.6v39.6h24.2v6.6h-31.8V15.5h0Z"/>
  <path class="st0" d="M216.1,15.5h7.9v7.6h-7.9v-7.6ZM216.5,28.2h7.1v33.5h-7.1V28.2Z"/>
  <path class="st0" d="M233.2,34h-5.8v-5.7h5.8v-4.1c0-6.3,4.1-9.2,10.4-9.2s3,.2,4.1.4v5.8c-5.2-.5-7.3.4-7.3,4.6v2.5h7.3v5.7h-7.3v27.8h-7.1v-27.8h0Z"/>
  <path class="st0" d="M248.3,45c0-10.5,6.8-17.4,16.2-17.4s15.8,6.5,15.8,16.3,0,1.5,0,2.7h-24.3c0,6.3,3.7,10,9,10s6.6-1.9,7.9-5.4h7.1c-1.1,6.6-7.3,11.2-15.1,11.2s-16.5-7.4-16.5-17.4ZM272.8,41.7c-.3-5.2-3.5-8.3-8.3-8.3s-8.2,3.4-8.6,8.3h16.8Z"/>
  <path class="st0" d="M283.9,44.9c0-10.4,6.6-17.3,16.5-17.3s14.4,5,15.1,12.2h-7.5c-.8-4.2-3.7-6.5-7.7-6.5-5.8,0-8.9,4.6-8.9,11.5s3.5,11.7,8.8,11.7,7.1-2.6,7.8-6.5h7.5c-.8,7.2-6.5,12.3-15.3,12.3-10.2,0-16.4-7-16.4-17.5Z"/>
  <path class="st0" d="M318.8,45c0-10.5,5.8-17.4,15-17.4s8,1.8,9.9,4.9h.2v-4.3h7.1v26.9c0,2.6.5,4.7,1.3,6.3v.3h-7.5c-.8-1.2-1-3.5-1-4.2h-.2c-2,3-5.8,4.8-10.1,4.8-8.9,0-14.9-6.6-14.9-17.3ZM344.2,45c0-7.5-3.5-11.7-8.7-11.7s-9,4.6-9,11.7,3.6,11.6,9,11.6,8.8-4.7,8.8-11.6Z"/>
  <path class="st0" d="M357.5,28.2h7.1v6.1h.2c1.5-3.4,4.7-6.5,11-6.5s2,.2,2.2.3v7.2h-.2s-1-.2-2.9-.2c-7.3,0-10.3,4.2-10.3,11.4v15.2h-7.1V28.2Z"/>
  <path class="st0" d="M379.5,45c0-10.5,6.8-17.4,16.2-17.4s15.8,6.5,15.8,16.3,0,1.5,0,2.7h-24.3c0,6.3,3.7,10,9,10s6.6-1.9,7.9-5.4h7.1c-1.1,6.6-7.3,11.2-15.1,11.2s-16.5-7.4-16.5-17.4ZM404,41.7c-.3-5.2-3.5-8.3-8.3-8.3s-8.2,3.4-8.5,8.3h16.8Z"/>
  <path class="st0" d="M26.6,15.5h-8.4L0,61.7h7.9l4.4-11.8h20.2l4.4,11.8h8.1L26.6,15.5ZM14.6,43.6l7.6-20.5h.2l7.7,20.5h-15.5Z"/>
</svg>