<?xml version="1.0" encoding="UTF-8"?>
<svg id="Layer_1" data-name="Layer 1" xmlns="http://www.w3.org/2000/svg" xmlns:xlink="http://www.w3.org/1999/xlink" viewBox="0 0 462.56 141.19">
  <defs>
    <style>
      .cls-1 {
        fill: none;
      }

      .cls-2 {
        fill: url(#linear-gradient);
      }

      .cls-3 {
        fill: #f7904f;
      }

      .cls-4 {
        fill: #f15a2a;
      }

      .cls-5 {
        clip-path: url(#clippath);
      }

      .cls-6 {
        fill: #2b91cf;
      }
    </style>
    <clipPath id="clippath">
      <path class="cls-1" d="M72.86,85.98l11.42,20.05c6.51-10.97,24.01-40.45,30.18-50.83l-11.43-20.03-30.17,50.81Z"/>
    </clipPath>
    <linearGradient id="linear-gradient" x1="0" y1="141.19" x2="1" y2="141.19" gradientTransform="translate(126.79 -9157.27) rotate(-180) scale(65.36 -65.36)" gradientUnits="userSpaceOnUse">
      <stop offset="0" stop-color="#00587b"/>
      <stop offset=".22" stop-color="#006188"/>
      <stop offset=".64" stop-color="#007cac"/>
      <stop offset="1" stop-color="#0196d0"/>
    </linearGradient>
  </defs>
  <path class="cls-4" d="M233.49,34.17l-2.13,5.35c-1.46-.65-2.76-1.13-3.92-1.44-1.15-.31-2.34-.46-3.57-.46-2.07,0-3.79.79-5.15,2.36-1.36,1.57-2.04,3.57-2.04,5.99s.67,4.39,2.01,5.93c1.34,1.53,3.07,2.3,5.18,2.3,1.23,0,2.42-.15,3.57-.46,1.15-.31,2.46-.79,3.92-1.44l2.13,5.41c-1.19.92-2.75,1.63-4.66,2.13-1.92.5-3.59.75-5.01.75-2.99,0-5.61-.6-7.86-1.78-2.25-1.19-3.97-2.89-5.18-5.1-1.21-2.21-1.81-4.79-1.81-7.74s.6-5.55,1.81-7.77c1.21-2.22,2.94-3.94,5.18-5.15s4.87-1.81,7.86-1.81c1.31,0,2.92.27,4.84.81,1.92.54,3.53,1.25,4.84,2.13"/>
  <path class="cls-4" d="M262.54,53.63c-1.23,2.23-2.96,3.94-5.21,5.15-2.25,1.21-4.87,1.81-7.86,1.81s-5.61-.6-7.86-1.78c-2.25-1.19-3.98-2.89-5.21-5.1-1.23-2.21-1.84-4.79-1.84-7.74s.61-5.55,1.84-7.77c1.23-2.22,2.96-3.94,5.21-5.15s4.86-1.81,7.86-1.81,5.61.6,7.86,1.79c2.25,1.19,3.98,2.89,5.21,5.09,1.23,2.21,1.84,4.79,1.84,7.74s-.61,5.55-1.84,7.77M254.62,51.84c1.36-1.57,2.05-3.57,2.05-5.99s-.67-4.4-2.01-5.93c-1.35-1.53-3.07-2.3-5.18-2.3s-3.79.79-5.15,2.36c-1.36,1.57-2.04,3.57-2.04,5.99s.67,4.4,2.02,5.93c1.34,1.54,3.07,2.3,5.18,2.3s3.79-.79,5.15-2.36"/>
  <path class="cls-4" d="M275.51,59.91h-7.48v-27.92h4.89l1.27,2.99c1.73-1.23,3.57-2.19,5.52-2.88,1.96-.69,3.71-1.04,5.24-1.04,3.53,0,6.01,1,7.43,2.99,1.42,2,2.13,4.78,2.13,8.35v17.5h-7.48v-17.16c0-1.73-.35-3.07-1.07-4.03-.71-.96-1.7-1.44-2.96-1.44s-2.53.3-3.69.89c-1.15.6-2.42,1.39-3.8,2.39v19.35Z"/>
  <path class="cls-4" d="M307.14,59.91h-7.48v-27.92h4.89l1.27,2.99c1.73-1.23,3.57-2.19,5.52-2.88,1.96-.69,3.71-1.04,5.24-1.04,3.53,0,6.01,1,7.43,2.99,1.42,2,2.13,4.78,2.13,8.35v17.5h-7.48v-17.16c0-1.73-.35-3.07-1.07-4.03-.71-.96-1.7-1.44-2.96-1.44s-2.53.3-3.69.89c-1.15.6-2.42,1.39-3.8,2.39v19.35Z"/>
  <path class="cls-4" d="M356.45,48.16h-18.83c.38,1.96,1.22,3.45,2.51,4.49,1.29,1.04,3.25,1.55,5.9,1.55,1.54,0,2.92-.21,4.15-.63,1.23-.42,2.55-1.04,3.97-1.84l2.19,5.41c-1.42,1.11-2.96,1.97-4.61,2.56-1.65.59-3.61.89-5.87.89-5.3,0-9.32-1.29-12.06-3.89-2.75-2.59-4.12-6.17-4.12-10.74,0-2.96.57-5.55,1.7-7.77,1.13-2.23,2.75-3.94,4.86-5.15s4.61-1.81,7.48-1.81,5.16.65,7.08,1.96c1.92,1.31,3.34,3.06,4.26,5.27.92,2.21,1.38,4.67,1.38,7.4v2.3ZM337.68,43.15h11.69c-.39-1.84-1.07-3.22-2.05-4.15-.98-.92-2.24-1.38-3.77-1.38s-2.82.47-3.86,1.41c-1.04.94-1.71,2.31-2.02,4.12"/>
  <path class="cls-4" d="M383.29,34.17l-2.13,5.35c-1.46-.65-2.76-1.13-3.92-1.44-1.15-.31-2.34-.46-3.57-.46-2.07,0-3.79.79-5.15,2.36-1.36,1.57-2.04,3.57-2.04,5.99s.67,4.39,2.01,5.93c1.34,1.53,3.07,2.3,5.18,2.3,1.23,0,2.42-.15,3.57-.46,1.15-.31,2.46-.79,3.92-1.44l2.13,5.41c-1.19.92-2.75,1.63-4.66,2.13-1.92.5-3.59.75-5.01.75-2.99,0-5.61-.6-7.86-1.78-2.25-1.19-3.97-2.89-5.18-5.1-1.21-2.21-1.81-4.79-1.81-7.74s.6-5.55,1.81-7.77c1.21-2.22,2.94-3.94,5.18-5.15s4.87-1.81,7.86-1.81c1.31,0,2.92.27,4.84.81,1.92.54,3.53,1.25,4.83,2.13"/>
  <path class="cls-4" d="M401.08,32.04l2.3,5.76h-7.37v11.86c0,1.5.36,2.71,1.07,3.63.71.92,1.72,1.38,3.02,1.38,1,0,2.01-.25,3.05-.75l2.19,5.41c-.57.46-1.43.86-2.56,1.21-1.13.35-2.16.52-3.08.52-3.49,0-6.22-.88-8.18-2.65-1.96-1.77-2.94-4.24-2.94-7.43v-13.19h-3.74v-5.76h3.74v-6.62l7.43-1.32v7.94h5.07Z"/>
  <path class="cls-4" d="M432.49,48.16h-18.83c.38,1.96,1.22,3.45,2.51,4.49,1.29,1.04,3.25,1.55,5.9,1.55,1.54,0,2.92-.21,4.15-.63,1.23-.42,2.55-1.04,3.97-1.84l2.19,5.41c-1.42,1.11-2.96,1.97-4.61,2.56-1.65.59-3.61.89-5.87.89-5.3,0-9.32-1.29-12.06-3.89-2.75-2.59-4.12-6.17-4.12-10.74,0-2.96.57-5.55,1.7-7.77,1.13-2.23,2.75-3.94,4.86-5.15s4.61-1.81,7.48-1.81,5.16.65,7.08,1.96c1.92,1.31,3.34,3.06,4.26,5.27.92,2.21,1.38,4.67,1.38,7.4v2.3ZM413.72,43.15h11.69c-.39-1.84-1.07-3.22-2.05-4.15-.98-.92-2.24-1.38-3.77-1.38s-2.82.47-3.86,1.41c-1.04.94-1.71,2.31-2.02,4.12"/>
  <path class="cls-4" d="M462.56,19.26v40.65h-3.91l-1.73-2.53c-2.46,2.15-5.14,3.22-8.06,3.22-4.34,0-7.76-1.31-10.28-3.94-2.51-2.63-3.77-6.19-3.77-10.68,0-2.92.57-5.49,1.7-7.72,1.13-2.22,2.77-3.95,4.92-5.18,2.15-1.23,4.7-1.84,7.66-1.84.92,0,1.9.16,2.94.49,1.04.33,2.03.78,2.99,1.35v-13.18l7.54-.63ZM444.28,51.93c1.17,1.52,2.79,2.27,4.86,2.27,1,0,1.97-.19,2.91-.58.94-.38,1.93-.96,2.96-1.73v-11.92c-1-.84-1.96-1.45-2.88-1.81-.92-.36-1.92-.55-3-.55-2.03,0-3.65.78-4.83,2.33-1.19,1.55-1.78,3.56-1.78,6.02s.58,4.44,1.76,5.96"/>
  <path class="cls-4" d="M231.21,85.72c2.24,2.56,3.36,5.95,3.36,10.17,0,2.69-.52,5.08-1.56,7.17-1.04,2.09-2.51,3.73-4.42,4.91-1.91,1.18-4.15,1.77-6.74,1.77-1.93,0-3.95-.67-6.06-2.02v12.66l-4.31.6v-38.41h2.56l.93,1.85c1.09-.8,2.26-1.43,3.49-1.88s2.4-.68,3.49-.68c3.93,0,7.01,1.28,9.25,3.85M228.02,103.26c1.42-1.89,2.15-4.33,2.18-7.31,0-3.13-.7-5.65-2.1-7.56-1.4-1.91-3.43-2.86-6.08-2.86-1.31,0-2.45.2-3.44.6-.98.4-1.91,1.02-2.78,1.86v15.77c.87.76,1.8,1.35,2.78,1.75.98.4,2.11.6,3.38.6,2.62,0,4.63-.94,6.06-2.84"/>
  <polygon class="cls-4" points="239.18 109.04 239.18 71.07 243.49 70.53 243.49 109.04 239.18 109.04"/>
  <path class="cls-4" d="M251.23,87.44l-1.26-3.27c.94-.65,2.34-1.2,4.17-1.64,1.83-.44,3.36-.65,4.56-.65,2,0,3.78.38,5.35,1.15,1.57.76,2.78,1.82,3.65,3.16.87,1.35,1.31,2.87,1.31,4.58v18.28h-3.22l-.54-2.67c-.98.91-2.2,1.7-3.66,2.37-1.46.67-2.87,1.01-4.26,1.01-2.94,0-5.19-.76-6.74-2.29s-2.32-3.51-2.32-5.95.87-4.53,2.62-5.95c1.75-1.42,4.05-2.13,6.93-2.13h6.82v-1.47c0-1.97-.46-3.51-1.39-4.64-.93-1.13-2.39-1.69-4.39-1.69-1.56,0-2.9.15-4.01.46-1.11.31-2.32.76-3.63,1.34M252.27,101.52c0,1.27.42,2.38,1.26,3.33.84.95,2.07,1.42,3.71,1.42,1.42,0,2.77-.36,4.07-1.09,1.29-.73,2.43-1.67,3.41-2.84v-6h-6.99c-1.71,0-3.05.5-4.01,1.5-.97,1-1.45,2.23-1.45,3.68"/>
  <path class="cls-4" d="M284.67,83.02l1.42,3.27h-6.22v15.28c0,1.42.31,2.53.93,3.33.62.8,1.56,1.2,2.84,1.2.69,0,1.49-.18,2.4-.54l.98,3.38c-1.31.62-2.65.93-4.04.93-2.29,0-4.1-.66-5.43-1.99-1.33-1.33-1.99-3.23-1.99-5.7v-15.87h-3.82l-.05-3.27h3.88v-6.77l4.31-1.2v7.97h4.8Z"/>
  <path class="cls-4" d="M288.69,86.29l-.05-3.27h4.04v-4.15c0-2.47.66-4.45,1.99-5.92,1.33-1.47,3.13-2.21,5.43-2.21.73,0,1.45.09,2.18.27s1.33.4,1.8.65l-.98,3.49c-.29-.14-.67-.27-1.15-.38-.47-.11-.89-.16-1.25-.16-2.47,0-3.71,1.51-3.71,4.53v3.87h4.85l1.42,3.27h-6.27v22.75h-4.31v-22.75h-3.98Z"/>
  <path class="cls-4" d="M328.49,103.07c-1.07,2.09-2.61,3.73-4.61,4.91-2,1.18-4.33,1.77-6.98,1.77s-4.77-.59-6.66-1.77c-1.89-1.18-3.34-2.84-4.34-4.96-1-2.13-1.5-4.56-1.5-7.28.04-2.69.57-5.08,1.61-7.17,1.04-2.09,2.54-3.73,4.5-4.91,1.96-1.18,4.25-1.77,6.87-1.77,3.96,0,7.07,1.26,9.33,3.79,2.26,2.53,3.38,5.94,3.38,10.23,0,2.69-.54,5.08-1.61,7.17M323.33,103.23c1.53-1.91,2.31-4.34,2.35-7.28,0-3.13-.73-5.65-2.18-7.56-1.45-1.91-3.51-2.86-6.16-2.86s-4.7.95-6.22,2.86c-1.53,1.91-2.31,4.34-2.34,7.28,0,3.09.73,5.6,2.18,7.53,1.45,1.93,3.51,2.89,6.17,2.89s4.69-.95,6.22-2.86"/>
  <path class="cls-4" d="M338.72,109.04h-4.31v-26.46h2.57l1.36,4.26c1.2-1.02,2.64-1.98,4.31-2.89,1.67-.91,3.15-1.37,4.42-1.37l1.04,3.44c-1.46,0-3.08.48-4.86,1.45-1.78.97-3.29,2.08-4.53,3.35v18.22Z"/>
  <path class="cls-4" d="M387.17,84.3c1.31,1.69,1.96,3.96,1.96,6.79v17.89h-4.31v-17.29c0-1.96-.33-3.49-.98-4.58-.65-1.09-1.78-1.64-3.38-1.64-1.13,0-2.43.41-3.9,1.23-1.47.82-2.85,1.86-4.12,3.14.04.25.06.67.06,1.26v17.89h-4.31v-17.29c0-1.96-.33-3.49-.98-4.58-.66-1.09-1.78-1.64-3.38-1.64-1.17,0-2.54.45-4.12,1.36-1.58.91-3.01,2.06-4.28,3.44v18.77h-4.31v-26.46h3.22l.71,3.76c1.27-1.31,2.79-2.4,4.55-3.27,1.76-.87,3.43-1.31,4.99-1.31,1.78,0,3.27.4,4.45,1.2,1.18.8,2.06,1.93,2.65,3.38,1.27-1.31,2.78-2.4,4.53-3.27,1.75-.87,3.4-1.31,4.96-1.31,2.69,0,4.69.84,6,2.54"/>
  <path class="cls-4" d="M393.1,107.52l1.36-3.11c2.47,1.24,4.86,1.85,7.15,1.85,2,0,3.58-.34,4.74-1.04,1.17-.69,1.75-1.65,1.75-2.89,0-1.96-2.18-3.67-6.55-5.13-2.54-.84-4.62-1.87-6.22-3.11-1.6-1.24-2.4-2.82-2.4-4.75,0-2.33.88-4.15,2.65-5.48,1.76-1.33,4.17-1.99,7.23-1.99,1.24,0,2.68.22,4.34.65,1.65.44,2.95,1,3.9,1.69l-1.36,2.95c-1.2-.55-2.33-.98-3.38-1.31-1.06-.33-2.26-.49-3.6-.49-1.64,0-2.97.36-4.01,1.06-1.04.71-1.56,1.63-1.56,2.75.04.95.58,1.76,1.64,2.45,1.06.69,2.57,1.36,4.53,2.02,5.93,2.18,8.89,4.99,8.89,8.4,0,2.44-.92,4.33-2.76,5.67-1.84,1.35-4.47,2.02-7.89,2.02-1.24,0-2.71-.2-4.42-.6-1.71-.4-3.05-.95-4.04-1.64"/>
  <path class="cls-6" d="M152.4,106.04h-34.01c-.33.57-10.86,18.7-10.91,18.7-15.75,26.7-56.39,18.76-64.22-8.47h22.63c6.48,6.74,19.3,7.21,24.61-2.18l16.37-28.1h45.54c20.22-.35,20.22-30.41,0-30.78h-37.94l-11.43-20.03h49.99c45.95,1.44,45.75,70.04-.62,70.86"/>
  <g class="cls-5">
    <rect class="cls-2" x="52.6" y="34.13" width="82.13" height="72.95" transform="translate(-15.98 112.28) rotate(-57.82)"/>
  </g>
  <path class="cls-4" d="M34.31,106.04v-.03c-45.94-1.44-45.75-70.03.62-70.86h34.01l11.53,20.05h-45.54c-8.48,0-15.39,6.9-15.39,15.39s6.91,15.39,15.39,15.39h37.94l11.42,20.05h-49.98Z"/>
  <path class="cls-3" d="M144.06,24.93h-22.62c-6.48-6.75-19.3-7.22-24.61,2.17l-16.37,28.1-11.53-20.05c.33-.57,10.87-18.7,10.91-18.7,15.76-26.7,56.4-18.76,64.22,8.48"/>
</svg>