{
  "asset": {
    "version": "2.0",
    "generator": "THREE.GLTFExporter"
  },
  "scenes": [
    {
      "nodes": [
        0
      ]
    }
  ],
  "scene": 0,
  "nodes": [
    {
      "children": [
        9
      ],
      "matrix": [
        0.01,
        0,
        0,
        0,
        0,
        0.01,
        0,
        0,
        0,
        0,
        0.01,
        0,
        0,
        0,
        0,
        1
      ]
    },
    {
      "matrix": [
        0.753578431424124,
        0.00468655247903082,
        -0.6573412994162304,
        0,
        -0.2303920473718458,
        0.938428702111661,
        -0.25743169105771024,
        0,
        0.6156614753256585,
        0.34544117774070376,
        0.7082593737614415,
        0,
        532.0000000000001,
        969.0000000000001,
        624,
        1
      ],
      "name": "Camera",
      "camera": 0
    },
    {
      "matrix": [
        1,
        2.443327242190272e-16,
        -1.708540845810717e-17,
        0,
        -2.4492652459956755e-16,
        0.9978881414113298,
        -0.06495580982977772,
        0,
        1.1784965219566652e-18,
        0.06495580982977772,
        0.9978881414113298,
        0,
        -348.4999996097784,
        527.8723223934936,
        -350.2309356411086,
        0.9999999999999999
      ],
      "name": "MOCKUP (change image)",
      "mesh": 0
    },
    {
      "matrix": [
        -99.9999999999924,
        0.0000025085208702690353,
        0.000038941437761078755,
        0,
        0.000039022147270405194,
        6.445235730695818,
        99.79207087988195,
        0,
        -6.5625462367521755e-9,
        99.79207087988961,
        -6.445235730696296,
        0,
        -8.30661640570418e-15,
        57.8482165816532,
        14.155182480799171,
        0.9999999999999998
      ],
      "name": "Frame",
      "mesh": 1
    },
    {
      "matrix": [
        -0.000007549789924842508,
        -4.374893226349084e-22,
        -99.99999999999969,
        0,
        99.9999999999984,
        0.00001629206794497786,
        -0.000007549789935269399,
        0,
        -0.00001629206793904829,
        99.99999999999864,
        1.2045919813277707e-12,
        0,
        5.834268884683098e-14,
        -100.73025937049519,
        -11.84631288052889,
        1
      ],
      "name": "Stand",
      "mesh": 2
    },
    {
      "matrix": [
        -99.9999999999924,
        0.0000025085208702690353,
        0.000038941437761078755,
        0,
        0.000039022147270405194,
        6.445235730695818,
        99.79207087988195,
        0,
        -6.5625462367521755e-9,
        99.79207087988961,
        -6.445235730696296,
        0,
        -8.30661640570418e-15,
        57.8482165816532,
        14.155182480799171,
        0.9999999999999998
      ],
      "name": "Monitor",
      "mesh": 3
    },
    {
      "matrix": [
        1.5622071680343415,
        0,
        0,
        0,
        0,
        1.5622071680343415,
        0,
        0,
        0,
        0,
        1.5622071680343415,
        0,
        -347.5476332999698,
        437.27173182585216,
        -386.6215209769789,
        1
      ],
      "name": "Display",
      "children": [
        3,
        4,
        5
      ]
    },
    {
      "matrix": [
        0.7562707787111569,
        2.413798720624083e-8,
        -0.6542587479488674,
        0,
        -0.23162726046638116,
        0.9352340555667448,
        -0.26774255081517795,
        0,
        0.6118850557714736,
        0.3540300288226669,
        0.7072901930716713,
        0,
        532.6805030634011,
        969.0038226224343,
        624.0165635274814,
        1
      ],
      "name": "Personal Camera",
      "camera": 1
    },
    {
      "matrix": [
        1,
        0,
        0,
        0,
        0,
        1,
        0,
        0,
        0,
        0,
        1,
        0,
        0,
        1,
        0,
        1
      ],
      "name": "Default Ambient Light"
    },
    {
      "name": "Scene 1",
      "children": [
        1,
        2,
        6,
        7,
        8
      ]
    }
  ],
  "cameras": [
    {
      "type": "orthographic",
      "orthographic": {
        "xmag": 11.323076923076924,
        "ymag": 5.807692307692308,
        "zfar": 100000,
        "znear": 0
      },
      "name": "Camera"
    },
    {
      "type": "orthographic",
      "orthographic": {
        "xmag": 22.748800284675532,
        "ymag": 11.6680327547079,
        "zfar": 100000,
        "znear": 0
      },
      "name": "Camera"
    }
  ],
  "bufferViews": [
    {
      "buffer": 0,
      "byteOffset": 0,
      "byteLength": 972,
      "target": 34962,
      "byteStride": 12
    },
    {
      "buffer": 0,
      "byteOffset": 972,
      "byteLength": 972,
      "target": 34962,
      "byteStride": 12
    },
    {
      "buffer": 0,
      "byteOffset": 1944,
      "byteLength": 648,
      "target": 34962,
      "byteStride": 8
    },
    {
      "buffer": 0,
      "byteOffset": 2592,
      "byteLength": 768,
      "target": 34963
    },
    {
      "buffer": 0,
      "byteOffset": 3360,
      "byteLength": 1440,
      "target": 34962,
      "byteStride": 12
    },
    {
      "buffer": 0,
      "byteOffset": 4800,
      "byteLength": 1440,
      "target": 34962,
      "byteStride": 12
    },
    {
      "buffer": 0,
      "byteOffset": 6240,
      "byteLength": 960,
      "target": 34962,
      "byteStride": 8
    },
    {
      "buffer": 0,
      "byteOffset": 7200,
      "byteLength": 33120,
      "target": 34962,
      "byteStride": 12
    },
    {
      "buffer": 0,
      "byteOffset": 40320,
      "byteLength": 33120,
      "target": 34962,
      "byteStride": 12
    },
    {
      "buffer": 0,
      "byteOffset": 73440,
      "byteLength": 22080,
      "target": 34962,
      "byteStride": 8
    },
    {
      "buffer": 0,
      "byteOffset": 95520,
      "byteLength": 2088,
      "target": 34962,
      "byteStride": 12
    },
    {
      "buffer": 0,
      "byteOffset": 97608,
      "byteLength": 2088,
      "target": 34962,
      "byteStride": 12
    },
    {
      "buffer": 0,
      "byteOffset": 99696,
      "byteLength": 1392,
      "target": 34962,
      "byteStride": 8
    }
  ],
  "buffers": [
    {
      "byteLength": 101088,
      "uri": "data:application/octet-stream;base64,"
    }
  ],
  "accessors": [
    {
      "bufferView": 0,
      "componentType": 5126,
      "count": 81,
      "max": [
        471.5,
        267.5,
        0
      ],
      "min": [
        -471.5,
        -267.5,
        0
      ],
      "type": "VEC3"
    },
    {
      "bufferView": 1,
      "componentType": 5126,
      "count": 81,
      "max": [
        0,
        0,
        1
      ],
      "min": [
        0,
        0,
        1
      ],
      "type": "VEC3"
    },
    {
      "bufferView": 2,
      "componentType": 5126,
      "count": 81,
      "max": [
        1,
        1
      ],
      "min": [
        0,
        0
      ],
      "type": "VEC2"
    },
    {
      "bufferView": 3,
      "componentType": 5123,
      "count": 384,
      "max": [
        80
      ],
      "min": [
        0
      ],
      "type": "SCALAR"
    },
    {
      "bufferView": 4,
      "componentType": 5126,
      "count": 120,
      "max": [
        3.1498522758483887,
        0.09595977514982224,
        1.8408790826797485
      ],
      "min": [
        -3.1498522758483887,
        0.08815914392471313,
        -1.8408790826797485
      ],
      "type": "VEC3"
    },
    {
      "bufferView": 5,
      "componentType": 5126,
      "count": 120,
      "max": [
        1,
        1,
        1
      ],
      "min": [
        -1,
        0,
        -1
      ],
      "type": "VEC3"
    },
    {
      "bufferView": 6,
      "componentType": 5126,
      "count": 120,
      "max": [
        0.625,
        0.5
      ],
      "min": [
        0.375,
        0.25
      ],
      "type": "VEC2"
    },
    {
      "bufferView": 7,
      "componentType": 5126,
      "count": 2760,
      "max": [
        0.7333923578262329,
        0.7777814269065857,
        0.7912642955780029
      ],
      "min": [
        -0.970318615436554,
        -0.7777849435806274,
        -1.414415717124939
      ],
      "type": "VEC3"
    },
    {
      "bufferView": 8,
      "componentType": 5126,
      "count": 2760,
      "max": [
        1,
        1,
        1
      ],
      "min": [
        -1,
        -1,
        -1
      ],
      "type": "VEC3"
    },
    {
      "bufferView": 9,
      "componentType": 5126,
      "count": 2760,
      "max": [
        1,
        1
      ],
      "min": [
        0,
        0
      ],
      "type": "VEC2"
    },
    {
      "bufferView": 10,
      "componentType": 5126,
      "count": 174,
      "max": [
        3.1498522758483887,
        0.09595977514982224,
        1.8408790826797485
      ],
      "min": [
        -3.1498522758483887,
        -0.09595977514982224,
        -1.8408790826797485
      ],
      "type": "VEC3"
    },
    {
      "bufferView": 11,
      "componentType": 5126,
      "count": 174,
      "max": [
        0.9951850771903992,
        0,
        0.9951849579811096
      ],
      "min": [
        -0.9951850771903992,
        -1,
        -0.9951849579811096
      ],
      "type": "VEC3"
    },
    {
      "bufferView": 12,
      "componentType": 5126,
      "count": 174,
      "max": [
        0.875,
        1
      ],
      "min": [
        0.125,
        0
      ],
      "type": "VEC2"
    }
  ],
  "meshes": [
    {
      "primitives": [
        {
          "mode": 4,
          "attributes": {
            "POSITION": 0,
            "NORMAL": 1,
            "TEXCOORD_0": 2
          },
          "extras": {
            "parameters": {
              "width": 943,
              "depth": 0,
              "widthSegments": 8,
              "heightSegments": 8,
              "height": 535,
              "type": "PlaneGeometry"
            },
            "type": "PlaneGeometry"
          },
          "indices": 3
        }
      ]
    },
    {
      "primitives": [
        {
          "mode": 4,
          "attributes": {
            "POSITION": 4,
            "NORMAL": 5,
            "TEXCOORD_0": 6
          },
          "extras": {
            "parameters": {
              "width": 6.299704551696777,
              "height": 0.0078006312251091,
              "depth": 3.681758165359497,
              "subdivisions": 0
            },
            "type": "NonParametricGeometry"
          }
        }
      ]
    },
    {
      "primitives": [
        {
          "mode": 4,
          "attributes": {
            "POSITION": 7,
            "NORMAL": 8,
            "TEXCOORD_0": 9
          },
          "extras": {
            "parameters": {
              "width": 1.7037109732627869,
              "height": 1.5555663704872131,
              "depth": 2.205680012702942,
              "subdivisions": 0
            },
            "type": "NonParametricGeometry"
          }
        }
      ]
    },
    {
      "primitives": [
        {
          "mode": 4,
          "attributes": {
            "POSITION": 10,
            "NORMAL": 11,
            "TEXCOORD_0": 12
          },
          "extras": {
            "parameters": {
              "width": 6.299704551696777,
              "height": 0.19191955029964447,
              "depth": 3.681758165359497,
              "subdivisions": 0
            },
            "type": "NonParametricGeometry"
          }
        }
      ]
    }
  ]
}