<?xml version="1.0" encoding="UTF-8"?>
<svg id="Layer_2" data-name="Layer 2" xmlns="http://www.w3.org/2000/svg" viewBox="0 0 768.78 103.25">
  <defs>
    <style>
      .cls-1 {
        fill: #f2f2f2;
      }
    </style>
  </defs>
  <g id="Layer_1-2" data-name="Layer 1">
    <g>
      <g>
        <path class="cls-1" d="M72.39,94.61c-.13-2.51-.2-5.55-.2-9.13v-29.02c0-10.02-2.53-17.08-7.57-21.22-5.04-4.12-13.6-6.19-25.67-6.19-11.43,0-19.94,1.89-25.57,5.65-5.63,3.76-8.49,9.49-8.57,17.21h24.91v-1.25c0-2.74.82-4.99,2.45-6.7,1.64-1.71,3.76-2.58,6.34-2.58,2.71,0,4.81.92,6.32,2.76,1.48,1.84,2.25,4.42,2.25,7.77v4.07c-.89-.05-1.82-.08-2.84-.1-1-.03-2.51-.05-4.47-.05-13.07,0-22.96,2.12-29.69,6.34-6.72,4.22-10.07,10.43-10.07,18.64,0,6.7,2.2,12.09,6.62,16.19,4.42,4.09,10.33,6.14,17.67,6.14,5.37,0,10.05-1,14.04-2.94s6.98-4.73,9-8.36c.2,2.2.36,4.12.49,5.73.15,1.59.28,2.92.41,3.99h24.78c-.26-2.12-.46-4.42-.61-6.93ZM44.21,84.07c-2.05,2.79-5.09,4.17-9.13,4.17-2.84,0-5.17-.84-6.98-2.53-1.82-1.71-2.71-3.91-2.71-6.62,0-3.58,1.53-6.26,4.6-8.08,3.07-1.82,7.65-2.71,13.71-2.71.41,0,.97,0,1.71.05.74.05,1.28.08,1.66.08.08.41.13.84.15,1.28.03.43.05,1.07.05,1.94,0,5.52-1.02,9.67-3.07,12.43Z"/>
        <path class="cls-1" d="M122.45,74.33c0,4.6-.79,8.03-2.38,10.33-1.59,2.3-3.94,3.45-7.06,3.45-3.94,0-6.8-1.79-8.59-5.37-1.79-3.58-2.68-9.38-2.68-17.41,0-7.21.95-12.63,2.81-16.29,1.89-3.63,4.7-5.47,8.46-5.47,3.07,0,5.42,1.05,7.03,3.09,1.61,2.07,2.4,5.09,2.4,9.03h26.08c-.03-2.89-.46-5.55-1.25-7.98-.2-.74-.49-1.48-.79-2.17-1.59-3.68-4.09-6.83-7.49-9.41-6.21-4.7-14.78-7.08-25.7-7.08-12.2,0-21.66,3.17-28.33,9.51-6.67,6.32-10,15.24-10,26.77s3.27,21.27,9.87,27.95c6.57,6.65,15.8,9.97,27.64,9.97,11.05,0,19.87-2.61,26.46-7.82,6.57-5.19,10-12.22,10.28-21.1h-26.77Z"/>
        <path class="cls-1" d="M201.7,47.71v-16.93h-16.47V9.1l-25.52,10.66v11.02h-13.22v16.93h13.22v34.95c0,6.88,1.97,11.97,5.93,15.29,3.99,3.3,10.13,4.93,18.41,4.93,2.53,0,5.27-.1,8.23-.33,2.97-.23,6.09-.56,9.41-1.02v-16.39c-.69.05-1.89.13-3.63.28-1.71.13-2.94.2-3.68.2-3.43,0-5.88-.61-7.36-1.87-1.46-1.23-2.2-3.3-2.2-6.19v-29.87h16.88Z"/>
        <path class="cls-1" d="M204.84,30.79v9.41l24.75,25.26-24.75,25.24v10.84h26.08V30.79h-26.08ZM204.43,0v18.95h26.77V0h-26.77Z"/>
        <path class="cls-1" d="M287.69,30.79l-14.4,49.2-14.09-49.2h-28.51l.23.61,26.13,70.14h29.18l26.85-70.75h-25.39Z"/>
        <path class="cls-1" d="M370.25,38.82c-6.14-6.49-15.11-9.77-26.95-9.77s-20.94,3.27-27.33,9.82c-6.37,6.55-9.56,15.85-9.56,27.97s3.09,20.99,9.26,27.16c6.16,6.16,15.19,9.26,27.08,9.26,10.61,0,19.02-2.12,25.29-6.34,6.26-4.22,9.97-10.3,11.12-18.23h-23.68c-.64,3.45-1.94,6.03-3.89,7.75-1.94,1.71-4.5,2.58-7.67,2.58-4.5,0-7.88-1.43-10.15-4.27-2.28-2.84-3.4-7.06-3.4-12.66h48.86c.08-.56.15-1.15.18-1.79,0-.66.03-1.61.03-2.89,0-12.53-3.07-22.07-9.18-28.59ZM330.64,57.56c.64-4.96,1.99-8.59,4.12-10.92,2.12-2.33,5.11-3.48,9.03-3.48,3.43,0,6.16,1.23,8.21,3.66,2.05,2.43,3.27,6.01,3.68,10.74h-25.03Z"/>
      </g>
      <g>
        <path class="cls-1" d="M449.65,69.8c-.5-9.47-1.08-20.98-1.04-29.93h-.28c-2.42,8.25-5.38,17.26-8.77,26.64l-11.8,32.56h-7.92l-10.8-32.05c-3.18-9.59-5.84-18.72-7.79-27.15h-.23c-.28,8.85-.72,20.39-1.35,30.53l-1.78,29.23h-9.76l4.8-69.48h13.47l11.1,31.76c2.77,8.36,5.1,16.27,6.88,23.65h.28c1.88-7.18,4.35-15.19,7.36-23.67l11.72-31.74h13.39l4.21,69.48h-10.14l-1.57-29.83Z"/>
        <path class="cls-1" d="M509.08,67.7h-27.32v23.41h30.53v8.53h-40.89V30.16h39.3v8.53h-28.94v20.53h27.32v8.48Z"/>
        <path class="cls-1" d="M519.32,31.11c5.72-.9,12.62-1.5,20.04-1.5,13.27,0,22.62,3,28.96,8.69,6.46,5.63,10.25,13.7,10.25,24.9s-3.79,20.74-10.39,27.1c-6.85,6.49-17.95,9.99-31.77,9.99-6.98,0-12.52-.3-17.1-.83V31.11ZM529.67,91.64c2.18.36,5.42.41,8.72.41,18.96.06,29.28-10.37,29.28-28.46.1-15.98-9.3-25.85-27.69-25.85-4.63,0-8.02.42-10.31.89v53.01Z"/>
        <path class="cls-1" d="M596.86,30.16v69.48h-10.36V30.16h10.36Z"/>
        <path class="cls-1" d="M658.98,97.4c-3.23,1.62-10.08,3.35-18.8,3.35-20.82,0-35.38-12.96-35.38-35.17s15.22-36.53,37.34-36.53c8.79,0,14.62,1.84,17.12,3.15l-2.43,8.3c-3.44-1.61-8.4-2.9-14.3-2.9-16.12,0-26.85,10.07-26.85,27.61,0,16.16,9.63,26.87,26.45,26.87,5.56,0,11.24-1.11,14.91-2.83l1.95,8.16Z"/>
        <path class="cls-1" d="M680.12,78.47l-6.92,21.17h-10.73l23.67-69.48h12.78l23.89,69.48h-11.11l-7.23-21.17h-24.35ZM702.51,70.53l-6.6-19.15c-1.48-4.44-2.57-8.67-3.62-12.6h-.23c-1.01,3.99-2.1,8.32-3.44,12.5l-6.53,19.25h20.43Z"/>
        <path class="cls-1" d="M728.43,30.16h10.36v60.79h29.99v8.68h-40.35V30.16Z"/>
      </g>
    </g>
  </g>
</svg>