<?xml version="1.0" encoding="UTF-8"?>
<svg id="Layer_2" data-name="Layer 2" xmlns="http://www.w3.org/2000/svg" viewBox="0 0 2557 504.98">
  <defs>
    <style>
      .cls-1 {
        fill: #7a7a7d;
      }

      .cls-2 {
        fill: #b21332;
      }

      .cls-3 {
        fill: #ed1943;
      }
    </style>
  </defs>
  <g id="Layer_1-2" data-name="Layer 1">
    <g>
      <path class="cls-3" d="M0,285.42l161.44-154.67,36.55,78.26c-26.87,24.89-53.02,51.01-79.53,76.41H0Z"/>
      <g>
        <path class="cls-1" d="M769.7,504.98h-61.98c-7.81-1.98-16.52-1.82-23.02-7.45-9.62-8.34-4.01-22.41-.14-32.14,14.7-37.04,34.46-73.34,49.28-110.48,8.27-15.76,21.43-26.8,39.02-30.9s75.31-4.98,91.8-.16c18.08,5.28,17.08,18.32,11.48,33.42-11.64,31.38-29.87,68.72-44.29,99.5-14.58,31.12-24.07,43.84-60.56,47.31l-1.59.92ZM824.42,348.54c-2.37-2.01-34.61-3.59-36.73,4.24l-53.92,121.81c.04,1.23.88,2.43,1.95,2.95,1.89.9,25.2.93,28.42.44,2.36-.36,5.51-2.09,7.02-3.97l54.1-120.72c.56-1.34.19-3.86-.84-4.74Z"/>
        <path class="cls-1" d="M888.65,504.98c-4.67-1.65-9.69-1.3-14.54-2.94-20.42-6.91-13.69-25.91-6.62-40.65l61.65-137.05h51.48l-64.52,146.71.45,4.58c1.26,1.55,2.82,1.3,4.54,1.46,7.53.72,23.73,1.55,28.4-4.7l66.62-148.06h51.48c-.14,2.94-1.68,5.95-2.82,8.66-20.98,49.38-43.99,98.4-66.92,146.77-11.32,16.3-30.86,23.76-50.21,25.22h-58.98Z"/>
        <path class="cls-1" d="M364.86,504.98c-7.98-2-17.12-1.87-23.53-7.94-5.76-5.46-4.71-11.98-4.21-19.27,18.8-39.4,33.7-84.47,53.86-122.88,9.61-18.31,25.15-29.05,45.63-32.29,16.33-2.58,70.83-3.36,85.23,2.19,23.17,8.93,8.57,34.4.46,49.44h-49.48c1.69-5.97,8.93-16.25,9.81-21.69.23-1.4-.18-3.5-1.57-4.26-3-1.64-24.18-1.41-28.29-.55-7.04,1.47-8.27,6.31-11.12,11.86l-50.75,114.99c.33,2.63,2.07,3.18,4.39,3.49,4.96.67,19.99.59,25.06-.02,2.3-.28,5.33-1.43,7-2.99,2.94-2.78,13.26-27.65,15.65-33.28,1.43-3.36,3.39-7.06,3.82-10.66h-18.99l13.49-27.94h68.47c-12.43,26.63-22.03,55.67-38.01,80.31-11.24,13.64-29.64,20.13-46.95,21.49h-59.98Z"/>
        <path d="M505.8.99l305.42-.05c66.26,3.98,72.7,42.56,43.61,94.53-9.82,17.53-22.72,31.08-39.03,42.72,3.9,7.1,9.74,16.66,9.66,24.98-.08,7.74-12.89,36.38-16.92,44.77-26.94,55.99-69.43,75.01-130.26,77.54l-255.48-.52-.16-2.18,103.69-235.87c.57-2.03-.67-3.86-1.38-5.67-5.2-13.3-13.72-26.85-19.16-40.23ZM754.21,67.85h-175.43c1.58,2.15,5.52,3.43,8.01,4.48,6.52,2.73,13.43,4.86,19.98,7.52l-13,29.92,138.49.05c6.93-1.71,13.26,1.16,17.65-5.34,4.63-6.86,18.86-34.11,4.3-36.63ZM543.79,214.56h158.44c5.77,0,16.52-21.59,17.27-26.7.92-6.25-2.38-11.46-8.72-12.78l-146.98.07c-8.28,11.71-13.57,26.41-20.01,39.41Z"/>
        <path d="M1328.48,68.85l31.99,9.99c-1.29,6.55-16.38,29.14-6.06,32.49l150.54.4c40.32,2.34,75.09,18.91,59.45,65.43-21.58,64.17-72.22,104.13-140.42,108.31l-251.45-.05c-.72-.68,2.26-7.29,2.82-8.65,5.53-13.41,15.81-40.85,22.97-51.92,5.02-7.76,10.7-9.71,19.64-10.33l219.94.03c13.78-1.23,19.49-7.16,24.68-19.27,4.42-10.33,7.69-16.54-6.78-18.53-49.01-1.6-98.99,1.74-147.89-.08-33.64-1.26-73.54-10.81-64.12-54.12,3.13-14.36,31.2-76.85,39.86-88.95,20.27-28.34,65.04-31.48,97.25-32.65,81.98-2.98,165.78,2.33,247.95.05l2.47,1.49-26.53,58.33c-1.95,2.62-4.39,4.4-7.46,5.53-3.3,1.22-13.06,2.52-16.47,2.52h-252.4Z"/>
        <path d="M1027.6.98l-53.8,127.43-34.31,76.52-3.3,2.7-22.55,6.93h149.44c7.77,0,19.03-14.55,21.35-21.6L1169.04.98h96.46l-96.1,219.92c-23.15,48.05-39.81,61.74-95.33,64.5-68.43,3.4-138.26-1.5-206.65-1.25-28.04-6.67-44.8-21.47-41.73-52.13,22.69-62.89,53.13-123.02,78.72-184.87l-4.76-46.18h127.95Z"/>
        <path class="cls-1" d="M2072.69.98c.72.12,4.78,1.98,5.48,2.51l22.7,46.03-13.67,43.27c6.42-4.24,12.46-9.18,18.46-14,28.05-22.57,57.04-50.3,86.03-70.79,2.47-1.74,9.31-7.03,11.95-7.03h133.45l-189.79,150.33,73.83,134.1h-124.45c-.2,0-2.31-2.06-3.15-2.34l-31.85-57.55-74.96,59.89h-145.44l178.42-145.68L1956.24.98h116.45Z"/>
        <path d="M1554.39,234.52l31.42-72.93c62.39-47.77,121.48-100.09,184.04-147.6,3.65-2.77,8.81-7.45,12.52-9.46,8.02-4.35,35.69-3.49,46.36-3.59,32.16-.31,64.36.3,96.52.04l-66.88,153.05-28.08,8.63h110.96l-95,71.32-23.79.7-22.15,50.74h-94.96l21.99-50.9h-172.93ZM1759.31,162.66l27.98-64.87-77.96,64.87h49.98Z"/>
        <path d="M2539.01.98l-1.52,5.97-64.36,146.09c-1.07,1.17-23.67,6.12-27.72,7.49-1.31.45-3.06.29-3.36,2.13h114.96l-95.01,70.32-23.96,1.03-22.98,51.41h-94.96l21.98-50.41c.1-.31-2.34-1.48-2.49-1.48h-104.46l-38.56-71.84L2399.01,3.43c1.11-.52,5.88-2.44,6.55-2.44h133.45ZM2324.09,162.66h49.48l28.48-64.87-77.96,64.87Z"/>
        <polygon class="cls-3" points="208.92 .98 307.6 212.08 245.4 272.43 117.95 .98 208.92 .98"/>
        <path class="cls-1" d="M494.81,501.99l80.43-177.72,99.99.09c15.06,2.03,28.16,5.3,26.49,23.43-.83,9-14.11,37.63-20,44.9-6.08,7.49-15.32,13.89-24.97,15.5l.62,2.05c8.05,2.7,9.6,9.09,7.93,16.96l-32.54,74.79h-52.98l30.09-70.36-.23-1.37c-.91-1.41-24.02-1.6-27.42-1.18-1.1.14-2.23-.07-2.95,1.05l-31.48,71.87h-52.98ZM592.77,402.19h29.49c.89,0,6.44-3.63,6.69-5.29l18.85-43.1c0-.88-.43-1.45-1.03-2.04-3.42-3.36-24.73-.47-30.55-1.55l-23.45,51.97Z"/>
        <path class="cls-2" d="M469.32.98c7.47,14.75,14.82,29.72,21.02,45.01l-67.52,154.59L328.87.98h140.45Z"/>
        <path class="cls-1" d="M1077.58,501.99h-51.98l79.43-177.72,101.04.03c13.84,1.74,28.63,5.2,27.34,22.36-.75,9.97-21.24,54.69-27.9,62.98-25.9,32.28-60.68,18.37-94.5,22.42-1.1.13-2.19.02-2.95,1.04l-30.48,68.87ZM1120.56,406.18h29.49c2.88,0,7.51-3.32,9.07-5.92,4.03-6.74,17-35.69,18.96-42.95.41-1.53.97-6.02-1.04-6.02h-31.99l-24.49,54.89Z"/>
        <polygon class="cls-3" points="311.88 .98 378.69 143.39 319.4 200.59 225.91 .98 311.88 .98"/>
        <polygon class="cls-2" points="252.9 285.42 385.34 157.66 407.37 205.6 324.37 285.42 252.9 285.42"/>
        <path class="cls-1" d="M1852.28,399.19c5.3-8.37,29.94-72.41,33.98-74.36,2.32-1.12,13.25-1.11,15.06.94,2.51,2.84,8.44,33.54,10.44,33.51l41.97-34.94h14.49l-31.99,74.85h-14.99l21.98-51.9-41.46,33.94-11-33.94-24,51.89h-14.49Z"/>
        <polygon class="cls-1" points="1962.23 425.14 1977.23 425.14 1945.09 498.84 1931.17 498.32 1908.76 447.1 1885.78 498.01 1871.75 499.83 1870.7 497.96 1903.22 425.6 1917.76 426.13 1939.74 475.02 1962.23 425.14"/>
        <path class="cls-1" d="M2027.01,323.64c55.59-4.32,37.64,52.49-.44,70.42-23.59,11.11-65.59,11.9-58.88-24.85,4.35-23.83,36.47-43.78,59.32-45.56ZM2034.85,374.89c22.19-22.8,8.51-47.9-23.63-36.07-28.07,10.34-43.95,54.28-1.62,49.28,8.1-.96,19.59-7.4,25.25-13.22Z"/>
        <path class="cls-1" d="M1582.18,323.65c23.8-1.8,41.29,11.34,32.37,36.3-9.51,26.59-46.83,46.43-74.19,39.8-24.95-6.05-22.38-31.61-9.36-48.37,11.78-15.16,31.92-26.27,51.19-27.73ZM1580.88,335.89c-10.56-.11-20.57,4.24-28.5,10.89-20.88,17.53-20.86,46.5,13.27,41.19,7.31-1.14,19.67-8.81,24.7-14.26,13.34-14.45,15.52-37.57-9.47-37.83Z"/>
        <path class="cls-1" d="M1837.07,423.44c46.71-3.93,41.77,39.13,13.12,62-16.28,12.99-59.49,26-71.06,2.26-14.92-30.61,30.76-61.96,57.94-64.25ZM1828.03,436.36c-16.29,2.53-42.73,26.65-32.58,44.02,7.6,13.01,29.58,8.02,40.16,1.47,24.39-15.11,31.18-51.52-7.58-45.49Z"/>
        <path class="cls-1" d="M1453.23,423.45c47.36-3.58,40.39,42.09,10.53,63.4-16.87,12.04-61.28,25.01-70.07-1.56-10.3-31.13,32.3-59.79,59.54-61.84ZM1444.19,436.38c-13.15,1.79-32.2,16.98-34.51,30.42-4.69,27.32,25.33,24.46,41.67,14.65,23.95-14.38,31.3-50.29-7.16-45.07Z"/>
        <path class="cls-1" d="M2228.13,399.19l32.97-74.37c2.08-1.04,30.96-.82,35.54-.53,9.18.59,23.53,2.03,24.5,13.47,1.44,17.1-16.53,30.85-32.04,33.49l10,27.93h-17.99l-8.95-25.49c-4.15-.25-16.52-1.94-18.93,1.14l-10.1,24.35h-14.99ZM2260.62,362.27h21.99c8.04,0,19.86-6.6,22.04-14.95,3.97-15.25-26.2-9.03-34.54-9.51l-10.56,22.43,1.07,2.03Z"/>
        <polygon class="cls-3" points="138.95 285.42 204.41 222.53 232.91 285.42 138.95 285.42"/>
        <path class="cls-1" d="M1866.27,324.34c.96.97-3.15,11.33-4.63,11.84l-47.36.62-7.98,19.47h40.98l-5.66,11.82-42.19.29-7.71,17.79,1.07,2.04h46.48l-4,10.98h-63.98l32-73.07,2.48-1.78h60.48Z"/>
        <polygon class="cls-1" points="1524.9 324.34 1526.27 326.67 1521.75 336.36 1474.42 336.81 1465.43 356.28 1507.41 356.28 1501.74 368.3 1459.39 368.71 1451.43 388.22 1499.41 388.22 1493.92 399.19 1431.44 399.19 1464.93 324.34 1524.9 324.34"/>
        <polygon class="cls-1" points="2181.15 356.28 2223.13 356.28 2216.44 368.06 2175.14 368.74 2167.15 388.22 2214.14 388.22 2210.14 399.19 2146.16 399.19 2180.65 324.34 2240.62 324.34 2241.7 326.38 2236.47 336.16 2189.13 336.8 2181.15 356.28"/>
        <path class="cls-1" d="M1615.37,399.19l32.07-73.27c.72-1.54,1.93-1.47,3.36-1.64,9.49-1.09,38.46-.5,46.55,3.54,16.2,8.09,4.12,28.77-6.09,36.85-15.33,12.14-32.19,10.78-50.73,10.73l-10.16,23.78h-14.99ZM1646.36,363.27h23.49c5.78,0,17.02-8.77,18.26-14.7,3.44-16.5-19.55-9.91-29.29-11.33l-1.56.69-10.89,25.33Z"/>
        <path class="cls-1" d="M1365.47,399.19h-14.99l32.47-73.87c.77-1.02,1.85-.91,2.96-1.04,9.38-1.13,34.77-.42,43.52,2.57,20.53,7.03,6.69,31.38-6.07,39.81-15.6,10.31-30.08,8.32-47.91,9.06l-9.98,23.47ZM1381.46,363.27h23.49c.42,0,6.81-2.64,7.82-3.17,6.32-3.36,15.58-15.04,7.92-20.8-3.51-2.64-20.85-2.61-25.8-2.03-1.84.21-2.13.11-3.34,1.66-.81,1.04-11.09,23.48-10.1,24.35Z"/>
        <path class="cls-1" d="M1605.37,425.14c-5.56,13.51-12.93,26.62-18.17,40.25-3.79,9.87-7.06,21.23,7.62,22.68,15.21,1.51,26.46-5.57,33.41-18.64,7.22-13.57,12.84-30.12,19.12-44.29h14.99c-5.85,13.8-11.41,28.95-18.14,42.27-10.38,20.56-27.35,33.63-51.34,33.64-23.6,0-29.66-11.94-21.97-32.98,5.16-14.13,13.56-29.26,19.98-42.93h14.49Z"/>
        <path class="cls-1" d="M1342.78,450.81c7.38,8.79,43.31,2.42,31.56,28.6-10.36,23.07-53.63,29.27-69.83,9.11l12.48-9.45c8.45,10.61,31.24,14.22,40.34,3.32,10.56-12.66-12.3-13.74-20.1-16.57-13.05-4.73-15.85-11.59-8.56-24.03,10.77-18.37,47.41-25.21,62.73-9.02l-11.43,10.05c-8.56-6.82-19.28-9.72-29.78-5.49-4.49,1.81-11.56,8.54-7.4,13.49Z"/>
        <path class="cls-1" d="M2003.48,450.84c8.79,8.96,43.98,2.67,31.26,29.23-10.82,22.6-53.34,28.43-69.49,8.45l11.72-8.34c2.21-.53,8.05,4.98,11.26,6.33,8.67,3.66,23.44,3.7,29.99-3.97,6.12-7.17,1.81-10.24-5.23-12.77-12.76-4.58-34.32-4.37-25.27-24.67,9.37-21.04,48.13-29.43,64.4-12.33l-11.42,10.05c-8.55-6.82-19.28-9.72-29.78-5.49-4.29,1.73-11.66,9.21-7.44,13.52Z"/>
        <path class="cls-1" d="M2097.18,324.34v56.89c1.68.36,2.02-.53,2.98-1.52,16.68-17.12,31.29-37.56,48.45-54.43,1.89-1.54,15.57-1.63,15.53.55l-67.4,73.41-12.98.96c-2.71-14.95-1.23-30.3-1.53-45.47-.05-2.36-1.02-4.54-1.08-6.9-.13-5.39-.82-16.31.04-21,.2-1.12.51-1.87,1.5-2.5h14.49Z"/>
        <polygon class="cls-1" points="1316.49 325.35 1240.62 501.37 1229.52 501.99 1305.39 325.96 1316.49 325.35"/>
        <path class="cls-1" d="M1746.32,425.14l-5.67,12.01-27.2.08-26.6,60.75c-1.57,1.45-10.92,1.85-13.38,1.62-1.08-.1-1.35.03-2.09-1.1l26.96-61.39h-25.99l5.5-11.98h68.47Z"/>
        <polygon class="cls-1" points="1696.34 399.19 1729.31 324.82 1743.32 324.35 1743.27 326.78 1716.33 387.22 1760.31 387.22 1756.31 399.19 1696.34 399.19"/>
        <polygon class="cls-1" points="1533.4 425.14 1506.41 487.02 1550.39 487.02 1545.75 499.04 1486.42 498.99 1518.41 425.14 1533.4 425.14"/>
        <polygon class="cls-2" points="384.85 285.42 344.87 285.42 413.83 218.55 384.85 285.42"/>
        <polygon class="cls-1" points="1777.31 425.14 1745.43 498.37 1730.33 499.99 1762.31 425.14 1777.31 425.14"/>
      </g>
    </g>
  </g>
</svg>