<?xml version="1.0" encoding="UTF-8"?>
<svg id="Layer_2" data-name="Layer 2" xmlns="http://www.w3.org/2000/svg" viewBox="0 0 283.07 45.48">
  <g id="Layer_1-2" data-name="Layer 1">
    <g>
      <path d="M42.96,27.54c-.4,5.72-2.39,10.14-5.97,13.26-3.58,3.12-8.49,4.68-14.73,4.68-3.48,0-6.59-.53-9.33-1.59-2.74-1.06-5.07-2.57-6.99-4.53-1.92-1.96-3.39-4.34-4.41-7.14s-1.53-5.96-1.53-9.48.51-6.69,1.53-9.51c1.02-2.82,2.48-5.21,4.38-7.17,1.9-1.96,4.21-3.46,6.93-4.5,2.72-1.04,5.76-1.56,9.12-1.56,6.32,0,11.25,1.51,14.79,4.53,3.54,3.02,5.53,7.33,5.97,12.93h-13.26c-.44-4.44-2.88-6.66-7.32-6.66-5.44,0-8.16,3.98-8.16,11.94s2.84,11.94,8.52,11.94c2.16,0,3.87-.61,5.13-1.83,1.26-1.22,1.99-2.99,2.19-5.31h13.14Z"/>
      <path d="M48.18,12.42h11.64v5.82c.84-2.36,2.04-4.06,3.63-5.1,1.58-1.04,3.67-1.56,6.27-1.56h1.14v12.66c-.96-.12-1.82-.18-2.58-.18-2.56,0-4.44.57-5.64,1.71-1.2,1.14-1.8,2.95-1.8,5.43v13.08h-12.66V12.42Z"/>
      <path d="M75.84.06h12.78v9.12h-12.78V.06ZM75.84,12.42h12.78v31.86h-12.78V12.42Z"/>
      <path d="M110.52,32.46c0,1.16.33,1.94.99,2.34.66.4,1.75.6,3.27.6h.87c.3,0,.61-.02.93-.06v9.18c-1.4.08-2.75.15-4.05.21-1.3.06-2.57.09-3.82.09-1.97,0-3.65-.15-5.03-.45-1.39-.3-2.51-.81-3.38-1.53-.86-.72-1.49-1.66-1.87-2.82-.38-1.16-.57-2.6-.57-4.32v-15.96h-4.5v-7.32h4.5V2.58h12.66v9.84h5.94v7.32h-5.94v12.72Z"/>
      <path d="M155.28,34.86c-.88,3.48-2.79,6.11-5.73,7.89s-6.89,2.67-11.85,2.67c-2.76,0-5.24-.4-7.44-1.2-2.2-.8-4.07-1.93-5.61-3.39-1.54-1.46-2.72-3.23-3.54-5.31-.82-2.08-1.23-4.38-1.23-6.9,0-2.68.42-5.09,1.26-7.23s2.05-3.96,3.63-5.46c1.58-1.5,3.5-2.65,5.76-3.45,2.26-.8,4.81-1.2,7.65-1.2s5.32.43,7.56,1.29c2.24.86,4.14,2.11,5.7,3.75,1.56,1.64,2.76,3.64,3.6,6,.84,2.36,1.26,5.04,1.26,8.04v.78h-23.76c.08,2.04.62,3.61,1.62,4.71,1,1.1,2.42,1.65,4.26,1.65,2.52,0,4.1-.88,4.74-2.64h12.12ZM143.82,24.78c-.24-3.96-2.16-5.94-5.76-5.94-1.68,0-3,.51-3.96,1.53-.96,1.02-1.48,2.49-1.56,4.41h11.28Z"/>
      <path d="M161.58,12.42h11.64v5.82c.84-2.36,2.04-4.06,3.63-5.1,1.58-1.04,3.67-1.56,6.27-1.56h1.14v12.66c-.96-.12-1.82-.18-2.58-.18-2.56,0-4.44.57-5.64,1.71-1.2,1.14-1.8,2.95-1.8,5.43v13.08h-12.66V12.42Z"/>
      <path d="M189.24.06h12.78v9.12h-12.78V.06ZM189.24,12.42h12.78v31.86h-12.78V12.42Z"/>
      <path d="M207.54,28.32c0-2.64.41-5.01,1.23-7.11.82-2.1,2.01-3.89,3.57-5.37,1.56-1.48,3.45-2.61,5.67-3.39,2.22-.78,4.73-1.17,7.53-1.17s5.31.39,7.53,1.17,4.11,1.91,5.67,3.39c1.56,1.48,2.75,3.27,3.57,5.37.82,2.1,1.23,4.47,1.23,7.11s-.41,5.02-1.23,7.14c-.82,2.12-2.01,3.91-3.57,5.37-1.56,1.46-3.45,2.59-5.67,3.39-2.22.8-4.73,1.2-7.53,1.2s-5.31-.4-7.53-1.2c-2.22-.8-4.11-1.93-5.67-3.39-1.56-1.46-2.75-3.25-3.57-5.37-.82-2.12-1.23-4.5-1.23-7.14ZM220.32,28.32c0,2.84.39,4.93,1.18,6.27.78,1.34,2.14,2.01,4.07,2.01s3.3-.67,4.1-2.01c.8-1.34,1.21-3.43,1.21-6.27s-.4-4.92-1.21-6.24c-.8-1.32-2.17-1.98-4.1-1.98s-3.29.66-4.07,1.98c-.78,1.32-1.18,3.4-1.18,6.24Z"/>
      <path d="M248.69,12.42h11.52v4.68c2.92-3.68,6.64-5.52,11.16-5.52,3.92,0,6.94,1.28,9.06,3.84,1.24,1.48,1.99,3.21,2.25,5.19.26,1.98.39,4.35.39,7.11v16.56h-12.66v-16.5c0-2.2-.28-3.81-.84-4.83-.56-1.02-1.72-1.53-3.48-1.53-3.16,0-4.74,2.14-4.74,6.42v16.44h-12.66V12.42Z"/>
    </g>
  </g>
</svg>