<svg xmlns="http://www.w3.org/2000/svg" id="Layer_1" viewBox="475 364 880 554"><style>.st0{fill:#CCCCCC;}</style><path class="st0" d="M825 698.5c0-9-4.5-17.4-13-17.4-8.6 0-13.3 8.2-13.2 17.7-.1 9.5 4.8 17.3 13.1 17.3 8.3-.1 13.1-7.7 13.1-17.6m7 31.3c-6.6-1.8-12.5-3.8-18.4-6.1-1.1-.4-2.1-.6-3.1-.7-10.9-.6-20.7-8.6-20.7-24 0-14.6 9-24.8 22.6-24.8 13.7 0 21.8 10.5 21.8 23.9 0 11.4-5.3 19-12.2 21.8v.3c4.1 1.1 8.6 2.1 12.5 2.9l-2.5 6.7zm32.1-54.8v27.6c0 9.2 3.9 13.6 9.7 13.6 6.2 0 10-4.3 10-13.6V675h8.6v27c0 14.6-7.5 21-18.8 21-10.9 0-18-6.1-18-21v-27h8.5zm78.7 26.2H925v13.9h19.9v7.1h-28.6V675h27.6v7H925v12.2h17.8v7zm50.1 0h-17.8v13.9H995v7.1h-28.6V675h27.5v7h-18.8v12.2h17.8v7zm23.7 21.1V675h9.8l12.2 20.3c3.2 5.3 5.8 10.7 8 15.9h.1c-.6-6.3-.8-12.4-.8-19.6v-16.5h8v47.3h-8.9l-12.4-20.8c-3-5.2-6.1-11-8.5-16.4l-.2.1c.4 6.1.4 12.4.4 20.1v17l-7.7-.1zm61.2-9.5c2.8 1.6 7 3 11.4 3 5.6 0 8.6-2.6 8.6-6.4 0-3.6-2.4-5.7-8.4-7.8-7.8-2.8-12.8-6.9-12.8-13.8 0-7.7 6.4-13.6 16.7-13.6 5.2 0 8.9 1.1 11.4 2.4l-2.1 6.9c-1.7-.9-5-2.3-9.4-2.3-5.5 0-7.8 3-7.8 5.7 0 3.7 2.8 5.4 9 7.8 8.2 3.1 12.2 7.2 12.2 14.1 0 7.5-5.8 14.2-17.9 14.2-5 0-10.2-1.4-12.8-3l1.9-7.2zm50.7-37.8h8.6v40h19.4v7.2h-28.1V675zm71.8 27.3l-3.7-11.6c-.9-2.9-1.7-6.1-2.4-8.8h-.1c-.7 2.8-1.4 6-2.3 8.8l-3.7 11.6h12.2zm-13.5 6.5l-4.1 13.4h-8.9l15.2-47.3h11l15.4 47.3h-9.2l-4.3-13.4h-15.1zm49.1 13.5V675h9.8l12.2 20.3c3.2 5.3 5.8 10.7 8 15.9h.1c-.6-6.3-.8-12.4-.8-19.6v-16.5h8v47.3h-8.9l-12.4-20.8c-3-5.2-6.1-11-8.5-16.4l-.2.1c.4 6.1.4 12.4.4 20.1v17l-7.7-.1zm70.1-6.7c1.2.2 3 .2 4.8.2 11.2.1 17.8-6.1 17.8-18.1.1-10.4-5.9-16.5-16.8-16.5-2.8 0-4.7.2-5.8.5v33.9zm-8.6-40c3.8-.6 8.6-1 13.8-1 8.8 0 15 1.8 19.3 5.5 4.6 3.8 7.3 9.3 7.3 17.5 0 8.4-2.9 14.8-7.3 18.8-4.7 4.3-12.2 6.4-21.4 6.4-5.1 0-8.8-.3-11.6-.6l-.1-46.6zM567.3 364v224.3l91.9-92V364h-91.9zm-91.9 358.3h91.9v-134l-91.9-91.9v225.9zm183.9 0V496.4l91.9 92v133.9h-91.9zM787.2 447H820l16.6 59h.2l17.4-59h31.5v88.7h-20.3l.3-68.1h-.2l-19.9 68.1h-19.1l-19-68.1h-.2l.4 68.1h-20.3V447zm135.7 0h25.5l30.1 88.7h-22.8l-5.8-18.9h-29.3l-6.1 18.9h-21.1l29.5-88.7zm12.8 18.3h-.2L925.4 500h19.5l-9.2-34.7zm51.3 48.6c5.4 3.3 12.9 5.9 21.5 5.9 6.6 0 12.9-1.5 12.9-8.6 0-16.6-36.9-6.1-36.9-38.4 0-21.3 18.3-27.2 34-27.2 7.5 0 14.9 1.3 20.1 3.3l-1.4 18.3c-5.4-2.8-11.4-4.1-17.4-4.1-5.3 0-14 .5-14 8.2 0 14.4 36.9 4.7 36.9 36.8 0 23-17.1 29.3-34.4 29.3-7.2 0-16.4-1.3-23.3-3.8l2-19.7zm81.6-49.4h-19.2V447h59.3v17.6h-19.2v71.2h-20.8v-71.3zm48.2-17.5h55.1v16.8h-34.3v18.3h32.3v16.8h-32.3V519h35.5v16.8h-56.3V447zm68.4 0h37.2c13.9 0 25.2 7.1 25.2 22.4 0 11.8-5 19.7-15 22.4v.3c6.7 2.1 7.1 8.8 11.1 19.6l7.6 24.2h-21.7l-4.5-16.1c-4.3-15.3-6.9-19-14.7-19h-4.4v35.1h-20.8V447zm20.8 36.9h5.5c6.7 0 15.3-.3 15.3-10.3 0-8.2-7.2-9.8-15.3-9.8h-5.5v20.1zM787.2 559h35.9c14.6 0 25.4 7.2 25.4 22.5 0 11.2-5.1 17.5-13.8 20.7v.3c10.4 2.4 15.8 8.7 15.8 19.5 0 21.2-16.5 25.7-30.4 25.7h-32.9V559zm20.8 35.1h5.8c6.8 0 13.9-1.9 13.9-9.4 0-8.1-6.7-8.9-13.7-8.9h-6v18.3zm0 36.9h6.1c7.6 0 15.6-1.3 15.6-10.3 0-9.6-8.2-10.5-15.4-10.5H808V631zm121.8-16.8c0 24.3-13.9 35.2-34.3 35.2-20.3 0-34.2-10.9-34.2-35.2v-55h20.8v51.2c0 11.7 2.8 21.6 13.4 21.6s13.5-10 13.5-21.7v-51.2h20.8v55.1zm14.4-55.2H965v88.7h-20.8V559zm36.3 0h20.8v71.3h32.3v17.6h-53.1V559zm62.3 0h28.5c27.2 0 46.2 9.7 46.2 44 0 33.2-19.6 44.8-46.2 44.8h-28.5V559zm20.8 71.3h8c15.6 0 24.3-9.1 24.3-26.9 0-17.7-9-26.9-24.3-26.9h-8v53.8zm65.7-71.3h55v16.9h-34.2v18.2h32.3V611h-32.3v20h35.4v16.9h-56.2V559zm68.4 0h37.2c13.9 0 25.2 7.1 25.2 22.4 0 11.8-5 19.7-15 22.4v.3c6.7 2.1 7.1 8.7 11.1 19.6l7.6 24.2h-21.7l-4.5-16.1c-4.3-15.3-6.9-19-14.7-19h-4.4V648h-20.8v-89zm20.8 36.9h5.5c6.7 0 15.2-.3 15.2-10.3 0-8.2-7.2-9.8-15.2-9.8h-5.5v20.1zm54.6 30.1c5.4 3.3 12.9 5.9 21.5 5.9 6.6 0 12.9-1.5 12.9-8.6 0-16.6-36.9-6.1-36.9-38.4 0-21.3 18.3-27.2 34-27.2 7.5 0 14.9 1.3 20.1 3.3l-1.4 18.3c-5.4-2.8-11.4-4.1-17.4-4.1-5.3 0-14 .5-14 8.2 0 14.4 37 4.7 37 36.8 0 23-17.1 29.3-34.4 29.3-7.2 0-16.4-1.3-23.3-3.8l1.9-19.7zm75.1 11.5c3.9 0 6.8 2.9 6.8 6.5 0 3.8-3.1 6.6-6.9 6.6s-6.9-2.9-6.9-6.6c-.1-3.6 3-6.5 7-6.5zm-.1 1.2c-3.1 0-5.5 2.4-5.5 5.4 0 3.1 2.4 5.5 5.5 5.5s5.4-2.4 5.4-5.4c-.1-3.2-2.3-5.5-5.4-5.5zm-1.2 9h-1.3v-6.8c.7-.1 1.5-.2 2.5-.2 1.2 0 1.8.2 2.3.5.4.3.7.8.7 1.5 0 .9-.6 1.4-1.4 1.7v.1c.6.3 1 .8 1.2 1.7.2 1.1.3 1.5.5 1.7h-1.4c-.2-.3-.4-.9-.6-1.8-.2-.8-.6-1.1-1.7-1.1h-.9l.1 2.7zm0-3.9h.9c1 0 1.8-.3 1.8-1.1 0-.7-.4-1.1-1.7-1.1-.5 0-.8 0-1 .1v2.1zM475.4 767.2h859.9v3H475.4v-3zm9.7 148.8h-9.4l12.7-103.4h31.5c25.8 0 32.6 14.9 30.7 31-1.9 16.2-12.6 31-38.4 31H490l-4.9 41.4zm6.1-50.1h23.4c19.4 0 24.7-12.4 25.9-22.3 1.3-9.9-1-22.3-20.4-22.3h-23.3l-5.6 44.6zm-5.6 50.7H475l.1-.7L487.9 812H520c11.7 0 20.3 3.1 25.7 9 4.9 5.5 6.7 13.3 5.7 22.7-1.1 9.5-7.2 31.5-39.1 31.5h-21.6l-5.1 41.4zm-9.2-1.2h8.1l5-41.3h22.7c10.3 0 34.5-3 37.9-30.4 1.1-9-.8-16.6-5.4-21.7-5.1-5.8-13.4-8.6-24.8-8.6H489l-12.6 102zm38.2-48.9h-24.1l5.7-45.9h24c7.8 0 13.7 2 17.2 6 3.5 3.9 4.8 9.6 3.9 17-1.5 10.5-7.1 22.9-26.7 22.9zm-22.7-1.2h22.7c15 0 23.5-7.3 25.3-21.8.9-6.9-.3-12.4-3.6-16-3.3-3.8-8.7-5.7-16.3-5.7h-22.8l-5.3 43.5zm106.3-10c-2.1-.7-4.7-1.1-8.1-1.1-9.4 0-15.2 1.5-20.5 4.4l-7 57.3H553l8.4-68.9h5.4l1.4 5.8c7-4.9 15.3-7.1 23-7.1 3.2 0 5.7.3 8.2.7l-1.2 8.9zm-35.1 61.3h-10.9l.1-.7 8.5-69.5h6.4l1.3 5.4c6.6-4.4 14.7-6.7 22.6-6.7 3.5 0 6 .3 8.3.7l.6.1-1.3 10.3-.7-.2c-2.2-.7-4.8-1.1-7.9-1.1-8.5 0-14.4 1.2-19.9 4.2l-7.1 57.5zm-9.5-1.2h8.4l7-57.1.3-.2c5.9-3.2 11.9-4.5 20.8-4.5 3 0 5.5.3 7.6.9l.9-7.6c-2.1-.3-4.5-.6-7.5-.6-8 0-16.1 2.5-22.7 7l-.8.5-1.5-6.1h-4.4l-8.1 67.7zm76.7 2c-23.6 0-27.2-14.8-24.5-35.8 2.6-21.1 9.8-35.9 33.3-35.9 23.7 0 27.2 14.8 24.5 35.9-2.6 21-9.6 35.8-33.3 35.8zm7.8-63.2c-18.1 0-20.8 11.7-22.7 27.3s-2.2 27.3 16 27.3c17.9 0 20.7-11.7 22.6-27.3s2-27.3-15.9-27.3zm-7.8 63.8c-9.5 0-16.2-2.3-20.3-7.1-5.2-5.8-6.6-14.9-4.8-29.5 4-32 19.4-36.4 34-36.4 9.5 0 16.2 2.3 20.4 7.1 5.1 5.8 6.5 14.9 4.8 29.5-2.5 18.9-8.3 36.4-34.1 36.4zm8.8-71.7c-24.9 0-30.4 17-32.7 35.3-1.8 14.2-.4 22.9 4.5 28.5 4 4.5 10.3 6.6 19.4 6.6 24.9 0 30.4-17 32.7-35.3 1.8-14.2.4-23-4.5-28.5-4-4.4-10.3-6.6-19.4-6.6zm-7.8 63.2c-6.6 0-11.2-1.5-14-4.7-4.5-5.1-3.9-13.6-2.6-23.3 2-16.3 4.9-27.9 23.4-27.9 6.5 0 11 1.5 13.8 4.7 4.5 5.1 3.9 14 2.7 23.3-2 15.8-4.9 27.9-23.3 27.9zm6.8-54.7c-17.4 0-20.2 11.1-22.1 26.8-1.2 9.4-1.8 17.7 2.3 22.3 2.6 2.9 6.8 4.3 13.1 4.3 17.4 0 20-11.1 22-26.8 1.1-9.1 1.8-17.7-2.4-22.3-2.6-2.9-6.8-4.3-12.9-4.3zm49.1 42.3c-1.1 8.9 3.9 11.7 12.4 11.7 8.9 0 13.7-1.5 19.1-4.4l7-57.3h9.6l-8.4 68.9h-5.4l-1.4-5.8c-7.1 4.9-14.5 7.1-21.8 7.1-16.4 0-22.5-7.4-20.8-20.7l6-49.6h9.6l-5.9 50.1zm11.3 20.9c-8.4 0-14.5-2-17.9-5.9-3.2-3.6-4.3-8.7-3.5-15.5l6.1-50.2h10.9l-6.2 50.8c-.4 3.6.1 6.2 1.7 7.9 1.8 2.1 5.2 3.1 10.1 3.1 8.7 0 13.3-1.5 18.5-4.2l7-57.6h10.9l-.1.7-8.4 69.5h-6.4l-1.3-5.4c-7.1 4.5-14.2 6.8-21.4 6.8zm-14.2-70.3l-5.9 49.1c-.8 6.3.3 11.2 3.2 14.5 3.3 3.7 9 5.6 17.1 5.6 7.2 0 14.5-2.4 21.4-7l.8-.5 1.5 6.1h4.4l8.2-67.6h-8.4l-7 57.1-.3.2c-5.6 2.9-10.3 4.5-19.4 4.5-5.5 0-9-1.1-11.1-3.5-1.8-2.1-2.5-5-2-8.9l6.1-49.4-8.6-.2zm114.6 3.7l4.9-38.8h9.6L800.7 916h-5.4l-1.4-5.7c-7.8 4.6-15.1 7-22.5 7-22.2 0-26.2-16-23.8-35.8 2.5-19.8 10.5-35.9 32.6-35.9 6.4.1 13.3 1.9 18.7 5.8zm-41.6 30.1c-1.7 13.7-1.3 27.3 15.3 27.3 8.9 0 14.1-1.5 19.8-4.4l5.7-45.8c-5.1-2.9-9.8-4.4-18.7-4.4-16.6 0-20.5 13.7-22.1 27.3zm14.1 36.5c-8.5 0-14.9-2.4-19-7-5.3-5.9-7-15.6-5.5-29.5 3.1-24.5 14-36.4 33.3-36.4 6.5 0 13.1 1.9 18.1 5.2l4.8-38.3H814l-.1.7-12.8 103.9h-6.4l-1.3-5.4c-7.9 4.7-14.9 6.8-22 6.8zm8.9-71.7c-18.6 0-29 11.5-32 35.3-1.6 13.5.1 22.9 5.2 28.6 3.9 4.4 10 6.6 18.1 6.6 6.9 0 14-2.2 22.1-6.9l.7-.4 1.5 5.9h4.4l12.5-102.1h-8.4l-4.9 39.3-.9-.6c-5-3.7-11.6-5.7-18.3-5.7zm-7.7 63.2c-5.6 0-9.8-1.6-12.5-4.7-4.9-5.5-4.5-14.9-3.4-23.4 1.7-13.8 5.7-27.9 22.7-27.9 9.3 0 14.1 1.7 19 4.5l.4.2-.1.4-5.7 46.1-.3.2c-5.7 2.9-10.8 4.6-20.1 4.6zm6.8-54.7c-16 0-19.7 12.9-21.4 26.8-1 8.2-1.4 17.3 3.1 22.4 2.5 2.9 6.3 4.3 11.6 4.3 8.9 0 13.9-1.5 19.2-4.2l5.6-45c-4.7-2.7-9.3-4.3-18.1-4.3zm128.3 45.4H900l-25.7-75.3-10.7 91.1h-9.4l12.7-103.4h12.7l25.5 76.1 44.2-76.1H962L949.3 916h-9.4l11.7-91.1-43.9 75.3zm42.3 16.4h-10.6l.1-.7 11.3-88.1-42.7 73h-8.5l-.1-.4-24.8-72.7-10.4 88.9h-10.6l.1-.7 12.7-104h13.7l.1.4 25.1 74.8 43.7-75.3h13.8l-.1.7L950 916.6zm-9.2-1.2h8.1l12.5-102.1h-11.6L905 890.2l-.4-1.3-25.4-75.8h-11.7L855 915.3h8.1L874 822l26.4 77.4h6.9l45.5-77.6-12 93.6zm39.7-29.4c-.8 12 1 22.9 16.6 22.9 9.9 0 16.2-1 23.2-3.9l-1 8.2c-8.1 3.5-16.6 4.2-23.3 4.2-23.3 0-26.9-16-24.5-35.8 2.5-19.8 10-35.9 33.3-35.9 19.4 0 24.4 10.6 23.2 20.4-1.3 9.8-8.7 19.8-28.2 19.8l-19.3.1zm20.4-7.9c13.7 0 17.3-5.3 18-12 .8-6.7-1.4-11.9-15.1-11.9-16 0-20.4 11.4-22.3 23.9h19.4zM996 918c-9 0-15.7-2.4-19.9-7.1-5.3-5.9-6.9-15.3-5.3-29.4 4.1-32.6 21.3-36.4 34-36.4 9.2 0 15.9 2.3 19.9 6.9 4.1 4.7 4.4 10.3 3.9 14.2-.8 6.1-5.2 20.4-28.8 20.4h-18.7c-.4 5.9-.2 13.2 3.9 17.5 2.6 2.8 6.5 4.2 12.1 4.2 10.1 0 16.1-1 22.9-3.8l1-.4-1.1 9.7-.3.1c-6.7 2.7-14.4 4.1-23.6 4.1zm8.8-71.7c-19.6 0-29.6 10.9-32.7 35.3-1.6 13.8 0 22.8 5 28.4 4.1 4.6 10.2 6.7 18.9 6.7 8.8 0 16.3-1.3 22.7-4l.8-6.8c-6.6 2.6-12.6 3.5-22.4 3.5-5.9 0-10.2-1.5-13.1-4.6-4.5-4.8-4.6-12.7-4.2-18.9v-.6h19.9c22.6 0 26.8-13.5 27.5-19.3.5-3.7.2-8.9-3.6-13.2-3.6-4.3-10-6.5-18.8-6.5zm-3.9 32.4h-20l.1-.7c1.9-12.1 6-24.4 22.9-24.4 6.9 0 11.4 1.3 13.8 4 1.8 2 2.4 4.8 1.9 8.6-.8 5.8-3.6 12.5-18.7 12.5zm-18.7-1.3h18.5c14.2 0 16.8-5.8 17.4-11.4.4-3.5-.1-5.9-1.6-7.6-2.1-2.4-6.3-3.6-12.8-3.6-15.4 0-19.6 11.3-21.5 22.6zm144.2-11.5c1.1-8.9-3.8-11.7-11.6-11.7-8.5 0-13.5 1.7-19.4 4.6.3 2.2.3 4.6 0 7.1l-6 50.1h-9.6l6-50.1c1.1-8.9-3.8-11.7-11.6-11.7-8 0-12.8 1.4-18.4 4.2l-7 57.6h-9.6l8.4-68.9h5.4l1.4 5.7c7.1-4.9 14.6-7 20.9-7 9.2 0 15.5 2.6 18.3 7.8 7.8-5 15.5-7.8 22.3-7.8 14.8 0 21.9 6.9 20.2 20.7l-6 49.7h-9.6l5.9-50.3zm4.1 50.7h-10.9l.1-.7 6-50.1c.5-3.7-.1-6.3-1.7-8.1-1.7-2-4.8-2.9-9.3-2.9-8.2 0-13 1.5-18.7 4.3.2 2.1.2 4.4-.1 6.8l-6.1 50.6h-10.9l.1-.7 6-50.1c.5-3.7-.1-6.3-1.7-8.1-1.7-2-4.8-2.9-9.3-2.9-8 0-12.7 1.4-17.8 4l-7 57.8h-10.9l.1-.7 8.5-69.5h6.4l1.3 5.3c6.6-4.3 13.9-6.6 20.5-6.6 9.2 0 15.5 2.6 18.5 7.6 8.1-5.1 15.6-7.6 22.1-7.6 7.9 0 13.8 2 17.3 5.9 3.2 3.6 4.5 8.8 3.6 15.5l-6.1 50.2zm-9.5-1.2h8.4l5.9-49.1c.8-6.2-.4-11.1-3.3-14.5-3.3-3.7-8.7-5.6-16.4-5.6-6.4 0-13.9 2.6-22 7.7l-.6.4-.3-.6c-2.8-5-8.7-7.5-17.7-7.5-6.6 0-14 2.5-20.6 6.9l-.8.5-1.5-6h-4.4l-8.2 67.6h8.4l7-57.4.3-.1c5.5-2.7 10.3-4.2 18.7-4.2 5 0 8.2 1.1 10.2 3.3 1.8 2.1 2.5 5.1 2 9.1l-5.9 49.4h8.4l5.9-49.5c.3-2.6.3-4.9 0-7l-.1-.5.4-.2c6.1-3 11.1-4.7 19.7-4.7 5 0 8.2 1.1 10.2 3.3 1.8 2.1 2.5 5.1 2 9.1l-5.7 49.6zm87.5-33.9c-2.4 19.8-10.5 35.8-32.7 35.8-7.4 0-14.1-2.5-20.5-7l-2.8 5.7h-5.4l12.8-103.3h9.6l-4.9 38.8c6.4-3.9 13.7-5.7 20-5.7 22.3-.1 26.3 15.9 23.9 35.7zm-44.6-22.9l-5.7 45.8c5 2.9 9.8 4.4 18.7 4.4 16.6 0 20.2-13.7 21.9-27.3 1.7-13.7 1.4-27.3-15.2-27.3-8.8 0-14.1 1.5-19.7 4.4zm11.9 59.4c-7 0-13.7-2.2-20.3-6.7l-2.6 5.4h-6.4l.1-.7 12.8-103.9h10.9l-4.8 38.2c5.9-3.3 12.7-5.2 19.2-5.2 8.5 0 15 2.4 19.1 7.1 5.3 5.9 7 15.7 5.3 29.5-2.8 24.4-13.7 36.3-33.3 36.3zm-20.8-8.6l.6.4c6.7 4.8 13.1 6.9 20.1 6.9 18.7 0 29.2-11.5 32-35.3 1.7-13.4 0-22.7-5-28.5-3.9-4.5-10-6.6-18.2-6.6-6.6 0-13.7 2-19.6 5.6l-1.1.7 5-39.4h-8.4l-12.5 102.1h4.3l2.8-5.9zm21.9.1c-9.4 0-14.3-1.7-19-4.5l-.4-.2v-.4l5.7-46.1.3-.2c5.4-2.8 10.6-4.5 20.1-4.5 5.6 0 9.7 1.6 12.4 4.6 4.8 5.5 4.4 14.9 3.4 23.4-1.5 13.8-5.6 27.9-22.5 27.9zm-18-5.4c4.5 2.6 9.1 4.2 18 4.2 15.9 0 19.6-12.9 21.3-26.8 1-8.2 1.4-17.4-3.1-22.4-2.5-2.8-6.2-4.2-11.5-4.2-9 0-14.2 1.6-19.2 4.2l-5.5 45zm73.9-18.1c-.8 12 1 22.9 16.6 22.9 9.9 0 16.2-1 23.2-3.9l-1 8.2c-8.1 3.5-16.6 4.2-23.3 4.2-23.3 0-26.9-16-24.5-35.8 2.5-19.8 10-35.9 33.3-35.9 19.4 0 24.4 10.6 23.2 20.4-1.3 9.8-8.7 19.8-28.2 19.8l-19.3.1zm20.2-7.9c13.7 0 17.3-5.3 18-12 .8-6.7-1.4-11.9-15.1-11.9-16 0-20.4 11.4-22.3 23.9h19.4zm-4.8 39.9c-9 0-15.7-2.4-19.9-7.1-5.3-5.9-6.9-15.3-5.3-29.4 4.1-32.6 21.3-36.4 34-36.4 9.2 0 15.9 2.3 19.9 6.9 4.1 4.7 4.4 10.3 3.9 14.2-.8 6.1-5.2 20.4-28.8 20.4h-18.7c-.4 5.9-.2 13.2 3.9 17.5 2.6 2.8 6.5 4.2 12.1 4.2 10.1 0 16.1-1 22.9-3.8l1-.4-1.1 9.7-.3.1c-6.7 2.7-14.4 4.1-23.6 4.1zm8.8-71.7c-19.6 0-29.6 10.9-32.7 35.3-1.6 13.8 0 22.8 5 28.4 4.1 4.6 10.2 6.7 18.9 6.7 8.8 0 16.3-1.3 22.7-4l.8-6.8c-6.6 2.6-12.6 3.5-22.4 3.5-5.9 0-10.2-1.5-13.1-4.6-4.5-4.8-4.6-12.7-4.2-18.9v-.6h20c22.6 0 26.8-13.5 27.5-19.3.5-3.7.2-8.9-3.6-13.2-3.7-4.3-10-6.5-18.9-6.5zm-4 32.4h-20l.1-.7c1.9-12.1 6-24.4 22.9-24.4 6.9 0 11.4 1.3 13.8 4 1.8 2 2.4 4.8 1.9 8.6-.7 5.8-3.5 12.5-18.7 12.5zm-18.6-1.3h18.5c14.1 0 16.8-5.8 17.4-11.4.4-3.5-.1-5.9-1.6-7.6-2.1-2.4-6.3-3.6-12.8-3.6-15.4 0-19.6 11.3-21.5 22.6zm102.2-22.1c-2.1-.7-4.7-1.1-8.1-1.1-9.4 0-15.2 1.5-20.5 4.4l-7 57.3h-9.6l8.4-68.9h5.4l1.4 5.8c7-4.9 15.3-7.1 23-7.1 3.2 0 5.7.3 8.2.7l-1.2 8.9zm-35.2 61.3h-10.9l.1-.7 8.5-69.5h6.4l1.3 5.4c6.6-4.4 14.7-6.7 22.6-6.7 3.5 0 6 .3 8.3.7l.6.1-1.3 10.3-.7-.2c-2.2-.7-4.8-1.1-7.9-1.1-8.5 0-14.4 1.2-19.9 4.2l-7.1 57.5zm-9.5-1.2h8.4l7-57.1.3-.2c5.9-3.2 12-4.5 20.8-4.5 3 0 5.5.3 7.6.9l.9-7.6c-2.1-.3-4.5-.6-7.5-.6-8 0-16.1 2.5-22.7 7l-.8.5-1.5-6.1h-4.4l-8.1 67.7z"></path></svg>