<?xml version="1.0" encoding="UTF-8"?>
<svg id="Layer_2" data-name="Layer 2" xmlns="http://www.w3.org/2000/svg" viewBox="0 0 92.38 153.26">
  <defs>
    <style>
      .cls-1 {
        fill: #fdfcec;
      }
    </style>
  </defs>
  <g id="svg1926">
    <g id="th">
      <path id="path3902" class="cls-1" d="M7.38,131.47c-.43,1.21-.29,2.52.1,3.67,1.12-.86,1.11-3-.1-3.67"/>
      <path id="path3904" class="cls-1" d="M9.14,132.12c.19.5.43.99.58,1.51.07-.61-.12-1.12-.58-1.51"/>
      <path id="path3906" class="cls-1" d="M13.49,137.73c-.06-.58-.27-1.08-.65-1.51.03.59.25,1.09.65,1.51"/>
      <path id="path3908" class="cls-1" d="M17.78,144.29c-.54.51-.63,1.27.22,1.44-.07-.48-.14-.96-.22-1.44"/>
      <path id="path3910" class="cls-1" d="M20.27,119.45c-.52.45-.52.89,0,1.3.51-.45.51-.88,0-1.3"/>
      <path id="path3912" class="cls-1" d="M20.21,117.58c-.25.51.16.73.61.72-.18-.26-.39-.5-.61-.72"/>
      <path id="path3914" class="cls-1" d="M37.74,98.42c.24.02.47.05.71.07.06-.58-.27-1.05-.75-1.3-.03.42-.02.83.04,1.23"/>
      <path id="path3916" class="cls-1" d="M39.8,100.58c-.28.56-.2,1.04.24,1.44.19-.54.11-1.02-.24-1.44"/>
      <path id="path3918" class="cls-1" d="M0,41.47c.35.86,2.24.82,2.93.19.83-.76-.35-2.81-.02-3.8.19-.55.69-.93.8-1.51.17-.9-.49-1.48-.1-2.44.24-.61,1.68-2.68,2.09-2.6,1.21.23,2.35.75,3.66.48.62-.13,1.31-.81,1.9-.8.61.01.76.6,1.4-.18.62-.77-.11-2.22,1.13-2.52.9-.22,4.08.44,2.65-1.8,1.27-.06,4.97-2.25,4.56.43.72-.19,1.08-1.16,1.85-.92.34.1,1.32,1.7,1.56,2.02.59.79-.58,1.98-.91,2.77-.46,1.12.2,1.99.92,2.65,1.02.93,2.98-.94,4.25-.55.77.23,1.51.24.91,1.29-.58,1.01.64,2.46.67,3.4.02.79-.62,1.58-.64,2.42-.01,1.12-1.09,1.69-1.15,2.64-.03.45.76.72.78,1.3.03.97-.01,1.83-.49,2.76-1.15,2.25-2.11,3.54.45,4.49,1.3-1.7,4.25-2.96,4.62-5.18,1.15.73,1.48-1.26,2.43-1.27.66-.01,1.39,1.25,1.95,1.54.44.23,1.51.31,1.74.78.73,1.49,2.04-.7,3.16-.47.6.12,1.11-2.31,2.12-2.45-1.49-1.85,3.61-.65,4.16-.5,3.08.87,3.68,5.24,6.45,6.77,2.28,1.26.55,5.7.74,7.92.11,1.35,1.24,2.04,1.88,3.1,1.03,1.7,1.6,1.69,3.44,2.44-1.77,1.11.59,1.87,1.26,2.45.79.68-1.24,3.52-.04,3.31-.4.71-1.2,1.4-.8,2.21.23.46.78.66.65,1.29-.36,1.72.12,3.41-1.73,4.48-1.24.71-2.03,2.2-2.74.6-.73-1.65-3.54-.02-4.86-.42-.91-.28-1.86.06-2.8.19-1.01.14-1.41-.47-2.28-.54-1.2-.1-2.77.45-3.93.88-1.83.68-2.2,2.75-3.25,4.14-.48.65-1.62,1.18-1.62,1.99,0,.86-1.09.54-1.64.53.4,1.47.46,3.05.86,4.54.35,1.25.14,2.91,1.27,3.75,1.27.94.85,2,.85,3.42,0,1.74,1.78,3.16,1.36,4.92.06-.88-.64-1.36-.97-2.06-.5-1.06-.3-2.4-1.72-2.83,0,.43-.02.86-.04,1.3-.32-.96-3.52-1.4-1.51-2.66-.55.31-.89-.02-1.04-.51-.14,1.55-1.77-.85-2.04-1.58-.12,1.36-.92-1.4-2.26-.81-.65.29-1.34.82-2.08.67-.9-.18-1.93-.69-2.9-.45-1.9.46-.69-1.46-.72-2.6-.02-.67.02-1.35-.01-2.01-.03-.92.73-1.64.65-2.49-.86.63-2.91.05-3.09-.94.13,1.97-5.72.23-4.33,3.3.73,1.53.1,2.5-.35,4.1-.47,1.7.67,3.28.2,4.99-.19.68-.73,1.19-1.12,1.76-.48.7-.29,1.54-.82,2.23-1.02,1.3-1.32,3.29-1.78,4.81-.56,1.85-.94,3.18-1.86,4.87-.33.6.14,2.27-1.01,2.1,1.23,1.57-.31,4.49.43,6.39.35.9.9,1.51.4,2.43-.57,1.04,1.32,1.27,1.89.98,1.98-1.02,3.17-1.04,3.33,1.57.05.86.96,7.04,2.32,5.04.68,1.76.7,3.71,1.19,5.52.44,1.62,1.16,3.33,1.09,5.06-1.19-.22-1.16-5.46-2.5-4.55-.96.65.32,2.7.66,3.23.4.62.9,1.1,1.42,1.61.44.42,1.12.26,1.56.68,1,.98,1.15,2,2.87,2.05,1.27.04,2.71-.47,3.78.39,1.18.94,1.35,2.65,2.49,3.64,1.2,1.05,1.99,1.55,1.27,3.22-.33.76-.91,2.31-1.87,2.51-.74.15-.82-1.04-1.37-1.26-1.44-.58-2.38,2-3.31,1.99-1.81,0-1.27-1.78-.58-2.77.74-1.07-.44-2.06-1.22-2.25-1.1-.27-.58-1.87-2-2.06-1.31-.18-2.07-.23-2.86-1.33-1.1-1.54-.82,1.12-1.36,1.82,0-2.04-5.02-3.95-2.87-6.12-1.77,1.03-.95-1.64-1.77-2.16.04,1.05-.84.83-1.19.19-.45-.82-.28-2.08-.96-2.76-.45-.46-1.43.14-1.48-.61-.05-.68.1-.93-.27-1.5-.56-.85-.49-.79-1.39-.96-.56-.1-.4-1.03-.56-1.41-.26-.63-.53-1.59-1.45-1.37-.98.24-.62,1.12-.96,1.8-2.39-.5-1.73-4.1-1.37-5.84.73-3.5,1.65-7.06,2.57-10.52.35-1.35,1.56-3.14,1.65-4.46.11-1.56.73-1.65,1.44-3.03.9-1.74,5.9-6.43,4.5-8.35-.6-.82-.97-3.04-1.12-4.05-.24-1.53-.76-2.05-1.41-3.34-.38-.74-1.19-2.83-.97-3.64.56-1.96.63-3.39.03-5.28-.98-3.07-3.84-4.93-5.55-7.55-.75-1.15-1.47-2.28-1.5-3.77-.02-.84.44-2.76,1.55-1.66-.15-1.02,1.04-.8,1.36-1.52.46-1.01.07-3.38.03-4.47-.06-1.8,1.26-.88,2.02-1.89.48-.65.66-2.04.07-2.57-.25.57-.6,1.07-1.05,1.51-1.06-1.5-1.21-3.26-1.53-5.04-.2-1.13-1.78-2.26-2.48-3.14-1.08-1.36-2.55-2.8-3.43-4.28-.48-.82-.13-1.59-.31-2.48-.16-.8-.95-1.43-.67-2.35-1.55.43-2-1.53-2.19-2.6"/>
    </g>
    <g id="vn">
      <path id="path3474" class="cls-1" d="M66.83,117.93c.2.77.61,1.55,1.42,1.8-.55-.53-1.05-1.12-1.42-1.8"/>
      <path id="path3476" class="cls-1" d="M71.97,110.02c.1.79-.53,1.58.23,2.16.44-.76.26-1.57-.23-2.16"/>
      <path id="path3478" class="cls-1" d="M73.08,111.31c-.08.24-.1.48-.06.72.02-.24.04-.48.06-.72"/>
      <path id="path3480" class="cls-1" d="M91.51,92.95c.09.34.3.56.65.65-.22-.22-.44-.43-.65-.65"/>
      <path id="path3562" class="cls-1" d="M36.72,8.49c1.37.06,1.39-1.9,2.03-2.67,1.04-1.26,3.03.7,3.58,1.33.98,1.13,1.97.2,2.87-.99,1.24-1.64,1.45-.1,2.07.75.38-.64.61-2.19,1.47-1.19.53.61.99,1.37,1.68,1.84.43.29,1.24-2.75,2.58-2.8-.7,2.02,3.43.19,4.15-.42.89-.76.06-1.28.33-1.94.45-1.08,2.84-1.19,3.57-2.39.85,1.48,2.05,2.64,3.59,3.42,1.21.62,2.6-.56,3.36.57.77,1.14,2.52-.63,3.49.5.49.57.83,2.9-.72,2.35-.33,1.97.5,3.41.82,5.33.66-.49,2.7.18,2.56,1.01-.21,1.25,2.29.97,2.43,2.16.27-.15.54-.29.81-.43.23,1.02,1.05.26,1.96,0,1.14-.32,1.85.87,2.51,1.44-1.01.76-.97-.68-1.99.05-.93.67-1.35,1.61-2.48,1.78-1.21.18-.45,1.23-1,2-.54.74-3.04,1.47-1.63.13-.74-.18-1.95.97-2.05,1.37-.59-.35-.66-1.54-1.64-1.23.24.31.54.55.91.72-.77.74-.34,1.11.03,1.9.3.66-1.17.64-1.43.47.23.68.11,2.59-.72,3.1.09.03.19.03.29,0-.17.54-2.84,2.99-3.24,2.38-1.33.6-2.01,2.42-2.32,3.63-.43,1.67.11,2.8-1.01,4.36-1.27,1.78.59,2.18.44,3.81.61-1.12.62.57,1.02,1.18.53.82,1.2,1.46,1.98,2.05.75.56,1.5,1.15,2.15,1.82.93.96.34,2,.55,3.23-.41-.35-.9-.54-1.46-.58,1.78.31,2.37,2.55,3.66,3.67.94.82,4.03,2.42,2.97,4.17,1.19-.64,2.69,1.57,3.23,2.23-.29-.14-.6-.26-.91-.36,1.26.84,2.39,1.76,3.12,3.1,1.39-1.44,3.44,1.78,2.67,2.52.7-.44-.12-1.83,1.1-1.15-2.16,1.66,3.37,5.51,3.3,6.98.65-1.25.75-.21,1.08.37.52.9-.4.53-.32,1.22.14,1.27,1.05,2.41,1.42,3.6.5,1.61.65,3.36,1.19,4.99.22.65.46,1.31.53,2.02.04.34-.15,2.16-.4.41-.15.98.67,3.81-.25,2.09.19.58.49,1.08.91,1.51-1.37.18-.36.85-.24,1.61.19,1.1.47,1.84.97,2.82.2.4.03,2.38-.11,2.98-.37-.41-.61-.89-.73-1.44-1.44.8-.31,2.45.05,3.39-.43-.27-.9-.46-1.4-.58.6.59.97,3.66.52,4.53.04-.52-.06-1-.3-1.44.39.72-.07,1.46-.35,2.16.82-.02.81.57.53,1.19-.29.66-1.29.97-1.37,1.19-.5,1.35.02,1.39-1.52,2.15-.45.35-.92.68-1.41.97-.67.26-.96,1.19-1.47,1.34-.84.24-1.71.59-2.47,1.06-.35.22-1.01,1.83-1.26,1.74-.71-.25-2.03.66-2.62,1.08-.8.57-2.34,1.06-2.95,1.76-.43-.99-1.77-.96-1.75-2.23-.14.51-.28,1.01-.43,1.51-.08-.41-.21-.79-.4-1.15.3.83.18.78-.36-.15.81,0-.76-.51-.75-.5.17.87-.29,1.99-1.38,1.73.2.81,1.47-.42,1.64.72.26,1.45-2.3.74-2.82.72.86.73,2.35.59,2.87,1.73-.88.13-1,1.5-1.97.81-.64-.46-1.01-1.85-1.88-1.96.52.65,3.19,2.95,2.69,3.67-1.74-.72-2.58-2.48-3.99-3.6.26,1.15,5.36,4.69,2.92,5.98-1.6.85-4.03-3.28-5.12-3.97.7,1.26,3.45,3.21,2.87,4.89-.45,1.3-2.68,1.65-3.76,2.18-1.82.88-1.95,2.2-3.11,3.61-.79.96-2.79,2.56-3.95,1.41.4-.47.9-.76,1.49-.86-.12-.3-.2-.61-.24-.94-.31.14-.64.26-.96.36.15-1.82-.14-3.62-.05-5.43.04-.9.15-1.81.48-2.67.22-.58,1.63-3.02,1.8-1.26.15-2.83-5.29-2.41-4.65-4.82-.13.43-.32.4-.58-.07.5-.17.87-.94,1.41-.94.58,0,1.21.16,1.79-.1.48-.22,1.06-.9,1.4-1.29.67-.77-.36-1.52.44-2.27,1.26,1.31,3.31-.11,4.81-.4.52-.1.78.35.98.73.48.91,1.6.83,2.47,1.11.09-.79-.68-1.45.28-1.58-.06-1.33-1.73-1.38-2.2-2.3-.4-.79-.62-1.8-.73-2.69-.1-.85.8-.94,1.28-1.6.74-1,2.76.45,3.56.61-.39-.84.3-1.82-.27-2.59.72-.17,1.46.18,2.17-.11.6-.25,1.84-1.02,2.44-1.41.69-.45.89-1.1,1.74-1.33.66-.18,1.51-.11,2.07-.59,1.51-1.3-.29-4.87.04-6.54.3-1.43.96-2.45.41-3.83-.18-.42-.37-.85-.56-1.27-.31-.75,0-1.29-.2-1.98-.29-.98-.85-.9-.8-2.21.07-1.59,1.2-2.52,1.46-3.92.06-.34.27-2.1.1-2.27-1.09-1,.03-.75.61-1.8.9-1.61-.85-3.2-1.93-3.94-.5-.34-1.79-1.07-1.63-1.85.19-.94,1.83-1.33,2.3-2.16-.97-.38-2.19-1.16-2.73-2.05-.4-.66-.93-.11-1.35-1.01-.57-1.22-1.11-.08-1.95-.61-.48-.31-.92-1.61-.95-2.19-.09-1.82-.66-3.37-2.01-4.65-.38-.36-1.32-.6-1.84-1.22-.98-1.16-2.18-2.35-2.97-3.65-.51-.84-.65-1.87-1.19-2.68-.22-.32-.59-.71-1.06-.37-.36-.68-1.17-.91-1.51-1.61-.25-.52-.99-1.73-.33-2.3.83-.72-2.51-1.42-2.73-1.47-2.22-.52-3.39-3.11-5.47-3.7-.6-.17-2.18-.96-.72-1.59,2.08-.9-.28-1.43.22-2.43.27-.54,2.79.25,3.04.29,1.05.16,4.23-1.6,2.79-2.02.4-.49,1.43-.75,1.54-1.44.14-.88-.73-1.66-1.61-1.55-.6.08-.61-.3-.71-.78-.21-1.07-1.38-.78-2.19-1.12.32-.76,1.42-.61,1.58-1.24.27-1.07-.87-1.48-1.5-1.98-.76-.6-1.22-1.33-2.44-1.11-1.9.33-1.64,1.3-2.63,2.39-.75-.49-1.81-1.43-2.74-1.26-1.06.2-2.7-1.61-3.09-2.34-.45-.83-.66-2.81-.21-3.8.79-1.76-.76-1.37-.9-2.75.14.56-.04,1.07-.53,1.51-.92-.29-.88-1.96-1.61-2.61-.98-.89-2.6-2.44-2.98-3.74"/>
      <path id="path5494" class="cls-1" d="M72.46,21.96c.15-.35.04-.59-.32-.72.11.24.21.48.32.72"/>
      <path id="path5496" class="cls-1" d="M73.11,22.03c.25.45.61.78,1.08,1.01.76-.92-.4-1.17-1.08-1.01"/>
      <path id="path5498" class="cls-1" d="M77.39,18.21c-.31.63-.53,1.28-.68,1.94.84-.45,1.85-1.44.68-1.94"/>
      <path id="path5500" class="cls-1" d="M78.09,20.3c-.43.32-.78.71-1.07,1.15.56-.17,1-.58,1.07-1.15"/>
      <path id="path5502" class="cls-1" d="M80.48,17.28c.23.12.49.07.76-.15-.25.05-.51.1-.76.15"/>
    </g>
    <g id="kh">
      <path id="path3472" class="cls-1" d="M50.81,111.96c-.35.46-.8.69-1.35.72.94.75.97,2.03,1.65,2.95-.29-1.23.83-2.69-.3-3.67"/>
      <path id="path6024" class="cls-1" d="M43.36,103.61h-.43c.13.29.3.56.51.79-.03-.27-.06-.53-.08-.79"/>
      <path id="path6026" class="cls-1" d="M45.13,109.94c.4-.61.21-.85-.59-.72.18.26.38.49.59.72"/>
      <path id="path6044" class="cls-1" d="M38.15,87.19c.1-.75.15-1.52-.04-2.23,2.4.08,3.8-3.35,4.74-5.08,1.02-1.89,5.08-3.05,6.64-2,.77.52,2.12.27,3.02-.04,1.2-.4,2.04.27,3.3-.22,2.28-.88,3.16,2.43,4.35.5-.2,3.02,3.66.91,4.64,2.91.48.98,2.5,1.03,2.48-.46-.01-.82-1.73-1.83-.53-2.6.5-.32.88.33,1.11-.42.19-.61.69-.4,1.16-.44.6-.05.61-.87,1.1-.91.67-.06,1.24.86,1.67,1.21,1.91,1.52,5-.7,6.25-2.38-.06.55-.01,1.19-.27,1.73-.29.59-1.23.88-1.08,1.63.14.72-.15,1.46-.04,2.18.11.75.56,1.65.77,2.4.51,1.8,1.53,2.51.74,4.66-.35.98-.96,1.87-.69,2.89.21.79.72,1.54.72,2.39,0,.82-.48,1.97-.88,2.7-.54.99-.66-.29-1.46.11-1,.51-1.71,1.46-2.66,2.03-1.38.82-2.4.69-3.9,1.05.57.77-.11,1.76.27,2.59-.81-.16-2.83-1.61-3.56-.61-.48.65-1.39.75-1.28,1.6.11.89.33,1.9.73,2.69.46.92,2.13.97,2.19,2.3-.96.14-.19.8-.28,1.58-.65-.22-1.44-.19-2.01-.59-.5-.34-.65-1.4-1.44-1.25-1.51.29-3.56,1.71-4.81.4-.84.79.01,1.85-1.07,2.83-1.05.95-1.88.48-3.03.92-.85.33-1.02.85-1.99.42-.96-.42-2.98-.72-3.4-1.73.18,1.07-1.36,1.8-2.08,1.1-.95-.92.01-1.12.67-1.75.77-.74.09-2.72-.52-3.23-1.08-.93-1.43,1.49-1.67,2.08-.66-.6-1.18.27-1.81-.05-.96-.49-.21-2.06-.38-2.88-.15-.74.67-1.81-.05-2.35-.51-.38-1.55-1.68-.18-1.86-.55-.3-.96-.01-1.14.58.29-1.23-.67-2.32-1-3.39-.37-1.19.4-2.85-.25-3.92-1.39-2.27-2.39-4.42-3.04-7.1"/>
    </g>
    <path id="la" class="cls-1" d="M20.95,26.21c.46-1.17.33-2.84,1.57-3.67.71-.48,2.37.06,2.65-1.01-1.64.88-.04-1.76.22-2.24.43-.79.49-1.22,1.42-1.6.79-.32,2.33-1.06,2.26-2.06,1.15.69-.41,4.01,1.95,3.12,1.38-.52,1.32.07,2.39.5,1.51.6.36-1.3.34-1.43-.16-1,.55-1.73.56-2.65.01-.92-.62-1.8-1.07-2.52-.5-.81-.94-1.58-.84-2.64.02-.24,1.21-2.85,1.57-2.32.36.53.22.85,1.23.6,1.57-.38,1.56.68,2.3,1.53.78.9,1.7,1.74,2.54,2.6.64.65.32,2.12,1.28,2.41.49-.44.67-.95.53-1.51.1.9,1.18.71,1.24,1.71.07,1.01-.75,2.18-.62,3.34.39,3.4,4,3.55,6.33,5.09.77-.84.65-1.63,1.86-2.09,1.44-.55,2.37-.03,3.36.75.57.45,1.44.96,1.44,1.81,0,.75-1.36.73-1.67,1.47.64.27,1.93.07,2.06.95.1.67.61.65,1.1.92,2.03,1.17,1.19,1.38-.18,3.02,1.44.42-1.74,2.18-2.79,2.02-.26-.04-2.77-.83-3.04-.29-.26.52.72,1.41.38,2.31-.86,0-1.86.95-.71,1.32,1.94.62,3.83,2.5,5.43,3.73.63.49,4.01.55,3.74,1.76-.19.95-.85,1.22-.11,2.12.54.67,1.46,1.71,2.2,1.72.76.02,1.07,1.33,1.27,1.86.45,1.23,1.24,2.13,2.07,3.1.47.56,2.11,3.2,2.96,2.96.83-.23,1.15,2.36,1.9,2.7.89.4.28,2.29.78,3.06.17.25.52,1.23.86,1.29.42.07.94-.38,1.33-.14.79.49.4,1.3,1.47,1.55,1,.24,1.94,1.77,3.02,2.19-.49.86-1.7,1.25-2.13,2.14-.47.97,2.05,2.21,2.36,2.91.46,1.07,1.73,1.07.91,2.62-.24.46-.82.97-.9,1.48-.07.49.44.82.36,1.4-.22,1.63-.63,1.89-2,2.2-1.18.27-1.66,1.77-3.23,1.79-1.52.02-1.58-1.96-2.51-2.09-.62-.09-.4.77-.84.94s-.91.21-1.36.32c-.52.13-2.07.86-1.8,1.49.36.83,1.38,1.78.43,2.72-1.16,1.16-3.17-2.07-4.92-1.46-.98.34-2.29-1.32-1.28-2.09.75-.57,2.08-1.1,2.09-2.16.01-.99.57-2.45.45-3.29-.08-.56-1.02-.62-.95-1.26.07-.58.63-1.11.92-1.62-.3.14-.55.12-.75-.05-.05-.81,1.97-1.86.87-3.1-.59-.67-3.16-1.47-1.34-2.61-2.68-1.09-5.32-2.96-5.37-6.25-.04-2.55,1.28-6.13-1.2-7.69-2.52-1.59-2.98-5.44-6.06-6.1-.4-.09-5.62-1.65-4.04.32-1.29.17-1.13,1.96-1.76,2.52-.25.22-1.52.24-2.09.7-.87.7-1.08-.06-1.59-.46-.85-.68-2.26-1.66-3.33-2.01-1.09-.35-1.4,1.91-2.64,1.13-.33,1.98-2.9,3.36-4.22,4.73-.61.63-1.33.28-1.84-.32-.57-.67.09-1.9.46-2.6.58-1.09.81-1.83.77-3.02-.02-.71-.59-1.92-.43-2.54.22-.36.49-.69.81-.98.45-.61.07-.63.2-1.26.3-1.36.88-2.15.38-3.45-.71-1.84.73-4.63-2.56-3.78-.38,0-.68.15-.91.44-.41.7-.41.09-1.03.21-1.08.21-1.5-.21-1.87-1.2-.53-1.41,1.66-3.12.97-4.17-.28-.43-1.09-1.8-1.53-2.01-.88-.43-1.21.65-2.03.86,0-.24-.02-.48-.04-.72"/>
  </g>
</svg>