<svg preserveAspectRatio="xMidYMid meet" data-bbox="0.12 0.35 299.865 79.26" viewBox="0 0 300.11 79.73" xmlns="http://www.w3.org/2000/svg" data-type="ugc" role="presentation" aria-hidden="true" aria-label="">
    <g>
        <defs>
            <filter filterUnits="userSpaceOnUse" id="b8a2f155-377e-4814-a3d9-99d4f25049b0_comp-kbanqr04">
                <feOffset></feOffset>
                <feGaussianBlur stdDeviation="2" result="blur"></feGaussianBlur>
                <feFlood flood-opacity=".83" flood-color="#ffffff"></feFlood>
                <feComposite operator="in" in2="blur"></feComposite>
                <feComposite in="SourceGraphic"></feComposite>
            </filter>
        </defs>
        <g filter="url(#b8a2f155-377e-4814-a3d9-99d4f25049b0_comp-kbanqr04)">
            <path d="M132.02 2.22v34.81h12.48v5.73h-18.88V2.22h6.4Z" fill="#424952" stroke="#ffffff" stroke-miterlimit="10" stroke-width=".25"></path>
            <path d="M153.03 22.38a19.448 19.448 0 0 1 6.56-14.71c4.23-4.06 9.9-6.27 15.76-6.16a21.76 21.76 0 0 1 15.56 6.2c4.2 3.81 6.57 9.23 6.52 14.9.08 5.67-2.31 11.09-6.55 14.86a22.432 22.432 0 0 1-15.86 6.12c-5.41.03-10.64-1.9-14.74-5.43a19.592 19.592 0 0 1-7.25-15.77Zm6.46.07a14.28 14.28 0 0 0 4.73 11.07c6.24 5.81 15.92 5.77 22.12-.09 6.01-5.92 6.08-15.59.16-21.6-.05-.06-.11-.11-.16-.16-2.97-2.92-7-4.51-11.16-4.41-4.17-.1-8.2 1.5-11.19 4.41-2.96 2.79-4.6 6.71-4.5 10.77Z" fill="#424952" stroke="#ffffff" stroke-miterlimit="10" stroke-width=".25"></path>
            <path d="m212.01 2.22 11.03 27.22L234.5.35l11.13 29.1 11.79-27.22h6.96l-19.03 43.21-10.86-28.75-11.46 28.77-17.99-43.24H212Z" fill="#424952" stroke="#ffffff" stroke-miterlimit="10" stroke-width=".25"></path>
            <path d="m298.82 8.33-5.2 2.87a8.605 8.605 0 0 0-2.78-3.15c-1.08-.6-2.3-.9-3.54-.85-1.6-.06-3.17.45-4.43 1.43a4.374 4.374 0 0 0-1.76 3.58c0 1.98 1.54 3.57 4.63 4.77l4.3 1.66c2.89.96 5.48 2.64 7.55 4.87 1.62 1.99 2.47 4.5 2.39 7.06.1 3.5-1.32 6.87-3.9 9.24a13.674 13.674 0 0 1-9.76 3.68c-3.32.13-6.58-.98-9.13-3.12a14.17 14.17 0 0 1-4.43-8.81l6.49-1.43c.08 1.75.62 3.46 1.55 4.94a6.75 6.75 0 0 0 5.73 2.62c1.85.06 3.64-.63 4.97-1.91a6.966 6.966 0 0 0 1.65-7.03 5.57 5.57 0 0 0-1.07-1.82c-.56-.6-1.19-1.12-1.89-1.55a16.59 16.59 0 0 0-2.74-1.43l-4.1-1.63c-5.84-2.21-8.75-5.56-8.75-10.07a9.57 9.57 0 0 1 3.65-7.65c2.55-2.1 5.79-3.2 9.1-3.09 4.8-.06 9.22 2.58 11.46 6.82Z" fill="#424952" stroke="#ffffff" stroke-miterlimit="10" stroke-width=".25"></path>
            <path d="M125.62 52.82H130c1.14-.03 2.28.12 3.38.44.87.3 1.65.82 2.26 1.52a9.583 9.583 0 0 1 2.13 4.3c.48 2.41.7 4.86.63 7.32.05 2.41-.18 4.81-.7 7.16a7.854 7.854 0 0 1-2.26 4.03c-1.29 1.15-3.6 1.73-6.93 1.73h-2.89v-26.5Zm3.57 23.32c2.16 0 3.59-.66 4.3-1.98s1.08-3.87 1.13-7.65c.2-2.85-.15-5.71-1.03-8.42a3.96 3.96 0 0 0-3.95-2.29h-.44v20.34Z" fill="#424952" stroke="#ffffff" stroke-miterlimit="10" stroke-width=".25"></path>
            <path d="M141.94 52.82h9.47v3.01h-5.9v8.38h5.24v3.01h-5.24v9.03h5.9v3.02h-9.47V52.82Z" fill="#424952" stroke="#ffffff" stroke-miterlimit="10" stroke-width=".25"></path>
            <path d="M163.5 53.37v3.48a5.219 5.219 0 0 0-2.87-1.17c-.88-.03-1.72.33-2.29 1-.62.68-.94 1.59-.89 2.51-.03.84.19 1.67.63 2.39.32.48.67.93 1.06 1.36.51.56 1.15 1.24 1.93 2.02 1.18 1.12 2.18 2.41 2.97 3.83.56 1.2.83 2.51.79 3.83.07 1.84-.55 3.64-1.73 5.04a5.73 5.73 0 0 1-4.53 1.93c-1.4.04-2.77-.4-3.88-1.25v-3.52c.98.83 2.19 1.33 3.47 1.43.87.04 1.71-.32 2.28-.97.58-.75.87-1.68.82-2.62.01-.9-.2-1.8-.63-2.59-.28-.44-.58-.86-.92-1.26-.39-.47-.87-1-1.43-1.58-.9-.9-1.65-1.69-2.25-2.36-.5-.56-.94-1.16-1.32-1.81a8.045 8.045 0 0 1-.82-3.8c-.1-1.78.48-3.53 1.6-4.91a5.5 5.5 0 0 1 4.37-1.83c1.27-.02 2.51.28 3.64.86Z" fill="#424952" stroke="#ffffff" stroke-miterlimit="10" stroke-width=".25"></path>
            <path d="M167.77 52.82h3.57v26.45h-3.57V52.82Z" fill="#424952" stroke="#ffffff" stroke-miterlimit="10" stroke-width=".25"></path>
            <path d="M181.75 65.36h6.46v1.03c0 5.15-.45 8.62-1.35 10.43a5.02 5.02 0 0 1-5 2.76 5.597 5.597 0 0 1-5.4-3.08c-1.06-2.05-1.59-5.51-1.59-10.36 0-5.56.59-9.24 1.75-11.09a5.592 5.592 0 0 1 5.06-2.58c1.49-.08 2.95.39 4.11 1.32a8.357 8.357 0 0 1 2.29 4.17l-3.32 1.43c-.12-.59-.28-1.18-.49-1.75-.14-.4-.35-.77-.6-1.1a2.34 2.34 0 0 0-1.95-.8c-1.19 0-2.01.73-2.44 2.19-.55 2.71-.77 5.48-.66 8.24-.12 2.73.1 5.46.67 8.12a2.563 2.563 0 0 0 2.52 2.13c1.03.06 1.99-.54 2.38-1.5.56-1.66.8-3.42.7-5.17v-1.26h-3.15v-3.14Z" fill="#424952" stroke="#ffffff" stroke-miterlimit="10" stroke-width=".25"></path>
            <path d="M191.76 52.82h3.32l3.6 10.54c1.07 3.13 1.98 6.32 2.72 9.54-.29-2.05-.49-3.9-.63-5.54s-.2-3.22-.2-4.68v-9.86h3.58v26.45h-3.4l-4-11.9c-.37-1.12-.72-2.25-1.03-3.41s-.63-2.39-.9-3.67c0-.16 0-.36-.11-.59l-.19-.79c0 .3 0 .56.1.77s0 .39 0 .53l.19 2.69.19 3.27v1.56l.19 11.53h-3.42V52.81Z" fill="#424952" stroke="#ffffff" stroke-miterlimit="10" stroke-width=".25"></path>
            <path d="M214.44 67.21v-2.94h4.71v-4.63h2.97v4.63h4.68v2.94h-4.66v4.67h-2.97v-4.67h-4.74Z" fill="#424952" stroke="#ffffff" stroke-miterlimit="10" stroke-width=".25"></path>
            <path d="M237.22 52.82h4.83c3.78 0 5.73 2.35 5.73 7.03.08 1.37-.17 2.74-.73 4-.6.95-1.53 1.65-2.61 1.96a5.73 5.73 0 0 1 2.87 2.19c.61 1.23.89 2.61.8 3.98 0 4.84-2.08 7.28-6.23 7.28h-4.66V52.81Zm3.35 11.65c1.05.11 2.09-.24 2.87-.96.63-1.07.92-2.31.8-3.55 0-2.87-1.03-4.3-3.08-4.3h-.6v8.81Zm.01 11.75c1.1.12 2.2-.22 3.04-.95.66-1.01.96-2.21.83-3.41a5.42 5.42 0 0 0-.87-3.54 3.714 3.714 0 0 0-2.99-1.03v8.93Z" fill="#424952" stroke="#ffffff" stroke-miterlimit="10" stroke-width=".25"></path>
            <path d="M251.69 52.82h3.5v18.62c-.1 1.29.08 2.58.52 3.8a2.874 2.874 0 0 0 4.05.22l.09-.09a7.5 7.5 0 0 0 .52-3.41v-19.2h3.5v19.2c0 2.87-.43 4.83-1.32 5.85a6.214 6.214 0 0 1-4.81 1.72c-1.95.2-3.85-.65-5.01-2.22-.84-1.83-1.19-3.85-1.02-5.86V52.83Z" fill="#424952" stroke="#ffffff" stroke-miterlimit="10" stroke-width=".25"></path>
            <path d="M267.89 52.82h3.55v26.45h-3.55V52.82Z" fill="#424952" stroke="#ffffff" stroke-miterlimit="10" stroke-width=".25"></path>
            <path d="M275.53 52.82h3.57v23.42h5.82v3.02h-9.38V52.81Z" fill="#424952" stroke="#ffffff" stroke-miterlimit="10" stroke-width=".25"></path>
            <path d="M287.13 52.82h4.4c1.14-.03 2.27.12 3.37.44.87.3 1.65.82 2.26 1.52a9.565 9.565 0 0 1 2.12 4.3c.48 2.41.7 4.86.63 7.32.06 2.41-.18 4.81-.7 7.16a7.854 7.854 0 0 1-2.26 4.03c-1.29 1.15-3.6 1.73-6.93 1.73h-2.87v-26.5Zm3.55 23.32c2.16 0 3.62-.66 4.3-1.98s1.13-3.85 1.13-7.65c0-4.07-.36-6.87-1.09-8.41a3.96 3.96 0 0 0-3.95-2.29h-.44l.06 20.33Z" fill="#424952" stroke="#ffffff" stroke-miterlimit="10" stroke-width=".25"></path>
            <path d="M61.69 49.12v25.42H47.33V18.72l42.16 21.15V2.31H42.26v8.26L22.71.75v33.73L.12 50.38v29.23h5.04V52.98L27.77 37.1V8.98l14.52 7.26v63.37h24.43V54.15h37.89v25.46h5.03V49.12H61.69ZM47.32 7.34h37.13v24.37L47.32 13.09V7.34Z" fill="#424952" stroke="#ffffff" stroke-miterlimit="10" stroke-width=".25"></path>
        </g>
    </g>
</svg>
