<?xml version="1.0" encoding="UTF-8"?>
<svg id="Layer_2" data-name="Layer 2" xmlns="http://www.w3.org/2000/svg" viewBox="0 0 2255.03 1409.17">
  <defs>
    <style>
      .cls-1 {
        fill: #fe0067;
      }
    </style>
  </defs>
  <g id="Layer_1-2" data-name="Layer 1">
    <g>
      <path class="cls-1" d="M1430.36,873.41c24.85,2.52,57.15,15.6,63.59,42.32,7.23,30.01-1.66,56.07-26.61,73.53,19.58,6.48,35.82,21.87,37.94,43,6.83,67.84-37.94,85.74-96.82,88.97-28.3,1.55-81.12,3.18-108.11.02-2.91-.34-5.14-.25-6.89-3.1v-244.75h136.9ZM1354.42,919.36l-3,3v45.95l3,3h55.96c3.93,0,17.02-6.5,20.08-9.9,7.3-8.12,7.26-24.06,0-32.15-3.05-3.4-16.15-9.9-20.08-9.9h-55.96ZM1351.42,1015.26v54.94l3,3h55.96c4.04,0,18.96-4.5,22.88-7.09,16.8-11.09,16.03-36.45-1.77-45.98-1.83-.98-12.05-4.87-13.12-4.87h-66.95Z"/>
      <path class="cls-1" d="M1605.24,873.41v160.84c0,4.14,4.58,18.77,6.89,23.08,15.93,29.71,75.68,28.55,86.48-7.65,1.57-5.25,4.56-20.67,4.56-25.41v-150.85h57.96c-1.88,46.41,2.48,94.73.08,140.94-2.05,39.43-10.69,83.9-50.98,100.88-65.89,27.78-162.95,4.07-162.95-80.98v-160.84h57.96Z"/>
      <polygon class="cls-1" points="2038.93 873.41 1944.99 1024.26 1944.99 1121.16 1890.03 1121.16 1887.04 1118.16 1887.04 1022.26 1795.1 873.41 1860.05 873.41 1916.02 967.27 1971.97 873.41 2038.93 873.41"/>
      <path class="cls-1" d="M1659.2,585.7h578.58c7.9,0,18.79,14.55,17.06,22.9v777.36c.18,11.93-8.62,23.1-20.97,22.99h-1149.36c-7.77,1.99-20.89-10.72-20.89-17.08v-176.82H161.28c-3.5,0-12.99-12.22-12.99-14.98v-559.43l-3-3H13.38c-4.42,0-15.31-13-13.09-18.89V19.18C-.24,9.53,6.07,4.35,14.32,1.24L1638.29.22c6.38-1.74,20.91,7.28,20.91,13.06v572.42ZM1607.24,52.24H52.35v533.46h444.68c15.22,0,15.35,51.95,2,51.95H203.25l-3,3v522.47h863.38v-124.87c0-.9,5.5-8.32,6.86-9.13,5.88-3.53,45.11-4.26,45.11,5.13v319.68l3,3h1081.22l3-3v-713.28l-3-3h-1081.22l-3,3v125.87c0,9.57-40.58,8.67-46.76,4.79-1.43-.9-5.21-5.7-5.21-6.78v-126.87h-294.79c-9.57,0-8.67-40.56-4.79-46.74.9-1.43,5.7-5.2,6.79-5.2h836.4V52.24Z"/>
      <path class="cls-1" d="M880.99,900.3c0,71.92-58.32,130.22-130.26,130.22s-130.26-58.3-130.26-130.22,58.32-130.22,130.26-130.22,130.26,58.3,130.26,130.22ZM741.37,819.98c-82.98,11.21-76.13,166.91,13.44,161.28,90.36-5.68,82.48-174.25-13.44-161.28Z"/>
      <polygon class="cls-1" points="597.96 775.51 597.96 827.46 518.02 827.46 518.02 1023.26 460.06 1023.26 460.06 827.46 380.12 827.46 380.12 778.5 383.12 775.51 597.96 775.51"/>
      <path class="cls-1" d="M1015.66,195.1c1.75-2.85,3.98-2.76,6.89-3.1,34.23-4.02,127.66-1.23,158.95,11.13,67.17,26.51,51.7,124.02-16,137.88l70,98.84h-66.95l-66.97-92.89c-3.62-2.2-24.48-2.48-27.96,1.98v90.91h-57.96v-244.75ZM1073.62,297.99h58.96c4.37,0,19.47-5.51,23.08-8.89,9.18-8.6,10.06-28.4.95-37.1-2.81-2.68-20.9-9.95-24.03-9.95h-58.96v55.94Z"/>
      <polygon class="cls-1" points="510.02 288 611.95 288 611.95 195.1 614.95 192.1 669.91 192.1 669.91 439.85 611.95 439.85 611.95 337.95 510.02 337.95 510.02 439.85 452.07 439.85 452.07 192.1 507.03 192.1 510.02 195.1 510.02 288"/>
      <polygon class="cls-1" points="1477.33 192.1 1477.33 244.05 1345.42 244.05 1345.42 288 1425.37 288 1425.37 337.95 1345.42 337.95 1345.42 389.9 1477.33 389.9 1477.33 439.85 1287.47 439.85 1287.47 192.1 1477.33 192.1"/>
      <path class="cls-1" d="M384.11,242.02l-52.74,18.17c-10.51-26.85-56.17-32.31-77.84-17.82-16.22,10.84-10.13,29.99,5.26,38.05,19.22,10.06,61.58,12.25,86.38,21.53,21.93,8.2,44.76,22.16,48.41,47.51,16.25,112.77-179.96,128.98-209.26,32.54l51.87-18.07c8.07,33.49,53.33,40.81,81.34,30.34,24.06-8.99,24.37-33.05,1.97-44.67-39.22-20.34-115.7-9.18-132.69-65.15-31.31-103.16,166.21-131.66,197.3-42.42Z"/>
      <path class="cls-1" d="M717.88,439.85l92.92-245.76,62.04-2.12,96.85,247.88h-63.95l-13.76-42.77-94.88-.91-15.26,43.68h-63.95ZM873.76,349.94l-31.95-93.9-30,93.9h61.96Z"/>
    </g>
  </g>
</svg>