<?xml version="1.0" encoding="UTF-8"?>
<svg id="Layer_2" data-name="Layer 2" xmlns="http://www.w3.org/2000/svg" viewBox="0 0 41.68 29.82">
  <defs>
    <style>
      .cls-1 {
        fill: #002545;
      }
    </style>
  </defs>
  <g id="Layer_1-2" data-name="Layer 1">
    <g>
      <g>
        <g>
          <path class="cls-1" d="M11.4,10.39c-.1,0-.2,0-.29-.02s-.17-.04-.23-.06-.11-.06-.15-.1-.05-.08-.05-.13v-5.81s.02-.09.05-.13.09-.07.15-.1.14-.05.23-.07c.09-.02.19-.02.29-.02h2.98c.1,0,.19,0,.27.02.08.01.16.03.22.06.06.03.11.06.15.09.04.03.06.07.07.12l.43,2.93s.02.05.04.06c.02.01.04.02.06.02s.04,0,.06-.02c.02-.01.03-.03.03-.06l.43-2.93s.03-.08.07-.12c.04-.04.09-.07.15-.09.06-.03.14-.05.22-.06.08-.01.18-.02.27-.02h2.98c.1,0,.2,0,.29.02.09.02.17.04.23.07s.11.06.15.1c.04.04.05.08.05.13v5.81s-.02.09-.05.13c-.04.04-.09.07-.15.1s-.14.05-.23.06-.19.02-.29.02h-1.95c-.11,0-.21,0-.3-.02s-.17-.04-.23-.07-.12-.06-.15-.1c-.04-.04-.05-.08-.05-.13l.14-2.9s0-.04-.02-.05c-.01-.01-.03-.02-.05-.02s-.03,0-.05.02c-.02.01-.03.03-.03.05l-.7,2.87c-.02.08-.09.15-.22.2-.13.05-.29.08-.48.08h-.26c-.19,0-.35-.02-.48-.08-.13-.05-.2-.12-.22-.2l-.7-2.87s-.01-.04-.03-.05c-.02-.01-.03-.02-.05-.02-.02,0-.03,0-.05.02-.01.01-.02.03-.02.05l.14,2.9s-.01.09-.05.13c-.04.04-.09.07-.15.1s-.14.05-.23.07-.19.02-.3.02h-1.95Z"/>
          <circle class="cls-1" cx="15.62" cy="1.62" r="1.62"/>
        </g>
        <g>
          <path class="cls-1" d="M21.83,10.39c-.1,0-.2,0-.29-.02s-.17-.04-.23-.06-.11-.06-.15-.1-.05-.08-.05-.13v-5.81s.02-.09.05-.13.09-.07.15-.1.14-.05.23-.07c.09-.02.19-.02.29-.02h2.98c.1,0,.19,0,.27.02.08.01.16.03.22.06.06.03.11.06.15.09.04.03.06.07.07.12l.43,2.93s.02.05.04.06c.02.01.04.02.06.02s.04,0,.06-.02c.02-.01.03-.03.03-.06l.43-2.93s.03-.08.07-.12c.04-.04.09-.07.15-.09.06-.03.14-.05.22-.06.08-.01.18-.02.27-.02h2.98c.1,0,.2,0,.29.02.09.02.17.04.23.07s.11.06.15.1c.04.04.05.08.05.13v5.81s-.02.09-.05.13c-.04.04-.09.07-.15.1s-.14.05-.23.06-.19.02-.29.02h-1.95c-.11,0-.21,0-.3-.02s-.17-.04-.23-.07-.12-.06-.15-.1c-.04-.04-.05-.08-.05-.13l.14-2.9s0-.04-.02-.05c-.01-.01-.03-.02-.05-.02s-.03,0-.05.02c-.02.01-.03.03-.03.05l-.7,2.87c-.02.08-.09.15-.22.2-.13.05-.29.08-.48.08h-.26c-.19,0-.35-.02-.48-.08-.13-.05-.2-.12-.22-.2l-.7-2.87s-.01-.04-.03-.05c-.02-.01-.03-.02-.05-.02-.02,0-.03,0-.05.02-.01.01-.02.03-.02.05l.14,2.9s-.01.09-.05.13c-.04.04-.09.07-.15.1s-.14.05-.23.07-.19.02-.3.02h-1.95Z"/>
          <circle class="cls-1" cx="26.05" cy="1.62" r="1.62"/>
        </g>
      </g>
      <g>
        <path class="cls-1" d="M.46,22.99c-.07,0-.13-.01-.18-.03s-.11-.05-.15-.09-.07-.09-.09-.15-.03-.12-.03-.18v-8.44c0-.07.01-.13.03-.18s.05-.11.09-.15.09-.07.15-.09c.06-.02.12-.03.18-.03h1.88c.06,0,.12.01.17.03.05.02.1.05.14.09.04.04.07.08.1.13.02.05.04.11.04.17l.27,4.25s.01.07.02.09c.01.02.02.03.04.03s.03,0,.04-.03c.01-.02.02-.05.02-.09l.27-4.26c0-.06.02-.12.04-.17.02-.05.06-.1.1-.13.04-.04.09-.07.14-.09.05-.02.11-.03.17-.03h1.88c.07,0,.13.01.18.03.06.02.11.05.15.09s.07.09.09.15c.02.06.03.12.03.18v8.44c0,.07-.01.13-.03.18-.02.06-.05.11-.09.15s-.09.07-.15.09-.12.03-.18.03h-1.23c-.07,0-.13-.01-.19-.03s-.11-.06-.15-.1-.07-.09-.1-.15c-.02-.06-.03-.12-.03-.19l.09-4.21s0-.05-.01-.07c0-.02-.02-.02-.03-.02s-.02,0-.03.02c-.01.02-.02.04-.02.07l-.44,4.17c-.01.12-.06.21-.14.29-.08.07-.18.11-.3.11h-.16c-.12,0-.22-.04-.3-.11-.08-.07-.13-.17-.14-.29l-.44-4.17s0-.05-.02-.07c-.01-.02-.02-.02-.03-.02-.01,0-.02,0-.03.02,0,.02-.01.04-.01.07l.09,4.21c0,.07,0,.13-.03.19-.02.06-.05.11-.1.15s-.09.07-.15.1-.12.03-.19.03H.46Z"/>
        <path class="cls-1" d="M9.61,13.57c.24.04.44.09.61.17.17.07.31.17.41.28.11.11.19.24.25.39s.1.31.13.49c.02.18.03.38.03.6v5.64c0,.22-.01.42-.03.6-.02.18-.07.35-.13.49s-.15.27-.25.39c-.11.11-.25.2-.41.28s-.37.13-.61.17c-.24.04-.52.06-.84.06s-.6-.02-.84-.06c-.24-.04-.44-.09-.61-.17-.17-.07-.31-.17-.41-.28-.11-.11-.19-.24-.25-.39-.06-.15-.1-.31-.13-.49-.02-.18-.03-.38-.03-.6v-5.64c0-.22.01-.42.03-.6.02-.18.07-.35.13-.49.06-.15.15-.27.25-.39.11-.11.24-.21.41-.28.17-.07.37-.13.61-.17.24-.04.52-.06.84-.06s.6.02.84.06ZM8.89,15.43s0-.04,0-.06c0-.02-.01-.03-.02-.04,0,0-.02-.01-.04-.02-.02,0-.03,0-.05,0s-.03,0-.05,0c-.02,0-.03,0-.04.02-.01,0-.02.02-.02.04,0,.02,0,.04,0,.06v5.76s0,.04,0,.06c0,.02.01.03.02.04,0,0,.02.02.04.02s.03,0,.05,0,.03,0,.05,0c.01,0,.03-.01.04-.02.01,0,.02-.02.02-.04,0-.01,0-.03,0-.06v-5.76Z"/>
        <path class="cls-1" d="M11.76,22.99c-.07,0-.13-.01-.18-.03s-.11-.05-.15-.09-.07-.09-.09-.15-.03-.12-.03-.18v-8.44c0-.07.01-.13.03-.18s.05-.11.09-.15.09-.07.15-.09c.06-.02.12-.03.18-.03h1.88c.06,0,.12.01.17.03.05.02.1.05.14.09.04.04.07.08.1.13.02.05.04.11.04.17l.27,4.25s.01.07.02.09c.01.02.02.03.04.03s.03,0,.04-.03c.01-.02.02-.05.02-.09l.27-4.26c0-.06.02-.12.04-.17.02-.05.06-.1.1-.13.04-.04.09-.07.14-.09.05-.02.11-.03.17-.03h1.88c.07,0,.13.01.18.03.06.02.11.05.15.09s.07.09.09.15c.02.06.03.12.03.18v8.44c0,.07-.01.13-.03.18-.02.06-.05.11-.09.15s-.09.07-.15.09-.12.03-.18.03h-1.23c-.07,0-.13-.01-.19-.03s-.11-.06-.15-.1-.07-.09-.1-.15c-.02-.06-.03-.12-.03-.19l.09-4.21s0-.05-.01-.07c0-.02-.02-.02-.03-.02s-.02,0-.03.02c-.01.02-.02.04-.02.07l-.44,4.17c-.01.12-.06.21-.14.29-.08.07-.18.11-.3.11h-.16c-.12,0-.22-.04-.3-.11-.08-.07-.13-.17-.14-.29l-.44-4.17s0-.05-.02-.07c-.01-.02-.02-.02-.03-.02-.01,0-.02,0-.03.02,0,.02-.01.04-.01.07l.09,4.21c0,.07,0,.13-.03.19-.02.06-.05.11-.1.15s-.09.07-.15.1-.12.03-.19.03h-1.23Z"/>
        <path class="cls-1" d="M18.23,22.99c-.15,0-.26-.04-.33-.12s-.12-.19-.12-.33v-8.46c0-.15.04-.26.12-.34.08-.08.19-.11.33-.11h2.64c.15,0,.26.04.34.11.08.08.11.19.11.34v.9c0,.15-.04.26-.11.33-.08.08-.19.12-.34.12h-.48c-.15,0-.26.04-.33.11-.08.08-.12.19-.12.34v.96c0,.15.04.26.12.33s.19.12.33.12h.24c.15,0,.26.04.34.11.08.08.11.19.11.34v.9c0,.15-.04.26-.11.33-.08.08-.19.12-.34.12h-.24c-.15,0-.26.04-.33.11-.08.08-.12.19-.12.34v1.2c0,.15.04.26.12.33s.19.12.33.12h.6c.15,0,.26.04.34.11s.11.19.11.34v.9c0,.15-.04.26-.11.33-.08.08-.19.12-.34.12h-2.76Z"/>
        <path class="cls-1" d="M22.08,22.99c-.07,0-.13-.01-.18-.03s-.11-.05-.15-.09-.07-.09-.09-.15-.03-.12-.03-.18v-8.44c0-.07.01-.13.03-.18s.05-.11.09-.15.09-.07.15-.09c.06-.02.12-.03.18-.03h1.2c.11,0,.21.03.29.1.08.07.13.16.15.27l.45,3.04s.02.06.03.08c.01.02.03.03.05.03s.03,0,.04-.03c.01-.02.02-.05.02-.08l-.04-2.94c0-.07.01-.13.03-.19s.05-.11.09-.15.09-.07.15-.1c.06-.02.12-.03.19-.03h1.23c.07,0,.13.01.18.03.06.02.11.05.15.09s.07.09.09.15c.02.06.03.12.03.18v8.44c0,.07-.01.13-.03.18-.02.06-.05.11-.09.15s-.09.07-.15.09-.12.03-.18.03h-1.22c-.11,0-.2-.03-.28-.1-.08-.06-.13-.15-.15-.26l-.5-2.69c0-.05-.02-.09-.04-.11s-.04-.04-.06-.03-.03.02-.05.04c-.01.03-.02.07-.02.12l.11,2.54c0,.07,0,.13-.03.19s-.05.11-.1.15c-.04.04-.09.08-.15.1s-.12.04-.19.04h-1.21Z"/>
        <path class="cls-1" d="M30,13.63c.15,0,.26.04.34.11.08.08.11.19.11.34v.9c0,.15-.04.26-.11.33-.08.08-.19.12-.34.12h-.12c-.09,0-.16.02-.2.07-.05.05-.07.11-.07.2v6.84c0,.15-.04.26-.11.33-.08.08-.19.12-.34.12h-1.26c-.15,0-.26-.04-.33-.12-.08-.08-.12-.19-.12-.33v-6.84c0-.09-.02-.16-.07-.2-.04-.04-.11-.07-.2-.07h-.12c-.15,0-.26-.04-.33-.12s-.12-.19-.12-.33v-.9c0-.15.04-.26.12-.34.08-.08.19-.11.33-.11h2.94Z"/>
        <path class="cls-1" d="M33.03,14.08c0-.15.04-.26.12-.34.08-.08.19-.11.33-.11h1.26c.15,0,.26.04.34.11.08.08.11.19.11.34v7.05c0,.22-.01.42-.03.6-.02.18-.07.35-.13.49s-.15.27-.25.39c-.11.11-.25.2-.41.28s-.37.13-.61.17c-.24.04-.52.06-.84.06s-.6-.02-.84-.06c-.24-.04-.44-.09-.61-.17-.17-.07-.31-.17-.41-.28-.11-.11-.19-.24-.25-.39-.06-.15-.1-.31-.13-.49-.02-.18-.03-.38-.03-.6v-7.05c0-.15.04-.26.12-.34.08-.08.19-.11.33-.11h1.26c.15,0,.26.04.34.11.08.08.11.19.11.34v7.08s0,.05,0,.06.01.03.02.05c0,.01.02.02.04.03s.03.01.05.01.03,0,.05-.01c.01,0,.03-.02.04-.03.01-.01.02-.03.02-.05,0-.02,0-.04,0-.06v-7.08Z"/>
        <path class="cls-1" d="M35.9,22.99c-.07,0-.13-.01-.18-.03s-.11-.05-.15-.09-.07-.09-.09-.15-.03-.12-.03-.18v-8.44c0-.07.01-.13.03-.18s.05-.11.09-.15.09-.07.15-.09c.06-.02.12-.03.18-.03h1.88c.06,0,.12.01.17.03.05.02.1.05.14.09.04.04.07.08.1.13.02.05.04.11.04.17l.27,4.25s.01.07.02.09c.01.02.02.03.04.03s.03,0,.04-.03c.01-.02.02-.05.02-.09l.27-4.26c0-.06.02-.12.04-.17.02-.05.06-.1.1-.13.04-.04.09-.07.14-.09.05-.02.11-.03.17-.03h1.88c.07,0,.13.01.18.03.06.02.11.05.15.09s.07.09.09.15c.02.06.03.12.03.18v8.44c0,.07-.01.13-.03.18-.02.06-.05.11-.09.15s-.09.07-.15.09-.12.03-.18.03h-1.23c-.07,0-.13-.01-.19-.03s-.11-.06-.15-.1-.07-.09-.1-.15c-.02-.06-.03-.12-.03-.19l.09-4.21s0-.05-.01-.07c0-.02-.02-.02-.03-.02s-.02,0-.03.02c-.01.02-.02.04-.02.07l-.44,4.17c-.01.12-.06.21-.14.29-.08.07-.18.11-.3.11h-.16c-.12,0-.22-.04-.3-.11-.08-.07-.13-.17-.14-.29l-.44-4.17s0-.05-.02-.07c-.01-.02-.02-.02-.03-.02-.01,0-.02,0-.03.02,0,.02-.01.04-.01.07l.09,4.21c0,.07,0,.13-.03.19-.02.06-.05.11-.1.15s-.09.07-.15.1-.12.03-.19.03h-1.23Z"/>
      </g>
      <g>
        <path class="cls-1" d="M7.33,26.27s.03,0,.04.02.02.03.02.04v3.38s0,.03-.02.04-.03.02-.04.02h-.46s-.03,0-.04-.02-.02-.03-.02-.04v-2.37s0-.02,0-.02c0,0-.01,0-.02.01l-.53.88s-.04.04-.07.04h-.1s-.06-.01-.07-.04l-.53-.87s-.01-.01-.02-.01c0,0-.01,0-.01.02v2.37s0,.03-.02.04-.03.02-.04.02h-.46s-.03,0-.04-.02-.02-.03-.02-.04v-3.38s0-.03.02-.04.03-.02.04-.02h.46s.06.01.07.04l.66,1.05s.02.02.03,0l.65-1.05s.04-.04.07-.04h.47Z"/>
        <path class="cls-1" d="M11.13,26.77h-1.39s-.02,0-.02.02v.94s0,.02.02.02h.89s.03,0,.04.02.02.03.02.04v.38s0,.03-.02.04-.03.02-.04.02h-.89s-.02,0-.02.02v.96s0,.02.02.02h1.39s.03,0,.04.02.02.03.02.04v.38s0,.03-.02.04-.03.02-.04.02h-1.94s-.03,0-.04-.02-.02-.03-.02-.04v-3.38s0-.03.02-.04.03-.02.04-.02h1.94s.03,0,.04.02.02.03.02.04v.38s0,.03-.02.04-.03.02-.04.02Z"/>
        <path class="cls-1" d="M14.61,26.27h.46s.03,0,.04.02.02.03.02.04v3.38s0,.03-.02.04-.03.02-.04.02h-.49s-.05-.02-.07-.04l-1.09-2.24s-.01-.01-.02-.01c0,0-.01,0-.01.02v2.22s0,.03-.01.04-.03.02-.04.02h-.46s-.03,0-.04-.02-.02-.03-.02-.04v-3.38s0-.03.02-.04.03-.02.04-.02h.48s.06.02.07.04l1.1,2.25s.01.01.02.01c0,0,0,0,0-.02v-2.23s0-.03.01-.04.03-.02.04-.02Z"/>
        <path class="cls-1" d="M19.02,26.33v.39s0,.03-.02.04-.03.02-.04.02h-.78s-.03,0-.03.02v2.91s0,.03-.02.04-.03.02-.04.02h-.46s-.03,0-.04-.02-.02-.03-.02-.04v-2.91s0-.02-.02-.02h-.75s-.03,0-.04-.02-.02-.03-.02-.04v-.39s0-.03.02-.04.03-.02.04-.02h2.15s.03,0,.04.02.02.03.02.04Z"/>
        <path class="cls-1" d="M20.69,29.3c-.09-.17-.14-.36-.14-.57v-1.41c0-.21.05-.4.14-.57s.22-.29.39-.38c.17-.09.36-.14.58-.14s.42.04.59.14c.17.09.3.22.39.38.09.17.14.35.14.57v1.41c0,.22-.05.41-.14.57-.09.17-.22.29-.39.38-.17.09-.36.14-.59.14s-.41-.04-.58-.14c-.17-.09-.3-.22-.39-.38ZM22.21,28.75v-1.45c0-.17-.05-.31-.15-.41-.1-.1-.23-.16-.39-.16s-.29.05-.39.16c-.1.1-.15.24-.15.41v1.45c0,.17.05.3.15.41.1.11.23.16.39.16s.29-.05.39-.16c.1-.1.15-.24.15-.41Z"/>
        <path class="cls-1" d="M25.53,28.28s-.02-.02-.02-.02h-.43s-.02,0-.02.02v1.42s0,.03-.02.04-.03.02-.04.02h-.46s-.03,0-.04-.02-.02-.03-.02-.04v-3.38s0-.03.02-.04.03-.02.04-.02h1.16c.19,0,.36.04.51.13.15.09.26.21.34.36.08.16.12.33.12.53,0,.22-.05.41-.15.57-.1.16-.24.27-.41.34-.02,0-.02.02-.02.04l.59,1.47s0,.02,0,.03c0,.03-.02.04-.05.04h-.48s-.06-.02-.07-.05l-.54-1.44ZM25.05,27.79s0,.02.02.02h.53c.14,0,.25-.05.34-.14.09-.1.13-.22.13-.38s-.04-.29-.13-.38c-.09-.1-.2-.14-.34-.14h-.53s-.02,0-.02.02v1Z"/>
        <path class="cls-1" d="M28.3,29.71v-3.38s0-.03.02-.04.03-.02.04-.02h.46s.03,0,.04.02.02.03.02.04v3.38s0,.03-.02.04-.03.02-.04.02h-.46s-.03,0-.04-.02-.02-.03-.02-.04Z"/>
        <path class="cls-1" d="M32.4,26.27h.46s.03,0,.04.02.02.03.02.04v3.38s0,.03-.02.04-.03.02-.04.02h-.49s-.05-.02-.07-.04l-1.09-2.24s-.01-.01-.02-.01c0,0,0,0,0,.02v2.22s0,.03-.01.04-.03.02-.04.02h-.46s-.03,0-.04-.02-.02-.03-.02-.04v-3.38s0-.03.02-.04.03-.02.04-.02h.48s.06.02.07.04l1.1,2.25s.01.01.02.01c0,0,.01,0,.01-.02v-2.23s0-.03.01-.04.03-.02.04-.02Z"/>
        <path class="cls-1" d="M34.74,29.31c-.09-.16-.14-.34-.14-.55v-1.49c0-.21.05-.39.14-.55.09-.16.22-.28.39-.37.17-.09.36-.13.57-.13s.41.04.58.13c.17.09.3.2.39.36.09.15.14.33.14.53v.12s0,.03-.02.04-.03.02-.04.02h-.46s-.03,0-.04-.02-.02-.03-.02-.04v-.12c0-.15-.05-.27-.14-.37s-.22-.14-.38-.14-.28.05-.37.15c-.09.1-.14.23-.14.39v1.51c0,.16.05.29.15.39s.23.15.38.15.28-.04.37-.13.14-.21.14-.36v-.4s0-.03-.02-.03h-.46s-.03,0-.04-.02-.02-.03-.02-.04v-.37s0-.03.02-.04.03-.02.04-.02h1s.03,0,.04.02.02.03.02.04v.78c0,.33-.1.59-.3.78s-.47.28-.8.28c-.22,0-.41-.04-.57-.13-.17-.09-.29-.21-.39-.37Z"/>
      </g>
    </g>
  </g>
</svg>