<?xml version="1.0" encoding="UTF-8"?>
<svg id="Layer_2" data-name="Layer 2" xmlns="http://www.w3.org/2000/svg" viewBox="0 0 349.9 119.19">
  <defs>
    <style>
      .cls-1 {
        fill: #1a1a1a;
      }
    </style>
  </defs>
  <g id="Layer_1-2" data-name="Layer 1">
    <g>
      <path d="M107.8,96.59h4.44v8.69h9.3v-8.69h4.44v22.27h-4.44v-9.51h-9.3v9.51h-4.44v-22.27Z"/>
      <path d="M136.48,107.72c0-7.01,4.3-11.47,10.19-11.47s10.19,4.4,10.19,11.47-4.3,11.47-10.19,11.47-10.19-4.48-10.19-11.47ZM152.4,107.72c0-4.51-2.26-7.4-5.73-7.4s-5.73,2.89-5.73,7.4,2.26,7.4,5.73,7.4,5.73-2.92,5.73-7.4Z"/>
      <path d="M167.36,96.59h5.94l5.65,15.7h.11l5.62-15.7h5.92v22.27h-4.44v-15.73h-.11l-5.35,15.73h-3.74l-5.32-15.73h-.11v15.73h-4.17v-22.27Z"/>
      <path d="M202.14,118.86v-22.27h14.55v4.07h-10.11v4.67h9.3v3.96h-9.3v5.5h10.11v4.07h-14.55Z"/>
      <path d="M226.06,111.77h4.52c.38,2.36,2.1,3.66,4.71,3.66,2.31,0,3.63-1.04,3.63-2.78,0-1.35-.81-2.25-2.66-2.69l-3.66-.85c-3.9-.94-5.83-3.05-5.83-6.21,0-3.99,3.12-6.63,7.96-6.63s8.07,2.69,8.39,6.98h-4.52c-.46-2.14-1.94-3.35-4.14-3.35-2.04,0-3.33,1.02-3.33,2.56,0,1.18.81,2.12,2.53,2.5l3.84.88c3.84.88,5.78,2.97,5.78,6.46,0,4.23-3.01,6.9-8.15,6.9s-8.76-2.89-9.06-7.42Z"/>
    </g>
    <g>
      <g>
        <path d="M0,3.4h16.02v56.33h34.78v14.3H0V3.4Z"/>
        <path d="M55.32,8.63c0-4.8,3.75-8.63,8.44-8.63s8.44,3.84,8.44,8.63-3.75,8.63-8.44,8.63-8.44-3.84-8.44-8.63ZM55.91,21.71h15.68v52.32h-15.68V21.71Z"/>
        <path d="M84.36,37.41h-7.67v-15.7h15.68v8.72h3.58c4.09-6.02,9.72-9.68,19.01-9.68,14.49,0,22.59,8.72,22.59,22.15v31.13h-15.68v-27.99c0-7.24-3.75-10.99-10.91-10.99s-10.91,3.75-10.91,10.99v27.99h-15.68v-36.63Z"/>
        <path d="M143.3,47.88c0-16.22,8.52-27.21,23.27-27.21,7.25,0,12.53,2.88,15.43,7.76h.34V.78h15.68v57.55h7.67v15.7h-15.68v-8.72h-3.58c-3.67,6.19-9.89,9.77-18.5,9.77-16.11,0-24.63-11.07-24.63-27.21ZM182.33,49.79v-3.84c0-7.06-4.35-11.34-11.42-11.34-8.1,0-11.93,5.15-11.93,13.25s3.84,13.25,11.93,13.25c7.07,0,11.42-4.27,11.42-11.34Z"/>
        <path d="M208.12,47.79c0-16.57,11-27.12,28.04-27.12s27.7,10.55,27.7,27.21-10.83,27.21-27.79,27.21-27.96-10.64-27.96-27.29ZM248.18,47.79c0-8.11-4.26-13.17-12.1-13.17s-12.27,5.06-12.27,13.17,4.35,13.34,12.27,13.34,12.1-5.15,12.1-13.34Z"/>
        <path d="M273.92,37.41h-7.67v-15.7h15.68v8.72h3.58c4.09-6.02,9.72-9.68,19.01-9.68,14.49,0,22.59,8.72,22.59,22.15v31.13h-15.68v-27.99c0-7.24-3.75-10.99-10.91-10.99s-10.91,3.75-10.91,10.99v27.99h-15.68v-36.63Z"/>
      </g>
      <rect class="cls-1" x="334.91" y="58.31" width="15" height="15"/>
    </g>
  </g>
</svg>