<?xml version="1.0" encoding="UTF-8"?>
<svg fill="#e8718b" id="Layer_2" data-name="Layer 2" xmlns="http://www.w3.org/2000/svg" viewBox="0 0 415.29 415.29">
  <g id="Layer_1-2" data-name="Layer 1">
    <path d="M151.64,331.99c-1.82-3.67-2.21-6.39-2.21-6.39l-.99.86h-2.88v-25.14c0-1.66,2.36-2.04,2.36-2.04-4.12-2.58-6.01-4.33-7.97-6.32-2.05-2.09-3.11-3.67-3.11-3.67.2.82.25,3.54.25,3.54v45.02h18.28s-2.45-3.26-3.74-5.85"/>
    <path d="M290.68,331.99c-1.82-3.67-2.21-6.39-2.21-6.39l-.99.86h-2.88v-25.14c0-1.66,2.37-2.04,2.37-2.04-4.12-2.58-6.01-4.33-7.97-6.32-2.04-2.09-3.11-3.67-3.11-3.67.2.82.25,3.54.25,3.54v45.02h18.28s-2.45-3.26-3.74-5.85"/>
    <path d="M165.91,313.9c0,2.19-1.76,3.98-3.96,3.99h0c-2.19,0-3.96-1.79-3.96-3.99s1.77-3.99,3.96-3.99c2.19,0,3.97,1.79,3.96,3.98h0"/>
    <path d="M201.57,343.55c0,2.19-1.76,3.98-3.96,3.99h0c-2.19,0-3.97-1.79-3.96-3.99h0c0-2.2,1.77-3.99,3.96-3.99,2.19,0,3.97,1.79,3.96,3.98h0"/>
    <path d="M264.41,292.96c-1.96,2-3.85,3.74-7.97,6.32,0,0,2.37.39,2.37,2.04v26.5h-42.78c-1.25-.69-2.71-1.71-3.77-3.03-3.41-4.22-8.04-10.66-12.55-13.87-.89-.63-2.47-1.65-5.03-2.1-2.72-.27-6.02.41-8.23,2.72,0,0-3.06,3.63-4.23,4.63-1.17,1-3.69,1.54-3.69,1.54l9.19,6.89s-.18-2.9.18-4.35c.36-1.45,4.78-3.54,8.56-1.36,4.96,2.85,6.17,7.13,6.47,8.93h-35.74v-9.11s-3.51,4.24-7.74,7.07c-2.8,1.87-3.78,2.17-3.78,2.17,0,0,1.35.45,1.89,1.91.32.86,1.35,5.5.63,9.52-.49,2.76-3.19,4.21-5.63,4.21h-2.84s6.12,6.11,9.09,5.31c5.71-1.55,8.25-6.82,9.25-9.8.41-1.33,1.63-1.26,1.63-1.26h42.14l7.24,6.53h13.15s-3.24-3.27-3.06-5.08c.09-.91.63-1.29,1.15-1.45h36.99v-45.02s.04-2.72.25-3.54c0,0-1.06,1.59-3.11,3.67"/>
    <path d="M132.9,317.71s-2.57,5.89-6.17,8.34c-.88.6-2.97,1.77-4.77,1.77h-21.57v-7.66s-3.13,3.47-6.64,5.78c-2.43,1.6-4.12,1.97-4.12,1.97,0,0,1.76.27,1.76,1.7v10.27s.27,3.27-1.89,3.67c-2.16.41-6.35-.14-6.35-.14,0,0,5.67,6.12,11.35,4.76,4.35-1.04,6.63-4.96,7.7-8.69.4-1.83,2.38-1.65,2.38-1.65h28.32v-20.13Z"/>
    <path d="M103.82,323.02h15.53s-4.83-4.63-5.67-6.12c-.36-.63-.63-1.63-.09-2.99.54-1.36,3.78-5.17,6.48-5.98,0,0-2.97-.54-5.58-.27-2.61.27-7.56,1.43-8.29,3.81-.33,1.09.72.91.81,5.71,0,0-2.11,4.49-3.2,5.85"/>
    <path d="M245.96,149.95v-12.15c-41.47-.49-44.96-24.13-80-27.94-2.11,3.77-3.94,7.69-5.46,11.74,40.24,1.83,41.93,27.84,85.45,28.35"/>
    <path d="M70.82,109.34v12.15h54.17c1.91-4.18,4.08-8.24,6.49-12.15h-60.66Z"/>
    <path d="M70.82,92.93v12.15h63.44c2.93-4.28,6.18-8.34,9.71-12.15h-73.14Z"/>
    <path d="M245.96,133.54v-12.15c-36.97-.44-43.75-19.27-69.62-26.05-2.96,3.29-5.64,6.82-8.02,10.56,32.86,4.59,37.12,27.17,77.64,27.65"/>
    <path d="M155.96,76.52h-85.14v12.15h77.33c4.61-4.43,9.63-8.42,15-11.89-2.27-.17-4.65-.26-7.19-.26"/>
    <path d="M179.51,91.99c23.32,7.42,31.04,24.72,66.45,25.14v-12.15c-29.99-.36-40.12-12.82-56.69-21.13-3.48,2.44-6.74,5.16-9.76,8.15"/>
    <path d="M306.41,160.68c-3.69,43.61-37.08,77.77-77.74,77.77-1.3,0-2.59-.04-3.88-.11-5.33,12.95-13.77,24.38-24.59,33.27,4.2.62,8.43.94,12.67.94,51.84,0,93.87-46.17,93.87-103.12,0-2.95-.12-5.87-.34-8.75"/>
    <path d="M223.99,67.03c-3.68-.48-7.39-.72-11.11-.72-36.75,0-68.57,23.21-83.98,57.01,5.77-1.22,11.65-1.83,17.54-1.83h9.47c10.82-30.44,36.99-52.44,68.07-54.46"/>
    <path d="M209.46,217.05l14.16-18.28c-1.52-16.05-7.94-30.68-17.74-42.37l-26.22-4.1-16.55-21.85c-5.37-1.18-10.95-1.82-16.68-1.82-9.8,0-19.17,1.84-27.81,5.16l-12.3,27.11-30.81,13.92c-4.25,9.59-6.63,20.2-6.63,31.37,0,.05,0,.1,0,.15l22.54,25.04-3.12,26.11c10.14,11.48,23.63,19.95,38.94,23.85l24.92-13.29,33.24,5.17c11.13-6.48,20.5-15.65,27.22-26.62l-3.17-29.54ZM153.13,242.26l-38.96-18.72,8.41-40.87,44.69-1.91,17.19,30.56-31.32,30.94Z"/>
    <polygon points="254.66 149.97 268.54 149.97 283.41 133.55 287.27 133.55 288.36 149.97 299.34 149.97 299.34 121.41 280.55 121.41 254.66 149.97"/>
    <polygon points="303.7 104.99 303.7 117.14 333.45 117.14 344.47 104.99 303.7 104.99"/>
    <polygon points="291.08 104.99 250.31 104.99 250.31 117.14 280.06 117.14 291.08 104.99"/>
    <polygon points="284.42 117.14 299.34 117.14 299.34 104.99 295.43 104.99 284.42 117.14"/>
    <polygon points="260.23 133.55 265.19 133.55 276.2 121.4 250.31 121.4 250.31 149.97 260.23 139.02 260.23 133.55"/>
    <polygon points="313.63 133.55 318.58 133.55 329.59 121.4 303.7 121.4 303.7 149.97 313.63 139.02 313.63 133.55"/>
    <polygon points="271.25 189.05 280.16 171.13 262.42 180.39 248.13 166.38 251.46 186.12 233.72 195.38 253.51 198.31 256.84 218.04 265.75 200.12 285.54 203.06 271.25 189.05"/>
    <path d="M207.64,0C92.97,0,0,92.97,0,207.64s92.97,207.64,207.64,207.64,207.64-92.97,207.64-207.64S322.32,0,207.64,0M408.98,207.64c0,111.19-90.14,201.33-201.33,201.33S6.31,318.84,6.31,207.64,96.45,6.31,207.64,6.31s201.33,90.14,201.33,201.33"/>
  </g>
</svg>