<?xml version="1.0" encoding="UTF-8"?>
<svg fill="#e8718b" id="Layer_2" data-name="Layer 2" xmlns="http://www.w3.org/2000/svg" viewBox="0 0 772.41 1202.08">
  <g id="Layer_1-2" data-name="Layer 1">
    <g>
      <path d="M110.35,127.92c10.83,8.08,25.4,18.66,43.73,31.74,2.63,1.88,5.39,4.16,8.26,6.83.25.23.34.58.23.9-6.48,19.73-11.9,36.24-16.27,49.54-2.11,6.44-4,12.95-5.65,19.52-.12.49.42.88.85.6,1.57-1.03,9.77-6.84,24.6-17.43,2.92-2.09,6.29-4.63,10.11-7.64,4.41-3.46,10.5-7.41,15.62-11.42,3.26-2.55,5.86-5.04,8.74-6.01.44-.14.91-.07,1.29.19l58.76,42.52c.54.39,1.26-.14,1.06-.77l-22.26-69.6c-.12-.37.01-.78.33-1.01l58.92-42.95c.28-.2.14-.63-.2-.64l-38.76-.95-3.25.03-30.8-.09c-.32,0-.62-.19-.75-.48-1.41-2.99-2.37-5.29-2.88-6.9-8.11-25.17-14.88-45.8-20.33-61.88-.15-.46-.78-.53-1.02-.11-.92,1.6-1.8,3.62-2.64,6.06-4.32,12.63-8.48,25.31-12.48,38.04-2.78,8.86-5.19,17.02-8.97,24.32-.38.73-1.13,1.19-1.95,1.19h-70.72c-.14,0-.27.06-.36.16-.18.19-.17.5.03.68,2.16,1.96,4.42,3.81,6.76,5.56Z"/>
      <path d="M293.23,76.19c14.87,10.99,29.84,21.85,44.91,32.56,1.66,1.17,4.06,3.2,7.21,6.08.23.21.31.53.22.82-10.51,32.09-15.77,48.17-15.8,48.24-2.47,7.5-4.54,14.54-6.21,21.12-.02.08-.01.17.02.24.08.19.3.27.49.19,1.2-.54,2.25-1.13,3.16-1.76,6.99-4.9,16.42-11.76,28.28-20.58,9.19-6.84,15.73-11.33,23.31-17.26,1.96-1.53,3.16-2.4,3.6-2.59,1.27-.57,2.65-.3,4.14.8,2.42,1.78,5.36,4.46,7.79,5.93,4.24,2.56,8.51,6.42,12.97,9.53,8.85,6.17,14.77,10.43,17.77,12.79,2.09,1.65,5.14,3.82,9.14,6.49,2.61,1.75,5.57,3.91,8.88,6.48.11.08.23.13.37.14.37.03.7-.26.72-.63.02-.4-.07-.99-.28-1.78-1.01-3.75-2.57-8.95-4.69-15.6-5.55-17.44-11.2-34.85-16.95-52.22-.09-.29,0-.62.26-.8l59.27-43.21c.31-.22.15-.71-.23-.72l-72.83-.83c-.47-.01-.89-.28-1.08-.71-1.15-2.62-2.08-5.01-2.79-7.17-11.87-36.55-18.47-56.59-19.79-60.14-.21-.57-.38-.99-.53-1.27-.06-.11-.14-.2-.25-.26-.3-.15-.66-.04-.82.25-.7,1.32-1.52,3.36-2.47,6.11-3.98,11.49-7.96,23.61-11.94,36.34-2.66,8.51-5.35,16.21-8.08,23.11-.23.59-.8,1.65-1.71,3.18-.16.27-.45.45-.76.46-5.88.29-9.72.44-11.53.44-24.8-.03-44.84-.01-60.12.07-.1,0-.19.04-.25.11-.14.14-.14.36,0,.5,1.92,1.87,4.12,3.72,6.6,5.55Z"/>
      <path d="M470.19,122.56c-.07.01-.13.05-.18.11-.11.13-.09.32.04.43,3.57,2.95,7.7,6.19,12.41,9.71.6.45,2.53,1.67,5.78,3.66,2.27,1.39,4.47,3.11,6.62,5.18.31.3.66.57,1.02.81,4.59,2.98,8.65,5.87,12.19,8.66,5.82,4.58,11.03,7.94,16.81,11.95,2.37,1.64,3.43,3.29,3.18,4.94-.07.47-.62,2.41-1.65,5.83-2.81,9.29-6.77,21.42-11.86,36.39-2.92,8.55-4.75,15.98-7.98,25.8-.22.67.54,1.24,1.12.83,15.66-11.05,32.65-23.24,50.96-36.55,2.85-2.07,5.43-3.72,7.74-4.95.9-.48,2-.43,2.86.12,2.21,1.43,4.62,3.22,7.23,5.37,1.19.98,3.61,2.77,7.25,5.37,14.52,10.37,28.2,21.46,43.18,30.68.49.3,1.08-.17.91-.72l-21.85-68.33c-.11-.33-.09-.68.06-.99.61-1.29,1.6-2.44,2.98-3.45,6.91-5.09,22.87-16.63,47.87-34.62,3.81-2.75,6.52-4.82,8.12-6.21.37-.32.14-.92-.34-.92h-71.67c-.75,0-1.42-.44-1.72-1.13-1.55-3.58-3.37-8.47-5.45-14.68-.76-2.27-5.27-16.34-13.53-42.21-1.31-4.1-2.77-8.09-4.39-11.98-.04-.1-.12-.19-.21-.24-.24-.14-.54-.06-.68.18-3.68,6.43-6.13,16.91-7.61,21.23-4.36,12.71-8.85,26.22-13.46,40.51-.45,1.41-2.25,7.64-4.93,7.88-4.5.39-10.91.54-19.22.47-8.39-.07-14.79-.03-19.22.13-6.29.22-13.05.22-20.29,0-4.06-.13-8.88.16-12.09.74Z"/>
      <path d="M738.31,364.8s0,0,0,0c.03,1.33.14,2.41.25,2.4.11,0,.18-1.08.15-2.41,0,0,0,0,0,0-.03-1.33-.14-2.41-.25-2.4-.11,0-.18,1.08-.15,2.41Z"/>
      <path d="M38.9,324.02c.19,2.09.27,3.85.24,5.29-.08,2.83.34,11.2-.17,17.9-.13,1.74-.14,3.45-.03,5.13.63,8.94.38,18.44.73,26.36.02.47.38.85.85.91,3.41.41,7.19.64,11.36.69,8.21.11,21.44.14,39.69.1h.03c.36.02.65.32.63.68l-.66,18.47c-.01.13-.12.24-.25.24l-51.63.48h-.03c-.35.02-.61.32-.59.67.15,3.1-.4,5.81-.23,9.51.37,8.01.41,15.25.1,21.71-.14,2.98-.15,5.46-.03,7.43.52,8.75.45,17.13.16,24.6-.12,3.12.17,6.75.86,10.89.07.43.44.75.88.75h84.1c.31,0,.57.26.57.57-.05,114.89.03,236.4.26,364.51.07,40.21.23,67.21.47,81,.29,16.8,3.08,34,10.88,49.09,3.17,6.14,7.27,12.05,12.28,17.74,14.08,15.96,31.71,27.43,52.6,31.9,8.35,1.78,16.03,2.92,23.04,3.42,7.17.51,26.83,1.36,59,2.54,32.56,1.2,63.41,11.53,86.98,34.3,6.93,6.69,12.74,14.49,17.43,23.39.08.14.19.26.34.34.4.22.9.07,1.12-.33,4.16-7.65,9.55-15.7,16.1-22.13,14.16-13.9,29.97-23.53,47.42-28.88,14.47-4.43,29.6-6.87,45.37-7.32,26.33-.74,40.22-1.13,41.65-1.16,17.3-.38,33.74-2.64,49.9-8.45,5.23-1.88,10.71-4.68,16.42-8.4,12.55-8.18,22.87-18.65,30.96-31.41,2.71-4.28,4.8-8.48,6.29-12.61,1.39-3.87,2.84-8.36,4.35-13.47,1.19-4.07,2.07-9.51,2.63-16.31,1.49-18.21,1.07-38.28,1.17-68.28.01-4.23.88-8.58.11-13.39-.06-.39-.09-.78-.08-1.17.03-2.91.04-7.56.02-13.97-.01-3.76.75-7.17.41-10.75-.25-2.57-.37-5.21-.37-7.91.06-29.1.09-51.99.1-68.67,0-3.82.66-6.99.33-10.45-.56-5.81-.18-13.91-.3-17.78-.11-3.88.65-7.59.32-11.49-.21-2.44-.31-5.2-.3-8.29.03-17.15.03-39.89.01-68.24,0-3.8.66-6.98.31-10.45-.6-5.83-.2-14.06-.31-18.18-.1-3.7.61-7.11.3-10.95-.21-2.57-.31-5.26-.31-8.07.01-24.36.07-47.92.19-70.68.01-1.73.38-3.5.32-5.01-.43-10.99-.28-22.05.47-33.19.06-.81.73-1.44,1.55-1.44h81.74c.4,0,.73-.32.74-.72l.8-19.94c.26-.25.33-.67.21-1.28l.15-2.49c.13-.49.12-.97-.03-1.44-.61-8.99-.74-16.7-.37-23.14.32-5.61-.24-12.21-.25-15.84-.02-5.21-.05-8.71-.09-10.52-.01-.35-.29-.63-.64-.63h-51.11c-.22,0-.4-.18-.4-.4v-18.56c0-.29.23-.52.52-.52h49.45c.67,0,1.23-.52,1.29-1.19,1.25-14.09.45-31.95,1.38-42.71.29-3.37-.42-6.99-.37-10.78.08-7.21.13-14.11.14-20.72,0-.4-.33-.72-.73-.72h-84.2c-.4,0-.72-.32-.73-.72-.17-8.53-.11-15.63.16-21.32.21-4.39.2-7.89-.04-10.5-.13-1.48-.19-4.98-.17-10.51.01-3.18-.21-6.96-.67-11.34-.04-.36-.34-.63-.7-.63H125.58c-.14,0-.25.11-.25.25v54.27c0,.14-.12.26-.26.26l-85.45.47c-.33.01-.6.27-.59.6,0,3.79.03,5.97.05,6.56.1,3.24-.57,8.28-.18,12.43ZM266.87,843.01c-.22,0-.4-.18-.4-.4v-31.08c0-.28.23-.51.51-.51h23.96c.29,0,.55-.12.74-.32.04-.04.07-.09.1-.13.04-.05.06-.1.09-.15.03-.07.06-.15.07-.23.01-.07.02-.13.02-.2,0-.08-.01-.16-.03-.24l-6.71-28.14c-.08-.33-.35-.57-.68-.61-2.49-.35-6-.56-10.53-.61-23.89-.28-43.47-.35-58.73-.21-.35,0-.65.25-.73.59l-6.48,28.46c-.04.17-.04.34-.01.51,0,.04.01.07.03.11,0,.05.02.11.05.16.02.07.06.13.1.19.04.08.09.15.16.21.05.06.11.11.18.16.13.1.29.17.46.21.08.02.16.03.24.03l22.96.83c.36.01.65.31.65.67v31c0,.14-.12.26-.26.26l-71.24.83c-.55,0-.99-.44-1-.99v-31.73c0-.34.27-.61.61-.61h18.54c.27,0,.52-.18.6-.44l63.37-200.38c.17-.54.65-.93,1.21-.98,5.69-.59,11.23-.63,16.6-.1.94.09,1.76.65,2.2,1.48.56,1.05,1.08,2.45,1.57,4.21,19.37,70.07,37.07,134.75,53.1,194.04.27,1.01,1.18,1.73,2.23,1.77l19.05.69c.23.01.42.2.42.43v30.88c0,.09-.04.17-.1.23-.02.04-.06.07-.11.08-.04.02-.08.03-.13.03h-72.68ZM473.53,921.17c-5.05,2.43-11.19,3.77-18.44,4.04-10.42.37-19.9-1.08-28.43-4.35-7.03-2.7-12.69-6.07-17-10.11-.84-.79-4.52-4.35-11.03-10.68-5.31-5.15-11.43-8.72-18.37-10.69-12.3-3.51-24.53-3.69-36.68-.55-.74.19-1.45.46-2.12.82-4.68,2.49-18.77,11.16-23.33,8.51-2.97-1.72-4.39-4.3-4.28-7.75.43-13.69,17.38-25.18,28.74-29.5,6.41-2.43,12.61-4.72,18.61-6.86.22-.08.37-.29.38-.53.29-85.71.36-168.75.21-249.11-.03-12.94-.22-22.47-.57-28.6-.04-.75-.61-1.37-1.36-1.46-3.5-.42-8.86-.65-13.16-1.36-12.94-2.16-25.67-5.2-38.19-9.11-6.85-2.14-13.3-4.81-19.33-8.02-5.34-2.84-11-6.79-16.99-11.86-15.56-13.18-26.52-29.75-34.68-48.21-.57-1.28-.85-2.39-.86-3.32,0-.07,0-.13.03-.19.03-.11.09-.2.16-.27.03-.03.06-.06.09-.08.04-.03.07-.05.11-.06.08-.04.16-.06.25-.06.13,0,.26.04.37.11,5.16,3.41,10.79,6.56,16.88,9.45,26.89,12.79,55.13,20.06,84.72,21.81,8.93.53,20.6.62,34.99.26,18.25-.45,35.37-3.08,51.37-7.9,10.74-3.23,21.3-6.42,31.69-9.56,2.74-.83,8.73-1.74,17.96-2.71,36.97-3.92,78.63,14.02,83.63,55.26.65,5.4,1.05,11.88,1.18,19.43.12,6.6-2.24,11.48-7.09,14.63-10.4,6.75-24.45-1.69-33.89-7.38-3.93-2.36-9.39-6.05-16.39-11.08-8.1-5.82-13.62-9.48-16.56-10.97-17.15-8.7-37.41-8.45-55.96-3.28-5.57,1.55-13.46,4.18-23.68,7.88-6.5,2.35-14.2,4.22-18.81,5.65-.31.09-.53.39-.53.72v103.8c0,.31.25.56.55.56h37.73c.24,0,.43-.19.44-.43l.4-35.42c.01-.39.32-.7.71-.7h26.7s.08.02.11.05.05.07.05.11v110.53c0,.2-.17.37-.37.37h-26.88c-.42,0-.76-.34-.76-.76v-37.4c0-.31-.26-.56-.57-.56h-37.6s-.08,0-.12.03c-.18.03-.32.17-.34.36,0,.03-.02.06-.02.09v140.31c0,.35.24.67.58.76,12.66,3.51,24.01,8.69,34.05,15.55,8.02,5.49,14.2,9.78,18.54,12.89,7.75,5.55,16.63,9.54,26.35,7.12,6.67-1.67,10.29-2.58,10.86-2.74,7.42-2.09,15.31-1.02,16.9,7.54,2.14,11.57-12.07,20.7-20.95,24.98ZM612.81,842.12c-.01.2-.17.36-.37.36h-72.76c-.32,0-.58-.26-.58-.58v-30.53c0-.16.13-.29.29-.29h24.98s.06,0,.09-.01c0,0,.03-.01.04-.01.02-.01.04-.02.05-.02.04-.02.06-.04.09-.06.09-.08.15-.2.15-.33,0-.03,0-.06,0-.09l-7.02-29.41c-.08-.36-.41-.62-.78-.62l-68.04-.78c-.95-.01-1.78.64-1.99,1.56l-6.49,28.53c-.01.06-.02.12-.02.18,0,.05.01.1.02.15,0,.05.02.1.04.15.1.23.3.41.56.47.06.01.11.02.17.02l24.34.28c.25,0,.45.21.45.46v32.14c0,.16-.06.29-.16.4-.03.03-.06.05-.09.07-.06.04-.12.07-.2.09-.03.01-.07.01-.11.01h-72.25c-.2,0-.36-.16-.36-.36v-32.6c0-.1.08-.18.18-.18h19.15c.23,0,.43-.15.5-.37l63.44-200.6c.09-.28.31-.5.6-.59.85-.27,1.95-.41,3.29-.44,5.69-.11,10.88-.05,15.59.17.33.02.61.24.7.56l54.98,200.08c.13.47.55.8,1.04.81l20.17.23c.37.01.67.31.67.68l-.35,30.47ZM718.89,417.77c.92.01,1.66.76,1.66,1.68v39.95c0,.19-.15.35-.34.35H58.14c-.21,0-.38-.17-.38-.39v-40.03c0-.81.65-1.47,1.46-1.48l53.25-.57,490.49-.23,115.93.72ZM57.71,323.7c0-.85.69-1.55,1.54-1.56,13.78-.17,29.61-.28,47.5-.32,196.58-.41,384.83-.52,564.75-.33,16.51.02,32.45.11,47.83.27.24.01.45.16.52.38.32,1.03.49,2.2.52,3.53.22,10.3.24,22.77.05,37.42-.01.23-.2.42-.43.42l-310.42.5h-.05l-297.52-.28-53.76.21c-.29,0-.53-.24-.53-.53v-39.71Z"/>
      <path d="M771.96,755.22s0-.05,0-.07c-.1-.89-.89-1.53-1.77-1.43-.05,0-.25.19-.6.54-4.56,4.61-10.67,12-13.44,18.64-2.53,6.03-4.92,11.9-7.16,17.61-.03.08-.1.14-.18.16-.14.04-.29-.05-.32-.19-2.77-9.75-5.11-18.74-7-26.95-1.53-6.66-3.45-11.37-5.42-17.68-1.23-3.94-2.37-9.93-3.42-17.97-.06-.48.06-.97.32-1.38,8.39-12.87,14.66-25.38,18.82-37.51,8.22-23.99,14.24-49.73,18.06-77.2.7-5.01.9-9.62.6-13.81-.33-4.82-.77-9.51-1.32-14.08-.01-.1-.04-.2-.09-.29-.21-.4-.71-.54-1.11-.33-1.24.66-2.4,1.61-3.49,2.86-7.02,8.04-11.89,16.4-14.62,25.07-1.09,3.47-2.25,6.76-3.48,9.87h0c-.03.07-.09.12-.16.14-.12.03-.24-.05-.26-.17-3.92-17.78-8.57-35.93-15.42-53.6-1.06-2.73-2.42-5.15-4.09-7.27-.04-.05-.08-.09-.13-.13-.39-.33-.98-.28-1.31.11-1.21,1.41-2.07,2.73-2.58,3.96-4.53,10.67-7.51,19.84-8.95,27.5-1.21,6.4-2.99,16.02-5.35,28.85-.06.34-.28.62-.59.77-.53.25-1.15.02-1.4-.51l-9.72-20.95c-.21-.45-.46-.88-.75-1.29-2.8-3.93-5.22-7.41-7.27-10.42-1.52-2.23-3.37-4.11-5.55-5.62-.02-.02-.05-.03-.07-.05-.6-.35-1.37-.15-1.72.45-.07.13-.11.53-.12,1.2-.04,4.31.3,9.8,1.03,16.47,1.82,16.71,4.16,34.49,8.59,51.18,3.53,13.31,6.43,24.44,10.01,33.69.75,1.95,3.5,7.75,8.27,17.42,3.46,7.03,7.42,13.23,10.67,19.93.14.28.23.59.27.91.6,4.55,1.02,9.64,1.27,15.26.15,3.39-.1,6.07-.73,8.03-4.87,15.09-8.15,30.52-9.82,46.27,0,.08-.05.16-.11.22-.14.13-.36.12-.49-.02-.37-.41-.61-.7-.71-.89-1.47-2.79-4.24-8.84-8.32-18.15-2.5-5.7-6.4-11.47-11.7-17.31-1.34-1.47-2.99-2.79-4.94-3.94-.09-.05-.19-.09-.29-.11-.51-.1-1.01.23-1.11.74-.13.63-.17,1.18-.12,1.66l1.94,19.53c1.79,18.06,5.13,33.82,9.64,53.21.9,3.87,2.12,7.95,3.67,12.26,1.72,4.82,2.84,8.88,3.35,12.17.07.49.39.9.84,1.09.57.25.9.74.99,1.47.35,2.86,3.15,8.08,6,14.78,3.01,7.08,8.48,15.78,11.28,20.18,2.41,3.79,3.41,8.04,2.98,12.75-.25,2.77-.45,5.19-1.7,6.96-7.51,10.68-15.19,22.82-23.05,36.43-.25.43-1.1,1.65-2.54,3.64-.09.12-.22.2-.37.21-.28.02-.52-.18-.55-.46l-1.9-23.7c-.03-.36-.1-.71-.21-1.05-2.78-8.23-4.59-13.4-5.44-15.52-.53-1.32-1.3-2.68-2.3-4.07-.09-.13-.23-.23-.38-.27-.39-.12-.81.09-.93.48-7.28,23.27-12.21,46.97-14.8,71.1-2.61,24.36-2.16,50.62,4.31,74.56.09.32,0,.67-.23.91-1.33,1.39-4.55,4.71-9.67,9.94-1.43,1.46-3.19,2.06-5.03,2.24-15.18,1.46-27.54,3.6-45.23,6.55-2.63.44-4.5.62-5.61.55-.07,0-.13-.04-.16-.09-.07-.1-.04-.23.05-.3.79-.54,6.08-5.23,15.86-14.07,5.73-5.18,10.32-10.75,13.79-16.7,1.02-1.75,1.71-3.63,2.07-5.62.02-.13,0-.26-.04-.38-.15-.34-.54-.5-.89-.36-11.24,4.85-21.16,9.26-29.75,13.24-24.79,11.47-47.62,25.48-68.47,42.03-10.85,8.61-20.19,17.67-28.04,27.18-1.1,1.34-2.43,1.76-4,1.26-5.64-1.81-11.72-4.09-18.24-6.85-.09-.04-.18-.09-.25-.16-.39-.34-.43-.93-.09-1.32,4.38-5.01,8.23-9.83,11.54-14.44,3.73-5.19,6.74-11.68,9.03-19.49.28-.97.35-1.81.2-2.54,0,0,0,0,0,0-.12-.6-.71-.99-1.31-.87-5.05,1.05-10.1,2.27-15.15,3.67-13.19,3.65-26.54,7.48-40.05,11.5-6.62,1.97-13.13,4.55-19.11,7.33-9.11,4.24-15.09,10.07-22.54,17.97-4.05,4.29-7.9,8.91-11.57,13.85-.2.26-.5.41-.82.41h-27.05c-.34,0-.66-.15-.87-.42-7.13-9.18-14.59-17.26-22.38-24.24-7.58-6.79-18.89-11.2-28.58-14.15-16.91-5.15-33.45-9.95-49.62-14.41-3.81-1.05-6.34-1.68-7.57-1.88-.1-.02-.2-.02-.3,0-.53.08-.9.58-.82,1.11.54,3.63,1.52,7.45,2.94,11.48,1.23,3.51,3.13,6.95,5.69,10.31,4.33,5.7,7.52,9.8,9.55,12.29.73.91,1.59,1.71,2.57,2.42.09.06.15.14.2.24.15.32.02.7-.3.86-5.87,2.85-12.46,5.35-19.79,7.51-.73.21-1.51.12-2.18-.25-2.11-1.19-3.79-2.78-5.05-4.79-2.71-4.34-3.71-5.23-7.85-8.38-.36-.28-.66-.62-.89-1-2.32-3.9-7.45-8.18-12.75-12.36-28.6-22.55-59.98-40.56-94.14-54.02-1.87-.74-4.22-1.91-6.56-2.35-.09-.02-.18-.01-.27,0-.32.08-.52.41-.43.73.66,2.53,1.86,5.02,3.61,7.49,5.31,7.49,11.4,14.15,18.29,19.96,3.8,3.21,8.45,4.54,11.59,8.15.05.05.08.11.1.18.1.29-.05.62-.34.72-1.91.69-3.9.76-5.97.21-5.59-1.47-9.82-2.38-12.68-2.72-3.53-.42-7.78-1.17-12.77-2.25-6.69-1.46-14.62-2.39-23.8-2.79-.42-.02-.81-.2-1.09-.5l-10.15-11.08c-.57-.62-.8-1.48-.62-2.3,6.23-29.11,6.82-58.65,1.78-88.6-.43-2.57-.78-5.02-1.04-7.37-.36-3.31-.73-5.77-1.11-7.37-3.01-12.75-5.35-22.67-7.02-29.75-1.06-4.52-2.44-8.39-4.13-11.6-.04-.08-.11-.15-.18-.21-.26-.18-.62-.12-.81.15-.57.82-1.06,1.76-1.48,2.81-1.49,3.73-3.22,8.23-5.21,13.48-.67,1.77-1.06,3.78-1.18,5.44-.74,10.1-1.37,17.6-1.88,22.51,0,.1-.04.19-.1.27-.18.27-.54.33-.81.15-.42-.29-.82-.77-1.2-1.44-9.05-15.75-14.98-26.58-23.08-36.93-1.38-1.77-2.21-3.68-2.49-5.73-.69-5.07-1-10.17,1.79-14.68,6.25-10.09,11.62-20.46,16.12-31.11.16-.39,1.41-3.55,3.75-9.48,1.17-2.97,2.27-6.18,3.29-9.63,5.25-17.67,9.2-35.6,11.85-53.8.2-1.35.32-2.55.36-3.6.08-2.03.51-4.84,1.28-8.43.63-2.87.94-9.51.94-19.9,0-.83-.12-1.51-.35-2.04-.03-.07-.07-.13-.12-.18-.28-.33-.76-.37-1.08-.1-7.18,6.01-11.73,13.13-16.08,22.23-1.31,2.73-3.87,8.58-7.68,17.53-.06.14-.17.25-.31.31-.29.12-.63-.02-.75-.32-.31-.79-.53-1.56-.65-2.29-1.18-7.21-2.81-16.47-4.88-27.78-.64-3.49-2.03-8.23-4.18-14.23-1.4-3.88-1.63-6.63-1.41-10.53.33-6.12.77-11.12,1.3-14.99.05-.34.16-.66.32-.96,2.01-3.51,3.21-5.55,3.6-6.12,1.59-2.32,2.87-4.5,3.86-6.54,3.53-7.29,8.63-17.28,11.86-26.34,10.93-30.63,17.35-62.39,19.28-95.3.1-1.69-.04-3.21-.43-4.56-.02-.06-.04-.12-.07-.17-.24-.43-.78-.59-1.22-.36-1.33.73-2.61,1.8-3.84,3.21-8.28,9.58-13.9,21.25-18.94,33.28-.23.55-.55,1.11-.95,1.66-.07.1-.17.18-.29.24-.38.19-.85.02-1.03-.36-.58-1.2-.94-2.29-1.09-3.28-1.41-9.29-2.81-17.52-4.22-24.68-2.21-11.23-6.16-22.22-11.83-32.99-.04-.07-.09-.13-.15-.19-.26-.2-.63-.16-.84.1-1.66,2.06-3.07,4.44-4.23,7.14-4.75,11.05-8.8,23.57-12.14,37.56-2.32,9.75-3.64,15.29-3.97,16.61-.02.07-.07.12-.13.14-.1.03-.22-.03-.25-.13-4.33-13.81-10.73-28.63-21.28-37.95-.05-.04-.1-.07-.17-.09-.23-.07-.48.07-.54.3-2.64,8.93-2.09,15.69-1.09,26.59.85,9.26,1.64,15.65,2.37,19.17,1.35,6.5,2.26,11.03,2.73,13.59,1.04,5.6,2.01,10.12,2.91,13.55,4.57,17.38,9.16,31.84,13.77,43.37,3.47,8.68,8.44,17.73,14.89,27.15.19.28.27.62.21.95-1.8,10.39-3.25,17.44-4.36,21.15-4.39,14.67-8.17,28.53-11.35,41.6-.02.1-.09.18-.18.21-.16.07-.35-.01-.42-.17-.93-2.21-2.79-6.66-5.56-13.35-3.61-8.72-8.47-16.19-14.58-22.4-.37-.38-.61-.58-.71-.61-.02,0-.03,0-.05-.01-.73-.18-1.46.26-1.64.98-.68,2.7-1.01,5.37-1,8,.05,10,.59,19.4,1.6,28.21,1.3,11.27,3.69,20.7,7.05,35.95,1.45,6.55,5.19,18.56,11.22,36.04,4.63,13.42,10.37,24.72,17.22,33.91.21.28.3.62.27.97-.98,9.29-1.44,15.6-1.38,18.93.29,14.33,1.7,28.96,4.25,43.9.02.11,0,.21-.03.31-.11.33-.47.51-.8.4-.23-.08-.47-.27-.71-.56-6.31-7.95-12.42-14.48-18.34-19.59-2.57-2.21-7.21-5.3-13.9-9.26-.06-.04-.13-.06-.2-.06-.24,0-.45.18-.46.42-.17,4.31.26,7.78,1.27,10.43,4.48,11.71,10.01,23.34,16.6,34.9,4.96,8.7,11.5,18.16,16.24,25.95,1.4,2.31,2.64,3.84,3.71,4.59.28.2.49.47.6.79.61,1.68,2.05,4.02,4.32,7.01,9.41,12.44,19.48,23.66,30.2,33.66,1.83,1.7,3.59,3.2,5.3,4.51,5.55,4.25,9.18,8.75,15.78,15.51,7.15,7.32,14.72,13,22.72,17.03.33.17.62.42.83.72l.27.39c.27.39.66.69,1.1.87,1.56.63,3.51,1.44,5.01,2.52,4.45,3.19,7.98,6.27,12.14,7.04.32.06.61.23.82.47.52.59.99.98,1.42,1.19,2.78,1.34,5.58,2.83,8.4,4.48.12.07.2.19.22.33.03.24-.14.47-.38.5-.89.12-1.84.19-2.85.2l-22,.35c-5.4.16-11.47.25-15.45,2.8-.71.45-1.32,1.43-1.85,2.94-.13.36-.06.76.19,1.04,2.63,3.15,5.08,4.97,7.36,5.48,4.23.94,8.29,2.03,12.19,3.28,2.58.82,4.32.88,7.52,1.33.76.11,1.51.28,2.24.52,6.27,2.03,12.13,3.09,17.57,3.16.59,0,1.17.15,1.7.43l1.19.64c.66.35,1.4.54,2.16.55,8.4.13,18.64,2.39,28.09,3.04,14.51,1,25.37,1.49,32.58,1.47,8.89-.02,15.48-.38,19.75-1.08,6.3-1.03,11.88-1.71,16.75-2.02,2.47-.16,3.52,2.21,5.87,2.8,11.71,2.88,20.62,5.31,26.73,7.29,1.79.58,3.22,1.16,4.27,1.74.12.07.22.15.3.26.35.44.28,1.09-.16,1.44-.72.57-2,1.34-3.84,2.32-10.22,5.41-17.64,9.57-22.27,12.47-4.4,2.77-8.24,5.75-11.52,8.94-2.46,2.4-4.27,5.07-5.44,8.01-.03.07-.05.15-.05.23-.03.43.29.8.72.83,8.56.63,17.11.81,25.65.54,12.45-.4,24.71-2.79,36.79-7.16,5.07-1.83,13.19-4.8,24.38-8.9.13-.05.29-.02.39.08.16.14.17.39.03.54-8.54,9.34-16.12,19.71-22.73,31.1-1.61,2.77-2.22,5.86-1.84,9.26.03.31.29.54.6.54h19.54c.34,0,.64-.22.73-.54,2.06-6.79,4.19-12.4,6.39-16.83,5.45-10.99,12.31-21.29,20.6-30.89,1.79-2.07,4.22-4.36,7.27-6.86.46-.38.99-.67,1.56-.86,1.48-.5,3.49-.82,6.04-.97,5.17-.3,10.3-.25,15.41.15,2.34.19,4.05.65,5.14,1.39,2.27,1.53,4.78,3.84,7.53,6.93,12.83,14.36,21.94,30.33,27.34,47.9.11.34.42.58.78.58h19.39c.31,0,.57-.25.59-.57.43-7.73-3.31-13.33-7.64-19.17-5.57-7.51-11.3-14.78-17.2-21.83-.05-.06-.07-.14-.06-.22.03-.15.17-.25.32-.22.59.1.99.19,1.18.27,20.87,8.35,35.79,15.28,56.09,15.81,11.51.3,21.45.23,29.82-.21.05,0,.1,0,.15-.02.46-.11.75-.57.64-1.03-.82-3.53-5.5-8.18-7.71-10.53-1.68-1.8-4.11-3.64-7.29-5.51-5.95-3.51-13.62-7.72-23.01-12.65-1.97-1.03-3.57-2.16-4.78-3.39-.1-.1-.18-.22-.23-.35-.24-.56.02-1.21.58-1.45,1.61-.69,3.49-1.32,5.65-1.9,11.91-3.17,21.17-5.58,27.78-7.21,3.21-.79,6.3-1.03,9.27-.71,16.81,1.82,33.4,2.25,49.76,1.29,24.19-1.41,48.67-4.96,73.46-10.63,5.16-1.18,10.39-2.85,15.7-5.01,2.89-1.17,6.29-2.28,9.26-4.25.13-.09.24-.21.3-.36.19-.43,0-.92-.42-1.11-6.89-3.06-14.41-4.77-22.58-5.13-9.43-.42-16.53-.8-21.28-1.14-.14-.01-.27-.1-.34-.22-.1-.2-.02-.45.18-.56,13.23-6.86,26.15-15.07,38.76-24.62,6.57-4.97,13.2-11.43,19.87-19.37.96-1.14,1.85-2,2.67-2.59,6.93-5,12.56-10.93,19.43-17.92,9.03-9.2,17.08-19.06,24.14-29.59,1.96-2.92,4.85-6.15,6.71-8.94,10.72-16.12,19.82-32.75,27.29-49.9,3-6.87,5.28-11.68,4.18-18.51,0-.04-.02-.07-.04-.1-.08-.13-.26-.17-.4-.09-4.92,3.1-10.97,6.37-14.7,9.89-6.34,5.98-11.66,11.89-17.72,19.24-.14.17-.35.25-.57.22-.34-.05-.57-.36-.52-.7,1.15-7.97,2.12-15.53,2.9-22.67.75-6.93,1.15-15.02,1.21-24.26.03-4.91-.3-9.55-.98-13.94-.21-1.37.08-2.76.82-3.93,6.67-10.54,12.29-21.71,16.86-33.51,4.2-10.84,7.14-23.67,10.56-35.82,1.32-4.69,3.39-14.4,6.2-29.13,1.53-8.05,2.34-15.04,2.41-20.96.11-8.71-.03-15.93-.41-21.65Z"/>
      <path d="M529.79,673.37c-1.08-4.23-2.18-8.16-3.3-11.79-.03-.08-.06-.15-.11-.21-.04-.06-.1-.12-.16-.16-.06-.05-.12-.08-.2-.1h-.01s-.09-.03-.13-.03h-.05s-.04-.01-.07,0c-.07-.01-.13.01-.19.03-.08.02-.14.05-.2.1-.06.04-.12.1-.16.16-.05.06-.09.13-.11.21l-26.87,88.46s-.02.08-.02.12v.02c0,.06,0,.12.04.18.02.05.05.1.09.14.03.04.07.07.11.08.02.02.04.03.07.04.04.02.09.03.14.03,15.35.58,31.78.55,49.27-.1.03,0,.06-.01.09-.01.04,0,.08-.02.11-.04.04-.02.06-.03.09-.05.04-.03.07-.07.1-.1.04-.05.07-.1.09-.16.02-.05.03-.1.03-.16,0-.04,0-.09-.01-.13-5.38-23.35-11.59-48.86-18.64-76.53Z"/>
      <path d="M254.96,666.97c-.31-1.14-.75-2.46-1.32-3.97-.02-.06-.06-.12-.1-.18-.02-.03-.04-.06-.08-.09-.04-.05-.08-.09-.13-.12-.05-.04-.11-.07-.18-.09-.02-.01-.03-.02-.05-.02-.12-.04-.25-.04-.37-.02-.18.02-.34.11-.46.24-.03.02-.05.05-.07.08-.03.03-.05.06-.06.09-.04.05-.06.11-.08.17l-26.43,86.99c-.02.07-.03.14-.03.21v.02c0,.07.01.14.04.21.02.07.05.13.09.18.02.04.05.08.09.11.08.09.19.16.31.19.07.02.13.03.2.03h48.99s.09,0,.13-.01c.2-.04.35-.18.41-.35.01-.03.02-.05.03-.07.01-.05.02-.11.02-.16,0-.04,0-.09,0-.13-5.91-25.84-12.89-53.61-20.94-83.31Z"/>
    </g>
  </g>
</svg>