<?xml version="1.0" encoding="UTF-8"?>
<svg fill="#e8718b" id="Layer_2" data-name="Layer 2" xmlns="http://www.w3.org/2000/svg" viewBox="0 0 1130.45 958.64">
  <defs>
    <style>
      .cls-1 {
        fill:#e8718b;
        fill-rule: evenodd;
      }
    </style>
  </defs>
  <g id="Layer_1-2" data-name="Layer 1">
    <path class="cls-1" d="M1130.12,479.04c-2.01-52.28-8.61-104.62-19.79-157.01-13.88-65.05-31.23-124.55-52.06-178.5-7.46-19.33-15.18-37.04-23.15-53.13-.16-.33-.5-.53-.87-.52-33.59.94-67.32-1.42-101.21-7.08-23.23-3.88-44.43-8.52-63.62-13.92-7.93-2.23-19.14-5.48-33.63-9.75-28.39-8.37-53.11-16.77-82.53-25.99-19.97-6.25-39.55-11.76-58.74-16.51-31.79-7.87-64.44-13.03-97.95-15.49-26.09-1.91-54.08-1.43-83.96,1.46-12.1,1.17-25.63,3.19-40.6,6.06-16.89,3.24-30.25,6.18-40.07,8.81-22.55,6.05-37.66,10.28-45.32,12.67-42.93,13.43-86.55,28.4-131.53,40.19-26.75,7.01-53.34,12.23-79.75,15.66-21.75,2.83-48.18,4.24-79.31,4.25-.23,0-.44.12-.56.32-.97,1.67-1.69,3-2.17,4-9.07,18.98-17.33,38.61-24.78,58.89-8.81,23.97-16.08,45.71-21.81,65.22-4.75,16.19-8.78,30.32-12.08,42.38-3.48,12.73-8.54,34.42-15.19,65.07-4.8,22.11-9.4,50.12-13.79,84.04-3.16,24.44-4.76,49.48-5.46,69.91-.15,4.42-.21,12.43-.18,24.02.01,5,.59,9.16.59,13.8,0,2.19.16,5.63.48,10.3.28,4.05.57,8.08.86,12.09,2.52,34.1,8.79,67.26,19.99,98.87,8.01,22.61,18.4,43.89,31.17,63.86,13.87,21.68,29.71,41,47.52,57.97,18.19,17.32,38.55,33.04,61.09,47.15,35.33,22.12,73.81,40.89,112.07,56.16,31.63,12.63,64.23,24.28,97.79,34.95,32.51,10.35,65.47,20.4,98.88,30.15,35.98,10.51,54.24,15.84,54.78,16,13.77,4.07,26.67,8.43,38.69,13.1.3.11.61.16.93.14.83-.05,1.79-.27,2.89-.67,11.53-4.2,25.71-8.85,42.52-13.94,35.46-10.75,111.17-32.19,165.08-49.97,19.13-6.31,37.69-12.84,55.66-19.58,34.72-13.01,67.83-27.72,99.34-44.12,20.81-10.83,41.68-23.67,62.61-38.5,8.22-5.83,18.78-14.52,24.99-19.95,41.29-36.09,71.22-79.36,89.79-129.81,8.81-23.91,15.01-50.73,18.61-80.45,3.52-29.04,4.78-56.57,3.78-82.6ZM633.16,271.56s.02-.02.02-.03c.01-.02.03-.04.04-.07s.04-.04.06-.05c.01,0,.02-.02.03-.03,0,0,.02,0,.03,0,.04-.02.07-.03.11-.04.02,0,.03,0,.05-.01.06,0,.11,0,.17.02,4.82,1.88,9.47,3.97,13.98,6.27,7.51,3.84,14.58,8.29,21.22,13.33,10.71,8.13,20.56,18.12,29.55,29.96,17.07,22.51,29.46,51.23,31.88,79.68.25,3.04.45,5.37.58,6.99.18,2.24.27,4.48.28,6.73.03,4.5-.24,9.02-.74,13.56-.25,2.27-.55,4.54-.9,6.83-.07.47-.29.91-.62,1.25-2.31,2.4-4.64,3.68-6.98,4.15-.7.14-1.41.21-2.11.21-.7,0-1.41-.06-2.11-.17-.47-.08-.94-.18-1.4-.3-.23-.06-.47-.13-.7-.2-2.8-.87-5.59-2.5-8.32-4.34-.23-.15-.45-.31-.68-.46-6.61-4.54-13.21-11.14-18.08-18.7-3.79-5.88-6.54-12.33-7.44-18.84-1.65-11.81-2.96-21.34-5.45-31.25-5.04-20.05-12.17-39.37-21.39-57.95-3.07-6.19-6.38-12.3-9.92-18.33-1.93-3.29-4.1-6.84-6.51-10.67-1.45-2.29-2.98-4.69-4.61-7.17-.03-.05-.05-.1-.06-.16,0-.02,0-.03,0-.05,0-.04,0-.08.02-.12,0,0,0-.02,0-.03ZM691.44,709.74s0,.05-.02.08c-.01.03-.03.05-.05.08-.02.03-.03.06-.05.08-.02.02-.04.03-.06.04-.03.02-.06.05-.1.06,0,0,0,0,0,0-.05.02-.11.03-.17.03,0,0,0,0,0,0h0l-20.72-.03c-.3,0-.57-.2-.67-.49l-3.75-11.57c-.08-.22-.29-.37-.53-.35-.21.01-1.04.03-2.48.04-.41,0-.87,0-1.39,0-1.79,0-4.2.01-7.23.01h0c-.43,0-.85,0-1.26,0-6.11,0-9.39-.02-9.84-.05-.23-.02-.45.13-.53.35l-3.74,11.58c-.09.29-.36.49-.67.49l-20.72.04h0s0,0,0,0c-.06,0-.12-.01-.17-.03,0,0,0,0,0,0-.04-.01-.07-.04-.1-.06-.02-.01-.05-.03-.06-.04-.02-.02-.04-.05-.06-.08-.02-.03-.04-.05-.05-.08-.01-.02-.01-.05-.02-.08,0-.04-.02-.07-.02-.11,0,0,0,0,0-.01,0-.06.01-.12.03-.17l25.59-68.66c.13-.34.45-.56.82-.57,3.59-.07,7.19-.11,10.79-.11h0c3.6,0,7.19.03,10.79.1.36,0,.69.24.82.57l25.64,68.64c.02.06.03.11.03.17,0,0,0,0,0,.01,0,.04-.01.07-.02.11ZM615.25,709.66s-.01.06-.03.09c-.01.03-.04.06-.06.08-.02.03-.04.06-.07.09,0,0,0,.01-.02.02-.03.02-.06.03-.09.05-.02.01-.04.03-.06.04-.06.03-.13.04-.2.04h-22.47c-.36,0-.68-.2-.84-.52l-11.18-22.71c-.17-.34-.51-.56-.9-.56h-6.61c-.39,0-.7.31-.7.7v22.32c0,.49-.4.89-.89.89h-18.9s-.03,0-.05,0c-.22-.02-.41-.13-.53-.3-.09-.12-.15-.26-.15-.42v-69.09h0c0-.22.18-.39.4-.39,4.84,0,9.46,0,13.85,0h0c2.92,0,5.74,0,8.46,0h.02c4.08,0,7.93.01,11.56.02,1.12,0,3.65.5,7.58,1.47,4.95,1.23,8.99,3.3,11.93,6.29.42.43.82.87,1.2,1.33,1.26,1.55,2.25,3.33,2.98,5.31.3.82.56,1.68.77,2.58.2.86.36,1.75.47,2.68.15,1.34.22,2.74.18,4.22-.23,8.21-4.12,14.14-11.67,17.81-.06.03-.1.07-.15.11-.04.03-.09.06-.12.1-.03.04-.05.09-.08.13-.02.04-.05.09-.07.14-.01.05-.02.1-.02.15,0,.05-.01.1-.01.15,0,.05.02.1.04.16.02.06.03.12.06.18,0,0,0,0,0,0,.43.73.84,1.44,1.25,2.14.84,1.43,1.64,2.81,2.41,4.13.88,1.51,1.72,2.94,2.52,4.3.17.29.33.57.5.85,1.8,3.07,3.39,5.76,4.75,8.05,1.43,2.41,3.05,4.71,4.84,6.9,0,0,0,0,0,0,.04.05.07.11.1.18,0,.02,0,.05.01.07,0,.03.02.06.02.1,0,0,0,.02,0,.03,0,.04-.01.08-.02.11ZM569.09,592.99c-22.89.23-44.57-4.24-65.06-13.4-9.77-4.37-18.69-10.14-26.75-17.29-.44-.39-.77-.9-.96-1.46-1.3-3.9-.9-7.42.57-10.46,2.15-4.45,6.61-7.91,11.47-10.1,17.29-7.79,34.6-7.61,51.93.54,12.63,5.93,25.23,10.4,37.79,13.41,18.84,4.51,38.52,7.75,58.7,7.97,9.23.1,17.35-.02,24.36-.35.17,0,.33.1.38.27h0c.06.18.02.32-.09.43-.02.02-.02.04-.04.05-10.95,7.69-22.85,14.96-35.84,19.88-17.97,6.81-36.79,10.32-56.46,10.51ZM501.33,656.74l-18.67-.09c-.35,0-.63-.29-.63-.63l.07-15.51s0,0,0,0h0s.02-.07.02-.11c0-.04,0-.08.03-.12.02-.04.04-.06.06-.09.02-.03.04-.07.06-.09.03-.03.07-.05.1-.07.03-.02.05-.04.09-.06.04-.02.09-.02.13-.03.03,0,.06-.02.1-.02,0,0,0,0,0,0,0,0,0,0,0,0,17.96.06,27.8.09,29.53.09s11.58.02,29.53.05h0s.08.02.13.03c.03,0,.07,0,.1.02.04.02.07.05.11.07.03.02.06.03.08.05.03.03.05.07.07.11.02.03.04.05.06.08.02.04.02.09.03.13,0,.03.02.06.02.1,0,0,0,0,0,0,0,0,0,0,0,0v15.51c0,.17-.07.33-.18.45s-.27.18-.45.18h-18.67c-.18,0-.34.07-.46.19s-.19.28-.19.46v52.06c0,.17-.07.32-.17.44-.01.02-.04.02-.05.04-.06.05-.13.09-.2.12-.06.02-.11.04-.18.05-.67.04-3.91.05-9.74.04-5.83-.01-9.08-.04-9.74-.09-.34-.02-.6-.3-.6-.64l.24-52.06c0-.36-.29-.65-.65-.65ZM455.92,688.6c-.87-2.86-5.4-4.25-8.27-5.13-6.53-2.01-13.34-4.46-18.09-8.67-.84-.74-1.61-1.54-2.31-2.4-1.63-2-2.83-4.35-3.45-7.12-.18-.79-.31-1.62-.39-2.48-.12-1.3-.12-2.67,0-4.14.88-10.24,9.43-17.61,19.16-19.36,3.12-.56,6.15-.8,9.1-.73,8.84.23,16.91,3.33,24.2,9.3.19.16.3.37.32.6,0,0,0,.02,0,.03.02.22-.04.44-.19.63l-9.03,11.34c-.15.19-.36.3-.58.33-.22.03-.45-.03-.64-.18-.45-.34-.9-.65-1.35-.96-.44-.3-.88-.58-1.33-.86-1.28-.78-2.58-1.43-3.92-1.95-1.65-.65-3.34-1.11-5.08-1.37-.84-.13-1.69-.22-2.55-.26-.73-.03-1.47-.03-2.21,0-1.38.07-2.52.4-3.42.99-1.89,1.26-2.67,4.17-.67,5.77.97.77,1.91,1.31,2.83,1.61.15.05.31.1.46.15,1.15.37,2.36.74,3.62,1.13.87.27,1.75.55,2.66.84.73.24,1.48.48,2.22.74.4.14.79.28,1.19.42.7.25,1.39.51,2.09.79.46.18.92.37,1.37.56.61.26,1.21.53,1.81.81,1.12.53,2.21,1.11,3.26,1.73.38.23.75.46,1.12.7,1.81,1.18,3.47,2.53,4.87,4.12,6.82,7.73,6.04,19.85-1.07,27.12-3.55,3.64-7.88,6.07-12.98,7.29-3.1.74-6.51,1.16-10.02,1.21-10.53.16-21.94-2.98-28.6-10.64-.19-.22-.19-.55,0-.77l10.37-11.79c.18-.2.43-.32.68-.33.02,0,.03,0,.05,0,.16,0,.32.05.47.13.07.04.14.06.2.11,4.49,3.92,9.6,6.16,15.32,6.71.22.02.44.03.68.04,3.59.1,9.48-1.46,8.09-6.05ZM689.28,535.27c-3.41,4.01-7.3,8.36-11.67,13.06-.05.05-.1.09-.16.12-.06.04-.13.07-.2.09-.03,0-.05.02-.08.03-.16.03-.33,0-.49-.08-21.31-11.46-44-19.7-68.07-24.71-3.18-.66-6.37-1.26-9.56-1.78-1.6-.26-3.2-.51-4.8-.74-4.81-.69-9.64-1.22-14.49-1.59-3.23-.25-6.48-.43-9.73-.55-3.25-.11-6.51-.16-9.78-.14-3.27.02-6.55.11-9.84.27-6.58.32-13.19.91-19.84,1.78-2.26.3-4.54.65-6.81,1.06-2.68.48-5.36,1.04-8.03,1.69-4.77,1.15-9.5,2.57-14.11,4.26-1.23.45-2.44.92-3.65,1.41-5.33,2.17-10.46,4.72-15.27,7.71-7.26,4.52-12.42,9.96-10.97,19.12h0s0,0,0,0c0,.05,0,.1-.03.14,0,.01-.01.02-.02.03,0,0-.01.02-.02.03-.02.01-.04.01-.06.02-.02,0-.03.03-.05.03-.01,0-.02,0-.03,0-.01,0-.02,0-.03,0-.05,0-.1-.03-.14-.07,0,0,0,0,0,0-17.06-19.39-12.02-43.53,4.5-61.18,6.87-7.33,14.75-13.27,23.66-17.82.05-.03.1-.05.15-.07,1.22-.62,2.46-1.22,3.73-1.79,9.5-4.29,19.63-7.27,30.02-9.19,1.88-.35,3.77-.66,5.67-.94.79-.12,1.58-.23,2.38-.33,9.64-1.27,19.43-1.7,29.12-1.43,21.75.59,43.72,3.74,65.4,9.8,14.03,3.91,24.65,7.27,31.84,10.06,14.36,5.58,28.1,11.67,41.22,18.27.42.21.59.72.38,1.14-5.69,11.45-12.32,23.11-20.12,32.29ZM550.19,217.26s.02-.07.02-.11c0-.08.02-.15.05-.23.02-.07.05-.14.08-.2.03-.06.07-.12.12-.18.05-.06.1-.11.17-.16.03-.02.05-.06.08-.08.04-.02.08-.04.12-.06.04-.02.07-.04.11-.05.13-.05.26-.08.4-.08,0,0,0,0,0,0h21.56c.39,0,.75.2.96.52l6.71,10.24s0,0,0,0c.07.11.12.24.15.38,0,.04.01.08.02.12,0,.04.02.09.02.13,0,.04-.02.07-.02.11,0,.08-.02.15-.05.23-.02.07-.05.13-.08.2-.03.06-.07.12-.12.18-.05.06-.1.11-.17.16-.03.02-.05.06-.08.08-.04.02-.08.04-.12.06-.04.02-.07.04-.11.05-.13.05-.26.08-.4.08h-21.57c-.39,0-.75-.2-.96-.52l-6.7-10.24c-.08-.12-.12-.24-.15-.38,0-.04-.01-.08-.02-.12,0-.04-.02-.09-.02-.13ZM614.08,264.65c.07.02.12.08.13.15,1.01,11.07,2.57,22.28,4.68,33.62,3.94,21.13,10.44,41.79,19.51,61.98.98,2.19,2.01,4.37,3.09,6.54.54,1.09,1.09,2.17,1.66,3.25,2.83,5.41,5.97,10.77,9.42,16.07,12.53,19.28,26.37,35.51,44.9,49.6,6.11,4.65,13.75,9.06,21.27,9.03,2.94-.01,5.87-.7,8.67-2.32h0c.08-.05.16-.05.25-.04,0,0,.01,0,.02,0,0,0,0,0,.01,0,.03,0,.05.02.08.03.02,0,.04.02.06.03.02.01.03.03.04.05.02.02.04.04.06.06,0,0,0,0,0,0,0,0,0,.01,0,.02.04.07.06.16.04.25-.71,3.52-1.87,6.73-3.47,9.61-1.33,2.4-2.97,4.58-4.92,6.54-1.95,1.96-4.2,3.69-6.76,5.2-6.09,3.59-12.51,5.67-19.27,6.24-2.53.21-4.93.36-7.29.39-3.92.04-7.68-.24-11.59-1.11-8.08-1.78-15.77-4.91-22.96-9.04-1.03-.59-2.04-1.2-3.05-1.83-2.01-1.26-3.99-2.6-5.91-4-.96-.7-1.92-1.42-2.86-2.16-4.71-3.68-9.13-7.77-13.24-12.13-9.16-9.71-16.97-19.9-23.42-30.56-5.81-9.59-11.25-19.93-16.34-31.02-1.8-3.92-3.26-7.51-4.37-10.77-1.69-4.96-3.74-9.15-5.43-14.54-4.75-15.15-7.98-27.76-9.69-37.84-2.01-11.96-4.01-23.47-5.31-34.96-.13-1.15-.25-2.3-.37-3.45-.58-5.75-.97-11.5-1.08-17.32,0-.4.3-.74.69-.77,2.69-.23,5.55-.35,8.59-.35,3.03,0,6.24.11,9.61.34,11.95.8,23.46,2.53,34.53,5.2ZM699.31,640.52c0-.28.23-.51.51-.51h19.8c.14,0,.27.06.36.15s.15.22.15.36v51.89s.01.08.02.11c.05.23.25.4.49.4h28.29c.28,0,.51.23.51.51v16.16h0s0,0,0,0c0,.28-.23.5-.51.5,0,0,0,0,0,0h-49.11c-.14,0-.27-.06-.36-.15s-.15-.22-.15-.36v-69.07ZM617.49,216.28l4.53,6.3c.07.09.1.21.09.33l-.44,5.32c-.02.25-.23.45-.49.45h-19.99c-.08,0-.16-.02-.23-.06-.07-.04-.13-.09-.18-.16l-7.6-11.62s0,0,0,0c-.05-.07-.07-.16-.07-.24,0-.01,0-.02,0-.03,0-.02,0-.03,0-.05,0-.03,0-.06.02-.1,0-.03.02-.06.04-.09.01-.03.03-.05.05-.08.02-.03.05-.05.07-.07.01-.01.02-.02.03-.03,0,0,.02,0,.03,0,.07-.04.15-.07.24-.07h23.5s.08.02.12.03c.11.03.21.08.28.18ZM513.25,158.3s0,0,0,0l25.13-18.04c.19-.14.25-.4.13-.61l-15.39-26.66c-.03-.05-.05-.1-.05-.16,0-.01,0-.02,0-.04,0-.04,0-.08.01-.13,0,0,0,0,0-.01,0-.02.02-.03.03-.05.01-.03.03-.05.04-.08.02-.02.04-.04.07-.06.02-.01.03-.03.04-.04,0,0,0,0,.01,0,.04-.02.07-.03.11-.04.01,0,.03-.01.04-.01.05,0,.11,0,.17.02l29.07,9.59c.15.05.3-.02.36-.16l11.97-28.9c.05-.13.16-.23.28-.28,0,0,0,0,0,0,.02,0,.04,0,.06-.01.04-.01.09-.02.13-.02.05,0,.09.01.13.03.02,0,.04,0,.06.01,0,0,0,0,0,0,.12.05.23.15.28.28l11.24,28.39c.12.3.39.49.7.51.1,0,.2,0,.3-.04l28.54-9.29c.07-.02.13-.03.2-.02.02,0,.03.01.05.01.05,0,.09.02.14.04,0,0,.01,0,.01,0,.02.01.04.03.05.05.03.02.05.04.08.07.02.03.04.06.05.09.01.02.03.04.03.06,0,0,0,0,0,.01.01.05.02.1.02.15,0,.02,0,.03,0,.05,0,.07-.03.13-.06.19l-15.15,26.25c-.17.3-.09.67.18.88l24.44,17.76h0s0,0,0,0c.06.04.1.1.13.16,0,.02.01.04.02.06.02.05.03.09.03.14,0,.01,0,.02,0,.04,0,.01,0,.03-.01.04,0,.03-.01.06-.02.09-.01.03-.02.06-.04.09,0,.01,0,.03-.02.04,0,.01-.02.01-.03.02-.03.04-.07.07-.11.09-.02.01-.03.02-.05.03-.06.03-.13.04-.21.04-1.49-.07-2.86,0-4.11.21-4.95.81-13.57,2.12-25.84,3.92-.06,0-.12.04-.17.06-.03.01-.05.01-.08.03-.23.13-.37.39-.34.67l3.07,29.5s0,.01,0,.02c0,.04,0,.09-.01.12,0,.01-.01.02-.02.03-.01.03-.03.07-.05.09,0,0,0,0,0,0,0,0,0,0,0,0-.06.06-.13.1-.22.11,0,0,0,0,0,0,0,0,0,0-.01,0-.09,0-.18-.03-.25-.09l-22.64-19.91c-.09-.08-.2-.12-.31-.12s-.22.04-.31.12l-22.33,20.12s0,0,0,0c-.06.06-.15.08-.22.07,0,0,0,0,0,0-.04,0-.06-.03-.1-.05-.03-.02-.08-.02-.1-.05,0,0,0,0,0,0-.05-.06-.08-.14-.07-.22,0,0,0,0,0,0l2.51-30.45c.02-.19-.12-.37-.32-.39l-31.14-3.98c-.07,0-.13-.05-.18-.11,0,0,0,0,0,0-.02-.03-.01-.06-.02-.09,0-.03-.03-.06-.03-.09,0,0,0,0,0,0,0-.07.04-.13.1-.17ZM509.58,221.44c.16-1.57.8-3.18,1.91-4.83.2-.31.54-.49.91-.49h17.39c.08,0,.16.01.24.03.23.06.44.2.58.41l7.37,11.28c.05.08.07.16.07.24,0,.01,0,.02,0,.03,0,.02,0,.03,0,.05,0,.03-.01.07-.02.1,0,.03-.02.06-.04.09-.01.03-.03.05-.05.08-.02.03-.05.05-.07.07-.01.01-.02.02-.03.03,0,0-.02,0-.03,0-.07.04-.15.07-.25.07h-23.19c-.39,0-.76-.2-.98-.53l-3.5-5.35c-.25-.38-.36-.84-.31-1.29ZM505.85,270.53s.01-.01.02-.02c.02-.04.05-.07.08-.1.01-.01.02-.02.04-.03.05-.03.1-.06.16-.07,0,0,0,0,0,0,2.41-.34,4.74-.53,7.03-.52,3.82.03,7.54.64,11.31,2.16,7.43,2.99,13.57,7.89,18.42,14.71,13.24,18.65,14.92,42.91,11.02,64.88-3.1,17.51-10.18,35.9-20.07,52.8-4.58,7.83-9.3,15.16-14.14,22-1.04,1.47-2.08,2.92-3.14,4.35-2.36,3.2-4.76,6.27-7.18,9.24-1.28,1.57-2.57,3.11-3.87,4.61-.96,1.11-1.92,2.2-2.88,3.27-1.45,1.61-2.91,3.19-4.38,4.72-.04.05-.09.09-.13.14-2.41,2.51-4.87,4.99-7.35,7.43-.12.12-.25.23-.37.35-4.86,4.75-9.86,9.37-15.01,13.84-2.64,2.29-5.32,4.55-8.03,6.76-10.86,8.87-22.31,17.15-34.37,24.84-.05.03-.1.05-.15.06-.15.03-.32-.03-.41-.17-4.09-5.86-7.83-11.88-11.21-18.04-.56-1.03-1.12-2.06-1.66-3.09-4.9-9.32-9.01-18.97-12.33-28.96-.11-.31.02-.65.31-.82,4.96-2.99,9.74-6.12,14.35-9.4,2.3-1.64,4.56-3.32,6.77-5.03,2.21-1.71,4.38-3.47,6.5-5.25,15.32-12.91,29.11-27.29,41.36-43.15,5.09-6.59,9.36-12.75,12.8-18.46,4.62-7.68,11.04-19.46,14.94-29.97,3.53-9.53,5.59-15.5,6.19-17.89,3.26-13.09,5.34-24.42,4.64-37.15-.37-6.77-2.65-14.38-9.06-17.49h0c-.06-.03-.1-.07-.14-.11-.01-.01-.02-.03-.03-.04-.02-.04-.04-.07-.05-.12,0-.01,0-.02-.01-.03,0-.01,0-.02,0-.04,0-.03,0-.05,0-.08,0-.03.01-.05.02-.08,0-.01,0-.02,0-.04ZM347.98,640.32c0-.2.16-.36.35-.36h0l19.88.03s0,0,0,0c0,0,0,0,0,0,.03,0,.06.01.09.02.04,0,.08,0,.11.02.03.01.06.04.08.06.03.02.06.03.09.06.02.02.04.06.06.08.02.03.04.05.06.08.01.03.02.07.02.11,0,.03.02.06.02.09,0,0,0,0,0,0,0,0,0,0,0,0-.11,23.57-.11,37.64,0,42.21.07,2.86.86,5.39,2.26,7.34.12.16.24.32.37.48.81,1,1.78,1.84,2.91,2.46,1.56.86,3.43,1.34,5.55,1.34h0c6.79,0,10.94-4.86,11.11-11.6.03-1.14.05-2.88.07-5.21s.03-5.26.03-8.77c0-1.76,0-3.67,0-5.72,0-1.03,0-2.09,0-3.2,0-5.51-.02-11.95-.04-19.31,0,0,0,0,0,0,0,0,0,0,0,0,0-.03.01-.06.02-.09,0-.04,0-.07.02-.11.01-.03.04-.05.05-.08.02-.03.03-.06.06-.09.02-.02.05-.04.08-.06.03-.02.06-.05.09-.06.03-.01.07-.01.1-.02.04,0,.07-.02.1-.02,0,0,0,0,.01,0h19.88s.09.01.14.03c.13.05.21.18.21.33-.09,15.43-.08,26.65.04,33.66.15,8.55-.39,14.73-1.6,18.55-4.3,13.52-16.04,18.78-30.4,18.76h0c-3.59,0-7.02-.33-10.2-1.04-.06-.01-.11-.03-.17-.04-1.53-.35-3.01-.78-4.42-1.3-7.32-2.74-12.91-7.97-15.58-16.42-1.2-3.82-1.73-10-1.57-18.55.13-7.01.16-18.23.09-33.66ZM447.06,304.51c4.48-4.51,9.16-8.66,14.06-12.45.82-.63,1.64-1.25,2.47-1.87,7.45-5.51,15.38-10.2,23.77-14.08,1.02-.47,2.02-.91,3.02-1.31.99-.4,1.98-.78,2.95-1.11,1.94-.67,3.84-1.22,5.68-1.62.16-.04.32-.04.48-.02.16.02.31.07.46.14,7.82,3.92,8.96,10.15,9.36,18.21.57,11.29-3.99,23.89-9.83,34.09-1.7,2.96-3.69,5.3-5.97,7.01-10.25,7.68-15.27,10.99-23.63,18.11-27.79,23.7-49.73,51.97-65.82,84.8,0,0,0,0,0,0,0,0,0,0,0,0,0,.02-.02.03-.03.04-.01.01-.02.03-.03.04-.01,0-.02,0-.03.01-.01,0-.02.01-.03,0,0,0,0,0,0,0h0c-.05-.03-.09-.04-.11-.03h0s-.05.02-.08.02c-.02,0-.03,0-.05,0-.03,0-.06,0-.09,0-.03,0-.06-.01-.08-.02-.03,0-.05-.02-.08-.04-.03-.01-.05-.03-.07-.05-.02-.02-.04-.04-.06-.06-.02-.02-.03-.05-.05-.08,0-.02-.02-.03-.03-.04,0-.02-.01-.05-.02-.07,0,0,0,0,0,0-2.31-13.8-2.37-27.76-.19-41.87.71-4.57,2.09-11.02,4.15-19.35.11-.44.29-1.04.52-1.78.11-.33.23-.69.36-1.08.37-1.1.84-2.42,1.41-3.99.25-.67.51-1.39.79-2.15.57-1.52,1.2-3.21,1.92-5.07.49-1.29,1.01-2.57,1.53-3.85,2.11-5.1,4.49-10.08,7.1-14.91,7.19-13.28,16.15-25.4,26.25-35.58ZM154.81,586.55c-10.79,2.07-22.63,3.1-34.41,2.96h0c-11.71-.14-22.63-.2-32.76-.21-7.88,0-15.28.04-22.2.12h0c-.09,0-.17-.02-.25-.05-.27-.13-.38-.46-.25-.74,4.06-8.42,11.12-11.63,20.66-13.26,13.93-2.37,28.47-5.44,43.63-9.2,13-3.23,27.94-9.3,37.32-18.67,12.23-12.22,18.28-27,20.59-43.85,1.53-11.17,2.05-21.46,1.56-30.86-1.29-24.95-1.33-47.07-.89-77.09.46-30.73,11.01-56.98,31.65-78.75,8.44-8.91,16.53-16.32,24.26-22.23,0,0,0,0,.01,0,2.88-2.21,5.75-4.36,8.61-6.46.05-.04.1-.08.15-.11,2.95-2.17,5.89-4.28,8.82-6.33,0,0,0,0,.01,0,4.95-3.47,10.76-7.86,17.43-13.17,9.9-7.88,18.92-15.41,27.06-22.59,3.66-3.23,9.16-8.39,16.51-15.49,4.15-4,9.03-9.64,12-12.99,5.85-6.62,9.46-13.95,10.83-22,.43-2.55.66-7.54.67-14.99.01-8.11.47-15.16,1.38-21.16.1-.65-.21-1.29-.78-1.61-5.35-3.03-9.05-7.54-11.11-13.53-2.73-7.94-3.57-16.24-2.52-24.91.02-.16.07-.32.14-.46.26-.49.78-.76,1.3-.72.17.01.35.06.51.15,5.65,2.96,11.05,6.5,16.21,10.63,4.89,3.91,7.82,8.67,9.44,14.37.06.2.23.35.43.38.29.04.55-.16.59-.45.84-6.08,1.32-12.93,5.38-17.75,3.47-4.13,7.67-7.26,12.62-9.39.12-.05.25-.08.38-.1.02,0,.03-.01.05-.01.02,0,.04,0,.06,0,.02,0,.04,0,.06,0h0s.02,0,.04,0c.16,0,.31.03.45.08.02,0,.04.02.06.02.14.06.27.14.38.24.01.01.02.02.04.04.11.11.21.23.28.37,0,0,0,.02.01.03.07.15.12.31.14.48.86,9.39,2.37,18.36-1.84,27.13-.05.1-.08.2-.1.31-.12.66.32,1.28.97,1.4,6.22,1.13,13.93,2.39,17.62,8.03,1.67,2.55,3.35,4.36,5.06,5.42,5.81,3.61,12.09,7.23,18.84,10.84,1.92,1.02,4.1,3.2,4.12,5.85.04,6.66-4.34,12-10.93,12.24-10.8.38-22.41,3.43-32.54,7.26-4.34,1.64-4.89,4.87-4.75,9.38.35,11.69.92,20.58,1.73,26.66,2.21,16.63,3.67,30.54,4.38,41.73.92,14.58-2.32,27.7-9.72,39.37-2.81,4.44-6.17,9.39-10.06,14.86-.37.52-.53,1.16-.44,1.79.25,1.85.82,3.73,1.72,5.62.64,1.35,2.92,5.97,6.85,13.86,2.06,4.14,3.98,8.37,5.8,12.66,1.28,3.01,2.5,6.04,3.65,9.1.04.11.09.22.13.33,2.1,5.63,3.03,10.04,2.79,13.23-.56,7.53-6.28,14.22-14.07,14.38h0c-.79.02-1.55,0-2.29-.02s-1.46-.08-2.15-.16c-1.39-.15-2.68-.39-3.88-.71-.17-.05-.31-.16-.4-.3-.15-.24-.12-.54.03-.75,0,0,.01,0,.02-.01.05-.06.11-.12.18-.17,1.89-1.15,3.42-2.41,4.6-3.79,1.47-1.73,2.39-3.64,2.75-5.74.22-1.26.23-2.58.05-3.98-.06-.46-.14-.94-.25-1.41-.32-1.44-.83-2.94-1.55-4.51-.5-1.09-2.44-3.85-5.83-8.28-1.83-2.39-4.26-5.02-7.28-7.88-7.97-7.54-15.78-15.76-21.87-24.87-1.14-1.7-2.13-3.43-2.97-5.21-.42-.89-.81-1.79-1.16-2.7-.35-.91-.67-1.83-.94-2.76-.04-.12-.13-.22-.25-.27-.05-.02-.11-.03-.17-.03-.01,0-.02,0-.03,0-.1,0-.2.05-.27.12-.04.04-.07.09-.1.14-.16.38-.23.81-.2,1.3.59,10.43,5.42,20.61,12.34,28.84.21.25.23.6.05.87-1.61,2.51-2.79,4.18-3.52,5.01-8.89,10.03-14.23,15.87-16,17.52-4.39,4.09-8.83,8.56-13.32,13.42-.3.32-.29.81.01,1.12,11.99,12.22,20.23,29.11,18.5,46.46-.88,8.81-3.24,16.67-6.07,25.41-.61,1.87-1.22,3.69-1.82,5.47-.02.07-.04.13-.07.2-.65,1.9-1.3,3.75-1.94,5.53-.93,2.58-1.82,5.04-2.68,7.41-5.9,16.36-9.91,27.69-12.02,33.98-.35,1.03-.64,1.92-.88,2.68-.09.26-.16.52-.25.78-2.51,7.88-4.45,15.25-5.8,22.12-.05.23-.1.46-.14.69-1.04,5.4-1.7,11.21-.05,16.45,2.26,7.2,10.12,7.82,16.82,7.92,2.46.03,16.24.37,41.34,1.03,8.89.23,17.84,1.79,26.85,4.66,1.56.5,4.04,1.87,7.44,4.11,3.75,2.49,6.38,5.82,7.88,9.99.02.06.03.12.03.17,0,.16-.06.3-.16.41-.05.05-.11.1-.18.13-.07.03-.14.05-.22.05-3.59.05-7.21.07-10.85.07-13.34.01-26.85-.21-39.17-.21-2.24,0-4.44,0-6.59.03-3.39.03-22.59.11-57.6.25h0c-1.91.01-5.64-.35-7.54-1.17-9.7-4.16-8.12-19.65-7.09-27.54,1.68-12.95,5.8-37.09,5.67-55.34-.03-4.69-.66-9.1-1.86-13.24-.13-.44-.27-.88-.41-1.32-.39-1.19-.81-2.36-1.3-3.5-.29-.69-.6-1.36-.93-2.03-1.31-2.68-2.9-5.23-4.78-7.64-1.41-1.81-2.98-3.55-4.71-5.21-.02-.02-.05-.04-.08-.06-.08-.04-.17-.04-.24-.01-.08.03-.14.08-.18.16-8.11,17.59-17.05,34.91-25.94,52.23-4.53,8.83-10.22,17.8-17.05,26.9-2.86,3.82-6.27,6.74-9.36,10.04-1.49,1.59-2.8,2.86-3.95,3.83-13,10.95-27.66,18-43.99,21.13ZM341.89,709.72s0,.05-.02.08c-.01.03-.03.05-.05.08-.02.03-.03.05-.05.08-.02.02-.04.03-.07.04-.03.02-.06.05-.1.06,0,0,0,0,0,0-.05.02-.11.03-.17.03h-20.8s-.02,0-.04,0c-.1,0-.19-.03-.28-.08-.16-.08-.3-.22-.36-.41l-3.78-11.61c-.08-.22-.29-.37-.53-.35-.15.01-.62.02-1.4.03-.47,0-1.05.01-1.75.01-.46,0-.98,0-1.54,0-.85,0-1.81,0-2.88.01-1.07,0-2.26,0-3.56,0-1.74,0-3.27,0-4.6,0-4,0-6.18-.01-6.54-.04-.23-.02-.45.13-.53.35l-3.74,11.62c-.02.07-.06.14-.1.2-.04.06-.1.11-.15.16-.12.09-.26.14-.41.14l-20.8.08c-.06,0-.12-.01-.17-.03,0,0,0,0,0,0-.04-.01-.07-.04-.1-.06-.02-.02-.05-.03-.06-.04-.02-.02-.04-.05-.05-.08-.02-.03-.04-.05-.05-.08-.01-.02-.01-.05-.02-.08,0-.04-.02-.07-.02-.11,0,0,0,0,0-.01,0-.06.01-.12.03-.17,0,0,0,0,0,0l25.58-68.94c.13-.34.46-.57.82-.58,3.61-.08,7.22-.12,10.83-.13h0c3.61,0,7.22.02,10.83.09.36,0,.69.24.82.58l25.83,68.85s0,0,0,0c.02.05.03.11.03.17,0,0,0,0,0,.01,0,.04-.01.08-.02.11ZM188.64,702.9h0s0,0,0,0c0,0,0,0,0,0-.04-.06-.04-.12-.02-.18,0,0,0,0,0-.01,0-.03.03-.04.05-.06.01-.02.02-.05.04-.06,0,0,0,0,.01,0,.05-.03.12-.05.18-.02,6.99,2.42,14.38,2.84,21.39,3.99,8.65,1.42,13.62,5.2,19.16,11.29h0s.07.11.07.17c0,0,0,0,0,.01,0,.04-.02.06-.04.1-.01.03-.02.07-.05.09,0,0,0,0,0,.01-.05.04-.11.07-.18.07-3.09.1-6.08.21-8.95.34-13.59.6-24.15-4.65-31.66-15.74ZM213.6,737.66c-1.24-.41-2.45-.9-3.62-1.47-1.76-.85-3.45-1.87-5.07-3.07-.54-.4-1.07-.82-1.59-1.25-1.04-.87-2.06-1.82-3.04-2.85-.49-.51-.97-1.05-1.44-1.6-.04-.05-.06-.12-.06-.18,0,0,0,0,0,0,0-.03.03-.05.04-.08.01-.03.02-.06.04-.08,0,0,0,0,0,0,.05-.04.11-.06.18-.06.49.05,1.05.27,1.7.66,2.04,1.23,4.51,1.78,7.18,1.9,5.32.24,11.4-1.23,16.26-2.41.49-.12.96-.23,1.42-.35,1.21-.29,2.39-.52,3.56-.67,3.51-.47,6.84-.33,10,.43.53.13,1.05.27,1.57.43,2.07.64,4.06,1.55,5.98,2.73,1.44.89,2.83,1.93,4.19,3.12.06.05.09.12.11.19,0,0,.01.01.01.02,0,.01,0,.02,0,.03,0,.03,0,.05,0,.08,0,.03,0,.05-.01.08,0,.02-.02.05-.03.07-.01.03-.02.05-.04.07,0,0,0,.02-.02.03,0,0-.02,0-.02.01-.05.05-.11.09-.19.11-2.23.49-4.52,1-6.87,1.54-1.18.27-2.47.64-3.81,1.04-1.34.4-2.74.84-4.15,1.25-.7.21-1.41.41-2.11.6-2.1.57-4.15,1.03-5.99,1.19-.73.06-1.46.1-2.18.13-.72.02-1.43.03-2.13.01-.7-.01-1.39-.05-2.08-.1-1.37-.11-2.71-.29-4.01-.55s-2.58-.6-3.82-1.01ZM235.84,758.85c-6.24-.32-11.17-2.32-16.04-5.17,0,0,0,0,0,0-.06-.04-.11-.09-.14-.15,0-.02-.02-.03-.02-.05-.02-.05-.04-.11-.04-.16,0-.01,0-.02,0-.03,0,0,0,0,0-.01,0-.03.01-.05.02-.08,0-.03.01-.05.03-.08,0,0,0,0,0-.01,0,0,.02-.01.02-.02.03-.05.07-.09.12-.12.02-.01.03-.02.05-.03.06-.03.13-.05.2-.04,0,0,0,0,0,0h0c2.69.15,5.45-.29,8.28-1.34,4.49-1.67,11.16-4.48,20-8.43.87-.39,1.77-.74,2.69-1.04.46-.15.93-.29,1.4-.42.94-.26,1.91-.47,2.88-.63.49-.08.98-.15,1.47-.21.99-.11,1.98-.18,2.98-.19,1-.01,2,.03,3,.12,2.99.28,5.95,1.03,8.7,2.32,1.49.69,3.7,1.64,6.64,2.85.07.03.13.08.18.13.01.02.02.03.04.05.03.04.05.09.07.14,0,.01.01.02.02.03,0,.02,0,.03,0,.05,0,.03,0,.07,0,.1,0,.03,0,.07-.02.1,0,.02,0,.03,0,.05,0,.01-.02.02-.02.03-.02.05-.05.09-.09.12-.02.02-.03.03-.04.05-.06.04-.12.08-.2.1l-2.3.5c-.58.13-1.15.31-1.7.54-1.53.65-5.67,2.63-12.41,5.94-4.83,2.38-10,3.93-15.5,4.63-1.1.14-2.21.25-3.34.32-2.25.15-4.56.16-6.92.04ZM243.84,773.51c-.08-.03-.13-.08-.17-.15-.01-.02-.01-.04-.02-.07,0-.04-.03-.07-.03-.11,0-.02.02-.02.02-.04,0-.01,0-.03,0-.04.01-.04.05-.06.07-.09.02-.02.02-.04.04-.05.06-.05.14-.07.22-.07h0c6.4.58,13.33-2.54,18.55-5.88,2.13-1.36,6.64-4.33,13.55-8.9,7.8-5.17,17.85-6.3,27.34-3.39,3.59,1.1,5.95,1.88,7.1,2.34,0,0,0,0,0,0,.06.02.11.06.15.1.02.02.03.04.05.06.02.03.04.05.06.08,0,0,0,0,0,.01.02.03.02.07.03.11,0,.03.02.05.02.08,0,.03,0,.05-.01.08,0,.04,0,.08-.02.11,0,0,0,0,0,.01-.01.03-.03.05-.05.08-.01.02-.02.05-.04.07-.04.04-.09.08-.14.11,0,0,0,0,0,0-5.37,2.6-11.14,6.16-17.33,10.67-4.41,3.21-10.05,5.57-16.92,7.07-10.92,2.39-21.74,1.66-32.46-2.2ZM281.63,789.88c-1.37-.23-2.49-.55-3.34-.97,0,0,0,0,0,0-.04-.02-.08-.05-.11-.09,0,0,0,0,0,0,0,0,0,0,0,0-.06-.07-.08-.16-.08-.25,0,0,0,0,0-.01,0-.04.01-.08.03-.12.02-.04.05-.08.09-.12,0,0,1.26-.15,3.78-.43,1.07-.12,2.25-.42,3.56-.9,10.01-3.65,15.88-9.74,24.95-17.71,6.49-5.71,15.87-8.43,24.48-6.68,2.51.51,5.25,1.17,8.2,1.99.06.02.12.05.16.09.01.01.02.03.03.04.03.03.06.06.08.1,0,0,0,0,.01.01,0,.02,0,.04.01.06,0,.03.02.06.02.09,0,.03,0,.06,0,.09,0,.02,0,.04,0,.06,0,0,0,.01,0,.02-.01.04-.04.08-.06.12,0,.01-.01.03-.03.04-.04.05-.09.08-.15.11-2.45,1.1-4.47,2.1-6.36,3.84-5.12,4.74-10.07,9.63-16.36,14.15-11.37,8.17-25.66,8.69-38.91,6.47ZM317.06,800.1s0,0,0,0c-.08,0-.15-.05-.22-.09-.02-.01-.03-.02-.04-.04-.1-.1-.16-.23-.15-.38,0,0,0,0,0,0,0-.08.04-.15.09-.21.01-.02.02-.03.04-.05.05-.06.12-.1.19-.13,0,0,0,0,0,0h0c7-2.11,12.96-6.02,17.88-11.71,7.45-8.62,18.36-19.29,30.68-18.7,4.03.19,8.16.97,12.39,2.32.1.03.17.1.22.17,0,0,.01,0,.02.01,0,0,0,.01,0,.02.02.03.02.06.03.09,0,.03.02.05.02.08,0,.02,0,.05,0,.07,0,.03,0,.06-.01.1,0,0,0,.01,0,.02,0,0-.01.01-.01.02-.03.09-.09.17-.17.22-4.89,3.06-9.71,8.2-17.6,16.23-4.13,4.2-9.09,7.23-14.9,9.09-9.29,2.97-18.78,3.93-28.47,2.88ZM388.77,802.72c-10.1,3.74-21.1,5.2-32.99,4.37,0,0,0,0,0,0-.09,0-.16-.04-.23-.09-.02-.01-.03-.02-.05-.04-.06-.06-.11-.12-.14-.2,0,0,0,0,0,0,0-.03,0-.05,0-.08,0-.03-.02-.07-.01-.1,0,0,0,0,0,0,0-.08.04-.16.09-.23.01-.02.02-.03.04-.05.05-.06.12-.11.2-.14,0,0,0,0,0,0l3.17-1.04c.24-.08.47-.18.69-.3,7.95-4.49,12.81-9.79,19.27-16.79,3.03-3.29,5.4-5.57,7.12-6.84,6.4-4.71,13.77-6.5,22.12-5.35,5.63.77,11.7,1.56,18.21,2.36h0c.06,0,.12.03.17.06.01,0,.03.02.04.03.03.03.06.06.08.09,0,0,.02.01.02.02,0,.01,0,.03.01.04.01.02.02.05.02.08,0,.03,0,.05,0,.08,0,.01,0,.02,0,.04,0,0,0,.02-.01.03,0,.04-.02.08-.04.12,0,.01-.01.03-.02.04-.03.05-.08.09-.13.12-7.19,3.73-12.57,8.22-18,12.8-.32.27-.68.49-1.07.64-3.27,1.31-6.44,3.25-9.53,5.83-1.66,1.39-4.67,2.89-9.02,4.5ZM398.29,814.18h0c-.09,0-.17-.05-.23-.1-.01-.01-.03-.02-.04-.03-.06-.06-.1-.13-.12-.21,0,0,0,0,0-.01,0-.02,0-.05,0-.07,0-.03,0-.05,0-.07,0,0,0,0,0-.01.01-.08.05-.16.1-.22.01-.01.02-.02.04-.04.06-.06.13-.11.22-.13.33-.07.65-.16.98-.24,1.48-.37,2.94-.85,4.38-1.44.19-.08.39-.15.58-.24,8.13-3.49,15.56-10.16,21.05-16.63.52-.61,1.09-1.23,1.71-1.87,0,0,0,0,0,0,.89-.91,1.89-1.84,2.98-2.8.12-.1.24-.21.36-.31,1.1-.95,2.3-1.91,3.6-2.9.71-.54,1.43-1.02,2.15-1.47.84-.53,1.69-1,2.55-1.41.03-.01.06-.03.09-.04,6.99-3.28,14.32-2.72,22.32-1.28.29.05.49.18.6.39.17.31.11.57-.18.77-.29.2-.58.43-.87.65-.23.18-.46.35-.69.54-1.26,1.03-2.56,2.26-3.88,3.71-4.74,5.19-8.56,9.45-12.56,12.96-1.28,1.12-2.59,2.16-3.95,3.13-1.93,1.38-3.96,2.62-6.21,3.72-1.26.61-2.58,1.18-3.98,1.71-9.81,3.71-20.13,5.04-30.96,3.97ZM444,821.14c-1.28.1-2.5.04-3.65-.17h0c-.06-.01-.11-.03-.15-.06-.01,0-.02-.02-.03-.03-.03-.03-.06-.05-.08-.09,0,0,0,0,0-.01,0-.02-.01-.04-.02-.05-.01-.03-.02-.05-.03-.08,0-.03,0-.06,0-.08,0-.02,0-.04,0-.06,0,0,0,0,0-.01,0-.04.03-.07.05-.11,0-.01.01-.03.02-.04.03-.04.07-.08.12-.11,6.52-3.83,11.32-8.09,16.32-14.35,7.91-9.89,13.87-18.92,27.54-20.53,3.02-.35,7.95.72,11.91,1.24,0,0,0,0,0,0,.09.01.16.06.21.11,0,0,0,0,.01,0,0,0,0,0,0,0,.05.07.08.15.08.24,0,0,0,.01,0,.02,0,0,0,0,0,.01-.01.09-.05.17-.12.22-6.18,5.21-11.9,13.69-16.59,18.32-9.42,9.3-21.29,14.5-35.58,15.61ZM504.36,818.09c-1.4,1.07-2.85,2.04-4.32,2.91-.17.1-.34.2-.51.3-6.87,3.94-14.46,5.77-22.8,5.48-.06,0-.12-.02-.17-.05-.01,0-.03-.02-.04-.03-.03-.02-.07-.05-.09-.08,0,0-.01,0-.02-.02,0-.01-.01-.03-.02-.04-.01-.02-.02-.05-.03-.08,0-.03-.01-.05-.01-.08,0-.02,0-.03,0-.05,0,0,0-.02,0-.02,0-.04.02-.08.03-.11,0-.02,0-.03.02-.05.03-.05.07-.09.12-.13h0s0,0,0,0c.89-.61,1.72-1.24,2.53-1.88,8.47-6.71,13.13-15.24,19.74-24.47,2.57-3.59,5.51-6.33,8.81-8.25.34-.19.68-.37,1.02-.55.65-.34,1.31-.64,1.99-.92,5.05-2.05,10.85-2.4,17.42-1.02h0s0,0,0,0c.08.02.15.07.21.13,0,0,.02,0,.02.01,0,0,0,.01,0,.02.02.02.03.05.04.07.01.02.02.04.03.07,0,.02,0,.05,0,.07,0,.03,0,.06,0,.09,0,0,0,.01,0,.02,0,0,0,.01-.01.02-.02.08-.06.15-.13.21,0,0,0,0,0,0h0c-1.31,1.08-2.41,2.18-3.31,3.31-.37.46-.71.91-1.02,1.37-4.7,7.22-8.39,13.21-13.64,18.58-1.75,1.79-3.68,3.51-5.87,5.18ZM540.6,819.18c-.07.06-.14.12-.21.19-8.35,7.27-18.38,10.34-29.32,12.18-.06.01-.12,0-.18-.02-.02,0-.03-.01-.04-.02-.04-.02-.08-.05-.11-.08,0,0-.02-.01-.02-.02,0,0,0-.01,0-.02-.02-.02-.02-.05-.04-.07-.01-.02-.02-.05-.03-.07,0,0,0-.01,0-.02,0-.01,0-.02,0-.03,0-.05,0-.09.01-.14,0-.02,0-.03.02-.05.02-.05.06-.11.11-.15h0s0,0,0,0h0c.68-.54,1.35-1.1,2-1.68,4.37-3.86,8.16-8.47,11.36-13.84,3-5.03,6.75-12.85,11.83-18.1.34-.35.68-.69,1.04-1.01.58-.54,1.17-1.03,1.75-1.5,1.69-1.35,3.41-2.43,5.17-3.24,5.22-2.42,10.81-2.66,17.15-1.79,0,0,0,0,0,0,.05,0,.09.02.13.05,0,0,0,0,0,0,.01,0,.02.02.04.03.02.02.05.04.06.06.01.02.02.04.03.07,0,.02.02.04.03.06,0,.03,0,.06,0,.1,0,.01,0,.03,0,.04,0,0,0,0,0,0,0,.05-.02.1-.05.14-.93,1.5-1.83,3.01-2.74,4.52-.91,1.5-1.8,3-2.69,4.5-.98,1.66-1.95,3.31-2.91,4.97-3.14,5.47-7.28,10.45-12.4,14.93ZM577.05,819.34h0c-.08.93-.32,1.81-.7,2.62-.36.77-.85,1.48-1.43,2.11-.03.04-.06.08-.1.12-2.1,2.22-5.46,3.51-9.1,3.2-5.84-.5-10.23-4.92-9.8-9.86.05-.62.18-1.22.37-1.79.05-.14.11-.28.17-.42.06-.14.1-.28.17-.42.17-.37.39-.73.62-1.07.16-.24.33-.47.52-.7,2.06-2.49,5.61-3.99,9.5-3.66,5.84.5,10.23,4.92,9.8,9.86ZM620.98,831.17s0,.01,0,.02c0,.02-.02.05-.03.07-.01.02-.02.05-.03.07,0,0,0,.01,0,.02,0,0-.02.01-.03.02-.03.03-.07.06-.11.08-.02,0-.03.01-.04.02-.06.02-.11.03-.18.02,0,0,0,0,0,0-10.78-1.9-20.65-5-28.83-12.23-5.11-4.51-9.22-9.51-12.32-15.01-2.61-4.64-5.32-9.26-8.12-13.86-.03-.04-.04-.09-.05-.14,0,0,0,0,0,0,0-.01,0-.03,0-.04,0-.03,0-.06,0-.09,0-.02.02-.04.03-.06,0-.02.02-.04.03-.06.02-.03.05-.05.07-.07.01,0,.02-.02.03-.03,0,0,0,0,0,0,.04-.02.09-.04.14-.05,9.1-1.18,16.63-.04,23.7,6.62,5.5,5.17,9.43,13.63,12.55,18.95,3.58,6.12,7.94,11.25,13.06,15.41h0s0,0,0,0c.05.04.08.09.1.14,0,.02,0,.03.01.05.01.04.02.09.01.14,0,.01,0,.02,0,.03ZM654.45,826.6s-.02,0-.02.02c-.04.04-.08.07-.12.09-.02.01-.03.03-.05.03-.07.03-.14.04-.21.04,0,0,0,0,0,0h0c-16.46-.4-31.24-8.9-39.79-23.19-1.67-2.8-3.92-6.22-6.75-10.25-1.01-1.43-2.09-2.61-3.25-3.54-.05-.04-.08-.08-.11-.13,0,0,0-.02,0-.03-.02-.04-.03-.09-.04-.13,0,0,0,0,0,0,0-.02,0-.04,0-.06,0-.03,0-.07.01-.1,0-.03.03-.06.04-.08.01-.02.01-.04.03-.06,0,0,0,0,0,0,.03-.03.06-.06.1-.08,0,0,.02-.02.03-.02.05-.03.1-.04.16-.05,2.22-.16,4.91-.29,8.07-.4,13.61-.48,21.08,11.05,27.63,21.01,4.5,6.84,8.54,11.48,14.21,16.19,0,0,0,0,0,0,.06.05.1.11.13.17,0,.02.01.04.02.06.02.05.03.1.03.15,0,0,0,.02,0,.03,0,.02-.01.04-.02.07,0,.04-.01.07-.02.11-.01.03-.03.06-.05.09-.01.02-.02.04-.03.06ZM690.94,821.07s0,0-.01.01c-.02.03-.05.06-.08.08-.01.01-.02.02-.03.03-.04.03-.09.05-.15.06,0,0,0,0,0,0h0c-1.14.2-2.34.25-3.61.15-14.14-1.15-25.85-6.35-35.14-15.58-4.62-4.6-10.25-13.01-16.34-18.19,0,0,0,0,0,0-.06-.06-.11-.13-.12-.22,0,0,0,0,0-.01,0,0,0-.01,0-.02,0-.09.02-.17.08-.24,0,0,0,0,0,0,0,0,0,0,.01,0,.05-.06.12-.1.21-.11,3.92-.5,8.8-1.54,11.79-1.18,13.51,1.65,19.37,10.61,27.16,20.42,4.92,6.21,9.66,10.45,16.09,14.26,0,0,0,0,0,0,.05.03.08.07.11.11,0,.01.01.03.02.04.02.03.04.07.04.11,0,0,0,0,0,.01,0,.02,0,.04,0,.06,0,.03,0,.05,0,.08,0,.03-.02.05-.03.08,0,.02,0,.04-.02.05ZM725.06,816.31s0,0,0,.01c-.02.03-.05.06-.07.08-.01.01-.02.02-.03.03-.04.03-.09.05-.15.06,0,0,0,0,0,0h0c-1.12.22-2.3.29-3.55.21-13.95-.89-25.57-5.8-34.88-14.72-4.63-4.45-10.32-12.63-16.41-17.63,0,0,0,0,0,0-.06-.05-.11-.13-.12-.21,0,0,0,0,0-.01,0,0,0-.01,0-.02,0-.09.02-.17.07-.23,0,0,0,0,0,0,0,0,0,0,.01,0,.05-.06.12-.1.2-.12,3.85-.56,8.64-1.67,11.59-1.37,13.33,1.39,19.26,10.11,27.11,19.63,4.96,6.03,9.7,10.12,16.1,13.76,0,0,0,0,0,0,.05.03.09.06.12.1,0,.01.01.03.02.04.02.03.04.07.04.1,0,0,0,0,0,.01,0,.02,0,.04,0,.05,0,.03,0,.05,0,.08,0,.03-.01.05-.02.08,0,.02,0,.04-.02.05ZM757.55,811.54s0,0,0,.01c-.02.03-.05.06-.08.09,0,0-.02.02-.03.03-.04.03-.09.05-.14.06h0c-1.09.21-2.25.27-3.47.2-13.62-.91-24.95-5.74-34.02-14.49-4.51-4.36-10.04-12.37-15.97-17.27-.06-.05-.11-.13-.12-.21,0,0,0,0,0-.01,0,0,0-.01,0-.02,0-.08.02-.16.07-.23,0,0,0,0,0,0,0,0,0,0,.01,0,.05-.06.12-.1.2-.11,0,0,0,0,0,0,3.76-.54,8.44-1.6,11.32-1.3,13.02,1.4,18.78,9.93,26.41,19.26,4.82,5.9,9.44,9.91,15.67,13.49.05.03.09.06.12.11,0,.01.01.03.02.04.02.03.04.07.04.1,0,0,0,0,0,.01,0,.02,0,.04,0,.05,0,.03,0,.05,0,.08,0,.03-.02.05-.03.08,0,.02,0,.03-.02.05ZM790.96,806.35s-.01.01-.02.02c-.02.04-.05.07-.08.09-.01.01-.02.02-.04.03-.05.03-.1.05-.16.06-12.36,1.33-23.44-1.88-33.24-9.62-3.82-3.01-7.24-6.42-10.27-10.21-4.28-5.38-6.35-8.35-10.64-11.22,0,0,0,0,0,0-.07-.05-.12-.11-.17-.17-.01-.02-.01-.04-.02-.06-.03-.05-.05-.11-.06-.16,0,0,0-.01,0-.02,0-.03,0-.05,0-.08,0-.04,0-.08,0-.13,0-.04.03-.07.04-.11.01-.03.02-.05.03-.08,0,0,.01,0,.02-.02.03-.05.07-.08.12-.11.02-.01.03-.03.05-.05.06-.04.13-.06.21-.07,0,0,.01,0,.02,0,6.22-.79,11.14-1.68,16.38-.02,3.06.98,5.77,2.31,8.12,4.02.07.05.14.11.21.17.86.64,1.67,1.32,2.44,2.05.05.05.09.1.14.14.36.36.72.72,1.06,1.1,10.76,12,15.42,18.8,25.69,23.95.05.03.1.07.13.11.01.01.02.03.02.04.02.04.03.07.04.11,0,.01,0,.02.01.03,0,.01,0,.02,0,.03,0,.02,0,.05,0,.07,0,.03-.01.05-.02.08,0,0,0,.02,0,.03ZM759.48,640.51c0-.26.21-.47.47-.47l19.98-.03h0c.26,0,.47.21.47.47l.12,69.12c0,.26-.21.47-.47.47l-19.98.03h0c-.26,0-.47-.21-.47-.47l-.12-69.12ZM824.59,799.37s0,.04-.01.06c0,0,0,0-.01.01-.03.06-.07.12-.12.16-.25.19-.56.31-.95.34-10.61.89-20.71-1.38-30.28-6.82-5.32-3.03-11.12-8.51-14.95-12.97-3.44-3.99-6.81-7.21-10.12-9.65-.05-.04-.09-.09-.11-.16,0-.01,0-.02,0-.03-.01-.04,0-.08,0-.12,0-.04,0-.08.03-.12,0,0,0-.02,0-.03.04-.05.09-.09.16-.12,10.92-3.64,20.38-1.45,28.39,6.58.16.16.59.6,1.31,1.33.01.01.03.03.04.04.28.28.6.61.96.98.49.5,1.05,1.08,1.69,1.73,1.6,1.64,3.67,3.77,6.23,6.39,1.03,1.06,2.1,2.05,3.2,3.01.55.48,1.12.95,1.69,1.4,3.79,3.02,7.99,5.52,12.61,7.45.07.03.12.07.16.12,0,0,.01,0,.01.01.01.02.02.04.03.05.02.03.03.05.04.08,0,.03.01.06.02.08,0,.03,0,.05,0,.08,0,.03-.01.06-.02.09ZM863.23,709.75s0,.05-.02.07c-.01.03-.04.06-.06.09-.02.02-.03.05-.05.07-.02.02-.05.03-.07.05-.03.02-.06.04-.09.06,0,0,0,0,0,0-.06.02-.11.03-.17.03l-20.79-.02c-.15,0-.3-.05-.41-.14-.12-.09-.21-.21-.26-.35l-3.77-11.61c-.04-.11-.11-.2-.2-.27-.09-.06-.21-.09-.32-.09-.48.03-4.2.05-11.14.06h0c-6.94,0-10.65,0-11.14-.04-.23-.02-.45.13-.53.35l-3.74,11.62c-.09.29-.36.49-.67.49l-20.79.06s0,0,0,0c-.06,0-.11-.01-.17-.03,0,0,0,0,0,0-.04-.01-.07-.04-.1-.06-.02-.01-.05-.03-.06-.04-.02-.02-.03-.05-.05-.07-.02-.03-.04-.05-.05-.08,0-.02-.01-.05-.02-.07-.01-.04-.02-.08-.02-.12,0,0,0,0,0,0,0-.05.01-.11.03-.16,0,0,0,0,0-.01l25.63-68.89c.13-.34.46-.57.82-.58,3.61-.08,7.21-.12,10.83-.12,3.61,0,7.22.03,10.82.1.18,0,.35.06.5.16.14.1.26.24.32.41l25.77,68.84s0,0,0,.01c.02.05.03.11.03.16,0,0,0,0,0,0,0,.04-.01.08-.02.12ZM858.91,788.64s0,.03-.01.05c0,0,0,0,0,0-.11.29-.33.48-.67.55-15.17,3.02-29.01.03-41.54-8.96-6.52-4.68-11.29-11.58-17.93-15.65,0,0,0,0,0,0-.06-.03-.1-.08-.13-.13,0-.01-.01-.03-.02-.05-.02-.04-.04-.08-.05-.13,0,0,0,0,0-.01,0-.02,0-.04,0-.06,0-.03,0-.07,0-.1,0-.03.02-.06.03-.09,0-.02.01-.04.02-.06,0,0,0,0,.01-.01.02-.04.06-.07.09-.09.01-.01.03-.03.04-.04.05-.03.1-.05.16-.06,0,0,0,0,.01,0h0c2.14-.36,4.33-.79,6.56-1.29,8.56-1.93,18.04,1.01,23.98,6.64,10.37,9.84,17.19,16.15,29.08,18.92,0,0,0,0,0,0,.02,0,.03,0,.05.01.02,0,.04.03.06.04.03.02.06.03.09.05.02.02.04.04.06.07.02.02.04.05.06.07.02.03.02.06.03.09,0,.03.02.06.02.09,0,.03,0,.07,0,.1,0,.02,0,.05,0,.07ZM888.92,773.18s0,.01,0,.02c0,.09-.04.18-.09.26-.01.02-.03.04-.04.06-.06.08-.14.14-.24.18-12.04,4.55-26.79,2.29-37.98-3.21-1-.49-2.43-1.31-4.28-2.46-.46-.29-.95-.59-1.47-.92-1.55-.98-3.33-2.15-5.35-3.5-4.28-2.86-8.04-5.08-11.27-6.66,0,0,0,0,0,0-.05-.03-.1-.06-.14-.11,0,0-.01-.02-.02-.03-.03-.04-.05-.08-.07-.13,0,0,0,0,0,0,0-.02,0-.04,0-.07,0-.04-.01-.07-.01-.11,0-.04.02-.07.03-.1,0-.02,0-.04.02-.06,0,0,0,0,0,0,.02-.04.05-.08.09-.12,0,0,.01-.02.02-.03.04-.04.1-.07.15-.09,0,0,0,0,0,0,4.91-1.51,9.4-3.94,14.31-3.71,7.68.35,14.06,2.37,19.15,6.08,3.26,2.37,6.08,4.58,8.73,6.5,2.65,1.93,5.13,3.58,7.71,4.86,1.55.76,3.14,1.39,4.82,1.86.56.16,1.13.29,1.72.41,1.17.24,2.39.4,3.67.48h0c.11,0,.2.05.28.1.02.01.04.03.06.04.07.06.13.13.16.22,0,0,.01.01.01.02,0,0,0,0,0,0,.01.04.01.08.02.11,0,.04.02.08.02.12,0,0,0,0,0,0ZM911.87,753.74s0,.03-.01.04c-.03.05-.07.09-.11.12-3.27,2.27-6.87,3.7-10.8,4.29-2.06.31-4.06.48-6.01.53-.73.02-1.46,0-2.18-.01-4.4-.12-8.59-.91-12.7-2.29-2.35-.79-4.68-1.78-7.01-2.94-.05-.02-.09-.04-.14-.07-.59-.3-1.19-.61-1.78-.93-.73-.4-1.43-.77-2.08-1.13-1.56-.85-2.92-1.58-4.18-2.23-.02-.01-.04-.02-.07-.03-2.31-1.19-4.28-2.07-6.46-2.78h0s0,0,0,0c-.11-.03-.19-.11-.25-.19,0,0-.02,0-.02-.02,0,0,0-.02,0-.02-.02-.03-.03-.06-.04-.1,0-.03-.02-.06-.03-.09,0-.03,0-.06,0-.09,0-.04,0-.07.01-.1,0,0,0-.02,0-.02,0,0,.01-.01.02-.02.04-.1.1-.19.19-.25,0,0,0,0,0,0,9.65-6.26,19.45-6.15,29.15-1.48.65.31,1.29.64,1.94,1,1.35.74,2.7,1.46,4.05,2.14,5.85,2.97,11.73,5.34,18.2,6.1h0c.06,0,.11.03.16.05.01,0,.02.02.03.03.03.02.06.05.09.08,0,0,0,0,0,0,.01.02.01.04.02.05.01.03.03.05.04.08,0,.03,0,.06,0,.09,0,.02,0,.04,0,.06,0,0,0,0,0,.01,0,.04-.02.08-.04.12ZM933.3,727.35c-6.91,8.12-15.63,12.04-26.15,11.74-.7-.02-1.42-.06-2.14-.12-4.8-.39-11.1-2.88-15.72-3.92-2.3-.52-4.54-1.01-6.73-1.48-.08-.02-.14-.06-.19-.11,0,0-.02,0-.02-.01,0,0,0-.02-.02-.03-.02-.02-.03-.05-.04-.07-.01-.02-.02-.04-.03-.07,0-.02,0-.05-.01-.07,0-.03,0-.05,0-.08,0-.01,0-.02,0-.03,0,0,.01-.01.01-.02.02-.07.05-.14.11-.19,0,0,0,0,0,0,5.27-4.69,11.23-6.99,17.86-6.9,2.21.03,4.5.33,6.86.89,4.94,1.17,11.54,2.9,17.25,2.63,2.63-.13,5.07-.67,7.07-1.89.63-.38,1.19-.6,1.66-.65h0s0,0,0,0c.07,0,.13.01.17.05,0,0,0,0,0,0,.03.02.03.05.04.08.01.03.04.04.04.07,0,0,0,0,0,0,0,.06-.01.13-.05.18ZM943.2,702.75c-7.33,11.05-17.73,16.34-31.19,15.88-2.85-.1-5.8-.18-8.86-.25,0,0,0,0,0,0-.06,0-.12-.02-.17-.07,0,0,0,0,0-.01-.03-.02-.03-.06-.05-.09-.01-.03-.04-.06-.04-.1,0,0,0,0,0-.01,0-.06.03-.12.07-.17,0,0,0,0,0,0h0c5.43-6.08,10.31-9.87,18.86-11.35,6.93-1.2,14.24-1.69,21.14-4.15,0,0,0,0,0,0,.06-.02.13,0,.18.02,0,0,.01,0,.02,0,.02.01.02.04.04.06.02.02.04.03.05.05,0,0,0,.01,0,.02.02.06.01.12-.02.18,0,0,0,0,0,0ZM1038.99,424.34s-.02,0-.02.01c-.02.03-.05.04-.09.06-.03.02-.06.04-.09.04,0,0-.01.01-.02.01-.06,0-.11-.01-.16-.04,0,0,0,0,0,0h0c-.66-.41-1.35-.79-2.03-1.19-8.74-5.06-18.83-8.86-28.67-11.5-1.54-.42-3.09-.82-4.64-1.2-.06-.01-.12-.03-.17-.05-11.26-2.8-22.64-4.83-34.16-6.08-5.46-.59-10.42-.92-14.87-.99-7.37-.12-12.33-.36-14.89-.71-.08-.01-.16,0-.23.02-.03,0-.05.02-.08.04-.04.02-.09.03-.12.06-.04.03-.06.06-.09.1-.02.02-.05.04-.06.07-.01.02-.02.05-.03.07-.02.05-.04.09-.05.14,0,.04,0,.08,0,.12,0,.03,0,.07,0,.1.02.07.05.13.09.19,0,0,0,0,0,.01,2.14,3.03,4.06,5.92,5.76,8.67,4.83,7.82,11.02,18.1,18.56,30.83,1.1,1.85,1.61,4.82,1.52,8.92-.1,4.87-.39,12.7-.87,23.49-.23,5.24-1.67,31.27-4.34,78.09-.35,6.08-.5,10.69-.47,13.83.07,6.13-.09,10.71-.48,13.76-.47,3.72-2.5,6.31-6.09,7.77-.24.1-.51.15-.78.16l-64.75.1s0,0,0,0c-.05,0-.09,0-.14-.02-.01,0-.02-.01-.03-.01-.03-.01-.06-.03-.09-.05-.03-.02-.05-.03-.08-.05-.02-.02-.04-.05-.06-.07-.02-.03-.04-.05-.05-.08-.01-.03-.02-.05-.03-.08,0-.03-.02-.07-.02-.1,0,0,0-.02,0-.03,0-.04,0-.09.02-.13,0,0,0,0,0,0,.93-3.3,2.59-5.85,4.98-7.66,5.19-3.93,10.66-6.13,16.41-6.6,10.65-.87,16.14-1.33,16.48-1.36,10.47-.95,13.46-6.66,14.26-16.46,1.35-16.5,2.2-35.42,2.55-56.75.16-9.68-.06-18.59-.65-26.73-.29-3.99-1.29-8.46-2.99-13.43-1.21-3.51-3.36-7.57-6.45-12.17-8.24-12.25-17.25-23.35-27.02-33.3-6.58-6.71-13.76-12.4-21.53-17.08-.06-.04-.13-.04-.19-.03-.02,0-.03.01-.05.02-.04.02-.07.04-.1.07-.03.03-.05.06-.06.1,0,.02-.01.04-.01.05,0,.06,0,.13.05.18,0,0,0,0,0,0,8.83,12.15,16.64,24.58,23.45,37.31,4.72,8.82,4.3,19.48.88,28.91-1.69,4.66-5.11,13.15-10.27,25.48-9.4,22.44-19.24,45.92-29.51,70.43-4.16,9.93-6.76,16.69-7.79,20.28-.93,3.26-1.95,5.36-3.04,6.3-2.2,1.89-4.29,2.83-6.27,2.83-22.97.04-43.65.17-62.04.38,0,0,0,0,0,0-.09,0-.19-.01-.27-.04,0,0-.01,0-.02-.01-.06-.02-.11-.06-.16-.09-.04-.03-.08-.05-.12-.08-.04-.04-.06-.08-.09-.12-.03-.04-.07-.08-.09-.13-.02-.04-.02-.09-.04-.13-.02-.06-.04-.12-.04-.18,0,0,0-.02,0-.02,0-.09.01-.18.04-.27,0,0,0,0,0,0,3.02-8.94,11.47-11.67,20.03-12.83,4.96-.67,11.99-1.72,21.1-3.13,5.88-.92,10.21-3.85,12.99-8.78,1.93-3.43,3.31-6.15,4.13-8.15,6.21-15.11,12.89-29.93,18.68-45.14.84-2.2,2.66-6.84,5.45-13.91,3.33-8.45,6.75-17.97,10.26-28.54,1.84-5.54,1.94-11.08.31-16.61-2.36-8.02-8.83-16.8-15.21-24.22-5.92-6.89-12.31-12.85-19.18-17.87-.17-.13-.35-.24-.53-.37-.81-.59-1.62-1.17-2.45-1.73-1.52-1.03-3.14-1.98-4.82-2.85-7.29-3.77-15.88-6.17-24.06-8.35-5.19-1.39-10.25-3.07-15.12-5.03-2.01-.81-3.98-1.68-5.92-2.58-.41-.19-.83-.37-1.24-.57-30.33-14.56-51.51-40.98-48.76-78.78,1.09-14.91,4.74-27.6,9.38-43.74,1.2-4.17,3.57-11.63,7.1-22.38,4.92-14.95,9.72-31.43,12.83-47.77,1.8-9.47.44-16.32-7.38-20.51-1.12-.6-2.37-1.14-3.76-1.64-6.59-2.33-13.19-3.49-19.8-3.48-1.85,0-3.5-.27-4.94-1.06-.48-.26-.94-.59-1.37-.98-.43-.39-.48-1.05-.11-1.5,4.54-5.43,16.76-7.25,22.24-9.24,2.45-.89,3.55-1.57,5.19-3.97,5.91-8.68,14.35-12.03,25.34-10.06,2.47.45,4.7,1.2,6.69,2.28,3.32,1.79,5.97,4.45,7.96,7.99,5.47,9.76,1.69,24.58-.75,35.11-6.25,26.95-10.2,41.95-13.78,63.06-.71,4.17-1.05,8.21-1.02,12.11.09,11.34,4.93,19.31,12.8,23.47,4.72,2.5,10.53,3.62,17.07,3.28,5.28-.27,10.18-.81,14.7-1.6,19.68-3.45,39.1-7.69,57.79-8.81,5.18-.31,12.17-.37,20.98-.16,10.48.25,21.07,1.78,31.77,4.6,7.82,2.06,15.35,4.99,22.51,8.67,25.58,13.12,46.42,35.7,58.66,61.59,10.33,21.86,15.62,46.07,16.79,70.03,0,0,0,0,0,0,0,.06-.01.11-.04.16Z"/>
  </g>
</svg>