<?xml version="1.0" encoding="UTF-8"?>
<svg fill="#e8718b" id="Layer_2" data-name="Layer 2" xmlns="http://www.w3.org/2000/svg" viewBox="0 0 200 262.3">
  <defs>
    <style>
      .cls-1 {
        fill:#e8718b;
      }
    </style>
  </defs>
  <g id="Layer_1-2" data-name="Layer 1">
    <g>
      <path class="cls-1" d="M199.72,0H0v145.76c.41,0,.41.41.41.69.14,4.01.56,8.01,1.26,11.96.55,3.76,1.25,7.23,2.22,10.85,2.09,7.65,4.87,15.02,8.49,22.11,2.08,4.31,4.45,8.35,6.95,12.24,2.78,4.17,5.7,8.07,8.76,11.96,2.77,3.47,5.7,6.81,8.76,10.02,2.37,2.36,4.73,4.73,7.24,7.09,4.31,4.03,8.76,7.79,13.62,11.13,5.85,4.03,11.97,7.65,18.22,10.71,4.88,2.37,9.95,4.33,15.17,5.84,1.94.69,4.03,1.11,6.12,1.39.27.14.55.28.55.55h4.17c.28-.83,1.26-.41,1.81-.41,4.59-.84,9.18-2.23,13.49-4.04,5.7-2.36,11.27-5,16.55-8.2,4.18-2.5,8.21-5.15,11.96-8.07,3.2-2.36,5.99-4.73,9.04-7.65,3.06-2.92,5.99-5.84,8.91-8.76,5.11-5.52,9.85-11.38,14.18-17.52,3.48-4.87,6.54-10.02,9.32-15.44,2.23-4.45,4.17-8.9,5.84-13.49,1.53-4.17,2.78-8.49,3.89-12.8.98-3.61,1.53-7.37,1.95-11.12.42-2.92.7-5.71.7-8.63-.14-.41,0-.69.42-.69V.28l-.28-.28ZM76.91,248.88c-6.91-3.32-13.39-7.33-19.47-12.03-6.12-4.73-11.96-10.01-17.25-15.71-5.42-5.71-10.29-11.83-14.74-18.36-3.34-5.01-6.54-10.29-9.18-15.86-3.89-8.06-6.82-16.55-8.62-25.45-.98-4.59-1.53-9.18-1.81-13.77-.14-2.36-.14-4.59-.14-6.95V7.65c0-1.49,0-1.65,1.18-1.66.2-.01.46-.01.77-.01h92.21l92.07.14q1.67,0,1.67,1.67v137.27c-.14,4.73-.56,9.46-1.53,14.19-.7,3.89-1.67,7.78-2.79,11.68-2.22,7.51-5.28,14.74-9.04,21.56-3.33,5.97-7.09,11.68-11.26,17.1-2.5,3.34-5.29,6.68-8.21,9.74-2.78,3.06-5.7,6.12-8.76,8.9-4.59,4.31-9.45,8.34-14.74,11.96-2.64,1.81-5.28,3.62-8.07,5.15-5.14,2.92-10.43,5.56-15.99,7.65-3.62,1.39-7.37,2.5-11.27,3.19-2.36.28-4.86.14-7.23-.55-6.02-1.64-11.9-3.82-17.38-6.54l-.42-.21Z"/>
      <path class="cls-1" d="M32.4,36.86c-.83.28-1.53.14-2.22-.28-.42.28-.84.69-1.11.97,1.11.98,2.78,1.12,4.03.56,0-.14.14-.14.14-.14.97-.7,1.25-1.95.55-2.92-.41-.56-1.25-.83-1.94-.83-.28-.14-.84-.14-.84-.56.28-.97,1.53-.7,2.09-.28.28-.42.69-.69.97-1.11-.97-.84-2.36-.98-3.47-.56q-.14,0-.14.42c-.98.69-1.26,1.95-.56,2.92.56.69,1.53.69,2.36.83.56,0,.56.84.14.98Z"/>
      <path class="cls-1" d="M41.44,37.97v-1.39h-2.78v-1.11h2.64v-1.39h-2.78v-1.12h2.92v-1.53h-4.45c-.14,2.18-.14,4.36,0,6.54h4.45Z"/>
      <path class="cls-1" d="M45.76,37.97v-6.54h-1.67c.14,2.23.14,4.31,0,6.54h1.67Z"/>
      <path class="cls-1" d="M49.93,37.97h1.67v-5.15h1.67v-1.39h-4.87v1.39h1.53c.14,1.67,0,3.48,0,5.15Z"/>
      <rect class="cls-1" x="67.17" y="20.72" width="3.9" height="3.06"/>
      <rect class="cls-1" x="72.74" y="20.72" width="3.89" height="3.06"/>
      <path class="cls-1" d="M64.81,44.09h14.05l4.45-4.45v-9.74c-1.53-1.53-3.06-2.92-4.45-4.45h-14.05l-4.45,4.45v9.74c1.53,1.53,3.06,2.92,4.45,4.45ZM64.67,31.29c.97-.97,1.67-1.81,2.78-2.64h9.04l2.5,2.5v6.96l-2.5,2.5h-9.32l-2.5-2.5v-6.82Z"/>
      <polygon class="cls-1" points="98.19 40.89 94.99 40.89 94.99 36.3 105.28 36.3 105.28 32.82 94.99 32.82 94.99 28.79 106.95 28.79 106.95 30.74 111.26 30.74 111.26 25.31 87.34 25.31 87.34 28.93 90.54 28.93 90.54 40.89 87.34 40.89 87.34 44.23 98.19 44.23 98.19 40.89"/>
      <path class="cls-1" d="M118.63,28.79v11.82h-3.2v3.48h20.73c1.11-.98,2.08-2.09,3.2-3.2v-4.73c-.58-.44-1.1-.95-1.53-1.53.55-.42.97-.97,1.53-1.39v-4.59l-3.2-3.2h-20.87c.14,1.12.14,2.23.14,3.34h3.2ZM123.08,28.79h10.02c.97-.14,1.39.84,1.94,1.25v1.67c-.41.28-.83.7-1.25,1.11h-10.71v-4.03ZM123.22,36.3h10.57c.42.28.84.7,1.25,1.11v2.09l-1.25,1.25h-10.71l.14-4.45Z"/>
      <rect class="cls-1" x="147.84" y="31.43" width="1.67" height="6.54"/>
      <path class="cls-1" d="M154.38,35.61l-1.25,2.5h1.66c.56-1.11,1.12-2.37,1.67-3.48.42-.83.28-1.81-.28-2.5-1.11-1.25-3.75-.7-3.89,1.11v.56c0,1.11.97,1.95,2.09,1.81ZM154.24,32.82c.97-.41,1.25,1.12.42,1.39-.84.28-1.12-1.11-.42-1.39Z"/>
      <path class="cls-1" d="M159.38,36.86c.28.55.7.97,1.26,1.11,1.25.42,2.36-.28,2.78-1.39.14-1.25.14-2.36,0-3.62q-.14-.14-.14-.27c-.42-1.12-1.67-1.53-2.78-1.12-.98.28-1.53,1.12-1.26,2.09-.13.97,0,2.08.14,3.2ZM161.05,32.82c0-.14.14-.14.28-.14.28.14.56.42.56.7,0,.97.14,1.95,0,2.92-.01.15-.13.27-.28.28-.42.14-.7,0-.84-.28v-2.36c0-.42-.13-.84.28-1.12Z"/>
      <path class="cls-1" d="M168.28,38.11h1.53v-.84h.56v-1.39c-.69,0-.56-.55-.56-.97h-1.39v.83h-.97c.7-1.53,1.53-2.92,2.23-4.31h-1.67c-.7,1.25-1.25,2.64-1.95,3.9-.28.55-.28,1.11-.42,1.94h2.64v.84Z"/>
      <path class="cls-1" d="M108.9,215.71c0-1.11-.56-2.08-.7-3.2.84-2.08,1.81-4.17,2.5-6.39.56-1.67.98-3.48,1.4-5.29,1.11-.55,2.08-1.39,2.92-2.22-1.26-.28-2.37-.56-3.62-.42-2.92-2.92-6.4-5.29-10.01-7.23-.28-1.26-.84-2.51-1.39-3.62-.81,1.07-1.38,2.31-1.67,3.62-3.62,1.94-6.96,4.31-10.02,7.23-.83,0-1.8,0-2.64.14-.28,0-.69,0-.83.28.83.83,1.8,1.53,2.78,2.22.42,1.39.55,2.78.97,4.17.7,2.51,1.67,5.01,2.78,7.51-.27.98-.55,2.09-.69,3.2,1.11-.42,2.22-.97,3.2-1.81h11.82c.97.84,2.08,1.4,3.2,1.81Z"/>
      <path class="cls-1" d="M115.99,237.97c19.19-8.77,27.54-31.3,18.78-50.49-3.48-7.65-9.32-13.77-16.69-17.8,1.53-1.11,3.06-2.51,4.59-3.76,4.03,2.51,7.78,5.57,10.84,9.32,11.27,13.35,13.36,32.27,5.43,47.84,12.65-10.98,23.64-24.33,30.6-39.63-2.93-6.68-7.24-12.66-12.52-17.67-6.4-6.12-13.77-10.98-21.98-14.32.84-1.67,1.53-3.34,2.23-5.15,7.93,3.48,15.16,7.93,21.56,13.63,5.42,4.73,9.87,10.43,13.49,16.69,2.36-6.4,3.89-13.07,4.73-19.89.55-4.86.69-9.87.55-14.88-12.1-5.7-24.89-10.01-38.11-12.65v-5.71c13.22,2.51,26.01,6.68,38.25,12.24v-28.79c-12.65-.41-25.45-.69-38.11-.83v-5.56c12.76.13,25.51.41,38.25.83v-24.2c-12.66,1.81-25.45,2.92-38.25,3.75v-5.7c12.79-.83,25.55-2.08,38.25-3.75v-27.68c-7.23,2.64-14.6,5.01-21.97,7.23-10.02,2.92-20.17,5.43-30.46,7.65-1.53.28-2.92.98-3.9,2.23-.82,1.63-1.11,3.48-.83,5.28v19.06c0,.14-.14.41-.14.69-.56,2.51-2.92,4.04-5.29,3.48-1.8-.7-3.05-2.5-3.19-4.59-1.12-7.09-1.81-14.19-2.65-21.28-.28-1.81-1.8-3.06-3.61-3.2h-7.24c-1.94.28-3.33,1.81-3.33,3.76-1.81,0-3.76.14-5.57.55-1.11.42-1.94,1.12-2.22,2.23-.56,1.81-.7,3.61-.7,5.42,1.81-.28,3.48-.28,5.29-.28-.28,4.18-.98,8.21-1.95,12.24-.69,2.09-1.81,4.59-4.17,5.15-.28.14-.56.14-.84.14-2.36,0-4.31-1.95-4.31-4.31v-20.59c0-1.53-.27-2.92-1.11-4.17-1.11-1.11-2.5-1.81-4.03-1.95-8.76-1.8-17.39-3.75-25.87-6.12-9.32-2.5-18.5-5.42-27.68-8.76,0,9.32,0,18.5-.14,27.82,12.71,1.66,25.46,2.91,38.25,3.75v5.57c-12.8-.7-25.59-1.95-38.25-3.62v24.06c12.8-.28,25.45-.7,38.25-.83v5.56c-12.66.14-25.45.42-38.11.83v28.79c12.24-5.56,25.04-9.73,38.25-12.24v5.84c-13.08,2.65-26.01,6.96-38.11,12.66-.14,5.84.14,11.82.97,17.66.84,5.85,2.37,11.55,4.31,17.11,3.2-5.42,7.1-10.43,11.55-14.74,6.81-6.54,14.74-11.68,23.5-15.44.7,1.81,1.53,3.48,2.37,5.15-6.26,2.64-12.24,6.12-17.53,10.43-7.37,5.7-13.07,13.07-16.96,21.55,6.95,15.16,17.8,28.52,30.45,39.36-.97-1.94-1.8-4.17-2.5-6.25-6.26-19.34,1.67-40.34,19.05-50.77,1.53,1.25,3.06,2.65,4.73,3.76-17.8,9.46-25.17,31.15-16.69,49.51,8.77,19.19,31.3,27.54,50.49,18.78ZM81.5,140.89c12.16-2.37,24.67-2.37,36.83,0-.04.09-.08.19-.12.28-1.8,4.17-4.31,7.78-7.51,10.84-2.5,2.37-5.28,4.45-8.2,6.12-1.11.56-2.5,1.26-3.76.7-3.42-1.5-6.53-3.62-9.18-6.26-3.44-3.17-6.2-6.88-8.01-11.15.04-.22-.05-.42-.05-.53ZM79.27,100.28c13.63-.14,27.4-.14,41.03,0v20.02c-13.65-1.25-27.38-1.25-41.03,0,.14-6.67.14-13.35,0-20.02ZM87.06,223.22c.42-1.25.84-2.36.97-3.61-1.11.55-2.36,1.11-3.33,1.94-3.62-1.11-7.24-1.94-10.99-2.22-2.64-4.31-4.31-9.32-4.59-14.33,3.16-2.05,5.97-4.58,8.34-7.51,1.12.14,2.23,0,3.34-.41-.69-.7-1.67-1.4-2.5-1.95.14-4.17-.14-8.35-1.11-12.38,3.33-3.48,7.37-6.26,11.82-7.93,2.78,1.81,5.84,3.2,9.04,4.31.55,1.12.69,2.65,1.67,3.76.69-1.25,1.11-2.5,1.53-3.76,3.47-1.11,6.81-2.64,9.87-4.59,4.31,1.53,8.21,3.9,11.41,7.1-.98,4.45-1.39,8.9-1.26,13.49-.97.55-1.8,1.39-2.5,2.22,1.11.28,2.23.28,3.34.28,2.78,3.34,5.98,6.12,9.6,8.49-.42,4.73-1.95,9.18-4.45,13.21-4.18.28-8.21,1.11-12.24,2.36-.98-.83-2.09-1.53-3.34-1.94.28,1.11.55,2.36.97,3.47-2.08,3.06-3.75,6.26-5,9.74-.14.28-.56.14-.84.28-5.01.97-10.01.83-14.88-.56-1.25-3.34-2.78-6.54-4.87-9.46Z"/>
    </g>
  </g>
</svg>