<?xml version="1.0" encoding="UTF-8"?>
<svg fill="#e8718b" id="Layer_2" data-name="Layer 2" xmlns="http://www.w3.org/2000/svg" viewBox="0 0 159.4 310.23">
  <defs>
    <style>
      .cls-1 {
        fill:#e8718b;
      }
    </style>
  </defs>
  <g id="LOGO">
    <g>
      <path class="cls-1" d="M136.98,263.16l-15.77,23.84s8.28-2.91,12.3-9c4-6.08,3.47-14.84,3.47-14.84Z"/>
      <path class="cls-1" d="M151.07,270.34c4.64-5.62,5-14.4,5-14.4l-18.18,22.06s8.55-2,13.18-7.66Z"/>
      <path class="cls-1" d="M21.51,278l-18.18-22.06s.36,8.78,5,14.4c4.67,5.66,13.18,7.66,13.18,7.66Z"/>
      <path class="cls-1" d="M38.2,287l-15.78-23.84s-.53,8.76,3.47,14.84c4.02,6.09,12.31,9,12.31,9Z"/>
      <path class="cls-1" d="M30.59,289.31c-7.29,0-14.29,5.3-14.29,5.3h28.58s-7-5.3-14.29-5.3Z"/>
      <path class="cls-1" d="M50.69,293.19c6.52,3.25,15.15,1.63,15.15,1.63l-25.58-12.76s3.9,7.87,10.43,11.13Z"/>
      <path class="cls-1" d="M86.29,21v4.5c.64-.18,1.31-.18,1.95,0,1.76.5,3.76,2.31,3.76,5.96,0,2.44-1.48,6-2.67,8.94l-.45,1.09h4.75c1.34-3.27,2.76-6.9,2.76-10,0-5-2.75-9-7-10.21-1.01-.3-2.06-.39-3.1-.28Z"/>
      <path class="cls-1" d="M145.11,280.86c-7.28,0-14.29,5.3-14.29,5.3h28.58s-7-5.3-14.29-5.3Z"/>
      <path class="cls-1" d="M28.58,286.16s-7-5.3-14.29-5.3-14.29,5.3-14.29,5.3h28.58Z"/>
      <path class="cls-1" d="M55.62,41.5l-.82-1.5c-1.65-3.08-3.35-6.27-3.35-8.73.24-3.49,3.27-6.13,6.76-5.89.49.03.98.12,1.45.27.5-1.4,1.21-2.71,2.1-3.9-5.47-2.22-11.69.41-13.91,5.88-.47,1.16-.74,2.39-.78,3.64,0,3.37,1.76,6.85,3.55,10.23h5Z"/>
      <path class="cls-1" d="M107.68,29.83c.15.47.24.96.27,1.46,0,2.46-1.7,5.65-3.34,8.73-.27.5-.53,1-.79,1.5h5c1.8-3.38,3.56-6.86,3.56-10.23-.1-5.61-4.6-10.15-10.21-10.29-1.55-.08-3.09.19-4.53.77.89,1.19,1.6,2.5,2.11,3.9,3.34-1.04,6.89.82,7.93,4.16Z"/>
      <path class="cls-1" d="M70.51,41.49c-.14-.36-.29-.72-.45-1.09-1.19-2.9-2.67-6.5-2.67-8.94,0-3.65,2-5.5,3.77-6,.65-.19,1.35-.19,2,0v-4.46c-1.04-.13-2.1-.05-3.11.23-4.25,1.17-7,5.18-7,10.21,0,3.13,1.42,6.76,2.77,10l4.69.05Z"/>
      <rect class="cls-1" x="52.42" y="54.72" width="54.56" height="4.39"/>
      <rect class="cls-1" x="52.42" y="45.9" width="54.56" height="4.39"/>
      <path class="cls-1" d="M41.36,299.11c-6.52,3.25-10.42,11.12-10.42,11.12l25.58-12.75s-8.64-1.62-15.16,1.63Z"/>
      <rect class="cls-1" x="77.5" y="20.92" width="4.39" height="20.57"/>
      <polygon class="cls-1" points="77.5 16.54 81.89 16.54 81.89 10.46 87.97 10.46 87.97 6.07 81.89 6.07 81.89 0 77.5 0 77.5 6.07 71.43 6.07 71.43 10.46 77.5 10.46 77.5 16.54"/>
      <path class="cls-1" d="M96.86,299.11c-6.52-3.25-15.16-1.63-15.16-1.63l25.58,12.75s-3.9-7.87-10.42-11.12Z"/>
      <path class="cls-1" d="M108.72,293.18c6.52-3.25,10.42-11.12,10.42-11.12l-25.58,12.76s8.64,1.62,15.16-1.64Z"/>
      <path class="cls-1" d="M62.55,299.11c-6.52,3.25-10.43,11.12-10.43,11.12l25.58-12.75s-8.63-1.62-15.15,1.63Z"/>
      <path class="cls-1" d="M118,299.11c-6.52-3.25-15.15-1.63-15.15-1.63l25.58,12.75s-3.9-7.87-10.43-11.12Z"/>
      <path class="cls-1" d="M114.52,294.61h28.58s-7-5.3-14.29-5.3-14.29,5.3-14.29,5.3Z"/>
      <path class="cls-1" d="M87.9,98.14c.26-.16.48-.37.64-.62v-1.38c-.13-.28-.35-.51-.62-.66-.31-.17-.65-.25-1-.24h-1.86v3.16l1.94-.02c.32.01.63-.08.9-.24Z"/>
      <path class="cls-1" d="M88.66,103.09v-1.71c-.15-.27-.38-.48-.66-.61-.31-.16-.65-.24-1-.24h-1.94v3.47h1.86c.39.02.78-.07,1.13-.26.26-.16.47-.38.61-.65Z"/>
      <path class="cls-1" d="M157.52,203.87V67.9H2v135.94c-.01,42.95,34.8,77.77,77.74,77.78,42.95,0,77.77-34.8,77.78-77.75ZM27.39,255.14c-13.46-13.68-21-32.11-21-51.3V72.29h21v182.85ZM52.44,271.91c-7.54-3.04-14.53-7.31-20.67-12.64V72.29h20.67v199.62ZM77.51,277.15c-7.03-.21-13.99-1.43-20.67-3.63V72.29h20.67v204.86ZM142.63,93h3.47l3.76,8h.36v-8h2.87v13.2h-3.47l-3.79-8h-.34v8h-2.86v-13.2ZM147.46,121.57c.34.2.73.29,1.12.28.39.01.77-.08,1.11-.27.28-.14.49-.37.62-.65v-2.58c-.13-.27-.35-.5-.62-.63-.34-.19-.72-.29-1.11-.28-.35,0-.69.08-1,.24-.22.11-.42.26-.58.44h-2.74v-7.49h8.76v2.37h-6v3.06c.33-.26.7-.46,1.09-.6.48-.15.97-.22,1.47-.21.43,0,.86.06,1.27.18.35.11.69.26,1,.46.29.18.54.39.76.65.19.22.35.46.48.72v4.62c-.35.55-.82,1.01-1.39,1.34-.42.24-.86.44-1.32.58-.57.17-1.16.25-1.76.24-.59.01-1.19-.07-1.76-.23-.46-.14-.9-.33-1.31-.58-.33-.19-.63-.43-.89-.71-.19-.2-.37-.41-.52-.64l-.04-1.95h2.73v1c.14.27.36.49.63.64ZM142.12,112.8v8.74c-.16.3-.35.58-.57.84-.29.32-.63.6-1,.82-.43.27-.89.48-1.38.62-.58.17-1.18.25-1.79.24-.6,0-1.19-.07-1.76-.24-.46-.14-.9-.34-1.32-.58-.33-.2-.62-.44-.89-.71-.19-.2-.36-.41-.51-.63v-1.9h2.66v.89c.13.27.35.5.62.64.7.37,1.55.37,2.25,0,.27-.14.49-.37.62-.64v-2.6c-.34.26-.73.46-1.14.59-.48.16-.99.23-1.5.22-.44.01-.88-.06-1.3-.18-.35-.11-.69-.27-1-.46-.28-.17-.54-.39-.76-.64-.2-.22-.36-.47-.48-.74v-4.61c.14-.22.31-.42.49-.61.26-.28.56-.52.89-.72.42-.25.86-.45,1.33-.59.57-.18,1.17-.26,1.77-.25.61-.01,1.21.08,1.79.26.48.15.95.36,1.38.63.37.22.71.5,1,.81.24.24.44.51.6.8ZM140.71,104.5v1.7h-2.79l-.87-3.52h-3.88l-.88,3.52h-2.49v-1.7l3.2-11.5h4.48l3.23,11.5ZM112.61,113.17v-1.77l2.43-.82h2.47v11.24h1.86v1.94h-6.74v-1.94h1.94v-8.85l-1.96.2ZM117.66,106.57c-.68.02-1.35-.08-2-.28-.52-.17-1.01-.4-1.46-.71-.38-.25-.72-.57-1-.93-.23-.31-.43-.65-.59-1v-8c.16-.35.36-.69.59-1,.28-.36.62-.68,1-.93.45-.3.94-.54,1.46-.71.65-.2,1.32-.3,2-.28.66-.01,1.31.08,1.94.27.5.16.98.39,1.42.67.38.23.71.52,1,.86.21.27.41.56.57.86v2.16h-3v-1.35c-.14-.33-.38-.6-.68-.79-.78-.45-1.73-.45-2.51,0-.3.2-.53.47-.69.79v6.79c.16.32.4.58.7.77.39.24.84.36,1.3.34.45.02.9-.09,1.29-.32.29-.18.52-.43.69-.72v-2h-1.89l.04-2.14h4.75v5c-.17.29-.36.57-.57.84-.29.33-.63.62-1,.86-.44.29-.92.52-1.42.68-.63.19-1.28.28-1.94.27ZM121.5,118.73c.18-.32.39-.61.64-.88.33-.36.71-.66,1.13-.89-.37-.18-.71-.42-1-.71-.2-.18-.37-.38-.52-.61v-3.31c.15-.2.31-.38.48-.56.26-.26.55-.49.87-.68.41-.24.84-.43,1.3-.56.57-.17,1.16-.25,1.76-.24.6-.01,1.2.07,1.78.25.46.14.89.33,1.3.57.31.19.6.41.86.67.17.18.32.36.47.55v3.31c-.16.21-.33.4-.52.59-.3.28-.64.53-1,.73.43.22.81.52,1.14.87.3.26.57.57.79.9v2.79c-.15.3-.34.57-.56.82-.29.32-.63.6-1,.82-.43.27-.89.48-1.37.63-1.68.49-3.49.26-5-.63-.37-.22-.71-.5-1-.82-.22-.25-.41-.52-.55-.82v-2.79ZM124.8,106.2v-13.2h3.07v13.2h-3.07ZM127.79,75.45h3.07v10.91h4.08v2.28h-7.15v-13.19ZM122.68,75.45l3.22,11.49v1.7h-2.78l-.87-3.52h-3.88l-.89,3.52h-2.48v-1.7l3.22-11.49h4.46ZM105.07,75.48h2.77l2.1,4.52h.36l2.17-4.55h2.53v1.7l-3.51,6.31v5.18h-3.07l-.04-5.46-3.31-6v-1.7ZM104,93h3v10.92h4.16v2.28h-7.16v-13.2ZM108.96,116.64v1.43c-.1.22-.27.4-.48.53-.3.19-.65.28-1,.26-.35.02-.7-.07-1-.26-.21-.13-.38-.31-.48-.53v-1.43c.11-.22.28-.4.48-.53.3-.18.65-.27,1-.26.35-.02.7.07,1,.26.2.13.37.31.48.53ZM93.61,78c.16-.35.36-.69.6-1,.28-.36.62-.68,1-.93.45-.3.94-.54,1.46-.71,1.28-.37,2.64-.37,3.92,0,.52.17,1.01.41,1.46.71.38.25.72.57,1,.93.24.31.44.64.59,1v8c-.15.36-.35.69-.59,1-.28.36-.62.68-1,.93-.45.3-.94.54-1.46.71-1.28.37-2.64.37-3.92,0-.52-.17-1.01-.41-1.46-.71-.38-.25-.72-.57-1-.93-.24-.31-.44-.65-.6-1v-8ZM93.79,106.2l-.04-13.2h7.88v2.33h-4.84v3h4.5v2.28h-4.5v3.31h5v2.28h-8ZM101.65,122.07v1.69h-2.78l-.87-3.52h-3.86l-.89,3.52h-2.48v-1.69s3.23-11.49,3.23-11.49h4.43l3.22,11.49ZM82,75.41h5.56c.81-.01,1.61.19,2.31.59.7.39,1.27.98,1.65,1.69v3.82c-.24.42-.55.81-.9,1.14-.37.33-.79.59-1.25.77l2.28,3.48v1.7h-2.39l-2.91-4.8h-1.28v4.84h-3.07v-13.23ZM82,93h5.6c.46,0,.92.06,1.36.21.38.12.74.3,1.07.52.3.21.58.45.82.72.22.25.41.52.57.81v2.8c-.17.26-.37.5-.6.72-.25.24-.53.45-.83.62.29.16.58.35.84.56.28.22.51.5.7.8v3.2c-.17.29-.36.55-.58.8-.25.28-.53.52-.85.72-.34.22-.71.4-1.1.52-.45.14-.93.21-1.4.2h-5.6v-13.2ZM82,110.6h7.71v2.27h-4.65v3.13h4.43v2.26h-4.43v5.5h-3.07v-13.16ZM81.9,277.15v-146.62c39.64,1.19,71.17,33.65,71.22,73.31-.05,39.66-31.58,72.11-71.22,73.31Z"/>
      <polygon class="cls-1" points="120.48 78.09 120.12 78.09 118.91 82.84 121.64 82.84 120.48 78.09"/>
      <path class="cls-1" d="M125.02,121.52c.34.19.72.29,1.11.28.4.01.79-.08,1.13-.28.27-.14.49-.37.62-.64v-2c-.13-.28-.35-.5-.62-.65-.35-.19-.74-.29-1.13-.28-.39-.01-.77.09-1.11.28-.27.15-.49.37-.63.65v2c.14.27.36.5.63.64Z"/>
      <path class="cls-1" d="M125.05,115.77c.68.36,1.49.36,2.17,0,.24-.13.44-.32.6-.54v-1.91c-.16-.22-.36-.39-.6-.52-.68-.36-1.49-.36-2.17,0-.23.13-.44.31-.6.52v1.91c.16.22.36.41.6.54Z"/>
      <path class="cls-1" d="M87.9,81.43c.29-.15.52-.38.67-.67v-2.12c-.15-.29-.39-.53-.68-.67-.31-.16-.65-.24-1-.24h-1.83v3.87l1.84.07c.35,0,.69-.08,1-.24Z"/>
      <polygon class="cls-1" points="96.29 113.21 95.93 113.21 94.72 118 97.46 118 96.29 113.21"/>
      <path class="cls-1" d="M138.5,112.83c-.7-.39-1.55-.39-2.25,0-.27.14-.49.37-.62.64v2.67c.14.28.36.5.63.64.35.2.75.3,1.16.29.31,0,.62-.05.91-.16.28-.11.54-.26.79-.43v-3.01c-.13-.27-.35-.5-.62-.64Z"/>
      <path class="cls-1" d="M97.37,86.19c.78.45,1.73.45,2.51,0,.29-.2.53-.46.68-.78v-6.81c-.15-.33-.38-.6-.68-.8-.78-.45-1.73-.45-2.51,0-.3.2-.54.48-.69.8v6.81c.16.31.4.58.69.78Z"/>
      <polygon class="cls-1" points="135.36 95.65 135 95.65 133.79 100.4 136.53 100.4 135.36 95.65"/>
    </g>
  </g>
</svg>