<?xml version="1.0" encoding="UTF-8"?>
<svg fill="#e8718b" id="Layer_2" data-name="Layer 2" xmlns="http://www.w3.org/2000/svg" viewBox="0 0 316.23 316.23">
  <defs>
    <style>
      .cls-1 {
        fill-rule: evenodd;
      }
    </style>
  </defs>
  <g id="Layer_1-2" data-name="Layer 1">
    <g>
      <path class="cls-1" d="M123.36,72.32s.06.08.09.11c.2.2.46.31.74.38.04.01.09.02.13.03.18.04.37.07.55.11,0,0,0,0,0,0,.1.02.2.05.31.07,5.67,1.46,11.28,3.14,16.81,5.04l2.15.77s.02-.01.03-.02c0,0,.02,0,.03,0,0,0-.01,0-.02,0,.21.07.41.14.62.21,3,1.07,5.98,2.2,8.94,3.4.09.04.19.08.27.12.75.38,1.55.64,2.38.8.15.03.3.06.46.08.12.02.23.03.35.04.3.03.6.05.91.04,0,0,.02,0,.02,0,0,0,.01,0,.02,0,.07,0,.13,0,.19,0,.19,0,.38,0,.57-.03,1.17-.08,2.32-.39,3.37-.93.05-.03.1-.05.15-.08,9.39-3.81,19.02-7,28.83-9.53.01,0,.02,0,.04,0,0,0,0,0,0,0,.07-.02.14-.03.21-.05.08-.01.16-.03.25-.04.08-.02.16-.02.23-.05.79-.18,1.36-.56,1.13-2.46,0,0-3.15-10.02-7.58-16.73-.07-.1-.13-.22-.19-.32-.1-.13-.19-.25-.28-.37-.38-.55-.78-1.08-1.18-1.56-7.67-4.24-16.54-5.36-25.75-5.58,0,0-.01,0-.02,0,0,0-.01,0-.02,0-9.23.23-18.09,1.34-25.85,5.58-.97,1.2-1.9,2.62-2.76,4.12-.04.07-.08.13-.12.2-.1.17-.19.36-.29.53-.15.28-.31.56-.46.85-.6,1.13-1.18,2.27-1.7,3.44-.01,0-.02.01-.03.02-.38.87-.75,1.72-1.09,2.54,0,0,0,0,0,0-.04.09-.07.17-.1.26-.35.83-.67,1.63-.96,2.37.01-.01.02-.02.04-.03-.26.68-.5,1.33-.7,1.9,0,.01-.01.03-.02.04-.12.34-.24.66-.34.94,0,0,0,0,0,0-.2.49-.37.99-.51,1.51-.06.18-.09.28-.09.28-.03.24-.04.45-.05.65,0,.06-.02.11-.01.17,0,0,0,0,.01-.01,0,0,0,0,0,0,0,0,0,0-.01.01,0,.47.09.79.22,1.03.03.05.06.09.09.13Z"/>
      <path class="cls-1" d="M133.62,245.1c-.85-1.04-1.69-2.09-2.52-3.15-.66-.84-1.31-1.69-1.96-2.56,0,0,0,0,.01,0-.16-.21-.32-.43-.48-.64-.88-1.18-1.74-2.37-2.6-3.53,0,0-.02-.01-.03-.02-.61-.85-1.22-1.69-1.8-2.52-.58-.83-1.15-1.66-1.72-2.49,0,0,0,0,0,0-.21-.3-.41-.59-.61-.88-.12-.18-.25-.36-.38-.55-.18-.27-.35-.52-.53-.78-1.26-1.9-2.49-3.83-3.7-5.77-.11-.18-.21-.36-.3-.51-.66-1.27-1.6-2.36-2.75-3.21-1.16-.86-2.52-1.42-3.95-1.63-.09-.01-.19-.02-.29-.03-2.01-.5-4.01-1.03-6-1.59-.06-.02-.12-.04-.18-.05,0,0,0,0,0,0-.3-.08-.61-.16-.91-.25-.01,0-.02,0-.03,0-.26-.07-.52-.15-.78-.23-.37-.11-.73-.22-1.12-.33,0,0,0,0,0,0-1.81-.53-3.61-1.08-5.41-1.66,0-.02-.02-.03-.02-.04-.36-.1-.73-.22-1.09-.32-4.48-1.47-8.91-3.07-13.28-4.82,0,0,0,0,0,0,0,0,0,0,0,0-.23-.11-.46-.21-.71-.29-.01,0-.03-.01-.04-.02-.05-.02-.09-.04-.14-.07,0,0,0,.02,0,.03,0,0,0,0,0,0,0,0,0,0,0,0,0,0,0,0,0,0-.1-.03-.2-.05-.3-.07-.04-.01-.09-.03-.13-.04-.09,0-.18.02-.27.05-.02,0-.04,0-.06.01,0,0-.01,0-.02,0-.43.11-.89.5-1.42,1.43,0,0-.03.09-.08.25-.3.53-.31.74-.37,1.16-.73,2.16-1.91,6.47-2.62,11.08-.48,2.87-.78,5.81-.66,8.35,3.72,7.97,10.28,14.07,17.64,19.64.47.33.95.66,1.43.98,3.22,2.17,6.48,4.15,9.84,5.75.04.02.08.04.12.06.21.1.41.19.62.29,1.84.86,3.73,1.59,5.67,2.19.03,0,.06.02.1.03.46.14.92.27,1.39.39.08.02.16.04.24.06,1.41.37,2.83.67,4.28.89,0,0,.02.01.02.02h.44s0,0,0,0c0,0,0,0,.01,0,.84-.18,1.66-.43,2.46-.74.05-.02.1-.04.14-.06.75-.27,1.49-.57,2.21-.91,0,0-.02,0-.03-.01,0,0,0,0,.01,0,.01,0,.02.01.04.02.2-.09.39-.19.59-.29,2.22-.97,4.36-2.09,6.41-3.38-.01,0-.02-.01-.04-.02.48-.3.95-.59,1.4-.88.58-.36,1.13-.71,1.64-1.04,1.22-.78,2.21-1.45,2.92-1.91,0,0,0,0,0,0,.57-.43.93-.65.93-.65.3-.34.52-.64.67-.9,0,0,0,0,0,0,.04-.06.05-.12.08-.18.02-.04.04-.08.05-.12.39-.97-.26-1.41-.81-2.01-.4-.5-.83-1.01-1.26-1.54Z"/>
      <path class="cls-1" d="M265.06,123.57c-2.48-7.15-5.45-13.85-9.97-19.31-.05-.06-.1-.12-.15-.17-.03-.04-.06-.07-.1-.11-.43-.51-.88-1.01-1.34-1.5-.1-.11-.21-.22-.31-.33-.15-.16-.3-.32-.46-.48-.16-.17-.31-.34-.47-.5-.13-.14-.27-.25-.42-.37-.06-.06-.11-.11-.17-.17-.03-.01-.06-.02-.09-.03-.07-.03-.16-.05-.22-.11-.21-.07-.42-.13-.62-.19-.5-.17-1.01-.33-1.54-.47-.02,0-.04-.01-.07-.02-.52-.14-1.05-.28-1.59-.4-.3-.07-.61-.15-.91-.21-.31-.07-.63-.12-.94-.19-.44-.09-.89-.17-1.33-.24-.5-.08-1.01-.15-1.52-.22-.13-.02-.26-.04-.39-.06,0,0,0,0,0,0-.26-.03-.53-.05-.79-.08-.2-.02-.41-.05-.61-.07,0,0,0,0,.01,0-.15-.02-.29-.03-.44-.05-.57-.06-1.14-.12-1.71-.17-.22-.02-.44-.05-.67-.07-.01,0-.02-.01-.03-.02-1.67-.13-3.16-.2-4.38-.24,0,0-.01,0-.02,0-1.49-.07-2.45-.07-2.82-.07h-.23c-1.63.29-1.93.89-2.01,1.49.01,0,.03.01.04.01,0,.02,0,.03,0,.05-.01,0-.02,0-.04-.01,0,.12.04.25.05.37.01.13.03.27.06.4.02.09.02.18.04.26v.65c.07,1.06.14,2.19.22,3.26.06,1.36.11,2.71.15,4.07,0,.41,0,.83,0,1.23,0,0,.01,0,.02,0h0s-.01,0-.02,0c.03.43.04.85.05,1.27,0,.14,0,.28,0,.42l-.84.25h-1.22l-2.32-.59h-3.94l-2.31-.67-2.02-2.53v-1.63l.67-1.19v-1.27l-.67-.67-.82-.37-2.09-.89v-2.23l-.66-1.93-2.01,1.93h0s-.59-1.93-.59-1.93l-.67-.6h-1.64l-2.01,1.27v.59l-.36.36-.88.83-.1.08-2.88-.6-.37-.37v.02l-.32-.32v-1.26h-.67l-.67-1.86h-4.91s-.6-.53-.6-.53l-1.33-1.12-.97,1.64v.59l-2.01,1.27h-4.91l-.67-.6v-1.26h-1.93l-2.46,2.08-.52.45-1.94,1.86-1.12-.23-1.86-.37-2.01-.67h0s-2.61-1.86-2.61-1.86l-.67-.52-.3-.16-.66-.59h-5.58l-.6.14v.03h0v-.03l-1.42.44h-2.82l-.67-1.63v-.6h-.67l-1.34.6h-1.93l-1.63-1.86h-1.34l-.67-.67-1.71-.96-.6-.3-2.61.67-.37-.08h0s0,.01,0,.01h0s-3.19-.6-3.19-.6l-.37-.37-.3-.23-2.02-.96-1.26-.45h0s0,0,0,0h0s-2.31-.82-2.31-.82v-1.26l-.67-1.34v-.59h0s-.6,0-.6,0h0s-.07,0-.07,0l-1.26,1.26-.67,2.53-1.56,1.56-.07.07h-1.34l-1.93-.96h-4.25l-3.12-1.42-1.19-.53h-1.93l-2.02,1.27-.96.67-1.04,1.12-1.56,1.71h-.67l-1.34,3.58v.59l-.67,1.27h-3.57l-1.34-1.27-1.56-1.56-.07-.07-2.61-.6h-2.31l-.67-1.93-.67-1.26-.67-4.09-.14-.23h0s-.53-.44-.53-.44h-1.93l-1.12-.89-.52-.37-2.02-.6h-1.93l-2.31,3.12h0v3.5l-1.34,1.93v1.86l-1.26,2.31-1.29,1.04c-.76.04-1.58.09-2.44.15-.02,0-.03.02-.05.03-.76.06-1.52.14-2.27.23-.59.06-1.18.12-1.77.19-2.96.37-5.87,1.02-8.71,1.93l-.45.22c-.29.23-.56.48-.82.74-.17.17-.33.36-.49.53-2.31,2.36-4.25,5.01-5.93,7.87-.68,1.14-1.32,2.31-1.91,3.5-.06.14-.12.28-.19.42-1.11,2.29-2.1,4.68-3.02,7.13-.33.88-.65,1.76-.98,2.65-.74,2.45-1.42,4.91-1.94,7.37.02-.03.04-.07.05-.1,0,.02-.01.05-.02.07,0,0,0,.02-.01.03-.5,2.16-.87,4.35-1.1,6.55,0,.03,0,.06-.01.09-.1.93-.17,1.87-.22,2.8-.02.42-.02.84-.03,1.27,0,.08,0,.16,0,.24-.02.63-.04,1.26-.04,1.9.01.34.05.69.07,1.03.03.62.07,1.24.13,1.86.02.16.04.31.06.47.09.86.22,1.71.37,2.57.01.06.01.11.02.17.07.1.15.19.22.3.63.93,1.37,1.87,2.17,2.79,0,0,0,0,0,0,.02.02.04.04.06.06.37.42.75.84,1.14,1.26.54.58,1.08,1.16,1.63,1.78,0-.04,0-.08,0-.12,0,0,.01.01.02.02,0,.02,0,.03,0,.05.18.17.37.33.55.5l.89.9s0,.01,0,.02c.72.62,1.43,1.23,2.15,1.82.28.24.55.47.81.69.6.52,1.17,1,1.71,1.42,0,0,0-.01,0-.02.17.14.34.27.5.4.24.2.48.4.71.58.16.13.32.26.46.38.29.22.55.42.79.6.33.25.63.48.85.66,0-.01,0-.03,0-.04.38.27.59.42.59.42.31.21.66.34,1.03.37,0-.01,0-.02,0-.03,0,0,0,0,.01,0,0,.01,0,.02,0,.03.77.18,1.18-.05,1.49-.45,0,0,0,0,0,0,0,0,0,0,0,0,.12-.16.23-.34.34-.54.07-.12.15-.24.23-.36,5.47-8.59,11.51-16.79,18.08-24.57.81-.83,1.43-1.82,1.85-2.9.09-.2.17-.42.23-.63.01-.04.03-.08.04-.12.21-.55.35-1.13.43-1.72h0c0-.13,0-.25,0-.38,0-.06,0-.13,0-.19.01-.22.02-.45.02-.67,0-.14,0-.27-.02-.41,0-.09,0-.17-.01-.26,0,0,0,0,0,0,0-.08-.02-.17-.04-.27-.01-.09-.01-.18-.03-.27,0-.03,0-.05,0-.08,0-.04,0-.1-.01-.15-.02-.28-.04-.57-.06-.85,0-.03,0-.06,0-.09,0-.02,0-.05,0-.08-.1-1.52-.19-3.04-.26-4.55l1.9-.58v.59l1.86,1.34,4.39,3.12v2.91l-.67,2.53v.96l1.34,2.53.67,1.27v2.89l.96,3.13,1.34,1.63.59,1.93v1.86h0s2.02,2.23,2.02,2.23l2.31.67,3.28,1.93,1.63,1.2,3.95,3.49,1.63.6.67,2.52.89.67,1.56,1.17,2.02,1.51,1.12.83v2.82l.67.67v.67l1.93.59,3.65,4.18.67.59v1.34l2.61,1.86.07.07,2.23,2.16h0s1.33.3,1.33.3l1.94.37h1.63l1.26-.67h.67l1.34,1.26,2.31,1.93.67,2.23v3.13h0s.59,4.84.59,4.84l2.02,3.19h0v.9l1.26,1.33,2.98,2.53,1.16,1.12h-.02l2.46,2.39,3.03,2.13,1.85,1.37,1.93,1.93,1.34,1.86h0s1.33,4.17,1.33,4.17l-3.01,1.17-.28.1h-1.55l-3.35.59,1.34.67,1.34.97.66.67.53.59,1.04.67.02-.02.03.02.59-.67v-.67h1.3l1.17.12,5.08.55h1.63s1.34.67,1.34.67h1.26l.67,1.26.67.6v.67l.66,1.56,1.86.44,1.12.23,1.27,1.93.67,1.86h0s.66.97.66.97l.67.59v.67l2.91,1.93h0v1.27l1.34,1.26.89.54c-1.31,1.69-2.64,3.36-4,5.01,0,0-.01,0-.02,0-.13.17-.25.32-.36.46-.13.16-.26.32-.39.48-.09.1-.19.2-.28.3-.05.05-.09.1-.14.14-.09.1-.17.19-.24.29-.04.05-.07.1-.1.15-.03.06-.05.13-.08.19,0,.01-.01.03-.02.04-.01.03-.03.06-.04.1,0,.02,0,.04,0,.05-.05.19-.06.4,0,.65.01,0,.03-.01.04-.02,0,0,0,0,0,.01,0,0,0,0-.01,0,.01.03.03.05.04.08.06.16.15.32.27.51.06.09.12.18.19.27.1.14.22.29.36.45.16.15.34.29.53.4h0c.26.18.62.43,1.05.72.29.2.6.43.95.68h0s.03-.01.04-.02c0,0,.02.01.02.02-.04.02-.08.04-.13.05,1.26.69,2.67,1.64,4.3,2.68.68.37,1.38.75,2.09,1.14.05.03.09.06.14.08.88.5,1.78.97,2.7,1.41,0,0,0,0,0,0,1.55.83,3.17,1.53,4.84,2.11.68.27,1.37.49,2.08.64.03,0,.05,0,.08-.01h.22s.06-.02.09-.04c0,0,.02,0,.02,0-.04.02-.07.04-.11.07.38-.06.75-.13,1.12-.2,1.79-.27,3.55-.68,5.28-1.23.02-.01.04-.03.06-.04.17-.05.34-.12.51-.18.31-.1.62-.2.93-.31.13-.04.26-.09.38-.14.2-.07.41-.14.61-.22,2.14-.79,4.22-1.73,6.22-2.83.04-.03.08-.07.13-.1-.04.03-.08.07-.12.1.93-.52,1.85-1.06,2.77-1.61.44-.27.89-.54,1.33-.81.24-.15.48-.3.72-.45.45-.29.9-.58,1.35-.87.32-.21.65-.43.97-.64.55-.37,1.1-.74,1.64-1.12,7.37-5.58,13.93-11.68,17.65-19.64.03-.52.04-1.06.03-1.6-.01-1.19-.1-2.45-.24-3.73-.01-.1-.02-.2-.03-.3-.05-.46-.11-.91-.18-1.37-.01-.08-.02-.16-.03-.24h0s-.02-.08-.02-.13c-1.03-6.83-3.24-13.53-3.24-13.53-1.27-2.15-2.02-1.41-3.1-1.03-8.1,3.24-16.38,6-24.8,8.26l-.32-1.23v-1.86l1.26-3.49.67-1.26-.67-1.27v-3.57h0s2.01.66,2.01.66l2.31-.66.44-.37.23-.23v-1.26l1.26-.67.67-.9.67-.66h2.89l2.02.66.67,1.57v1.26l.66,1.26,1.79,1.73.55.54,3.03-3.84.24-.29h2.91l.04-.08.26-.45v-.04l.16-.34.22-.43-.37-.29v-.02l-3.21-2.53h-.63v-.59l-2.07-.67v-.66l.67-2.23h-.01s.01-.04.01-.04l-1.93-.6v.04l-2.3-.66h0s.66-3.21.66-3.21v-2.23l2.56,1.97.3.23h0s.04.03.04.03l1.34.67.96-.23,2.07-.47,1.45-.45h.02s.04-.02.04-.02v.07s.38-.16.38-.16l1.34,1.27,1.84-.54v.04s.43-.14.43-.14l.67.67v-.05s.03.02.03.02l1.26-4.74.94-.32.25-.08.17-.06.61-.21.97.67h1.79v-.03h3.53l.07-.07v-.03l.89-1.18v-6.11l-.9-1.56h0s-.61-1.02-.61-1.02l-.14-.24-.66-1.27-2.01-1.26h0s-.14-.45-.14-.45v.11l-.02-.05h0s-.05-.11-.05-.11l-.36-.83v-1.56l-1.34-2.53-1.63-1.26-.16-.16-1.19-.84h-1.24l.61-.62h0s.04-.05.04-.05l-.66-1.26v-.58l.63-.63,1.27-.6v.6l.52.51h0s.16.15.16.15l1.63.6,2.61.67,2.68.59h.07v-.05h.03l1.68.02c.09.14.18.28.28.4.04.05.09.09.14.13.05.04.09.09.14.12.34.23.84.26,1.65-.03.06-.02.13-.04.19-.07.08-.03.15-.05.24-.09,0,0,0-.02,0-.02h0s.07-.03.12-.05c0,0,.88-.63,2.25-1.68.55-.42,1.17-.9,1.84-1.46,1.22-.99,2.61-2.16,4.02-3.44,0,0,0,0,0,0,0,0,.01-.01.02-.02,2.65-2.41,5.35-5.19,7.12-7.88,1.64-8.63,0-17.41-2.68-26.27ZM234.84,143.94l-.67-.67-.48-1.58c.82,1.01,1.64,2.04,2.45,3.06l-1.29-.81Z"/>
      <polygon class="cls-1" points="215.36 254.59 215.36 254.59 215.36 254.59 215.36 254.59"/>
      <path class="cls-1" d="M168.03,25.11c0,.16.03.32.06.48.09.3.25.58.45.82.23.22.56.34.88.32.12.07.26.07.38,0,.18-.02.36-.07.52-.16.25-.19.43-.45.52-.74.07-.15.13-.31.17-.47,0,0,.01,0,0-.01.1-.28.16-.57.2-.86.08-.6.15-1.27.23-2.06,0-.05.01-.09.01-.14.07-.74.06-1.38.06-1.93.05-.4.04-.8-.03-1.19-.01-.08-.02-.15-.04-.23-.09-.64-.63-1.11-1.27-1.12h-.37v-.03c-.18.01-.36.06-.52.15-.26.2-.46.45-.6.74-.03.08-.06.16-.09.25-.09.32-.16.7-.28,1.17-.15.57-.15,1.14-.21,1.9h0s0,.07,0,.1c-.06.69-.09,1.38-.08,2.07-.01.31,0,.62.02.93h0Z"/>
      <polygon class="cls-1" points="273.59 230.83 272.82 230.54 270.67 229.75 270.64 229.74 270.22 229.58 272.82 232.18 272.82 232.15 274.17 233.49 275.43 231.51 273.63 230.84 273.59 230.83"/>
      <path class="cls-1" d="M264.96,247.88l-2.29-2.02-.03-.02-.46-.41-1.85-1.61h-.02s-.44-.4-.44-.4l-1.56,1.79.46.39.02.02,1.01.85c.37.3.74.67,1.19,1.03.05.04.09.08.13.12.01,0,.02,0,.03.02.36.33.63.67.95,1.05l.08.08v.03c.34.38.66.78.97,1.2,0,.01,0,.01,0,.02.27.37.51.76.73,1.17l2.09-2.41-1-.88-.02-.02Z"/>
      <polygon class="cls-1" points="197.62 29.12 198.51 29.33 198.63 27.77 198.89 24.59 198.95 23.82 198.88 23.82 198.53 24.48 197.62 26.2 197.62 26.23 197.02 27.28 196.2 28.69 197.62 29.14 197.62 29.12"/>
      <path class="cls-1" d="M160.65,25.91c.25-.01.49-.12.66-.3.18-.16.31-.37.37-.6.02-.07.03-.15.04-.22h.01c.04-.25.05-.5.03-.74.08-.67-.08-1.12-.45-1.35-.25-.25-.6-.39-.96-.37-.16,0-.3-.07-.45-.07h-.9l-.05,2.48-.02,1.24h1.42c.14,0,.21,0,.3-.07Z"/>
      <path class="cls-1" d="M113.05,29.25v.02c.03.08.05.16.08.25.23.74.46,1.37.69,1.89h.05c.09.25.2.5.33.73,0,0,0,.01.01.02.1.18.21.35.34.52l.21.22c.12.19.31.32.53.37.29.09.61.07.89-.07.32-.03.6-.23.74-.52.16-.27.24-.58.23-.9-.01-.2-.03-.4-.06-.59v-.02c-.04-.24-.09-.49-.17-.72-.14-.6-.37-1.27-.6-2.02-.02-.08-.05-.16-.08-.24h0c-.21-.65-.46-1.22-.66-1.69-.17-.41-.37-.81-.61-1.17h0s-.03-.06-.05-.09c-.08-.07-.08-.16-.16-.23v.04c-.18-.15-.37-.27-.59-.37-.3-.08-.61-.06-.9.07-.3.09-.56.28-.74.53-.16.27-.23.58-.22.89v.06c.03.46.1.91.22,1.35.13.46.32,1.03.52,1.67Z"/>
      <polygon class="cls-1" points="50.11 69.66 49.73 69.46 50 69.8 50.01 69.82 51.97 72.29 51.99 72.32 52.18 72.56 52.18 72.58 53.21 73.77 54.71 71.98 52.97 71.12 52.94 71.1 52.18 70.72 50.13 69.67 50.11 69.66"/>
      <path class="cls-1" d="M29.31,104.25l1.07.44h0s1.18.54,1.18.54l.22-.6c.24-.47.34-1,.27-1.53-.18-.42-.53-.74-.96-.89-.24-.08-.49-.13-.75-.15v-.04s-.05-.01-.07-.01c-.01-.01-.02-.01-.03,0-.14-.02-.27.02-.39.09-.42.21-.74.58-.89,1.03l-.37.82.7.29h.02Z"/>
      <path class="cls-1" d="M64.03,258.44c-.02-.15-.07-.3-.15-.44v-2.52l.37.3c.32.43.8.72,1.33.81.46-.02.89-.23,1.19-.59.12-.13.23-.27.3-.42.02-.02.03-.03.03-.05.12-.22.18-.47.2-.72-.13-.46-.39-.88-.75-1.19l-.67-.59-.66.71-.04.04-1.31,1.41-.15.14.15.15v2.53c0-.07-.08-.07-.08-.15-.14-.22-.29-.37-.44-.6l-.82-.67-1.6,1.7-.02.02-.84.89.67.67c.35.36.8.59,1.29.67.35.02.68-.07.96-.26.01,0,.02,0,.02-.01.17-.1.31-.24.43-.4.17-.16.32-.36.44-.57v-.03q0-.08.08-.15c.06-.22.08-.45.07-.68Z"/>
      <path class="cls-1" d="M79.27,42.93l1.37,2.03.08.15.86-.52c.4-.28.72-.67.9-1.11.04-.52-.12-1.03-.45-1.42-.13-.26-.32-.47-.56-.61,0-.01,0-.01-.02-.01-.24-.14-.52-.21-.81-.2-.33.03-.64.16-.9.37l-.96.59.48.71v.02Z"/>
      <path class="cls-1" d="M58.54,251.43c.57-.49.95-.87,1.31-1.24.29-.32.54-.7.74-1.09,0-.01,0-.01,0-.02.01-.01.01-.03.02-.04.13-.29.18-.61.12-.93-.08-.36-.26-.7-.52-.97l-.74-.81-.72.68-.04.03-1.7,1.59v-.04l-.58.54-.03.02-2.26,2.09h-.02s-.9.84-.9.84l.74.79c.21.29.49.52.82.67.32.09.66.06.97-.07.11-.03.21-.06.31-.1.01-.01.02-.01.02-.01.32-.13.61-.32.86-.56h.07c.37-.37.9-.82,1.49-1.34l.03-.03Z"/>
      <polygon class="cls-1" points="73.28 260.97 73.62 260.31 73.55 260.31 73.01 260.74 72.97 260.78 71.41 262.01 71.41 262.05 70.5 262.75 70.48 262.77 69.18 263.77 71.02 265.24 71.39 264.56 71.77 263.84 71.79 263.81 73.25 261.01 73.28 260.97"/>
      <path class="cls-1" d="M292.38,163.25h-.16c-.27,0-.54.05-.77.17-.03.01-.05.02-.07.04-.1.04-.19.11-.28.18-.25.4-.41.85-.44,1.33v.9l.61.03h.06l.89.04h0s1.56.06,1.56.06l.08-.67c.05-.54-.05-1.08-.3-1.56-.31-.32-.74-.5-1.18-.52Z"/>
      <polygon class="cls-1" points="287.2 102.66 286.31 102.82 284.44 103.17 284.44 103.16 283.16 103.41 283.15 103.41 281.7 103.69 282.65 105.85 283.84 105.01 284.44 104.59 286.46 103.18 287.2 102.66"/>
      <polygon class="cls-1" points="293.71 173.45 293 173.52 290.64 173.72 290.58 173.72 290.25 173.75 290.25 173.82 290.56 173.93 290.62 173.95 293 174.79 293.53 174.96 293.57 174.98 295.53 175.61 295.83 173.22 293.76 173.44 293.71 173.45"/>
      <path class="cls-1" d="M297.6,163.24h-.03s-.07,0-.11,0h-.07c-.27,0-.55.02-.82.09-.2.07-.38.2-.52.37-.17.17-.29.37-.38.59-.06.24-.08.49-.07.74l-.07,1.04,1.86.07h.07l1.72.08.07-.9c.05-.52-.08-1.05-.37-1.49-.3-.4-.78-.62-1.28-.6Z"/>
      <path class="cls-1" d="M158.11,0C70.79,0,0,70.79,0,158.11s70.79,158.12,158.11,158.12,158.12-70.79,158.12-158.12S245.44,0,158.11,0ZM290.82,144.04c.18-.04.36-.06.54-.06h.89c.58.14,1.12.42,1.56.82.04.06.09.13.13.19.12.18.23.36.33.55.07-.61.33-1.18.74-1.63.54-.42,1.19-.65,1.86-.67h.04c1.06-.21,2.14.09,2.94.81.14.16.26.33.37.5.48.73.74,1.59.75,2.47.08.62.05,1.25-.11,1.86-.04.27-.12.53-.25.77-.09.18-.2.34-.34.49-.32.31-.7.56-1.11.75-.54.15-1.08.25-1.64.3h-.15l-.23-2.45h.24c.23,0,.45-.03.66-.09.24-.06.46-.16.67-.29.16-.12.29-.27.38-.45.12-.25.17-.54.14-.82-.02-.42-.2-.82-.52-1.11-.46-.24-.97-.34-1.49-.3h-.08c-.5,0-.96.2-1.33.52-.31.41-.44.92-.37,1.42,0,.07.07.14.07.29v.45l-1.29.1-.57.05v-.45c-.03-.52-.24-1.02-.6-1.41-.44-.29-.97-.39-1.49-.3-.19.03-.36.05-.51.09-.25.07-.43.17-.52.35-.24.27-.35.62-.3.97,0,.33.1.64.3.89.2.2.45.34.72.42h.01s.1.03.15.04h.68l.14,2.38h-.07c-.26.03-.51.03-.76,0h-.01c-.68-.08-1.32-.36-1.84-.83-.72-.76-1.12-1.77-1.09-2.82-.12-.96.09-1.93.6-2.75.44-.55,1.07-.93,1.75-1.06h.01ZM289.76,103.18l-2.48,1.94-2.56,2.01-.24.19v-.8s-.01-.01-.01-.01l-.03-1.92v2.75l-2.2,1.7-.02.02-2.4,1.86-.97-2.31,2.07-1.56-1.19-2.91-2.6.52-.96-2.3,2.97-.46h.03l3.09-.47h.01l2.18-.34h0s1.03-.16,1.03-.16l3.09-.5,1.19,2.75ZM269.56,242.11h.02s.25.19.25.19v3.05l-1.74-1.28h-.02s-2.46-1.83-2.46-1.83l-.04-.02-2.46-1.82h-.02s-2.05-1.52-2.05-1.52l4.13-5.65,1.64,1.19-2.75,3.72.49.35.02.02,1.64,1.19.9-1.19c.31-.45.68-.85,1.11-1.19.35-.29.76-.49,1.19-.6.09-.05.2-.07.3-.07h.08l.06,2.45h-.37c-.47.23-.88.56-1.19.97l-.53.75,1.8,1.29ZM158.11,277.89c-66.13-.03-119.74-53.64-119.77-119.78h.05c.02-52.69,34.05-97.43,81.33-113.46,1.86-.64,3.73-1.22,5.62-1.75,1.89-.54,3.8-1.03,5.72-1.48h.01c1.93-.44,3.88-.84,5.84-1.2,1.97-.35,3.95-.66,5.95-.91s4.01-.46,6.04-.62c3.04-.23,6.11-.35,9.21-.35,66.14.03,119.75,53.64,119.78,119.77-.04,66.14-53.64,119.74-119.78,119.78ZM284.14,91.33l-2.68,1.4-1.49.77,1.34,2.53,1.46-.77,2.64-1.39,1.11,2.16-2.68,1.39-2.77,1.45-2.68,1.39-.03.02-2.56,1.33-1.11-2.16,2.6-1.34.03-.02,2.13-1.09-1.34-2.53-2.11,1.08h-.02s-2.64,1.37-2.64,1.37l-1.11-2.15,2.59-1.34h.02s2.68-1.4,2.68-1.4l2.78-1.44,2.72-1.41,1.12,2.15ZM278.92,82.48l-2.51,1.53-2.67,1.62-1.43.87,1.76-.34h.01l3.27-.63,3.15-.6,1.33,2.24-2.57,1.57-2.67,1.63h-.01s-2.56,1.58-2.56,1.58l-.03.02-2.51,1.53-1.19-1.94,2.55-1.57.02-.02,2.56-1.58h.01l1.49-.92-1.83.35h-.01l-3.15.61h-.04s-3.09.6-3.09.6l-1.41-2.23,2.5-1.53.03-.02,2.57-1.57,2.67-1.63,2.58-1.58,1.18,2.01ZM271.23,73.02v2.98l-.16.11-1.63,1.16.41.59c.27.43.66.77,1.11.97h.3c.39.04.77-.1,1.04-.37.1-.06.2-.14.29-.23.22-.21.38-.49.45-.8-.03-.47-.22-.91-.53-1.26l-.51-.75-.75.59v-2.99l.82-.59,2.38,3.27c.28.37.51.77.67,1.2.14.38.22.78.23,1.19-.06.39-.19.77-.37,1.12-.28.41-.62.75-1.03,1.02,0,.01-.01.01-.01.01-.47.37-1.03.6-1.63.66-.36.01-.71-.07-1.04-.21v-1.86s-.01,1.87-.01,1.87c-.2-.09-.38-.21-.52-.38h-.08c.22.35.34.73.35,1.13h0c0,.25-.04.5-.12.73-.22.66-.67,1.22-1.27,1.57-.15.13-.31.24-.48.33-.01.01-.02.02-.03.02-.22.13-.45.23-.68.32-.4.16-.83.21-1.26.14h-.07c-.46-.08-.89-.26-1.27-.51-.5-.35-.92-.78-1.27-1.28l-2.38-3.35,2.39-1.7.04-.02,2.46-1.75.03-.02,2.52-1.78,1.61-1.13ZM266.64,66.11c.39.16.75.37,1.07.62.07.05.13.1.19.16.19.16.37.35.53.55.19.21.35.44.49.69.05.07.09.15.13.23.19.36.33.75.41,1.15.08.6,0,1.21-.22,1.78-.24.45-.52.87-.85,1.26-.11.13-.22.26-.34.38-.59.63-1.24,1.2-1.93,1.71-.01.01-.03.02-.04.03-.67.59-1.39,1.09-1.97,1.54-.18.05-.3.16-.46.24-.01,0-.03.01-.04.01-.03.02-.06.03-.1.04v-.04c-.4.22-.81.39-1.25.51-.6.14-1.23.09-1.79-.15-.44-.18-.84-.43-1.18-.77h0c-.2-.19-.38-.41-.53-.64-.15-.16-.3-.33-.42-.52-.01-.01-.02-.02-.01-.03-.3-.42-.5-.89-.6-1.39-.13-.6-.08-1.22.15-1.78.24-.43.51-.83.81-1.2.01-.02.02-.03.03-.04.11-.14.23-.27.35-.4.58-.6,1.19-1.16,1.83-1.68,0-.01.01-.01.01-.01t.02-.02c.75-.6,1.42-1.12,2.07-1.57l.45-.25.07-.04v2.79c-.3.3-.67.53-1.03.9h-.01s0,.01,0,.01c-.58.52-1.11.95-1.55,1.32-.25.22-.47.46-.67.73,0,.01-.01.02-.02.03h0c-.07.09-.13.19-.19.28-.18.26-.29.57-.3.89,0,.33.13.64.37.87.17.26.44.44.74.51.3.08.61.06.89-.07.13-.06.25-.12.37-.19.02,0,.03,0,.04-.02.3-.15.59-.33.86-.53.19-.1.37-.23.52-.38.35-.29.64-.57,1.06-.86.02-.01.04-.03.06-.04l1.56-1.33c.24-.24.47-.49.68-.76.08-.09.15-.18.22-.27.17-.27.27-.58.29-.89-.01-.32-.15-.61-.38-.83-.17-.26-.44-.44-.74-.52-.3-.08-.61-.05-.89.08-.13.05-.25.1-.37.17-.32.15-.61.34-.89.57-.21.11-.41.24-.6.37v-2.83c.41-.26.87-.44,1.34-.53.6-.13,1.22-.08,1.78.16ZM264.71,63.42l-1.49,1.42-2.68-2.91-.68.64-2.27,2.13h0s-2.2,2.08-2.2,2.08l-.04.03-2.18,2.05-1.71-1.79,2.18-2.05.03-.03,2.2-2.07h.01s2.27-2.14,2.27-2.14h0s2.16-2.04,2.16-2.04l4.4,4.68ZM254.07,52.71l4.91,4.61-1.42,1.49-3.12-2.98-.63.68-1.31,1.41,2.9,2.75-.83.92h0s-.5.57-.5.57l-2.91-2.83-1.58,1.64-.03.03-.69.71,3.27,3.05-1.41,1.49-4.99-4.76,2.04-2.15.03-.03,2.08-2.19,2.15-2.26,2.04-2.15ZM244.19,48.23l1.91-2.3,1.86,1.57-1.88,2.24h0s-2,2.4-2,2.4h-.01l-1.94,2.32-.02.03-.62.74,2.16,1.86.65-.78.02-.03,1.94-2.34,1.98-2.4,1.88-2.26,1.86,1.57-1.9,2.27-2,2.39h-.01s-1.94,2.33-1.94,2.33l-.02.03-.6.71.89.75-1.41,1.71-1.42,1.72-1.71-1.49,1.47-1.69.09-.1-5.07-4.25,1.87-2.24.02-.03,1.94-2.33,2-2.4h.01ZM239.18,40.9v-.03l2.75,2.01c.46.3.85.7,1.12,1.18.21.39.32.83.3,1.28.06.43-.02.87-.23,1.26-.08.2-.18.4-.27.6-.1.2-.21.4-.32.59-.32.45-.72.83-1.2,1.11-.25.18-.53.33-.83.42h-.01c-.14.05-.28.08-.42.11-.3,0-.6-.01-.89-.07v-.02c-.18-.02-.36-.07-.53-.16-.48-.16-.94-.41-1.33-.74l-1.12-.75-1.05,1.48-.02.04-1.76,2.48-1.93-1.41,1.75-2.43.02-.02,1.77-2.47,1.83-2.53h0s1.7-2.37,1.7-2.37l.67.44ZM236.87,39.31l-1.04,1.7-3.65-2.3-.47.78h-.01s-1.01,1.68-1.01,1.68l3.43,2.15-.68,1-.44.64-3.35-2.08-1.2,1.85-.02.03-.57.88,3.8,2.37-1.04,1.64-5.88-3.64,1.59-2.53.02-.03,1.62-2.58,1.66-2.64,1.58-2.5,5.66,3.58ZM218.99,39.37l2.8-1.97h.01s.03-.03.03-.03l.2-3.36h0s.18-3.19.18-3.19l2.37,1.26-.38,3.07-.13,1.1.84-.72,2.36-2.03,2.38,1.26-2.64,1.94h0s-2.72,2.01-2.72,2.01v.04l-.15,3.41v.04l-.15,3.35-2.38-1.33.33-3.25v-.03s.12-1.11.12-1.11l-.89.7-.02.02-2.59,2.03-2.31-1.27,2.71-1.92.03-.02ZM205.93,33.57v-.03s1.18-2.82,1.18-2.82h0s1.19-2.88,1.19-2.88l1.11-2.67,2.15.88-1.1,2.64-1.2,2.88-.68,1.63,1.3-1.38,2.28-2.43,2.08-2.22,2.45.97-1.13,2.73h-.01l-1.19,2.88h-.01l-1.17,2.82v.02s-1.17,2.79-1.17,2.79l-2.09-.9,1.16-2.81v-.02s1.18-2.83,1.18-2.83l.64-1.55-1.23,1.29h0s-2.26,2.38-2.26,2.38l-.02.02-2.22,2.33-2.39-.96,1.15-2.76ZM196.57,23.9l1.05-1.7h0s.44-.84.44-.84l2.91.83-.11,3.02-.11,3.23h0s-.12,3.2-.12,3.2v.02l-.11,3.1-2.46-.74.23-2.61-.67-.22h0s-2.39-.73-2.39-.73l-1.26,2.3-2.38-.74,1.61-2.62v-.02s1.68-2.72,1.68-2.72l1.69-2.76ZM183.87,27.21l.68-3h0s.69-3.03.69-3.03l.63-2.8,2.39.53-.64,2.75-.4,1.72,2.75.67.4-1.77.64-2.78,2.39.53-.65,2.84-.69,3.04-.68,3h0s-.67,2.95-.67,2.95l-2.38-.52.67-3v-.02s.52-2.27.52-2.27l-2.75-.6-.51,2.25v.02l-.68,3.02h0s-.11-.02-.11-.02h-.04s-2.23-.57-2.23-.57l.66-2.92v-.02ZM174.96,25.78c-.01-.15-.01-.31,0-.47.07-.74.14-1.63.3-2.53,0-.02.01-.04.01-.06h0c.12-.82.29-1.61.5-2.39.04-.22.1-.44.18-.66.14-.46.36-.9.64-1.29.35-.5.84-.89,1.42-1.11.72-.21,1.49-.24,2.23-.08.69.06,1.35.29,1.93.68.41.34.74.77.97,1.26.16.48.23.98.23,1.49,0,.07,0,.13-.01.2-.01.4-.06.81-.14,1.21l-2.38-.37c.1-.42.13-.85.09-1.27,0-.22-.03-.45-.09-.66-.16-.45-.56-.77-1.03-.82-.26-.03-.52.02-.75.14-.27.19-.48.45-.6.75-.03.07-.06.13-.08.2-.15.37-.28.75-.36,1.14-.13.52-.27,1.17-.4,1.89-.02.09-.03.18-.05.27-.14.83-.14,1.64-.23,2.24-.01.19-.01.38,0,.57h0c.01.26.04.51.08.76.05.28.21.52.44.67.17.14.38.25.59.3h.6c.22-.09.42-.22.6-.37.17-.29.32-.59.45-.9t.01-.02h0c.14-.51.26-1.02.36-1.54l2.38.37c-.13.56-.25,1.07-.38,1.57h0c-.02.11-.05.2-.07.29-.18.52-.46,1-.82,1.42-.32.4-.77.68-1.27.82-.2.06-.4.11-.6.15h0c-.47.07-.95.05-1.42-.08-.46-.06-.9-.17-1.32-.35,0,0,0-.01,0-.01-.26-.1-.51-.24-.74-.39-.47-.38-.81-.9-.96-1.48-.19-.5-.29-1.01-.3-1.53,0,0-.01,0,0-.01ZM165.7,21.96s0-.07.01-.11c.05-.81.15-1.63.29-2.42.05-.22.1-.44.18-.66.13-.44.33-.88.57-1.28.33-.51.79-.92,1.34-1.19.53-.26,1.12-.36,1.71-.3h.52c.74.04,1.46.27,2.07.68.51.31.9.78,1.12,1.33.17.45.28.93.33,1.41.03.22.04.44.04.66.05.82.02,1.64-.06,2.46-.01.02-.01.05-.01.07-.05.85-.15,1.7-.3,2.53-.02.16-.06.31-.1.46h0c-.13.53-.35,1.03-.65,1.48-.3.51-.77.91-1.33,1.11-.26.11-.53.2-.81.25-.27.05-.54.06-.82.05v.02h-.52c-.5-.02-.98-.12-1.43-.31-.26-.09-.5-.21-.73-.36-.52-.3-.92-.77-1.12-1.34-.19-.5-.31-1.02-.35-1.55h0c-.01-.16-.02-.31-.02-.46-.04-.84-.02-1.69.07-2.53ZM156.59,24.75l.04-3.1.03-3.1.04-2.85,3.65.08v-.05h3.35l-.08,2.06h-3.27v.06l-1.27-.08-.02.78-.06,1.9h1.35v-.05h.14c.56-.01,1.11.07,1.65.22.43.15.83.38,1.18.67.14.14.26.29.36.46.14.2.24.42.32.65.22.55.32,1.13.29,1.72,0,.25-.03.51-.07.76-.05.35-.12.69-.22,1.03-.19.43-.48.81-.83,1.12-.38.29-.81.51-1.26.66-.35.08-.7.14-1.06.18-.17.03-.33.04-.5.05l-.12-.06-.04-.02h-3.64l.04-3.09ZM143.18,25.58h.01s.54-3.19.54-3.19h0s.54-3.17.54-3.17l.48-2.84,2.06-.15.05,2.76.02.81v-3.57l.88-.08.97,2.7,1.09,3.04,1.09,3.04,1.07,2.99-1.61.14h-.04s-.8.08-.8.08v-.02s-.01-.01-.01-.01l-.81-2.5-1.78.22v-2.05l1.13-.1-.5-1.63h0s-.68-2.25-.68-2.25l-.2-.8-.18-.69-.08.07-.08.65-.36,3.14-.2,1.72,1.12-.14v2.07l-1.42.08-.3,2.57v.03l-1.44.13h-.14s-.95.09-.95.09l.53-3.14ZM134.81,17.64l1.42,2.6h0s1.57,2.9,1.57,2.9l1.26,2.31v-.07l-.37-2.37-.47-3.06h0s-.43-2.76-.43-2.76l2.16-.3.43,2.76.47,3.07h0s.48,3.07.48,3.07l.47,3.06h0s.01.04.01.04l-2.68.37-.02-.04h-.01s-1.55-2.89-1.55-2.89h0s-1.56-2.9-1.56-2.9h0s-1.11-2.07-1.11-2.07h-.07l.35,2.2.49,3.07h0s.48,3.05.48,3.05h.01s.01.1.01.1l-2.16.3v-.02l-.49-3.04h0s-.5-3.07-.5-3.07h0s-.49-3.06-.49-3.06h0s-.45-2.8-.45-2.8l2.75-.45ZM129.97,18.61l.55,2.66.63,3.03.63,3.04v.02s.63,3.01.63,3.01h.01s.01.08.01.08l-2.39.52-.02-.09h0s-.62-3.02-.62-3.02v-.02l-.63-3.04h0s-.62-3.04-.62-3.04h0s-.56-2.71-.56-2.71l2.38-.44ZM120.22,20.92l1.19,2.48h0s1.36,2.86,1.36,2.86h.01s1.36,2.85,1.36,2.85v.02l.03.05v-.08l-.18-3.15h0s-.19-3.16-.19-3.16h0s-.16-2.76-.16-2.76l2.39-.68.1,2.86h0s.12,3.17.12,3.17h0s.11,3.16.11,3.16v.02l.12,3.14v.08l-2.98.83-.06-.11-1.46-2.78-.02-.02-1.47-2.8h-.01s-1.47-2.81-1.47-2.81h-.01s-1.31-2.5-1.31-2.5l2.53-.67ZM110.08,25.78c.05-.62.32-1.19.74-1.64.52-.53,1.16-.93,1.87-1.14.66-.26,1.37-.35,2.07-.25q.08,0,.16.07c.6.09,1.15.37,1.56.81.32.28.6.61.81.97.16.24.28.49.38.75.35.68.65,1.38.88,2.11.01,0,.01.01.01.01.03.09.05.17.08.26.28.78.5,1.58.66,2.39.03.11.05.23.07.34,0,.01,0,.02.01.02.09.57.12,1.13.08,1.71-.12.61-.41,1.17-.82,1.64-.05.05-.1.1-.16.14,0,0-.01.02-.02.02-.48.44-1.06.76-1.68.96-.67.18-1.37.29-2.07.3v-.05c-.05-.02-.11-.07-.16-.07-.61-.09-1.16-.37-1.58-.81-.4-.4-.76-.85-1.02-1.35-.01-.01-.02-.01-.02-.02-.05-.09-.1-.18-.14-.27-.3-.74-.59-1.49-.89-2.39-.03-.08-.05-.16-.07-.23h-.01c-.26-.82-.47-1.54-.67-2.22-.05-.27-.09-.53-.1-.8,0,0-.01-.01,0-.02-.04-.41-.02-.83.03-1.24ZM101.09,29.1c.05-.57.28-1.12.67-1.56.47-.44,1.03-.79,1.63-1.04.94-.5,2.05-.58,3.05-.22.64.37,1.17.89,1.55,1.52,0,0,.01,0,.01.01.15.24.27.5.37.78l-2.16.89c-.07-.23-.19-.43-.36-.59-.04-.06-.09-.13-.14-.18,0-.01,0-.01,0-.01-.09-.12-.19-.23-.3-.34-.19-.12-.39-.22-.59-.3-.23-.05-.47-.02-.68.08-.55.23-.87.82-.74,1.41,0,.04,0,.07.02.11h0c.12,1.05.42,2.06.87,2.99h0s.01.02.01.02c.29.66.52,1.25.81,1.77.15.36.34.69.59.99.01,0,.01.02.02.03.07.08.14.16.21.24.19.33.48.59.82.74.3.09.61.06.89-.07.17-.03.31-.14.37-.3.18-.12.32-.3.37-.51.07-.22.1-.45.08-.68-.01-.17-.03-.35-.08-.52.01-.01.01-.02-.01-.03-.01-.09-.03-.18-.06-.26l-.52-1.2-1.48.67-.58-1.47v-.02s-.1-.22-.1-.22l3.65-1.49.11.25v.02l1.2,2.85v.02s1.19,2.83,1.19,2.83h0s.02.06.02.06l-1.71.67-.02-.05h0s-.35-.98-.35-.98h-.07c-.05.5-.26.97-.6,1.33-.02.02-.04.05-.06.07-.01.01-.01.02-.02.02-.31.36-.69.64-1.11.81-.5.23-1.05.35-1.59.32-.01,0-.02,0-.03,0-.08,0-.16-.01-.24-.02-.53-.08-1.02-.31-1.42-.67-.47-.4-.86-.88-1.14-1.42-.01-.01-.02-.02-.01-.03-.05-.06-.08-.12-.11-.19-.47-.82-.9-1.66-1.27-2.52-.01-.01-.01-.03-.02-.04v-.02c-.34-.81-.6-1.63-.8-2.48-.05-.17-.1-.33-.12-.5h-.01c-.1-.52-.1-1.05-.02-1.57ZM98.26,28.96l.89,1.86-3.87,1.86.31.62.96,1.91,3.65-1.78.44.88.45.9-3.65,1.87.91,1.77.02.03.56,1.09,3.94-2.01.87,1.73h0s.03.06.03.06l-6.18,3.05-.03-.06h-.01s-1.35-2.74-1.35-2.74l-.02-.04-1.38-2.77v-.02s-1.38-2.76-1.38-2.76h-.01s-1.18-2.4-1.18-2.4l6.03-3.05ZM85.43,36.04c.41-.62.97-1.14,1.63-1.49.62-.36,1.3-.59,2.01-.67.52,0,1.03.13,1.49.37.44.26.82.62,1.12,1.04h.01s.01.02.01.03c.3.35.58.74.8,1.16l-2.06,1.18c-.23-.42-.53-.81-.88-1.15h-.01c-.12-.12-.24-.22-.37-.32-.39-.28-.91-.28-1.3,0-.24.12-.43.34-.52.6-.07.31-.07.64,0,.96h0s.01.02.01.02c.1.46.27.92.51,1.32.24.51.5,1.01.79,1.5-.01.01.01.02.01.02.07.14.15.28.24.42.35.64.75,1.26,1.18,1.86.07.11.15.22.23.33.01.01.01.02.03.03.18.23.4.44.64.61.2.19.47.3.75.3.23-.02.45-.07.66-.16l.45-.44c.15-.15.15-.37.22-.6-.02-.33-.09-.66-.22-.96-.02-.05-.04-.1-.06-.15,0-.01-.01-.02-.02-.03-.17-.43-.36-.84-.59-1.24l2.07-1.26c.23.45.45.9.65,1.32.01.01.01.02.02.03.05.12.11.24.16.36.17.52.25,1.08.21,1.64-.01.53-.16,1.04-.44,1.49-.01.01-.02.03-.03.04l-.03.03c-.38.5-.87.9-1.43,1.19-.57.33-1.19.57-1.83.69,0,.01-.02.01-.04.01-.07.02-.13.03-.2.04-.61.03-1.21-.16-1.7-.51-.5-.31-.93-.7-1.29-1.16-.01-.01-.02-.02-.02-.03-.07-.07-.12-.15-.18-.23-.45-.67-.9-1.34-1.42-2.16-.04-.06-.08-.13-.11-.19-.01,0-.01-.02-.01-.02-.44-.74-.72-1.41-.99-2.02-.13-.25-.24-.52-.32-.79t-.01-.02c-.12-.39-.18-.79-.19-1.2-.07-.62.06-1.25.37-1.79ZM79.53,39.59c.34-.25.71-.45,1.11-.58.42-.1.84-.13,1.27-.07.7.13,1.33.52,1.74,1.09,0,0,0,0,0,.01.1.12.18.25.25.39.41.57.64,1.25.65,1.96,0,.29-.06.57-.17.84,0,.01,0,.02-.01.03h0c-.12.28-.28.54-.49.76v.08c.42-.26.93-.37,1.42-.29.52.17.96.51,1.27.96.14.16.27.33.38.51,0,.01.02.03.02.04.02.02.03.03.04.05.2.21.37.43.52.67.3.42.62.82.97,1.19.16.21.4.32.66.31.01,0,.03,0,.04-.01.02.01.03,0,.05,0v.14l-2.16,1.42c-.06-.02-.13-.05-.19-.09,0,0,0,.01,0,0-.11-.05-.22-.12-.32-.2-.16-.23-.3-.37-.46-.6l-1.12-1.58-.03-.04-.19-.27c-.24-.31-.55-.57-.9-.75-.4-.08-.81.03-1.12.3l-1.08.68,1.06,1.54.02.04,1.72,2.51h.01s.09.14.09.14l-2,1.42-.1-.14v-.02s-1.73-2.5-1.73-2.5l-.03-.04-.08-.12-1.63-2.45-.02-.02-1.71-2.57h-.01s-1.46-2.2-1.46-2.2l3.72-2.53ZM74.14,43.25l1.27,1.64-3.43,2.61.36.47.02.02,1.34,1.74,3.2-2.46.58.71v.03s.68.82.68.82l-3.2,2.53,1.2,1.52.03.04.78.98,3.5-2.68,1.1,1.45h.01s.08.11.08.11l-5.43,4.17-.08-.1h-.01s-1.86-2.42-1.86-2.42l-.03-.04-1.88-2.44-.02-.02-1.89-2.44v-.02s-1.6-2.06-1.6-2.06l5.28-4.16ZM63.13,52.25l1.75,1.97v.02s1.37,1.52,1.37,1.52l2.09-1.86-1.33-1.53h-.02s-1.71-1.98-1.71-1.98l1.79-1.56,1.75,1.98.02.02,2.03,2.3.02.02,2.05,2.32.03.03,2.02,2.28v.02s.12.12.12.12l-1.79,1.56-.13-.15h-.02s-2.01-2.28-2.01-2.28l-.04-.04-1.37-1.55-2.15,1.86,1.39,1.56.03.04,2.02,2.28h.01s.11.14.11.14l-1.79,1.63-.11-.12v-.02s-2.02-2.27-2.02-2.27l-.04-.04-2.05-2.31-.02-.03-2.04-2.3h-.01s-1.74-1.98-1.74-1.98l1.79-1.65ZM56.65,58.51l1.86,1.8h.02s2.21,2.15,2.21,2.15l.02.02,2.23,2.15.04.04,2.18,2.1v.02s.15.13.15.13l-1.64,1.79-.18-.18h-.02s-2.18-2.12-2.18-2.12l-.04-.04-2.22-2.14-.03-.03-2.21-2.13h-.01s-1.82-1.77-1.82-1.77l1.64-1.79ZM49.06,66.89l2.4,1.16h.03s.67.33.67.33l.02,2.34v-2.31l2.19.99.04.02,2.93,1.32.06.02,2.88,1.3h.02s.15.08.15.08l-1.63,2-.21-.11h-.02s-2.08-1.08-2.08-1.08l-2.02,2.46,1.48,1.81v.02s.16.18.16.18l-1.64,2-.1-.13v-.02s-1.86-2.56-1.86-2.56l-.04-.05-.31-.43v-.02l-1.57-2.15-.02-.04-1.88-2.58-.02-.02-1.56-2.15,1.93-2.38ZM41.17,77.35l2.56.72h.03l3.14.88h.05s2.7.77,2.7.77v-.07l-2.12-1.49-.04-.03-2.52-1.77h-.02s-2.07-1.47-2.07-1.47l1.27-1.79,2.11,1.48h.02s2.52,1.77,2.52,1.77l.03.03,2.53,1.76.05.04,2.48,1.73.02.02.13.09-1.56,2.31-.28-.08h-.02s-3.09-.88-3.09-.88l-.06-.02-3.14-.89h-.05s-1.99-.58-1.99-.58h-.07l1.65,1.16.04.03,2.52,1.77.05.04,2.47,1.74h.02s.23.17.23.17l-1.26,1.79-.19-.13-.02-.02-2.47-1.73-.05-.03-2.52-1.78-.04-.02-2.51-1.77h-.03s-2.14-1.52-2.14-1.52l1.64-2.23ZM36.25,84.5c.22-.43.52-.81.9-1.12.31-.32.69-.58,1.1-.75.41-.13.84-.17,1.27-.15.36.06.71.17,1.04.32t.02.01c.12.06.24.12.35.19l.3.23-1.19,1.93c-.23-.14-.49-.24-.75-.3,0,0,0-.01-.02-.01-.19-.04-.38-.06-.57-.06-.38.02-.73.24-.89.59-.14.19-.22.43-.23.67-.07.17-.07.36,0,.53.06.15.16.28.3.37l.07.07s.01.01.02.01c.11.11.23.21.36.29.27.16.57.26.89.29.41-.07.79-.25,1.11-.51l1.65-1.19c.15-.11.3-.21.45-.29.03-.03.06-.04.09-.05.21-.13.43-.24.65-.34.3-.07.67-.14.97-.22.3.01.6.07.89.15.32.08.63.23.89.45.06.03.12.06.17.09.02.01.04.02.05.03.83.49,1.43,1.3,1.64,2.25.02.27.02.54-.01.81-.01.02-.01.04-.01.06-.09.8-.39,1.58-.87,2.24-.33.72-.86,1.31-1.52,1.71,0,.01-.01.01-.01.01-.01,0-.02,0-.03.02-.21.13-.44.23-.68.32-.92.19-1.88-.02-2.65-.58-.01,0-.01,0-.02,0l-.03-.02-.42-.2,1.26-2.07.31.1s.04.03.07.04c.01.02.03.03.05.03.19.13.4.23.63.31.19.05.39.08.59.07.22,0,.43-.09.6-.23.21-.16.38-.36.51-.59.17-.32.22-.68.16-1.03,0-.38-.3-.68-.67-.97-.08-.05-.17-.09-.25-.12-.02-.02-.04-.03-.06-.03-.12-.06-.24-.1-.37-.14-.22-.02-.45.01-.67.07-.23.06-.46.16-.66.3l-.9.66c-.4.33-.82.63-1.26.9-.32.2-.68.34-1.06.43-.02,0-.04.01-.06.01-.39.08-.79.08-1.19,0-.41-.12-.82-.3-1.19-.51-.23-.11-.45-.24-.64-.4-.01-.01-.02-.01-.02-.02-.57-.46-.97-1.1-1.12-1.82-.13-.99.1-2,.66-2.83ZM31.62,92.91c.29-.69.76-1.28,1.36-1.72.52-.3,1.11-.46,1.71-.44.36,0,.72.02,1.08.08,0,0,.01.01.02.01.33.06.65.16.97.28l.44.21v.02c.47.19.94.42,1.46.66.01,0,.02.01.04.02.1.04.2.08.3.13.67.3,1.56.89,2.23,1.34.04.03.09.06.13.09.02.01.04.02.05.04.49.34.93.75,1.31,1.21.32.48.52,1.04.58,1.62v.04s.01.03.01.05c-.05.75-.25,1.48-.59,2.16-.34.65-.8,1.23-1.36,1.71-.03.02-.07.04-.1.06-.01.01-.03.02-.05.02-.48.27-1.02.42-1.57.44-.62-.02-1.23-.14-1.81-.37-.02,0-.04,0-.06-.03-.05-.01-.09-.03-.14-.05-.14-.07-.3-.07-.44-.14v-2.69c.34.22.7.4,1.06.56.18.08.37.15.56.21.01.02.03.02.05.02.24.09.48.16.73.21.3.06.61.03.9-.07.27-.16.5-.39.67-.67.15-.27.2-.58.14-.89-.09-.3-.24-.58-.44-.83-.18-.12-.37-.28-.6-.44-.01-.01-.03-.03-.05-.04-.14-.1-.3-.22-.47-.33-.44-.3-1.11-.67-1.86-1.04-.12-.05-.24-.1-.35-.16-.01,0-.02,0-.04-.02-.12-.05-.23-.12-.35-.19h0c-.45-.23-.82-.38-1.12-.53-.42-.21-.88-.33-1.34-.37-.03-.01-.06-.01-.09-.02h-.02c-.29-.06-.58-.03-.85.09-.3.12-.52.37-.6.68-.16.24-.21.53-.15.81.01.3.16.58.39.77t.02.01s.02.03.04.04c.34.33.71.64,1.11.9.42.24.89.47,1.44.75.01.01.02.01.04.02.12.06.25.12.38.19.23.16.48.28.75.37v2.69c-.6-.3-1.19-.53-1.86-.9-.11-.06-.22-.12-.33-.18-.01-.01-.03-.02-.04-.02-.61-.34-1.29-.72-1.83-1.06-.28-.18-.54-.38-.78-.62-.01.01-.01,0-.02-.01-.25-.24-.48-.5-.68-.79-.39-.5-.59-1.11-.58-1.74-.02-.76.19-1.51.6-2.15ZM27.62,101.8c.19-.44.41-.87.67-1.27.26-.29.56-.54.89-.75.36-.21.78-.31,1.2-.3v.04c.31.02.61.09.9.19,0,0,.02,0,.03.01.15.05.3.11.44.18.55.19,1.02.55,1.35,1.03.3.4.43.89.4,1.37,0,.06,0,.11-.02.17,0,.03,0,.07-.01.1.31-.57.85-.98,1.49-1.11h.07l.03,2.28v-2.27c.65-.15,1.33-.07,1.93.21.06.03.13.06.19.11.02,0,.04.01.06.03.34.17.65.38.95.61.32.28.58.64.75,1.03.19.38.29.8.29,1.23v.12c-.05.59-.2,1.16-.45,1.7l-1.63,3.8-.22-.09h-.02s-1.83-.8-1.83-.8v-2.68l1.42.59.35-.84c.23-.46.28-.99.14-1.49-.06-.37-.33-.64-.8-.88-.02-.01-.03-.02-.05-.03-.08-.04-.17-.08-.26-.12-.25-.14-.53-.22-.82-.22h0c-.23,0-.46.04-.67.14-.2.08-.38.2-.52.37-.14.23-.23.44-.37.67l-.37.97,1.88.8.05.02v2.68l-.92-.39-.06-.03-2.83-1.22-.05-.02-.82-.35h0s-2-.85-2-.85l-.02-.02-2.38-1,1.64-3.72ZM15.7,147.54l.13-.04h.07s3.08-.83,3.08-.83h.03s3.14-.84,3.14-.84h.06s2.21-.6,2.21-.6l-2.14-.19h-.05l-3.06-.27h-.03l-2.98-.26h-.07s-.16-.02-.16-.02l.22-2.24h.16s.07.02.07.02l2.99.26h.03l3.06.27h.05l3.07.27h.07s2.57.23,2.57.23l-.23,2.75-2.7.74h-.07s-3.16.87-3.16.87l-.05.02-2.51.68,2.44.2h.05l3.07.25h.07s2.64.22,2.64.22l-.23,2.23-2.55-.2h-.07s-3.06-.25-3.06-.25h-.05s-3.07-.25-3.07-.25h-.03l-2.99-.24h-.06s-.17-.02-.17-.02l.21-2.76ZM15.49,154.58c.01-.07.04-.13.07-.19.02-.07.05-.14.08-.2.31-.5.74-.9,1.25-1.17.56-.25,1.14-.43,1.73-.54.01-.01.02-.01.03-.01.09-.02.17-.04.26-.05.74-.08,1.56-.08,2.53-.08v2.47l-2.06-.05c-.3.04-.57.08-.8.11-.01,0-.02,0-.03,0-.22.03-.41.07-.59.1-.3.1-.56.28-.75.53-.21.24-.32.56-.3.89,0,.31.07.63.23.9.23.23.51.4.82.51l.55.09h.03s.76.14.76.14c.69.07,1.38.09,2.07.07h2.08c.53-.06.93-.13,1.29-.2.03,0,.05-.01.07-.01s.04-.01.06-.01c.3-.12.58-.29.81-.52.16-.27.24-.58.23-.9.01-.31-.07-.62-.23-.89-.21-.25-.5-.43-.81-.52-.01,0-.02,0-.03-.01-.02,0-.05-.01-.07-.01-.42-.09-.83-.15-1.25-.2-.61-.06-1.21-.08-1.82-.08h-.25v-2.46c.09,0,.19,0,.28.01h.05c.74,0,1.47.06,2.2.15.29.02.58.07.87.15.02,0,.04,0,.07.02.37.09.73.23,1.07.42.53.3.96.74,1.26,1.27.33.67.48,1.41.45,2.15.04.75-.11,1.49-.45,2.16-.3.53-.77.94-1.33,1.19-.34.19-.71.34-1.09.44-.02.01-.04.01-.07.01-.28.08-.57.13-.86.15-.68.06-1.42.07-2.22.07h-.31c-.89,0-1.78-.07-2.52-.14-.1-.01-.19-.02-.29-.04-.01,0-.02,0-.03-.01-.59-.09-1.17-.28-1.7-.55-.54-.29-.98-.73-1.26-1.26-.02-.05-.04-.09-.06-.14-.03-.06-.05-.11-.07-.17-.21-.56-.29-1.16-.24-1.76-.03-.63.07-1.26.29-1.84ZM15.94,170.01h-.2s-.08-1.77-.08-1.77h.14s.07-.01.07-.01l.91-.07c-.42-.22-.76-.55-.98-.96-.02-.02-.04-.05-.05-.07-.01-.02-.02-.04-.03-.06-.23-.42-.37-.88-.42-1.36-.04-.58.05-1.18.26-1.73.01-.04.02-.09.04-.13.01-.01.01-.02.02-.03.26-.5.67-.91,1.17-1.16.56-.3,1.16-.51,1.78-.64h.03s.08-.02.12-.03c.83-.07,1.72-.22,2.76-.22.06-.01.11-.01.17-.01.02-.01.03-.01.05-.01.83-.06,1.64-.05,2.46.02.21.01.42.04.63.09.02,0,.05,0,.07.02.46.09.9.25,1.31.48.52.26.94.68,1.2,1.19.35.59.53,1.26.51,1.95.14,1.03-.15,2.08-.81,2.89-.52.45-1.13.76-1.79.91-.02.01-.04.02-.07.02-.29.07-.59.1-.9.1l-.15-2.3c.26-.07.48-.07.71-.15.05-.02.11-.03.16-.06.02,0,.04-.01.06-.03.15-.05.3-.12.45-.21.18-.11.33-.26.44-.44.1-.21.15-.44.15-.67-.04-.59-.46-1.07-1.04-1.19-.05-.01-.09-.02-.14-.03-.02-.01-.05-.01-.07-.01-1-.23-2.03-.29-3.05-.19h-.04s-.03.01-.05.01c-.71.07-1.36.14-1.98.22-.37.04-.72.1-1.07.19-.01-.01-.02,0-.03,0-.13.02-.26.05-.39.09-.34.13-.64.34-.89.6-.21.22-.32.51-.3.82.01.18.06.36.14.52.11.16.24.31.38.45.2.16.42.29.67.37.18.07.36.1.55.1.01,0,.02,0,.03-.01.07.01.16,0,.24-.02l1.27-.07-.07-1.56,1.53-.14h.05l.19-.02.23,3.95h-.15s-.04.01-.04.01l-3.07.17h-.03s-2.99.17-2.99.17h-.07ZM16.85,177.76c-.03-.06-.06-.12-.09-.18-.27-.51-.42-1.08-.43-1.66-.12-.58-.11-1.17.01-1.74,0-.07.03-.14.04-.21.03-.1.06-.19.09-.29.21-.57.6-1.07,1.11-1.42.49-.32,1.01-.57,1.57-.73,0-.01.02-.01.03-.01.08-.03.17-.06.26-.08l2.53-.45h.52v2.46h-.22c-.83.07-1.5.24-2.03.3-.27.06-.54.14-.81.23-.01,0-.02.01-.03.01-.19.06-.38.13-.56.2-.28.13-.51.34-.67.6-.14.28-.2.58-.16.89.08.37.16.67.37.82.21.25.51.41.83.44.19.03.38.06.57.07h.03c.27.02.54.02.81.01.52-.08,1.11-.15,1.86-.22h.27s.09-.01.13-.02h.05c.73-.08,1.34-.22,1.82-.28.4-.1.81-.22,1.2-.37.02,0,.04,0,.06-.02.05-.02.11-.04.16-.06.27-.13.51-.34.67-.6.17-.26.22-.58.14-.89-.07-.37-.14-.67-.37-.81-.2-.25-.49-.41-.81-.45-.04-.01-.09-.01-.13-.02-.03,0-.05-.01-.08-.01-.4-.05-.81-.07-1.21-.05-.52.08-1.12.15-1.86.23v-2.46c.74-.08,1.41-.15,2.07-.15.26-.01.51,0,.76.02.03,0,.05,0,.07.01.42.04.84.13,1.23.27.56.21,1.05.57,1.42,1.04.38.64.63,1.34.73,2.07.03.15.04.3.06.46.03.61-.03,1.24-.19,1.85-.27.56-.68,1.05-1.19,1.42-.35.23-.72.42-1.11.57-.02.01-.04.02-.07.02-.22.09-.45.16-.68.22l-2.34.43h-.05l-.14.03h-.53l-.08-2.45v2.46c-.75.07-1.41.14-2.01.14-.1,0-.21.01-.31.01h-.03c-.59-.01-1.17-.12-1.73-.31-.56-.23-1.05-.62-1.4-1.11-.05-.08-.1-.15-.15-.23ZM19.61,192.48l-.11.02-.52-2.16.11-.02.06-.02,2.94-.62h.03l3.01-.64h.05s3.02-.64,3.02-.64l.07-.02.24-.05h-.33l-3.17-.05h-.06l-3.15-.04h-.03l-3.08-.05h-.15l-.37-1.86.06-.03.06-.03,2.81-1.28h.03s2.87-1.32,2.87-1.32l.05-.02,2.89-1.31.06-.03.17-.08v-.08l-.19.04-.07.02-3.01.64h-.05s-3,.65-3,.65h-.03s-2.94.64-2.94.64h-.07s-.09.03-.09.03l-.45-2.24.15-.03.07-.02,2.93-.61h.03l3.01-.63h.05s3.02-.64,3.02-.64h.07s2.5-.53,2.5-.53l.75,3.58-2.5,1.07-.06.03-2.9,1.25-.05.02-2.45,1.05v.08l2.68-.02h.05s3.15-.03,3.15-.03h.07l2.75-.03.75,3.58-2.55.53h-.06s-3.02.64-3.02.64h-.05s-3.02.63-3.02.63h-.03s-2.94.61-2.94.61l-.06.02ZM22.11,201.34l-.08.02-1.93-6.7.06-.02.07-.02,2.88-.83h.03s2.96-.86,2.96-.86h.04s2.96-.87,2.96-.87l.07-.02,2.54-.73,1.93,6.47-1.93.6-1.19-4.16-.7.21-.07.02-1.98.58,1.12,3.87-.94.29h-.05s-.96.31-.96.31l-1.11-3.95-2.05.59h-.03s-1.05.31-1.05.31l1.27,4.31-1.8.56-.06.02ZM24.15,207.31h-.03s-.82-2.3-.82-2.3h.03s.06-.03.06-.03l2.82-1.02h.03s2.89-1.04,2.89-1.04l.05-.02,2.9-1.04.07-.02.68-.25-.89-2.46,1.86-.67,2.6,7.22-1.86.75-.9-2.53-.68.24-.06.02-2.9,1.05h-.04s-2.89,1.05-2.89,1.05h-.03s-2.83,1.03-2.83,1.03l-.06.02ZM28.87,218.6l-.07.03-1.11-2.52.07-.07,2.34-2.16h.02s2.39-2.22,2.39-2.22l.04-.04,1.77-1.63-.08-.07-2.03.9-.05.02-2.8,1.24h-.03s-2.75,1.23-2.75,1.23l-.06.02h-.02s-.89-2.06-.89-2.06l.06-.03.06-.02,2.75-1.2h.03s2.81-1.24,2.81-1.24l.05-.02,2.83-1.24.06-.02,2.44-1.07,1.12,2.6-2.1,1.98-.05.05-2.39,2.24-.04.04-1.83,1.72,2.18-.94.05-.02,2.83-1.22.05-.03,2.49-1.07.89,2.01-2.45,1.07-.06.02-2.82,1.24h-.05s-2.82,1.24-2.82,1.24h-.02s-2.76,1.22-2.76,1.22l-.05.02ZM30.86,222.7l-.04.02-.75-1.6-.29-.63.04-.02,2.7-1.33h.02s2.76-1.38,2.76-1.38l.05-.02,2.76-1.36.06-.03,2.47-1.22,1.05,2.16-2.45,1.22-.06.03-2.75,1.38-.05.02-2.74,1.37-.03.02-2.69,1.34-.06.03ZM37.53,228.49l-3.06.74h-.07s-.16.05-.16.05l-.97-1.56.24-.06h.06s3.04-.76,3.04-.76h.03s3.09-.77,3.09-.77h.05s3.12-.78,3.12-.78l.06-.02,3.05-.75.96,1.65-3.04.73h-.06s-3.15.77-3.15.77h-.04s-3.13.76-3.13.76h-.02ZM43.19,237.34l-.02.02-2.48,1.71-.05.03-1.41-2.01.03-.02.05-.04,2.48-1.72h.02s2.52-1.76,2.52-1.76l.04-.03,2.54-1.76.05-.03,2.24-1.56,3.88,5.51-1.64,1.19-2.45-3.57-.66.45-.05.04-1.68,1.14,2.39,3.35-.89.58-.04.02-.79.52-2.31-3.28-1.77,1.22ZM48.53,248.59c-.35-.07-.68-.2-.98-.39,0,0,0-.01-.01-.01-.06-.04-.12-.08-.18-.13-.03-.02-.06-.05-.09-.07-.34-.33-.67-.67-.97-1.03-.3-.39-.57-.79-.82-1.2-.02-.05-.04-.09-.06-.14-.03-.06-.05-.12-.07-.18h0c-.11-.33-.17-.67-.17-1.02-.04-.5.09-1,.37-1.41.24-.42.54-.8.89-1.12.01-.01.02-.01.02-.02.14-.12.29-.24.44-.35l1.96-1.56.03-.03,2.41-1.92.05-.04,2.17-1.73,1.49,1.93-2.17,1.74-.05.04-2.4,1.93-.04.03-1.96,1.58c-.15.11-.29.23-.42.36t-.02.01s-.11.11-.16.16c-.15.22-.29.45-.38.59-.06.22-.08.45-.07.67.03.23.13.44.3.6.14.23.35.41.6.52.19.07.4.07.59,0,.24-.01.48-.09.67-.23l.19-.12h.02s.47-.32.47-.32l1.97-1.57.03-.02,2.41-1.93.04-.04,2.17-1.73,1.56,1.94-2.16,1.68-.05.04-2.43,1.9-.03.03-1.95,1.52c-.15.13-.31.26-.48.36,0,0-.01.02-.02.02-.37.26-.78.45-1.22.59-.49.13-.99.15-1.49.07ZM57.02,252.8v2.76c-.3.07-.59.14-.82.22-.57.1-1.16.05-1.71-.15-.44-.2-.84-.46-1.19-.8-.16-.16-.31-.33-.45-.49l-.27-.3-2.03-2.19-.3-.33h.01s.04-.04.04-.04l2.22-2.04.02-.02,2.27-2.08.03-.03,2.18-2v.04l.11-.11.05-.04,2-1.85,2.68,2.98c.53.48.92,1.11,1.11,1.81.13.54.11,1.1-.07,1.63-.14.38-.32.75-.54,1.1-.01.02-.02.03-.03.05-.12.2-.26.39-.4.57-.52.62-1.08,1.2-1.68,1.74t-.02.02h-.01c-.67.64-1.4,1.21-2.16,1.73-.09.06-.18.11-.27.17h-.02c-.27.17-.53.31-.74.43v-2.78ZM61.51,262.7c-.4-.19-.78-.43-1.13-.71l-.02-.02c-.12-.09-.23-.19-.34-.3l-2.19-2.08-.79-.75.02-.02.03-.03,2.08-2.2v-.02s2.13-2.23,2.13-2.23l.02-.03,2.13-2.25.04-.04.38-.4h0s1.49-1.57,1.49-1.57l2.98,2.82c.35.29.65.64.89,1.03.21.35.36.73.44,1.12.06.4.01.81-.14,1.19-.12.37-.32.72-.58,1.02-.01.02-.02.03-.04.04-.06.08-.13.14-.2.21-.41.42-.92.72-1.49.89-.56.12-1.15.02-1.64-.3v.08c.14.17.25.36.33.56.02.03.03.05.03.08.14.34.19.71.17,1.07-.06.71-.38,1.37-.9,1.86-.1.1-.2.19-.31.28,0,.01-.01.02-.02.01-.22.2-.46.38-.71.53-.13.08-.2.08-.28.14v.02c-.3.15-.63.23-.97.22-.48.03-.96-.04-1.41-.22ZM70.84,270.93l-.02.04-.03.07-1.43-1.21-.5-.43v-.02s1.19-2.28,1.19-2.28l-2.45-2.07-2.04,1.6-.03.03-.78-.66-1.15-.97.02-.02.04-.02,2.53-1.81h.02s2.58-1.86,2.58-1.86l.02-.02,2.58-1.84v-.03l.04-.03,2.34-1.69,2.3,1.94-1.2,2.61-.02.05-1.33,2.89v.03s-1.33,2.88-1.33,2.88v.02s-.8,1.72-.8,1.72l-.55,1.08ZM79.43,265.81l-1.81,2.52-.02.02-1.79,2.5-.02.02-.6.84,3.49,2.53-1.15,1.57-.02.04-.02.02-.89-.65-4.62-3.37.02-.03,1.79-2.45v-.02s1.82-2.49,1.82-2.49l.02-.02,1.82-2.5.03-.04,1.65-2.27,1.94,1.49-1.62,2.25-.02.04ZM84.78,279.75c-.5.02-.99-.04-1.46-.16-.05-.01-.09-.02-.13-.04-.54-.14-1.05-.38-1.51-.7-.57-.27-1.06-.67-1.44-1.17-.02-.03-.05-.06-.07-.09-.24-.34-.43-.71-.56-1.12-.17-.89.01-1.81.53-2.56,0-.01.01-.01.01-.01,0-.04.04-.07.06-.1l.3-.38,2.01,1.27-.04.33c-.06.1-.12.2-.18.3v.02c-.08.13-.14.28-.19.42-.1.18-.13.39-.08.59,0,.22.09.43.23.6.14.23.35.41.6.52.29.22.67.3,1.03.22.37,0,.67-.3.97-.67.01-.02.02-.03.03-.05h0c.12-.2.21-.4.27-.62v-.66c-.11-.26-.23-.51-.37-.75-.16-.22-.37-.52-.67-.9-.33-.35-.61-.75-.82-1.18-.13-.25-.24-.52-.33-.78,0-.02,0-.03,0-.04-.04-.12-.07-.25-.1-.37-.09-.4-.09-.8,0-1.19.11-.44.31-.84.59-1.2.08-.16.17-.31.27-.45.01-.02.02-.03.03-.04.46-.63,1.15-1.08,1.93-1.22,1.01-.14,2.03.13,2.83.75.43.25.83.55,1.19.89.28.33.5.71.67,1.11.14.44.16.9.08,1.35-.04.4-.18.78-.4,1.12,0,.02-.01.03-.02.04-.03.04-.05.08-.08.12l-.16.3-2-1.26c.09-.12.16-.25.22-.39.01-.01.02-.02.02-.04.12-.26.19-.55.2-.84-.02-.39-.25-.73-.6-.89-.19-.16-.41-.27-.66-.3h-.53c-.16.07-.31.17-.44.3-.05.1-.14.21-.22.31-.01.02-.02.03-.02.04-.03.03-.05.06-.06.09-.2.26-.3.58-.3.9.05.41.2.79.45,1.12l1.17,1.69c.2.31.37.63.51.96.02.01.02.02.02.04.03.04.04.08.06.12.14.33.22.68.23,1.03.02.31-.03.61-.14.89-.1.33-.25.63-.46.9-.05.12-.12.24-.19.35v.02c-.5.79-1.33,1.33-2.27,1.46ZM94.45,278.85v.03l-.07,3.44v.02l-.07,3.38v.13l-1.71-.96-.67-.38h0s.09-3.41.09-3.41v-.02l.06-2.15-1.41.82-.25.45v.02s-1.46,2.65-1.46,2.65l-.65-.33-.75-.39-.76-.39.02-.03.02-.04,1.46-2.67v-.02l1.48-2.71v-.02s1.49-2.71,1.49-2.71l.02-.04,1.32-2.41,2.16,1.12-1.34,2.5-.02.03-.96,1.79,2.08-1.17.04-.02,2.95-1.65,2.3,1.28-2.87,1.64-.04.02-2.44,1.39-.02.81ZM101.76,278.99l-.02.04-1.33,2.79v.02s-1.34,2.78-1.34,2.78h-.01s-1.31,2.77-1.31,2.77v.02s-2.17-1.04-2.17-1.04h.01s1.31-2.77,1.31-2.77h0s1.32-2.8,1.32-2.8v-.02s1.34-2.79,1.34-2.79l.02-.03,1.2-2.53,2.17,1.04-1.2,2.52ZM109.89,291.77c-.47.11-.94.15-1.41.12-.03,0-.05,0-.08-.01-.61-.02-1.21-.16-1.77-.41-.59-.17-1.13-.46-1.57-.88-.02,0-.04-.02-.05-.05-.31-.28-.57-.63-.77-1.01-.34-.83-.32-1.77.04-2.59h0s.02-.06.03-.08l.16-.53,2.3.9-.09.34c-.04.09-.07.19-.1.3h0c-.05.16-.09.31-.13.44-.02.2.01.4.07.59.06.2.16.38.3.53.15.22.37.29.67.44.36.15.76.15,1.12,0,.43-.11.75-.46.82-.9h0c.19-.43.19-.91,0-1.33-.12-.22-.27-.42-.45-.6-.22-.22-.52-.52-.81-.74-.42-.33-.79-.71-1.12-1.12-.19-.19-.35-.41-.48-.64t-.01-.02c-.07-.12-.13-.24-.18-.37-.16-.35-.22-.74-.16-1.12.01-.46.11-.92.3-1.33.05-.17.1-.33.18-.48,0-.01,0-.02.01-.03.33-.71.93-1.27,1.67-1.56.95-.36,2-.3,2.91.15.47.16.93.39,1.34.66.35.27.66.6.89.98.24.38.37.81.37,1.26.01.41-.05.82-.19,1.21t-.01.02c-.03.09-.06.17-.1.26l-.07.3-2.23-.82c.08-.18.14-.36.18-.54.01-.01.01-.02.01-.03.06-.26.07-.51.04-.77-.11-.41-.43-.72-.83-.82-.2-.12-.43-.17-.66-.15-.19.02-.36.07-.53.15-.14.08-.26.18-.37.3-.06.11-.11.22-.15.33,0,0,0,0-.01.02-.02.05-.04.11-.06.17-.12.3-.18.64-.15.97.13.39.39.73.74.97l1.49,1.49c.22.27.43.49.62.71,0,.01.01.02.02.03.07.07.13.14.18.22.16.31.28.63.37.97.07.29.09.59.08.89-.07.33-.17.66-.3.97-.03.11-.07.21-.11.31h0c-.35.89-1.06,1.59-1.96,1.93ZM120.99,286.23v.02l-.13,3.18v.02l-.14,3.18h0s-.13,3.15-.13,3.15v.09l-2.08-.65-.29-.09h0s.21-2.68.21-2.68l-.74-.16v.05l-2.38-.74-1.27,2.22h0s-.57-.16-.57-.16l-1.88-.57.03-.05.02-.02,1.66-2.67h.01l1.68-2.7v-.02s1.7-2.7,1.7-2.7l.02-.02.98-1.57v-.05l.53-.89,2.89.89-.12,2.94ZM129.08,291.5l-1.41,2.86h0s-1.4,2.85-1.4,2.85h-.01s-.01.04-.01.04l-3.05-.75v-.03l.04-3.16h0s.03-3.21.03-3.21h0s.04-3.2.04-3.2v-.02l.03-2.82,2.54.6-.14,2.85v.02l-.16,3.16h0s-.15,3.05-.15,3.05l.07.07,1.29-2.82h0s1.32-2.89,1.32-2.89v-.02l1.19-2.6,2.46.6-1.25,2.53v.02s-1.42,2.87-1.42,2.87h-.01ZM137.9,293.1h0s-.18.94-.18.94l-4.03-.67-.34,2.13h0s-.17,1.07-.17,1.07l4.39.82-.29,1.88h0s-.01.05-.01.05l-2.61-.45h-.04s-2.43-.43-2.43-.43l-1.77-.31v-.03h.01s.53-3.05.53-3.05h0s.53-3.05.53-3.05h0s.54-3.06.54-3.06v-.02l.47-2.7,6.7,1.12-.37,2.01-4.24-.75-.14.78v.02s-.38,2.04-.38,2.04l4.02.67-.19.99ZM147.02,290.09l-.62.88h-.01s-2.05,2.93-2.05,2.93h0s-2.04,2.9-2.04,2.9h0s-.72,1.03-.72,1.03l4.62.53-.21,1.91h0s-.01.1-.01.1l-7.29-.82v-.07s.01-.01.01-.01l.13-1.71.87-1.27,1.98-2.88h0s1.99-2.9,1.99-2.9l.52-.76-4.1-.45.23-2.01,6.93.82-.23,1.78ZM159.79,291.48l-.04,3.1-.03,3.1-.04,3.1v.1l-2.38-.07v-.02l.04-3.1.03-2.23-2.83-.08-.06,2.26-.09,3.1v.07l-2.39-.07v-.08l.04-3.1.04-3.1h0s.04-3.1.04-3.1h0s.04-2.76.04-2.76l2.45.08-.04,2.76h0s-.03,1.86-.03,1.86l2.83.07.03-1.88.04-2.81,2.38.08-.03,2.72ZM169.42,296.98c0,.08,0,.17-.01.25h0c0,.61-.16,1.21-.43,1.75-.25.54-.67.99-1.19,1.27-.16.09-.33.18-.5.24h0s-.01,0-.01,0c-.52.22-1.07.34-1.64.34h-.3v.02c-.5.04-.99-.02-1.46-.18h-.01c-.16-.05-.31-.12-.46-.19-.54-.25-.98-.66-1.26-1.19-.34-.49-.56-1.06-.64-1.66-.02-.09-.03-.18-.04-.27-.15-.84-.25-1.68-.3-2.53v-2.54c.02-.28.06-.57.12-.85.07-.39.18-.78.33-1.15.27-.57.68-1.05,1.19-1.42.66-.35,1.41-.53,2.16-.52h.37v-.02c.64-.07,1.28.03,1.86.29.57.28,1.04.72,1.35,1.27.19.37.35.75.47,1.14.01,0,0,.01,0,.01.09.26.15.52.2.79.06.74.18,1.48.2,2.28,0,0,.01,0,0,0,.01.08.01.16.01.24.08.87.08,1.74,0,2.61ZM173.02,290.66l.37,3.08h0s.36,3.08.36,3.08l.37,3.08v.02l-2.46.3v-.07s-.35-3.08-.35-3.08l-.34-3.08-.34-3.08h-.01s-.3-2.75-.3-2.75l6.4-.75.22,2.02-4.01.44.09.79ZM186.47,296.51c-.18.59-.54,1.11-1.03,1.49-.12.09-.24.17-.37.24,0,0-.01,0-.02,0-.49.3-1.04.49-1.62.57-.37.05-.74.08-1.11.07v-1.86c.23.09.49.11.73.06.3-.04.59-.17.82-.37.24-.23.38-.56.37-.89.03-.19.05-.39.05-.59h0c.01-.28,0-.56-.05-.83-.07-.6-.14-1.26-.3-2.06-.01-.06-.02-.13-.04-.19h0c-.13-.73-.27-1.34-.33-1.82-.11-.41-.25-.81-.45-1.19,0,0,.01-.01,0-.01-.02-.05-.04-.09-.07-.14-.14-.27-.34-.5-.6-.67-.07,0-.14,0-.14-.08v-.02c-.27-.07-.55-.07-.82,0-.3.05-.59.18-.83.37-.18.27-.28.58-.29.9-.01.05-.01.09-.02.14-.06.42-.05.86.02,1.28.05.61.13,1.22.26,1.82,0,0-.01,0,0,0,.01.06.02.11.03.17.16.82.3,1.49.38,2.07.06.27.15.52.26.78,0,0-.01,0,0,.01.07.18.16.37.26.55.14.27.34.5.59.67h.16v1.86c-.2.02-.39.01-.58-.02h-.01c-.18-.02-.36-.07-.53-.13-.59-.18-1.11-.54-1.49-1.03-.34-.47-.61-.98-.79-1.53,0,0,0,0,0-.01-.05-.1-.08-.21-.11-.32-.21-.75-.37-1.56-.59-2.46-.02-.08-.04-.16-.04-.23-.01,0,0,0,0,0-.17-.81-.19-1.54-.26-2.29-.03-.27-.04-.54-.02-.8.02-.43.11-.86.25-1.27.17-.58.51-1.1.96-1.49.62-.43,1.33-.71,2.07-.82.37-.06.74-.09,1.12-.08l.02,1.86v-1.84c.38-.03.76.02,1.11.15.58.21,1.1.57,1.49,1.04.24.34.45.7.61,1.08,0,0,.01,0,0,.01.12.25.21.5.28.77.2.74.37,1.48.49,2.23h0c.01.1.03.2.04.29.18.84.31,1.68.37,2.54.01.08.02.17.01.25.05.6-.04,1.2-.24,1.76ZM197.71,295.3l-.02-.07-.79-3h0s-.79-3-.79-3h0s-.79-3-.79-3l-.06-.23h-.08v.26s.13,3.19.13,3.19h0s.12,3.19.12,3.19h0s.12,3.19.12,3.19v.07l-1.78.45-.02-.04h0s-1.47-2.83-1.47-2.83h0s-1.46-2.83-1.46-2.83h-.01s-1.46-2.84-1.46-2.84h0l-.12-.24h-.07l.07.27.79,3h0s.78,3,.78,3h.01l.78,3,.03.11-2.16.59-.05-.19h0s-.8-3-.8-3h0s-.79-2.99-.79-2.99h0s-.8-3.01-.8-3.01l-.68-2.57,3.57-.9,1.23,2.49,1.4,2.83h0s1.23,2.5,1.23,2.5l-.14-2.78h0s-.17-3.17-.17-3.17l-.14-2.76,3.5-.97.66,2.56.78,3v.02s.78,2.99.78,2.99h0s.78,3,.78,3h0s.05.19.05.19l-2.16.52ZM202.03,294.04l-.04-.13h-.01l-1.02-2.92h0s-1.02-2.92-1.02-2.92h-.01s-1.02-2.94-1.02-2.94l-.9-2.56,6.4-2.23.67,1.93-4.09,1.42.24.67.73,2.01,3.8-1.33.31.87v.02s.36.97.36.97l-3.81,1.33.66,1.98h0s.38,1.15.38,1.15l4.25-1.49.62,1.75.04.11-6.55,2.31ZM212.16,290.32l-.04-.11h-.01l-1.17-2.86h-.01s-1.17-2.86-1.17-2.86h-.01s-1.18-2.88-1.18-2.88l-.28-.67-2.46,1.05-.75-1.87,7.15-2.97.74,1.86-2.45,1.03.27.64,1.21,2.85v.02l1.2,2.83h.01s1.21,2.86,1.21,2.86h0s.04.11.04.11l-2.3.97ZM223.02,285.34l-.05-.11-1.37-2.78v-.02s-.96-1.93-.96-1.93l-2.53,1.26.95,1.94h.01s1.36,2.79,1.36,2.79h.01l.05.11-2.15,1.11-.09-.17h0s-1.39-2.78-1.39-2.78v-.02s-1.38-2.75-1.38-2.75h-.01s-1.39-2.78-1.39-2.78l-1.18-2.36,2.23-1.12,1.17,2.43.84,1.74,2.6-1.26-.87-1.76-1.2-2.42,2.16-1.12,1.2,2.4,1.38,2.77v.02s1.38,2.75,1.38,2.75v.02s1.39,2.77,1.39,2.77h.01l.07.15-2.24,1.12ZM232.03,280.34l-.07-.12h-.01s-1.56-2.68-1.56-2.68h-.01s-1.56-2.65-1.56-2.65v-.03s-.73-1.22-.73-1.22l.24,1.51v.02s.54,3.26.54,3.26v.02l.53,3.28.02.1-2.23,1.34-.08-.14h-.01l-1.57-2.67h-.01s-1.57-2.66-1.57-2.66v-.02s-1.59-2.66-1.59-2.66h0s-1.34-2.27-1.34-2.27l2-1.19,1.37,2.32,1.57,2.66v.03s1.01,1.69,1.01,1.69l-.34-2.08v-.02l-.54-3.27-.46-2.82,2.23-1.34,1.34,2.25h0s1.57,2.66,1.57,2.66l.02.02,1.56,2.65h.01s1.58,2.68,1.58,2.68l.1.16-2.01,1.19ZM238.73,276.25l-.11-.33-1.02-3.05v-.02s-1.03-3.04-1.03-3.04v-.03s-1.03-3.05-1.03-3.05h0s-.97-2.91-.97-2.91l1.56-1.12.97,2.9h0s1.03,3.08,1.03,3.08v.02s1.03,3.05,1.03,3.05v.02l1.03,3.07.12.36-1.57,1.05ZM252.8,264.84h.01l.21.25-1.78,1.66-.27-.31-.77-.89c-.65.56-1.41.99-2.23,1.27v-2.14c.22-.08.43-.19.62-.31.04-.02.08-.05.12-.08.1-.06.2-.13.29-.21l-.02-.02h-.01s-1-1.1-1-1.1v-3.49l.67.75.02.03,2.04,2.29h.02s.01.03.01.03c.13-.1.25-.21.35-.34,0,0,.01-.01.01-.02.03-.03.05-.05.06-.08.29-.39.43-.87.39-1.36-.12-.72-.43-1.39-.9-1.94-.07-.06-.13-.12-.2-.18-.01-.01-.02-.02-.03-.03-.21-.19-.43-.37-.66-.54-.27-.18-.57-.3-.89-.37-.3-.07-.6-.07-.9,0v.04c-.36.08-.7.26-.96.52l.96,1.11v3.5l-1-1.15-.02-.03-1.66-1.92c-.28.22-.51.49-.67.81-.12.29-.17.6-.14.9,0,.34.06.67.21.96.14.26.31.52.49.75.01.01.02.02.02.03.05.07.11.14.16.2.44.59,1.05,1.02,1.75,1.25.27.07.55.07.82,0v2.16c-.41.1-.84.12-1.26.07-.3-.03-.6-.09-.88-.17-.01,0-.02-.01-.02-.01-.94-.27-1.77-.83-2.38-1.61-.08-.08-.15-.17-.21-.26,0,0-.02-.01-.02-.02-.32-.4-.57-.86-.74-1.35-.2-.57-.3-1.16-.29-1.76v-.02h0c.07-.58.24-1.14.52-1.64.31-.6.74-1.14,1.26-1.57l-.97-1.19,1.87-1.64.96,1.19c.53-.45,1.13-.8,1.79-1.03.11-.07.24-.12.37-.15l.02,1.02v.03l.02.94v-2.03c.41-.15.86-.21,1.29-.15.01-.01.02,0,.03,0h.02c.61.03,1.19.21,1.71.52.46.22.88.53,1.24.9,0,.01.01.02.02.03.08.08.16.17.23.26.68.7,1.11,1.58,1.27,2.53v.02c.06.31.08.63.07.95-.14,1.28-.81,2.44-1.86,3.2l.82.94ZM259.44,258.55s0,.02-.01.02c-.02.06-.05.12-.08.18-.19.42-.47.8-.81,1.12l-.23.23s-.09.06-.15.07c0,.07-.08.14-.15.23-.07.08-.22.14-.3.21l-.17-.17h0l-1.12-1.09c.19-.15.36-.33.51-.52.3-.29.45-.52.38-.82-.01-.33-.09-.66-.22-.96l-.08-.3-.09-.04h-.02s-3-1.35-3-1.35h-.04s-3.02-1.36-3.02-1.36h-.02s-2.52-1.13-2.52-1.13l1.93-1.93,2.41,1.27h.02s2.84,1.5,2.84,1.5l.03.02.21.11-.12-.2v-.03s-1.6-2.78-1.6-2.78v-.02s-1.33-2.32-1.33-2.32l1.79-1.79,1.19,2.36v.02s1.49,2.92,1.49,2.92v.03s1.46,2.86,1.46,2.86c.01.01.01.02.02.03,0,.01.01.02.01.03.29.57.5,1.07.71,1.5.14.38.21.78.22,1.19.03.31-.01.62-.13.91ZM270.15,250.66l-1.79-1.56-3.87,4.46,1.86,1.56-1.49,1.72-2.03-1.8h-.01s-.64-.58-.64-.58v-.02l-.67-.53.67-.74h0c-.18-.46-.39-.9-.65-1.32,0-.01,0-.02-.01-.03-.04-.1-.1-.19-.16-.29-.3-.48-.65-.93-1.03-1.35-.24-.27-.48-.54-.74-.78-.01-.01-.02-.02-.03-.02-.16-.17-.33-.32-.5-.46-.44-.44-.97-.9-1.48-1.34l-.29-.26h-.02s-1.9-1.67-1.9-1.67l4.54-5.28,1.92,1.6.02.02.37.31v.05l1.92,1.66.03.03,2.32,2h.02s1.03.9,1.03.9l.75-.82,1.27,1.08h.01l2.07,1.75-1.49,1.71ZM273.93,241.45s-.01.03-.01.05c-.02.04-.03.09-.05.13-.2.53-.48,1.03-.82,1.49l-2.23,2.95-.21-.17h-.02l-.74-.58v-3.05l.89.75.52-.72c.2-.21.35-.46.45-.74.11-.2.17-.44.14-.67,0-.26-.1-.5-.29-.67-.09-.13-.19-.25-.3-.36-.01-.01-.02-.01-.02-.02-.11-.1-.23-.2-.35-.29-.28-.26-.65-.42-1.03-.45v-2.45c.35-.02.7.03,1.03.14.54.15,1.05.4,1.49.75.11.08.22.17.32.26.01.01.01.02.01.02h0c.34.3.65.63.92.99.48.8.59,1.77.29,2.64ZM279.82,233.13l-.24-.09h-.03s-2.19-.8-2.19-.8l-1.78,2.75,1.66,1.67h.02s.18.2.18.2l-1.34,2.06-.21-.23h-.01s-2.16-2.36-2.16-2.36h0s-.89-.98-.89-.98v.03l-1.24-1.36-.04-.04-2.11-2.32-.03-.03-1.74-1.91,1.63-2.53,2.46.77h.03s1.09.35,1.09.35v.02l1.89.62.05.02,2.97.98h.02s3.02,1.01,3.02,1.01h.02l.32.11-1.34,2.06ZM284.88,224.3l-.24-.13h-.03s-2.73-1.47-2.73-1.47h-.02s-2.7-1.45-2.7-1.45l-.04-.02-2.69-1.43-.03-.02-.45-.24-1.04,1.86c.16.09.33.17.49.26,0,0,.02.01.03.02,1,.53,1.9,1.02,2.65,1.51.01.01.02.02.03.03.02.01.05.02.07.04.89.6,1.72,1.03,2.32,1.42.07.05.14.11.21.16,0,0,.02.01.02.02.44.33.86.69,1.26,1.08.29.32.52.7.66,1.11.07.17.12.35.12.53.01.01.01.03,0,.04.02.16,0,.31-.04.47-.06.39-.19.77-.37,1.11-.12.16-.22.34-.3.52-.16.16-.23.3-.3.37l-.31-.16h-.02s-1.53-.8-1.53-.8c.07-.08.07-.15.14-.23l.08-.07c.06-.18.14-.35.22-.52,0-.18-.02-.36-.07-.52-.2-.27-.43-.52-.67-.75-.02-.02-.04-.03-.06-.05,0,0,0-.01-.02-.01-.42-.36-.87-.69-1.34-.97l-1.2-.75-.04-.03-1.14-.71c-.46-.23-.96-.51-1.5-.81-.01-.01-.02-.01-.03-.02-.66-.37-1.38-.77-2.19-1.17l3.28-6.11,2.17,1.17h.03s2.68,1.46,2.68,1.46l.04.02,2.69,1.45h.02s2.73,1.48,2.73,1.48h.03s.25.15.25.15l-1.12,2.16ZM288.76,216.69c-.27.72-.7,1.36-1.27,1.87-.03.02-.05.03-.08.05-.02.01-.04.02-.06.03-.47.29-1.01.47-1.57.52-.67,0-1.34-.09-1.98-.28h-.02s-.05,0-.07-.02c-.81-.28-1.6-.6-2.38-.98-.13-.06-.25-.12-.38-.18-.02,0-.03-.01-.05-.02-.66-.3-1.32-.61-1.87-.91-.28-.18-.54-.37-.79-.57t-.02-.02c-.27-.24-.52-.48-.75-.75-.37-.5-.6-1.09-.67-1.71-.02-.76.16-1.5.51-2.16.22-.68.63-1.27,1.19-1.71.44-.32.95-.53,1.49-.6.44-.05.88-.02,1.3.1.02.01.03.01.04.01.05.02.1.03.15.05.44.12.87.29,1.27.51l-.97,2.24c-.46-.24-.95-.4-1.46-.47-.01,0-.02,0-.03,0-.12-.03-.24-.04-.37-.05-.52,0-.82.29-1.04.82-.13.22-.15.49-.07.74.09.28.25.51.48.7.01.01.02.01.03.02s.01.01.02.02c.35.33.75.61,1.19.82.39.23.88.46,1.42.72.01.01.03.01.05.02.15.08.3.15.46.23.75.38,1.56.66,2.07.82.1.04.19.08.29.12t.02.01s0-.01,0,0c.33.1.67.16,1.01.17.26,0,.51-.05.75-.16.21-.14.36-.34.44-.58.1-.19.15-.4.16-.6-.01-.22-.09-.44-.23-.6-.18-.26-.41-.49-.67-.67-.09-.07-.18-.13-.28-.19,0-.01-.01-.01-.02-.02-.35-.23-.72-.44-1.11-.61l.96-2.24c.39.17.76.36,1.12.58t.02.01c.2.12.39.25.58.39.46.27.84.66,1.12,1.11.28.42.42.91.43,1.41.01.03.01.05.01.08.08.67-.06,1.35-.38,1.93ZM292.92,205.97l-.33.04h-.05l-3.42.37h-.03l-1.75.19,1.05,1.35.1.04h.03s2.9,1.1,2.9,1.1l.04.02.27.1-.89,2.3-.29-.11h-.03s-2.9-1.1-2.9-1.1h-.03s-2.86-1.08-2.86-1.08l-.05-.02-2.84-1.06-.04-.02-2.28-.85.82-2.3,2.36.89h.04s2.14.82,2.14.82v-.08l-1.61-2.14-.03-.04-1.78-2.36.97-2.53,1.73,2.32.03.05,1.89,2.54.44-.05h.06s3.39-.43,3.39-.43h.03l3.41-.42h.05s.44-.06.44-.06l-.98,2.52ZM295.83,196.75l-.27-.08h-.04s-2.97-.88-2.97-.88h-.03s-2.94-.87-2.94-.87h-.04s-1.08-.33-1.08-.33l.96.73.04.03,2.62,1.99.02.02,2.64,2,.04.03.23.18-.74,2.54-.31-.09-.05-.02-2.97-.87h-.03s-2.93-.88-2.93-.88h-.04s-2.91-.87-2.91-.87h-.04s-2.34-.7-2.34-.7l.67-2.23,2.36.71h.05s2.89.88,2.89.88h.05s2.09.64,2.09.64l-1.85-1.42-.04-.03-2.58-1.97-.04-.03-2.11-1.61.74-2.53,2.32.69h.05s2.9.86,2.9.86l.04.02,2.94.87h.03l2.97.88h.04s.33.11.33.11l-.67,2.23ZM298.95,184.47c-.11.73-.42,1.43-.89,2-.01.02-.03.04-.04.05-.02.03-.04.05-.08.08-.35.42-.83.74-1.37.91-.65.17-1.34.21-2.01.14h-.05c-.75-.07-1.64-.14-2.53-.3-.17-.03-.33-.06-.49-.09-.01,0-.03-.01-.04-.01-.69-.14-1.33-.31-1.93-.49-.33-.12-.65-.27-.97-.43-.01-.01-.03-.02-.05-.02-.29-.16-.57-.33-.84-.52-.51-.36-.87-.89-1.03-1.49-.21-.72-.24-1.49-.07-2.23.1-.7.38-1.37.81-1.93.33-.41.77-.72,1.27-.89.39-.13.8-.21,1.21-.22.02-.01.04-.01.06-.01h.22c.52.07.96.14,1.41.23l-.45,2.37c-.51-.13-1.05-.17-1.58-.12-.02,0-.04,0-.06.01-.12,0-.24.02-.36.04-.43.17-.73.57-.75,1.04-.08.24-.06.52.08.74.16.22.35.42.57.58.01.02.03.03.05.04.02.02.03.03.05.04.46.19.93.34,1.41.46.48.15.96.28,1.45.38.01.01.02.01.04.01.19.04.38.08.58.12.9.15,1.65.23,2.24.3.07.01.13.01.2.01.01.01.02.01.03,0,.36.03.74.02,1.11-.01.27-.06.53-.19.74-.37.11-.21.18-.44.22-.67.08-.19.08-.41,0-.6-.02-.22-.12-.43-.29-.59-.28-.18-.58-.33-.9-.44-.11-.05-.22-.1-.34-.14-.01-.01-.02-.01-.03-.01-.36-.14-.73-.24-1.12-.31l.45-2.38c.36.06.72.14,1.07.24.01-.01.02,0,.03,0,.23.05.46.12.69.2.53.19,1.01.5,1.41.9.31.27.55.6.7.98.02.04.03.07.04.11.03.08.06.16.08.24.18.67.2,1.36.05,2.04ZM300.44,172.85l-.34.03h-.07l-2.2.19-.37,3.21,2.08.75.07.03.31.11-.3,2.53-.37-.15-.05-.02-2.96-1.2h-.03s-2.91-1.19-2.91-1.19l-.05-.02-.25-.1-2.63-1.06-.06-.02-2.3-.93.3-2.98,2.5-.36h.06s2.13-.31,2.13-.31l.94-.13h.05l3.1-.42h.03l3.14-.43h.07s.41-.06.41-.06l-.3,2.53ZM301.04,164.66l-.16,4.13-.42-.02h-.07l-3-.12v-.04h-.12s-3.05-.14-3.05-.14h-.05l-1.95-.09h0s-1.05-.06-1.05-.06h-.07l-2.37-.15.21-4.02c0-.48.08-.96.23-1.41.09-.39.26-.74.52-1.04s.59-.53.97-.66c.26-.09.53-.15.8-.19.02,0,.05,0,.07-.01.21-.02.41-.03.62-.03h.07v-.02c.57.03,1.12.24,1.56.6.31.21.56.51.72.84.02.03.03.07.05.11.06.14.1.3.13.46h.07c.11-.61.45-1.15.94-1.51.49-.37,1.1-.55,1.7-.52v-.05h.3c.45,0,.9.08,1.33.22.44.13.83.39,1.12.74.26.26.45.56.58.9.02.06.04.12.06.19,0,.04.02.07.03.11.25.56.32,1.18.23,1.78ZM289.13,159.16l-.07-6.7h2v4.31h2.91l-.07-4.02.55-.02h.01l1.44-.05v4.09h3.28v-4.54h2v6.93h-12.05Z"/>
      <path class="cls-1" d="M266.07,79.67l-.03.02-.96.71.53.74c.28.44.7.78,1.19.97h.3c.2-.01.39-.05.57-.12.02-.01.03-.01.04-.02.21-.07.4-.18.58-.31.23-.16.43-.36.59-.59.14-.2.22-.43.22-.67.05-.23.03-.47-.07-.68-.07-.14-.23-.37-.37-.59l-.6-.89-.96.67-1.03.76Z"/>
      <path class="cls-1" d="M239.18,47.27c.07,0,.15,0,.15-.07.5-.06.95-.37,1.19-.82.16-.2.29-.42.37-.66.09-.22.14-.45.15-.68-.09-.5-.39-.93-.82-1.19l-.82-.6-.22.44v.03l-.36.5h0s-1.5,2.11-1.5,2.11l.83.57c.3.22.66.35,1.03.37Z"/>
      <polygon class="cls-1" points="117.69 287.36 117.13 288.33 117.12 288.34 116.27 289.82 117.69 290.19 117.69 290.14 118.59 290.46 118.74 288.83 118.74 288.82 119.04 285.67 119.04 285.65 119.11 284.88 119.03 284.88 118.67 285.53 118.66 285.55 117.69 287.34 117.69 287.36"/>
      <path class="cls-1" d="M166.97,294.31h0c0-.64-.07-1.26-.15-1.87-.04-.41-.12-.81-.25-1.21h-.01s-.02-.1-.04-.14c-.11-.3-.32-.56-.59-.74-.16-.15-.38-.23-.6-.23v-.03h-.22c-.32-.02-.65.09-.9.3-.24.21-.4.5-.44.82-.01.05-.03.11-.04.16-.1.39-.15.78-.19,1.18,0,.57.07,1.18.08,1.93v.14c0,.81.08,1.56.15,2.07.04.3.11.6.18.88.05.2.09.38.12.53.13.3.33.55.59.75.22.09.44.17.67.23v.03h.23c.29-.05.56-.15.81-.3.24-.23.41-.51.52-.82.05-.19.08-.38.1-.58.04-.28.06-.56.06-.84,0-.6,0-1.27-.08-2.06v-.2Z"/>
    </g>
  </g>
</svg>