<?xml version="1.0" encoding="UTF-8"?>
<svg fill="#e8718b" id="Layer_2" data-name="Layer 2" xmlns="http://www.w3.org/2000/svg" viewBox="0 0 56.24 79.99">
  <defs>
    <style>
      .cls-1 {
        fill:#e8718b;
      }
    </style>
  </defs>
  <g id="Layer_1-2" data-name="Layer 1">
    <g>
      <polygon class="cls-1" points="25.27 8.84 25.46 8.84 28.09 6.87 30.76 8.84 30.95 8.84 29.89 5.51 32.59 3.47 32.59 3.33 29.21 3.33 28.15 0 28.03 0 27 3.33 23.62 3.33 23.62 3.47 26.3 5.51 25.27 8.84"/>
      <polygon class="cls-1" points="38.17 12.36 38.36 12.36 41.02 10.39 43.66 12.36 43.85 12.36 42.81 9.03 45.49 6.99 45.49 6.85 42.11 6.85 41.08 3.52 40.96 3.52 39.9 6.85 36.52 6.85 36.52 6.99 39.22 9.03 38.17 12.36"/>
      <polygon class="cls-1" points="1.64 20.24 1.83 20.24 4.47 18.27 7.13 20.24 7.33 20.24 6.26 16.92 8.97 14.87 8.97 14.73 5.59 14.73 4.53 11.41 4.41 11.41 3.38 14.73 0 14.73 0 14.88 2.67 16.92 1.64 20.24"/>
      <polygon class="cls-1" points="48.89 20.24 49.08 20.24 51.72 18.27 54.38 20.24 54.57 20.24 53.51 16.92 56.21 14.87 56.21 14.73 52.83 14.73 51.78 11.41 51.66 11.41 50.63 14.73 47.25 14.73 47.25 14.88 49.92 16.92 48.89 20.24"/>
      <polygon class="cls-1" points="12.39 12.36 12.58 12.36 15.22 10.39 17.88 12.36 18.07 12.36 17.02 9.03 19.72 6.99 19.72 6.85 16.34 6.85 15.28 3.52 15.16 3.52 14.13 6.85 10.75 6.85 10.75 6.99 13.43 9.03 12.39 12.36"/>
      <path class="cls-1" d="M37.51,58.11l-3.77-3.77c-.52-.53-.82-1.24-.82-1.99v-3.6h3.6c.75.01,1.46.3,1.99.83l3.75,3.77h.17v-4.59h4.43v-4.79h-4.43v-9.39h-.17l-3.75,3.77c-.53.53-1.24.83-1.99.83h-3.6v-3.61c0-.74.3-1.45.82-1.98l3.77-3.77v-.16h-4.6v-11.02c-.34-.12-.7-.22-1.06-.31-.14-.04-.28-.07-.42-.1-.09-.02-.17-.03-.26-.05-.15-.03-.31-.06-.46-.08-.3-.05-.6-.09-.92-.11-.22-.03-.44-.04-.67-.05-.33-.02-.66-.03-1-.03v11.75h-9.37v.16l3.77,3.77c.52.53.82,1.24.82,1.98v3.6h-3.61c-.75,0-1.47-.29-1.99-.82l-3.76-3.77h-.16v4.59h-4.43v4.8h4.43v9.38h.16l3.76-3.77c.52-.53,1.24-.83,1.99-.83h3.61v3.6c0,.75-.3,1.46-.82,1.99l-3.77,3.77v.16h4.58v12.48c.54.29,1.08.6,1.6.92.29.18.58.37.87.56l.03.03c.34.22.67.46,1,.7.06.04.11.09.17.13.38.29.75.58,1.12.89v-15.71h9.39v-.16ZM24,47.48c-.22.01-.41.01-.57.02h-1.29c-.6,0-1.11-.05-1.52-.16-.42-.1-.76-.28-1.02-.51-.27-.26-.47-.59-.57-.96-.12-.39-.18-.89-.18-1.47v-.88c0-.56.06-1.04.18-1.43.12-.4.31-.72.58-.96.26-.24.6-.42,1.01-.54.41-.11.92-.16,1.51-.16h1.41c.2.01.43.01.7.02l-.3,1.62c-.27-.01-.53-.02-.8-.02h-.88c-.3,0-.53.02-.72.06-.16.03-.31.11-.43.23-.12.12-.19.28-.21.45-.04.24-.06.49-.06.73v.89c0,.3.02.54.06.73.04.19.11.34.22.45.1.11.25.19.43.23.19.04.42.06.71.06h1.36c.19-.01.41-.01.68-.02l-.3,1.62ZM31.22,45.53c0,.69-.21,1.19-.62,1.49-.42.31-1.04.46-1.87.46h-3.46v-7.03h3.59c.76,0,1.3.14,1.64.44.34.29.51.73.51,1.31v.13c0,.68-.27,1.15-.82,1.42.33.12.58.32.76.58s.27.6.27,1.02v.18ZM32.07,40.45h5.32l-.29,1.54h-3.17v1.36h3l-.27,1.49h-2.73v2.64h-1.86v-7.03Z"/>
      <path class="cls-1" d="M29.02,43.04c.11-.1.16-.25.16-.47v-.1c0-.21-.05-.36-.16-.45-.1-.09-.28-.13-.54-.13h-1.44v1.29h1.41c.27,0,.46-.04.57-.14Z"/>
      <path class="cls-1" d="M28.52,44.53h-1.48v1.51h1.51c.3,0,.52-.05.64-.14.13-.1.19-.28.19-.54v-.13c0-.28-.06-.46-.19-.56-.13-.09-.35-.14-.67-.14Z"/>
      <path class="cls-1" d="M5.11,43.96h3.4v-6.74c0-.4-.01-.79-.04-1.19-.03-.37-.06-.74-.11-1.11s-.11-.74-.18-1.11c-.15-.73-.34-1.44-.57-2.14-.07-.2-.14-.39-.22-.58-.09-.27-.2-.54-.32-.8-.24-.58-.53-1.15-.84-1.7,1.01-.36,1.95-.78,2.83-1.24,1.76-.93,3.28-2.02,4.68-3.13.7-.56,1.38-1.12,2.03-1.67,1.14-.97,2.22-1.87,3.32-2.64.17-.12.33-.24.5-.34.17-.12.34-.23.52-.33.43-.28.87-.52,1.32-.74.25-.12.51-.24.77-.35.04-.02.08-.04.12-.05.33-.14.66-.26,1.01-.37v-3.54c-9.39,2.36-11.82,11.38-23.33,12.22,1.57,1.29,2.84,2.91,3.73,4.74.91,1.89,1.39,3.97,1.38,6.07v6.74Z"/>
      <path class="cls-1" d="M42.33,19.66c-3.66-3.08-7.38-6.03-14.21-6.03v3.4h0c.72,0,1.4.05,2.05.12.63.07,1.24.18,1.81.32.29.07.57.15.84.23.09.03.19.06.28.1.33.1.65.22.96.36.11.04.21.08.31.13.24.11.48.22.72.35h0c.24.13.47.26.69.39h.01c.23.14.46.28.68.42.45.29.89.61,1.33.94.22.16.44.33.66.51.65.52,1.31,1.07,2,1.65.4.34.84.69,1.26,1.04.1.08.2.16.29.24.17.13.32.26.48.39.17.14.35.27.52.41.04.02.07.05.1.08.02,0,.03,0,.04.02.02.01.04.03.05.04.03.02.07.05.1.07.02.02.04.03.06.05h.01s.04.04.06.05c0,0,.02.01.02.02.04.03.07.06.11.08.03.02.07.05.1.07-.05-.03-.09-.07-.14-.11.5.37,1.02.74,1.56,1.1-.49-.32-.96-.65-1.42-.99.46.34.94.68,1.44,1,0,0,0,0,.02.01.11.07.22.14.33.21.55.36,1.12.7,1.73,1.02.88.46,1.82.88,2.83,1.24-.76,1.34-1.34,2.77-1.73,4.25-.09.33-.16.67-.23,1.01-.22,1.11-.33,2.23-.33,3.37v1.95h3.41v-1.95c0-4.35,1.99-8.24,5.11-10.81-6.63-.48-10.24-3.68-13.91-6.75ZM38.98,21.32c.15.12.31.25.48.38.1.08.2.17.3.25-.26-.21-.52-.42-.78-.63Z"/>
      <path class="cls-1" d="M47.72,56.42c0,1.67-.27,3.29-.79,4.81-.21.61-.46,1.2-.75,1.77-.15.28-.3.56-.47.83-.12.19-.23.38-.35.56,0,.01-.01.01-.01.02-.09.13-.18.26-.27.38-.04.06-.08.11-.12.16-.13.17-.26.33-.4.49h.01s-.04.05-.06.07c.02-.02.04-.04.05-.07-.13.16-.27.31-.41.45-.12.13-.26.26-.39.39-.02,0-.04.03-.05.04-.14.13-.27.24-.41.35-.15.12-.3.24-.45.35-.24.17-.48.33-.73.48-.16.1-.32.19-.48.28-.16.1-.33.19-.51.27-.94.48-1.98.9-3.12,1.36h-.01c-.39.16-.78.32-1.19.49-.73.3-1.49.63-2.27,1.01-.21.09-.41.2-.62.3-.11.06-.23.12-.34.18h0c-.08.03-.17.08-.26.13-.04.02-.08.04-.11.06.02-.01.05-.03.07-.04-.12.06-.25.13-.37.2h0s0,.01,0,.01v3.99s0,0,0-.01c2.26-1.5,4.46-2.38,6.54-3.23,3.52-1.42,6.68-2.75,9.19-6.91,1.66-2.76,2.49-5.95,2.49-9.17v-12.45h-3.41v12.45Z"/>
      <path class="cls-1" d="M21.09,70.62c-.2-.09-.4-.18-.59-.26-.4-.18-.78-.34-1.16-.5-.38-.15-.75-.3-1.11-.45-2.5-1.01-4.48-1.81-6.14-3.52-.14-.14-.28-.29-.41-.45-.1-.12-.2-.24-.3-.36-.29-.38-.57-.79-.85-1.25-.17-.27-.32-.55-.47-.83-.29-.57-.54-1.16-.75-1.77-.53-1.52-.8-3.14-.8-4.81v-7.66h0s-3.4-.01-3.4-.01h0v7.67c0,3.22.83,6.41,2.5,9.17,5.01,8.33,12.65,5.31,20.5,14.4v-4.86c-.88-.79-1.76-1.47-2.63-2.06-1.51-1.04-2.99-1.81-4.39-2.45Z"/>
    </g>
  </g>
</svg>