<?xml version="1.0" encoding="UTF-8"?>
<svg fill="#e8718b" id="Layer_2" data-name="Layer 2" xmlns="http://www.w3.org/2000/svg" viewBox="0 0 272.2 385.96">
  <defs>
    <style>
      .cls-1 {
        fill:#e8718b;
      }
    </style>
  </defs>
  <g id="Layer_1-2" data-name="Layer 1">
    <g>
      <path class="cls-1" d="M270.63,9.64c-.24-.05-24.58-4.75-59.36-7.34C177.02-.26,137.92.15,136.41.17c-1.31-.04-32.31-.86-70.06,1.54C27.93,4.15,1.81,9.59,1.55,9.65l-1.55.32.39,191.41c-.1,2.23-2.22,54.92,16.58,91.89,15.23,29.96,46.79,53.5,70.57,67.98,25.69,15.63,48.12,24.36,48.35,24.44l.69.27.7-.26c.22-.09,22.81-8.67,48.45-24.31,23.75-14.48,55.1-38.16,69.53-68.75,15.64-33.13,16.9-88.41,16.94-90.79V9.95l-1.57-.31ZM268.31,201.82c-.01.56-1.29,56.79-16.57,89.16-25.62,54.27-106.77,87.5-115.14,90.8-3.96-1.58-24.21-9.97-47.09-23.9-23.34-14.2-54.26-37.25-69.07-66.37C2.11,255.46,4.26,202.09,4.28,201.47L3.9,13.15c6.12-1.18,29.87-5.46,62.69-7.55,38.2-2.43,69.43-1.55,69.74-1.54h.09c.39,0,39.98-.46,74.56,2.12,29.52,2.21,51.43,5.93,57.33,6.99v188.65Z"/>
      <polygon class="cls-1" points="59.26 94.92 57.72 90.62 56.37 95.02 51.51 95.08 55.45 97.68 53.87 102.38 57.78 99.36 61.53 102.38 60.12 97.81 63.9 95.08 59.26 94.92"/>
      <polygon class="cls-1" points="36.52 97.68 34.94 93.34 33.63 97.78 28.77 97.81 32.68 100.44 31.13 105.14 35.04 102.08 38.79 105.14 37.34 100.57 41.12 97.85 36.52 97.68"/>
      <polygon class="cls-1" points="127.75 90.68 126.18 86.34 124.86 90.78 120 90.85 123.91 93.41 122.36 98.11 126.27 95.08 130.02 98.11 128.57 93.57 132.35 90.85 127.75 90.68"/>
      <polygon class="cls-1" points="169.69 94.3 168.11 99 172.02 95.94 175.77 99 174.32 94.43 178.13 91.7 173.5 91.54 171.96 87.2 170.61 91.63 165.74 91.7 169.69 94.3"/>
      <polygon class="cls-1" points="99.46 98.83 103.37 95.81 107.11 98.83 105.67 94.3 109.48 91.57 104.85 91.4 103.3 87.07 101.95 91.5 97.09 91.57 101.03 94.13 99.46 98.83"/>
      <polygon class="cls-1" points="150.76 90.68 149.18 86.34 147.87 90.78 143 90.85 146.91 93.41 145.37 98.11 149.28 95.08 153.03 98.11 151.58 93.57 155.36 90.85 150.76 90.68"/>
      <polygon class="cls-1" points="82.01 92.78 80.49 88.45 79.15 92.85 74.25 92.92 78.19 95.51 76.65 100.21 80.53 97.19 84.31 100.21 82.86 95.64 86.67 92.95 82.01 92.78"/>
      <polygon class="cls-1" points="219.21 95.22 217.67 90.88 216.32 95.31 211.46 95.38 215.4 97.98 213.86 102.68 217.74 99.62 221.48 102.68 220.07 98.11 223.85 95.38 219.21 95.22"/>
      <polygon class="cls-1" points="241.82 98.04 240.28 93.7 238.93 98.14 234.07 98.17 238.01 100.8 236.47 105.47 240.35 102.45 244.09 105.47 242.68 100.93 246.46 98.21 241.82 98.04"/>
      <polygon class="cls-1" points="196.41 93.05 194.86 88.71 193.51 93.15 188.65 93.21 192.56 95.81 191.02 100.51 194.93 97.45 198.67 100.51 197.23 95.94 201.01 93.21 196.41 93.05"/>
      <path class="cls-1" d="M29.69,79.98c1.59-.07,7.76-.94,7.76-.94,0,0,1.12,0,1.26-1.81.15-1.8.15-15.92.15-15.92,0,0-.03-2.61,2.92-2.9,2.46-.23,20.98-2.12,20.98-2.12,0,0,1.52-.29,1.59-1.52.07-1.23.07-5.99.07-5.99,0,0,.07-1.23-1.66-1.09-2.02.17-21.6,2.1-21.6,2.1,0,0-2.17.14-2.39-1.88-.22-2.02.08-7.22.08-7.22,0,0,.43-2.39,2.89-2.6,2.46-.21,21.6-2.17,27.59-2.53l23.91-1.52s1.52-.36,1.59-1.74c.07-1.37.15-5.19.15-5.19,0,0-.58-1.52-1.74-1.45,0,0-15.96.58-27.08,1.59-11.13,1.01-21.82,2.02-21.82,2.02,0,0-8.23.58-12.35,6.08-4.12,5.48-3.47,10.4-3.47,10.4l-.15,32.72s-.29,1.59,1.31,1.52Z"/>
      <path class="cls-1" d="M117.3,73.12c4.77.07,20.22-.07,24.92-.07s24.56.36,24.56.36c0,0,1.81-.07,1.81-1.37v-5.63s.14-1.59-1.52-1.59-24.42-.37-28.46-.51c-6.52-.03-13.05.05-19.57.22,0,0-3.25.21-3.32-2.61-.08-2.82,0-26.79,0-26.79,0,0,0-2.39,2.74-2.53,2.75-.15,18.06-.29,22.97-.15,4.9.14,25.43.51,25.43.51,0,0,1.52.15,1.67-1.52.14-1.66.07-5.48.07-5.48,0,0,.22-1.3-1.37-1.52-1.59-.22-25.51-.72-29.4-.72s-20.08.43-20.08.43c0,0-7.03.01-10.88,5.48-3.14,4.49-3.14,5.72-3.28,9.68-.15,3.98-.15,19.36-.15,19.36,0,0-.13,5.26,3.55,9.32,1.73,1.91,5.55,5.05,10.33,5.12Z"/>
      <path class="cls-1" d="M184.47,30.72c-3.61,3.9-3.54,7.36-3.68,8.88-.14,1.52-.15,33.44-.15,33.44,0,0-.14,1.67.94,1.81,1.09.15,8.16.65,8.16.65,0,0,1.45,0,1.59-1.59.14-1.59,0-15.38,0-15.38,0,0-.1-3.14,3.07-3.03,1.81.06,20.83,1.59,20.83,1.59,0,0,1.67.29,1.88-1.23s.22-5.43.22-5.43c0,0,.36-1.51-1.66-1.8-2.03-.29-21.17-1.67-21.17-1.67,0,0-2.99-.21-3.07-2.09-.07-1.88.05-7.51.05-7.51,0,0,.86-2.24,3.1-2.1,7.81.54,15.61,1.15,23.41,1.81,9.04.97,18.07,2.05,27.08,3.25,0,0,1.96.51,2.03-1.08.07-1.59.14-5.7.14-5.7,0,0-.17-1.52-1.62-1.77,0,0-20.12-2.63-29.29-3.43-9.18-.79-20.44-1.37-20.44-1.37,0,0-7.8-.15-11.42,3.76Z"/>
      <path class="cls-1" d="M200.22,111.12c-12.35-.8-23.91-1.16-38.49-.22-12.34.75-24.59,2.54-36.63,5.34-8.81,2.17-13.21,4.05-13.21,4.05,0,0-5.93-4.99-10.55-7.44-4.63-2.46-8.88-4.63-15.53-5.35-6.64-.72-12.43,0-15.82,1.16-3.4,1.15-4.12,1.81-4.12,1.81,0,0,3.47,3.02,4.85,6.64,1.37,3.61,2.6,9.24,1.95,15.39-.65,6.14-3.26,17.04-3.26,17.04,0,0-5.35,5.92-8.44,13.66-3.11,7.72-4.2,13.06-4.27,14.8s-.07,3.4-.07,3.4c0,0-14.84,5.43-21.89,8.95-11.56,5.77-20.15,12.06-20.15,12.06,0,0,13.22-4.04,17.49-5.06,4.25-1.01,12.84-3.24,16.68-3.89,3.84-.65,8.3-1.52,8.3-1.52,0,0,2.97,8.02,7.51,14.44,4.56,6.44,8.59,11.12,12.35,14.09,3.76,2.96,5.72,4.56,5.72,4.56,0,0-4.05-8.18-5.14-14.67-1.08-6.5-.14-14.67,1.95-19.94,2.09-5.28,8.02-15.97,17.63-23.4,9.6-7.44,22.75-14.52,32.36-18.27,9.6-3.76,26.94-9.39,36.69-10.62,9.76-1.23,20.65-1.96,28.75-.73,8.09,1.23,15.16,3.04,18.35,5.43,3.18,2.37,4.25,4.61,4.25,4.61,0,0,13.58-5.77,20.23-9.1,6.65-3.32,11.66-6.89,14.01-9.24,2.24-2.24,3.26-3.18,1.88-5.06-1.07-1.46-2.89-2.45-2.89-2.45,0,0-4.27-2.68-14.37-4.84-10.11-2.17-23.76-4.84-36.12-5.63ZM175.44,128.24c-1.8,1.5-4.19,1.58-6.71,1.07-2.53-.51-8.46-4.98-8.46-4.98l17.56.58c-.5,1.29-1.32,2.44-2.39,3.33ZM178.05,118.98c-9.17-.36-21.75.66-34.75,2.32-12.99,1.66-23.54,5.56-34.52,9.75-10.98,4.18-19.71,10.76-27.09,16.75-6.99,5.69-13.85,15.54-14.54,16.54.38-.71,3.07-5.64,5.08-8.58,2.17-3.18,7.14-8.97,12.71-14.38,5.56-5.41,16.83-11.78,16.83-11.78,0,0-1-4.46-4.4-8.08s-6.15-4.78-11.42-6.79c-5.27-2.03-11.26-2.46-11.26-2.46,0,0,3.97.07,7.22.29,6.37.72,12.59,2.45,18.41,5.12,6.73,3.26,10.69,7.73,10.69,7.73,0,0,20.24-4.91,28.4-6.21,8.16-1.3,25.7-2.38,34.95-1.95,8.78.41,17.55,2.32,18.42,2.52-.65-.04-6.13-.44-14.73-.79Z"/>
      <path class="cls-1" d="M233.08,143.19c-4.19,1.73-24.34,10.47-33.15,14.16-8.81,3.68-28.17,11.34-28.17,11.34l.15,22.9,42.9-2.32s-15.1,5.7-22.32,8.74c-7.22,3.04-20.66,9.32-20.66,9.32l-.07,129.22s14.09-9.32,20.37-14.38,18.78-15.47,23.77-21.24c4.99-5.77,12.64-15.96,17.62-29.18,4.99-13.22,7.22-23.84,8.37-38.57,1.16-14.74,2.03-31.42,2.1-44.57s-.07-50.63-.07-50.63c0,0-6.64,3.47-10.84,5.21Z"/>
      <path class="cls-1" d="M199.04,192.71s-15.36.68-18.2.87c-2.84.17-10.49.77-10.49.77,0,0-.44,3.42-1.59,6.89-1.16,3.47-2.79,6.5-2.79,6.5,0,0,10.49-5.58,14.83-7.47s18.25-7.56,18.25-7.56Z"/>
      <path class="cls-1" d="M167.65,183.45c-1.74-3.8-5.16-7.12-8.2-8.61-3.04-1.5-4.9-2.31-4.9-2.31l33.37-12.76,7.36-2.93c.49-.2,2.37-1.65.49-3.04-1.88-1.39-5.83-1.88-9.05-2.03-6.55-.11-13.1.27-19.59,1.11-7.9,1.06-17.58,3.76-24.85,6.02-7.88,2.51-15.63,5.42-23.21,8.72-6.64,2.93-10.46,5.1-18.2,11.51-7.76,6.4-10.93,12.28-12.96,17.24-2,5.08-2.5,10.62-1.44,15.98,1.01,5.63,3.51,11.22,5.54,14.55,2.02,3.32,4.95,7.51,6.25,8.48s2.7,1.92,2.7,1.92c0,0,0,8.95,2.75,21.85,2.75,12.92,5.48,18.49,8.57,25.71,3.08,7.22,9.01,16.28,9.01,16.28,0,0-1.5-11.27-1.5-16.46s.82-16.52,2.7-23.21c1.88-6.69,6.31-18.63,11.36-25.81,5.05-7.18,13.53-15.32,17.09-17.82,3.57-2.5,8.52-6.02,8.52-6.02,0,0-.9-3.18-3.22-5.92-2.04-2.33-4.42-4.32-7.07-5.92-1.59-.92-2.46-1.39-2.46-1.39,0,0-8,2.11-13.73,4.38-5.2,2.07-10.24,4.53-15.07,7.36-3.22,1.97-8.86,6.21-8.86,6.21,0,0-3.41-5.53-3.62-9.15-.34-5.83,1.92-10.06,3.18-12.34,1.23-2.2,4.49-5.1,4.49-5.1,0,0,9,.67,14.58,1.63s14.02,2.84,18.31,4.82c4.29,1.98,7.41,3.76,10.25,6.49s3.8,4.96,4.24,6.26c.44,1.3.72,3.66.72,3.66,0,0,4.86-7.36,6.69-13.68s1.5-11.88-.23-15.7Z"/>
      <path class="cls-1" d="M120.84,205.73s5.99-3.4,10.4-4.99c4.41-1.59,9.75-3.4,9.75-3.4,0,0-6.06-1.95-10.76-2.75-4.7-.8-9.39-1.3-9.39-1.3v12.43Z"/>
      <path class="cls-1" d="M133.12,241.64c-5.28,9.89-8.23,18.99-9.9,30.69-1.66,11.71,0,23.63.8,28.53.79,4.92,2.31,12.79,2.31,12.79l-5.57-8.45.15,42.91,15.32,7.15,15.16-7.01v-127.2s-13,10.69-18.27,20.59Z"/>
      <path class="cls-1" d="M98.31,238.67s-15.81-10.12-20.3-13.8c-4.48-3.69-11.48-10.62-15.59-16.97-4.12-6.36-7.15-12.79-7.15-12.79,0,0-9.97,1.59-14.96,2.89-4.99,1.3-11.63,2.97-11.63,2.97,0,0,.36,17.33,2.17,36.25,1.81,18.92,5.85,30.41,9.9,39.15,4.05,8.74,11.19,21.96,24.85,33.37s21.74,17.77,26.14,20.8c4.41,3.03,8.74,5.92,8.74,5.92v-79.67s-1.37-7.07-1.66-11.05l-.51-7.07Z"/>
      <path class="cls-1" d="M28.53,190.86s7.8-4.27,13.8-6.72c5.99-2.46,11.7-4.7,11.7-4.7,0,0,1.23-9.39,3.62-15.03,2.38-5.63,5.19-10.25,6.2-11.77,1.01-1.52,3.26-4.56,3.26-4.56,0,0,2.17-8.81,2.74-13.72.58-4.92.22-9.61-.07-11.2-.29-1.59-1.01-3.47-1.01-3.47,0,0-15.38.65-22.32,1.3-6.93.65-17.91,1.81-17.91,1.81v68.04Z"/>
      <path class="cls-1" d="M96.21,179.95c6.21-5.43,14.58-12.21,26.07-16.61,11.48-4.41,22.61-8.24,30.05-10.04,7.43-1.81,20.94-4.41,29.9-4.27,8.95.15,13.29,1.16,14.94,2.53,1.67,1.38,2.1,3.62,2.1,3.62l15.61-6.57.07-.22s-1.59-3.11-5.92-4.92c-4.34-1.81-12.28-3.76-20.08-4.12-9.89-.37-19.79.48-29.47,2.53-9.82,2.24-26.07,7.8-34.73,11.63-8.67,3.84-19.65,9.75-26.65,15.96-7.01,6.21-10.91,10.48-15.03,19.29s-3.76,13.87-3.76,18.05,2.89,11.49,4.54,14.67,6.5,9.1,6.5,9.1c0,0-5.12-11.13-6.13-16.25s-1.09-13.08.79-17.4c1.88-4.34,4.99-11.56,11.2-16.97Z"/>
    </g>
  </g>
</svg>