<?xml version="1.0" encoding="UTF-8"?>
<svg fill="#e8718b" id="Layer_2" data-name="Layer 2" xmlns="http://www.w3.org/2000/svg" viewBox="0 0 301.27 301.4">
  <defs>
    <style>
      .cls-1 {
        fill:#e8718b;
        fill-rule: evenodd;
      }
    </style>
  </defs>
  <g id="Layer_1-2" data-name="Layer 1">
    <g>
      <path class="cls-1" d="M121.94,262.35c.92,1.02,2.44,2.67,5.62,3.43,6.17.98,14.76,2.1,21.74,2.1h.89c6.99,0,15.58-1.11,21.75-2.1,3.18-.76,4.71-2.38,5.6-3.43l14.42-16.55c1.49-1.75,1.65-5.07.47-6.64l-15.29-21.38c-1.26-1.74-4.2-2.85-6.52-2.87-.09,0-20.87.69-20.87.69,0,0-20.77-.69-20.87-.69-2.32.04-5.25,1.14-6.51,2.87l-15.29,21.38c-1.18,1.58-1.05,4.91.47,6.64l14.4,16.55Z"/>
      <path class="cls-1" d="M45.16,202.42c6.22,14.14,20.51,29.49,20.51,29.49,3.08,3.56,5.7,4.16,7.9,4.16l22.86-.5c1.64-.1,3.14-.89,3.97-2l14.47-19.5c1.27-1.44,1.87-4.31.98-6.64l-5.09-12.98c-.86-2.13-3.21-3.72-5.87-3.72l-53.71-.04h-.01c-8.94,0-10.38,3.1-6,11.72Z"/>
      <path class="cls-1" d="M292.32,190.7h-.05c-1.92.01-23.16,6.22-23.16,6.22-1.92.67-4.15,2.1-5.22,3.57-5.29,10.84-10.88,23.32-27.04,39.62,0,0-1.47,1.43-.85,4.52.55,2.47,3.88,17.25,3.88,17.25.3,1.24,1.44,1.73,2.57,1.73.29,0,.56-.04.84-.1-14.26,11.94-30.82,21.17-48.93,27,2.4-1.39,2.2-3.93-.52-6.3l-9.87-9.95c-1.26-1.14-2.88-1.87-4.88-1.87-.48,0-1.01.04-1.53.13-10.63,2.7-21.99,3.23-27.75,3.26h-.38c-5.88,0-16.96-.62-27.35-3.26-.52-.09-1.05-.13-1.53-.13-1.98,0-3.61.73-4.87,1.87l-9.87,9.95c-2.72,2.37-2.91,4.9-.55,6.3-18.1-5.8-34.65-15.06-48.88-26.97.25.05.52.08.8.08,1.13,0,2.27-.51,2.55-1.74,0,0,3.34-14.77,3.89-17.26.64-3.06-.86-4.52-.86-4.52-16.16-16.3-21.76-28.76-27.04-39.62-1.06-1.49-3.3-2.91-5.21-3.56,0,0-21.27-6.21-23.19-6.21-2.19,0-1.43,2.11-1.43,2.11,17.86,62.7,75.54,108.59,143.96,108.59s126.09-45.9,143.96-108.59c0,0,.73-2.11-1.44-2.11Z"/>
      <path class="cls-1" d="M9.62,129.44c.93,1.02,2.46,1.86,4.2,1.86h271.65c1.75,0,3.29-.84,4.22-1.86l5.81-6.36c.93-1.03.63-2.21-.68-2.66,0,0,.03,0,.03-.03l-13.16-3.85c-1.31-.46-2.3-1.92-2.19-3.3l1.01-35.15c.09-1.37-.93-2.5-2.33-2.5l-30.55-6.26c-1.37,0-2.85-1.09-3.27-2.41l-3.26-11.88c-.26-.81-.82-1.26-1.44-1.26-.39,0-.81.17-1.2.52l-45.33,53.33c-.39.33-.72.5-1,.5-.46,0-.73-.46-.65-1.34l7.54-81.12c.1-1.14-.54-1.89-1.53-1.89-.21,0-.42.04-.65.1l-20.66,11.96c-.28.08-.54.1-.84.1-1.11,0-2.32-.58-2.92-1.51L151.09.9c-.3-.55-.88-.9-1.43-.9s-1.1.35-1.41.9l-21.32,33.56c-.6.93-1.78,1.53-2.93,1.53-.29,0-.55-.04-.82-.12l-20.66-11.96c-.24-.08-.45-.09-.65-.09-1,0-1.64.76-1.53,1.89l7.54,81.12c.08.86-.2,1.34-.65,1.34-.28,0-.63-.16-1.02-.51l-45.33-53.33c-.38-.34-.81-.52-1.2-.52-.63,0-1.18.45-1.43,1.26l-3.26,11.88c-.43,1.32-1.9,2.41-3.27,2.41l-30.56,6.27c-1.37,0-2.42,1.13-2.33,2.5l1.01,35.13c.1,1.37-.89,2.87-2.19,3.3l-13.15,3.86c-1.32.45-1.64,1.62-.68,2.66l5.84,6.36Z"/>
      <path class="cls-1" d="M203.06,235.57l22.86.5c2.2,0,4.83-.6,7.9-4.16,0,0,14.26-15.35,20.49-29.49,4.37-8.6,2.95-11.72-6-11.72l-53.71.04c-2.65,0-5.02,1.57-5.87,3.72l-5.09,12.98c-.9,2.36-.3,5.2.98,6.64l14.47,19.5c.82,1.11,2.36,1.92,3.97,2Z"/>
      <polygon class="cls-1" points="37.27 166.63 37.3 166.63 37.31 166.63 37.27 166.63"/>
      <path class="cls-1" d="M26.15,182.13c8.67,0,17.74-2.02,22.39-9.18,1.27-2.02,1.78-3.47,2.23-4.92l-13.46-1.4c-.45,1.19-1.01,2.46-2.85,3.98-2.08,1.69-4.92,2.65-8.01,2.65-8.11,0-11.64-6.22-11.64-12.2,0-8.41,5.71-12.39,12.09-12.39,2.02,0,4.66.45,6.77,1.79,2.08,1.34,2.74,2.84,3.3,3.97l13.09-2.34c-1.3-3.75-4.31-12.49-23.5-12.49-22.51,0-26.54,13.83-26.54,21.5,0,10.86,6.73,17.06,14.84,19.59,3.65,1.13,7.45,1.45,11.31,1.45Z"/>
      <path class="cls-1" d="M66.72,174.35h15.11l2.13,6.44h15.4l-17.13-39.52h-16.12l-9.72,22.56-2.25,5.22-2.16,4.98-2.91,6.76h15.5l2.13-6.44ZM74.23,152.24l4.66,13.38h-9.19l4.53-13.38Z"/>
      <path class="cls-1" d="M114.43,141.25h-11.69v39.52h14v-8.39c-.05-5.04-.05-6.56-.22-13.38,1.79,2.24,2.46,3.08,4.48,5.42l14.51,16.36h11.76v-39.52h-13.95v8.97c0,5.32.05,7.22.26,12.65-2.79-3.65-3.52-4.54-6.99-8.29l-12.15-13.33Z"/>
      <path class="cls-1" d="M250.73,159.49c-.35-4.71-1.94-7.58-2.67-8.89-5.5-9.59-16.96-9.35-21.06-9.35h-22.44v39.52h25.09c3.8,0,7.74-.26,11.98-2.51.48-.25.93-.51,1.36-.77,3.55-2.25,5.12-5.02,6.04-7.07,1.23-2.79,1.78-5.93,1.78-9.02,0-.68,0-1.32-.08-1.9ZM233.8,169.48h-.03v.03c-1.62,1.45-4.36,2.34-9.18,2.34h-6.21v-21.17h6.63c2.62,0,5.98.28,8.43,2.24,2.02,1.62,3.54,4.48,3.54,8.22,0,3.35-1.31,6.65-3.18,8.34Z"/>
      <path class="cls-1" d="M297.08,141.2c.48-.22,1.34-.63,1.34-1.77,0-.69-.38-1.6-1.35-1.9-.52-.18-1.17-.2-1.82-.2h-2.74v7.7h1.83v-3.22h.34c1.11.04,1.18.12,1.37,1.57.09.68.17,1.2.42,1.68h2.12c-.39-.71-.48-1.36-.67-2.41-.17-.96-.38-1.14-.85-1.45ZM296.26,140.2h-.01c-.22.14-.52.16-1.07.16h-.81v-1.58h.56c.9,0,1.05,0,1.26.08.31.13.41.45.41.67,0,.24-.09.55-.33.68Z"/>
      <path class="cls-1" d="M183.7,174.35l2.13,6.44h15.41l-17.13-39.52h-16.13l-17.02,39.52h15.49l2.13-6.44h15.11ZM176.14,152.24l4.66,13.38h-9.21l4.54-13.38Z"/>
      <path class="cls-1" d="M296.58,174.18l-14.26-32.91h-16.12l-17.02,39.52h15.5l2.13-6.44h15.11l2.13,6.44h15.39l-.81-1.86-2.06-4.75ZM269.76,165.62l4.54-13.38,4.66,13.38h-9.21Z"/>
      <path class="cls-1" d="M295.31,135.28c-.75,0-1.47.13-2.13.39-.73.26-1.41.69-1.99,1.23-.88.82-1.49,1.91-1.74,3.17-.08.38-.12.77-.12,1.18,0,2.28,1.18,4.1,2.83,5.11.93.56,2.02.88,3.12.88,3.38,0,5.98-2.65,6-5.96,0-3.26-2.51-6-5.96-6ZM295.3,146.71c-1.35-.01-2.59-.5-3.56-1.32-1.14-1-1.87-2.46-1.87-4.14v-.21c.12-2.89,2.46-5.24,5.46-5.24s5.43,2.49,5.42,5.47c0,3-2.37,5.42-5.45,5.43Z"/>
    </g>
  </g>
</svg>