<?xml version="1.0" encoding="UTF-8"?>
<svg fill="#e8718b" id="Layer_2" data-name="Layer 2" xmlns="http://www.w3.org/2000/svg" viewBox="0 0 1338.54 1332.3">
  <defs>
    <style>
      .cls-1 {
        fill:#e8718b;
        fill-rule: evenodd;
      }
    </style>
  </defs>
  <g id="Layer_1-2" data-name="Layer 1">
    <g>
      <path class="cls-1" d="M729.69,88.4c11.62,2.41,23.04,3.27,34.26,2.57,12.03-.74,22.61-6.16,25.16-18.59,1.82-8.86.36-17.74-6.81-23.81-.03-.03-.05-.05-.07-.08-.05-.05-.07-.1-.1-.16v-.02c-.02-.05-.03-.11-.03-.17s0-.11.03-.17c0-.01.01-.02.01-.03.01-.05.04-.1.07-.14,0,0,.01,0,.01-.01.02-.03.05-.06.09-.09,8.95-7.21,11.08-21.07,2.84-29.49-10.21-10.44-28.28-11.99-42.09-14.4h-.03c-.36-.05-.71.03-.99.21-.06.03-.11.07-.16.12-.06.05-.11.1-.16.16-.05.05-.09.1-.12.16-.07.11-.12.23-.16.35-.02.07-.04.14-.05.21l-12.32,82.48c-.06.42.21.82.62.9ZM757.21,22.44c.02-.12.14-.2.26-.18l4.74.84c5.97,1.05,10.22,5.28,9.49,9.44l-.14.81c-.74,4.16-6.18,6.67-12.15,5.62l-4.74-.83h0c-.06-.02-.1-.05-.13-.08-.04-.05-.06-.11-.05-.18l2.72-15.44ZM749.16,74.56l3.44-22.71s0-.07.02-.11c.03-.06.06-.12.11-.18.12-.15.33-.24.55-.21l4.64.7c4.26.65,7.93,2.51,10.43,4.99.29.29.57.59.83.89.52.62.98,1.27,1.36,1.95.19.33.36.67.5,1.01,0,0,0,0,0,0,.06.15.13.3.18.46.11.27.2.54.27.82.06.2.1.39.15.58.03.16.06.32.09.47.08.48.11.96.11,1.44,0,.22-.01.44-.02.66h0c-.02.23-.04.45-.07.67l-.11.71c-.97,6.4-8.73,10.53-17.34,9.23l-4.65-.7c-.15-.02-.27-.1-.36-.21-.05-.05-.09-.11-.11-.18-.03-.09-.05-.19-.03-.29Z"/>
      <path class="cls-1" d="M797.18,100l15.92,3.79c.44.11.89-.17,1-.62l19.47-81.75c.11-.44-.17-.89-.61-1l-15.92-3.79c-.44-.11-.89.17-1,.62l-19.47,81.75c-.11.44.17.89.61,1Z"/>
      <path class="cls-1" d="M641.71,85.48c.11.07.23.1.37.1l16.9.28h0c.21,0,.37-.16.38-.37v-1.77c0-1.39,0-2.74-.01-4.08,0-3.32-.03-6.55.04-10.13v-.3c.02-.76.03-1.53.06-2.33.01-.45.02-.92.04-1.39.02-.55.04-1.11.06-1.68.02-.6.05-1.2.07-1.79.18-5.25.25-10.07.2-14.49-.01-.95-.03-1.88-.05-2.79-.02-.56.11-1.12.37-1.69.02-.04.04-.06.07-.08.01-.01.02-.01.03-.02.1-.04.22,0,.26.1l13.16,27.13c.38.79,1.15,1.33,2.03,1.4.66.06,1.85.1,3.55.13,1.7.03,2.88.02,3.55,0,.87-.05,1.66-.56,2.07-1.34l14.03-26.69s.04-.05.07-.07c.01-.01.02-.02.03-.02.03-.01.05-.02.08-.02s.07.01.1.03c.03.03.06.05.08.09.25.58.35,1.15.32,1.71-.32,5.61-.45,11.96-.4,19.06.07,8.4-.3,14.3-.52,21.67h0c0,.22.17.39.38.39l16.9.27h.01c.23,0,.44-.08.59-.24.04-.03.07-.07.1-.12.09-.13.15-.29.15-.46l1.34-84.19h0c0-.16-.06-.29-.16-.39-.04-.05-.1-.09-.17-.12-.07-.03-.14-.05-.22-.05l-11.78-.19c-.72-.01-1.39.39-1.73,1.03-6.83,13.11-14.75,28.16-23.75,45.15-.21.41-.44.61-.69.6-.12,0-.23-.05-.34-.16-.06-.04-.11-.11-.17-.19-.05-.08-.11-.17-.16-.27-2.64-5.4-5.18-10.6-7.61-15.62-5.37-11.02-10.25-21.12-14.65-30.28-.32-.65-.98-1.07-1.7-1.08l-11.78-.2h-.01c-.22,0-.42.14-.51.33-.02.04-.03.07-.04.11,0,.03-.01.07-.01.11l-1.39,84.18h0c0,.24.09.45.24.6.06.06.13.12.21.15Z"/>
      <path class="cls-1" d="M573.9,80.88c6.6,7.9,16.55,12.11,26.85,10.84,10.3-1.27,18.93-7.77,23.42-17.03,4.65-9.61,5.21-20.22,3.91-30.81-1.3-10.58-4.42-20.74-11.27-28.94-6.6-7.89-16.55-12.11-26.85-10.84s-18.93,7.77-23.42,17.03c-4.65,9.61-5.21,20.22-3.91,30.81,1.3,10.58,4.42,20.74,11.27,28.94ZM591.97,20.39c8.13-1,16.24,10.48,18.1,25.64,1.86,15.16-3.22,28.26-11.36,29.26-8.13,1-16.24-10.48-18.1-25.64-1.86-15.16,3.22-28.26,11.36-29.26Z"/>
      <path class="cls-1" d="M519.05,104.88c.12.53.66.86,1.19.74l40.62-9.48c.53-.12.86-.66.74-1.19l-3.29-14.11h0c-.12-.53-.66-.86-1.19-.74l-23.15,5.4c-.53.12-1.06-.21-1.19-.74l-15.31-65.64c-.12-.53-.66-.86-1.19-.74l-15.54,3.62c-.53.12-.86.66-.74,1.19l19.05,81.69Z"/>
      <path class="cls-1" d="M451.55,114.68c8.15,6.3,18.77,8.28,28.56,4.84,9.79-3.45,16.83-11.65,19.23-21.66,2.48-10.38.76-20.87-2.79-30.94-3.54-10.06-8.76-19.32-17.21-25.85-8.14-6.3-18.76-8.28-28.55-4.84-9.79,3.45-16.83,11.65-19.23,21.66-2.49,10.39-.76,20.88,2.78,30.94,3.54,10.06,8.77,19.32,17.21,25.85ZM456.28,51.74c7.71-2.71,18.07,6.77,23.15,21.19,1.87,5.3,2.76,10.52,2.76,15.14,0,7.97-2.65,14.17-7.53,15.89-.89.31-1.81.46-2.76.46-7.26,0-15.89-8.89-20.39-21.65-1.87-5.3-2.76-10.52-2.76-15.14,0-7.97,2.65-14.17,7.53-15.89Z"/>
      <path class="cls-1" d="M822.16,103.68s-.04.1-.05.15c-.02.06-.04.12-.05.18-.01.07-.02.13-.02.2h0c0,.09,0,.17.03.25.04.2.13.39.27.54.05.06.11.12.18.17.1.07.21.14.33.18l15.81,5.34c.39.14.82-.01,1.05-.37l5.41-8.56c.33-.53.98-.77,1.57-.57l20.92,6.97c.32.11.52.41.49.74l-.91,9.85c-.08.81.42,1.56,1.19,1.83l15.95,5.33c.06.01.12.03.18.03h.02c.06,0,.13-.01.19-.03.05-.02.11-.04.16-.08.01,0,.02-.01.03-.02.05-.03.09-.08.13-.13.03-.03.06-.08.07-.12h.01c.01-.05.03-.08.03-.12.01-.04.02-.09.02-.13l2.38-87.97c.02-.48-.29-.93-.76-1.08l-12.75-4.22c-.5-.17-1.05.01-1.36.44l-50.42,71.04c-.03.05-.06.11-.1.16ZM855.07,86.22s.02-.06.04-.08l15.89-25.07s.04-.05.07-.07c0-.01.01-.02.02-.02.03-.04.08-.06.12-.07.04-.01.08-.02.12-.02.02,0,.04,0,.06,0,.04,0,.08.01.11.03.04.03.08.06.11.09.05.04.07.09.08.13.02.04.03.08.03.13v.03l-2.19,29.6c-.02.21-.2.37-.42.36-.03-.01-.06-.01-.09-.02l-13.7-4.53s-.06-.03-.09-.04c-.01,0-.01-.01-.02-.02-.14-.1-.2-.27-.14-.44Z"/>
      <path class="cls-1" d="M892.36,129.16l14.75,7.03s.01,0,.01.01c.24.11.51.05.68-.14.04-.04.07-.09.1-.14l20.12-42.19s.05-.09.1-.12c.03-.04.08-.06.14-.07t.02-.01h.06s.09,0,.14.03h0s.02.01.02.01c.02.01.03.02.04.03.01,0,.02.01.03.02.02.02.04.04.06.07.03.04.04.08.05.13l6.78,38.61c.22,1.25.04,2.54-.5,3.68l-4.72,9.89h0c-.2.42-.12.88.15,1.21.1.12.23.22.38.29l14.77,7.04c.3.15.67.02.81-.29l36.12-75.74c.29-.62.03-1.36-.59-1.66l-14.26-6.79h-.01s-.05-.03-.08-.04c-.04-.02-.09-.03-.13-.04-.45-.1-.93.12-1.13.56l-18.06,37.85s-.03.06-.06.08c0,.01-.01.02-.02.03-.01.02-.03.03-.05.03-.05.04-.11.05-.17.05-.05,0-.11-.01-.15-.03s-.08-.04-.11-.08c-.16-.19-.27-.45-.32-.79-5.28-31.93-8.05-48.66-8.32-50.18-.14-.78-.65-1.45-1.36-1.79l-9.08-4.32c-.18-.09-.39-.01-.48.17l-36.28,76.09c-.27.57-.03,1.24.54,1.51Z"/>
      <path class="cls-1" d="M440.39,134.64s.01-.01.02-.01h0c.08-.05.16-.09.22-.15h.01c.05-.06.1-.11.14-.17.02-.03.04-.06.06-.1.11-.2.15-.45.1-.68-.02-.07-.04-.14-.07-.21l-6.17-13.04c-.2-.4-.68-.59-1.09-.41-2.22.94-4.4,1.7-6.56,2.28-13.17,3.54-22.83-5.49-28.17-16.67-5.33-11.17-6.29-24.37,4.76-32.38,1.8-1.31,3.76-2.53,5.89-3.66.4-.22.56-.7.36-1.11l-6.26-13h0c-.09-.19-.22-.32-.37-.41-.21-.13-.46-.17-.71-.12-.08.01-.17.04-.25.08-24.41,12.35-31.96,33.5-20.01,58.52,11.95,25.03,33.14,32.46,58.09,21.24Z"/>
      <path class="cls-1" d="M952.84,157.02s-.03.03-.04.05h0s-.03.05-.03.07c-.02.02-.03.03-.03.06-.03.07-.05.14-.06.21s0,.15.01.22c0,.05.01.1.04.15,0,.05.03.09.06.13.03.06.07.11.12.17.04.04.09.08.14.11l14.5,9.27c.31.2.72.16.99-.09l7.79-7.31c.27-.25.68-.29.99-.09l18.98,12.14c.33.2.46.61.32.97l-3.71,9.72c-.14.36-.01.77.32.98l14.75,9.42c.06.04.12.07.18.08.01.01.03.02.04.02.07.02.15.03.22.03.06,0,.13-.01.19-.03.06-.01.12-.03.18-.06h0c.05-.04.1-.07.14-.11.12-.1.21-.23.25-.39l23.65-84.76c.02-.07.03-.15.03-.22,0-.14-.03-.27-.1-.38-.03-.06-.07-.12-.12-.17-.04-.05-.09-.09-.15-.13l-11.75-7.52c-.3-.19-.7-.16-.97.07l-66.82,57.26s-.09.08-.12.13ZM989.47,147.59s.04-.06.06-.08l21.46-20.33c.12-.11.29-.14.43-.08.01,0,.02.01.04.02h.01s.08.05.1.08c.04.03.06.06.07.11.05.09.06.2.02.3l-9.54,27.98c-.08.21-.31.32-.53.25-.03-.01-.06-.02-.08-.04l-11.92-7.65c-.19-.12-.24-.37-.12-.56Z"/>
      <path class="cls-1" d="M326,197.25c.35.52,1.05.66,1.57.31l13.65-9.07s.08-.06.11-.1c.04-.03.07-.08.09-.12.1-.19.09-.41-.03-.6l-25.93-39.03c-.06-.1-.08-.22-.04-.32.01-.02.01-.03.02-.04.01-.03.03-.06.05-.07.1-.11.25-.15.39-.1l36.7,14.05c1.19.46,2.21,1.27,2.91,2.33l6.08,9.15h0s.04.07.09.1c.02.04.06.08.1.12.03.03.06.05.09.06.11.1.25.16.38.19.3.07.62.03.9-.16l13.66-9.07c.28-.19.36-.57.17-.85l-46.55-70.06c-.38-.57-1.15-.73-1.73-.35l-13.19,8.77h0c-.07.05-.13.1-.18.17-.12.12-.19.27-.23.43-.07.27-.02.56.14.81l23.26,35.02s.04.08.05.13c.01.04.01.09,0,.13,0,.03-.01.06-.03.08,0,.03-.03.05-.05.07-.05.05-.11.09-.19.11-.24.04-.52,0-.85-.13-30.18-11.9-45.99-18.13-47.44-18.68-.74-.28-1.57-.19-2.24.25l-8.39,5.58c-.17.11-.21.33-.1.5l46.77,70.39Z"/>
      <path class="cls-1" d="M646.18,133.33c-8.17.11-17.47.74-27.11,2.87-5.03,1.12-2.95,6.34-.26,8.39,19.35,14.76,34.04,25.89,44.08,33.39,1.97,1.47,4.09,2.44,6.37,2.9,3.57.72,5.32-.9,8.56-3.28,25.73-18.87,40.52-29.7,44.37-32.51,2.03-1.47,3.11-3.3,3.24-5.49.02-.4-.07-.79-.27-1.13-2.29-3.99-20.11-4.74-24.91-4.95-16.6-.72-33.88-.49-54.07-.19Z"/>
      <path class="cls-1" d="M228.82,156.73c.04.06.08.11.12.17h.01s.04.05.06.06c.01.02.02.03.03.04.05.05.11.1.17.13.03.02.06.04.09.06.07.03.14.06.22.08.11.03.22.05.33.05.06,0,.13-.01.19-.02.2-.04.4-.12.57-.27l7.12-6.1c.39-.34.52-.89.32-1.37l-4.39-10.19c-.04-.11-.11-.21-.18-.3-.06-.06-.12-.12-.18-.17-.09-.07-.19-.12-.3-.16-.05-.02-.11-.04-.17-.05-.08-.02-.17-.03-.25-.03-.07,0-.14.01-.2.02-.05.01-.1.02-.14.04-.16.04-.3.11-.43.22l-8.13,6.97c-.43.37-.53,1-.25,1.49l5.39,9.33Z"/>
      <path class="cls-1" d="M1029.46,209.34l10.3,8.95c17.27,15.02,43.23,13.45,57.97-3.51l2.88-3.32c14.74-16.95,12.69-42.87-4.59-57.89l-10.3-8.95c-.42-.37-1.05-.32-1.42.1l-54.94,63.2c-.36.42-.32,1.06.1,1.42ZM1054.12,207.44s.01-.07.03-.11c.01-.04.02-.07.04-.11.03-.04.05-.08.09-.12,1.31-1.58,6.75-7.89,16.33-18.95,9.58-11.06,15.05-17.35,16.43-18.87.04-.04.08-.08.12-.11.04-.04.09-.07.14-.08.05-.03.1-.04.15-.05s.1-.02.15-.02c.06,0,.11.01.17.02.06.02.13.04.18.07.05.02.1.05.14.09.05.04.09.08.13.13,8.47,11.11,5.73,21.89-2.75,31.69-8.49,9.79-18.77,14.04-30.98,7.25-.08-.04-.15-.1-.2-.17-.03-.03-.05-.06-.06-.09-.12-.17-.16-.37-.11-.57Z"/>
      <path class="cls-1" d="M705.51,211.9c-5.36,4.02-7.86,6.9-10.2,12.51-.78,1.88-1.16,5.91-1.15,12.1.07,33.93.08,75.02,0,123.27,0,8.64-.47,13.67,3.96,19.58,1.53,2.05,5.6,4.99,12.21,8.82,118.41,68.7,197.15,114.42,236.23,137.15,3.61,2.1,6.43,3.36,8.46,3.78,7.8,1.61,13.25-.77,22.48-4.2,40.43-14.99,70.31-25.99,89.64-33.02,5.09-1.85,10.06-5.42,11.59-10.76,14.51-50.59,24.56-85.62,30.13-105.11,1.82-6.37.83-12.21-2.96-17.53-53.67-75.33-121.91-133.09-204.7-173.3-33.27-16.16-67.16-28.44-101.66-36.85-2.65-.65-5.2-.61-7.66.1-1.75.5-3.98,1.77-6.7,3.8-35.36,26.45-61.92,46.33-79.68,59.66Z"/>
      <path class="cls-1" d="M638.12,214.51c-49.18-37.45-75.48-57.52-78.89-60.21-5.61-4.42-10.89-7.65-17.93-5.86-86.37,21.91-162.64,62.52-228.82,121.81-27.03,24.21-51.16,51.35-73.06,81.04-3.93,5.32-9.89,13.58-7.83,20.73,17.29,60.09,27.19,94.7,29.7,103.81,2.17,7.87,4.37,12.75,11.58,15.41,20.42,7.53,53.92,19.87,100.49,37.02,4.54,1.67,9.41,1.8,14.61.39.47-.13.93-.32,1.35-.58l7.66-4.67c22.22-12.96,102.12-59.06,239.7-138.3,7.35-4.23,11.02-10.64,11.02-19.22-.03-48.49-.02-88.88.03-121.16.02-14.32.99-22.14-9.61-30.21Z"/>
      <path class="cls-1" d="M228.02,185.4c1.49,10.56,6.95,19.68,13.94,27.74,6.98,8.06,15.23,14.75,25.49,17.73,9.88,2.87,20.48.82,28.32-5.98,7.84-6.79,11.38-17,9.94-27.19-1.5-10.57-6.95-19.69-13.94-27.75-2.18-2.52-4.49-4.9-6.94-7.08-.74-.65-1.48-1.29-2.25-1.91-.76-.61-1.54-1.2-2.33-1.78-4.22-3.05-8.84-5.47-13.97-6.96-9.88-2.87-20.48-.81-28.33,5.98-7.83,6.8-11.37,17-9.93,27.2ZM248.71,170.49c6.16-5.32,19.28-.23,29.3,11.37,10.01,11.6,13.13,25.32,6.96,30.65-1.66,1.43-3.82,2.11-6.29,2.11-6.71,0-15.69-5-23.01-13.48-10.01-11.6-13.13-25.32-6.96-30.65Z"/>
      <path class="cls-1" d="M1126.97,307.46l9.57,13.2c.28.38.81.47,1.19.19l32.65-23.67c.38-.28.91-.19,1.19.19l14.74,20.34c.28.38.81.47,1.19.19l12.04-8.73c.38-.28.47-.81.19-1.19l-14.73-20.33c-.28-.38-.19-.91.19-1.19l7.53-5.46c.38-.28.91-.19,1.19.19l13.3,18.35c.28.38.81.47,1.19.19l12.02-8.7c.38-.28.47-.81.19-1.19l-23.87-32.94c-.28-.38-.81-.47-1.19-.19l-68.39,49.56c-.38.28-.47.81-.19,1.19Z"/>
      <path class="cls-1" d="M1077.73,251.2s-.05.08-.07.12c-.12.24-.12.5-.03.75.04.11.1.21.19.3l27.72,29.53c.36.38.94.39,1.32.04l10.7-10.05c.38-.36.4-.94.04-1.32l-15.39-16.4c-.35-.38-.34-.96.04-1.32l17.15-16.09c.38-.35.96-.34,1.32.04l17.06,18.18c.36.38.94.4,1.32.04l10.72-10.05s.09-.1.13-.15c.03-.04.05-.08.07-.12.12-.24.13-.5.03-.75-.04-.11-.1-.21-.19-.3l-17.05-18.18c-.08-.09-.15-.19-.19-.3-.09-.23-.09-.48.01-.7.05-.12.12-.23.22-.32l6.64-6.23c.38-.36.97-.34,1.32.04l15.39,16.39c.36.38.94.4,1.32.04l10.71-10.04c.38-.36.39-.94.04-1.32l-27.72-29.54c-.35-.38-.94-.4-1.32-.04l-61.37,57.6c-.05.05-.09.1-.13.15Z"/>
      <path class="cls-1" d="M117.14,296.48c.04.08.09.17.15.25l54.82,68.01c.07.07.14.14.22.2.01.01.02.02.03.03.05.03.11.07.16.09.02.01.03.01.04.02.07.03.15.05.23.07.08.02.16.03.25.03.07,0,.13-.01.2-.02.06-.01.12-.02.18-.05.07-.01.14-.04.21-.08s.14-.09.2-.15c.04-.03.08-.06.11-.1.03-.04.06-.08.09-.12l9.47-13.79c.24-.34.21-.8-.07-1.12l-6.8-7.55c-.17-.2-.28-.43-.32-.67-.03-.15-.03-.3-.01-.44.03-.2.1-.39.21-.56l12.43-18.29c.19-.28.54-.39.85-.27l9.25,3.56c.76.29,1.63.02,2.09-.65l9.49-13.94c.03-.06.06-.11.08-.17.04-.11.04-.23.01-.34-.01-.04-.03-.09-.05-.13,0-.01,0-.01-.01-.02-.02-.04-.04-.08-.07-.11-.03-.05-.08-.09-.13-.12s-.11-.06-.17-.08l-84.24-26.27c-.47-.15-.98.03-1.25.44l-7.56,11.16c-.07.1-.12.21-.15.32-.06.19-.07.39-.02.59.01.09.04.18.08.27ZM144.23,305.61s0-.01,0-.01c.01-.03.03-.06.06-.09.02-.02.04-.04.07-.06.01-.01.02-.02.04-.02.02-.01.03-.01.05-.02.06-.02.14-.02.21,0l28.03,10.39s.05.02.08.03v.02s.06.04.08.07c.07.09.08.21.04.31-.01.03-.02.05-.03.08l-8.07,11.86s-.03.04-.05.06c-.04.03-.07.05-.11.06-.06.02-.13.03-.2.01h-.02s-.07-.02-.09-.04-.04-.04-.06-.06l-19.97-22.24c-.06-.07-.09-.15-.09-.23,0-.04.01-.08.02-.12Z"/>
      <path class="cls-1" d="M180.59,280.68c21.23,17.92,43.63,15.96,61.79-4.57,0,0,0-.01.01-.01.12-.14.19-.3.22-.47.02-.12.02-.25,0-.38-.04-.2-.15-.39-.32-.54l-11.01-9.36c-.35-.29-.86-.26-1.17.07-1.63,1.77-3.31,3.37-5.04,4.78-10.57,8.67-23.11,4.41-32.59-3.6-9.47-8-15.79-19.65-9.01-31.52,1.11-1.94,2.4-3.86,3.87-5.77.28-.36.22-.87-.13-1.17l-11.07-9.28s-.01-.01-.01-.01c-.05-.04-.09-.07-.14-.1-.09-.05-.18-.08-.28-.1-.35-.07-.72.05-.97.35-17.2,21.34-15.37,43.75,5.86,61.68Z"/>
      <path class="cls-1" d="M250.61,264.64c.32.32.84.31,1.16-.01l11.52-11.76s.07-.08.1-.13c.21-.31.17-.75-.12-1.03l-60.3-59.05c-.32-.32-.84-.31-1.16.01l-11.51,11.76s-.07.08-.11.13c-.2.32-.17.75.12,1.03l60.3,59.05Z"/>
      <path class="cls-1" d="M1179.23,339.32c-11.12,10.32-14,25.04-6.46,38.35,7.54,13.3,21.65,18.39,36.21,14.15,3.61-1.05,6.42-2.15,8.45-3.3,28.63-16.23,43.99-24.91,46.06-26.06,0,0,.01,0,.01,0,.31-.18.42-.57.24-.88l-8.16-14.13c-.32-.55-1.02-.74-1.57-.42-12.1,6.91-27.24,15.48-45.41,25.73-7.02,3.95-16.78,4.81-21.36-3.28-4.59-8.1,1.16-16.03,8.16-20.02,18.12-10.33,33.26-18.91,45.4-25.74.09-.05.18-.12.25-.19.06-.06.11-.12.15-.18.02-.04.05-.09.07-.13.03-.07.06-.13.08-.2h0c.03-.11.04-.2.04-.3s-.02-.2-.04-.29c-.03-.09-.06-.18-.11-.27l-7.93-14.26h0v-.02c-.18-.3-.58-.41-.89-.22-2.05,1.18-17.39,9.89-46.02,26.12-2.02,1.15-4.41,3-7.17,5.55Z"/>
      <path class="cls-1" d="M1251.54,326.38c.03.07.06.15.1.22l5.05,8.75c.21.36.63.54,1.04.45l11.21-2.61c.09-.02.18-.06.26-.1.06-.04.12-.08.17-.12.04-.04.07-.08.1-.12.05-.05.09-.12.12-.19.03-.05.04-.1.06-.16.02-.07.03-.15.03-.23,0-.07-.01-.14-.03-.22,0-.03-.01-.07-.03-.1-.02-.05-.04-.11-.07-.16l-5.48-9.49c-.22-.39-.68-.57-1.1-.43l-10.79,3.35c-.05.02-.11.04-.15.06-.02,0-.04.01-.05.02s-.03.02-.04.03-.03.01-.04.03c-.04.02-.08.05-.11.09-.02.02-.04.04-.06.06-.1.12-.17.26-.19.41-.02.06-.03.13-.03.2,0,.08.01.15.03.23v.03Z"/>
      <path class="cls-1" d="M70.67,377.35l74.14,38.96c.76.4,1.71.1,2.11-.66l6.62-12.6c.38-.72.1-1.62-.62-2l-16.57-8.71s-.08-.05-.1-.09c-.01-.01-.02-.02-.02-.03-.02-.03-.04-.07-.04-.11-.01-.06,0-.11.02-.16,0-.02.01-.03.03-.05.01-.02.03-.05.06-.06.01-.02.03-.03.05-.04.03-.02.06-.03.1-.04l23.69-3.75c.94-.14,1.76-.73,2.2-1.58l9.4-17.88c.06-.11.07-.23.04-.35h0c-.02-.06-.04-.11-.07-.16-.03-.05-.07-.09-.11-.12h-.01s-.07-.05-.1-.06c-.02-.01-.04-.02-.07-.03h-.02c-.07-.02-.15-.02-.23,0l-50.81,12.79s-.07.01-.11.01c-.05,0-.1-.01-.15-.03-.02,0-.05-.01-.07-.02-.02-.01-.04-.02-.06-.04-.04-.03-.08-.06-.1-.1-.03-.05-.06-.1-.07-.15-.03-.11-.02-.23.04-.33,5.33-10.01,11.1-24.38,2.9-34.5-5.68-7.01-16.69-10.44-25.35-5.71-8.6,4.68-16.14,16.15-20.87,24.91-3.59,6.65-5.67,10.45-6.22,11.39,0,.01-.02.03-.02.04-.01.02-.02.03-.02.05-.03.05-.05.11-.06.16-.1.41.08.85.47,1.05ZM92.83,368.1l3.08-5.56c2.95-5.32,7.75-8.3,10.73-6.65l1.85,1.03c2.98,1.65,3,7.3.05,12.62l-3.08,5.56c-.07.13-.24.18-.37.1l-12.15-6.73c-.14-.08-.18-.24-.11-.37Z"/>
      <path class="cls-1" d="M46.01,436.87l78.31,31.22c.42.17.89-.03,1.05-.44l14.9-37.32c.28-.7-.06-1.5-.77-1.78l-12.97-5.24h0c-.22-.1-.44-.12-.66-.08-.06.01-.12.02-.17.04-.11.03-.23.09-.33.16-.2.14-.37.33-.47.58l-8.24,20.92c-.14.34-.53.5-.87.37l-22.33-8.9c-.15-.06-.27-.16-.35-.28-.13-.2-.16-.47-.07-.71l9.39-23.42h0c.14-.34.04-.7-.23-.91-.05-.05-.13-.1-.21-.13l-14.05-5.62h-.01s-.08-.03-.12-.04c-.1-.02-.2-.01-.3.02-.06.02-.12.04-.17.08-.05.03-.09.06-.13.12-.03.03-.05.06-.07.1-.01.02-.02.04-.03.07l-9.38,23.43h-.01c-.19.48-.72.71-1.19.52l-8.62-3.44h-.01c-.41-.17-.61-.64-.44-1.06l8.41-20.91s.01-.01.01-.01c.03-.06.04-.12.05-.18.06-.3-.03-.61-.24-.84-.02-.04-.06-.07-.1-.1-.04-.04-.08-.07-.12-.09-.05-.03-.09-.05-.14-.07l-13.46-5.39c-.56-.22-1.2.05-1.43.61l-14.97,37.48h0c-.19.5.05,1.05.54,1.24Z"/>
      <path class="cls-1" d="M1256.42,384.26l6.04,14.1c.17.38-.01.82-.39.98l-62.17,26.59c-.51.22-.75.8-.56,1.32.46,1.23,1.5,3.72,3.1,7.45,1.6,3.73,2.68,6.18,3.26,7.37.24.5.83.72,1.34.5l62.11-26.73c.38-.16.82.01.98.39l6.06,14.1c.12.27.43.39.7.27l14-6.02c.36-.16.53-.57.39-.94-.41-1.02-3.67-8.65-9.77-22.87-6.1-14.23-9.38-21.84-9.84-22.84-.03-.07-.07-.13-.12-.18-.09-.1-.21-.18-.34-.21-.11-.04-.23-.05-.35-.02-.05,0-.09.02-.14.04l-14.01,6c-.27.12-.4.43-.29.7Z"/>
      <path class="cls-1" d="M1177.29,531.07c2.24,1.5,5.43.29,5.44-2.64,0-2.35-.26-4.85-.79-7.52-1.36-6.81-3.13-13.61-5.31-20.41-6.2-19.35-13.36-37.69-21.47-55.04-3.27-6.99-5.87-11.88-7.81-14.66-1.14-1.63-2.83-2.09-5.08-1.38-.25.08-.47.21-.66.39-.07.06-.12.12-.18.19-1.14,1.45-1.85,2.68-2.14,3.68-8.36,29.17-13.43,46.96-15.2,53.37-.21.76-.32,2.45-.34,5.06-.02,2.7,1.79,4.51,3.72,5.79,18.51,12.25,35.12,23.31,49.82,33.17Z"/>
      <path class="cls-1" d="M511.5,890.11c204.68,0,311.11-.01,319.28-.02,10.31-.02,17.23-7.11,19.9-16.53.01-.04,24.91-96.98,74.7-290.82,1.73-6.72.47-12.91-3.76-18.56-1.45-1.95-3.98-3.96-7.58-6.05-23.91-13.87-98.58-57.43-224.01-130.69-6.39-3.73-9.9-5.7-10.53-5.93-7.02-2.5-15.42-2.21-22,1.63-58.69,34.25-135.05,78.82-229.08,133.69-3.87,2.26-6.35,3.99-7.44,5.18-5.81,6.37-7.4,16.3-5.31,24.42,39.69,154.48,64.22,249.96,73.57,286.43,2.7,10.52,11.3,17.25,22.26,17.25Z"/>
      <path class="cls-1" d="M165.61,530.25l45.43-30.31c3.7-2.46,7.54-5.73,5.83-10.69-.69-2.01-1.27-3.92-1.74-5.74-1.11-4.27-5.32-20.65-12.63-49.13-.89-3.49-3.42-6.42-7.28-4.85-.34.14-.62.38-.81.69-4.27,7.03-7.4,12.68-9.39,16.95-8.79,18.85-16.17,38.73-22.14,59.63-1.46,5.11-2.8,11.49-4.02,19.14-.84,5.22,2.41,7.21,6.75,4.31Z"/>
      <path class="cls-1" d="M1215.7,466.54c3.98,13.54,8.48,27.91,17.81,38.5,8.23,9.34,20.23,9.74,30.57,3.97,5.41-3.01,8.88-7.47,10.39-13.36,0-.02.01-.03.01-.04.01-.03.03-.06.05-.09.02-.03.05-.06.08-.08.03-.03.07-.05.11-.06.07-.03.15-.03.22-.01.02,0,.03,0,.05.01,14.63,5.66,29.52-1.52,29.84-18.28.12-6.35-.34-11.82-1.37-16.43-1.6-7.14-3.56-13.91-5.87-20.32-.12-.33-.48-.5-.81-.4l-80.16,24.87c-.72.22-1.13.99-.92,1.72ZM1272.7,466.24l13.94-4.34c.38-.12.78.09.9.47l1.27,4.07c.06.2.12.4.17.6l.15.6c.1.39.17.78.23,1.17.03.2.05.4.08.6.05.38.07.76.09,1.13,0,.19.01.38.01.58,0,.27-.01.54-.03.81v.05c0,.14-.02.28-.04.42t0,.02c-.02.16-.04.32-.06.48-.02.21-.06.42-.1.63-.05.27-.11.53-.18.79-.04.14-.08.27-.12.4-.04.13-.08.26-.13.39-.07.2-.15.39-.23.58-.06.14-.13.28-.2.41-.08.14-.15.27-.23.4-.07.13-.15.26-.24.38-.16.24-.34.48-.54.69-.1.11-.2.21-.3.31-.08.09-.17.16-.26.23-.02.03-.04.05-.07.06-.07.07-.15.13-.22.18-.44.32-.92.57-1.45.73l-1.45.46c-3.83,1.19-8.4-2.54-10.2-8.33l-1.27-4.07c-.11-.38.1-.78.48-.9ZM1236.75,477.29l22.03-6.69c.37-.11.77.1.88.47h0s1,3.29,1,3.29c2.67,8.77-.03,17.35-6.01,19.17l-1.71.52c-5.98,1.82-13-3.82-15.66-12.59l-1-3.28c-.11-.37.1-.77.47-.89Z"/>
      <path class="cls-1" d="M24.56,506.96l81.2,22.82c.42.12.86-.13.98-.55l3.74-13.29c6.17-21.95-6.28-44.65-27.81-50.7l-4.78-1.34c-10.32-2.9-20.85-1.45-29.7,3.27-.96.51-1.9,1.06-2.82,1.65-.46.3-.91.6-1.36.91-.9.63-1.77,1.29-2.62,1.98-6.35,5.22-11.24,12.41-13.65,20.98l-3.73,13.28c-.12.43.13.87.55.99ZM45.4,493.31s.03-.09.05-.14c6.48-12.43,17.44-14.54,29.95-11.02,12.52,3.53,20.77,11.05,19.8,25.03,0,.05-.01.1-.02.15-.03.09-.07.18-.13.26-.02.04-.06.07-.09.1-.03.03-.07.06-.1.08-.02.02-.04.03-.07.04-.03.02-.07.04-.11.05-.04.01-.08.02-.12.03-.05,0-.11,0-.17,0-.05,0-.1,0-.15-.02-1.99-.52-10.05-2.77-24.18-6.75-14.13-3.97-22.18-6.26-24.15-6.86-.06-.02-.11-.04-.16-.08-.04-.01-.07-.03-.09-.06-.05-.04-.1-.09-.14-.14-.05-.06-.09-.14-.11-.21-.05-.14-.06-.31-.01-.47Z"/>
      <path class="cls-1" d="M12.42,570.09c.06.05.13.08.2.11.04.02.09.03.13.04.02,0,.03.01.05.01l83.12,14.24c.44.07.86-.22.93-.66l6.81-39.61c.13-.75-.37-1.46-1.12-1.59l-13.78-2.42h-.01c-.22-.05-.45-.02-.64.06-.13.04-.25.11-.36.21-.06.04-.11.09-.16.15-.08.1-.14.2-.19.32-.04.09-.07.19-.09.29l-3.71,22.18c-.03.16-.11.29-.23.39-.02.02-.06.05-.1.07-.13.07-.28.11-.44.08l-23.7-4.05c-.41-.07-.69-.47-.62-.89l4.31-24.87h0c.05-.29-.07-.57-.27-.74-.07-.07-.15-.11-.24-.14-.04-.02-.09-.03-.14-.04l-14.92-2.58h-.01c-.19-.03-.37.03-.51.14-.03.02-.05.05-.08.08-.04.05-.08.11-.1.18-.02.04-.03.08-.04.12l-4.29,24.88h-.01c-.09.51-.56.84-1.06.75l-9.15-1.56c-.15-.03-.29-.1-.39-.18-.07-.07-.13-.14-.17-.21-.1-.16-.14-.36-.1-.55l3.88-22.22c.05-.3-.03-.58-.21-.8-.03-.04-.07-.09-.12-.12-.04-.04-.09-.07-.14-.1-.1-.06-.21-.1-.33-.12l-14.29-2.48c-.6-.1-1.17.3-1.27.9l-6.84,39.79c-.06.34.07.67.32.88.03.02.05.04.08.06Z"/>
      <path class="cls-1" d="M1276.5,518.1c-10.51,1.86-20.5,5.51-28.32,12.78-7.54,7.01-11.23,17.17-9.42,27.39,1.81,10.22,8.76,18.5,18.25,22.5,9.84,4.14,20.47,4.14,30.98,2.29,10.51-1.86,20.49-5.51,28.32-12.78,7.54-7.01,11.22-17.17,9.41-27.4-1.81-10.22-8.75-18.5-18.24-22.5-9.84-4.14-20.48-4.14-30.98-2.28ZM1309.69,545.53c1.46,8.02-9.61,16.75-24.72,19.49-15.11,2.75-28.54-1.53-30-9.55-.09-.48-.13-.96-.13-1.44s.05-.98.13-1.48c.04-.22.08-.44.14-.66.13-.48.29-.95.48-1.42.14-.34.31-.68.5-1.02.08-.15.16-.3.24-.45.28-.47.59-.94.95-1.41.1-.15.22-.3.35-.45.13-.17.27-.34.42-.5.13-.15.26-.3.4-.45.3-.32.61-.64.95-.95.14-.15.29-.29.45-.42.22-.21.46-.41.7-.6.12-.11.25-.22.38-.32.25-.2.51-.4.77-.59.19-.14.38-.28.57-.42.04-.03.07-.06.11-.08.19-.13.39-.27.59-.4,1.05-.71,2.2-1.39,3.42-2.01.2-.1.4-.21.61-.31.32-.17.65-.32.98-.47.36-.17.73-.33,1.1-.49.49-.21.99-.41,1.49-.61.26-.1.51-.2.77-.29.26-.09.52-.19.78-.28.79-.27,1.59-.53,2.42-.77,1.65-.47,3.37-.88,5.15-1.2,15.11-2.75,28.54,1.53,30,9.55Z"/>
      <path class="cls-1" d="M449.12,896.52c-1.17-4.43-1.86-7.05-2.07-7.86-8.23-31.98-33.72-133.17-76.48-303.56-2.01-8.03-6.54-13.36-13.58-16-54.75-20.53-85.66-32.11-92.71-34.76-5.55-2.08-10.3-5.02-17.14-3.22-1.97.52-5.14,2.25-9.5,5.18-43.83,29.54-71.34,48.01-82.55,55.42-3.93,2.59-6.64,4.47-8.14,5.64-5.15,4.01-6.08,14.92-6.19,20.9-.19,10.87-.65,24-1.4,39.39-.33,6.64.26,12.69.36,18.99,1.44,89.7,25.67,177.32,71.4,254.11,11.49,19.29,24.06,37.72,37.73,55.3,3.09,3.96,8.48,9.89,13.1,9.96,5.45.09,9.73.22,12.85.4,10.67.62,23.33.07,32.77.4,13.76.48,26.07.18,41.17.67,11.61.37,20.44.4,26.48.09,8.2-.43,12.02-3.58,17.25-10.63,11.48-15.45,29.01-38.78,52.6-69.99,4.67-6.18,6.02-12.99,4.05-20.43Z"/>
      <path class="cls-1" d="M1055.85,996.67c8.2.09,13.29-.59,21.57-.51,5.81.05,11.26-6.89,14.63-11.21,60.44-77.37,98.02-169.82,107.38-267.63.99-10.34,1.75-21.27,2.29-32.79.63-13.61.75-24.58.35-32.93-.48-10.14-1.52-23.37-3.11-39.7-.41-4.15-1.15-11.54-4.66-13.92-15.43-10.48-45.63-31.09-90.59-61.82-4.21-2.88-7.46-4.61-9.77-5.19-3.65-.93-7.29-.7-10.93.69-56.37,21.45-88.72,33.76-97.06,36.92-7.85,2.98-12.78,8.39-14.79,16.23-7.99,31.25-33.78,131.82-77.37,301.7-1.23,4.76-2.74,10.89-2.63,14.97.2,6.91,2.42,11.6,7.09,17.69,3.85,5.01,21.75,28.83,53.72,71.45,3.33,4.45,7.75,6.76,13.26,6.95,7.84.27,16.88.24,27.13-.08,8.49-.27,12.74-.4,12.77-.4,8.94.3,18.83-.02,31.95-.35,4.95-.13,11.2-.15,18.77-.07Z"/>
      <path class="cls-1" d="M7.33,631.74l83.95,6.38c.38.03.71-.25.74-.63l1.31-16.41c.03-.46-.31-.86-.77-.89l-40.33-3.06c-.38-.03-.66-.36-.64-.74l1.86-25.16c.04-.51-.34-.95-.85-.98l-14.52-1.03c-.46-.03-.89.23-1.08.63-.07.12-.11.26-.12.41l-1.73,24.59c-.04.51-.49.9-1.01.86l-9.31-.64h-.01c-.09-.02-.17-.04-.25-.07,0,0,0-.01-.01-.01-.08-.04-.15-.09-.2-.15-.13-.15-.21-.34-.19-.54l1.61-22.58c.04-.57-.4-1.07-.98-1.11l-14.9-1.09c-.28-.02-.52.19-.54.47l-3.03,40.58c-.04.6.4,1.12,1,1.17Z"/>
      <path class="cls-1" d="M1247.43,598.92c-.22.02-.42.1-.58.22-.05.04-.1.09-.15.14-.2.21-.32.51-.29.84l2.93,41.73c.03.43.4.75.84.73l14.54-1.03c.62-.04,1.09-.59,1.05-1.21l-1.66-24.05c-.02-.3.21-.57.52-.59l67.73-4.87c.12-.01.23-.04.34-.09.1-.05.19-.12.27-.2.16-.18.26-.42.24-.68l-1.02-15.73h0c-.01-.18-.06-.34-.13-.48-.07-.14-.16-.27-.28-.37-.24-.24-.58-.37-.95-.34l-83.39,5.98h-.01Z"/>
      <path class="cls-1" d="M641.96,1236.21c-40.03-1.98-78.71-7.84-116.04-17.59-110.42-28.82-208.89-88.81-284.34-173.62-80.13-90.07-129.74-202.39-142.65-322.43-.7-6.52-1.26-12.95-1.69-19.28-.83-12.39-1.27-18.84-1.32-19.34-.63-6.31-4.02-8.79-10.21-8.83-3.6-.02-6.59,0-8.97.08-21.14.65-41.78,2.08-62.49,2.25-5.93.05-11.11.68-13.62,6.47-.82,1.87-.62,6.47-.56,7.96,3.11,71.16,16.73,139.34,40.88,204.54,27.38,73.95,67.02,141.39,118.92,202.32,10.24,12.03,22.88,25.54,32,34.97,7.72,7.97,18.37,18,31.94,30.09,106.92,95.23,244.18,154.82,387.2,166.47,12.55,1.02,20.87,1.66,24.98,1.91,6.27.38,10.2.14,13.51-4.64,1-1.45,1.5-5.03,1.49-10.76-.06-35.68-.06-56.98.01-63.9.04-4.16.27-10.58-2.5-13.69-1.65-1.85-3.83-2.85-6.54-2.98Z"/>
      <path class="cls-1" d="M367.99,1042.59c-5.02.02-23.27.02-54.74,0-2.39,0-4.15.4-5.26,1.2-3.23,2.32-1.44,6.09.99,8.26,16.5,14.76,33.85,28.86,52.05,42.29,6.9,5.09,14.7,10.38,23.4,15.87,2.3,1.45,6.36,3.28,8.54.99.27-.28.46-.63.55-1.01.17-.7-.08-2.32-.73-4.86-6.56-25.56-11.04-42.89-13.43-52-1.53-5.79-4.57-10.75-11.37-10.73Z"/>
      <path class="cls-1" d="M1337.92,683.73c-2.2-4.25-4.62-5.46-10.04-5.82-8.14-.54-17.74-.09-22.72-.37-11.66-.63-19.16-.18-31.67-.83-1.35-.07-7.61-.12-18.77-.15-4.29-.01-7.27,1.28-8.94,3.87-.97,1.51-1.54,3.97-1.73,7.4-.37,6.74-.93,14.67-1.68,23.79-10.18,123.92-60.81,241.85-144.11,334.27-4.39,4.87-5.04,10-.16,14.88,27.99,27.97,44.82,44.81,50.49,50.51,3.13,3.15,7.38,5.36,11.8,4.14,1.49-.41,3.23-1.7,5.22-3.86,49.15-53.47,87.99-112.47,116.54-177.01,34.13-77.15,52.92-158.9,56.37-245.25.11-2.73-.09-4.58-.6-5.57Z"/>
      <path class="cls-1" d="M867.28,1156.16c7.78-3.07,14.61-6.06,20.5-8.96,5.56-2.75,5.13-8.1,6.51-13.26,9.06-34.13,17.73-66.87,26.01-98.23.86-3.25.79-6.53-.2-9.82-.65-2.14-2.3-4.99-4.97-8.55-8.09-10.81-25.31-34.19-51.65-70.12-4.43-6.04-7.65-9.58-14.48-11.37-1.77-.47-5.44-.7-11.01-.7-117.19.03-228.36.03-333.52,0-11.16,0-17.75.55-24.02,8.94-6.41,8.57-25.63,34-57.68,76.31-2.83,3.74-3.23,8.71-2.21,12.72,9.53,37.51,18.41,72.8,26.62,105.87,1.83,7.37,9.43,10.55,16.2,13.3,76.83,31.31,156.79,44.55,239.87,39.73,57.19-3.31,111.86-15.27,164.03-35.86Z"/>
      <path class="cls-1" d="M1033.24,1043.7c-1.26-.71-2.51-1.06-3.74-1.06-24.57-.09-43.82-.08-57.74.05-4.43.03-7.22,2.13-8.38,6.3-4.57,16.47-10.11,35.93-16.61,58.38-.05.18-.08.36-.07.55.19,7.61,8.05,3,10.95,1.13,25.57-16.45,49.49-34.85,71.78-55.22,2.76-2.53,5.46-5.47,4.45-9.29-.09-.36-.32-.66-.64-.84Z"/>
      <path class="cls-1" d="M1074.42,1090.47c-3.43-3.45-6.01-5.48-7.73-6.09-3.05-1.09-6.08-.29-9.08,2.4-65.42,58.58-139.81,100.34-223.16,125.29-43.24,12.94-87.78,20.97-133.63,24.08-3.11.21-5.13.53-6.06.95-2.48,1.13-4.98,3.67-4.98,6.61h0c-.04,18.55-.04,44.84.01,78.87,0,5.34,2.51,8.49,7.51,9.44,1,.19,2.64.22,4.93.07,16.14-1.01,31.63-2.45,46.47-4.32,81.48-10.22,158.27-34.15,230.37-71.8,50.66-26.45,98.21-60,142.66-100.65,2.38-2.18,3.75-3.75,4.11-4.71,1.32-3.56-.05-8.72-2.59-11.26-13.53-13.51-29.81-29.81-48.83-48.88Z"/>
    </g>
  </g>
</svg>