<?xml version="1.0" encoding="UTF-8"?>
<svg fill="#e8718b" id="Layer_2" data-name="Layer 2" xmlns="http://www.w3.org/2000/svg" viewBox="0 0 753.65 1080">
  <defs>
    <style>
      .cls-1 {
        fill:#e8718b;
        fill-rule: evenodd;
      }
    </style>
  </defs>
  <g id="Layer_1-2" data-name="Layer 1">
    <g>
      <path class="cls-1" d="M224.23,512.31c-.01,1.01.25,2.01.76,2.88,1.27,1.97,3.38,3.24,5.72,3.44,1.02.05,2.03-.18,2.92-.66.89-.5,1.64-1.24,2.16-2.12.53-.86.82-1.85.84-2.86.02-1.02-.25-2.02-.78-2.89-1.27-1.97-3.38-3.24-5.72-3.45-1.01-.04-2.01.19-2.89.67-.89.49-1.63,1.22-2.14,2.09-.54.87-.84,1.87-.87,2.9Z"/>
      <path class="cls-1" d="M302.29,767.27c1.87.9,4.08.66,5.72-.61.91-.71,1.62-1.65,2.07-2.71.51-1.05.75-2.21.67-3.38-.07-1-.42-1.96-1-2.78-.59-.83-1.4-1.48-2.34-1.89-.93-.44-1.97-.62-3-.52-1,.1-1.95.48-2.75,1.1-.91.73-1.61,1.67-2.06,2.74-.5,1.04-.74,2.19-.69,3.35.06,1.01.41,1.99,1,2.81.61.83,1.43,1.49,2.38,1.89Z"/>
      <path class="cls-1" d="M426.42,430.97c-.73-.73-1.63-1.25-2.63-1.51-.98-.26-2.02-.26-3,0-.98.26-1.87.78-2.57,1.51-1.56,1.75-2.21,4.13-1.78,6.43.22.99.72,1.9,1.43,2.63.73.71,1.64,1.22,2.63,1.46.98.28,2.01.3,3,.06.98-.26,1.86-.8,2.55-1.54,1.53-1.77,2.18-4.13,1.78-6.43-.22-.98-.71-1.89-1.41-2.61Z"/>
      <path class="cls-1" d="M244.08,483.77c-.96.36-1.81.97-2.45,1.77-.68.77-1.14,1.71-1.34,2.72-.18.96-.09,1.95.28,2.85.27.64.63,1.23,1.09,1.74l7.17-8.49c-.59-.37-1.24-.64-1.93-.79-.94-.19-1.92-.13-2.82.2Z"/>
      <polygon class="cls-1" points="392.03 776.08 401.25 775.05 395.4 764.46 392.03 776.08"/>
      <path class="cls-1" d="M239.45,721.09h-.02c.67.78,1.53,1.36,2.5,1.7.97.32,2.01.35,3,.1,2.25-.65,4.08-2.27,5-4.42.37-.96.45-2,.24-3-.44-2.04-1.91-3.7-3.88-4.39-.97-.32-2.01-.37-3-.14-1.12.28-2.16.84-3,1.64-.89.74-1.58,1.7-2,2.78-.36.96-.44,2-.24,3,.21,1.02.7,1.96,1.4,2.73Z"/>
      <path class="cls-1" d="M197.88,636.43c.67.76,1.54,1.32,2.51,1.62,2.26.63,4.69.16,6.56-1.26.78-.64,1.37-1.48,1.71-2.43.33-.96.4-2,.19-3-.18-1.01-.62-1.96-1.29-2.74-.66-.76-1.53-1.33-2.49-1.63-2.26-.62-4.69-.15-6.56,1.26-.79.64-1.39,1.48-1.73,2.44-.33.98-.4,2.03-.18,3.04.18,1,.62,1.93,1.28,2.7Z"/>
      <path class="cls-1" d="M514.71,504.16c-.68-.2-1.41-.08-2,.32-.67.41-1.1,1.13-1.12,1.92-.01.95.3,1.89.87,2.65.55.86,1.34,1.56,2.26,2,.91.44,1.95.56,2.94.32l1.89-1.24-2.47-3.75c-.51-.99-1.35-1.77-2.37-2.22Z"/>
      <path class="cls-1" d="M215.78,663.83c.64-.72,1.07-1.6,1.23-2.55.29-2.06-.46-4.12-2-5.52-.74-.63-1.65-1.03-2.61-1.16-.68-.09-1.36-.07-2.02.07l3.8,10.42c.59-.32,1.13-.75,1.6-1.26Z"/>
      <path class="cls-1" d="M213.36,539.32c.43.49.94.92,1.5,1.27l4.17-10.28c-.66-.16-1.34-.2-2.02-.13-.96.11-1.86.48-2.62,1.07-1.59,1.34-2.41,3.38-2.19,5.45.13.97.53,1.88,1.16,2.62Z"/>
      <path class="cls-1" d="M475.93,453.6c-.86-.62-1.86-1.01-2.91-1.16-3.06-.31-5.78,1.91-6.09,4.97-.01.07-.02.13-.02.2-.05.98.17,1.95.64,2.81.51.93,1.24,1.72,2.12,2.3h.01c.86.61,1.86,1.01,2.91,1.16.96.13,1.94-.02,2.82-.42,1.85-.92,3.09-2.73,3.29-4.79.05-.97-.17-1.92-.64-2.77-.52-.92-1.25-1.71-2.13-2.3Z"/>
      <path class="cls-1" d="M498.88,472.14c-.73-.72-1.64-1.24-2.64-1.48-.99-.24-2.03-.21-3,.11-1.11.36-2.1,1.01-2.88,1.88-.81.82-1.41,1.83-1.74,2.94-.28.98-.28,2.02,0,3,.29,1,.85,1.89,1.61,2.6.73.72,1.64,1.24,2.64,1.48.99.24,2.03.2,3-.13,2.18-.84,3.87-2.61,4.61-4.83.29-.98.29-2.02,0-3-.29-.99-.84-1.87-1.6-2.57Z"/>
      <path class="cls-1" d="M548.95,654.27c-1.66-1.65-3.98-2.46-6.3-2.2-.98.16-1.9.59-2.65,1.23-1.55,1.39-2.28,3.48-1.93,5.53.19.99.65,1.92,1.33,2.66,1.65,1.67,3.98,2.49,6.31,2.2,1-.16,1.95-.59,2.72-1.25.75-.68,1.32-1.55,1.63-2.52.35-.96.44-2,.25-3-.19-.99-.67-1.91-1.36-2.65Z"/>
      <path class="cls-1" d="M465.11,757.22c.87.52,1.87.79,2.89.78,1.02-.03,2.01-.34,2.87-.89.88-.51,1.62-1.23,2.13-2.11.48-.89.71-1.9.65-2.91-.08-1.15-.45-2.27-1.07-3.24-.57-1.01-1.38-1.87-2.37-2.48-.86-.52-1.85-.79-2.85-.78-2.07.08-3.96,1.21-5,3-.49.89-.72,1.89-.68,2.9.06,1.16.43,2.29,1.06,3.27.57,1.01,1.38,1.85,2.37,2.46Z"/>
      <path class="cls-1" d="M331.09,432.02c-.71-.71-1.6-1.22-2.58-1.45-2.04-.45-4.16.2-5.61,1.71-.69.74-1.16,1.65-1.36,2.64-.22,1.14-.14,2.33.23,3.43.31,1.13.9,2.16,1.72,3,.72.72,1.62,1.23,2.61,1.46,1,.22,2.05.17,3.02-.15.99-.28,1.88-.83,2.58-1.58.69-.74,1.15-1.66,1.34-2.66.2-1.14.11-2.3-.25-3.4-.3-1.13-.89-2.16-1.7-3Z"/>
      <path class="cls-1" d="M260.19,741.14c.78.67,1.73,1.11,2.74,1.29,1.01.17,2.05.04,3-.36,2.12-.98,3.68-2.87,4.25-5.14.21-1,.14-2.04-.22-3-.36-.96-.98-1.8-1.78-2.44-.78-.67-1.73-1.12-2.74-1.29s-2.05-.06-3,.33c-2.13.97-3.7,2.86-4.25,5.14-.2,1-.13,2.04.22,3,.36.97.97,1.82,1.78,2.47Z"/>
      <path class="cls-1" d="M332.27,775.48v.17s.65-2.36.65-2.36l-4.33-1.18c-1.04-.41-2.19-.44-3.25-.11-.66.3-1.15.89-1.33,1.59-.23.75-.07,1.57.43,2.18.63.72,1.47,1.22,2.41,1.42.98.27,2.02.27,3,0,.98-.28,1.83-.88,2.42-1.71Z"/>
      <path class="cls-1" d="M275.24,466.18c-.17.69-.02,1.43.41,2,.45.65,1.21,1.03,2,1,.96-.04,1.88-.39,2.62-1,.84-.59,1.51-1.41,1.92-2.35.36-.84.45-1.76.26-2.65h0s-1.48-2.08-1.48-2.08l-3.61,2.61c-.97.56-1.72,1.43-2.12,2.47Z"/>
      <path class="cls-1" d="M547.77,556.74c-.66-.71-1.51-1.22-2.45-1.47-.64-.16-1.3-.23-1.95-.19l2.53,10.81c.63-.26,1.21-.61,1.73-1.06.72-.64,1.25-1.46,1.53-2.38.27-.98.27-2.02,0-3-.21-1.01-.69-1.95-1.39-2.71Z"/>
      <path class="cls-1" d="M521.69,708.84l-1.91-1.5-2.78,3.54c-.79.81-1.27,1.87-1.36,3,.04.73.4,1.41,1,1.84.61.5,1.42.67,2.17.45.91-.3,1.7-.88,2.25-1.67.65-.8,1.06-1.76,1.2-2.78.13-1.01-.09-2.03-.63-2.9l.06.02Z"/>
      <path class="cls-1" d="M238.88,336.43c-1-2.48-2.11-5.07-3.26-7.73-97.62,51.08-164.44,153.41-164.44,271.02l-.03-.02c-.06,65.82,21.22,129.89,60.67,182.59l5.23-7c-37.43-50.88-57.58-112.41-57.5-175.57,0-114.16,64.69-213.51,159.33-263.29Z"/>
      <polygon class="cls-1" points="218.17 853.22 192.17 833.67 203.33 818.8 232.89 840.94 240.73 830.49 198.22 798.59 156 854.84 169 864.62 184.33 844.12 210.33 863.66 218.17 853.22"/>
      <path class="cls-1" d="M619.09,785.83c41.14-53.31,63.42-118.77,63.35-186.11.03-117.61-66.78-219.94-164.44-271.02-1.16,2.66-2.27,5.25-3.27,7.73,94.65,49.78,159.33,149.13,159.33,263.29.08,65.87-21.84,129.87-62.28,181.86l7.31,4.25Z"/>
      <path class="cls-1" d="M591.12,860.3l13.88-10-66.5-38.79-13.06,9.37,15.56,75.43,13.5-9.75-3.7-15.9,26.49-19,13.83,8.64ZM547.77,857.69l-6.61-28.39,24.76,15.36-18.15,13.03Z"/>
      <path class="cls-1" d="M316.34,886.15c1.46-2.47,3.41-4.63,5.73-6.32,2.32-1.68,4.96-2.86,7.76-3.46,3.03-.63,6.14-.69,9.19-.18,3.29.49,6.44,1.7,9.21,3.54,2.82,1.94,5.21,4.44,7,7.36l11.83-7.9c-2.64-4.53-6.35-8.35-10.81-11.12-4.84-2.96-10.23-4.9-15.84-5.7-5.11-.86-10.33-.76-15.4.27-4.71.97-9.18,2.88-13.14,5.61-3.91,2.69-7.22,6.14-9.74,10.16-5.23,8.63-6.86,18.97-4.54,28.79,2.37,9.34,8.47,17.29,16.87,22,4.49,2.55,9.42,4.24,14.53,5,5.62.98,11.38.78,16.92-.59,5.09-1.29,9.8-3.79,13.72-7.29l-8.82-11.16c-2.58,2.29-5.62,3.99-8.92,5-3.2.91-6.57,1.09-9.85.53-3.06-.45-6-1.47-8.68-3-2.5-1.43-4.66-3.37-6.36-5.69-1.68-2.33-2.88-4.98-3.51-7.78-1.26-6.17-.25-12.58,2.85-18.06h0Z"/>
      <path class="cls-1" d="M436.39,870.12c-3.88-2.9-8.3-5-13-6.18-10.23-2.45-21-1.2-30.4,3.53-4.32,2.23-8.15,5.29-11.29,9-3.06,3.63-5.34,7.86-6.7,12.41-2.74,9.64-1.56,19.97,3.28,28.75,2.35,4.12,5.53,7.71,9.32,10.55,3.9,2.9,8.34,5,13.06,6.17,5.11,1.26,10.41,1.57,15.63.91,5.17-.55,10.2-2.06,14.81-4.46,4.28-2.22,8.08-5.26,11.2-8.94,3.06-3.64,5.34-7.86,6.7-12.41,1.44-4.78,1.86-9.81,1.26-14.76h.07c-.99-9.78-6.05-18.69-13.94-24.57ZM433.3,905.87c-.74,2.78-2.04,5.37-3.82,7.63-1.75,2.21-3.93,4.05-6.41,5.4-2.62,1.4-5.49,2.29-8.44,2.6-2.97.37-5.98.17-8.87-.59-2.73-.72-5.27-2.01-7.47-3.78-2.23-1.81-4.08-4.06-5.42-6.61-2.88-5.58-3.63-12.02-2.11-18.11.74-2.78,2.04-5.38,3.82-7.63,1.74-2.22,3.92-4.05,6.4-5.4,2.62-1.41,5.49-2.29,8.45-2.6,2.96-.37,5.97-.17,8.86.59,2.73.72,5.28,2.01,7.48,3.78,2.22,1.8,4.06,4.03,5.41,6.55,1.47,2.76,2.39,5.79,2.71,8.9.4,3.1.2,6.25-.59,9.27Z"/>
      <polygon class="cls-1" points="510.82 867.08 480.6 879.19 473.68 861.93 507.92 848.22 503.06 836.09 453.71 855.86 479.87 921.15 494.98 915.15 485.45 891.36 515.68 879.26 510.82 867.08"/>
      <polygon class="cls-1" points="291.44 867.24 296.63 855.24 247.85 834.12 219.9 898.69 269.9 920.32 275.09 908.32 239.96 893.11 246.43 878.17 276.43 891.17 281.43 879.55 251.43 866.55 257.5 852.55 291.44 867.24"/>
      <path class="cls-1" d="M251.22,599.64c0,21.88,5.7,43.37,16.56,62.36.78,1.33,1.58,2.67,2.4,4,10.86,17.38,25.77,31.86,43.45,42.21,1,.59,2,1.16,3,1.7,60.88,33.23,137.18,10.81,170.41-50.07,33.23-60.89,10.81-137.18-50.08-170.41-18.45-10.07-39.13-15.35-60.15-15.35l.02.03c-69.35-.02-125.59,56.18-125.61,125.53ZM266.99,651.94c-.02.11-.11.21-.23.23-.17.04-.35-.07-.39-.24h.01c-7.74-16.32-11.75-34.15-11.73-52.21,0-4.81.28-9.62.84-14.4l.04.02.32.14c.49.24.83.7.93,1.24l3.58,19.85,5.3,29.35v.28l1.34,15.58s.01.11-.01.16ZM315.52,705.37c-.6-.34-1.19-.69-1.77-1.05-1.18-.71-2.34-1.44-3.49-2.19-1.71-1.12-3.4-2.28-5.05-3.48-4.98-3.6-9.67-7.57-14.04-11.87-.97-.96-1.92-1.93-2.86-2.91-1.41-1.48-2.78-2.99-4.11-4.54s-2.63-3.13-3.88-4.74c-.83-1.08-1.65-2.17-2.46-3.27-.8-1.11-1.58-2.23-2.35-3.36-.76-1.13-1.51-2.28-2.24-3.44-.73-1.16-1.44-2.33-2.13-3.52l-1.76-21.46c-.07-.95.64-1.77,1.58-1.85h.22l24.82,1.15c.41.02.79.18,1.09.46l37,34.27c.3.29.49.67.53,1.09l2.56,27.19c.08.81-.42,1.55-1.17,1.79-.1.03-.2.05-.31.07l-18.39,2.68c-.6-.33-1.19-.67-1.79-1.02ZM389.73,612.45l-8.18,44.92c-.12.64-.59,1.16-1.21,1.35l-42.77,12.28c-.58.17-1.2.02-1.65-.38l-36-33.38c-.44-.41-.63-1.03-.51-1.62l9.59-45.11c.13-.64.62-1.14,1.25-1.3l12.07-3,30-7.57c.56-.13,1.14.01,1.57.39l6.06,5.48,29.24,26.37c.44.39.65.99.54,1.57ZM393.19,612.83c.1-.53.44-.97.92-1.21l42.12-21.41c.17-.09.36-.15.56-.18.26-.03.52,0,.76.08.17.05.33.14.48.25l29.07,22.13h.01c.06.05.11.09.15.14.42.4.61.98.49,1.55l-6.05,30.61-3,15.17c-.08.38-.28.71-.57.96-.09.09-.19.17-.31.23l-40.24,21.47c-.59.31-1.31.25-1.85-.15l-30.16-22.8s-.1-.09-.15-.13c-.1-.1-.18-.2-.26-.32-.07-.1-.13-.22-.17-.33-.03-.09-.06-.19-.08-.28-.03-.2-.03-.41.01-.61l8.27-45.17ZM376.83,721.9c-18.88.02-37.51-4.36-54.41-12.79h.05s16.33-2.39,16.33-2.39c.2-.04.41-.04.61,0l30,6.62,18.94,4.18c.4.08.76.3,1,.63l2.17,2.85c-4.87.59-9.78.89-14.69.9ZM473.92,673.79c-2.39,3.13-4.92,6.13-7.57,9,0,.01,0,.02-.02.03-.99,1.07-2.01,2.12-3.05,3.16-1.02,1.04-2.08,2.05-3.15,3.05s-2.16,1.98-3.26,2.93c-1.1.96-2.21,1.89-3.34,2.8,0,0-.01.02-.02.02-1.51,1.21-3.04,2.39-4.6,3.53,0,.02,0,.02-.02.02-.59.43-1.18.85-1.77,1.27-1.19.84-2.39,1.66-3.61,2.45-2.43,1.58-4.92,3.08-7.46,4.5-.64.35-1.28.7-1.92,1.04,0,0,0,0-.01,0-1.71.91-3.44,1.78-5.19,2.6h-.01c-2.63,1.25-5.31,2.4-8.02,3.45h-.01c-1.59.62-3.18,1.2-4.79,1.74-.45.17-.91.32-1.38.47-1.63.53-3.27,1.03-4.92,1.5-.94.27-1.89.52-2.84.76-.59.15-1.18.3-1.77.43-.56.14-1.12.27-1.68.4-.76.17-1.52.34-2.28.49-1.93.4-3.87.75-5.82,1.05l-2.41-3.19c-.49-.65-.46-1.54.06-2.16l24.29-28.38c.14-.16.3-.3.49-.4l41.18-22c.57-.31,1.27-.27,1.8.1l13.12,9.3s-.02.02-.02.03ZM481.38,545.1l.6-5.82c.04-.28.29-.48.57-.44.15.02.29.11.37.24,10.58,18.46,16.13,39.37,16.08,60.64v1.88c0,.29-.23.53-.52.54-.2,0-.39-.11-.48-.29l-5.85-10.47c-.09-.13-.15-.28-.18-.44l-10.59-45.27c-.04-.19-.04-.38,0-.57ZM447.58,523.42l29.93,22.69c.32.25.54.6.63,1l10.12,43.25c.13.57-.03,1.16-.43,1.58l-17.06,17.12c-.61.6-1.57.67-2.26.15l-29.14-22.18c-.31-.24-.53-.57-.62-.95l-11.86-47.38c-.17-.67.08-1.37.63-1.78l18-13.5c.61-.46,1.45-.46,2.06,0ZM355.18,500.63l23.62-22c.28-.26.47-.62.53-1,13.76.26,27.38,2.86,40.27,7.69-.31.58-.25,1.28.15,1.8l23.44,31.72c.05.08.1.16.15.24.37.73.17,1.64-.5,2.15l-18,13.5c-.37.28-.84.4-1.3.32l-46.64-7.72c-.38-.07-.74-.26-1-.55l-20.84-23.78c-.61-.69-.56-1.74.12-2.37ZM305.55,517.43c.14-.19.33-.35.54-.45.09-.06.19-.1.29-.13l15.91-4.72,27.71-8.22c.64-.19,1.34.01,1.78.51l20.9,23.81c.44.51.54,1.22.27,1.83l-9,19.75-11.11,24.47c-.21.49-.63.86-1.14,1l-30.14,7.59-12,3c-.08.02-.17.03-.25.04-.12.01-.24.01-.35,0-.45-.05-.86-.27-1.16-.63l-10.15-12.79-11-13.89c-.41-.52-.48-1.22-.2-1.82l12.55-25.93,6.36-13.12c.05-.11.12-.21.19-.3ZM296.59,507.65c.55-.47,1.37-.4,1.83.14h.01c.07.08.12.16.17.25l3.52,6.84c.03.06.06.12.08.19.02.06.04.12.06.19.04.19.05.39.03.58-.02.2-.08.4-.17.59l-19.55,40.31c-.09.16-.19.31-.31.44l-5.07,5.26-14.82,15.42-3.71,3.86h0c-.52.54-1.33.68-2,.34l-.68-.33c.25-1.68.53-3.35.85-5.01.32-1.66.67-3.31,1.06-4.95.26-1.1.53-2.19.82-3.27.57-2.17,1.2-4.32,1.9-6.45.82-2.53,1.72-5.02,2.7-7.49,1.48-3.69,3.13-7.31,4.95-10.83.3-.59.61-1.18.92-1.76.63-1.16,1.27-2.32,1.94-3.46.99-1.72,2.03-3.41,3.11-5.08.3-.47.61-.94.92-1.4.9-1.35,1.83-2.68,2.78-4,2.39-3.28,4.94-6.45,7.65-9.49,1.63-1.83,3.32-3.61,5.06-5.34,1.92-1.92,3.91-3.77,5.96-5.55Z"/>
      <path class="cls-1" d="M520.7,202.78c-.04.11-.07.21-.11.32.05-.11.11-.21.16-.32h-.05Z"/>
      <path class="cls-1" d="M408.74,139.27c-.63,24.42,17.62,34.25,18.18,34.54-.48-.4-15.91-13.51-15.93-33.99,4.13-7.72,16.95-12.26,17.65-24.29-3.35,8.55-13.48,14.41-19.9,23.74Z"/>
      <path class="cls-1" d="M319.89,154.39c-5.54-3.35-14.65,7.34-23-2.3-4.77-5.64-10.77-10.11-17.53-13.09,6.22,4.42,11.82,9.66,16.64,15.58,8.12,10,18.16-1.44,23.89-.19Z"/>
      <path class="cls-1" d="M456.76,152.13c-8.33,9.64-17.44-1.05-23,2.3,5.73-1.25,15.76,10.15,23.89.19,4.81-5.93,10.41-11.19,16.63-15.62-6.76,2.99-12.75,7.48-17.52,13.13Z"/>
      <path class="cls-1" d="M321.83,285.34c-.69-7.91-3.24-15.54-7.43-22.28,2.77,7.22,4.52,14.79,5.19,22.49,1.22,13.17.94,28.82-3.48,39.05,6.87-10,7-25.91,5.72-39.26Z"/>
      <path class="cls-1" d="M313.7,299.55c.31-14.42-4.21-24.72-8.54-31.43-4.19-6.5-8.91-8.83-9.21-8.97,2.62,3.26,5.07,6.66,7.31,10.2,4.15,6.42,8.51,16.33,10.44,30.2Z"/>
      <path class="cls-1" d="M342.66,139.86c0,20.44-15.5,33.58-15.99,33.99.56-.29,18.81-10.12,18.18-34.54-6.37-9.37-16.5-15.23-19.85-23.78.7,12,13.52,16.57,17.66,24.33Z"/>
      <path class="cls-1" d="M434.06,285.55c.67-7.7,2.42-15.27,5.18-22.49-4.19,6.74-6.73,14.37-7.43,22.28-1.24,13.35-1.15,29.28,5.73,39.26-4.43-10.23-4.7-25.88-3.48-39.05Z"/>
      <path class="cls-1" d="M440,299.55c1.92-13.87,6.29-23.78,10.43-30.2,2.23-3.54,4.66-6.94,7.27-10.2-.3.14-5.03,2.47-9.22,8.99-5.95,9.37-8.91,20.32-8.48,31.41Z"/>
      <path class="cls-1" d="M441.57,118.61c-16.19,6.01-21.61,21.81-21.83,22.48l-.65,2,1.91.73c3.66,1.48,7.56,2.25,11.5,2.28,4.95,0,9.16-1.3,13.27-2.57,3.39-1.17,6.89-1.99,10.45-2.43,10.84-1.03,14.96-11.39,15.63-16.73l.15-1.22-1-.75c-5.26-3.65-11.47-5.66-17.87-5.79-3.94-.04-7.86.63-11.56,2ZM424.64,140.54c1.48-3.2,5.08-9.69,11.77-14.33-.37,7.22,2.36,12.06,4.13,14.39-4.82,1.31-9.61,1.94-15.9-.06ZM446.41,135.35c-3.9-3.9-4.55-9.21-4.58-12.12.41-.17.83-.34,1.25-.49.43-.16.86-.31,1.29-.44,4.58,9.05,2.04,13.05,2.04,13.05ZM455.83,136.83c-1.03.12-2.06.28-3.09.46,1.66-8.77-.98-13.68-3.15-16.11,1.16-.14,2.32-.2,3.49-.18,5.04.11,9.96,1.52,14.28,4.11-.72,3.13-3.31,10.93-11.53,11.72Z"/>
      <path class="cls-1" d="M435.68,237.64c-5.71,5.71-9.7,5.43-9.7,5.43,0,0,.01.19.03.55-4.89,1.25-12.76,2.47-23.25,1.61-2.53-.21-4.85-.31-6.96-.33-.02,0-.03-.01-.04,0-6.61-.55-13-2.7-18.61-6.27l-.33-.23-.32.23c-5.66,3.59-12.1,5.75-18.76,6.28-2.08.02-4.35.12-6.83.32-10.49.86-18.37-.36-23.27-1.61.02-.38.03-.59.03-.59,0,0-4,.28-9.7-5.43-.62-.74-1.54-1.18-2.51-1.19-4.14.25-5.86,13,1.36,25,8.56,14.28,10.28,29.14,8,48.57,0,0,4-8.57,2.85-23.43,0,0,4.13,7.24,5.81,15.57-.01.94-.05,1.88-.1,2.82-.83,1.62-9.22,18.31-10.84,29.77-.72,5,.35,9,3.18,11.87,3.68,3.75,10.27,5.2,18.56,4.2,13.01-1.63,23.5-2.35,32.43-.58h.22c8.93-1.77,19.43-1.05,32.43.58,1.64.21,3.28.31,4.93.32,5.97,0,10.8-1.65,13.62-4.52,2.82-2.87,3.89-6.87,3.17-11.87-1.61-11.36-9.9-27.95-10.81-29.74-.05-.94-.09-1.88-.1-2.82,1.68-8.36,5.81-15.56,5.81-15.56-1.14,14.86,2.85,23.43,2.85,23.43-2.28-19.43-.57-34.29,8-48.57,7.17-12.06,5.5-24.79,1.36-25.04-.98.02-1.89.47-2.51,1.23ZM376.82,239.75c3.97,2.49,8.3,4.29,12.83,5.32-7.93.56-11.75,2.33-12.82,2.91-1.07-.58-4.91-2.34-12.86-2.9,4.53-1.04,8.88-2.84,12.85-5.33ZM420.28,307.49c2.46,5.09,8.38,18.04,9.7,27.35.66,4.63-.3,8.31-2.86,10.91-3.43,3.49-9.68,4.87-17.62,3.87-6.89-.96-13.83-1.5-20.78-1.62-4-.03-7.98.33-11.91,1.07-9.06-1.78-19.62-1.05-32.68.58-7.93,1-14.19-.38-17.61-3.87-2.57-2.6-3.53-6.28-2.87-10.91,1.33-9.3,7.25-22.25,9.71-27.35.2-.41.37-.77.52-1.07.21.55.42,1.11.62,1.67,2.4,6.65,3.84,13.89,5.04,19.86,1.14,5.75,2.13,10.71,3.59,13.36l.17.3h.33c3.87,0,4.78-1.32,5.92-3,.95-1.53,2.25-2.82,3.78-3.76,2.61,1.65,4.97,3.67,7,6l.44.51.43-.52c2.05-2.2,4.6-3.88,7.44-4.87,1.05.83,5.26,4.18,7.79,6.63l.39.39.4-.39c2.52-2.45,6.78-5.8,7.78-6.63,2.83.99,5.38,2.65,7.44,4.84l.43.52.43-.51c2.03-2.33,4.39-4.35,7-6,1.53.94,2.83,2.23,3.78,3.76,1.14,1.68,2.05,3,5.92,3h.34l.16-.3c1.46-2.65,2.45-7.61,3.6-13.36,1.19-5.98,2.64-13.23,5.04-19.89.2-.55.41-1.1.62-1.64.15.3.32.66.52,1.07ZM420.01,290.11c-.86,4.89-1.16,9.87-.89,14.83-3.08,7.45-4.79,15.97-6.15,22.82-1.09,5.43-2.03,10.16-3.33,12.74-2.98-.06-3.64-.99-4.64-2.5-1.1-1.76-2.61-3.23-4.41-4.27l-.28-.17-.29.16c-2.66,1.62-5.07,3.62-7.15,5.93-2.18-2.2-4.85-3.85-7.79-4.83l-.29-.1-.24.19s-4.73,3.71-7.73,6.52c-2.97-2.81-7.72-6.52-7.72-6.52l-.24-.19-.29.1c-2.94.98-5.61,2.63-7.8,4.83-2.08-2.31-4.49-4.31-7.15-5.93l-.28-.16-.29.17c-1.8,1.04-3.32,2.51-4.43,4.27-1.02,1.5-1.64,2.44-4.64,2.5-1.32-2.58-2.23-7.3-3.32-12.74-1.36-6.87-3.06-15.35-6.14-22.79.27-4.97-.02-9.96-.87-14.85-.13-2.01-.28-4.08-.49-6.14,1.67-3.25,6.02-12.47,9.45-26.81,1.57.69,5.89,2.52,10.81,4.26l.29.1.24-.18c.76-.58,1.47-1.21,2.13-1.89,1.94,1.71,5.34,4.07,10.77,5.99,9.7,3.43,6,12.57,10,26.57,4-14,.28-23.14,10-26.57,5.4-1.9,8.79-4.24,10.73-5.94.64.66,1.33,1.27,2.07,1.84l.25.18.28-.1c4.92-1.74,9.24-3.57,10.81-4.26,3.46,14.48,7.87,23.75,9.5,26.91-.2,2.02-.36,4.06-.48,6.03ZM422.08,282.83c-.16.36-.31.66-.44.92-.19-.35-.42-.8-.69-1.35-.07-.15-.14-.3-.22-.46-2-4.15-5.77-12.92-8.77-25.72l-.16-.67-.63.28s-5.05,2.27-11.05,4.39c-.6-.46-1.16-.97-1.69-1.51-1.14-1.15-2.11-2.46-2.89-3.89l-.32-.68-.57.5c-3.02,2.66-6.18,5.15-9.48,7.45-3-2.79-5.64-5.94-7.87-9.37l-.48-.77-.48.77c-2.23,3.43-4.87,6.58-7.86,9.37-3.3-2.3-6.47-4.79-9.49-7.45l-.57-.5-.32.68c-.76,1.42-1.72,2.72-2.86,3.86-.52.55-1.1,1.07-1.71,1.54-6-2.12-11.06-4.39-11.06-4.39l-.63-.28-.16.67c-3,12.77-6.75,21.54-8.76,25.7-.06.12-.11.24-.17.35-.3.61-.55,1.1-.75,1.48-.12-.24-.26-.52-.41-.84-2.64-5.43-9.99-22.42-9.59-39.91.99.42,2.87,1.13,5.59,1.81,5,1.25,12.86,2.41,23.39,1.53.84-.07,1.66-.13,2.45-.17,1.53-.09,2.98-.14,4.34-.15,0,0,.01-.01.02,0,11.04-.12,16.51,2.01,18.16,2.79.37.16.55.27.56.27l.3.19.31-.19s.19-.11.55-.28c1.63-.79,7.09-2.9,18.15-2.78.01-.01.02-.01.04,0,1.43.01,2.95.07,4.58.16.71.05,1.45.1,2.2.16,10.57.86,18.44-.3,23.43-1.54,2.72-.68,4.59-1.39,5.57-1.8.37,17.4-6.92,34.32-9.56,39.83Z"/>
      <path class="cls-1" d="M352.19,211.48c1.61.31,3.06.64,4.39,1-.14-.66-1.25-4.98-6.84-7.59-6.06-2.83-2.83-8.89-2.83-8.89,1.61,2.79,4.43,7.64,12.91,10.47,8.48,2.83,8.88,12.53,8.88,12.53,1.15,1.18,1.19,1.98,2.21,3.48,3.12,4.55,5,10.8,5.91,14.15.87-3.35,2.79-9.6,5.91-14.15,1.03-1.51,1.04-2.29,2.21-3.48,0,0,.41-9.66,8.88-12.49,8.47-2.83,11.3-7.68,12.91-10.51,0,0,3.23,6.02-2.82,8.85-5.75,2.69-6.77,7.21-6.85,7.65,1.33-.37,2.78-.71,4.39-1.02,9.58-1.82,15.76-9.28,15.46-18.59-1.63-1.08-11.15-6.85-18.69.21-8.56,8-13.56,10.44-21.4,10.44s-12.82-2.44-21.39-10.44c-7.43-6.99-17.1-1.24-18.7-.21-.3,9.31,5.88,16.77,15.46,18.59Z"/>
      <path class="cls-1" d="M315.04,69.48c-.59,1.18-.28,3.53-.81,4.85-.78,2-6.23,4.85.81,4.85,1.12,0,1.14.18,2-.4,1.43-1,2.46-7,4.44-7.68,1.43-.48,6.86-.39,6.86-3.23,0-2.38-4.44-2-5.65-1.62h.01c-1.89,0-6.67,1.24-7.66,3.23Z"/>
      <path class="cls-1" d="M368.72,75.55c5.15,2.58,10.34-8.08,9.28-11.32-8.88.32-7.55.74-9.28,7.68-.18.7-1.06,3.1,0,3.64Z"/>
      <path class="cls-1" d="M360.66,35.56c5.27,3.52,8.79-6.56,7.23-9.72l.03.02c-.31-1.48-2.18-1.14-2.82-2.42-2.81-5.62-8.83,9.19-4.44,12.12Z"/>
      <path class="cls-1" d="M376.55,18c-2.23,1.29-2.49,4.78-4,6.29-4.77,4.78,13.22-1.67,4-6.29Z"/>
      <path class="cls-1" d="M445.97,183.58c-6.32,3.57,10.68,7.06,6.28-1.76v.04c-2.5-.28-4.11.48-6.28,1.72Z"/>
      <path class="cls-1" d="M318.67,37.56l.03.02c3.4,1.95,12.65.69,9.68-4.44-2.96-4.85-14.13,1.86-9.71,4.42Z"/>
      <path class="cls-1" d="M309.79,50.46c1.13,1.13,2.9,2.91,4.84,2.43,1.94-.48.63-2.65,1.62-3.64,1.62-1.63,6.51-3.61,3.22-5.25-3-1.46-5.59,2-7.26,3.63-.24.24-1.2-1-1.61-1.21-1.11-.56-2.51-.24-3.63-.81-1.53-.76-5,3.45-4.84,3.64,1.83,1.84,6.88.43,7.66,1.21Z"/>
      <path class="cls-1" d="M348.15,30.73c1.37,4.13,1.42,9.9,4.84,13.34.41.4.93-.72,1.21-1.22,2.61-4.56,1.81-8.1-.4-12.52v-.02c1.26-4.67-8.07-6.2-8.07-2,0,.83,2.14,1.59,2.42,2.42Z"/>
      <path class="cls-1" d="M384,34.57c1.78-1.2,4.77-8.73,1.68-10.28-8.44-1.37-6.68,13.62-1.68,10.28Z"/>
      <path class="cls-1" d="M376,82c-1.69-5.25-10.63.52-8.88,4,.32.64,1.46.72,2,.81,9.43,1.63,10.06-6.41,6.88-4.81Z"/>
      <path class="cls-1" d="M419.91,51.72c.5,0-.76-6.17-.57-6.29,1.4-.83,3.11-2.44,4.57-1.71.44.22,1.49,1.93,2.28,1.14,3.13-3.13-4.41-11.3-10.46-8.5s-4.8,15.36,4.18,15.36Z"/>
      <path class="cls-1" d="M429.61,78.01c1.84,1.84,5.14,9.72,5.14,1.71,0-3.21,0-6.89-1.14-9.14-9-3.17-10,1.39-4,7.43Z"/>
      <path class="cls-1" d="M435.32,52.29c2.25,1.5,9.67,4.6,13.12,1.14,1.03-1.02.2-3.05,1.71-4.57-3.9-5.91-5.24,3.37-8.55,1.72-2.75-1.38-8.42-5.86-12.56-1.72-.33.33,5.8,3.11,6.28,3.43Z"/>
      <path class="cls-1" d="M440.45,67.72c-3.26,3.27,10.06,9,10.85,7.43,1.96-3.94,4.45-4.06,0-6.29-2.47,3.7-8.55-3.44-10.85-1.14Z"/>
      <path class="cls-1" d="M377.12,36.29c-1.69,0-3.43-.39-3.43,1.71,0,20.09,12.51-6.26,3.43-1.71Z"/>
      <path class="cls-1" d="M387.96,92.29c1-1,.52-1.19,0-1.71-1-1-.45-1.94-2.28-2.86-6.91.22-2.95,9.81,2.28,4.57Z"/>
      <path class="cls-1" d="M378.19,48.86c-1,1-.89,5.09,0,6.29,9.78,13.06,9.45,3.59,13.69,5.71,2.83,1.38,9.8,6.35,5.78-1.71h-.07c-2.51-1.85-7.51-6.2-10.27-3.43-4,4-6.42-9.58-9.13-6.86Z"/>
      <path class="cls-1" d="M419.34,57.43c-1.31-3-4.49-2.85-7.42-2.85-4.33,0,3.16,4.3,4.57,5.71,3.8,3.81-11.1.89-5.14,6.86,4.99,4.99,16.9-5.26,7.99-9.72Z"/>
      <path class="cls-1" d="M399.91,36.29c4.25,1.42,12.26,1.12,9.13-5.14h-.04c-1.26-.49-3.43-.4-4.09-1.72-.77-1.55-.08-5.31-1-6.28-1.81-1.81-3.93-.19-2.29,2.28.48.71-.27,1.89-.87,2.49-2.87,2.87-4.28-1.3-6.54,3.23-1,2,4.12,4.61,5.7,5.14Z"/>
      <path class="cls-1" d="M361.08,52.49c.68-.17,6.62,0,6.86-.4,2.06-3.09.95-5.09-1.66-6.45l.03.02c-2.4-.25-4.82.32-6.86,1.62-1.51,1.08-1.06,2.44-2,4-4.65,7.76,2.75,1.43,3.63,1.21Z"/>
      <path class="cls-1" d="M285.63,198.2h-.05c-5.48.22-2.63,11.2,1.14,7.42,1.86-1.79.37-6.68-1.09-7.42Z"/>
      <path class="cls-1" d="M274.6,163.72c.68,1.37,10.29,1.75,8.56-1.72h0c-3-1.79-2.35-5.78-4.57-8-.57-.57-2.85.57-3.42,0-.77-.77-2.06-8.22-5.13-5.14-5.78,5.78-1.08,7.45,4,9.14,1.61.54,0,4.56.57,5.72Z"/>
      <path class="cls-1" d="M264.9,123.14c1.3,3.91,7.84-3,9.7-1.14.71.71,1.8,10.76,4.56,8,1-.95.19-3.62,1.15-4.57.51-.51.99-.98,1.44-1.4l.04.34c.62,5.34,4.79,15.73,15.62,16.73,3.56.44,7.06,1.25,10.45,2.43,4.13,1.27,8.34,2.57,13.29,2.57,3.94-.02,7.83-.78,11.49-2.24l1.91-.73-.64-2c-.23-.67-5.65-16.48-21.83-22.48-3.7-1.37-7.62-2.05-11.57-2-5.71.11-11.28,1.71-16.15,4.65h-.01c1.32-1.9.2-3.18-5.76-6.16-4.27-.87-16,1.06-13.69,8ZM317.23,126.2c6.68,4.65,10.29,11.13,11.77,14.33-6.34,2-11.1,1.4-15.92.07,1.76-2.31,4.53-7.15,4.15-14.4ZM309.28,122.24c.43.13.86.28,1.28.44.43.16.84.32,1.25.5-.03,2.91-.68,8.23-4.58,12.13,0,0-2.54-4.01,2.05-13.07ZM300.56,120.94c1.19-.02,2.38.04,3.55.19-2.18,2.41-4.88,7.34-3.2,16.15-1.03-.18-2.06-.34-3.09-.46-8.21-.79-10.81-8.57-11.53-11.71,4.31-2.61,9.23-4.04,14.27-4.17Z"/>
      <path class="cls-1" d="M287.72,167.16h0c-2.39-1.46-3.78.16-5.7,1.7-6.01,4.83,12.73,1.81,5.71-1.7Z"/>
      <path class="cls-1" d="M259.76,140.29c-1.06,1.06-3.39.51-4.56,2.85-3.54,7.1,7,6.17,9.7,3.43,1.93-1.92-2.9-13.06-2.85-13.13h0c-2.76.62-1.07,5.62-2.29,6.85Z"/>
      <path class="cls-1" d="M284.3,99.72s0,0,.01,0c.01,0,.02,0,.04,0h-.05Z"/>
      <path class="cls-1" d="M286.44,77.54c0-.85-.83-2.83-1.61-2.83-2.48,0-2.43,0-3.64,2.42-4.14,8.31,10.1,10.12,5.25.41Z"/>
      <path class="cls-1" d="M293.7,76.3c2.27-1.36,6-7.74,4.84-10.1v.02c-1.28.26-2.42.97-3.22,2-1.86,2.23-4.28,5.09-6.06,6.87s3.8,1.6,4.44,1.21Z"/>
      <path class="cls-1" d="M286.63,103.72c-.05-2.06-.4-3.02-2.32-3.99-10.7,2.16,2.32,12.76,2.32,3.99Z"/>
      <path class="cls-1" d="M285.44,183.72c2.63-1.72,1.17-4.62,1.71-5.72-8-1.92-7.49,9.58-1.71,5.72Z"/>
      <path class="cls-1" d="M307.85,193.04c-6.65-.61-1.07,11.3,1.72,5.72.94-1.76-1.69-4.02-1.69-5.7l-.03-.02Z"/>
      <path class="cls-1" d="M313.56,186.76c-14.67-4.35-3.2,7.6.57,5.71.87-.41-.54-5.35-.54-5.69l-.03-.02Z"/>
      <path class="cls-1" d="M310.6,58.17c-11.9.56-1,13.4,3.23,3.64.9-2.12-1.96-4.28-3.23-3.64Z"/>
      <path class="cls-1" d="M318,163.15c.13-1.24-.59-2.41-1.75-2.85h.02c-10.87,2.28,1.73,11.7,1.73,2.85Z"/>
      <path class="cls-1" d="M296.28,171.16h0c-9.95,2.51,1.71,10.99,1.71,2.84.02-2.26.24-1.87-1.7-2.84Z"/>
      <path class="cls-1" d="M289.26,92.89c1.9,1.9,6.36,1.11,7.67,2.43.59.58,1.23,10.49,5.65,6.06.74-.74,1.05-2.27,1.61-2.83,4.66-4.67-11.6-8.58-7.26-12.93,1.86-1.87,11.25-3.06,4.44-6.47h0c-5.26-2-14.5,11.34-12.11,13.74Z"/>
      <path class="cls-1" d="M439.69,180.15c1.31-.93,1.57-4.83-1.14-3.47v.04c-10.69-1.81-4.16,7,1.14,3.43Z"/>
      <path class="cls-1" d="M470.61,228.25c-.42-1.71.55-2.42-1.61-2.42v.04c-.09,2.57-1.61,2-2.83,4-2.87,4.79,7,8.55,4.44-1.62Z"/>
      <path class="cls-1" d="M480.24,147.52c-.87-1.76-3.38-1.36-4.57-.57-1.43,1-2.36,4.66-3.42,5.72-3.86,3.86-7.1,2.71-8.56,8.57,0,.12-1.09,2.91-.57,3.43,5.26,5.26,3.93-4,7.42-5.14,4.16-1.4,4,0,6.84-2.86-2.6-2.31,3.73-7.39,2.86-9.15Z"/>
      <path class="cls-1" d="M499.23,155.14c-4.74-1.08-2.38,2.39-4,4-2.27,2.28-7.63.79-9.7,2.86-3.16,3.16.18,11,3.42,12.57,5,2.49,1-6,1.72-7.43,2.42-4.84,8.56-1,8.56-12Z"/>
      <path class="cls-1" d="M482.13,108.29c1.08-1.08-9.74-7.73-10.27-8h-.02c-4-2-14.24,3.46-10.84,6.86.61.62,7.39-1.58,9.13-1.14s10.46,3.8,12,2.28Z"/>
      <path class="cls-1" d="M476.97,124.87c1.62.32,4.36-1.92,2.86-3.43-2.25-2.25-4.78-1.93-6.85-4-1.38-1.39-1-5-2.85-6.86-2.69,4.74,1.18,13.15,6.84,14.29Z"/>
      <path class="cls-1" d="M514.63,148.29c6.63-3.29,2.74-12.62-.57-14.29-10.55-2.54-7.14,18.15.57,14.29Z"/>
      <path class="cls-1" d="M448.42,195.58v-.02c-1.39.45-3.11-1.07-4.44-.4-2.72,1.36,2.72,5.79,5.25,2.42,1.3-1.74,1.15-1-.81-2Z"/>
      <path class="cls-1" d="M522.05,159.15h.03c-2,.65-13.07-3.54-13.69-2.29-2.15,4.29.47,11.08,6.27,9.14,2.01-.67,12.22-4.43,7.39-6.85Z"/>
      <path class="cls-1" d="M538.03,63.72c1.2-1.21-2.36-5.3-2.86-6.29-2.17-1.74-4.51-3.48-6.27-1.71-4.19,4.2,5.8,11.33,9.13,8Z"/>
      <path class="cls-1" d="M514.63,88.29h0c-1.16,2.21,4,6.32,5.14,5.15,5.51-5.52-1.08-21.12-6.85-23.43-1.17-.47-5-1.5-5.71,0-5,10,12.57,8,7.42,18.28Z"/>
      <path class="cls-1" d="M526.06,119.72c.66,1.31,4.32,11.56,6.85,10.29,3-1.51-4.31-17.06-6.28-17.72h-.02c-2.54-5.76-5.67-2.89-8.55,0-.81.81.18,2.31,0,3.43-1.38,8.28,6,.07,8,4Z"/>
      <path class="cls-1" d="M500.94,118.01c.4-1.61-.41-3.53,0-5.14.56-2.27,1.27-3.65-.57-4.58-1.58,1.58-4.43,1.31-5.14,3.43-2.22,6.69,3.79,14,5.71,6.29Z"/>
      <path class="cls-1" d="M511.78,95.72c1.1-2.21-3.42-7.43-4-8.57-2.92,0-12.26,5.16-10.27,9.14,1.44,2.88,12.88,2.21,14.27-.57Z"/>
      <path class="cls-1" d="M503.21,148.3c4.06-4.07-3.92-9.3-3.42-10.29.79-1.6,5.34-4.47,1.71-6.29h.01c-1.85-1.67-5.69-5.36-8-2.28-5.66,7.55,5.26,23.3,9.7,18.86Z"/>
      <path class="cls-1" d="M282.22,68c1.16.78,1.6,2.1,2.83,2.83,5.45,3.28,5.09-5.95,4.03-8.08l.05-.03c.81-4.53-2.07-6.42-5.25-3.23-.69.7.08,1.94-.4,2.42-.63.63-6.1,3-7.26,2.43-.6-.3-2.38-4.09-3.63-2.83-.53.52-.9,2.21-1.21,2.83-5.72,11.37,9.38,2.66,10.84,3.66Z"/>
      <path class="cls-1" d="M467.08,181.82h.04c-1.32.04-3.12-1.3-4.56-.58-.7.35-.38,1.53-.57,2.29-2.28,8.95,11.63-1.71,5.09-1.71Z"/>
      <path class="cls-1" d="M428.28,163c-5.56,3.72,6.44,6.82,4.57,1.72-1.87-5.1-2.97-2.83-4.57-1.72Z"/>
      <path class="cls-1" d="M450.15,101.44c0-1.76,1-.81,0-2.86-1.07-1.42-2.44-2.59-4-3.43-12.42-6.22,4,13.5,4,6.29Z"/>
      <path class="cls-1" d="M439.69,158.43c-7.18-.38,1.14,7.94,1.14,1.72,0-1.3.23-1.07-1.14-1.76v.04Z"/>
      <path class="cls-1" d="M441.19,201.22h-.03c-2-.91-2.4-.05-3.23,1.61-.91,1.83,4.09,3.82,5.25,3.24,2.54-1.26.25-4.85-1.99-4.85Z"/>
      <path class="cls-1" d="M446.73,80.86c-14.19-5.19-3.28,11.19-.57,10.29,2.71-.9,2.45-9.35.57-10.29Z"/>
      <path class="cls-1" d="M463.85,86.01c.52-.53.17-4.35.57-5.15.73-1.47,2.12-2.36,0-3.43-.54-1.33-4.35-6.5-6.28-4.57-4.48,4.5,3,15.87,5.71,13.15Z"/>
      <path class="cls-1" d="M485,98.58c4.2-2.1,5.78-17.18,2.28-15.43h-.04c-2.33-.34-4.68.52-6.24,2.29-2.43,2.42-2.55,16.41,4,13.14Z"/>
      <path class="cls-1" d="M433.04,110.01c2.14,3.23,8.76,1.87,10.27-1.14,2.28-4.57-5.15-1.73-6.28-2.86-1.54-1.54-1.9-9-2.85-10.86-1.45,2.09-3,12.09-1.14,14.86Z"/>
      <path class="cls-1" d="M485.38,184.1c-4.35-12.61-7.34,5.3-5.13,9.71,1.75,3.64,5.92-8.05,5.09-9.7h.04Z"/>
      <path class="cls-1" d="M478.1,63.72h0c-3.51-1.28-8.11,3.3-10.27,1.14-1.95-2-5.87,2.12-4,4,2.3,2.31,27,1.25,14.26-5.14Z"/>
      <path class="cls-1" d="M460.81,168.11h.04c-12.87-5.68,1.14,18.55,1.14,3.42.01-1.7.43-2.62-1.18-3.42Z"/>
      <polygon class="cls-1" points="434.18 95.15 434.18 95.15 434.18 95.15 434.18 95.15"/>
      <path class="cls-1" d="M453.67,206.07c-1.49,1.47-5.51,3.9-2,5.65.39.2,1.55.64,2,.41s.68-2.07.8-2.43c.83-2.46,9.63-7.5,4.44-10.1-6.59.26-3.75,5-5.24,6.47Z"/>
      <path class="cls-1" d="M486.67,136.3h0c-4-2.08-4.21-1.29-5.7,1.7-.44.88,1.71,4.39,1.71,5.71,0,12.57,4.55,6.88,8.56,2.86.93-.93-1.71-4-1.71-5.14,0-3.08.59-5.13-2.86-5.13Z"/>
      <path class="cls-1" d="M409.89,114.32c-.04-1.18-.15-1.45-1.24-1.99-10.67,2.62,1.24,7.31,1.24,1.99Z"/>
      <path class="cls-1" d="M408.64,112.32s0,0,.01,0c0,0,.02,0,.03,0h-.04Z"/>
      <path class="cls-1" d="M399.94,96.86c-1.87-4.4-10.51,1.56-6.85,4,1.23.82,14.27,5.72,13.13,3.43-1.77-3.53-5.12-5.11-6.28-7.43Z"/>
      <path class="cls-1" d="M391.38,67.74c-13.52-4.51,6.28,22.44,6.28,10.86,0-3.17.34-3.35-1.14-6.31v.02c-3.12.11-2.78-3.78-5.14-4.57Z"/>
      <path class="cls-1" d="M413.64,74.58c-1.32-.77-6.15-.26-6.85,1.14-8.79,17.56,15.85-1.14,6.85-1.14Z"/>
      <path class="cls-1" d="M434.73,195.16h-.03c-5.85-.82-1.9,7.16,0,5.25,1.65-1.62,2.47-5.25.03-5.25Z"/>
      <path class="cls-1" d="M432.69,218.18c2.48.01,1.64-2.89,1.64-4.84h-.03c-4.23-4.01-7.66,4.84-1.61,4.84Z"/>
      <path class="cls-1" d="M419.34,116.29c6.17,6.18,13.4-23.44,10.84-28.57-4.32-.61-3.38,2.24-5.13,4-9.74,9.76.6,9.66-2.86,16.57-.49,1-4.05,6.8-2.85,8Z"/>
      <path class="cls-1" d="M426.66,178.18l-.03-.02c-1,0-2.45,0-3.22.81-1.59,1.59,3.68,3.59,4.84,2.43,1.65-1.61,1.75-4.87-1.59-3.22Z"/>
      <path class="cls-1" d="M386.05,121.61s0,0,0,0c.01,0,.02,0,.04,0h-.04Z"/>
      <path class="cls-1" d="M376,122.82c-1.47.19-1.9.21-2.42,2-1.68,5.79,9.42,1.52,2.42-2Z"/>
      <path class="cls-1" d="M363.05,86.46h.04c-8.2.49-2.33,10.63,0,8.88,3.36-2.55,5.2-8.88-.04-8.88Z"/>
      <path class="cls-1" d="M366.72,103.01c1.55,7.75,11.15-2.09,2.42-6.46-.63,1.46-2.1,2.19-2.82,3.63-.33.66.32,2.41.4,2.83Z"/>
      <path class="cls-1" d="M361,105.85c-.54-.08-2.23-1.4-2.82-.81-1.58,1.58-.83,10.12,2.82,7.68,2.08-1.39,2.89-6.87,0-6.87Z"/>
      <path class="cls-1" d="M435.72,330.21c-1.44,1.45.58,14.85,4.56,6.86,1.65-3.3.43-2.56-1.14-5.71-.92,1.18-2.8-1.77-3.42-1.15Z"/>
      <path class="cls-1" d="M376.81,109.51c-.88-.44-.88-1.18-2-.61-1.36-1.17-2.12,1.53-2.48,2.61h.04c-2.63,7.9,11.95,1.74,4.44-2Z"/>
      <path class="cls-1" d="M389.32,111.11c1.68-1.76,1.49-2.26.76-4.45h.04c-5.7-.82-5.15,8.8-.8,4.45Z"/>
      <path class="cls-1" d="M382.09,125.25c-2.74,4,6.9,2.28,3.96-3.63-2.44.15-2.86,1.92-3.96,3.63Z"/>
      <path class="cls-1" d="M380.4,99c-.29-.52-2.19-1.45-2.82-.81-.55.99-.83,2.11-.81,3.24,0,6.18,10,.74,3.63-2.43Z"/>
      <path class="cls-1" d="M502.08,167.72c-1.88-1.28-5.71-2.11-5.71,1.14,0,2,0,3.43,1.14,5.14,1.77,2.65-2,8.14,1.15,9.72,2.67,1.34,9.42-13,3.42-16Z"/>
      <path class="cls-1" d="M492.43,249.34c-2.98-.36-3.59.81-5.63,2.83-.62.62-2.43,1.65-2.82,2.43-.58,1.08,8.42,4.01,8.45-5.26Z"/>
      <path class="cls-1" d="M519.23,219.15c-2.1,4.16-2.23,14.11,1.68,6.29h.03c.44-1.88,2.76-2.91,3.42-4.58,2-5-3.49-5-5.13-1.71Z"/>
      <path class="cls-1" d="M492.43,249.3s0,.03,0,.04c0,0,.01,0,.02,0l-.02-.04Z"/>
      <path class="cls-1" d="M444.85,305.36c-4.08-1.95-8.08,7.39-2.85,10,.91.45,6.93-8.05,2.85-10Z"/>
      <path class="cls-1" d="M536.31,142c-15.75-5.29-5.94,21.38-1.71,17.14,4.83-4.82,10.89-12.53,1.71-17.14Z"/>
      <path class="cls-1" d="M551.15,104.29c-5.6-3.11-2.85,1.68-3.42,4.58-.17.82-3.23,5.34-1.72,6.85,2.65,2.65,4.32-1.87,4.57-2.85.86-3.45.57-5.57.57-8.58h0Z"/>
      <path class="cls-1" d="M532.35,176.29c-1.66.15-3.71-.5-5.14.57-4,3-3,10.17-.57,12.57,1,1,3.26-1.31,4-.57,2.52,2.53,5.13,1.32,5.13-3.43,0-4.4-.46-6.17-3.42-9.14h0Z"/>
      <path class="cls-1" d="M518.06,184.87h.03c-3.12.57-3.41,3.6-6.28,4.56-4.92,1.64-10.84-4.25-10.84,5.72,0,.44-.29,2.57,0,2.85,1.58,1.59,9.46-4.33,10.27-5.14s-.23,1.93,0,2.86c.48,1.92,3.68.89,4.56,0,1.35-1.38,8.2-10.85,2.26-10.85Z"/>
      <path class="cls-1" d="M461.38,284.5h.02c-.37-2.23-1.75-2.86-4-2.86-8.65,0,9.96,14.84,3.98,2.86Z"/>
      <path class="cls-1" d="M363.08,68.7c.39-1.69,1.24-2.69.38-4.45-12.79,2.01-2.13,11.44-.38,4.45Z"/>
      <path class="cls-1" d="M457.4,292.5c-.89.59-1.39,1.69-2.28,2.28-10.38,6.93-2.2,8.5-1.71,8,1.88-1.88.71-4.28,1.71-6.28.57-1.15,2.52-.81,3.42-1.72.42-.42-1.82-.92-1.14-2.28Z"/>
      <path class="cls-1" d="M449.39,318.21h.02c-4.19-2-9.84,9.72-5.7,9.72.29,0,1.16-2.31,1.71-2.86,1.09-1.07,8.58-4.53,3.97-6.86Z"/>
      <path class="cls-1" d="M465.96,273.64c0-1.24,4.45-3.55,3.42-4.57-.78-.79-1.5-.17-2.28-1.72-16.13,7.14-1.14,15.34-1.14,6.29Z"/>
      <path class="cls-1" d="M480.73,215h.02c-3.21-2.21-6.08,4.42-4.44,6.06,1.9,1.88,8.48-4.06,4.42-6.06Z"/>
      <path class="cls-1" d="M478.73,252.98c-1.17-1.03-2.13-2.27-2.83-3.67-2.1-4.99-7.13,2.57-5.24,4.48,1.61,1.61,11.61,2.74,8.07-.81Z"/>
      <path class="cls-1" d="M471.65,259.92s0,0,.01,0c0,0,0,0,0,0h-.02Z"/>
      <path class="cls-1" d="M472.81,263.35c-.02-1.75.47-2.61-1.15-3.42-5.62,3.18,1.15,13.55,1.15,3.42Z"/>
      <path class="cls-1" d="M351.75,117.57h-.03c-2-.11-2.44.14-2.82,2.43-1.47,9,6.59-4.3,2.85-2.43Z"/>
      <path class="cls-1" d="M240.36,194.59h-.02c-11.14-.93-10.27-.17-10.27,8.57,0,2-1.61,3.53-.57,4.57,2.17,2.17,2.59-6,2.86-6.29,3.28-3.28,2.74,7.64,7.41-1.71.47-.93,4.36-2.49,2.86-4-1.1-1.12-1.12,1.16-2.27-1.14Z"/>
      <path class="cls-1" d="M246.64,214.59c-1.23-.2-3.06-3.8-4.56-2.29-.46.45,4.59,14.23,5.7,12,1.11-2.23,2.55-9.71-1.14-9.71Z"/>
      <polygon class="cls-1" points="233.52 176.3 233.52 176.3 233.53 176.3 233.52 176.3"/>
      <path class="cls-1" d="M237.53,182.01c-1.9-3.77-.63-4.01-4.01-5.71-4.24.17-2.88,3.5-3.99,5.71-4.19,8.4,12.12,8.28,8,0Z"/>
      <path class="cls-1" d="M251.21,229.45c-1.84.09-2.29,1-2.29,2.85,0,8.92,6.77-.61,2.29-2.85Z"/>
      <path class="cls-1" d="M274,180.87c-3.29.1-10.28-3.42-12.55-2.29-1.8.91,1.69,9.71,2.85,10.29,4.78,2.39,4.05-2.34,5.71-4,3.34-3.35,6,5.55,9.12,4,4.26-2.13-3.82-7.34-5.13-8Z"/>
      <path class="cls-1" d="M251.19,195.73c3.56,1.77,4.08-4.33,5.72-5.14h-.02c-5.59-15.51-10.65,2.66-5.7,5.14Z"/>
      <path class="cls-1" d="M259.05,164.3c1.7-1.37,4.04-5.25,3-6.29-2.65-2.65-6.62,2.19-8.56-1.71h-.02c-.23-1.55-3.49-4.45-4.57-2.29-1.21,2.44,1.71,7.43.57,8.57-.68.69-6.14,10.43-4.56,12,5.62,5.63,7.83-6.12,8-6.28,1.11-1.12,4.73,5.09,8,4,3.32-1.11.23-5.98-1.86-8Z"/>
      <path class="cls-1" d="M248.92,147.14c2.5-.83,4.43-15.86,5.14-16.57.49-.49,3.36-.15,4-.57,2.71-1.81,5.51-9.55,3.43-13.72h-.01c-.93,8-9.12,6.28-13.13,10.29-2.45,2.45-2.57,21.62.57,20.57Z"/>
      <path class="cls-1" d="M248.4,98.58c3.35,1.12,1.11-2.29,3.43-2.29.87,0,5,1.63,5.7,1.15,3-2.3-.68-6.29-2.85-6.29-3.18-1.18-3.36-1.18-6.28.57-3.23,2-3.18,5.8,0,6.86Z"/>
      <path class="cls-1" d="M285.01,248.48c-.84-1.77,1.2-2.84-1.09-3.99h-.05c-13.6-.23,7.22,16.17,1.14,3.99Z"/>
      <path class="cls-1" d="M244.36,104.86c-14.33.37,1.14,14.74,1.14,2.85,0-1.54.38-2.08-1.14-2.84h0Z"/>
      <path class="cls-1" d="M274.6,102.58h.05c-4.53-4.2-12.79,6-9.7,9.14,4.22,4.28,12.05-4.41,9.65-9.14Z"/>
      <path class="cls-1" d="M222.1,183.16c3.83-3.84,1.38-4.68-.57-8.58-11.76-2-6.54,15.71.57,8.58Z"/>
      <path class="cls-1" d="M237.51,163.73c6.14-2-.71-7.57-2.28-9.15-1.77-1.77,2.35-9.07,0-11.43-.93-.92,9.77-9.38,3.42-12.57h0c-6.18,3.06-5.82,4.91-7.42,9.72-1.82,5.48-10.27.31-10.27,8,0,2.15,6,4.85,7.42,6.28,2.77,2.77,2.14,11.48,9.13,9.15Z"/>
      <path class="cls-1" d="M228.43,79.72c3.06-2.07,9.95-10.42,4.57-13.14-5.45-4.17-7.2,14.9-4.57,13.14Z"/>
      <path class="cls-1" d="M230.71,87.72c-3.76,3.77,7.24,11.16,10.85,9.72,6.84-2.77.18-12.08-5.19-10.29h.05c-1.79.15-4.71-.42-5.71.57Z"/>
      <path class="cls-1" d="M327.1,162.57c.7-.69-.58-3.73-.58-4.57-8.24.65-2.88,8,.58,4.57Z"/>
      <path class="cls-1" d="M323.51,50.89c-.26.52.32,1.53,0,2-1.44,2.16-4.38,1.5-6.46,5.65-1,1.94,6.68,3.09,7.67,2.43,3.41-2.28,3.2-5,4.44-8.08,1.15-2.89,7.21-3.26,2.42-5.66v.02c-2.71.07-6.73,1-8.07,3.64Z"/>
      <path class="cls-1" d="M339.28,99.41c2.57-4.39-.8-7.3.36-9.69-10.27,1.46-3.8,15.42-.36,9.69Z"/>
      <path class="cls-1" d="M339.65,89.69s0,.02-.01.03c.01,0,.03,0,.04,0l-.03-.02Z"/>
      <path class="cls-1" d="M330,91.71c-7.82-3.27-2.68,9-6.46,10.91-13.65,6.84-.26-14.46-10.89-10.91-1.59.53-3.88,18.34-3.23,19,3,3,5.78-3.13,7.26-2,1.48,1.13,2.57,7.27,4.44,7.27.4,0-.08-.81,0-1.21.35-1.29.89-2.51,1.61-3.63.81-1.62,2.59-2,3.23-3.24,2.2-4.49-1.24-13.56,4.04-16.19Z"/>
      <path class="cls-1" d="M330,71.91c-2.88-.07-10.88,11.36-10.5,12.12,1,2,8.58,1.27,9.69-.4,1.45-2.18,4.06-12.81.81-11.72Z"/>
      <path class="cls-1" d="M285.06,257.64h-.05c-4.37,7.99,7,10.64,2.85,2.27-1-2.09.03-2.27-2.8-2.27Z"/>
      <path class="cls-1" d="M350.98,104.66c5.22-2.12,4.84-9.3,1.18-10.53l.03.02c-8.91-2.82-11,14.42-1.21,10.51Z"/>
      <path class="cls-1" d="M350.98,78.39c1.08.73,1.06,4.71,2.42,5.26,5.06,2.02,3.1-8.19,1.18-10.12l.03.02c-5.92-6.91-10,.59-3.63,4.84Z"/>
      <path class="cls-1" d="M282.64,87.72c-1.89-3.79-6.93,5.06-9.13,2.86-.51-.47,2.83-4.58-.62-8h.05c-8.12-.75-9,11.58-4.57,16,1.91,1.91,18.25-2.89,14.27-10.86Z"/>
      <path class="cls-1" d="M340.08,45.64c3.16,3.17-3.76,9.11,3.23,10.51,3.4.68,2.9.34,5.25-1.62.88-.57,1.69-1.24,2.42-2,1.29-1.73-.5-4.26.4-6.06-.73-.55-1.55-.96-2.42-1.21-.75-.38-2.07.38-2.83,0-3.05-1.53.21-6.77-2.42-8.08-4.08-2-8.17,1.3-6.45,6.46.35,1.05,2.27,1.47,2.82,2Z"/>
      <path class="cls-1" d="M298.71,283.34c1.36-1.37.82,2.67,2.28-1.71.75-2.1-.19-2.39-2.23-3.42h-.05c-9.17.23-6.3,11.44,0,5.13Z"/>
      <path class="cls-1" d="M304.46,295.35h-.05c-.53-6.34-12.08-2.39-9.7-.01,2.86,2.83,13.82,8.16,9.75.01Z"/>
      <path class="cls-1" d="M363.45,64.23s0,.02,0,.02c0,0,.01,0,.02,0l-.03-.02Z"/>
      <path class="cls-1" d="M312.4,319.34c-2.75-5.58-11.79-.19-6.85,2.28,2.51,1.25,9.31,2.56,6.9-2.26l-.05-.02Z"/>
      <path class="cls-1" d="M318.16,326.78l-.05-.02c-1.55.07-2.79,1.31-2.86,2.86.05,10.44,8.54-5.62,2.91-2.84Z"/>
      <path class="cls-1" d="M316.96,306.2c.04-2.2.44-2.08-1.09-2.85h-.05c-18.94-.64,1.14,14.99,1.14,2.85Z"/>
      <path class="cls-1" d="M232.57,104.29c-7.39-8.22-10.56-19.41-8.57-30.29,0,0-10.84-4.58-14.27-14.86-3.43-10.28-9.13-10.86-9.13-10.86h.01s-7.42,24.01,10.84,38.3c0,0-4,20.57,6.28,35.43,0,0,3.42-17.14,14.84-17.72Z"/>
      <path class="cls-1" d="M521.05,104.29c11.41.58,14.83,17.72,14.83,17.72,10.28-14.86,6.28-35.43,6.28-35.43,18.26-14.29,10.84-38.29,10.84-38.29,0,0-5.68.57-9.1,10.85-3.42,10.28-14.26,14.86-14.26,14.86,1.98,10.88-1.19,22.07-8.59,30.29Z"/>
      <path class="cls-1" d="M57.62,434.57c1.89-6.49,3.69-12.69,5.34-18.55,28.95-102.33-14.82-205.2-33.05-241.54l56.33-44.1c38.37,21.45,77.21,36.41,113.56,46.82.95,10.5,3.18,21.76,7.67,32.35-1.38.1-2.77.2-4.18.3,0,0,1.54-.02,4.29-.03.65,1.53,1.35,3.04,2.1,4.54,1.05,3.63,3.88,12.03,9.84,20.03-13.03,3.86-21.18,7.13-21.89,7.43.69-.2,9.48-2.72,23.05-5.93,3.29,4.11,7.45,8.04,12.66,11.04.6,2.57,1.22,5.42,1.52,7.51l.52,3.63c-11.11,7.09-17.85,13-18.35,13.45.56-.38,7.65-5.22,18.65-11.4l.32,2.25,7.61,2.33c7.98,2.56,15.64,6,22.84,10.28,4.16,8.89,15.94,34.27,22.33,50.89,4.16,10.89,8.18,19.02,12,24.32.44,6.5,2.79,14.54,9.25,20.21.53,1.27,1.18,2.6,1.94,3.94-97.95,28.13-169.62,118.39-169.62,225.38,0,129.49,104.98,234.47,234.47,234.47s234.47-104.98,234.47-234.47c0-106.99-71.66-197.24-169.61-225.37.75-1.34,1.39-2.66,1.92-3.93,6.47-5.67,8.82-13.71,9.26-20.21,3.79-5.32,7.82-13.43,12-24.32,6.38-16.62,18.17-42.03,22.33-50.89,7.19-4.27,14.85-7.73,22.81-10.3l7.73-2.31.32-2.24c10.97,6.17,18.04,10.99,18.59,11.37-.5-.45-7.21-6.34-18.29-13.41l.52-3.66c.29-2.1.91-4.95,1.52-7.52,5.2-3,9.36-6.92,12.66-11.03,13.53,3.21,22.3,5.72,22.99,5.92-.71-.3-8.84-3.56-21.84-7.42,5.98-8,8.82-16.41,9.85-20.03.75-1.51,1.46-3.03,2.11-4.57,2.71.01,4.22.03,4.22.03-1.38-.1-2.76-.19-4.11-.29,4.42-10.42,6.65-21.5,7.62-31.85,36.86-10.42,76.34-25.52,115.34-47.31l19.52,15.27,12.25-12.25-1.81-1.41-29.35-22.99s-.01.01-.02.01c-38.7,22.89-78.3,38.73-115.38,49.66-.24-7.5-.96-13.82-1.6-18.12,12-16.77,13.79-38.21,14-47.09,7.05-12.58,10.81-26.73,10.95-41.15,0-20.66-12.39-29.91-24.67-29.91-9.12,0-18.44,5.11-24.35,13.34-2.89,4-4.6,4.65-9.19,6.37-4.81,1.66-9.39,3.96-13.6,6.82-3.14,2.17-5.75,3.32-7.56,3.32-.53,0-2.11-.01-5.32-2.35-2.14-1.49-18.48-13.28-36-21.49l.9-5.64-10.63-3.15c-5.77-1.6-11.71-2.56-17.69-2.86l-.82-4.53-9.3-1c-.42-.04-1.3-.12-2.54-.12-1.56,0-3.12.12-4.66.34-1.39-1.17-2.92-2.18-4.54-3l-5.63-2.81-3,1.51c-.65-.59-1.33-1.08-2.06-1.59l-4.9-3.44-5.76,1.65-.74.23c-1.38-.93-2.86-1.69-4.42-2.28l-4.49-1.72-4.46,1.72c-1.54.61-3,1.39-4.36,2.33-.33-.11-.6-.2-.79-.25l-5.76-1.65-4.91,3.44c-.72.51-1.41,1.04-2.05,1.59l-3-1.51-5.62,2.82c-1.63.82-3.16,1.82-4.55,3-1.54-.22-3.09-.34-4.65-.34-1.25,0-2.13.12-2.55.12l-9.29,1-.83,4.53c-5.97.31-11.9,1.27-17.66,2.86l-10.63,3.11.9,5.64c-17.56,8.21-33.9,19.96-36,21.49-3.22,2.35-4.81,2.35-5.33,2.35-1.81,0-4.42-1.15-7.55-3.32-4.21-2.87-8.79-5.16-13.61-6.82-4.58-1.72-6.3-2.37-9.19-6.37-5.93-8.23-15.26-13.34-24.36-13.34-12.29,0-24.68,9.25-24.68,29.91.15,14.42,3.93,28.58,11,41.15.16,8.88,2,30.32,14,47.09-.63,4.31-1.34,10.64-1.58,18.14-1.94-.57-3.9-1.15-5.86-1.76-1.61-.49-3.22-.99-4.84-1.51-1.29-.4-2.58-.82-3.88-1.24-7.77-2.52-15.62-5.27-23.54-8.25-.88-.33-1.76-.67-2.64-1-5.29-2.03-10.6-4.16-15.93-6.41-1.77-.74-3.55-1.5-5.33-2.28-.89-.39-1.78-.78-2.67-1.17-3.45-1.52-6.91-3.1-10.37-4.72-2.78-1.31-5.56-2.65-8.35-4.02-.89-.44-1.78-.88-2.68-1.33-.89-.44-1.78-.89-2.67-1.35-.9-.45-1.79-.91-2.68-1.37-1.78-.92-3.57-1.85-5.35-2.8-.89-.47-1.78-.95-2.67-1.43-1.79-.96-3.57-1.94-5.35-2.93-3.56-1.98-7.11-4.02-10.66-6.12h-.01S6.64,169.37,6.64,169.37h0s.01.02.03.06c.05.08.14.23.27.47.02.03.04.07.06.11.05.07.09.15.13.23.5.86,1.33,2.36,2.44,4.44.35.65.72,1.36,1.12,2.12.21.39.42.8.63,1.22.02.03.03.06.05.09.14.28.29.56.44.86.7,1.36,1.45,2.86,2.25,4.49.28.56.57,1.14.86,1.74.29.59.58,1.2.88,1.83.3.63.61,1.27.92,1.92h0c.31.67.62,1.34.94,2.02.32.68.65,1.38.97,2.1.49,1.07.99,2.17,1.5,3.31.17.38.34.76.51,1.14.34.77.69,1.56,1.04,2.36.87,1.99,1.76,4.07,2.65,6.23.3.7.59,1.41.88,2.13,1.38,3.33,2.77,6.84,4.17,10.53.34.9.68,1.8,1.02,2.72,1.4,3.73,2.79,7.64,4.16,11.69.27.81.55,1.63.82,2.45.55,1.64,1.09,3.31,1.63,5,.72,2.25,1.42,4.54,2.12,6.87s1.38,4.7,2.05,7.1c.26.92.52,1.86.77,2.8.24.88.48,1.77.71,2.66.25.92.49,1.85.72,2.78.24.93.48,1.86.71,2.8.62,2.51,1.22,5.04,1.8,7.61.31,1.36.61,2.74.9,4.12.19.84.36,1.69.53,2.54.12.55.24,1.1.34,1.66.2.96.39,1.93.58,2.9.11.56.22,1.13.32,1.7.16.81.31,1.63.45,2.46.53,2.9,1.02,5.84,1.48,8.81.12.8.24,1.61.36,2.42.11.72.21,1.45.31,2.18.12.85.24,1.69.34,2.55.17,1.21.32,2.43.47,3.65.01.1.03.21.04.32.21,1.73.4,3.47.58,5.21.12,1.18.23,2.35.34,3.54.06.62.11,1.24.16,1.86.05.57.1,1.15.15,1.73.06.81.12,1.63.18,2.46.18,2.5.33,5.02.45,7.55.13,2.89.22,5.79.27,8.7.03,2.48.04,4.96.01,7.46-.01,1.03-.03,2.06-.05,3.1v.02c-.05,2.05-.11,4.11-.21,6.18v.02c-.05,1.03-.1,2.06-.16,3.1-.06,1.04-.13,2.08-.2,3.12-.14,2.08-.31,4.17-.51,6.26-.13,1.39-.27,2.79-.43,4.18-.16,1.4-.32,2.79-.5,4.19-.18,1.4-.38,2.8-.58,4.2s-.42,2.8-.65,4.2c-.12.7-.24,1.4-.36,2.1-.24,1.4-.5,2.81-.77,4.21-.27,1.4-.55,2.8-.85,4.21-.15.7-.3,1.4-.46,2.1-.15.7-.31,1.41-.48,2.11-.48,2.1-1,4.21-1.55,6.31-.37,1.41-.75,2.81-1.15,4.21-.76,2.69-1.55,5.45-2.36,8.27-.55,1.89-1.1,3.81-1.66,5.75-2.53,8.75-5.25,18.1-8.03,27.96-.62,2.19-1.24,4.4-1.87,6.64s-1.25,4.51-1.88,6.79c-.32,1.15-.63,2.3-.94,3.45-.64,2.31-1.26,4.65-1.89,7-.95,3.53-1.89,7.12-2.82,10.74-.31,1.21-.62,2.43-.93,3.65-2.48,9.76-4.91,19.83-7.19,30.16-.28,1.25-.55,2.49-.82,3.74-.39,1.79-.77,3.58-1.14,5.37-.19.87-.37,1.75-.55,2.63-2.18,10.52-4.18,21.28-5.94,32.22-.44,2.73-.86,5.47-1.27,8.23-.61,4.13-1.18,8.29-1.71,12.46-.35,2.79-.69,5.58-1,8.38-.13,1.14-.25,2.28-.37,3.42s-.24,2.28-.35,3.43c-.15,1.45-.29,2.9-.42,4.36-.08.84-.15,1.68-.23,2.51-.24,2.78-.46,5.57-.66,8.37-.07,1.02-.14,2.04-.2,3.06-.06.8-.11,1.6-.15,2.4-.07,1.16-.14,2.31-.2,3.47-.06,1.16-.12,2.31-.17,3.47-.13,2.76-.23,5.52-.31,8.29-.03.97-.05,1.95-.07,2.92-.02.91-.04,1.81-.05,2.72-.02.96-.03,1.92-.04,2.88-.01,1.3-.02,2.59-.02,3.89,0,.88,0,1.77.01,2.66,0,.76.01,1.52.02,2.28.05,4.51.17,9.02.37,13.54.05,1.11.11,2.21.16,3.32.17,3.2.38,6.41.63,9.62.1,1.31.21,2.62.33,3.93.02.29.05.59.08.88.09,1.01.19,2.03.29,3.04.16,1.58.32,3.16.5,4.73.12,1.04.24,2.07.37,3.11.16,1.31.32,2.61.5,3.92,3.61,27,10.45,53.64,21.6,79.12.3.7.61,1.41.93,2.11,2.71,6.06,5.68,12.05,8.9,17.97l13.27-13.27c-16.86-33-26.44-70.8-28.94-113.7-5.11-87.23,21.23-178.09,38.6-238.21ZM232.81,230.74c-8.51-8.68-11.24-20.47-11.34-20.89,4.14.03,8.83.08,13.92.17,1.99,6.21,3.77,12.48,5.37,18.8-2.75.62-5.4,1.27-7.95,1.92ZM234.87,232.67c2.11-.45,4.27-.91,6.49-1.36.52,2.1,1.01,4.21,1.48,6.33-3.04-1.27-5.68-2.99-7.97-4.97ZM243.14,228.28c-1.84-6.21-4.08-12.31-6.71-18.24,6.18.11,12.92.28,19.92.52-1.62,3.59-2.46,7.42-2.35,11.11.05,1.46.19,2.9.41,4.32-3.9.72-7.66,1.49-11.27,2.29ZM244.38,239.28l1.84,1.24c-.68-3.27-1.47-6.51-2.35-9.72,3.56-.72,7.26-1.44,11.06-2.13,1.32,5.56,3.94,10.72,7.65,15.06-5.58,2.34-10.78,4.89-15.53,7.46-.71-4.26-2.06-9.6-2.67-11.91ZM598.73,599.72c0,122.56-99.35,221.91-221.91,221.91s-221.91-99.35-221.91-221.91c0-103.2,70.44-189.94,165.86-214.76,2.86,2.41,6.25,4.55,10.25,6.16-95.92,20.96-167.73,106.39-167.73,208.6,0,117.93,95.6,213.53,213.53,213.53s213.53-95.6,213.53-213.53c0-102.2-71.79-187.62-167.7-208.6,3.99-1.6,7.39-3.74,10.24-6.16,95.41,24.83,165.84,111.57,165.84,214.76ZM349.41,431.61l1.47,11-6.47.86-3-22.33,6.19-.82.36,2.69c.54-.8,1.24-1.5,2.04-2.07,1.45-1.03,3.14-1.68,4.91-1.89,1.64-.24,3.32-.1,4.89.43,1.5.53,2.81,1.5,3.73,2.8,1.12,1.61,1.81,3.47,2,5.42l1.7,12.78-6.47.86-1.57-11.78c-.07-1.45-.68-2.81-1.71-3.83-1-.77-2.28-1.08-3.52-.84-.96.11-1.88.45-2.67,1-.77.55-1.35,1.33-1.65,2.23-.35,1.13-.43,2.32-.23,3.49ZM376.82,465.74c74,0,133.98,59.98,133.98,133.98s-59.98,133.98-133.98,133.98-133.98-59.98-133.98-133.98,59.98-133.98,133.98-133.98ZM449.82,434.38c1.78-.09,3.56.26,5.18,1.02,1.52.68,2.86,1.71,3.9,3,.99,1.25,1.56,2.77,1.65,4.36.06,1.95-.37,3.88-1.26,5.62l-5.41,11.7-5.88-2.75,5-10.79c.71-1.26.92-2.74.6-4.15-.43-1.21-1.39-2.16-2.6-2.59-.87-.42-1.83-.62-2.8-.58-.94.05-1.85.4-2.58,1-.9.77-1.61,1.74-2.07,2.83l-4.68,10.11-5.87-2.76,9.43-20.4,5.66,2.62-1.13,2.44c.9-.4,1.87-.63,2.86-.68ZM545.76,631.44c.29.9.86,1.69,1.63,2.24.97.68,2.09,1.11,3.26,1.27l11,1.9-1.11,6.44-22.2-3.85,1.07-6.15,2.63.46c-.6-.76-1.06-1.63-1.37-2.56-.56-1.71-.68-3.53-.35-5.3.26-1.64.9-3.2,1.88-4.54.95-1.28,2.27-2.23,3.78-2.72,1.87-.57,3.85-.65,5.76-.24l12.7,2.21-1.11,6.4-11.72-2c-1.4-.36-2.88-.19-4.16.49-1.04.72-1.72,1.85-1.86,3.1-.18.95-.12,1.93.17,2.85ZM525.63,713.98c-.3,1.66-1.05,3.21-2.16,4.48h-.02c-.93,1.25-2.12,2.27-3.5,3-1.14.59-2.43.86-3.71.76-2.5-.28-4.64-1.95-5.51-4.31-.38-1.28-.36-2.65.07-3.91.61-1.79,1.54-3.46,2.76-4.91l3.22-4.1c-.92-.8-2.14-1.16-3.35-.99-1.37.34-2.56,1.18-3.34,2.36-.74.95-1.33,2-1.74,3.13-.4,1.04-.61,2.15-.62,3.26l-5-1c.11-1.63.51-3.23,1.16-4.73.69-1.65,1.6-3.19,2.71-4.59,2.12-2.7,4.4-4.3,6.85-4.79s5.02.32,7.71,2.44l10.11,7.95-3.82,4.82-2.16-1.7c.35.89.47,1.86.34,2.83ZM450.46,765.89c-.18-.47-.63-.8-1.14-.82-.67-.04-1.35.02-2,.19-.8.18-1.67.4-2.61.64-.94.24-1.91.45-2.91.61-.95.16-1.92.17-2.88.05-.92-.11-1.79-.46-2.54-1-.86-.68-1.51-1.58-1.89-2.61-.56-1.26-.67-2.67-.32-4,.41-1.44,1.21-2.74,2.31-3.76,1.4-1.29,3.03-2.31,4.81-3,1.46-.6,2.97-1.06,4.52-1.35,1.39-.29,2.82-.35,4.23-.18l-.21,5.12c-1.18-.17-2.37-.15-3.54.06-1.06.19-2.1.5-3.09.91-1.04.36-1.97.96-2.71,1.77-.44.48-.58,1.17-.34,1.78.18.49.64.83,1.16.87.69.06,1.38.02,2.05-.13.81-.16,1.69-.37,2.62-.62.96-.26,1.93-.46,2.91-.61.95-.13,1.91-.13,2.86,0,.91.12,1.78.47,2.53,1,1.92,1.56,2.76,4.09,2.17,6.49-.43,1.44-1.25,2.73-2.36,3.74-1.46,1.31-3.15,2.34-4.99,3.04-1.72.73-3.54,1.24-5.39,1.51-1.51.26-3.04.26-4.55,0l.19-5.16c1.33.18,2.67.18,4,0,1.4-.16,2.78-.51,4.08-1.05,1.04-.35,1.98-.95,2.74-1.74.42-.48.53-1.16.29-1.75ZM428.64,773.99c-.1-.51-.49-.9-1-1-.66-.13-1.33-.16-2-.08l-2.67.31c-1,.12-2,.19-3,.22-.97.03-1.93-.08-2.87-.32-.89-.24-1.71-.7-2.38-1.34-.76-.79-1.3-1.77-1.54-2.84-.39-1.32-.32-2.73.19-4,.6-1.37,1.55-2.56,2.77-3.43,1.55-1.12,3.3-1.93,5.16-2.39,1.52-.41,3.08-.67,4.66-.76,1.42-.12,2.84,0,4.22.36l-.87,5.06c-1.14-.32-2.33-.45-3.52-.4-1.07.05-2.14.22-3.18.5-1.07.22-2.07.71-2.91,1.41-.51.42-.73,1.08-.57,1.72.12.49.51.88,1,1,.67.15,1.36.19,2.05.13.83,0,1.72-.15,2.68-.28.99-.13,2-.21,3-.23.96-.02,1.91.09,2.84.33.89.23,1.71.68,2.38,1.3,1.7,1.8,2.21,4.41,1.32,6.71-.61,1.37-1.59,2.55-2.82,3.41-1.61,1.16-3.41,2.02-5.33,2.52-1.8.5-3.66.77-5.53.8-1.53.07-3.06-.12-4.52-.56l.86-5.1c1.28.37,2.61.55,3.95.55,1.41.02,2.82-.16,4.18-.52,1.07-.22,2.08-.69,2.94-1.37.48-.43.68-1.09.51-1.71ZM414.32,785.11l-7.07.8-3.3-5.98-13.48,1.51-1.9,6.56-6.91.78,9.71-30.58,6.66-.75,16.29,27.66ZM457.03,746.38c2.42-3.77,6.46-6.19,10.93-6.55,2.03-.13,4.06.3,5.87,1.24,5.61,2.92,7.8,9.83,4.88,15.44-.11.22-.23.43-.36.64-1.17,1.89-2.79,3.46-4.72,4.56-1.89,1.18-4.04,1.87-6.26,2-2.04.1-4.07-.34-5.89-1.28-1.86-.98-3.4-2.47-4.45-4.29-2.25-3.6-2.25-8.16,0-11.76ZM478.41,738.78c-.51-2.33-.28-4.76.67-6.95.9-2.07,2.3-3.88,4.06-5.28,1.63-1.42,3.61-2.38,5.73-2.79,1.94-.37,3.95-.09,5.71.8l-2.18,5.32c-1.01-.42-2.11-.57-3.19-.41-.99.17-1.92.59-2.69,1.24-.83.66-1.46,1.52-1.85,2.5-.37.95-.47,1.99-.27,3,.54,2.29,2.12,4.2,4.26,5.17.95.38,1.99.49,3,.31,1.04-.19,2.01-.65,2.81-1.34.78-.63,1.38-1.46,1.74-2.39.38-1.03.45-2.15.19-3.22l5.67-1.09c.51,1.89.4,3.9-.33,5.72-.82,1.99-2.14,3.74-3.84,5.06-1.71,1.47-3.75,2.5-5.95,3-6.13,1.35-12.19-2.53-13.54-8.65ZM486.49,711.58v-.23c.05-1.08.52-2.09,1.31-2.82.71-.8,1.69-1.3,2.75-1.41.97-.08,1.93.28,2.6,1,.75.69,1.17,1.66,1.15,2.68-.04,1.08-.51,2.1-1.3,2.83-.72.8-1.73,1.28-2.8,1.36-1.96.08-3.62-1.44-3.71-3.41ZM492.9,718.16l4.58-4.67,16.08,15.78-4.56,4.66-16.1-15.77ZM529.17,696.89l-7.96-4.77-1.79,2.99-4.31-2.58,1.79-3-4.68-2.8,3.36-5.6,4.67,2.8,2.86-4.79,4.31,2.58-2.86,4.79,7.89,4.74c.66.46,1.48.63,2.27.48.74-.19,1.36-.68,1.72-1.36.52-.8.74-1.75.64-2.69l4.86.86c.05.88-.06,1.77-.33,2.61-.28.94-.68,1.84-1.19,2.68-1.04,2-2.8,3.53-4.92,4.27-1.93.57-4.04.16-6.33-1.21ZM516.83,667.26c.42-.98,1.19-1.77,2.16-2.21.89-.39,1.91-.36,2.77.09.95.41,1.68,1.2,2,2.18.3,1.05.16,2.17-.38,3.12-.42.99-1.22,1.77-2.22,2.18-1.81.71-3.86-.18-4.58-1.99-.03-.09-.06-.18-.09-.27-.3-1.04-.17-2.15.34-3.1ZM524.79,674.75l2.84-5.88,20.28,9.82-2.85,5.88-20.27-9.82ZM546.26,670.02c-4.19.78-8.47-.73-11.26-3.95-1.29-1.58-2.13-3.48-2.43-5.5-.53-4.43,1.02-8.87,4.2-12,3.07-2.93,7.55-3.83,11.52-2.32,4.03,1.31,6.97,4.8,7.55,9,.3,2.17.05,4.39-.72,6.44-.69,2.11-1.9,4.01-3.52,5.53-1.5,1.39-3.34,2.36-5.34,2.8ZM554,564.4c-.49,1.91-1.52,3.64-2.95,5-1.61,1.49-3.59,2.5-5.74,2.94-.25.06-.53.11-.85.16l-.89.12-3.9-16.62c-.57.27-1.09.62-1.55,1.04-.78.73-1.32,1.69-1.55,2.73-.25,1.18-.22,2.4.09,3.57.25,1.06.71,2.07,1.34,2.96.58.82,1.31,1.52,2.16,2.06l-2.88,4.24c-1.41-.77-2.61-1.85-3.52-3.17-1.02-1.53-1.75-3.25-2.13-5.05-.58-2.27-.61-4.64-.08-6.92.48-2.02,1.52-3.87,3-5.33,1.51-1.46,3.4-2.47,5.45-2.91,2.04-.52,4.19-.47,6.2.16,1.93.61,3.66,1.73,5,3.24,2.75,3.26,3.79,7.63,2.8,11.78ZM548.4,515.63c-.22.95-.86,1.74-1.74,2.16-.89.49-1.95.58-2.91.24-1.02-.38-1.84-1.15-2.29-2.14-.53-.94-.68-2.05-.4-3.09.53-1.88,2.49-2.97,4.37-2.44.09.02.17.05.25.08,1.01.39,1.82,1.15,2.27,2.13.52.93.68,2.02.45,3.06ZM543.74,529.68c1.27,1.43,2.26,3.08,2.92,4.88.57,1.47.98,3,1.23,4.56.26,1.4.29,2.83.08,4.23l-5.12-.34c.19-1.17.19-2.37,0-3.54-.16-1.06-.44-2.11-.83-3.11-.32-1.05-.91-1.99-1.7-2.75-.47-.46-1.15-.61-1.77-.39-.5.17-.85.62-.9,1.14-.08.68-.05,1.37.08,2.05.14.82.32,1.7.56,2.64.24.96.41,1.94.53,2.92.13.95.13,1.91,0,2.86-.14.91-.5,1.77-1.05,2.5-.68.85-1.6,1.48-2.63,1.83-1.24.51-2.62.57-3.91.18-1.43-.47-2.7-1.32-3.68-2.46-1.28-1.51-2.27-3.25-2.91-5.12-.68-1.74-1.14-3.56-1.37-5.41-.22-1.51-.19-3.06.09-4.56l5.16.33c-.22,1.32-.27,2.67-.13,4,.14,1.41.48,2.79,1,4.1.31,1.04.86,2,1.61,2.78.47.44,1.15.57,1.74.33.48-.17.81-.6.85-1.11.06-.67,0-1.34-.14-2-.16-.8-.36-1.68-.58-2.63-.22-.95-.39-1.92-.53-2.91-.14-.96-.14-1.93,0-2.89.14-.92.51-1.78,1.08-2.51,1.66-1.86,4.21-2.63,6.62-2,1.43.44,2.71,1.27,3.7,2.4ZM520.12,530.48l-3-5.82,20.06-10.25,3,5.82-20.06,10.25ZM530.75,507.11c-.31,2.47-1.9,4.66-4.76,6.55l-10.73,7.07-3.35-5.07,2.36-1.56c-.96.05-1.92-.15-2.8-.58-1.49-.79-2.74-1.97-3.62-3.41-.89-1.28-1.48-2.74-1.74-4.27-.21-1.27-.05-2.58.46-3.76.49-1.13,1.31-2.09,2.35-2.75,1.02-.71,2.23-1.1,3.47-1.12,1.34.04,2.63.5,3.7,1.31,1.51,1.14,2.79,2.56,3.78,4.17l2.86,4.34c1.05-.62,1.78-1.67,2-2.87.11-1.4-.31-2.8-1.18-3.91-.66-1-1.48-1.9-2.42-2.64-.86-.71-1.84-1.26-2.9-1.63l2.52-4.47c1.51.62,2.91,1.5,4.12,2.6,1.34,1.17,2.52,2.52,3.5,4,1.89,2.87,2.68,5.54,2.38,8ZM501.28,500.69l-4.14-5,23.86-19.85,4.18,5-23.9,19.85ZM506.47,479.8c-1.33,6.18-7.42,10.12-13.6,8.79-.24-.05-.48-.11-.72-.18-2.12-.63-4.06-1.78-5.62-3.35-1.64-1.5-2.87-3.39-3.57-5.5-.64-1.93-.76-4.01-.33-6,1.02-4.15,4.18-7.45,8.28-8.65,1.97-.51,4.04-.49,6,.08,4.27,1.35,7.67,4.6,9.21,8.81.66,1.93.78,4.01.35,6ZM478.31,471.91c-2.37,3.45-5.02,5.38-7.93,5.77-2.9.42-6.03-.54-9.38-2.84-1.71-1.17-3.26-2.55-4.62-4.11-1.23-1.36-2.16-2.96-2.74-4.7l4.79-2.4c.41,1.31,1.06,2.53,1.93,3.59.9,1.16,1.98,2.17,3.19,3,1.9,1.33,3.57,1.86,5,1.58,1.64-.4,3.05-1.45,3.9-2.91l.56-.81c-.86.2-1.75.25-2.63.16-1.73-.2-3.39-.84-4.82-1.84-1.64-1.11-2.98-2.58-3.9-4.33-.87-1.68-1.28-3.55-1.19-5.44.33-4.08,2.81-7.68,6.5-9.46,1.72-.77,3.62-1.05,5.49-.83,1.96.24,3.82.97,5.43,2.11,1.46.95,2.66,2.26,3.49,3.79.48.94.77,1.96.85,3l1.59-2.31,5.11,3.51-10.62,15.47ZM426.31,446.69c-.23.07-.46.13-.7.18-2.16.48-4.41.4-6.54-.21-2.15-.55-4.13-1.64-5.75-3.16-1.49-1.4-2.57-3.18-3.14-5.14-1.08-4.14.14-8.54,3.19-11.54,1.49-1.41,3.33-2.38,5.33-2.82,4.4-.84,8.94.42,12.29,3.4,1.5,1.38,2.59,3.14,3.15,5.1,1.76,6.08-1.75,12.43-7.83,14.19ZM405.79,422.03c-.81-1.17-1.85-2.16-3.06-2.91-1.19-.71-2.53-1.15-3.91-1.28-1.28-.15-2.57-.05-3.81.27-1.15.31-2.23.85-3.16,1.6-.93.75-1.69,1.69-2.25,2.75-.6,1.16-.97,2.42-1.09,3.72-.16,1.29-.06,2.6.28,3.86.32,1.15.88,2.22,1.62,3.16.76.93,1.7,1.68,2.76,2.23,1.15.58,2.39.94,3.67,1.06,1.38.16,2.78.02,4.09-.43,1.35-.48,2.58-1.24,3.61-2.24l3.9,4.45c-1.56,1.54-3.46,2.68-5.55,3.33-2.27.7-4.67.92-7.03.64-2.14-.21-4.23-.81-6.15-1.77-1.79-.9-3.39-2.15-4.69-3.68-1.27-1.51-2.22-3.26-2.8-5.14-.6-2-.78-4.09-.54-6.16.2-2.08.82-4.09,1.83-5.91.96-1.73,2.27-3.24,3.84-4.43,1.59-1.22,3.41-2.11,5.35-2.62,2.09-.53,4.26-.68,6.4-.43,2.35.21,4.63.89,6.71,2,1.91,1.06,3.54,2.57,4.73,4.4l-4.75,3.53ZM366.77,756.74l-2.59,31-6.51-.55,2.59-31,6.51.55ZM355.45,755.63l-4.84,30.69-6.48-1,4.87-30.69,6.45,1ZM329.06,781.16c-1.63.4-3.34.34-4.95-.16-1.51-.38-2.92-1.08-4.12-2.07-.99-.82-1.73-1.9-2.14-3.12-.72-2.41,0-5.03,1.83-6.75,1.03-.85,2.3-1.36,3.63-1.46,1.89-.13,3.79.09,5.6.65l5.02,1.37c.38-1.15.23-2.41-.38-3.45-.84-1.13-2.08-1.9-3.47-2.16-1.16-.32-2.36-.45-3.56-.39-1.12.03-2.22.26-3.25.69l-1-5c1.55-.53,3.17-.79,4.81-.77,1.78,0,3.55.24,5.27.71,3.32.91,5.67,2.4,7.07,4.46,1.4,2.06,1.65,4.75.75,8.06l-3.4,12.39-5.95-1.67.76-2.77c-.7.68-1.57,1.18-2.52,1.44ZM281.68,755.76c.18.74.66,1.37,1.32,1.74.79.52,1.73.76,2.67.69l-.95,4.83c-.89.04-1.77-.08-2.61-.37-.93-.3-1.82-.72-2.64-1.25-1.98-1.07-3.48-2.86-4.18-5-.53-1.93-.09-4.03,1.34-6.3l4.92-7.85-2.95-1.85,2.67-4.25,2.95,1.85,2.91-4.65,5.53,3.47-2.91,4.64,4.75,2.98-2.67,4.26-4.75-2.98-4.87,7.78c-.47.65-.66,1.47-.53,2.26ZM204.76,663.66c.35,1.02.9,1.96,1.6,2.78.67.74,1.49,1.35,2.39,1.78l-2.35,4.55c-1.49-.58-2.82-1.52-3.87-2.73-1.2-1.4-2.12-3.01-2.71-4.76-.85-2.18-1.16-4.53-.91-6.86.46-4.24,3.35-7.83,7.39-9.19,1.97-.76,4.1-.97,6.18-.59,1.98.38,3.82,1.28,5.33,2.62,3.14,2.9,4.71,7.11,4.24,11.36-.26,1.96-1.07,3.81-2.33,5.33-1.42,1.66-3.27,2.91-5.35,3.6-.27.1-.54.19-.82.26l-.88.23-5.85-16c-.51.32-.96.72-1.36,1.18-.68.82-1.1,1.83-1.21,2.9-.11,1.2.07,2.42.51,3.54ZM193.31,638.43c-1.15-1.37-1.91-3.03-2.19-4.8-.41-1.96-.29-4,.34-5.9.61-1.84,1.72-3.48,3.2-4.73,3.4-2.68,7.89-3.54,12.05-2.32,1.84.61,3.47,1.73,4.71,3.21,1.28,1.54,2.13,3.39,2.48,5.36.37,1.71.27,3.48-.29,5.14-.26.71-.62,1.38-1.07,1.99l10.69-2.05,1.23,6.41-30.46,5.86-1.22-6.12,2.5-.48c-.73-.41-1.4-.94-1.97-1.57ZM201.54,545.77l-3.53,15,7.53,1.76,3.12-13.22,5.3,1.25-3.12,13.22,10.4,2.43-1.56,6.6-28.53-6.73,5.09-21.56,5.3,1.25ZM200.65,527.09l2.62-6.52,2.77,9.28-1.91,4.74-3.48-7.5ZM256.56,464.86c.64-1.77,1.72-3.34,3.14-4.57l4.08,4.44-.6.47-.54.46c-2.43,1.88-2.88,5.38-.99,7.81.24.32.52.61.83.87l7.2,7.83-4.81,4.46-15.24-16.63,4.59-4.22,2.01,2.19c-.12-1.04-.01-2.1.33-3.11ZM282.85,438.45l5.73-3.13,2.62,4.81,4.93-2.7,2.41,4.41-4.93,2.7,4.39,8.04c.34.73.96,1.29,1.72,1.56.73.21,1.52.1,2.17-.3.84-.43,1.52-1.14,1.91-2l3.76,3.19c-.4.79-.94,1.5-1.6,2.1-.72.66-1.51,1.23-2.36,1.71-1.91,1.2-4.21,1.63-6.42,1.19-1.94-.48-3.56-1.89-4.85-4.24l-4.44-8.12-3.05,1.67-2.41-4.41,3.05-1.67-2.63-4.81ZM305.29,428.15c-.43.99-1.22,1.76-2.22,2.16-.97.47-2.08.55-3.11.22-1.85-.66-2.82-2.69-2.16-4.55.02-.07.05-.14.08-.21.45-.98,1.27-1.74,2.27-2.13.96-.47,2.06-.56,3.08-.27.91.29,1.64.97,2,1.86.44.92.46,1.98.06,2.92ZM307.35,431.88l9,20.65-6,2.61-9-20.64,6-2.62ZM284.26,454.5l7.54,10.41-4.95,3.6-1.59-2.17c.05.88-.11,1.77-.46,2.59-.73,1.57-1.87,2.91-3.31,3.88-1.24.94-2.67,1.6-4.19,1.92-1.26.26-2.57.16-3.78-.29-1.15-.44-2.14-1.21-2.85-2.22-.75-.99-1.2-2.19-1.27-3.43-.02-1.33.38-2.64,1.14-3.74,1.07-1.57,2.43-2.93,4-4l4.21-3.05c-.66-1.03-1.74-1.72-2.95-1.9-1.41-.05-2.79.43-3.86,1.35-.97.71-1.83,1.56-2.53,2.54-.68.9-1.19,1.92-1.5,3l-4.57-2.32c.55-1.54,1.37-2.98,2.41-4.24,1.12-1.39,2.41-2.63,3.86-3.67,2.78-2,5.41-2.91,7.9-2.72s4.74,1.67,6.75,4.46ZM254.32,481.01c.19.17.4.36.62.59l.64.65-10.94,12.98c.51.26,1.06.44,1.62.55,1.05.19,2.14.06,3.12-.38,1.09-.51,2.05-1.26,2.81-2.2.72-.81,1.27-1.75,1.62-2.77.32-.97.44-1.99.36-3l5.12-.22c.23,1.58.08,3.2-.44,4.71-.6,1.76-1.54,3.4-2.76,4.8v.04c-1.47,1.82-3.36,3.27-5.51,4.2-1.91.81-4,1.08-6.05.78-2.07-.34-4.01-1.26-5.59-2.64-1.64-1.33-2.88-3.08-3.58-5.07-.66-1.91-.78-3.96-.37-5.93.96-4.16,3.84-7.61,7.76-9.31,1.83-.75,3.83-.97,5.78-.63,2.15.41,4.15,1.4,5.79,2.85ZM236.6,479.86l-3.26,3.9-1-8.21,4.54-5.37-.28,9.68ZM246.36,508l-3.22,5.39-2.19-1.32c.27.81.41,1.65.42,2.51-.06,1.78-.61,3.51-1.58,5-1.01,1.74-2.46,3.18-4.2,4.17-1.69.96-3.6,1.43-5.54,1.38-4.32-.3-8.23-2.66-10.51-6.34-.95-1.68-1.42-3.6-1.36-5.53.09-2,.69-3.95,1.75-5.65.86-1.51,2.12-2.76,3.64-3.62.68-.36,1.41-.61,2.15-.76l-9.34-5.64,3.37-5.59,26.61,16ZM216.79,524.48c2.17-.29,4.38.02,6.38.9.27.1.53.22.78.36l.81.41-6.34,15.78c.6.11,1.21.12,1.82.04,1.06-.15,2.05-.62,2.84-1.34.89-.83,1.57-1.86,2-3,.42-.99.65-2.06.67-3.14,0-1-.2-1.99-.58-2.92l4.79-1.82c.71,1.43,1.07,3.02,1.05,4.62-.05,1.86-.46,3.7-1.21,5.4-.82,2.19-2.17,4.15-3.92,5.71-3.19,2.82-7.72,3.56-11.63,1.88-1.98-.74-3.71-2.02-5-3.69-1.22-1.61-1.98-3.51-2.21-5.52-.23-2.13.09-4.28.92-6.26.74-1.93,1.96-3.65,3.53-5,1.5-1.29,3.34-2.12,5.3-2.41ZM237.64,677.32l12,18.62-4.64,2.95-8.29-12.89-6.5,4.18,7.33,11.39-4.54,2.95-7.35-11.41-9,5.79-3.65-5.71,24.64-15.87ZM232.51,712.86c1.35-4.07,4.79-7.1,9-7.93,2.02-.35,4.09-.15,6,.58,2.07.8,3.9,2.1,5.34,3.79,1.49,1.64,2.56,3.61,3.1,5.76.5,1.98.45,4.05-.14,6-1.84,6.06-8.24,9.47-14.3,7.63-.24-.07-.47-.15-.7-.24-2.08-.8-3.93-2.11-5.38-3.81-1.5-1.64-2.57-3.62-3.1-5.78-.47-1.98-.41-4.05.18-6ZM252.02,734.05c.69-4.22,3.6-7.75,7.62-9.23,1.93-.66,4-.79,6-.37,4.36,1.03,7.99,4.03,9.83,8.12,1.68,3.9.98,8.42-1.82,11.61-2.61,3.32-6.87,4.87-11,4-2.17-.46-4.19-1.46-5.87-2.9-1.75-1.38-3.13-3.18-4-5.23-.79-1.9-1.05-3.97-.76-6ZM301.9,738.52l6,2.69-4.49,9.95c.7-.3,1.43-.5,2.19-.59,1.74-.15,3.49.16,5.06.91,1.83.79,3.42,2.05,4.62,3.65,1.14,1.55,1.84,3.4,2,5.32.22,4.32-1.66,8.49-5.05,11.18-1.56,1.13-3.4,1.83-5.32,2-1.99.18-3.99-.17-5.8-1.01-1.65-.69-3.08-1.81-4.14-3.24-.48-.7-.84-1.47-1.08-2.28l-1.04,2.3-5.74-2.56,12.79-28.32ZM339.49,438.55c-.44,2.25-1.54,4.32-3.17,5.94-1.57,1.56-3.51,2.69-5.64,3.3-2.11.69-4.37.83-6.55.41-2.01-.39-3.87-1.3-5.4-2.66-3.13-2.92-4.47-7.29-3.49-11.46.51-1.97,1.55-3.77,3-5.2,3.27-3.06,7.77-4.44,12.19-3.72,6.2,1.2,10.25,7.19,9.06,13.39ZM509.35,239.32c-.62,2.34-1.96,7.66-2.69,11.9-4.77-2.59-10.01-5.15-15.63-7.51,3.7-4.33,6.32-9.49,7.63-15.05,3.87.7,7.63,1.43,11.25,2.16-.89,3.21-1.67,6.44-2.35,9.7l1.79-1.2ZM499.19,225.98c.23-1.43.37-2.88.42-4.35.12-3.68-.7-7.5-2.33-11.08,7.06-.25,13.84-.42,20.06-.53-2.63,5.95-4.87,12.06-6.71,18.29-3.66-.82-7.48-1.6-11.44-2.33ZM510.94,237.61c.46-2.1.94-4.2,1.45-6.29,2.2.46,4.35.91,6.44,1.36-2.27,1.96-4.88,3.67-7.89,4.93ZM532.25,209.84s-2.68,12.07-11.35,20.91c-2.53-.65-5.17-1.29-7.91-1.91,1.58-6.33,3.36-12.62,5.33-18.84,1.11-.02,2.2-.04,3.27-.05-.03.12-.04.24-.04.34,0,.37.15.67.53.86,3.26,1.63,5.76.72,7.49-1.3.92,0,1.81-.02,2.68-.02h0ZM460.87,44.42c-2.86-1.32-6.5-1.9-8.09-4.15,2.7,1.3,5.42,2.69,8.09,4.15ZM199.41,89.96c-7.1-11.28-10.91-24.32-11-37.65,0-21.93,18.01-20.76,26.3-9.23,8.29,11.53,15.37,8.9,25.86,16.17s18.59,7.28,27.43.81c5.27-3.85,13.9-9.59,23.26-14.8-.8.8-1.43,1.57-2.1,2.26-.68.68-1.39,1.28-2.34,1.74-2.07,1,2.8,2,4,1.62,2.14-.72,10-7.28,5.24-7.28l.04.04c-.79.12-2.2.37-3.36.8,5.91-3.23,12.04-6.19,17.76-8.3l-.71-4.42s13.69-4,24.53-1.72l1.14-6.28c3.75-.21,7.5.58,10.85,2.28.64-2.77,2.54-5.07,5.13-6.24,0,0,3.42,1.71,6.28,3.43,1.38-2.87,3.44-5.37,6-7.27,2.41.87,4.61,2.23,6.46,4h.01s2.42-4.85,6.64-6.47c4.23,1.62,6.65,6.47,6.65,6.47,1.85-1.78,4.04-3.16,6.45-4.05,2.56,1.9,4.62,4.4,6,7.28,2.85-1.72,6.27-3.43,6.27-3.43,2.6,1.17,4.51,3.5,5.14,6.28,3.35-1.7,7.09-2.49,10.84-2.28l1.14,6.28c4.5-.95,9.5-.81,13.8-.33-19.36-.93-.6,12.69,3.88,11.19,1-.33,4.16-8.23,3.42-9.71-.06-.13-.17-.24-.3-.34,2.3.49,3.74.91,3.74.91l-.71,4.42c3,1.11,6.12,2.46,9.26,3.95-.21,2.36.17,4.34,1.74,5.91,3,3,14.3,5.19,9.13,0-.29-.29-.63-.55-.98-.79,9.39,5.23,18.07,10.99,23.38,14.85,8.88,6.46,16.95,6.44,27.44-.81s17.57-4.6,25.86-16.13c8.29-11.53,26.29-12.7,26.29,9.23-.09,13.33-3.9,26.37-11,37.65,0,0,1.35,29.32-14.75,47.1,0,0,2.24,10.62,2.41,25.1.08,5.86-.18,12.35-1.08,19.02-1.23,9.2-3.64,18.76-8.02,27.47-.78-.05-1.56-.09-2.34-.13,1.31-2.19,1.96-5.07,1.96-7.52,0-1.42-.22-2.7-.67-3.61-1.3-4.33-13.37.32-10.27,3.43,1.11,1.11,6.37,1.62,3.42,4.57-.28.28-1.53,1.49-2.43,2.75-1.19-.04-2.37-.09-3.55-.12.53-1.66,1.08-3.31,1.64-4.96-.82,1.63-1.6,3.27-2.36,4.93-4.54-.14-9.04-.2-13.57-.18-2.88.01-5.76.06-8.67.16-2.61-4.51-6.52-8.47-11.38-11.05-9.47-5.03-27.14-4.11-28.39-13.61-2.94,10.63,17.21,10.41,27,16.21,4.29,2.54,7.58,5.4,9.91,8.55-3.2.13-6.44.32-9.73.56h-.01c.8-1.26,1.8-2.91,1.36-4.18-.85-2.56-3.19-5.47-6.85-3.64-.85.43-1.5,2.71-2,3.24-1.23,1.21-.49,3.47.93,5.14-2.36.22-4.77.48-7.23.77h0c1.87-2.4-1.35-5.87-2.2-7.57-.8,0-2.08-.22-2.43.81-.48,1.45,1.2,3.24,0,4.44-2,2.01-5.57,1.34-7.02,3.92h-.02c-3.21.49-6.51,1.05-9.9,1.66.05-.26.1-.52.1-.73,0-.17-.03-.31-.12-.4-.69-.7-1.36.1-2-1.21-1.28,1.23-1.91,2.26-2.11,3.11h-.01c-.64.12-1.28.24-1.92.37.63-.08,1.26-.15,1.89-.23-.03.15-.04.3-.04.44,0,3.29,7.31,3.02,4.19-.06-.15-.15-.13-.47-.07-.83,3.11-.33,6.3-.63,9.55-.91h.01c-.12.5-.19,1.06-.19,1.74,0,.55-.22,1.31.4,1.62,1.6.29,3.24.29,4.84,0,2-1-.31-3.16.41-3.64.11-.07.27-.14.45-.2,5.46-.41,11.05-.75,16.6-1.04h.02c.36.06.71.04,1.05-.05h.04c4.6-.24,9.17-.44,13.65-.61,1.87,3.37,2.73,7.03,2.6,10.93-.05,1.35-.17,2.69-.36,4.02-9.48-1.69-19.68-3.07-30.3-3.84.28-.48.51-1,.69-1.53.62-1.25,3.44-.21,4-.81,1.92-1.92-2.73-2.41-3.6-2.42,0,0,0,0,0,0h-.03s0,0,.01,0c-1.19-.02-2.34.41-3.21,1.21-.6.6-.85,2.09-.75,3.35h-.01c-1.74-.11-3.49-.2-5.25-.27h-.01c-.16-1.7-1.63-2.88-3.63-1.87h-.03c-1.16.44-1.8,1.04-2.07,1.69h-.01c-.97-.02-1.94-.03-2.91-.04-3.76,0-7.55,0-11.35.2,2.03.1,4.07.21,6.12.35h.02c-.42.22-.68.76-.68,1.43,0,9.08,6,2.75,2-1.2h0c-.09-.07-.17-.11-.26-.15h.04c2.3.16,4.59.34,6.9.55.38,2.18,4,4.05,5.43,1.16.11-.2.19-.41.25-.61,2.09.21,4.18.44,6.25.69.02,0,.04.01.06.01.07.02.14.02.21.02.02.01.04.01.06.01h.01c10.87,1.28,21.57,2.95,31.6,4.76-1.12,5.4-3.31,10.52-6.44,15.05-9-3.72-18.96-6.9-29.56-8.81h-.01c.14-1.42,1.37-1.2,0-2.58-3.73,0-5.74.67-6.63,1.57h-.01c-1.28-.17-2.55-.3-3.85-.42-.04-.92-.34-.75-1.59-.75h-.03c-.23.18-.42.37-.59.57-1.19-.09-2.39-.16-3.59-.21,1.12.15,2.25.32,3.37.5-2.32,3.31,2.4,8,2.43.42,1.12.2,2.24.42,3.36.65h0c-1,2.91,6.13,6.9,7.02,1.65h.01c9.66,2.5,19.17,5.92,28.01,9.65-.95,1.21-1.99,2.37-3.09,3.47,1.32-.99,2.55-2.06,3.71-3.21,5.6,2.38,10.92,4.87,15.84,7.34-4.32,1.43-17,6-27.53,13.25,0,0-16.14,33.99-24.21,55-8.07,21.01-12.91,24.24-12.91,24.24,0,0,1.55,11.6-6.67,16.66l-.28-1.41c-12.88,4.99-22.71-1.85-34.72-1.54,10.96,1.85,22.49,8.61,34.17,4.16-.43,1.42-1.54,4.4-3.85,7.55-.88,1.19-1.93,2.41-3.18,3.58-2.84,2.63-6.72,4.99-11.98,6.22h-.02c-3.83.88-8.39,1.17-13.82.51,0,0-8.67,4.72-23.05,4.72s-23.05-4.72-23.05-4.72c-5.45.66-10.03.37-13.86-.52h-.01c-5.25-1.23-9.12-3.59-11.95-6.23-1.26-1.16-2.31-2.38-3.19-3.58-2.28-3.11-3.38-6.06-3.82-7.49,11.65,4.41,23.15-2.36,34.07-4.2-12-.31-21.84,6.53-34.71,1.54l-.27,1.35c-8.14-5.09-6.61-16.6-6.61-16.6,0,0-4.84-3.18-12.91-24.24s-24.21-55-24.21-55c-10.54-7.26-23.23-11.82-27.54-13.25,4.9-2.46,10.2-4.95,15.76-7.3,1.09,1.09,2.26,2.12,3.5,3.07.01,0,.01.01.02.01-2.31,7,14.82,5.97,7.28-1.59h-.05c-.34-1.3-3.22-3.64-4.56-2.29-1.47,1.48-2.29,2.76-2.66,3.85l-.02-.02c-1.04-1.05-2.01-2.15-2.91-3.29,7.86-3.32,16.23-6.39,24.78-8.79h.01c3.36,2.75,9.26-.06,8.74-2.21h.01c3.57-.78,7.14-1.43,10.7-1.91-3.85.16-7.64.51-11.36,1.04h0c-.37-.26-.89-.5-1.61-.68-.14.02-.31.03-.51.03-1.65,0-5.19-.59-5.19.55,0,.36-.46.94-.83,1.51-4.71.97-9.29,2.18-13.7,3.58-4.41,1.39-8.65,2.96-12.7,4.63-3.14-4.54-5.32-9.66-6.43-15.07,9.09-1.64,18.74-3.16,28.56-4.4h.01c2.66,1.44,6.28,1.69,5.42-.65h.01c1.44-.16,2.89-.32,4.33-.46h.01c.7,3.36,4.56,1.38,5.78-.56,4.67-.41,9.32-.74,13.94-.96-3.8-.16-7.59-.23-11.34-.2-.75.01-1.5.01-2.25.03-.04-.67-.65-1.16-2.2-1.16h-.05c-1.13-.08-3.57.02-3.95,1.34-1.79.07-3.58.16-5.35.28h-.01c-.27-.33-.58-.68-.96-1.06-1.41-1.48-1.23-1.77-3.38-2.85h-.05c-2.7,1.51-2.97,3.09-2.14,4.39h-.01c-9.37.81-18.39,2.07-26.83,3.57-.18-1.32-.3-2.65-.35-3.99-.13-3.91.74-7.58,2.61-10.95,10.54.39,21.61.96,32.24,1.77,1.55,2.31,4.13,4.55,6.08,4.55,1.34,0,2.39-1.04,2.63-3.82,1.85.17,3.67.35,5.47.54-.32.78-.46,1.48-.46,2.09,0,5.52,11.51,3.98,7.03-2.74-.71-1.07,1.31-2.37-1.14-1.14-1.49.12-4.26-.61-5.14,1.14-.04.07-.06.14-.09.21h-.01c-1.91-.34-3.78-.67-5.62-.97,0-.13.01-.24.01-.38,0-.81.45-3.55,0-4-.75-.77-1.47-.14-2.25-1.69l-.03-.02c-3.59-.69-2.38,1.24-4,2.85-.63.63-3.24-1.32-3.42-1.14-.6.6-.49,1.69.05,2.91-10.58-1.46-20.31-2.29-29.72-2.68,2.33-3.15,5.63-6.01,9.9-8.53,9.74-5.75,29.98-5.6,27.03-16.25-1.25,9.5-18.95,8.65-28.42,13.65-4.86,2.57-8.76,6.52-11.36,11.03-2.9-.09-5.78-.14-8.64-.16v-.02c-4.49-.02-8.96.04-13.47.18-.81-1.76-1.65-3.52-2.53-5.25.6,1.75,1.19,3.51,1.76,5.27-4.56.15-9.17.37-13.88.64-4.43-8.86-6.86-18.59-8.08-27.93-.83-6.5-1.09-12.82-1.01-18.54.05-3.9.24-7.53.51-10.74.1.54.3,1.01.67,1.39,2.56,2.6,6.1-7.6,4.56-9.15-1.11-1.1-1.95-2.87-3.82-3.89.29-1.75.5-2.73.5-2.73-16.14-17.78-14.8-47.14-14.8-47.14ZM212.64,147.83c.34-3.26.73-5.91,1.03-7.77.74,2.03-.37,5.06-1.03,7.77Z"/>
      <path class="cls-1" d="M740.5,533.04c-.55-2.63-1.1-5.25-1.66-7.85-1.69-7.8-3.46-15.45-5.28-22.95-.61-2.49-1.22-4.97-1.84-7.43-.31-1.23-.61-2.45-.92-3.67-.62-2.44-1.25-4.86-1.87-7.26-.32-1.2-.63-2.39-.94-3.58-.63-2.38-1.26-4.73-1.89-7.06-.31-1.17-.63-2.33-.94-3.49-.63-2.31-1.26-4.6-1.89-6.86-.31-1.13-.63-2.26-.94-3.38-1.88-6.72-3.73-13.22-5.53-19.48-.91-3.13-1.79-6.19-2.66-9.2-1.16-4-2.29-7.9-3.37-11.67-.82-2.82-1.61-5.58-2.37-8.27-.04-.17-.14-.34-.14-.5l-13.5,13.51c.99,3.45,2.02,7.01,3.08,10.66,17.38,60.13,43.67,150.99,38.59,238.22-5.95,102.31-52.17,175.56-141.36,224-136.11,73.86-193.43,124.84-217.34,152.89-21.46-25.13-69.8-68.77-177.86-130.86l-12.87,12.87c2.71,1.55,5.37,3.08,8,4.6,1.32.76,2.63,1.52,3.92,2.28,2.59,1.5,5.15,3,7.67,4.49,1.26.74,2.51,1.48,3.75,2.22,1.24.73,2.47,1.47,3.69,2.2,1.23.73,2.44,1.46,3.64,2.18,2.14,1.29,4.26,2.57,6.34,3.83.26.16.52.32.78.48,1.17.71,2.33,1.42,3.48,2.13,1.15.71,2.3,1.41,3.43,2.11,2.27,1.4,4.5,2.79,6.7,4.17,2.19,1.37,4.35,2.74,6.48,4.09,1.07.68,2.12,1.35,3.17,2.02,2.48,1.59,4.91,3.15,7.3,4.71,2.14,1.39,4.25,2.77,6.32,4.14.51.34,1.02.68,1.53,1.01,1.55,1.03,3.07,2.05,4.58,3.06,1.29.87,2.57,1.73,3.83,2.58.92.62,1.83,1.24,2.73,1.86,5.87,4.01,11.41,7.89,16.63,11.64.56.41,1.12.81,1.67,1.21.25.18.49.35.73.52,1.17.85,2.32,1.69,3.45,2.52,3.52,2.58,6.89,5.1,10.12,7.56.58.44,1.16.88,1.73,1.32.9.69,1.78,1.37,2.66,2.05.72.55,1.42,1.1,2.12,1.65,2.22,1.74,4.36,3.44,6.43,5.11.54.43,1.08.86,1.61,1.3,4.78,3.87,9.15,7.56,13.15,11.06.78.68,1.54,1.35,2.28,2.01.57.51,1.14,1.01,1.69,1.51,1.01.9,1.99,1.79,2.94,2.67.48.43.95.87,1.41,1.3.47.43.92.86,1.38,1.29,3.41,3.19,6.47,6.2,9.22,9.01.68.7,1.35,1.38,1.99,2.06.67.7,1.32,1.38,1.94,2.05.29.31.57.61.84.91.89.96,1.73,1.89,2.54,2.8.54.59,1.05,1.18,1.54,1.75,1.01,1.16,1.95,2.28,2.83,3.35.31.37.61.74.9,1.1.33.41.65.81.96,1.21.2.24.39.49.58.73.38.48.74.95,1.08,1.41.5.65.97,1.28,1.41,1.89.63.88,1.21,1.7,1.74,2.48.12.19.25.37.37.55.02.04.04.07.07.1.2.3.4.6.58.89.23.36.45.7.66,1.04.19.31.38.61.55.9.53.87.96,1.63,1.3,2.28.12.22.23.43.33.62.21.41.38.77.53,1.07.05.12.11.24.15.34.03.06.05.11.07.17.03.05.05.1.07.15.04.1.08.18.11.25.02.07.04.12.06.17.04.11.06.16.06.16,0,0,18.84-56,225.68-168.27,166-90.13,164.22-251.68,138-378.69Z"/>
      <path class="cls-1" d="M61.03,808.91l-12.88,12.88c5.57,8.11,11.7,16.04,18.46,23.75,3.73,4.29,7.67,8.5,11.81,12.65.83.83,1.66,1.66,2.5,2.48.84.82,1.69,1.64,2.55,2.46,3.21,3.08,6.53,6.09,9.96,9.05.69.6,1.38,1.19,2.08,1.78,1.48,1.27,2.97,2.51,4.48,3.74.6.48,1.2.97,1.81,1.46.08.07.16.13.23.18,1.41,1.13,2.83,2.25,4.27,3.36.74.57,1.49,1.14,2.24,1.71.75.58,1.51,1.15,2.28,1.71.76.56,1.52,1.13,2.3,1.69,1.65,1.21,3.31,2.4,5,3.57.69.48,1.38.96,2.07,1.43,1.66,1.15,3.33,2.28,5.03,3.39.76.51,1.53,1.01,2.31,1.51,1.11.73,2.23,1.44,3.35,2.14,1.14.73,2.29,1.44,3.45,2.15.01.02.03.03.05.04,1.34.82,2.7,1.65,4.07,2.46,1.37.82,2.76,1.64,4.16,2.44,1.58.92,3.18,1.83,4.8,2.73,1.23.69,2.48,1.38,3.74,2.06,3.23,1.75,6.42,3.49,9.56,5.22,1.18.64,2.35,1.29,3.52,1.94l12.91-12.91c-5.44-3.03-11.03-6.09-16.75-9.2-43.02-23.35-76.04-52.48-99.36-87.87Z"/>
      <path class="cls-1" d="M687.62,395.46l14.46-14.46c-.12-.8-.23-1.59-.34-2.39-.09-.76-.19-1.52-.29-2.28-.1-.78-.19-1.55-.28-2.33-.09-.78-.18-1.55-.26-2.33-.08-.78-.16-1.55-.23-2.33-.14-1.49-.27-2.98-.4-4.47-.08-1.05-.15-2.11-.22-3.16-.09-1.32-.16-2.64-.23-3.95-.04-.77-.08-1.54-.11-2.31-.03-.72-.06-1.43-.08-2.15-.01-.08-.01-.17-.01-.25-.02-.73-.05-1.47-.06-2.2-.02-.76-.04-1.53-.05-2.29-1.59-95.8,47.48-179.19,47.48-179.19l-26-20.37-12.28,12.28,16.86,13.19c-17.03,33.91-56.31,125.73-37.96,220.99Z"/>
    </g>
  </g>
</svg>