<svg xmlns="http://www.w3.org/2000/svg" viewBox="0 0 753.65 1080"><defs><mask id="k" maskUnits="userSpaceOnUse"><path d="path14" fill="#fff" fill-rule="nonzero"/>
<path d="M602.5 911.73C395.66 1024 376.82 1080 376.82 1080S360.2 1030.62 187 931.68l521.26-521.29c0 .16.1.33.14.5C742.07 529.67 830.39 788 602.5 911.73M701 133.4 34.69 799.75c-71.2-130.67-14.8-299.37 10.55-388.86 33.64-118.78-38.6-241.52-38.6-241.52L83.84 109c140.56 83.15 293 73.25 293 73.25s152.43 9.9 293-73.25Z" fill="#fff" fill-rule="nonzero"/>
<path d="M702.08 381 164.23 918.89q-6.4-3.55-13.08-7.16c-46.37-25.17-79.66-55.92-103-89.94L721 149l26 20.37S686.36 272.41 702.08 381" fill="#fff" fill-rule="nonzero"/>
<path d="M735.52 672.4c-5.95 102.31-52.17 175.56-141.36 224-136.11 73.86-193.43 124.84-217.34 152.89-23.91-28-81.22-79-217.34-152.89C70.3 848 24.07 774.71 18.11 672.4 13 585.17 39.34 494.31 56.71 434.19c1.89-6.49 3.69-12.69 5.34-18.55C91 313.31 47.23 210.44 29 174.1L85.33 130c112.9 63.1 229.78 70.07 275.75 70.07 8.06 0 13.5-.23 15.74-.34 2.24.11 7.69.34 15.75.34 46 0 162.84-7 275.75-70.07l56.35 44.09c-18.25 36.34-62.07 139.21-33.08 241.54 1.66 5.86 3.46 12.06 5.34 18.55 17.38 60.13 43.67 150.99 38.59 238.22" fill="#fff" fill-rule="nonzero"/>
<path d="M518 328.7c-1.16 2.66-2.27 5.25-3.27 7.73 94.65 49.78 159.33 149.13 159.33 263.29a295.63 295.63 0 0 1-62.28 181.86l7.31 4.25a304.17 304.17 0 0 0 63.35-186.11c.03-117.61-66.78-219.94-164.44-271.02m-446.85 271a304.2 304.2 0 0 0 60.67 182.59l5.23-7a295.67 295.67 0 0 1-57.5-175.57c0-114.16 64.69-213.51 159.33-263.29-1-2.48-2.11-5.07-3.26-7.73C138 379.78 71.18 482.11 71.18 599.72ZM192.17 833.67l26 19.55-7.84 10.44-26-19.54-15.33 20.5-13-9.78 42.22-56.25 42.51 31.9-7.84 10.45-29.56-22.14Zm99.27 33.57 5.19-12-48.78-21.12-27.95 64.57 50 21.63 5.19-12-35.13-15.21 6.47-14.94 30 13 5-11.62-30-13 6.07-14Zm24.9 18.91a21.1 21.1 0 0 1 5.73-6.32 20.7 20.7 0 0 1 7.76-3.46 24.8 24.8 0 0 1 9.19-.18 22.8 22.8 0 0 1 9.21 3.54 24.5 24.5 0 0 1 7 7.36l11.83-7.9a32.2 32.2 0 0 0-10.81-11.12 41.7 41.7 0 0 0-15.84-5.7 42.2 42.2 0 0 0-15.4.27 36 36 0 0 0-13.14 5.61 34.7 34.7 0 0 0-9.74 10.16 38.5 38.5 0 0 0-4.54 28.79 35.12 35.12 0 0 0 16.87 22 42 42 0 0 0 14.53 5 41.2 41.2 0 0 0 16.92-.59 32.7 32.7 0 0 0 13.72-7.29l-8.82-11.16a24.05 24.05 0 0 1-8.92 5 22.4 22.4 0 0 1-9.85.53 24.7 24.7 0 0 1-8.68-3A20.5 20.5 0 0 1 317 912a21.25 21.25 0 0 1-3.51-7.78 26.07 26.07 0 0 1 2.85-18.06Zm133.92 8.54a36.1 36.1 0 0 1-1.26 14.76 34.8 34.8 0 0 1-6.7 12.41 37.1 37.1 0 0 1-11.2 8.94 41.5 41.5 0 0 1-14.81 4.46 42.8 42.8 0 0 1-15.63-.91 36.6 36.6 0 0 1-13.06-6.17 34.7 34.7 0 0 1-9.32-10.55 38 38 0 0 1-3.28-28.75 34.6 34.6 0 0 1 6.7-12.41 37.2 37.2 0 0 1 11.29-9 44.6 44.6 0 0 1 30.4-3.53 36.8 36.8 0 0 1 13 6.18 35.06 35.06 0 0 1 13.94 24.58Zm-16.37 1.91a24.3 24.3 0 0 0-2.71-8.9 21.5 21.5 0 0 0-5.41-6.55 20.1 20.1 0 0 0-7.48-3.78 23.3 23.3 0 0 0-8.86-.59 22.8 22.8 0 0 0-8.45 2.6 20.7 20.7 0 0 0-6.4 5.4 21 21 0 0 0-3.82 7.63 25.88 25.88 0 0 0 2.11 18.11 21.3 21.3 0 0 0 5.42 6.61 20.15 20.15 0 0 0 7.47 3.78 23.3 23.3 0 0 0 8.87.59 23 23 0 0 0 8.44-2.6 20.9 20.9 0 0 0 6.41-5.4 21.2 21.2 0 0 0 3.82-7.63 24.4 24.4 0 0 0 .59-9.27m76.93-29.52-30.22 12.11-6.92-17.26 34.24-13.71-4.86-12.13-49.35 19.77 26.16 65.29 15.11-6-9.53-23.79 30.23-12.1Zm66.47-15.42-26.49 19 3.7 15.9-13.5 9.75-15.56-75.43 13.06-9.37L605 850.3l-13.88 10Zm-11.37-7-24.76-15.36 6.61 28.39Z" fill="#fff" fill-rule="nonzero"/>
<path d="M376.83 474.11A125.57 125.57 0 0 0 267.78 662q1.17 2 2.4 4a126.64 126.64 0 0 0 43.45 42.21c1 .59 2 1.16 3 1.7a125.59 125.59 0 1 0 60.18-235.83Zm-21.65 26.52 23.62-22a1.72 1.72 0 0 0 .53-1 121.5 121.5 0 0 1 40.27 7.69 1.66 1.66 0 0 0 .15 1.8l23.44 31.72a1.72 1.72 0 0 1-.35 2.39l-18 13.5a1.7 1.7 0 0 1-1.3.32l-46.64-7.72a1.78 1.78 0 0 1-1-.55L355.06 503a1.7 1.7 0 0 1 .12-2.37M384.92 658l8.27-45.17a1.7 1.7 0 0 1 .92-1.21l42.12-21.41a1.72 1.72 0 0 1 1.81.16l29.07 22.13a1.69 1.69 0 0 1 .64 1.69l-6.05 30.61-3 15.17a1.76 1.76 0 0 1-.88 1.18l-40.24 21.47a1.75 1.75 0 0 1-1.85-.15l-30.16-22.8a1.7 1.7 0 0 1-.65-1.67m-3.37-.63a1.74 1.74 0 0 1-1.21 1.35L337.57 671a1.74 1.74 0 0 1-1.65-.38l-36-33.38a1.74 1.74 0 0 1-.51-1.62l9.59-45.11a1.69 1.69 0 0 1 1.25-1.3l12.07-3 30-7.57a1.75 1.75 0 0 1 1.57.39l6.06 5.48 29.24 26.37a1.7 1.7 0 0 1 .54 1.57Zm-75.17-140.52 15.91-4.72 27.71-8.22a1.72 1.72 0 0 1 1.78.51l20.9 23.81a1.73 1.73 0 0 1 .27 1.83l-9 19.75-11.11 24.47a1.74 1.74 0 0 1-1.14 1l-30.14 7.59-12 3a1.75 1.75 0 0 1-1.76-.59l-10.15-12.79-11-13.89a1.74 1.74 0 0 1-.2-1.82L299 530.85l6.36-13.12a1.7 1.7 0 0 1 1.02-.88m-40 135.08a121.56 121.56 0 0 1-11.73-52.21 124 124 0 0 1 .84-14.4l.36.16a1.72 1.72 0 0 1 .93 1.24l3.58 19.85 5.3 29.35v.28l1.34 15.58a.3.3 0 0 1-.63.15Zm-7.72-70.21a1.7 1.7 0 0 1-2 .34l-.69-.33a122 122 0 0 1 40.63-74.08 1.3 1.3 0 0 1 2 .39l3.52 6.84a1.76 1.76 0 0 1 0 1.55l-19.55 40.31a2.3 2.3 0 0 1-.31.44l-5.07 5.26ZM271.14 661l-1.76-21.46a1.72 1.72 0 0 1 1.8-1.85l24.82 1.15a1.7 1.7 0 0 1 1.09.46l37 34.27a1.74 1.74 0 0 1 .53 1.09l2.56 27.19a1.71 1.71 0 0 1-1.46 1.86l-18.41 2.68A123 123 0 0 1 271.14 661m105.69 60.9a121.5 121.5 0 0 1-54.41-12.79l16.38-2.39a1.6 1.6 0 0 1 .61 0l30 6.62 18.94 4.18a1.65 1.65 0 0 1 1 .63l2.17 2.85a125 125 0 0 1-14.69.9m18.58-1.41L393 717.3a1.73 1.73 0 0 1 .06-2.16l24.29-28.38a1.7 1.7 0 0 1 .49-.4l41.18-22a1.72 1.72 0 0 1 1.8.1l13.12 9.3a122.34 122.34 0 0 1-78.53 46.73m92.42-128.55-17.06 17.12a1.73 1.73 0 0 1-2.26.15l-29.14-22.18a1.7 1.7 0 0 1-.62-.95l-11.86-47.38a1.7 1.7 0 0 1 .63-1.78l18-13.5a1.7 1.7 0 0 1 2.06 0l29.93 22.69a1.76 1.76 0 0 1 .63 1l10.12 43.25a1.72 1.72 0 0 1-.43 1.58m10.17 9.91-5.85-10.47a1.3 1.3 0 0 1-.18-.44l-10.59-45.27a1.5 1.5 0 0 1 0-.57l.6-5.82a.51.51 0 0 1 .94-.2A121.4 121.4 0 0 1 499 599.72v1.88a.53.53 0 0 1-1 .25" fill="#fff" fill-rule="nonzero"/>
<path d="M376.82 398.59a69.4 69.4 0 0 1-25.14-4.48c-1.24.08-2.46.12-3.65.12-22.33 0-33.69-13.57-38-23.83-6.46-5.67-8.81-13.71-9.25-20.21-3.82-5.3-7.84-13.43-12-24.32-6.39-16.62-18.17-42-22.33-50.89a111.3 111.3 0 0 0-22.84-10.28l-7.61-2.33-1.14-7.93c-.3-2.09-.92-4.94-1.52-7.51-15.89-9.16-22-26.83-23.66-32.57-13.6-27.11-10.75-60.33-8.79-73.81-12-16.77-13.84-38.21-14-47.09a85.7 85.7 0 0 1-11-41.15c0-20.66 12.39-29.91 24.68-29.91 9.1 0 18.43 5.11 24.36 13.34 2.89 4 4.61 4.65 9.19 6.37a57.4 57.4 0 0 1 13.61 6.82c3.13 2.17 5.74 3.32 7.55 3.32.52 0 2.11 0 5.33-2.35 2.1-1.53 18.44-13.28 36-21.49l-.9-5.64 10.63-3.11A82 82 0 0 1 324 16.8l.83-4.53 9.29-1c.42 0 1.3-.12 2.55-.12a33 33 0 0 1 4.65.34 23 23 0 0 1 4.55-3l5.62-2.82 3 1.51c.64-.55 1.33-1.08 2.05-1.59l4.91-3.44 5.76 1.65c.19.05.46.14.79.25a21.5 21.5 0 0 1 4.36-2.33L376.82 0l4.49 1.72A21.7 21.7 0 0 1 385.73 4l.74-.23 5.76-1.65 4.9 3.44c.73.51 1.41 1 2.06 1.59l3-1.51 5.63 2.81a23.7 23.7 0 0 1 4.54 3 33 33 0 0 1 4.66-.34c1.24 0 2.12.08 2.54.12l9.3 1 .82 4.53a82 82 0 0 1 17.69 2.86L458 22.77l-.9 5.64c17.52 8.21 33.86 20 36 21.49 3.21 2.34 4.79 2.35 5.32 2.35 1.81 0 4.42-1.15 7.56-3.32a57.6 57.6 0 0 1 13.6-6.82c4.59-1.72 6.3-2.37 9.19-6.37 5.91-8.23 15.23-13.34 24.35-13.34 12.28 0 24.67 9.25 24.67 29.91a85.85 85.85 0 0 1-10.95 41.15c-.21 8.88-2 30.32-14 47.09 2 13.48 4.81 46.7-8.79 73.82-1.63 5.73-7.78 23.4-23.66 32.56-.61 2.57-1.23 5.42-1.52 7.52l-1.14 7.94-7.73 2.31a112 112 0 0 0-22.81 10.3c-4.16 8.86-15.95 34.27-22.33 50.89-4.18 10.89-8.21 19-12 24.32-.44 6.5-2.79 14.54-9.26 20.21-4.28 10.26-15.63 23.83-38 23.83q-1.8 0-3.66-.12a69.4 69.4 0 0 1-25.12 4.46" fill="#fff" fill-rule="nonzero"/>
<path d="path1045" fill="#fff" fill-rule="nonzero"/>
<path d="path925" fill="#fff" fill-rule="nonzero"/>
<path d="m420.46 345.26-43.64-.19-43.64.19.19-40.19a63.3 63.3 0 0 0-1.93-19.9V285l2.17-30.8 22.7-9.2a41 41 0 0 0 20.19-6.37l.32-.23.33.23a41 41 0 0 0 20.19 6.37h.19l22.52 9.15 2.19 30.9v.11a63.4 63.4 0 0 0-1.97 19.84Zm-43.64-1.33 42.5.19-.19-39.05a65.1 65.1 0 0 1 2-20.13L419 255l-21.8-8.9a41.67 41.67 0 0 1-20.38-6.35 41.6 41.6 0 0 1-20.38 6.35l-21.76 8.9-2.12 30a65.8 65.8 0 0 1 1.95 20.16l-.19 39Z" fill="#fff" fill-rule="nonzero"/>
<path d="path1061" fill="#fff" fill-rule="nonzero"/>
<path d="M376.27 239.18c0-.1-2-9.9-6.29-16.09-3.77-5.5-7.43-8.47-18-10.49-10.26-2-16.84-10-16.37-20v-.28l.23-.16c.11-.08 11.56-8.07 20.35.15 8.41 7.86 13 10.13 20.62 10.13s12.21-2.27 20.62-10.13c8.81-8.23 20.24-.23 20.35-.15l.23.16v.28c.47 10-6.11 18.08-16.37 20-10.57 2-14.22 5-18 10.49-4.24 6.19-6.26 16-6.28 16.09Zm-39.54-46.29c-.3 9.31 5.88 16.77 15.46 18.59 10.9 2.08 14.86 5.33 18.72 11 3.12 4.55 5 10.8 5.91 14.15.87-3.35 2.79-9.6 5.91-14.15 3.87-5.64 7.82-8.89 18.72-11 9.58-1.82 15.76-9.28 15.46-18.59-1.63-1.08-11.15-6.85-18.69.21-8.56 8-13.56 10.44-21.4 10.44S364 201.1 355.43 193.1c-7.43-6.99-17.1-1.24-18.7-.21" fill="#fff" fill-rule="nonzero"/>
<path d="path873" fill="#fff" fill-rule="nonzero"/>
<path d="path875" fill="#fff" fill-rule="nonzero"/>
<path d="M432.5 146.1a31.4 31.4 0 0 1-11.5-2.28l-1.91-.73.65-2c.22-.67 5.64-16.47 21.83-22.48a32.3 32.3 0 0 1 11.56-2A32.53 32.53 0 0 1 471 122.4l1 .75-.15 1.22c-.67 5.34-4.79 15.7-15.63 16.73a51.3 51.3 0 0 0-10.45 2.43c-4.11 1.27-8.32 2.57-13.27 2.57m-7.86-5.56c8 2.54 13.56.84 19.87-1.12a54.8 54.8 0 0 1 11.32-2.59c8.22-.79 10.81-8.59 11.53-11.72a29 29 0 0 0-14.28-4.11 27.3 27.3 0 0 0-10 1.74c-11.08 4.05-16.53 13.66-18.44 17.8m-103.49 5.56c-4.95 0-9.16-1.3-13.29-2.57a51 51 0 0 0-10.45-2.43c-10.83-1-15-11.39-15.62-16.73l-.15-1.22 1-.75a32.5 32.5 0 0 1 17.87-5.75 32 32 0 0 1 11.57 2c16.18 6 21.6 21.81 21.83 22.48l.64 2-1.91.73a31.3 31.3 0 0 1-11.49 2.24m-34.86-21c.71 3.13 3.31 10.93 11.53 11.72a54.7 54.7 0 0 1 11.31 2.59c6.31 2 11.82 3.66 19.87 1.12-1.91-4.14-7.39-13.75-18.44-17.85a27 27 0 0 0-10-1.74 29 29 0 0 0-14.27 4.17Z" fill="#fff" fill-rule="nonzero"/>
<path d="path879" fill="#fff" fill-rule="nonzero"/>
<path d="path938" fill="#fff" fill-rule="nonzero"/>
<path d="path999" fill="#fff" fill-rule="nonzero"/>
<path d="path1047" fill="#fff" fill-rule="nonzero"/>
<path d="M414.29 351.1a41 41 0 0 1-4.93-.32c-13-1.63-23.5-2.35-32.43-.58h-.22c-8.93-1.77-19.42-1.05-32.43.58-8.29 1-14.88-.45-18.56-4.2-2.83-2.87-3.9-6.87-3.18-11.87 1.7-12 10.81-29.72 10.9-29.9l.56-1.09.47 1.13c3.11 7.47 4.82 16 6.19 22.91 1.09 5.44 2 10.16 3.32 12.74 3-.06 3.62-1 4.64-2.5a12.8 12.8 0 0 1 4.43-4.27l.29-.17.28.16a32 32 0 0 1 7.15 5.93 19.86 19.86 0 0 1 7.8-4.83l.29-.1.24.19s4.75 3.71 7.72 6.52c3-2.81 7.68-6.48 7.73-6.52l.24-.19.29.1a19.8 19.8 0 0 1 7.79 4.83 32.2 32.2 0 0 1 7.15-5.93l.29-.16.28.17A12.7 12.7 0 0 1 405 338c1 1.51 1.66 2.44 4.64 2.5 1.3-2.58 2.24-7.31 3.33-12.74 1.37-6.88 3.08-15.44 6.19-22.91l.47-1.13.56 1.09c.09.18 9.19 17.94 10.89 29.9.72 5-.35 9-3.17 11.87s-7.65 4.52-13.62 4.52m-25.57-3.1a171 171 0 0 1 20.78 1.62c7.94 1 14.19-.38 17.62-3.87 2.56-2.6 3.52-6.28 2.86-10.91-1.43-10.05-8.21-24.35-10.22-28.42-2.78 7.09-4.37 15.06-5.66 21.53-1.15 5.75-2.14 10.71-3.6 13.36l-.16.3H410c-3.87 0-4.78-1.32-5.92-3a11.6 11.6 0 0 0-3.78-3.76 32 32 0 0 0-7 6l-.43.51-.43-.52A18.7 18.7 0 0 0 385 336c-1 .83-5.26 4.18-7.78 6.63l-.4.39-.39-.39c-2.53-2.45-6.74-5.8-7.79-6.63a18.5 18.5 0 0 0-7.44 4.87l-.43.52-.44-.51a31.5 31.5 0 0 0-7-6 11.6 11.6 0 0 0-3.78 3.76c-1.14 1.68-2.05 3-5.92 3h-.33l-.17-.3c-1.46-2.65-2.45-7.61-3.59-13.36-1.3-6.47-2.89-14.44-5.66-21.53-2 4.07-8.79 18.37-10.23 28.42-.66 4.63.3 8.31 2.87 10.91 3.42 3.49 9.68 4.87 17.61 3.87 13.06-1.63 23.62-2.36 32.68-.58a61.3 61.3 0 0 1 11.91-1.07" fill="#fff" fill-rule="nonzero"/>
<path d="m332 286.16-.48-.89c-.11-.21-11.36-21.4-10.55-43.13v-.88l.79.4c.1.05 10.49 5.1 29.15 3.57 17.07-1.38 24.38 1.91 25.92 2.75 1.54-.84 8.84-4.14 25.93-2.75 18.66 1.53 29-3.52 29.15-3.57l.79-.4v.88c.8 21.73-10.44 42.92-10.56 43.13l-.48.89-.51-.87c-.06-.1-5.84-10.06-10.16-28.12-1.57.69-5.89 2.52-10.81 4.26l-.28.1-.25-.18a19.5 19.5 0 0 1-4.81-5.35 104 104 0 0 1-9.43 7.31l-.37.25-.32-.29a51.7 51.7 0 0 1-7.92-9.17 51.4 51.4 0 0 1-7.91 9.17l-.33.29-.36-.25a102 102 0 0 1-9.43-7.31 19.3 19.3 0 0 1-4.82 5.35l-.24.18-.29-.1c-4.92-1.74-9.24-3.57-10.81-4.26-4.32 18.06-10.1 28-10.16 28.12ZM322 243c-.42 18.53 7.85 36.49 10 40.75 1.52-2.88 6.13-12.39 9.68-27.53l.16-.67.63.28s5.06 2.27 11.06 4.39a17.2 17.2 0 0 0 4.57-5.4l.32-.68.57.5a108 108 0 0 0 9.49 7.45 50.5 50.5 0 0 0 7.86-9.37l.48-.77.48.77a50 50 0 0 0 7.87 9.37 107 107 0 0 0 9.48-7.45l.57-.5.32.68a17.3 17.3 0 0 0 4.58 5.4c6-2.12 11-4.37 11.05-4.39l.63-.28.16.67c3.55 15.14 8.17 24.65 9.68 27.53 2.11-4.26 10.39-22.23 10-40.75-2.78 1.17-12.68 4.67-29 3.34-18.59-1.52-25.45 2.7-25.52 2.74l-.31.19-.3-.19c-.07 0-6.93-4.26-25.53-2.74-16.25 1.36-26.16-2.14-28.98-3.34" fill="#fff" fill-rule="nonzero"/>
<path d="path1012" fill="#fff" fill-rule="nonzero"/>
<path d="path1164" fill="#fff" fill-rule="nonzero"/><path d="m221.24 566.21-1.56 6.6-28.53-6.73 5.09-21.56 5.3 1.25-3.53 15ZM205.43 563l3.23-13.69 5.3 1.25-3.23 13.69ZM204.13 534.59l-3.48-7.5 2.62-6.52 2.77 9.28Zm25.67 5.18a14.4 14.4 0 0 1-3.92 5.71 11 11 0 0 1-11.63 1.88 11.4 11.4 0 0 1-5-3.69 11.2 11.2 0 0 1-2.21-5.52 12.7 12.7 0 0 1 .92-6.26 12.5 12.5 0 0 1 3.53-5 10.5 10.5 0 0 1 5.3-2.41 12 12 0 0 1 6.38.9 7 7 0 0 1 .78.36l.81.41-6.83 17-3.53-1.42 5.6-13.82.11 2.75a6.2 6.2 0 0 0-3.1-.48 5.2 5.2 0 0 0-2.62 1.07 6.25 6.25 0 0 0-2.19 5.45 5.07 5.07 0 0 0 1.16 2.62 6.6 6.6 0 0 0 2.63 1.82l.93.37a6.4 6.4 0 0 0 3.32.46 5.36 5.36 0 0 0 2.84-1.34 7.9 7.9 0 0 0 2-3 8.4 8.4 0 0 0 .67-3.14 7.6 7.6 0 0 0-.58-2.92l4.79-1.82a10.06 10.06 0 0 1 1.05 4.62 14.4 14.4 0 0 1-1.21 5.4M243.14 513.39l-3.95-2.39-5.67-3.57-5.92-3.07-11.22-6.77 3.37-5.59 26.61 16Zm-3.35 6.19a11.34 11.34 0 0 1-4.2 4.17 10.64 10.64 0 0 1-5.54 1.38 13.46 13.46 0 0 1-10.51-6.34 10.5 10.5 0 0 1-1.36-5.53 11.6 11.6 0 0 1 1.75-5.65 9.64 9.64 0 0 1 3.64-3.62 8.3 8.3 0 0 1 5-.86 15.7 15.7 0 0 1 6.2 2.36 16.5 16.5 0 0 1 5 4.33 8.06 8.06 0 0 1 1.6 4.76 9.77 9.77 0 0 1-1.58 5m-4-3.73a5.75 5.75 0 0 0 .84-2.86 5.4 5.4 0 0 0-.78-2.89 7.61 7.61 0 0 0-5.72-3.45 5.56 5.56 0 0 0-2.89.67 5.7 5.7 0 0 0-2.14 2.09 5.8 5.8 0 0 0-.87 2.9 5.65 5.65 0 0 0 .76 2.88 7.57 7.57 0 0 0 5.72 3.44 5.54 5.54 0 0 0 2.92-.66 5.84 5.84 0 0 0 2.16-2.12M233.34 483.76l-1-8.21 4.54-5.37-.28 9.68Zm22.75 13a14.5 14.5 0 0 1-5.51 4.2 11.2 11.2 0 0 1-6.05.78 11.33 11.33 0 0 1-5.59-2.64 11.47 11.47 0 0 1-3.58-5.07 11.16 11.16 0 0 1-.37-5.93 13.45 13.45 0 0 1 7.76-9.31 10.46 10.46 0 0 1 5.78-.63 12.2 12.2 0 0 1 5.79 2.85c.19.17.4.36.62.59l.64.65-11.8 14-2.91-2.46 9.58-11.36-.75 2.57a6.3 6.3 0 0 0-2.8-1.43 5.2 5.2 0 0 0-2.82.2 5.64 5.64 0 0 0-2.45 1.77 5.75 5.75 0 0 0-1.34 2.72 5.06 5.06 0 0 0 .28 2.85 6.46 6.46 0 0 0 1.93 2.55l.76.65a6.4 6.4 0 0 0 3 1.47 5.3 5.3 0 0 0 3.12-.38 7.9 7.9 0 0 0 2.81-2.2 8.2 8.2 0 0 0 1.62-2.77 7.6 7.6 0 0 0 .36-3l5.12-.22a10.06 10.06 0 0 1-.44 4.71 14.3 14.3 0 0 1-2.76 4.8ZM264.87 486.63 249.63 470l4.59-4.22 4.31 4.69-1.89-.77a7.2 7.2 0 0 1-.08-4.84 11 11 0 0 1 3.14-4.57l4.08 4.44-.6.47-.54.46a5.57 5.57 0 0 0-.16 8.68l7.2 7.83ZM286.85 468.51l-2.58-3.51-.9-.54-4.62-6.46a4.24 4.24 0 0 0-2.95-1.9 5.66 5.66 0 0 0-3.86 1.35 11.3 11.3 0 0 0-2.53 2.54 9.3 9.3 0 0 0-1.5 3l-4.57-2.32a14.1 14.1 0 0 1 2.41-4.24 19.8 19.8 0 0 1 3.86-3.67q4.17-3 7.9-2.72t6.75 4.46l7.54 10.41Zm-5.36 4.3a10.44 10.44 0 0 1-4.19 1.92 6.83 6.83 0 0 1-3.78-.29 6.2 6.2 0 0 1-2.85-2.22 6.27 6.27 0 0 1-1.27-3.43 6.42 6.42 0 0 1 1.14-3.74 15.2 15.2 0 0 1 4-4l4.85-3.52 2.24 3.09-4.27 3.09a4.9 4.9 0 0 0-2.12 2.47 2.41 2.41 0 0 0 .41 2 2.34 2.34 0 0 0 2 1 4.46 4.46 0 0 0 2.62-1 5.63 5.63 0 0 0 1.92-2.35 4.43 4.43 0 0 0 .19-2.95l2.58 1.85a5.84 5.84 0 0 1-.16 4.2 9.45 9.45 0 0 1-3.31 3.88M284.84 449.34l-2.41-4.41 13.7-7.5 2.41 4.41Zm18.76 9.5a8.86 8.86 0 0 1-6.42 1.19q-2.91-.72-4.85-4.24l-9.48-17.34 5.73-3.13 9.42 17.26a3 3 0 0 0 1.72 1.56 2.7 2.7 0 0 0 2.17-.3 4.2 4.2 0 0 0 1.91-2l3.76 3.19a7.3 7.3 0 0 1-1.6 2.1 12.5 12.5 0 0 1-2.36 1.71M303.07 430.31a4.15 4.15 0 0 1-3.11.22 3.56 3.56 0 0 1-2.08-4.76 4.18 4.18 0 0 1 2.27-2.13 4.3 4.3 0 0 1 3.08-.27 3.21 3.21 0 0 1 2 1.86 3.55 3.55 0 0 1 .06 2.92 4.06 4.06 0 0 1-2.22 2.16m7.28 24.83-9-20.64 6-2.62 9 20.65ZM330.68 447.79a13.2 13.2 0 0 1-6.55.41 11.37 11.37 0 0 1-5.4-2.66 11.94 11.94 0 0 1-3.49-11.46 11.3 11.3 0 0 1 3-5.2 14.44 14.44 0 0 1 12.19-3.72 11.43 11.43 0 0 1 5.89 19.33 13.2 13.2 0 0 1-5.64 3.3m-1.56-5.13a5.7 5.7 0 0 0 2.58-1.58 5.35 5.35 0 0 0 1.34-2.66 7 7 0 0 0-.25-3.4 6.86 6.86 0 0 0-1.7-3 5.4 5.4 0 0 0-2.58-1.45 6 6 0 0 0-5.61 1.71 5.5 5.5 0 0 0-1.36 2.64 6.7 6.7 0 0 0 .23 3.43 6.8 6.8 0 0 0 1.72 3 5.4 5.4 0 0 0 2.61 1.46 5.67 5.67 0 0 0 3.02-.15M354.91 419.05a10.54 10.54 0 0 1 4.89.43 7.7 7.7 0 0 1 3.73 2.8 11.5 11.5 0 0 1 2 5.42l1.7 12.78-6.47.86-1.57-11.78a5.8 5.8 0 0 0-1.71-3.83 4.4 4.4 0 0 0-3.52-.84 5.9 5.9 0 0 0-2.67 1 4.52 4.52 0 0 0-1.65 2.23 7.5 7.5 0 0 0-.23 3.49l1.47 11-6.47.86-3-22.33 6.19-.82.82 6.18-1.42-1.66a8.3 8.3 0 0 1 3-3.9 10.74 10.74 0 0 1 4.91-1.89M395.86 442.24a17.6 17.6 0 0 1-6.15-1.77 15 15 0 0 1-4.69-3.68 14.7 14.7 0 0 1-2.8-5.14 15.3 15.3 0 0 1-.54-6.16 15.1 15.1 0 0 1 1.83-5.91 14.2 14.2 0 0 1 3.84-4.43 15.1 15.1 0 0 1 5.35-2.62 17.6 17.6 0 0 1 6.4-.43 17.4 17.4 0 0 1 6.71 2 13.3 13.3 0 0 1 4.73 4.4l-4.75 3.53a10.3 10.3 0 0 0-3.06-2.91 9.3 9.3 0 0 0-3.91-1.28 10.4 10.4 0 0 0-3.81.27 8.5 8.5 0 0 0-3.16 1.6 8.8 8.8 0 0 0-2.25 2.75 10.2 10.2 0 0 0-1.09 3.72 10 10 0 0 0 .28 3.86 9 9 0 0 0 1.62 3.16 8.7 8.7 0 0 0 2.76 2.23 10.3 10.3 0 0 0 3.67 1.06 9.3 9.3 0 0 0 4.09-.43 10 10 0 0 0 3.61-2.24l3.9 4.45a13.6 13.6 0 0 1-5.55 3.33 17.2 17.2 0 0 1-7.03.64M419.07 446.66a13.15 13.15 0 0 1-5.75-3.16 11.43 11.43 0 0 1-3.14-5.14 11.95 11.95 0 0 1 3.19-11.54 11.3 11.3 0 0 1 5.33-2.82 14.42 14.42 0 0 1 12.29 3.4 11.13 11.13 0 0 1 3.15 5.1 11.46 11.46 0 0 1-8.53 14.37 13.3 13.3 0 0 1-6.54-.21m1.43-5.17a5.8 5.8 0 0 0 3 .06 5.4 5.4 0 0 0 2.55-1.54 7.78 7.78 0 0 0 1.78-6.43 5.4 5.4 0 0 0-1.41-2.61 5.8 5.8 0 0 0-2.63-1.51 5.85 5.85 0 0 0-3 0 5.56 5.56 0 0 0-2.57 1.51 7.57 7.57 0 0 0-1.78 6.43 5.5 5.5 0 0 0 1.43 2.63 5.67 5.67 0 0 0 2.63 1.46M455 435.4a10.5 10.5 0 0 1 3.9 3 7.7 7.7 0 0 1 1.65 4.36 11.6 11.6 0 0 1-1.26 5.62l-5.41 11.7-5.88-2.75 5-10.79a5.8 5.8 0 0 0 .6-4.15 4.28 4.28 0 0 0-2.6-2.59 5.8 5.8 0 0 0-2.8-.58 4.48 4.48 0 0 0-2.58 1 7.56 7.56 0 0 0-2.07 2.83l-4.68 10.11-5.87-2.76 9.43-20.4 5.66 2.62-2.62 5.66-.27-2.2a8.4 8.4 0 0 1 4.62-1.7 10.84 10.84 0 0 1 5.18 1.02M461 474.84a24 24 0 0 1-4.62-4.11 13.2 13.2 0 0 1-2.74-4.7l4.79-2.4a10.8 10.8 0 0 0 1.93 3.59 14.4 14.4 0 0 0 3.19 3q2.85 2 5 1.58a6.2 6.2 0 0 0 3.9-2.91l1.92-2.8 3.55-4.42 3.15-4.74 2.75-4 5.11 3.51-10.62 15.47q-3.56 5.18-7.93 5.77c-2.9.42-6.03-.54-9.38-2.84m4.57-8.44a11.9 11.9 0 0 1-3.91-4.33 10.8 10.8 0 0 1-1.19-5.44 11.54 11.54 0 0 1 6.5-9.46 10.47 10.47 0 0 1 5.49-.83 11.85 11.85 0 0 1 5.43 2.11 10.5 10.5 0 0 1 3.49 3.79 7.9 7.9 0 0 1 .79 4.86 13.7 13.7 0 0 1-2.5 5.77 13.5 13.5 0 0 1-4.47 4.37 8.1 8.1 0 0 1-4.82 1 10.55 10.55 0 0 1-4.82-1.84Zm4.11-3.68a6.7 6.7 0 0 0 2.91 1.16 5.2 5.2 0 0 0 2.82-.42 6 6 0 0 0 3.29-4.79 5.16 5.16 0 0 0-.64-2.77 6.7 6.7 0 0 0-2.13-2.3 6.56 6.56 0 0 0-2.91-1.16 5.56 5.56 0 0 0-6.11 5.17 5.24 5.24 0 0 0 .64 2.81 6.5 6.5 0 0 0 2.12 2.3ZM486.53 485.06a13.1 13.1 0 0 1-3.57-5.5 11.44 11.44 0 0 1-.33-6 12 12 0 0 1 8.28-8.65 11.3 11.3 0 0 1 6 .08 14.42 14.42 0 0 1 9.21 8.81 11.25 11.25 0 0 1 .35 6 11.45 11.45 0 0 1-14.32 8.61 13.24 13.24 0 0 1-5.62-3.35m3.7-3.87a5.65 5.65 0 0 0 2.64 1.48 5.4 5.4 0 0 0 3-.13 7.81 7.81 0 0 0 4.61-4.83 5.3 5.3 0 0 0 0-3 5.7 5.7 0 0 0-1.6-2.57 5.64 5.64 0 0 0-2.64-1.48 5.47 5.47 0 0 0-3 .11 6.67 6.67 0 0 0-2.88 1.88 7 7 0 0 0-1.74 2.94 5.5 5.5 0 0 0 0 3 5.8 5.8 0 0 0 1.61 2.6M497.14 495.69 521 475.84l4.18 5-23.9 19.85ZM507.85 510.11a10.5 10.5 0 0 1-1.74-4.27 6.8 6.8 0 0 1 .46-3.76 6.2 6.2 0 0 1 2.35-2.75 6.27 6.27 0 0 1 3.47-1.12 6.5 6.5 0 0 1 3.7 1.31 15.1 15.1 0 0 1 3.78 4.17l3.29 5-3.18 2.1-2.9-4.41a4.9 4.9 0 0 0-2.37-2.22 2.38 2.38 0 0 0-2 .32 2.33 2.33 0 0 0-1.12 1.92 4.38 4.38 0 0 0 .87 2.65 5.53 5.53 0 0 0 2.26 2 4.4 4.4 0 0 0 2.94.32l-2 2.5a5.8 5.8 0 0 1-4.19-.35 9.34 9.34 0 0 1-3.62-3.41m4.06 5.55 3.67-2.42.58-.88 6.57-4.33a4.23 4.23 0 0 0 2-2.87 5.64 5.64 0 0 0-1.18-3.91 11.2 11.2 0 0 0-2.42-2.64 9.5 9.5 0 0 0-2.9-1.63l2.52-4.47a14.2 14.2 0 0 1 4.12 2.6 20 20 0 0 1 3.5 4q2.83 4.31 2.38 8c-.31 2.47-1.9 4.66-4.76 6.55l-10.73 7.07ZM517.12 524.66l20.06-10.25 3 5.82-20.06 10.25Zm24.34-8.77a4.13 4.13 0 0 1-.4-3.09 3.54 3.54 0 0 1 4.62-2.36 4.12 4.12 0 0 1 2.27 2.13 4.3 4.3 0 0 1 .45 3.06 3.2 3.2 0 0 1-1.74 2.16 3.55 3.55 0 0 1-2.91.24 4.07 4.07 0 0 1-2.29-2.14M524.64 541.76a22.2 22.2 0 0 1-1.37-5.41 14 14 0 0 1 .09-4.56l5.16.33a14.8 14.8 0 0 0-.13 4 15 15 0 0 0 1 4.1A6.8 6.8 0 0 0 531 543a1.64 1.64 0 0 0 1.74.33 1.27 1.27 0 0 0 .85-1.11 6.5 6.5 0 0 0-.14-2c-.16-.8-.36-1.68-.58-2.63s-.39-1.92-.53-2.91a10 10 0 0 1 0-2.89 5.33 5.33 0 0 1 1.08-2.51 6.63 6.63 0 0 1 6.62-2 8.1 8.1 0 0 1 3.7 2.4 15.2 15.2 0 0 1 2.92 4.88 22.8 22.8 0 0 1 1.23 4.56 12.7 12.7 0 0 1 .08 4.23l-5.12-.34a11.1 11.1 0 0 0 0-3.54 15 15 0 0 0-.83-3.11 6.46 6.46 0 0 0-1.7-2.75 1.7 1.7 0 0 0-1.77-.39 1.34 1.34 0 0 0-.9 1.14 6.7 6.7 0 0 0 .08 2.05c.14.82.32 1.7.56 2.64a24 24 0 0 1 .53 2.92 10.5 10.5 0 0 1 0 2.86 5.6 5.6 0 0 1-1.05 2.5 5.7 5.7 0 0 1-2.63 1.83 5.85 5.85 0 0 1-3.91.18 8.25 8.25 0 0 1-3.68-2.46 15.9 15.9 0 0 1-2.91-5.12M531.63 564.38a14.5 14.5 0 0 1-.08-6.92 11.13 11.13 0 0 1 3-5.33 11.27 11.27 0 0 1 5.45-2.91 11.4 11.4 0 0 1 6.2.16 11.13 11.13 0 0 1 5 3.24 13.46 13.46 0 0 1 2.8 11.78 10.5 10.5 0 0 1-2.95 5 12 12 0 0 1-5.74 2.94c-.25.06-.53.11-.85.16l-.89.12-4.18-17.81 3.71-.87 3.39 14.47-1.67-2.19a6.25 6.25 0 0 0 2.81-1.39 5.27 5.27 0 0 0 1.53-2.38 5.7 5.7 0 0 0 0-3 5.8 5.8 0 0 0-1.39-2.71 5.14 5.14 0 0 0-2.45-1.47 6.54 6.54 0 0 0-3.2 0l-1 .23a6.4 6.4 0 0 0-3 1.54 5.34 5.34 0 0 0-1.55 2.73 7.76 7.76 0 0 0 .09 3.57 8.4 8.4 0 0 0 1.34 2.96 7.7 7.7 0 0 0 2.16 2.06l-2.88 4.24a10.2 10.2 0 0 1-3.52-3.17 14.5 14.5 0 0 1-2.13-5.05M191.12 633.63a11.37 11.37 0 0 1 .34-5.9 10.5 10.5 0 0 1 3.2-4.73 13.38 13.38 0 0 1 12.05-2.32 10.47 10.47 0 0 1 4.71 3.21 11.6 11.6 0 0 1 2.48 5.36 9.7 9.7 0 0 1-.29 5.14 8.34 8.34 0 0 1-3.12 4 15.9 15.9 0 0 1-6.19 2.39 16.3 16.3 0 0 1-6.61.11 8 8 0 0 1-4.38-2.46 9.9 9.9 0 0 1-2.19-4.8m1.66 6.85 4.52-.87 6.6-1.14 6.46-1.67 12.87-2.47 1.23 6.41L194 646.6Zm3.82-6.75a5.75 5.75 0 0 0 1.28 2.7 5.6 5.6 0 0 0 2.51 1.62 7.52 7.52 0 0 0 6.56-1.26 5.53 5.53 0 0 0 1.71-2.43 5.66 5.66 0 0 0 .19-3 5.77 5.77 0 0 0-1.29-2.74 5.5 5.5 0 0 0-2.49-1.63 7.57 7.57 0 0 0-6.56 1.26 5.6 5.6 0 0 0-1.73 2.44 5.7 5.7 0 0 0-.18 3.04M199.82 665.28a14.5 14.5 0 0 1-.91-6.86 10.94 10.94 0 0 1 7.39-9.19 11.44 11.44 0 0 1 6.18-.59 11.24 11.24 0 0 1 5.33 2.62 13.43 13.43 0 0 1 4.24 11.36 10.5 10.5 0 0 1-2.33 5.33 12.07 12.07 0 0 1-5.35 3.6 8 8 0 0 1-.82.26l-.88.23-6.28-17.18 3.58-1.31 5.11 14-1.93-2a6.3 6.3 0 0 0 2.63-1.72 5.16 5.16 0 0 0 1.23-2.55 6.28 6.28 0 0 0-2-5.52 5.1 5.1 0 0 0-2.61-1.16 6.4 6.4 0 0 0-3.17.4l-1 .34a6.5 6.5 0 0 0-2.77 1.88 5.37 5.37 0 0 0-1.21 2.9 7.8 7.8 0 0 0 .51 3.54 8.6 8.6 0 0 0 1.6 2.78 7.7 7.7 0 0 0 2.39 1.78l-2.35 4.55a9.9 9.9 0 0 1-3.87-2.73 14.3 14.3 0 0 1-2.71-4.76M216.65 698.9l-3.65-5.71 24.64-15.87 12 18.62-4.64 2.95-8.29-12.89Zm13.27-9.16 7.62 11.83-4.54 2.95-7.62-11.83ZM235.43 724.64a13.3 13.3 0 0 1-3.1-5.78 11.5 11.5 0 0 1 .18-6 11.91 11.91 0 0 1 9-7.93 11.3 11.3 0 0 1 6 .58 13.3 13.3 0 0 1 5.34 3.79 13.46 13.46 0 0 1 3.1 5.76 11.16 11.16 0 0 1-.14 6 11.46 11.46 0 0 1-15 7.39 13.3 13.3 0 0 1-5.38-3.81m4-3.55a5.8 5.8 0 0 0 2.5 1.7 5.37 5.37 0 0 0 3 .1 7.78 7.78 0 0 0 5-4.42 5.34 5.34 0 0 0 .24-3 6 6 0 0 0-3.88-4.39 5.53 5.53 0 0 0-3-.14 6.74 6.74 0 0 0-3 1.64 6.84 6.84 0 0 0-2 2.78 5.46 5.46 0 0 0-.24 3 5.77 5.77 0 0 0 1.4 2.73ZM256.78 745.28a13.25 13.25 0 0 1-4-5.23 11.4 11.4 0 0 1-.76-6 11.88 11.88 0 0 1 7.62-9.23 11.3 11.3 0 0 1 6-.37 14.41 14.41 0 0 1 9.83 8.12 11 11 0 0 1-1.82 11.61 11.1 11.1 0 0 1-11 4 13.25 13.25 0 0 1-5.87-2.9m3.41-4.14a5.7 5.7 0 0 0 2.74 1.29 5.4 5.4 0 0 0 3-.36 7.74 7.74 0 0 0 4.25-5.14 5.4 5.4 0 0 0-.22-3 5.7 5.7 0 0 0-1.78-2.44 5.63 5.63 0 0 0-2.74-1.29 5.5 5.5 0 0 0-3 .33 7.59 7.59 0 0 0-4.25 5.14 5.6 5.6 0 0 0 .22 3 5.7 5.7 0 0 0 1.78 2.47M279.47 761.4a8.82 8.82 0 0 1-4.18-5q-.8-2.89 1.34-6.3l10.5-16.75 5.53 3.47-10.45 16.68a3 3 0 0 0-.53 2.26 2.73 2.73 0 0 0 1.32 1.74 4.26 4.26 0 0 0 2.67.69l-.95 4.83a7 7 0 0 1-2.61-.37 11.6 11.6 0 0 1-2.64-1.25m-.87-21 2.67-4.25 13.23 8.29-2.67 4.26ZM289.11 766.84l12.79-28.32 6 2.69-5.39 11.94-3.12 5.9-2.64 6.16-1.9 4.19Zm12 5.78a9.94 9.94 0 0 1-4.14-3.24 8.06 8.06 0 0 1-1.4-4.84 16.3 16.3 0 0 1 1.65-6.4 15.3 15.3 0 0 1 3.78-5.46 8.35 8.35 0 0 1 4.6-2.11 9.75 9.75 0 0 1 5.06.91 11.46 11.46 0 0 1 4.62 3.65 10.46 10.46 0 0 1 2 5.32 13.41 13.41 0 0 1-5.05 11.18 10.7 10.7 0 0 1-5.32 2 11.4 11.4 0 0 1-5.8-1.01m1.18-5.35a5.45 5.45 0 0 0 5.72-.61 6.8 6.8 0 0 0 2.07-2.71 6.7 6.7 0 0 0 .67-3.38 5.5 5.5 0 0 0-1-2.78 5.64 5.64 0 0 0-2.34-1.89 5.73 5.73 0 0 0-3-.52 5.4 5.4 0 0 0-2.75 1.1 6.9 6.9 0 0 0-2.06 2.74 7 7 0 0 0-.69 3.35 5.4 5.4 0 0 0 1 2.81 5.7 5.7 0 0 0 2.38 1.89M324.11 781a10.5 10.5 0 0 1-4.12-2.07 6.87 6.87 0 0 1-2.14-3.12 6.64 6.64 0 0 1 1.83-6.75 6.45 6.45 0 0 1 3.63-1.46 15.2 15.2 0 0 1 5.6.65l5.77 1.58-1 3.67-5.09-1.39a4.9 4.9 0 0 0-3.25-.11 2.41 2.41 0 0 0-1.33 1.59 2.34 2.34 0 0 0 .43 2.18 4.44 4.44 0 0 0 2.41 1.42 5.6 5.6 0 0 0 3 0 4.43 4.43 0 0 0 2.42-1.71l.17 3.18a5.8 5.8 0 0 1-3.38 2.5 9.3 9.3 0 0 1-4.95-.16m6.71 1.49 1.16-4.24-.14-1 2.08-7.59a4.23 4.23 0 0 0-.37-3.49 5.62 5.62 0 0 0-3.47-2.16 11.2 11.2 0 0 0-3.56-.39 9.1 9.1 0 0 0-3.25.69l-1-5a14.1 14.1 0 0 1 4.81-.77 20 20 0 0 1 5.27.71c3.32.91 5.67 2.4 7.07 4.46s1.65 4.75.75 8.06l-3.4 12.39ZM344.13 785.32l4.87-30.69 6.45 1-4.84 30.69ZM357.67 787.19l2.59-31 6.51.55-2.59 31ZM381.66 788.78l9.71-30.58 6.66-.75 16.29 27.66-7.07.8-13.54-24.52 2.67-.3-7.81 26.91Zm5.79-7 1.22-5.32 15-1.68 2.4 4.91ZM426.25 781.9a21.7 21.7 0 0 1-5.53.8 13.6 13.6 0 0 1-4.52-.56l.86-5.1a14.4 14.4 0 0 0 3.95.55 15.4 15.4 0 0 0 4.18-.52 6.9 6.9 0 0 0 2.94-1.37 1.69 1.69 0 0 0 .51-1.71 1.27 1.27 0 0 0-1-1 6.6 6.6 0 0 0-2-.08l-2.67.31c-1 .12-2 .19-3 .22a10 10 0 0 1-2.87-.32 5.43 5.43 0 0 1-2.38-1.34 6 6 0 0 1-1.54-2.84 6.1 6.1 0 0 1 .19-4 8.26 8.26 0 0 1 2.77-3.43 15.1 15.1 0 0 1 5.16-2.39 22.7 22.7 0 0 1 4.66-.76 12.6 12.6 0 0 1 4.22.36l-.87 5.06a11.2 11.2 0 0 0-3.52-.4 15.3 15.3 0 0 0-3.18.5 6.64 6.64 0 0 0-2.91 1.41 1.7 1.7 0 0 0-.57 1.72 1.36 1.36 0 0 0 1 1 6.8 6.8 0 0 0 2.05.13c.83 0 1.72-.15 2.68-.28a26 26 0 0 1 3-.23 10.8 10.8 0 0 1 2.84.33 5.6 5.6 0 0 1 2.38 1.3 6.41 6.41 0 0 1 1.32 6.71 8.2 8.2 0 0 1-2.82 3.41 16 16 0 0 1-5.33 2.52M449.1 774.08a21.9 21.9 0 0 1-5.39 1.51 13.6 13.6 0 0 1-4.55 0l.19-5.16a14.7 14.7 0 0 0 4 0 15 15 0 0 0 4.08-1.05 6.76 6.76 0 0 0 2.74-1.74 1.68 1.68 0 0 0 .29-1.75 1.29 1.29 0 0 0-1.14-.82 6.4 6.4 0 0 0-2 .19c-.8.18-1.67.4-2.61.64s-1.91.45-2.91.61a10 10 0 0 1-2.88.05 5.5 5.5 0 0 1-2.54-1 6 6 0 0 1-1.89-2.61 6.06 6.06 0 0 1-.32-4 8.2 8.2 0 0 1 2.31-3.76 15.1 15.1 0 0 1 4.81-3 23 23 0 0 1 4.52-1.35 12.9 12.9 0 0 1 4.23-.18l-.21 5.12a11 11 0 0 0-3.54.06 15.2 15.2 0 0 0-3.09.91 6.6 6.6 0 0 0-2.71 1.77 1.71 1.71 0 0 0-.34 1.78 1.35 1.35 0 0 0 1.16.87 6.6 6.6 0 0 0 2.05-.13c.81-.16 1.69-.37 2.62-.62a25 25 0 0 1 2.91-.61 10.6 10.6 0 0 1 2.86 0 5.7 5.7 0 0 1 2.53 1 6.4 6.4 0 0 1 2.17 6.49 8.25 8.25 0 0 1-2.36 3.74 16 16 0 0 1-4.99 3.04M473.63 761.71a13.25 13.25 0 0 1-6.26 2 11.54 11.54 0 0 1-5.89-1.28 11.16 11.16 0 0 1-4.45-4.29 11.07 11.07 0 0 1 0-11.76 14.36 14.36 0 0 1 10.93-6.55 11.1 11.1 0 0 1 5.87 1.24 11.45 11.45 0 0 1 4.52 16.08 13.3 13.3 0 0 1-4.72 4.56m-2.76-4.6A5.85 5.85 0 0 0 473 755a5.43 5.43 0 0 0 .65-2.91 6.94 6.94 0 0 0-1.07-3.24 6.84 6.84 0 0 0-2.37-2.48 5.33 5.33 0 0 0-2.85-.78 6.06 6.06 0 0 0-5 3 5.53 5.53 0 0 0-.68 2.9 6.66 6.66 0 0 0 1.06 3.27 6.85 6.85 0 0 0 2.37 2.46 5.54 5.54 0 0 0 2.89.78 5.67 5.67 0 0 0 2.87-.89M497.9 744.43a13.9 13.9 0 0 1-5.95 3 11.36 11.36 0 0 1-12.87-15.6 13.8 13.8 0 0 1 4.06-5.28 12.35 12.35 0 0 1 5.73-2.79 9 9 0 0 1 5.71.8l-2.18 5.32a6 6 0 0 0-3.19-.41 5.63 5.63 0 0 0-2.69 1.24 6 6 0 0 0-1.85 2.5 5.4 5.4 0 0 0-.27 3 7.6 7.6 0 0 0 4.26 5.17 5.5 5.5 0 0 0 3 .31 6 6 0 0 0 2.81-1.34 5.8 5.8 0 0 0 1.74-2.39 5.57 5.57 0 0 0 .19-3.22l5.67-1.09a9.05 9.05 0 0 1-.33 5.72 12.4 12.4 0 0 1-3.84 5.06M493 713.63a4.2 4.2 0 0 1-2.8 1.36 3.56 3.56 0 0 1-3.71-3.64 4.08 4.08 0 0 1 1.31-2.82 4.26 4.26 0 0 1 2.75-1.41 3.18 3.18 0 0 1 2.6 1 3.56 3.56 0 0 1 1.15 2.68 4.08 4.08 0 0 1-1.3 2.83m16 20.3-16.1-15.77 4.58-4.67 16.08 15.78ZM527.45 712.85l-3.45-2.71-1-.27-6.21-4.87a4.21 4.21 0 0 0-3.36-1 5.64 5.64 0 0 0-3.34 2.36 11.4 11.4 0 0 0-1.74 3.13 9.4 9.4 0 0 0-.62 3.26l-5-1a14.3 14.3 0 0 1 1.16-4.73 19.6 19.6 0 0 1 2.71-4.59q3.18-4.05 6.85-4.79t7.71 2.44l10.11 7.95Zm-4 5.61a10.4 10.4 0 0 1-3.5 3 6.9 6.9 0 0 1-3.71.76 6.66 6.66 0 0 1-5.51-4.31 6.46 6.46 0 0 1 .07-3.91 15.2 15.2 0 0 1 2.76-4.91l3.7-4.71 3 2.35-3.26 4.15a4.9 4.9 0 0 0-1.36 3 2.42 2.42 0 0 0 1 1.84 2.38 2.38 0 0 0 2.17.45 4.43 4.43 0 0 0 2.25-1.67 5.64 5.64 0 0 0 1.2-2.78 4.45 4.45 0 0 0-.63-2.9l3 1.08a5.83 5.83 0 0 1 1 4.08 9.4 9.4 0 0 1-2.16 4.48ZM540.42 693.83a8.83 8.83 0 0 1-4.92 4.27q-2.89.85-6.33-1.21l-16.95-10.16 3.36-5.6 16.87 10.12a3 3 0 0 0 2.27.48 2.7 2.7 0 0 0 1.72-1.36 4.12 4.12 0 0 0 .64-2.69l4.86.86a7.2 7.2 0 0 1-.33 2.61 11.4 11.4 0 0 1-1.19 2.68m-21 1.28-4.31-2.58 8-13.39 4.31 2.58ZM523.38 670.44a4.1 4.1 0 0 1-2.22 2.18 3.53 3.53 0 0 1-4.67-2.26 4.13 4.13 0 0 1 .34-3.1 4.3 4.3 0 0 1 2.16-2.21 3.21 3.21 0 0 1 2.77.09 3.6 3.6 0 0 1 2 2.18 4.05 4.05 0 0 1-.38 3.12m21.68 14.13-20.27-9.82 2.84-5.88 20.28 9.82ZM555.12 661.69a13.14 13.14 0 0 1-3.52 5.53 11.5 11.5 0 0 1-5.34 2.8 12 12 0 0 1-11.26-3.95 11.27 11.27 0 0 1-2.43-5.5 14.42 14.42 0 0 1 4.2-12 11 11 0 0 1 11.52-2.32 11.06 11.06 0 0 1 7.55 9 13.2 13.2 0 0 1-.72 6.44m-5.06-1.77a5.7 5.7 0 0 0 .25-3 5.36 5.36 0 0 0-1.36-2.65 7.74 7.74 0 0 0-6.3-2.2 5.44 5.44 0 0 0-2.65 1.23 6.05 6.05 0 0 0-1.93 5.53 5.4 5.4 0 0 0 1.33 2.66 7.55 7.55 0 0 0 6.31 2.2 5.5 5.5 0 0 0 2.72-1.25 5.8 5.8 0 0 0 1.63-2.52M540.32 625.89a10.5 10.5 0 0 1 1.88-4.54 7.7 7.7 0 0 1 3.78-2.72 11.56 11.56 0 0 1 5.76-.24l12.7 2.21-1.11 6.4-11.72-2a5.76 5.76 0 0 0-4.16.49 4.37 4.37 0 0 0-1.86 3.1 5.9 5.9 0 0 0 .17 2.85 4.44 4.44 0 0 0 1.63 2.24 7.45 7.45 0 0 0 3.26 1.27l11 1.9-1.11 6.44-22.2-3.85 1.07-6.15 6.15 1.07-2.06.83a8.27 8.27 0 0 1-2.83-4 10.8 10.8 0 0 1-.35-5.3" fill="#000" fill-rule="nonzero"/>
<path d="M499 599.72v1.88a.53.53 0 0 1-1 .25l-5.85-10.47a1.3 1.3 0 0 1-.18-.44l-10.59-45.27a1.5 1.5 0 0 1 0-.57l.6-5.82a.51.51 0 0 1 .94-.2A121.4 121.4 0 0 1 499 599.72M487.83 591.94l-17.06 17.12a1.73 1.73 0 0 1-2.26.15l-29.14-22.18a1.7 1.7 0 0 1-.62-.95l-11.86-47.38a1.7 1.7 0 0 1 .63-1.78l18-13.5a1.7 1.7 0 0 1 2.06 0l29.93 22.69a1.76 1.76 0 0 1 .63 1l10.12 43.25a1.72 1.72 0 0 1-.43 1.58M467.75 614.18l-6.05 30.61-3 15.17a1.76 1.76 0 0 1-.88 1.18l-40.24 21.47a1.75 1.75 0 0 1-1.85-.15l-30.16-22.8a1.7 1.7 0 0 1-.66-1.67l8.27-45.17a1.7 1.7 0 0 1 .92-1.21l42.12-21.41a1.72 1.72 0 0 1 1.81.16l29.07 22.13a1.69 1.69 0 0 1 .65 1.69M473.93 673.8a122.34 122.34 0 0 1-78.52 46.69L393 717.3a1.73 1.73 0 0 1 .06-2.16l24.29-28.38a1.7 1.7 0 0 1 .49-.4l41.18-22a1.72 1.72 0 0 1 1.8.1ZM391.52 721a125 125 0 0 1-14.69.87 121.5 121.5 0 0 1-54.41-12.79l16.38-2.39a1.6 1.6 0 0 1 .61 0l30 6.62 18.94 4.18a1.65 1.65 0 0 1 1 .63ZM337.16 701.85a1.71 1.71 0 0 1-1.46 1.86l-18.41 2.68A123 123 0 0 1 271.14 661l-1.76-21.46a1.72 1.72 0 0 1 1.8-1.85l24.82 1.15a1.7 1.7 0 0 1 1.09.46l37 34.27a1.74 1.74 0 0 1 .53 1.09ZM389.78 612.41l-8.23 45a1.74 1.74 0 0 1-1.21 1.35L337.57 671a1.74 1.74 0 0 1-1.65-.38l-36-33.38a1.74 1.74 0 0 1-.51-1.62l9.59-45.11a1.69 1.69 0 0 1 1.25-1.3l12.07-3 30-7.57a1.75 1.75 0 0 1 1.57.39l6.06 5.48 29.24 26.37a1.7 1.7 0 0 1 .59 1.53M267 651.78a.3.3 0 0 1-.58.15 121.56 121.56 0 0 1-11.73-52.21 124 124 0 0 1 .84-14.4l.36.16a1.72 1.72 0 0 1 .93 1.24l3.58 19.85 5.3 29.35v.28ZM302.16 516.43l-19.55 40.31a2.3 2.3 0 0 1-.31.44l-5.07 5.26-18.58 19.28a1.7 1.7 0 0 1-2 .34l-.69-.33a122 122 0 0 1 40.63-74.08 1.3 1.3 0 0 1 2 .39l3.52 6.84a1.76 1.76 0 0 1 .05 1.55M372.91 530.06l-9 19.75-11.11 24.47a1.74 1.74 0 0 1-1.14 1l-30.14 7.59-12 3a1.75 1.75 0 0 1-1.76-.59l-10.15-12.79-11-13.89a1.74 1.74 0 0 1-.2-1.82L299 530.85l6.36-13.12a1.7 1.7 0 0 1 1.06-.88l15.91-4.72 27.67-8.22a1.72 1.72 0 0 1 1.78.51l20.9 23.81a1.73 1.73 0 0 1 .23 1.83M442.84 521.17l-18 13.5a1.7 1.7 0 0 1-1.3.32l-46.64-7.72a1.78 1.78 0 0 1-1-.55L355.06 503a1.7 1.7 0 0 1 .12-2.37l23.62-22a1.72 1.72 0 0 0 .53-1 121.5 121.5 0 0 1 40.27 7.69 1.66 1.66 0 0 0 .15 1.8l23.44 31.72a1.72 1.72 0 0 1-.35 2.33" fill="#000" fill-rule="nonzero"/>
<path d="path877" fill="#000" fill-rule="nonzero"/>
<path d="path892" fill="#000" fill-rule="nonzero"/>
<path d="path1059" fill="#000" fill-rule="nonzero"/></mask></defs><g mask="url(#k)" fill="#e8718b"><path d="path14" fill="#e8718b" fill-rule="nonzero"/>
<path d="M602.5 911.73C395.66 1024 376.82 1080 376.82 1080S360.2 1030.62 187 931.68l521.26-521.29c0 .16.1.33.14.5C742.07 529.67 830.39 788 602.5 911.73M701 133.4 34.69 799.75c-71.2-130.67-14.8-299.37 10.55-388.86 33.64-118.78-38.6-241.52-38.6-241.52L83.84 109c140.56 83.15 293 73.25 293 73.25s152.43 9.9 293-73.25Z" fill="#e8718b" fill-rule="nonzero"/>
<path d="M702.08 381 164.23 918.89q-6.4-3.55-13.08-7.16c-46.37-25.17-79.66-55.92-103-89.94L721 149l26 20.37S686.36 272.41 702.08 381" fill="#e8718b" fill-rule="nonzero"/>
<path d="M735.52 672.4c-5.95 102.31-52.17 175.56-141.36 224-136.11 73.86-193.43 124.84-217.34 152.89-23.91-28-81.22-79-217.34-152.89C70.3 848 24.07 774.71 18.11 672.4 13 585.17 39.34 494.31 56.71 434.19c1.89-6.49 3.69-12.69 5.34-18.55C91 313.31 47.23 210.44 29 174.1L85.33 130c112.9 63.1 229.78 70.07 275.75 70.07 8.06 0 13.5-.23 15.74-.34 2.24.11 7.69.34 15.75.34 46 0 162.84-7 275.75-70.07l56.35 44.09c-18.25 36.34-62.07 139.21-33.08 241.54 1.66 5.86 3.46 12.06 5.34 18.55 17.38 60.13 43.67 150.99 38.59 238.22" fill="#e8718b" fill-rule="nonzero"/>
<path d="M518 328.7c-1.16 2.66-2.27 5.25-3.27 7.73 94.65 49.78 159.33 149.13 159.33 263.29a295.63 295.63 0 0 1-62.28 181.86l7.31 4.25a304.17 304.17 0 0 0 63.35-186.11c.03-117.61-66.78-219.94-164.44-271.02m-446.85 271a304.2 304.2 0 0 0 60.67 182.59l5.23-7a295.67 295.67 0 0 1-57.5-175.57c0-114.16 64.69-213.51 159.33-263.29-1-2.48-2.11-5.07-3.26-7.73C138 379.78 71.18 482.11 71.18 599.72ZM192.17 833.67l26 19.55-7.84 10.44-26-19.54-15.33 20.5-13-9.78 42.22-56.25 42.51 31.9-7.84 10.45-29.56-22.14Zm99.27 33.57 5.19-12-48.78-21.12-27.95 64.57 50 21.63 5.19-12-35.13-15.21 6.47-14.94 30 13 5-11.62-30-13 6.07-14Zm24.9 18.91a21.1 21.1 0 0 1 5.73-6.32 20.7 20.7 0 0 1 7.76-3.46 24.8 24.8 0 0 1 9.19-.18 22.8 22.8 0 0 1 9.21 3.54 24.5 24.5 0 0 1 7 7.36l11.83-7.9a32.2 32.2 0 0 0-10.81-11.12 41.7 41.7 0 0 0-15.84-5.7 42.2 42.2 0 0 0-15.4.27 36 36 0 0 0-13.14 5.61 34.7 34.7 0 0 0-9.74 10.16 38.5 38.5 0 0 0-4.54 28.79 35.12 35.12 0 0 0 16.87 22 42 42 0 0 0 14.53 5 41.2 41.2 0 0 0 16.92-.59 32.7 32.7 0 0 0 13.72-7.29l-8.82-11.16a24.05 24.05 0 0 1-8.92 5 22.4 22.4 0 0 1-9.85.53 24.7 24.7 0 0 1-8.68-3A20.5 20.5 0 0 1 317 912a21.25 21.25 0 0 1-3.51-7.78 26.07 26.07 0 0 1 2.85-18.06Zm133.92 8.54a36.1 36.1 0 0 1-1.26 14.76 34.8 34.8 0 0 1-6.7 12.41 37.1 37.1 0 0 1-11.2 8.94 41.5 41.5 0 0 1-14.81 4.46 42.8 42.8 0 0 1-15.63-.91 36.6 36.6 0 0 1-13.06-6.17 34.7 34.7 0 0 1-9.32-10.55 38 38 0 0 1-3.28-28.75 34.6 34.6 0 0 1 6.7-12.41 37.2 37.2 0 0 1 11.29-9 44.6 44.6 0 0 1 30.4-3.53 36.8 36.8 0 0 1 13 6.18 35.06 35.06 0 0 1 13.94 24.58Zm-16.37 1.91a24.3 24.3 0 0 0-2.71-8.9 21.5 21.5 0 0 0-5.41-6.55 20.1 20.1 0 0 0-7.48-3.78 23.3 23.3 0 0 0-8.86-.59 22.8 22.8 0 0 0-8.45 2.6 20.7 20.7 0 0 0-6.4 5.4 21 21 0 0 0-3.82 7.63 25.88 25.88 0 0 0 2.11 18.11 21.3 21.3 0 0 0 5.42 6.61 20.15 20.15 0 0 0 7.47 3.78 23.3 23.3 0 0 0 8.87.59 23 23 0 0 0 8.44-2.6 20.9 20.9 0 0 0 6.41-5.4 21.2 21.2 0 0 0 3.82-7.63 24.4 24.4 0 0 0 .59-9.27m76.93-29.52-30.22 12.11-6.92-17.26 34.24-13.71-4.86-12.13-49.35 19.77 26.16 65.29 15.11-6-9.53-23.79 30.23-12.1Zm66.47-15.42-26.49 19 3.7 15.9-13.5 9.75-15.56-75.43 13.06-9.37L605 850.3l-13.88 10Zm-11.37-7-24.76-15.36 6.61 28.39Z" fill="#e8718b" fill-rule="nonzero"/>
<path d="M376.83 474.11A125.57 125.57 0 0 0 267.78 662q1.17 2 2.4 4a126.64 126.64 0 0 0 43.45 42.21c1 .59 2 1.16 3 1.7a125.59 125.59 0 1 0 60.18-235.83Zm-21.65 26.52 23.62-22a1.72 1.72 0 0 0 .53-1 121.5 121.5 0 0 1 40.27 7.69 1.66 1.66 0 0 0 .15 1.8l23.44 31.72a1.72 1.72 0 0 1-.35 2.39l-18 13.5a1.7 1.7 0 0 1-1.3.32l-46.64-7.72a1.78 1.78 0 0 1-1-.55L355.06 503a1.7 1.7 0 0 1 .12-2.37M384.92 658l8.27-45.17a1.7 1.7 0 0 1 .92-1.21l42.12-21.41a1.72 1.72 0 0 1 1.81.16l29.07 22.13a1.69 1.69 0 0 1 .64 1.69l-6.05 30.61-3 15.17a1.76 1.76 0 0 1-.88 1.18l-40.24 21.47a1.75 1.75 0 0 1-1.85-.15l-30.16-22.8a1.7 1.7 0 0 1-.65-1.67m-3.37-.63a1.74 1.74 0 0 1-1.21 1.35L337.57 671a1.74 1.74 0 0 1-1.65-.38l-36-33.38a1.74 1.74 0 0 1-.51-1.62l9.59-45.11a1.69 1.69 0 0 1 1.25-1.3l12.07-3 30-7.57a1.75 1.75 0 0 1 1.57.39l6.06 5.48 29.24 26.37a1.7 1.7 0 0 1 .54 1.57Zm-75.17-140.52 15.91-4.72 27.71-8.22a1.72 1.72 0 0 1 1.78.51l20.9 23.81a1.73 1.73 0 0 1 .27 1.83l-9 19.75-11.11 24.47a1.74 1.74 0 0 1-1.14 1l-30.14 7.59-12 3a1.75 1.75 0 0 1-1.76-.59l-10.15-12.79-11-13.89a1.74 1.74 0 0 1-.2-1.82L299 530.85l6.36-13.12a1.7 1.7 0 0 1 1.02-.88m-40 135.08a121.56 121.56 0 0 1-11.73-52.21 124 124 0 0 1 .84-14.4l.36.16a1.72 1.72 0 0 1 .93 1.24l3.58 19.85 5.3 29.35v.28l1.34 15.58a.3.3 0 0 1-.63.15Zm-7.72-70.21a1.7 1.7 0 0 1-2 .34l-.69-.33a122 122 0 0 1 40.63-74.08 1.3 1.3 0 0 1 2 .39l3.52 6.84a1.76 1.76 0 0 1 0 1.55l-19.55 40.31a2.3 2.3 0 0 1-.31.44l-5.07 5.26ZM271.14 661l-1.76-21.46a1.72 1.72 0 0 1 1.8-1.85l24.82 1.15a1.7 1.7 0 0 1 1.09.46l37 34.27a1.74 1.74 0 0 1 .53 1.09l2.56 27.19a1.71 1.71 0 0 1-1.46 1.86l-18.41 2.68A123 123 0 0 1 271.14 661m105.69 60.9a121.5 121.5 0 0 1-54.41-12.79l16.38-2.39a1.6 1.6 0 0 1 .61 0l30 6.62 18.94 4.18a1.65 1.65 0 0 1 1 .63l2.17 2.85a125 125 0 0 1-14.69.9m18.58-1.41L393 717.3a1.73 1.73 0 0 1 .06-2.16l24.29-28.38a1.7 1.7 0 0 1 .49-.4l41.18-22a1.72 1.72 0 0 1 1.8.1l13.12 9.3a122.34 122.34 0 0 1-78.53 46.73m92.42-128.55-17.06 17.12a1.73 1.73 0 0 1-2.26.15l-29.14-22.18a1.7 1.7 0 0 1-.62-.95l-11.86-47.38a1.7 1.7 0 0 1 .63-1.78l18-13.5a1.7 1.7 0 0 1 2.06 0l29.93 22.69a1.76 1.76 0 0 1 .63 1l10.12 43.25a1.72 1.72 0 0 1-.43 1.58m10.17 9.91-5.85-10.47a1.3 1.3 0 0 1-.18-.44l-10.59-45.27a1.5 1.5 0 0 1 0-.57l.6-5.82a.51.51 0 0 1 .94-.2A121.4 121.4 0 0 1 499 599.72v1.88a.53.53 0 0 1-1 .25" fill="#e8718b" fill-rule="nonzero"/>
<path d="M376.82 398.59a69.4 69.4 0 0 1-25.14-4.48c-1.24.08-2.46.12-3.65.12-22.33 0-33.69-13.57-38-23.83-6.46-5.67-8.81-13.71-9.25-20.21-3.82-5.3-7.84-13.43-12-24.32-6.39-16.62-18.17-42-22.33-50.89a111.3 111.3 0 0 0-22.84-10.28l-7.61-2.33-1.14-7.93c-.3-2.09-.92-4.94-1.52-7.51-15.89-9.16-22-26.83-23.66-32.57-13.6-27.11-10.75-60.33-8.79-73.81-12-16.77-13.84-38.21-14-47.09a85.7 85.7 0 0 1-11-41.15c0-20.66 12.39-29.91 24.68-29.91 9.1 0 18.43 5.11 24.36 13.34 2.89 4 4.61 4.65 9.19 6.37a57.4 57.4 0 0 1 13.61 6.82c3.13 2.17 5.74 3.32 7.55 3.32.52 0 2.11 0 5.33-2.35 2.1-1.53 18.44-13.28 36-21.49l-.9-5.64 10.63-3.11A82 82 0 0 1 324 16.8l.83-4.53 9.29-1c.42 0 1.3-.12 2.55-.12a33 33 0 0 1 4.65.34 23 23 0 0 1 4.55-3l5.62-2.82 3 1.51c.64-.55 1.33-1.08 2.05-1.59l4.91-3.44 5.76 1.65c.19.05.46.14.79.25a21.5 21.5 0 0 1 4.36-2.33L376.82 0l4.49 1.72A21.7 21.7 0 0 1 385.73 4l.74-.23 5.76-1.65 4.9 3.44c.73.51 1.41 1 2.06 1.59l3-1.51 5.63 2.81a23.7 23.7 0 0 1 4.54 3 33 33 0 0 1 4.66-.34c1.24 0 2.12.08 2.54.12l9.3 1 .82 4.53a82 82 0 0 1 17.69 2.86L458 22.77l-.9 5.64c17.52 8.21 33.86 20 36 21.49 3.21 2.34 4.79 2.35 5.32 2.35 1.81 0 4.42-1.15 7.56-3.32a57.6 57.6 0 0 1 13.6-6.82c4.59-1.72 6.3-2.37 9.19-6.37 5.91-8.23 15.23-13.34 24.35-13.34 12.28 0 24.67 9.25 24.67 29.91a85.85 85.85 0 0 1-10.95 41.15c-.21 8.88-2 30.32-14 47.09 2 13.48 4.81 46.7-8.79 73.82-1.63 5.73-7.78 23.4-23.66 32.56-.61 2.57-1.23 5.42-1.52 7.52l-1.14 7.94-7.73 2.31a112 112 0 0 0-22.81 10.3c-4.16 8.86-15.95 34.27-22.33 50.89-4.18 10.89-8.21 19-12 24.32-.44 6.5-2.79 14.54-9.26 20.21-4.28 10.26-15.63 23.83-38 23.83q-1.8 0-3.66-.12a69.4 69.4 0 0 1-25.12 4.46" fill="#e8718b" fill-rule="nonzero"/>
<path d="path1045" fill="#e8718b" fill-rule="nonzero"/>
<path d="path925" fill="#e8718b" fill-rule="nonzero"/>
<path d="m420.46 345.26-43.64-.19-43.64.19.19-40.19a63.3 63.3 0 0 0-1.93-19.9V285l2.17-30.8 22.7-9.2a41 41 0 0 0 20.19-6.37l.32-.23.33.23a41 41 0 0 0 20.19 6.37h.19l22.52 9.15 2.19 30.9v.11a63.4 63.4 0 0 0-1.97 19.84Zm-43.64-1.33 42.5.19-.19-39.05a65.1 65.1 0 0 1 2-20.13L419 255l-21.8-8.9a41.67 41.67 0 0 1-20.38-6.35 41.6 41.6 0 0 1-20.38 6.35l-21.76 8.9-2.12 30a65.8 65.8 0 0 1 1.95 20.16l-.19 39Z" fill="#e8718b" fill-rule="nonzero"/>
<path d="path1061" fill="#e8718b" fill-rule="nonzero"/>
<path d="M376.27 239.18c0-.1-2-9.9-6.29-16.09-3.77-5.5-7.43-8.47-18-10.49-10.26-2-16.84-10-16.37-20v-.28l.23-.16c.11-.08 11.56-8.07 20.35.15 8.41 7.86 13 10.13 20.62 10.13s12.21-2.27 20.62-10.13c8.81-8.23 20.24-.23 20.35-.15l.23.16v.28c.47 10-6.11 18.08-16.37 20-10.57 2-14.22 5-18 10.49-4.24 6.19-6.26 16-6.28 16.09Zm-39.54-46.29c-.3 9.31 5.88 16.77 15.46 18.59 10.9 2.08 14.86 5.33 18.72 11 3.12 4.55 5 10.8 5.91 14.15.87-3.35 2.79-9.6 5.91-14.15 3.87-5.64 7.82-8.89 18.72-11 9.58-1.82 15.76-9.28 15.46-18.59-1.63-1.08-11.15-6.85-18.69.21-8.56 8-13.56 10.44-21.4 10.44S364 201.1 355.43 193.1c-7.43-6.99-17.1-1.24-18.7-.21" fill="#e8718b" fill-rule="nonzero"/>
<path d="path873" fill="#e8718b" fill-rule="nonzero"/>
<path d="path875" fill="#e8718b" fill-rule="nonzero"/>
<path d="M432.5 146.1a31.4 31.4 0 0 1-11.5-2.28l-1.91-.73.65-2c.22-.67 5.64-16.47 21.83-22.48a32.3 32.3 0 0 1 11.56-2A32.53 32.53 0 0 1 471 122.4l1 .75-.15 1.22c-.67 5.34-4.79 15.7-15.63 16.73a51.3 51.3 0 0 0-10.45 2.43c-4.11 1.27-8.32 2.57-13.27 2.57m-7.86-5.56c8 2.54 13.56.84 19.87-1.12a54.8 54.8 0 0 1 11.32-2.59c8.22-.79 10.81-8.59 11.53-11.72a29 29 0 0 0-14.28-4.11 27.3 27.3 0 0 0-10 1.74c-11.08 4.05-16.53 13.66-18.44 17.8m-103.49 5.56c-4.95 0-9.16-1.3-13.29-2.57a51 51 0 0 0-10.45-2.43c-10.83-1-15-11.39-15.62-16.73l-.15-1.22 1-.75a32.5 32.5 0 0 1 17.87-5.75 32 32 0 0 1 11.57 2c16.18 6 21.6 21.81 21.83 22.48l.64 2-1.91.73a31.3 31.3 0 0 1-11.49 2.24m-34.86-21c.71 3.13 3.31 10.93 11.53 11.72a54.7 54.7 0 0 1 11.31 2.59c6.31 2 11.82 3.66 19.87 1.12-1.91-4.14-7.39-13.75-18.44-17.85a27 27 0 0 0-10-1.74 29 29 0 0 0-14.27 4.17Z" fill="#e8718b" fill-rule="nonzero"/>
<path d="path879" fill="#e8718b" fill-rule="nonzero"/>
<path d="path938" fill="#e8718b" fill-rule="nonzero"/>
<path d="path999" fill="#e8718b" fill-rule="nonzero"/>
<path d="path1047" fill="#e8718b" fill-rule="nonzero"/>
<path d="M414.29 351.1a41 41 0 0 1-4.93-.32c-13-1.63-23.5-2.35-32.43-.58h-.22c-8.93-1.77-19.42-1.05-32.43.58-8.29 1-14.88-.45-18.56-4.2-2.83-2.87-3.9-6.87-3.18-11.87 1.7-12 10.81-29.72 10.9-29.9l.56-1.09.47 1.13c3.11 7.47 4.82 16 6.19 22.91 1.09 5.44 2 10.16 3.32 12.74 3-.06 3.62-1 4.64-2.5a12.8 12.8 0 0 1 4.43-4.27l.29-.17.28.16a32 32 0 0 1 7.15 5.93 19.86 19.86 0 0 1 7.8-4.83l.29-.1.24.19s4.75 3.71 7.72 6.52c3-2.81 7.68-6.48 7.73-6.52l.24-.19.29.1a19.8 19.8 0 0 1 7.79 4.83 32.2 32.2 0 0 1 7.15-5.93l.29-.16.28.17A12.7 12.7 0 0 1 405 338c1 1.51 1.66 2.44 4.64 2.5 1.3-2.58 2.24-7.31 3.33-12.74 1.37-6.88 3.08-15.44 6.19-22.91l.47-1.13.56 1.09c.09.18 9.19 17.94 10.89 29.9.72 5-.35 9-3.17 11.87s-7.65 4.52-13.62 4.52m-25.57-3.1a171 171 0 0 1 20.78 1.62c7.94 1 14.19-.38 17.62-3.87 2.56-2.6 3.52-6.28 2.86-10.91-1.43-10.05-8.21-24.35-10.22-28.42-2.78 7.09-4.37 15.06-5.66 21.53-1.15 5.75-2.14 10.71-3.6 13.36l-.16.3H410c-3.87 0-4.78-1.32-5.92-3a11.6 11.6 0 0 0-3.78-3.76 32 32 0 0 0-7 6l-.43.51-.43-.52A18.7 18.7 0 0 0 385 336c-1 .83-5.26 4.18-7.78 6.63l-.4.39-.39-.39c-2.53-2.45-6.74-5.8-7.79-6.63a18.5 18.5 0 0 0-7.44 4.87l-.43.52-.44-.51a31.5 31.5 0 0 0-7-6 11.6 11.6 0 0 0-3.78 3.76c-1.14 1.68-2.05 3-5.92 3h-.33l-.17-.3c-1.46-2.65-2.45-7.61-3.59-13.36-1.3-6.47-2.89-14.44-5.66-21.53-2 4.07-8.79 18.37-10.23 28.42-.66 4.63.3 8.31 2.87 10.91 3.42 3.49 9.68 4.87 17.61 3.87 13.06-1.63 23.62-2.36 32.68-.58a61.3 61.3 0 0 1 11.91-1.07" fill="#e8718b" fill-rule="nonzero"/>
<path d="m332 286.16-.48-.89c-.11-.21-11.36-21.4-10.55-43.13v-.88l.79.4c.1.05 10.49 5.1 29.15 3.57 17.07-1.38 24.38 1.91 25.92 2.75 1.54-.84 8.84-4.14 25.93-2.75 18.66 1.53 29-3.52 29.15-3.57l.79-.4v.88c.8 21.73-10.44 42.92-10.56 43.13l-.48.89-.51-.87c-.06-.1-5.84-10.06-10.16-28.12-1.57.69-5.89 2.52-10.81 4.26l-.28.1-.25-.18a19.5 19.5 0 0 1-4.81-5.35 104 104 0 0 1-9.43 7.31l-.37.25-.32-.29a51.7 51.7 0 0 1-7.92-9.17 51.4 51.4 0 0 1-7.91 9.17l-.33.29-.36-.25a102 102 0 0 1-9.43-7.31 19.3 19.3 0 0 1-4.82 5.35l-.24.18-.29-.1c-4.92-1.74-9.24-3.57-10.81-4.26-4.32 18.06-10.1 28-10.16 28.12ZM322 243c-.42 18.53 7.85 36.49 10 40.75 1.52-2.88 6.13-12.39 9.68-27.53l.16-.67.63.28s5.06 2.27 11.06 4.39a17.2 17.2 0 0 0 4.57-5.4l.32-.68.57.5a108 108 0 0 0 9.49 7.45 50.5 50.5 0 0 0 7.86-9.37l.48-.77.48.77a50 50 0 0 0 7.87 9.37 107 107 0 0 0 9.48-7.45l.57-.5.32.68a17.3 17.3 0 0 0 4.58 5.4c6-2.12 11-4.37 11.05-4.39l.63-.28.16.67c3.55 15.14 8.17 24.65 9.68 27.53 2.11-4.26 10.39-22.23 10-40.75-2.78 1.17-12.68 4.67-29 3.34-18.59-1.52-25.45 2.7-25.52 2.74l-.31.19-.3-.19c-.07 0-6.93-4.26-25.53-2.74-16.25 1.36-26.16-2.14-28.98-3.34" fill="#e8718b" fill-rule="nonzero"/>
<path d="path1012" fill="#e8718b" fill-rule="nonzero"/>
<path d="path1164" fill="#e8718b" fill-rule="nonzero"/></g></svg>