<?xml version="1.0" encoding="UTF-8"?>
<svg fill="#e8718b" id="Layer_2" data-name="Layer 2" xmlns="http://www.w3.org/2000/svg" viewBox="0 0 467.27 457.2">
  <defs>
    <style>
      .cls-1 {
        fill:#e8718b;
      }
    </style>
  </defs>
  <g id="Layer_1-2" data-name="Layer 1">
    <g>
      <path class="cls-1" d="M343.92,121.76c1.77-2.31,1.33-5.49,1.38-8.22-.29-1.66.22-4.11-1.68-4.95-2.29-.5-4.65-.45-6.98-.53.08,4.86.15,9.71-.18,14.56,2.49-.13,5.06-.07,7.46-.86Z"/>
      <path class="cls-1" d="M301.44,131.69c2.29,2.13,5.39-.59,6.7-2.59,2.42-5.13,2.22-11.15,1.52-16.65-.3-4.03-4.8-8.38-8.75-5.57-2.63,3.63-2.36,8.42-2.84,12.67-.05,4.15-.46,9.43,3.37,12.14Z"/>
      <path class="cls-1" d="M335.82,223.94c-2.99,3.22-4.47,7.44-6.79,11.11h0c-11.92,21-31.18,37.87-53.95,46.12-2.43,1.27-5.82,1.81-7.22,4.37.7,3.43,5.13,3.32,7.71,2.22,21.42-9.3,40.79-24.42,52.67-44.76,3.35-5.95,6.97-12.11,7.58-19.06Z"/>
      <path class="cls-1" d="M230.09,262.03c-5.2-5.28-11.94-9.79-19.52-10.25-4.25-.34-7.33,3.24-8.72,6.87h0c1.39,1.28,2.92,2.4,4.57,3.31,2.41-1.73,4.64-3.77,7.29-5.13,4.98.46,10.17,3.09,12.86,7.46-3.54-.56-6.43-3.05-9.98-3.48-3.45.39-6.04,3.27-7.15,6.42,2.06,1.11,4.17,2.13,6.3,3.1,1.17-1.28,2.27-2.8,4.1-3.12-.09,1.51-.19,3.02-.3,4.53,1.64-.79,3.25-1.69,4.98-2.28,4.27-.11,8.32,1.56,12.43,2.49-1.44-3.82-3.94-7.11-6.86-9.92Z"/>
      <path class="cls-1" d="M242.65,108.6c-1.31-3.92-5.95-3.78-9.33-3.92-.05,6.7-.35,13.41-.19,20.11,3.2-.36,8.39.86,9.54-3.25,1.07-4.18,1.13-8.77-.02-12.94Z"/>
      <path class="cls-1" d="M156.92,123.56c.24,4.03,2.62,10.44,7.67,9.28,5.84-7.22,5.99-18.04,2.2-26.27-.81-2.43-3.81-3.53-5.79-1.71-4.92,4.78-4.11,12.43-4.08,18.7Z"/>
      <path class="cls-1" d="M466.82,194.31c-1.04-4.87-1.02-9.89-.93-14.84-.04-2.99,2.12-5.75,1.07-8.77-1.68-7.07-2.16-14.79-6.71-20.79-1.73-3.14-5.88-5.27-5.14-9.36.64-8.52-1.48-17.24-5.71-24.64-4.48-6.81-8.75-13.87-14.6-19.62-10.48-10.45-21.95-20.65-36.04-25.83-16.84-5.67-36.28-5.24-52.08,3.34-13.12-4.06-26.51-7.16-39.71-10.92-2.52-.48-3.51-3.04-4.46-5.1-2.25-5.41-4.85-10.9-9.15-14.99-5.93-4.96-13.69-6.54-20.64-9.5-9.04-3.66-17.61-8.61-27.15-10.95-4.15-1.18-8.46.25-12.35,1.72-2.04-2.25-1.9-5.5-3.15-8.15-2.4-5.18-6.5-9.63-11.69-12.09-9.19-4.7-19.89-4.23-29.84-2.95-6.34.76-13.17,1.14-18.61,4.85-5.38,3.56-8.4,9.48-11.03,15.15-2.72,1.87-5.71,3.37-8.42,5.3-2.91-.89-4.89-3.48-7.24-5.29-5.84-5.5-13.4-8.93-21.2-10.58-8.22-1.57-16.79.55-24.1,4.38-6.49,3.29-11.07,9.19-17.15,13.09-5.25,3.59-11.59,5.29-16.52,9.41-6.88,5.46-10.09,14.11-11.85,22.44-1.31,5.76,2.49,11.11,2.04,16.88-.33,6.12-.22,12.36,2.1,18.13,1.73,6.23,7.6,10.46,8.46,17.01.47,2.03-1.17,3.68-2.04,5.34-2.28,3.45-3.41,7.49-4.28,11.49-.67,2.87.49,5.93-.46,8.73-3.06,2.61-6.95,4.14-9.75,7.11-5.55,5.74-8.13,13.6-9.95,21.2-1.58,5.96,1.68,11.51,3.26,17.03-.38,3.01-2.51,5.49-4.1,7.99-2.3,3.5-6.89,3.7-10.12,5.94-6.82,4.41-12.91,10.92-14.57,19.11-2.59,9.08.38,18.63,4.88,26.59,1.77,2.8,1.88,6.31.74,9.37-1.51,4.95-6.15,7.79-9.41,11.49-5.44,6.18-8.83,14.26-9.22,22.49.57,5.76,2.17,11.54,5.03,16.6,3.48,5.98,10.02,8.95,15.78,12.26,9,5.21,18.58,9.46,28.57,12.42,1.91,8.3,6.19,15.78,11.49,22.37,2.39,3.18,5.89,5.23,8.54,8.17-1.79,4.03-3.99,7.86-6.57,11.44-4.98,6.98-7.73,15.37-8.52,23.87-1.4,7.28-2.85,14.55-3.91,21.88-.31,2.72,1.14,5.23,1.29,7.92-.17,3.29-1.89,6.54-.69,9.83,1.73,9.66,8.09,18.9,17.68,22.05,15.41,5.11,32.26,2.81,47.38-2.25,16.4-4.84,32.99-8.98,49.48-13.47,10.02-2.52,19.9-5.73,30.16-7.19,7.57-1.28,15.29-1.26,22.94-.82,12.99.42,26,.14,38.96,1.17,10.68.22,21.37.1,32.05.17,9.77-.04,19.4,1.81,29.06,3.08,19.77,2.73,39.35,6.69,58.9,10.64,5.71-.31,10.75-3.19,15.99-5.14,3.99-.31,8.08-.15,11.9-1.58,9.21-2.42,16.7-9.58,20.35-18.26,3.9-10.5,5.8-21.89,4.04-33.03-1.03-5.31-3.98-9.97-7.18-14.23-2.14-2.92-5.54-4.43-8.1-6.88-4.31-15.65-8.5-31.54-9.8-47.8,1.8-3.09,4.45-5.61,6.12-8.78,1.76-3.05,2.29-6.78,4.73-9.43,4.2-4.61,8.64-9.32,10.82-15.28,4.53-10.71,2.81-23.08,8.38-33.39,6.27-8.96,15.92-14.77,22.55-23.44,4.07-4.54,6.92-10.12,7.87-16.17.97-5.9,2.84-11.94,1.53-17.94ZM456.88,207.53c-.64,5.18-2.35,10.39-6.07,14.2-6.61,8.37-15.66,14.36-22.35,22.66-4,5.49-5.14,12.35-7,18.74-.83,5.16-.55,10.53-2.54,15.47-1.45,6.09-5.37,11.22-10.29,14.95-2.87,1.87-3.25,5.48-4.41,8.42-1.73,5.41-5.91,9.46-9.52,13.66-.29,2.26,1.07,4.43,1.26,6.7,1.18,12.65,3.61,25.22,7.41,37.35,1.27,3.83,1.03,7.98,2.32,11.8.89,1.45,2.55,2.15,3.89,3.13,6.71,3.71,11.62,11.18,11.39,18.98.48,8.27-.7,16.7-4.01,24.33-3.06,6.47-9.37,11.15-16.33,12.6-3.3.56-6.65-.08-9.96.24-3.75,1.7-7.09,4.45-11.21,5.28-2.99.25-5.89-.74-8.79-1.27-24.82-5.11-49.8-9.54-74.98-12.38-18.35-.57-36.75.27-55.07-1.09-12.02-.13-24.03-.44-36.04-.41-8.45.45-16.81,2.08-24.98,4.26-19.59,5.2-39.18,10.4-58.75,15.64-9.35,2.4-18.42,6.41-28.23,6.45-7.69.05-15.94.99-23-2.71-5.45-2.54-8.57-8.39-9.49-14.11-.5-2.68.83-5.22,1.06-7.85-.38-3.06-1.78-6.05-1.18-9.17.92-5.22,1.49-10.52,2.96-15.63,1.43-4.69.51-9.83,2.69-14.34,2.6-7.83,9.25-13.52,11.54-21.47,1.1-3.3,2.16-6.65,2.37-10.15-10.55-5.01-17.92-15.2-20.84-26.34-.87-3.63-3.54-6.83-7.2-7.85-9.66-2.93-18.93-7.09-27.58-12.3-3.9-2.36-8.62-4.06-11.08-8.17-3.13-5.82-4.93-13-1.91-19.25,2.94-8.72,12.17-12.96,15.73-21.27,2.32-4.62,2.14-10.04,1.48-15.02-2.92-6.04-7.08-11.98-6.72-19.02-.4-8.17,5.6-15.22,12.59-18.65,2.75-1.48,6.17-1.65,8.69-3.4,3.39-5.9,7.36-11.6,9.81-17.96-1.73-4.92-5.8-9.47-4.83-15.13,1.22-6.32,3.54-12.95,8.47-17.35,4.17-2.93,8.8-5.55,13.92-6.3-2.07-5.21-2.75-11.02-1.63-16.53,1.02-4.69,4.44-8.23,7.41-11.8-2.62-3.75-2.31-8.28-2.6-12.58-2.57-3.46-6.2-6.23-7.65-10.45-3.2-6.91-.42-14.71-2.39-21.88-.73-3.64-2.58-7.36-1.37-11.12,1.3-4.96,3.18-10.06,7.1-13.57,4.99-4.82,12.28-5.96,17.53-10.43,6.97-4.65,12.38-11.7,20.59-14.35,7.48-3.1,15.98-1.69,22.99,1.95,4.88,2.27,8.23,6.64,12.55,9.7,2.86,2.15,6.01,3.87,9.19,5.49,3.92-4.88,9.41-8.27,15.57-9.47.18-8.47,6.35-17.15,15.32-17.53,8.2-1.02,16.49-1.89,24.76-1.14,5.76.73,11.85,3.88,13.99,9.6,2.26,6.25,2.96,12.97,2.4,19.58,6.42-3.97,13.43-9.2,21.46-7.23,10.64,3.4,20.2,9.55,30.92,12.79,4.58,1.62,9.9,2.93,12.81,7.18,3.46,5.23,5.35,11.3,8.34,16.78.68,1.54,2.48,1.78,3.89,2.33,15.38,4.55,31.15,7.8,46.43,12.7,7.17-3.56,14.79-7.03,22.95-7.02,6.89-.1,13.91-.5,20.64,1.26,9.36,2.32,17.61,7.72,24.91,13.87,7.41,6.21,14.59,12.91,19.93,21.04,2.9,4.25,6.16,8.38,7.81,13.31,2.32,6.88,1.67,14.28,1.32,21.4,3.01,3.05,6.54,5.76,8.53,9.66,2.51,4.3,2.81,9.36,3.78,14.14.58,3.09-1.21,5.96-1.23,9.03-.08,4.44-.35,8.99.9,13.32,1.19,4.5.41,9.2-.37,13.7Z"/>
      <path class="cls-1" d="M225.29,228.58c.56,3.2,1.3,6.41,2.23,9.61,4.11,1.19,8.23,2.08,12.34,2.67-.4-3.89-.71-7.79-.93-11.69-.08-1.52-.16-3.04-.21-4.56-.29-7.18-.28-14.37.03-21.56.06-1.52.14-3.04.23-4.56.23-3.9.55-7.8.96-11.7-4.14.59-8.28,1.48-12.42,2.68-.93,3.2-1.67,6.41-2.23,9.61-.26,1.45-.48,2.9-.65,4.35-.87,6.93-.87,13.87,0,20.8.17,1.45.39,2.9.65,4.35ZM227.73,201.33h8.47v2.71h-6.44v8.31h5.95v2.67h-5.95v11.31h-2.03v-25Z"/>
      <path class="cls-1" d="M244.78,229.3c.1,4.05.24,8.1.44,12.15,4.44.36,8.88.36,13.32,0,.2-4.06.34-8.13.44-12.19.05-1.53.08-3.07.1-4.6.14-7.22.13-14.44-.01-21.66-.03-1.53-.06-3.06-.1-4.6-.11-4.06-.26-8.12-.46-12.19-4.42-.36-8.84-.36-13.26,0-.2,4.05-.35,8.1-.46,12.15-.04,1.54-.07,3.07-.1,4.61-.14,7.24-.15,14.48-.01,21.72.02,1.54.06,3.08.1,4.61ZM250.86,201.33h2.04v25h-2.04v-25Z"/>
      <path class="cls-1" d="M265.01,203.09c.31,7.16.32,14.32.03,21.48-.05,1.51-.12,3.02-.21,4.53-.22,3.92-.53,7.84-.93,11.76,4.11-.59,8.23-1.48,12.34-2.67.94-3.25,1.7-6.51,2.26-9.76.25-1.43.46-2.86.63-4.29.85-6.87.85-13.75,0-20.62-.17-1.43-.38-2.86-.63-4.29-.56-3.25-1.32-6.51-2.26-9.76-4.14-1.2-8.28-2.09-12.42-2.68.42,3.93.74,7.85.96,11.77.1,1.51.17,3.02.23,4.53ZM267.56,201.33h8.47v2.71h-6.44v8.31h5.95v2.67h-5.95v11.31h-2.03v-25Z"/>
      <path class="cls-1" d="M446.75,173.49c-.42-6.74-3.28-14.12-9.55-17.49-1.71-1.29-4.85-2.53-3.95-5.22,1.94-5.52,1.61-11.47,1.11-17.21-1.33-6.58-5.77-11.87-9.45-17.29-5.6-8.03-13.58-13.86-21.09-19.95-4.81-3.59-10.25-6.41-16.04-8.01-4.98-1.05-10.12-.9-15.18-.94-5.88-.33-11.39,2.15-16.66,4.41-2.73,1.05-5.33,3.85-8.44,2.5-19.06-5.17-38.24-9.99-57.2-15.45-4.13-5.68-5.8-12.73-9.33-18.75-1.57-2.89-4.84-4.02-7.76-5.02-8.83-2.74-17.43-6.24-25.58-10.61-2.61-1.23-5.74-3.23-8.57-1.46-5.52,2.93-10.43,6.83-15.42,10.54-2.84,2.19-6.4,3.02-9.94,2.89-1.07-8.57-.38-17.24-.85-25.85-.49-3.66-1.3-8.58-5.54-9.6-7.87-1.01-15.78.21-23.6,1.03-2.64.09-4.91,2.45-4.91,5.07,0,.13.01.27.02.4.09,4.25-.12,8.56-1.95,12.47-3.39-.05-6.81-.4-10.19,0-5,1.6-6,8.4-11.32,9.33-1.53.58-3.14.24-4.65-.18-7.64-2.37-14.58-6.64-20.51-11.97-3.75-3.5-8.25-6.79-13.58-6.98-4.91-.5-9.23,2.54-12.7,5.65-4.46,4.25-9.58,7.71-14.37,11.56-2.42,2.09-5.8,2.13-8.63,3.38-4.01,1.55-7.48,5.22-7.51,9.71-.64,4.54,1.23,8.81,2.02,13.19-.06,4.89-1.83,10.1.57,14.74,1.42,3.98,5.52,5.7,8.28,8.52.68,3.82-.4,7.75.41,11.55.78,2.8,2.93,4.89,4.56,7.21-2.51,3.63-5.26,7.08-7.94,10.57-2.62,3.33-3.22,8.12-1.29,11.92,3.27,6.81,10.37,10.36,15.23,15.81,1.82,3.27-1.99,6.05-4.09,8.07-1.91,1.94-4.66.57-6.53-.65-4.09-2.71-8.36-5.33-13.21-6.42-8.41.25-14.89,10.18-11.28,17.96,1.15,3.29,4.48,4.72,7.28,6.32-1.89,4.3-4.68,8.1-6.82,12.27-3.52,6.75-8.32,13.08-9.5,20.8-5.07-.63-10.88-1.04-14.84,2.84-3.89,2.65-4.74,7.86-3.18,12.06,2.25,5.02,6.54,9.45,6.47,15.25-.01,4.65.52,9.49-1.07,13.96-1.86,5.57-4.24,11.29-8.78,15.23-3.33,3.29-7.68,6.09-9.03,10.85-1.5,4.04.72,8.78,4.45,10.73,7.7,4.81,15.77,9.18,24.43,12,5.38,1.46,11.12,3.12,14.87,7.55,4.54,4.66,4.75,11.57,7.99,16.97,1.83,3.39,3.93,6.81,7.22,8.97,3.9,2.95,8.69,4.9,11.81,8.79.42,3.17-1.08,6.17-1.56,9.26-1.45,7.88-4.02,15.78-8.99,22.18-2.69,3.38-4.98,7.31-5.53,11.67-.63,8.44-3.82,16.46-4.39,24.91,2.05,4.3,2.21,9.89-.27,14.06,1.46,2.91,3.67,5.78,7.05,6.46,4.27.59,8.61.27,12.91.32,7.77.13,15.15-2.64,22.58-4.52,16.54-4.27,32.96-8.94,49.47-13.31,13.74-3.63,27.52-7.95,41.85-8.24,14.34-.06,28.69.06,43.02.74,15.97.77,31.97.58,47.95.9,26.98,2.58,53.65,7.67,80.18,13.15,5.43,1.37,8.06-5.66,12.91-6.52,4.01,1.04,8.43,2.49,12.41.45,5.28-2.32,6.71-8.44,8.15-13.46,1.65-6.82,2.05-15.64-4.08-20.42-2.66-2.57-7.12-2.55-9.23-5.71-1.97-5.48-2.19-11.39-3.77-16.97-3.23-11.73-5.83-23.67-7.07-35.79-.5-4.11-1.97-8.05-2.35-12.18,1.37-6.39,8.05-9.57,10.49-15.4,1.66-3.45,2.62-7.2,4.3-10.63,2.25-2.8,5.98-4.09,7.96-7.18,3.6-5.59,4.64-12.33,4.71-18.85,2.58-8.95,3.96-18.78,10.36-26.01,4.72-4.92,9.39-9.94,14.79-14.13,7.34-6.27,13.22-15.75,11.38-25.76-2.14-7.5-1.66-15.52.08-23.04ZM331.43,144.6c.02-14.44.49-28.87.88-43.31.94.05,1.88.07,2.82.07,3.68,0,7.4-.21,10.92.87,3.52,2.48,3.93,7.34,3.8,11.31.02,5.36-.62,11.86-5.94,14.65,4.55,8.19,4.38,17.68,5.61,26.7-1.82-.52-4.18-1.26-4.57-3.41-1.1-5.83-1.55-11.78-2.9-17.56-.73-2.64-1.99-6.37-5.52-5.55-.93,6.55-.41,13.24-.51,19.85-2.13.04-5.07-.93-4.59-3.62ZM318.82,134.47c.17-11.26.54-22.51,1.08-33.76.45.08.93.09,1.41.09,1.25,0,2.54-.08,3.52.66.09,13.67-.63,27.35-.9,41.02.06,2.93-3.45.77-4.76-.1-.77-2.55-.3-5.29-.35-7.91ZM294.99,109.1c.79-3.05,2.09-6.4,5.04-7.97,3.05-1.41,7.41-1.48,9.76,1.27,2.9,3.31,4.39,7.71,4.46,12.08.35,7.23.32,15.25-4.65,21.07-2.21,3.1-6.63,3.19-9.85,1.85-3.45-1.9-4.84-5.94-5.51-9.59-1.28-6.19-.66-12.6.75-18.71ZM275.41,100.5c1.96,7.94,3.38,15.99,4.49,24.09,3.28-7.28,4.46-15.27,5.86-23.07.07-2.3,3.11-1.11,4.49-1.49-1.3,11.41-5.8,22.08-8.01,33.3-.33,2.07-3.45,1.21-4.03-.3-4.03-10.74-4.51-22.36-7.62-33.35,1.61.25,3.22.52,4.82.82ZM259.57,100.56c.93-1.19,4.9-1.21,4.54,1.05-.03,10.05-.24,20.1-.63,30.14-1.54-.13-3.08-.26-4.61-.4-.02-10.27.45-20.54.7-30.79ZM255.34,99.8c.16,1.69-.2,3.37-.47,5.04-.81.15-1.61.31-2.41.47-.14-1.88-.32-3.77-.48-5.65,1.12-.04,2.24.01,3.36.14ZM228.37,99c4.8.32,9.76-.05,14.41,1.32,3.25,2.23,4.21,6.51,4.97,10.16.88,6.73.07,14.99-5.89,19.27-4.42,1.66-9.33,1-13.96,1.39.31-10.71.26-21.43.47-32.14ZM198.57,98.57c4.41-.16,8.82.05,13.23,0,.03,1.77.05,3.55.07,5.33-3.25-.01-6.5-.09-9.74-.14-.13,2.79-.19,5.59-.12,8.38,3.02.01,6.05-.1,9.07-.18.01,1.92,0,3.85-.02,5.78-3.01-.02-6.02-.06-9.03-.05-.07,3.2-.1,6.4-.03,9.59,3.22.03,6.44-.08,9.66-.16.04,1.76.08,3.52.09,5.28-4.81.22-9.69.08-14.37,1.39.56-11.74.54-23.5,1.19-35.23ZM195.03,98.49l-.06,5.51c-2.27,0-4.53-.04-6.79-.07-.43,10.69-.23,21.41-1.17,32.08l-3.68.24c.17-10.79.66-21.58,1.05-32.36-2.2-.06-4.39-.13-6.59-.27-.08-1.95-.13-3.91-.16-5.86,5.8.33,11.6.47,17.4.73ZM172.68,110.48c.84,7,.28,14.13-1.28,20.98-.83,3.81-3.51,7.16-7.17,8.58-3.22.81-6.69-1.04-8.05-4.03-4.53-8.57-4.45-18.97-2.03-28.16,1.29-3.56,2.58-7.71,5.91-9.85,2.82-1.27,6.48-.91,8.68,1.38,2.92,2.91,3.57,7.18,3.94,11.1ZM167.67,94.37c-2.82-1.2-5.82-.99-8.76-.38,1.01-2.4,2.86-5.13,5.67-5.41,2.08,1.07,2.59,3.7,3.09,5.79ZM102.38,427.4c-7.48,2.38-15.49,2.37-23.24,1.71-.01-4.85-.23-9.69-.43-14.53-.18-4.91,1.37-9.61,2.44-14.33.76-3.43.29-7.11,1.73-10.39,1.8-4.58,5.02-8.38,7.58-12.53,5.62,11.84,12.04,23.47,20.93,33.21,3.67,4.17,8.02,7.66,12.25,11.24-7.12,1.75-14.23,3.54-21.26,5.62ZM244.86,373.46c-.97,8.05-2.51,16.04-3.22,24.12-.13,2.18-1.03,4.83-3.38,5.47-2.84.55-5.76.28-8.63.22,1.39-8.22.65-16.56-.86-24.71-.32-3.21-1.6-6.79.04-9.82,1.27-.86,2.76-1.02,4.26-1.02.88,0,1.76.05,2.61.05,2.64.23,5.4-.02,7.93.88,1.95.78,1.18,3.18,1.25,4.81ZM264.11,331.01c-2.96,12.95,2.66,26.81-2.31,39.5-.95,2.18-1.2,4.94-3.17,6.5-3.5-7.78-9.81-13.85-16.55-18.88-7.47-5.43-17.05-9.35-26.33-6.83-8.44-.25-17.43-2.13-23.82-8.06-7.07-5.8-10.52-14.88-11.55-23.75-.81-6.5.62-12.96,1.71-19.34,2.14-12.63.13-25.91-5.68-37.33-3.04-5.68-7.75-10.91-14.13-12.73-5.98-1.95-13.43-1.15-17.99,3.44,4.54.07,9.2-.87,13.62.58,8.28,2.08,13.79,9.95,15.38,18.01,2.82,13.34-.15,27.01-3.16,40.04-1.9,8.17.09,17.09,4.97,23.87,6.05,9.13,15.52,15.16,22.48,23.5,3.81,4.52,7.25,10.55,5.56,16.64-2.76,8.75-4.96,17.82-4.94,27.05-8.34,1.24-16.62,2.86-24.77,5.07-15.26,4.05-30.49,8.16-45.76,12.17-4.15-3.82-8.59-7.33-12.38-11.51-8.56-9.03-14.83-19.96-19.76-31.32-.89-2.48-2.38-5.09-1.57-7.79,1.65-6.08,3.33-12.18,4.31-18.4.56-3.48-.3-7.22-2.83-9.75-3.37-4.14-8.33-6.32-12.48-9.49-5.68-5.24-6.26-13.51-10.17-19.83-3.98-5.41-9.22-10.28-15.77-12.28-7.51-2.28-14.96-5.1-21.62-9.3-1.06-.7-2.82-1.71-1.88-3.27,1.55-6.01,3.81-11.86,6.82-17.29,3.62-6.44,5.74-13.67,10.17-19.67,6.97-9.82,14.8-19.68,25.54-25.56,6.2-4.78,13.23-8.38,20.36-11.55,8.13-2.57,16.78-3.43,25.28-2.76,7.27.39,14.51,2.93,20.1,7.67,5.59,4.18,8.62,10.67,13.45,15.57,2.82,2.85,5.8,5.65,9.36,7.56,3.81,2.15,7.96,3.85,11.26,6.79,3.38,3.29,4.29,8.13,5.89,12.39,3.86-3.63,2.48-9.52-.6-13.17,7.37-3.84,14.82-8.65,23.51-8.16,11.22.78,20.95,7.17,29.98,13.34,7.65,5.22,17.5,4.59,26.05,2.33,10.58-3.18,20.8-9.29,26.76-18.82,1.71-2.75,2.96-5.7,3.87-8.77.39-1.29.71-2.61.97-3.94.74-3.6,1.07-7.3,1.16-10.95.01-2.8-.3-5.61-.92-8.34-.29-1.33-.66-2.65-1.1-3.94-2.44-7.27-7.02-13.83-13.23-18.39-6.87-5.69-15.66-8.67-24.51-9.2-9.37-.59-18.76-1.71-28.16-1.24-16.68,1.2-33.53.9-50.04-1.86-14.28-2.32-28.53-5.91-41.51-12.43-9.17-4.92-18.79-11.43-21.89-21.95-2.64-6.72-.78-13.96.72-20.7,3.17-12.71,10.89-25.11,23.14-30.69,8.85-4.32,19.27-4.1,28.43-.86.01.3.05.9.06,1.2-2.1,1.49-3.98,3.45-6.31,4.55-4.86.21-10.01.23-14.2,3.09-6.36,4.36-11.45,10.65-14.37,17.8-2.47,6.95-3.24,15.14.36,21.84,1.8,3.61,4.78,6.6,8.44,8.3,6.85,3.65,14.66,4.58,22.19,5.91,13.31,1.89,26.79,1.47,40.16,2.62,8.23.26,16.38,1.72,24.63,1.54-.23,2.27-.35,4.55-.23,6.84.83-.01,2.47-.02,3.3-.03.94-2.15,1.71-4.39,2.92-6.41,1.39-1.36,3.45-.45,5.14-.46-.1,2.42-.22,4.84-.3,7.26,1.04.23,2.08.46,3.13.68,1.31-2.43,2.1-5.36,4.29-7.18,2.55-.9,5.34-.59,7.98-.26-1.28,2.83-2.2,5.83-2.27,8.97,3.54-1.72,4.32-6.28,7.78-8.18,1.72-1.36,3.88-.42,5.69.19-1.68,3.08-3.34,6.25-3.64,9.81,3.21-1.67,4.94-5.13,8.1-6.9,2.74-2.21,6.42-1.51,9.65-1.25-2.55,3.03-5.16,6.1-6.38,9.95,4.93-.06,6.71-7.75,12.15-6.35,2.12-.1,1.23,2.5.16,3.19-1.73,1.72-2.72,3.96-3.43,6.26,3.48.71,5.93-2.45,9.13-3.12,2.8-.56,5.86-.86,8.44.64-2.78,2.3-6.22,4.25-7.35,7.91,4.81-.86,10.57-3.91,14.96-.48,1.78,1.13.05,2.86-1.29,3.23-2.64,1.24-5.59,2.72-6.29,5.85,3.84-.52,7.69-1.38,11.6-1.21,2.46.29,3.73,2.91,4.08,5.11-2.97.94-6.25,1.77-8.29,4.32,3.97.64,8.27.55,11.84,2.68,2.15,1.35,3.38,3.65,4.13,6.01-3.38.15-7.19-.07-9.74,2.58,3.55,2.46,8.33,2.53,11.49,5.7,2.31,1.58,2.06,4.57,2.21,7.02-2.89.09-5.83-.47-8.67.23,1.28,3.97,7.26,2.88,9.48,5.86-2.67,7.25-5.48,14.63-10.18,20.85-4.52,5.95-9.65,11.53-15.87,15.73-8.22,5.13-17.26,8.76-25.7,13.48-4.61,2.51-8.77,6.18-11,11.01-1.46,4.45-.55,9.24,1.26,13.44-.24,2.48-4,2.06-5.8,2.99-8.85,2.34-17.95.31-26.65-1.65.79,4.7,5.02,7.4,8.79,9.64-1.38,4.47-4.33,8.38-8.15,11.05-4.26,3.02-6.89,8.26-6.94,13.43,1.21,1.8,3.24,2.82,4.86,4.21,7.14,5.85,14.07,12.16,19.05,20.02,3.46,4.77,5.89,10.16,9.09,15.09,2.59-4.49,2.28-9.98,2.66-14.99.52-7.57-1.61-15.17-.43-22.69,4.78-3.21,9.58-6.77,15.2-8.35-3.42,3.52-7.81,5.96-11.19,9.51ZM222.21,199.28c.59-3.56,1.39-7.11,2.42-10.65l.46-1.59,1.59-.46c4.83-1.4,9.69-2.4,14.56-2.99h.01c1.39-.17,2.76-.31,4.15-.41,2.16-.17,4.32-.25,6.48-.25s4.32.08,6.48.25c1.39.1,2.76.24,4.15.41h.01c4.87.59,9.73,1.59,14.56,2.99l1.59.46.46,1.59c1.04,3.59,1.86,7.2,2.45,10.81,2.67.18,5.34.4,8.01.65.47,1.31.88,2.64,1.22,4-2.88-.17-5.76-.32-8.64-.44.79,6.78.79,13.58,0,20.36,2.88-.12,5.76-.27,8.64-.44-.34,1.36-.75,2.69-1.22,4-2.67.25-5.34.47-8.01.65-.59,3.61-1.41,7.22-2.45,10.81l-.46,1.59-1.59.45c-4.48,1.3-8.99,2.26-13.5,2.86-1.73.24-3.46.42-5.19.55-2.17.17-4.34.25-6.51.25s-4.34-.08-6.51-.25c-1.73-.13-3.46-.31-5.19-.55-4.51-.6-9.02-1.56-13.5-2.86l-1.59-.45-.46-1.59c-1.03-3.54-1.83-7.09-2.42-10.65-2.65-.17-5.31-.37-7.96-.59-.49-1.33-.92-2.7-1.27-4.09,2.88.16,5.75.3,8.62.41-.8-6.85-.8-13.71,0-20.56-2.87.11-5.74.25-8.62.41.35-1.39.78-2.76,1.27-4.09,2.65-.22,5.31-.42,7.96-.59ZM254.27,352.94c-3.13-2.14-4.19-5.93-5.96-9.08-1.85-4.04-4.42-7.67-7-11.26,2.02-1.22,4.33-2.1,6.68-2.1.81,0,1.62.11,2.42.33,1.31,1.15,1.57,2.98,1.89,4.6.91,5.8,2.05,11.61,1.97,17.51ZM287.63,284.4c-4.9,3.11-10.01,6.58-16.02,6.8-4.36.47-8.07-4.78-6.09-8.72,2.55-7.44,10.15-11.09,16.82-14.09,11.3-4.97,22.1-11.48,30.73-20.4,6.32-7.01,11.95-14.81,15.4-23.65,3.36-7.9,4.32-16.5,5.53-24.92.74-5.02-.52-10.06.07-15.09,4.5,9.65,5.16,20.66,4.85,31.17-.46,12.54-5.73,24.33-12.63,34.61-10.36,13.94-23.91,25.25-38.66,34.29ZM325.71,259.93c-2.92,9.66-4.98,19.77-10.1,28.59-2.55,4.6-6.09,8.53-9.68,12.34-2.17,2.29-4.48,4.57-7.4,5.87,1.14-2.79,3.02-5.17,4.74-7.62,5.56-8.14,9.81-17.21,12.05-26.82,1-4.95,5.6-7.75,8.1-11.83,1.01-1.44,1.68-3.76,3.8-3.76h.03c-.48,1.09-1.09,2.12-1.54,3.23ZM345.39,249.26c-.91,1.94-3.51,1.25-4.66,2.92-2.78,2.81-5.67,6.21-10.01,6.18.88-5.46,5.29-9.26,8.11-13.77,7.16-10.44,11.46-22.51,15.5-34.42.8.85,1.1,1.89,1.23,3s.09,2.27.18,3.34c-.05,11.62-3.78,23.18-10.35,32.75ZM360.74,128.55c2.87-.06,5.74-.01,8.62.15-.12,1.68-.24,3.36-.38,5.04-2.84-.1-5.68-.22-8.51-.32-.21,7.17-.79,14.34-.61,21.52,2.75,1.6,5.66,3.16,7.79,5.59.87,1.49.48,3.26.42,4.89-4.32-2.16-8.17-5.15-12.66-6.99-.12-3.2-.17-6.4-.17-9.6,0-15.52,1.18-31.03,1.2-46.56,4.47.09,8.96.1,13.43.31.08,1.86.13,3.72.17,5.59-3.11.07-6.21-.01-9.3-.15.22,6.84-.54,13.69,0,20.53Z"/>
    </g>
  </g>
</svg>