<?xml version="1.0" encoding="UTF-8"?>
<svg fill="#e8718b" id="Layer_2" data-name="Layer 2" xmlns="http://www.w3.org/2000/svg" viewBox="0 0 296.9 374">
  <defs>
    <style>
      .cls-1 {
        fill:#e8718b;
        fill-rule: evenodd;
      }
    </style>
  </defs>
  <g id="Layer_1-2" data-name="Layer 1">
    <path class="cls-1" d="M295.19,61.7c-1.23-.09-2.44-.18-3.64-.29-1-.09-2-.18-2.98-.28-5.4-.51-10.58-1.23-15.48-2.13-.19-.03-.38-.07-.58-.11-2.3-.43-4.56-.9-6.76-1.43-1.88-.41-3.75-.88-5.61-1.38-.51-.14-1.02-.27-1.52-.42-4.56-1.3-9.03-2.89-13.39-4.76-.37-.15-.72-.31-1.09-.47-1.73-.77-3.46-1.57-5.15-2.43-2.51-1.26-4.95-2.65-7.33-4.15-3.33-2.14-6.5-4.51-9.47-7.13-1.87-1.63-3.63-3.37-5.31-5.19-2.91-3.28-5.56-6.8-7.89-10.53-1.3-2.14-2.48-4.35-3.55-6.61-.3-.66-.58-1.34-.87-2.01-.21-.49-.44-.97-.64-1.47-.03-.07-.05-.14-.08-.2-.44-1.11-.86-2.24-1.25-3.37-.42-1.14-.81-2.32-1.18-3.52-.01-.03-.02-.06-.03-.1-.37-1.22-.71-2.46-1.02-3.72h-103.9c-.21.86-.5,1.8-.72,2.66-.3,1.06-.64,2.11-.98,3.15-.17.51-.34,1.01-.52,1.5-.07.21-.15.41-.22.62-.26.69-.52,1.38-.8,2.07-.21.54-.43,1.08-.65,1.62-.2.45-.38.9-.58,1.34-.19.42-.37.84-.56,1.25-.48,1.03-.98,2.04-1.51,3.05-.02.05-.05.09-.07.14h-.01c-1.43,2.7-3.03,5.3-4.8,7.79-4.03,5.63-8.86,10.61-14.37,14.81-.37.28-.73.57-1.11.85-.21.15-.42.31-.63.46-2.47,1.78-5.03,3.42-7.69,4.9-.05.03-.11.06-.16.1-.94.52-1.89,1.02-2.85,1.5-5.54,2.87-11.62,5.3-18.24,7.31-.29.09-.58.17-.87.26-.82.24-1.65.48-2.48.71-4.26,1.12-8.54,2.09-12.86,2.89-.09.02-.18.04-.27.05-.92.17-1.84.33-2.77.48-5.28.87-10.81,1.53-16.6,1.99-.83.06-1.67.13-2.5.18-.17.02-.29.07-.43.11-.05.02-.1.02-.15.04-.1.04-.18.1-.27.15-.07.05-.14.1-.21.15-.06.06-.12.12-.17.19-.06.08-.11.16-.16.25-.03.07-.07.13-.1.2-.06.16-.1.32-.13.5,0,.02,0,.04,0,.07-.02.19-.03.39-.02.6,0,.06.01.12.01.17.01.17.03.33.06.5.01.09.03.17.05.27.01.04.01.08.02.12.07.43.19.84.36,1.24.08.37.17.74.26,1.1.36,1.63.75,3.25,1.11,4.88l1.12,4.63c.2.83.39,1.66.6,2.49.06.25.13.5.19.75l1.54,6.38c.37,1.46.74,2.89,1.11,4.33.23.93.47,1.87.69,2.8,1.23,4.82,2.52,9.58,3.75,14.33h-.04c.39,1.4.79,2.81,1.19,4.21.26.97.52,1.95.79,2.92l1.09,3.8c.31,1.11.63,2.21.93,3.32.52,1.81,1.05,3.62,1.59,5.43l.49,1.7h.01c.71,2.38,1.43,4.75,2.15,7.13,1.4,4.75,2.88,9.5,4.4,14.26.75,2.25,1.5,4.5,2.25,6.74.04.13.08.25.12.38.79,2.36,1.59,4.72,2.38,7.06h.02c.21.6.42,1.19.63,1.79,1.42,4.2,2.88,8.37,4.39,12.47h-.02c.7,1.85,1.4,3.68,2.1,5.51.2.51.38,1.03.58,1.54.67,1.76,1.35,3.51,2.03,5.27.23.59.46,1.19.69,1.79h0c.1.25.2.5.3.75,1.75,4.5,3.64,9,5.54,13.43,0,0,0,.01.01.01,1,2.38,2.01,4.73,3.01,7.05.67,1.55,1.36,3.07,2.05,4.6.37.84.75,1.69,1.12,2.53,2.16,4.75,4.39,9.43,6.7,14.11h-.05c2.37,4.75,4.82,9.5,7.27,14.11h.06c.46.84.93,1.66,1.38,2.5.83,1.52,1.66,3.06,2.5,4.56h.02s.01.02.02.04h-.06c1.45,2.58,2.94,5.14,4.44,7.69,1.24,2.13,2.5,4.26,3.79,6.37.01.02.03.04.04.06,1.2,1.98,2.44,3.94,3.7,5.89,1.72,2.7,3.47,5.39,5.26,8.05.39.57.79,1.13,1.18,1.7,2.81,4.18,5.72,8.27,8.68,12.24h.02c.59.8,1.18,1.59,1.78,2.38-1.64,5.16-2.53,10.66-2.55,16.37v.14c0,3.49.32,6.9.94,10.21,2.08,18.04,13.62,33.2,29.54,40.38,7.43,3.61,15.66,5.57,24.12,5.58,30.63-.16,55.34-25.12,55.18-55.76-.03-6.6-1.26-13.08-3.54-19.16,3.61-4.85,7.1-9.82,10.5-14.9.17-.25.34-.51.51-.77,1.36-2.04,2.7-4.1,4.03-6.18.14-.22.28-.44.41-.65,2.85-4.5,5.63-9.07,8.34-13.73.32-.55.64-1.11.96-1.67.98-1.7,1.94-3.41,2.9-5.13.4-.72.81-1.44,1.2-2.17.22-.39.44-.77.65-1.16.34-.63.67-1.26,1-1.89,4.78-8.84,9.35-17.95,13.69-27.34,1.91-4.18,3.78-8.42,5.61-12.69,1.01-2.34,2-4.68,2.97-7.03.54-1.31,1.09-2.61,1.62-3.93.01-.01.01-.03.02-.04.1-.25.2-.51.31-.77,1.21-2.98,2.42-5.97,3.59-9,.99-2.54,1.95-5.11,2.92-7.69.43-1.17.89-2.32,1.32-3.49.91-2.49,1.8-4.99,2.69-7.5,1.39-3.9,2.76-7.82,4.11-11.78l-.09.11s.02-.06.03-.1l.03-.03c3.89-11.57,7.56-23.39,11.03-35.47l-.05.07s.01-.05.02-.07v-.02c1.6-5.45,3.12-10.96,4.61-16.53.01-.01.01-.02.01-.03,2.52-9.35,4.91-18.78,7.24-28.4.07-.25.13-.51.19-.76.21-.87.42-1.73.63-2.6.09-.4.19-.8.29-1.2.26-1.09.52-2.18.78-3.27.08-.35.16-.71.24-1.06.31-1.31.63-2.63.93-3.95.02-.06.04-.12.05-.17.69-1.92.96-4.25-1.21-4.39ZM197.64,55.51l.79-8.49.79-8.5.72-8.57.79-8.49.29-3.32.43,1.01,1.8,3.24,1.87,3.17,2.09,3.02,2.16,2.88,2.31,2.81,2.52,2.67,2.59,2.59,2.73,2.45,2.88,2.3,3.03,2.23,3.09,2.09,3.24,1.94,3.39,1.88.57.36-.79.07-3.45.36-3.46.43-3.53.36-3.6.36-3.6.36-3.67.36-3.67.29-3.75.29-3.74.28-3.82.29-1.08.07.08-.79ZM187.48,157.18l.94-8.43.86-8.42.87-8.5.86-8.42.65-6.41,2.37-.14,7.64-.58,3.74-.29,3.74-.36,3.68-.29,3.6-.36,3.6-.36,3.6-.36,3.52-.43,3.46-.43,3.46-.36.07-.07-1.3,7.13-1.72,9-1.88,8.92-1.87,8.86-1.94,8.93-.87,3.6-.64.07-3.46.43-3.46.36-3.52.36-3.61.36-3.6.36-3.59.36-3.75.29-3.67.29-3.82.29-3.81.28-.72.08.57-5.76ZM175.96,259.2l.15-1.3.07-.86.12-.89.02-.19.29-2.16.22-2.16.11-.81.03-.27.15-1.01v-.07l.14-1.08.22-2.16.14-1.08h0s.14-1.08.14-1.08l.22-2.23.14-.72v-.36l.16-1.22.2-2.02.29-2.16.22-2.16.07-.43.07-.65.09-.69.05-.39.22-2.16.29-2.16.21-2.16.08-.22.07-.86.22-2.16.28-2.16.22-1.8,1.8-.15,3.89-.28,3.8-.29h.01l.51-.07.85-.07,2.03-.22h.43l2.37-.29,1.44-.07,1.37-.22,2.38-.21.36-.08,3.31-.36,2.09-.28,1.58-.15,1.08-.14-.57,2.01-.15.51v.07l-.12.37-.02.13-.65,2.02-.29,1.01-.61,1.96-.14.5-.47,1.71-.29.87-.36,1.15-.65,2.09-.08.24-.21.77-.64,2.01-.56,1.79-.16.59-.22.72-.33.93-.03.08-.65,2.08-.65,2.02-.6,1.9-.26.91-.43,1.29-.36,1.01-.65,2.02-.25.72-.11.36-.65,2.01-.26.71-.1.3-.07.15-.29.86-.64,2.02-.34.97-.03.11-.11.32-.24.68-.58,1.73-.79.07-3.75.51-3.74.43-.58.07-.54.05-2.26.24h-.37l-3.81.36-1.66.14-2.15.15h-.01l-.86.07.14-1.08ZM173.77,272.09l.6-.63c12.76,7.55,22.03,20.35,24.84,35.43l-.22-.39-1-1.65-1-1.59-1-1.58-1.08-1.58-1.08-1.52-1.08-1.51-1.15-1.51-1.08-1.51-1.23-1.44-1.15-1.44-1.22-1.37-1.23-1.37-1.29-1.37-1.23-1.36-1.29-1.3-1.37-1.3-1.37-1.29-1.37-1.23-1.37-1.22-1.41-1.22-1.44-1.23-1.44-1.15-1-.72.14-.14,1.22-1.37,1.3-1.44ZM171.9,270.36l-1.3,1.44-1.29,1.44-1.3,1.51-1.15,1.44-1.15,1.51-1.16,1.52-1.08,1.51-1,1.58-1,1.51-1,1.59-.94,1.58-.86,1.51-.86,1.59-.87,1.58-.79,1.66-.79,1.58-.72,1.59-.72,1.65-.65,1.59-.72,1.65-.65,1.66-.65,1.58-.57,1.66-.58,1.65-.57,1.66-.58,1.66-.5,1.65-.58,1.59-.29,1.08-1,.43-1.51.57-1.58.51-1.66.5-1.58.43-1.73.36-1.66.36-1.72.29-1.8.29-1.73.22-1.8.21-1.8.15h-1.22l.21-1.52.36-2.3.43-2.3.51-2.24.43-2.23.58-2.16.57-2.09.58-2.08.57-2.09.72-2,.65-2,.72-1.95.72-1.94.79-1.87.8-1.88.86-1.87.86-1.8.87-1.8.97-1.78.94-1.8.94-1.65,1-1.73,1-1.66,1.08-1.65,1-1.66,1.08-1.58,1.15-1.59,1.08-1.58,1.15-1.51,1.04-1.34c7.78.4,15.11,2.5,21.63,5.93l-.17.18ZM148.46,172.32h.14c4.99-.07,9.96.71,14.69,2.3l-2.59,13.1c-3.92-1.17-8-1.75-12.1-1.72h-.14l-.05-.04c-2.38.08-4.14.71-4.24,2.08-.1,1.37,1.26,2.38,4,2.88l.29.08.02.02h.12c3.15.53,6.26,1.3,9.29,2.3,10.48,3.96,7.85,15.05,6.48,19.73-1.84,5.9-7.2,8.93-15.84,9.21h-.34c-5.45,0-10.89-.6-16.2-1.8l2.81-14.04c6.25,1.44,10.71,1.95,13.66,1.66h.14c2.16-.22,3.46-.94,3.82-2.16.43-1.58-1.37-2.66-3.82-3.1h-.14v-.03l-.04.03c-.81-.14-1.63-.21-2.45-.21-5.04,0-10.51-2.45-12.46-4.54-6.09-6.69-4.03-24.98,14.91-25.77v.06l.04-.04ZM147.24,264.19l-1.01,1.4-1.16,1.58-1.15,1.66-1.08,1.65-1.08,1.66-1.08,1.66-1,1.72-1,1.73-1,1.73-.94,1.8-.93,1.8-.94,1.87-.86,1.8-.87,2-.79,1.87-.79,1.94-.79,2-.72,2-.72,2-.65,2.09-.65,2.09-.65,2.16-.57,2.16-.51,2.16-.5,2.3-.51,2.23-.43,2.38-.36,2.3-.31,2.07h-3.74l-1.87-.07-1.87-.07-2-.08-1.94-.14-1.87-.22-1.95-.14-1.94-.29-1.95-.21-1.87-.36-.86-.08.21-1.29.36-1.8.36-1.73.36-1.8.37-1.72.44-1.8.43-1.73.43-1.8.5-1.72.51-1.8.5-1.73.51-1.73.57-1.73.58-1.73.57-1.65.58-1.66.65-1.65.65-1.66.64-1.58.72-1.59.65-1.58.79-1.51.72-1.52.72-1.44.84-1.39.79-1.36.79-1.37.64-.97c8.28-5.66,18.27-9.01,29.03-9.11ZM128.52,34.85h13.6v15.77h11.74v-15.77h13.61v45.93h-13.61v-16.34h-11.74v16.34h-13.6v-45.93ZM127.8,104.62h13.6l7.06,10.58.14.29,6.2,9.36v-20.02h13.68v45.94h-13.68l-6.2-9.72-.14-.29-7.06-10.8v20.59h-13.6v-45.93ZM113.25,217.22l2.02.15.14.79.22,1.8.07.95.21,1.86.22,1.58.03.44.19,1.58.21,1.87.22,1.8.21,1.87.08.87.14.93.22,1.87.21,1.8.1,1.15.19,1.59.14,1.01.08.86.21,1.8.22,1.87.22,1.8.21,1.8v.29l.22,1.59.21,1.8.22,1.87.22,1.8v.09s.14.84.14.84v.36l.22,1.44.07.94-1.01-.07-3.82-.29-3.81-.36-3.82-.36-3.74-.43-2.38-.29-1.3-.22-.64-.07-.22-.65-.25-.8-.04-.13-.65-1.8-.32-1.06-.61-1.68-.15-.57-.14-.36-.29-.94-.36-1.14-.57-1.6-.58-1.8-.17-.56-.12-.37-.57-1.8-.07-.07-.23-.71-.06-.16-.25-.8-.04-.13-.29-.94-.57-1.8-.33-1.07-.54-1.67-.43-1.29-.36-1.25-.36-1.13-.25-.8-.04-.13-.58-1.8-.57-1.88-.51-1.65-.26-1-.08-.28-.52-1.6-.06-.24-.23-.7-.44-1.64-.35-1.09-.2-.68-.09-.26-.36-1.15-.43-1.59-.29-.93.87.14,3.67.43,3.02.36.65.08,3.74.43,3.82.36h.51l3.31.36,3.81.29,3.89.28ZM104.47,117l.65,6.41.86,8.42.86,8.5.87,8.42.93,8.43.58,5.76-.87-.08-3.81-.28-3.82-.29-3.74-.29-3.67-.29-3.6-.36-7.2-.72-3.53-.36-3.46-.36-3.53-.43-.43-.07-.79-3.6-2.01-8.93-1.88-8.86-1.87-8.92-1.73-9-1.29-7.06,3.38.36,3.46.43,3.52.43,3.61.36,3.59.36,3.61.36,3.67.29,3.74.36,3.75.29,3.81.29,3.82.29,2.52.14ZM61.7,52.42l3.31-1.88,3.31-1.94,3.1-2.09,3.02-2.23,2.88-2.3,2.74-2.45,2.59-2.59,2.45-2.67,2.37-2.81,2.16-2.88,2.09-3.02,1.88-3.17,1.65-3.02.22,2.09.72,8.49.79,8.57.72,8.5.79,8.49.07.79-1.22-.07-3.82-.29-3.81-.28-3.67-.29-3.68-.29-3.67-.36-3.6-.36-3.6-.36-3.53-.36-3.45-.43-3.46-.36h-.14l.79-.43ZM29.95,102.6h-.07l-3.03-.5-1.87-.29-1.3-.22-2.01-.36-1.08-.21-.58-.08-.53-.1-1.05-.18-.94-.22-1.74-.32-1.07-.18-.66-2.4-.49-1.71v-.07l-.36-1.51-.79-3.03-.79-3.09-.65-2.52-.5-2.09-.5-2.12-.66-2.56-.26-1.11-.1-.4-.17-.79-.19-.8-.07-.36-.29-1.15-.33-1.47-.03-.11-.79-3.1-.34-1.49-.02-.09-.21-.94.57-.07,1.88-.19,3.02-.31,2.3-.29.34-.04,1.89-.25h.22l3.26-.49,1.42-.23,1.94-.36,2.6-.43,2.16-.43,2.3-.44.14-.07,2-.45.52-.12,1.66-.36.86-.29,3.31-.87,4.11-1.22,1.44-.46,2.52-.84.79-.28.36,2.73.11.88.11.85.43,3.38v.08l.29,1.65.21,1.68.51,3.36.18,1.55.03.18.08.72.43,2.59.5,3.39.5,3.24.29,1.72.5,3.29.29,1.75.36,2.38.44,2.59.05.28.24,1.38.04.23.24,1.42.51,3.17.29,1.73.28,1.66-1.65-.22-.8-.14-2.14-.3-1.17-.14-1.01-.14-2.3-.36-2.74-.36-.5-.14-1.15-.15-2.09-.29-1.22-.21-1.95-.29-2.87-.47-.29-.03-1.59-.29-1.58-.29ZM76.17,207.43l-.31-.06-.62-.08-1.88-.29-1.08-.22-1.94-.28-.43-.08-.51-.07-.11-.02-.82-.12-1.74-.32-.28-.04-1.87-.29-1.51-.29-1.44-.21-1.95-.36-.93-.15-1.95-.36-.43-.07-1.51-.29-1.8-.36h-.15l-1.87-.36-1.22-.21-1.23-.22-1.29-3.1-.15-.43-1.51-3.74-.08-.19-.78-1.9-1.15-2.95-.51-1.3-1.55-4.05-.97-2.43-.36-1.01-1.29-3.45-1.66-4.54-.36-1.01-1.29-3.6-1.66-4.68-.29-.93-1.29-3.89,1.94.29.65.14h.28l1.95.36,1.01.15,1.87.28,1.3.22,1.65.29,1.59.21,1.07.18,1.23.18.93.15,1.01.14,1.88.29.36.07.64.07,1.95.29.72.15h.21l.84.12.17.02.85.13h.09s1.15.16,1.15.16l1.8.21,1.58.22.8.14.75.11,1.69.18.15.07.86.08,1.59.21.28,1.08v.22l1.52,6.19.64,2.73h0s.15.44.15.44l1.51,6.12.57,2.23.89,3.38.91,3.39.51,2.01.79,3.06.53,1.93,1.06,3.8,1,3.67.8,2.88-.94-.14-.36-.08-.65-.07ZM97.05,291.38l-.72-1.08-1.51-2.08-1.51-2.16-.22-.36-.5-.72-1.52-2.24-.72-1.08-1.51-2.23-.5-.79-.22-.29-1.51-2.3-1.03-1.7-1.2-1.83-.72-1.15-1.2-1.98-1.03-1.62-1.44-2.45-.87-1.37-.65-1.08-1.43-2.52.64.15h.15l.67.11.19.03.43.08.36.06.93.17.87.12,1.44.29.37.07.43.07,1.36.22h.22l.63.11.23.03,1.59.29,1,.15.65.07.68.12.11.02.91.17,1.33.19h.21l.87.16,1.58.2.72.15.07.14,1.37,3.96,1.01,2.95.36.94,1.37,3.81.29.82.43,1.13.65,1.87.72,1.94,1.36,3.75.72,1.87.27.75c-1.68,2.46-3.15,5.06-4.4,7.78l-1.19-1.59-.65-.82-.94-1.3ZM95.36,316.56v-.14c.04-15.46,6.78-29.34,17.46-38.89l-.62,1.19-.72,1.59-.79,1.51-.72,1.58-.65,1.66-.72,1.65-.65,1.66-.65,1.66-.64,1.72-.58,1.73-.58,1.73-.57,1.8-.51,1.73-.5,1.8-.5,1.73-.51,1.8-.43,1.8-.43,1.8-.43,1.8-.44,1.8-.36,1.8-.36,1.8-.28,1.72-.32,1.42-.51-.14-1.87-.36-1.94-.36-.17-.04c0-.18-.01-.36-.01-.54ZM101.63,341.47c-3.54-6.55-5.71-13.94-6.16-21.79l1.53.32,1.94.36,1.95.36,1.94.29,1.94.36,2,.21,1.94.29,2,.22,2,.14,1.95.14,1.94.15,2,.07,1.94.07h1.94l1.88-.07,1.94-.07,1.87-.07,1.87-.15,1.88-.21,1.8-.22,1.8-.29,1.8-.29,1.8-.36,1.72-.43,1.73-.43,1.66-.5,1.65-.58,1.66-.58,1.37-.57.79.72,1.08,1,1,1.08,1.08,1.15,1.08,1.15.93,1.22,1,1.23,1.08,1.29,1,1.37,1,1.37.93,1.37,1,1.44,1,1.51.79,1.3-1.58.64-1.87.8-1.8.64-1.88.65-1.87.58-1.94.57-2,.51-1.94.43-2,.43-2,.36-2,.29-2.09.29-2.08.29-2.09.21-2.09.15-2.16.14-2.16.14-2.16.08-2.16.07h-6.7l-2.23-.07-2.23-.08-2.3-.07-2.24-.14-2.3-.15-2.3-.14-2.31-.14-.56-.05ZM127.82,364.06l-2.07.07c-9.37-4.33-17.24-11.34-22.62-20.06l1.15.07,2.38.22,2.3.07,2.3.14,2.24.15,2.3.07h2.3l2.24.07h2.23l2.23-.07h2.18l2.23-.15,2.16-.07,2.24-.14,2.16-.22,2.08-.21,2.16-.29,2.09-.29,2.09-.29,2.09-.43,2.09-.43,2-.43,2-.51,1.94-.57,1.95-.58,1.94-.72,1.87-.65,1.91-.81,1.95-.86.72,1.22.93,1.58.94,1.73.86,1.66.87,1.8.86,1.8.87,1.8.86,1.87.79,1.94.87,1.95.72,1.87-1.08.43-1.95.65-1.94.65-2,.65-2,.57-2.09.58-2.16.5-2.16.51-2.16.43-2.16.36-2.23.43-2.24.29-2.3.36-2.3.21-2.38.29-2.38.22-2.3.14-2.38.15-2.44.14-2.38.07-2.38.07ZM147.6,368.94c-5.5,0-10.8-.87-15.78-2.45l.89-.05,2.45-.07,2.37-.15,2.38-.21,2.45-.22,2.3-.21,2.38-.29,2.37-.36,2.31-.29,2.23-.43,2.23-.36,2.23-.51,2.16-.43,2.16-.57,2.16-.58,2.09-.58,2.09-.64,2-.65,1.94-.72,1.08-.43.72,1.87.23.66c-7.99,4.89-17.38,7.7-27.44,7.67ZM177.25,359.83l-.03-.08-.72-2.08-.8-2.09-.86-2-.79-2-.87-1.95-.86-1.87-.86-1.87-.87-1.87-.86-1.8-.94-1.73-.93-1.73-.94-1.66-1-1.65-.93-1.59-1-1.58-.94-1.51-1.08-1.44-1-1.44-1-1.44-1-1.37-1.08-1.3-1.08-1.29-1.08-1.23-1-1.22-1.08-1.15-1.08-1.15-1.15-1.08-1.15-1.08.07-.29.5-1.66.58-1.58.5-1.66.58-1.58.57-1.66.65-1.58.58-1.59.57-1.65.65-1.59.72-1.58.72-1.58.22-.44.57.36,1.3,1,1.3,1,1.36,1.08,1.3,1.15,1.3,1.15,1.29,1.16,1.23,1.29,1.29,1.23,1.3,1.36,1.22,1.37,1.23,1.44,1.22,1.44,1.3,1.59,1.22,1.51,1.15,1.65,1.23,1.66,1.22,1.8,1.15,1.73,1.15,1.87,1.23,1.87,1.15,2,1.15,2,1.08,2.09,1.15,2.09,1.08,2.23,1.16,2.23,1.08,2.31,1.08,2.45.48,1.08c-3.85,6.14-8.93,11.42-14.9,15.5ZM193.74,341.65l-.84-1.86-1.08-2.38-1.15-2.3-1.15-2.23-1.08-2.16-1.23-2.16-1.15-2-1.15-2-1.23-1.95-1.15-1.87-1.22-1.8-1.23-1.8-1.22-1.73-1.22-1.65-1.3-1.59-1.34-1.56-1.3-1.51-1.3-1.44-1.29-1.44-1.3-1.37-1.29-1.37-1.3-1.22-1.22-1.26-1.36-1.22-1.37-1.15-1.3-1.08-1.37-1.08-1.36-1-1-.72.21-.36.8-1.51.79-1.59.86-1.51.87-1.58.93-1.52.94-1.51.93-1.51,1-1.44,1.08-1.51,1.08-1.44,1.15-1.51.65-.8,1,.8,1.44,1.15,1.44,1.15,1.37,1.15,1.37,1.23,1.29,1.22,1.37,1.22,1.3,1.3,1.22,1.3,1.3,1.29,1.22,1.3,1.15,1.37,1.23,1.36,1.15,1.44,1.15,1.37,1.08,1.44,1.08,1.51,1.08,1.44,1.08,1.52,1,1.58,1,1.51,1,1.59.94,1.58,1,1.66.86,1.58.94,1.66.45.89c.06,1.04.1,2.08.09,3.13-.02,9.04-2.34,17.54-6.39,24.95ZM219.24,261.29l-.64,1.14h-.01s-.65,1.16-.65,1.16l-.22.36-1.15,1.87-1.37,2.24-1.19,1.94-.82,1.37-.79,1.22-1.44,2.23-1.22,1.9-.87,1.42-.36.5-.43.65-1.44,2.16-1.52,2.23-.72,1.08-.65.94-.14.21-1.51,2.16-1.58,2.23-1.43,2.03-.23.35-.76.98c-1.52-3.05-3.31-5.93-5.34-8.62l.36-.99.48-1.38.16-.41.27-.74.77-2.01.17-.51.86-2.3.87-2.45.86-2.38.2-.55.23-.67.08-.22.79-2.23.79-2.38.38-1.07.05-.15.44-1.3,3.23-.43,3.68-.57,3.67-.58.65-.14,2.95-.51,2.52-.43,1.08-.14,1.58-.36-.64,1.15ZM263.66,161.86l-.41,1.24-.09.27-.73,2.09-.27.75-.95,2.7-1.29,3.67-1.91,5.12-1.41,3.88-1.51,3.96-1.87,4.83-1.14,2.77-1.81,4.57-.58,1.44h0s-.65,1.51-.65,1.51l-.79,1.8-.29.08-1.8.36-1.21.2-1.09.23-1.01.14-1.01.22-1.9.34-.4.09-.72.14-2.02.36-.57.08-.43.07-2.02.36-.94.14-1.08.22-1.23.18-1.07.18-.72.14-.8.11-.21.04-1.65.28-.37.08-1.94.28-1.22.22-1.29.16-1.52.27-.65.07-.36.08-.72.07,1.8-6.48,1.73-6.41.65-2.38.72-2.73,1.58-6.05,2.23-8.78,1.66-6.92.5-2.01.29-1.3.43-.07.25-.03.76-.11.87-.08.14-.07.56-.06.45-.08,1.58-.17.65-.12,1.8-.22.47-.06.54-.08.57-.07.44-.07.33-.05.67-.1.18-.02.83-.12.86-.07.15-.08,1.14-.16,1.88-.27h.15l.86-.14.12-.02.82-.13,1.44-.21,1.58-.22,1.66-.29.36-.07,1.43-.21,1.45-.22.44-.05,1.72-.31,1-.14,1.01-.15,2.02-.36h.14l1.88-.36,1.29-.21.43-.08-.86,2.6ZM290.23,67.39l-.41,1.74-.67,2.87-.36,1.5h0s-.43,1.88-.43,1.88l-.65,2.67-.72,3.02-.72,3.03-.43,1.51h0s-.72,2.95-.72,2.95l-.06.22-.31,1.29-.79,3.03-.04.18-.32,1.33-.29,1.15-.5,1.8-.36,1.51-.21.72-.73.15-1.2.18-1.89.32-.5.14-2.53.44-1.21.2-1.88.37-1.3.22h-.04s-1.68.29-1.68.29h-.15l-1.58.28-1.51.22-.22.07-2.95.51-2.14.33-1.03.17-.86.14-2.38.36-2.88.44h-.29l-1.51.28-1.73.22-1.8.29-1.51.21-2.02.29-1.29.15-2.31.36.34-1.89.24-1.5.22-1.44.23-1.29.05-.29.24-1.3.05-.29.5-3.24.22-1.22h0s.09-.47.09-.47l.49-3.13.5-3.17.36-2.37.16-.97.46-2.92.25-1.87.5-3.24.07-.22.15-1.37.5-3.31.43-3.24.22-1.22v-.44l.5-3.31.43-3.24.15-1.12v-.03l1.44.5,2.88.94,1.08.36,4.1,1.22,3.96,1.08.22.08,2.59.57,1.73.43,1.01.15,3.45.72,3.37.61,1.17.18,2.37.36,2.31.36h.14l1.5.19.88.1,2.23.29,2.52.28,2.38.22.5.07-.08.35h.01Z"/>
  </g>
</svg>