<?xml version="1.0" encoding="UTF-8"?>
<svg fill="#e8718b" id="Layer_2" data-name="Layer 2" xmlns="http://www.w3.org/2000/svg" viewBox="0 0 500 500">
  <defs>
    <style>
      .cls-1 {
        fill:#e8718b;
      }
    </style>
  </defs>
  <g id="Layer_1-2" data-name="Layer 1">
    <g>
      <path class="cls-1" d="M250,0C111.93,0,0,111.93,0,250s111.93,250,250,250,250-111.93,250-250S388.07,0,250,0ZM417.41,417.41c-21.75,21.74-47.07,38.82-75.26,50.74-29.18,12.34-60.18,18.6-92.15,18.6s-62.97-6.26-92.15-18.6c-28.19-11.92-53.51-29-75.26-50.74-21.74-21.75-38.82-47.07-50.74-75.26-12.34-29.18-18.6-60.18-18.6-92.15s6.26-62.97,18.6-92.15c11.92-28.19,29-53.51,50.74-75.26,21.75-21.74,47.07-38.82,75.26-50.74,29.18-12.34,60.18-18.6,92.15-18.6,15.98,0,31.73,1.57,47.12,4.67,15.4,3.11,30.44,7.76,45.03,13.93,28.19,11.92,53.51,29,75.26,50.74,21.74,21.75,38.82,47.07,50.74,75.26,12.34,29.18,18.6,60.18,18.6,92.15s-6.26,62.97-18.6,92.15c-11.92,28.19-29,53.51-50.74,75.26Z"/>
      <path class="cls-1" d="M215.65,310.43l.12.05h0s29.07-.01,29.07-.01c21.42,0,38.74-2.97,38.76-2.97l.19-.03.13-.12c.1-.08,7.07-6.16,12.35-23.95l.07-.21-.08-.2c-.97-2.59-3-4.55-3.03-4.59l-.19-.19h-3.73v-59.85c-.01-4.76,1.3-8.61,1.29-8.62l.29-.87h-18.5l-2.76,4.13.86.25c5.73,1.71,9.54,3.15,11.35,3.88-2.02,1.19-4,2.48-5.91,3.85-3.63,2.66-7.51,5.97-8.39,9.29l-.18.71.72.11c1.09.15,2.19.23,3.29.23,5.5-.01,10.71-1.76,13.52-2.89v2.69c-5.91.45-10.61,6.29-13.95,14.04-3.46,8.08-5.46,18.41-5.46,27.65-.01,1.9.09,3.8.28,5.69l.06.66.66-.07c4.47-.46,7.76-.62,10.18-.62,3.07,0,4.73.27,5.57.51.11.03.23.07.34.11-2.44,3.44-10.31,6.81-22.11,9.01l-1.64-77.24h-.65c-4.12,0-9.23.96-9.25.96l-.54.1v.55c-.02,2.1.6,3.43,1.55,4.45.83.91,1.84,1.62,2.93,2.78-5.29,6.2-9.51,12.11-9.51,12.11l-.72,1.01,1.23.04c2.96.11,3.58.58,5.34.94-5.06,9.7-13.59,29.01-13.93,49.92v.72s.71-.05.71-.05c3.53-.23,6.39-.34,8.67-.34,3.66-.01,5.88.31,7.04.86,1.14.57,1.35,1.11,1.4,2.28v2.1c-5.93.81-12.6,1.39-19.89,1.69-2.95-3.72-4.85-9.66-4.85-16.38-.03-5.91,3.05-8.96,6.89-21.4,2.37-7.76,2.09-18.75,6.49-36.15l.02-.08v-.08c0-2.63-1.08-4.67-1.1-4.72l-.19-.36h-.4c-8.47,0-12.69-.01-15.26.36-2.57.33-3.58,1.24-4.94,2.63l-.67.67.86.4c3.76,1.75,5.92,3.23,7.12,4.25.6.51.96.9,1.17,1.16.04.05.08.1.12.15-.28.94-1.98,5.07-11.67,10.03l-1.44.74,1.54.49c2.36.73,4.69.86,6.77.86,1.12,0,2.18-.04,3.13-.04,1.46-.01,2.63.11,3.42.46-14.44,10.06-25.42,19.37-25.4,38.94,0,3.42.33,7.14,1.03,11.23l.1.59.6-.04c2.86-.2,5.49-.39,7.77-.39,2.63-.01,4.76.27,6.12,1.03,1.34.77,2.06,1.86,2.09,4.04,0,.55-.06,1.16-.17,1.85h-.96c-5.24,0-10.72-.14-16.41-.42l-.52-.02-.15.5c-.45,1.5-.65,2.93-.65,4.26.09,10.45,11.97,14.85,11.99,14.89ZM205.44,292.15c5.32.26,10.63.39,15.95.39h2.06l.11-.54c.19-.96.28-1.83.28-2.63.03-2.49-1.02-4.26-2.77-5.2-1.74-.94-4.04-1.19-6.76-1.2-2.18,0-4.64.18-7.26.35-.62-3.79-.91-7.24-.91-10.41.02-19.32,10.78-28.07,25.61-38.4l.66-.45-.57-.56c-1.24-1.2-3.03-1.3-5.05-1.31-.98,0-2.03.03-3.13.03-1.52,0-3.12-.07-4.74-.39,10.17-5.57,10.88-10.2,10.9-10.45l.03-.19-.09-.18c-.09-.18-1.37-2.58-8.28-5.93.96-.92,1.56-1.3,3.51-1.6,2.33-.34,6.47-.35,14.65-.35.11.28.22.55.31.84.23.73.47,1.74.48,2.84-4.41,17.47-4.17,28.62-6.45,36-3.75,12.26-6.92,15.29-6.95,21.79,0,7.12,2.02,13.45,5.36,17.48l.21.25h.33c7.68-.32,14.7-.94,20.91-1.8l.58-.08v-3.26c.04-1.43-.6-2.8-2.17-3.48-1.53-.7-3.86-.98-7.59-.99-2.17,0-4.82.11-8.04.31.51-20.88,9.29-40.22,14.18-49.41l.45-.83-.94-.13c-1.93-.26-2.61-.82-5.17-1.05,1.45-1.97,4.98-6.69,9.12-11.49l.37-.44-.38-.43c-1.36-1.53-2.57-2.37-3.34-3.22-.68-.77-1.1-1.5-1.19-3,1.33-.23,4.79-.77,7.8-.84l1.65,77.5.76-.14c12.99-2.41,21.53-5.87,24.14-10.35l.19-.33-.19-.33c-.32-.41-1.13-1.36-7.41-1.39-2.35,0-5.48.15-9.65.56-.14-1.58-.2-3.22-.2-4.89,0-9.05,1.97-19.26,5.36-27.13,3.37-7.91,8.15-13.31,13.39-13.27h.66v-5.99l-.92.4c-2.36,1.02-8.06,3.17-13.92,3.16-.77.01-1.55-.03-2.31-.11,1.04-2.48,4.4-5.5,7.65-7.82,3.56-2.59,6.94-4.44,6.95-4.44l1.17-.65-1.22-.54s-4.1-1.82-11.89-4.19l1.37-2.05h15.99c-.4,1.45-1.1,4.55-1.11,8.17v61.18h4.51c.3.32.59.66.86,1.01.54.71,1.18,1.67,1.59,2.69-2.59,8.66-5.57,14.45-7.9,18.06-1.17,1.82-2.18,3.09-2.89,3.9-.47.55-.8.87-.97,1.03-.91.15-4.96.79-11.07,1.44-6.97.74-16.62,1.48-27.26,1.48h-28.83c-.23-.1-.82-.35-1.63-.77-3.2-1.67-9.43-5.89-9.4-12.84,0-1.14.16-2.28.45-3.39Z"/>
      <circle class="cls-1" cx="250" cy="457.17" r="16.78"/>
      <path class="cls-1" d="M412.99,250c0-90.01-72.98-162.99-162.99-162.99S87.01,159.99,87.01,250s72.98,162.99,162.99,162.99,162.99-72.98,162.99-162.99ZM375.75,208.24c15.42,42.42,10.88,67.78-14.97,90.83-2.47-44.72,10.88-69.16,14.97-90.83ZM361.18,220.63c-14.96-4.27-27.07-30.4-27.07-73.62,23.27,23.27,31.35,44.17,27.07,73.62ZM335.83,216.85c15.88,19.54,23.58,27.92,20.87,61.42-10.89-6.05-26.31-35.83-20.87-61.42ZM250,105.46c23.72,0,42.94,19.23,42.94,42.94s-19.22,42.95-42.94,42.95-42.94-19.23-42.94-42.95,19.22-42.94,42.94-42.94ZM143.3,278.27c-2.71-33.5,4.99-41.88,20.87-61.42,5.44,25.59-9.98,55.37-20.87,61.42ZM165.89,147.01c0,43.22-12.11,69.35-27.07,73.62-4.28-29.45,3.8-50.35,27.07-73.62ZM124.25,208.24c4.09,21.67,17.44,46.11,14.97,90.83-25.85-23.05-30.39-48.41-14.97-90.83ZM119.72,293.05c15.42,15.42,25.85,15.42,34.02,54.88-14.06-11.22-28.12-21.77-34.02-54.88ZM250,388.51c-20.15,0-38.17-8.96-50.36-23.09h14.34l3.12-2.92h14.02l5.84,2.92h26.08l5.84-2.92h14.03l3.11,2.92h14.34c-12.18,14.14-30.21,23.09-50.36,23.09ZM312.78,343.89h-5.61s-1.36,1.95-1.36,1.95l-1.95,2.79h-15.68l-3.31-4.73h0s-14.86-.01-14.86-.01l-6.19,4.74h-27.64l-6.19-4.74h-14.87s-3.3,4.74-3.3,4.74h-15.68l-3.31-4.73h0s-5.61-.01-5.61-.01c-2.08-6-3.3-12.26-3.6-18.6h5.98l3.49,6.54h0s16.58.01,16.58.01h0s3.49-6.55,3.49-6.55h15.7l6.54,6.54h0s29.2.01,29.2.01h0s6.54-6.55,6.54-6.55h15.7l3.49,6.54h0s16.58.01,16.58.01h0s1.21-2.28,1.21-2.28l.27-.51,2.01-3.76h5.98c-.3,6.34-1.52,12.6-3.6,18.6ZM316.47,314.96h-132.93v-110.72h132.93v110.72ZM346.27,347.93c8.16-39.46,18.59-39.46,34.01-54.88-5.9,33.11-19.95,43.66-34.01,54.88Z"/>
      <path class="cls-1" d="M280.66,175.85c6.52-7.29,10.49-16.9,10.49-27.45,0-1.5-.08-2.98-.24-4.44-.55.5-1.08,1.02-1.59,1.56-1.54,1.62-3.43,3.96-4.88,6.79-.05,9.13-2.83,16.5-3.11,17.23-.07.4-.52,2.95-.67,6.31Z"/>
      <path class="cls-1" d="M282.98,152.27c-.8-1.99-3.35-4.77-5.71-6.96-1.33-1.23-2.7-2.42-4.12-3.55-1.34,1.2-5.47,4.54-11.31,5.97-1.11,8.54-3.98,17.15-4.67,19.16,1.1,1.09,4.65,4.8,6.27,8.74,4.67-.04,8.48-.85,11.28-2.06,2.8-1.21,4.6-2.83,5.22-4.5,0,0,.75-1.87,1.52-4.94.75-3.04,1.5-7.23,1.52-11.86Z"/>
      <path class="cls-1" d="M256.31,187.28l-14.79-.43c-.26.54-.44,1.11-.53,1.71,2.9.64,5.91,1,9.01,1,2.28-.01,4.55-.2,6.79-.57-.06-.47-.18-.91-.3-1.25-.07-.19-.13-.34-.18-.46Z"/>
      <path class="cls-1" d="M256.01,167.79c-2.26-.16-4.51-.22-6.6-.22-3.66,0-6.78.18-8.49.3l-6.7,8.86c.37,1.24.87,2.44,1.48,3.58,1.15,2.15,2.96,4.37,5.52,5.07l15.31.44c.15-.12.4-.32.72-.61.73-.65,1.42-1.35,2.05-2.1,1.47-1.75,2.88-4.13,2.92-6.63-.8-2.12-2.37-4.35-3.77-6.02-1.09-1.32-2.05-2.29-2.44-2.67Z"/>
      <path class="cls-1" d="M219.01,171.49c-.36-.59-4.49-7.45-5.5-17.97-.53-.78-1.09-1.54-1.68-2.28-.92-1.17-1.91-2.28-2.97-3.32,0,.16-.01.32-.01.49,0,10.57,3.99,20.21,10.55,27.5.13-.47.19-.96.19-1.44,0-.8-.15-1.57-.3-2.14-.13-.45-.24-.74-.28-.84Z"/>
      <path class="cls-1" d="M221.16,171.38c.91.64,1.87,1.22,2.85,1.74,2.15,1.13,5.02,2.24,8.17,2.47l6.1-10.22c-.79-3.34-2.01-7.02-3.13-10.05-1.07-2.9-2.01-5.18-2.36-6-6.3-1.46-10.61-5.07-11.9-6.26-.13.08-.27.17-.43.29-.75.52-1.43,1.12-2.04,1.79-1.51,1.66-3.1,4.25-3.47,8.12.74,8.02,3.39,13.89,4.65,16.3.2.37.4.74.62,1.11.31.25.62.48.94.71Z"/>
      <path class="cls-1" d="M220.81,126.42c.29-.16.42-.26.42-.26h.01c2.71-3.12,7.18-7.18,14.29-11.1.13-.19.26-.39.39-.58.93-1.46,1.83-3.37,2.09-5.45-6.46,1.97-12.34,5.5-17.11,10.28-2.56,2.56-4.76,5.44-6.57,8.58.31.03.61.05.91.05,2.58,0,4.7-1.02,5.57-1.52Z"/>
      <path class="cls-1" d="M248.49,137.44c6.77,3.55,11.69,7.81,12.9,8.9,5.05-1.2,8.83-3.99,10.4-5.33.36-.3.58-.51.7-.62.3-.79.55-1.6.75-2.41.55-2.17.82-4.39.82-6.63,0-1.66-.15-3.46-.56-5.35l-.18-.88h.9c4.03,0,7.53-.28,9.37-.47-1.34-1.9-2.85-3.69-4.49-5.35-6.06-6.06-13.86-10.08-22.32-11.49.88,3.07,2.31,4.84,3,5.55.26.26.39.36.39.36l1.66,1.3h-6.19l-7.24,8.86c.12.94.43,3.91.43,7.55,0,1.88-.09,3.95-.34,6.01Z"/>
      <path class="cls-1" d="M235,118.41c-7.38,4.38-11.34,8.74-13.31,11.45-.27,1.56-.52,3.65-.52,6.1,0,1.96.17,3.91.5,5.85.28.26.57.52.87.77.94.78,1.93,1.5,2.97,2.14,2.51,1.56,6.06,3.2,10.32,3.63,1.18-1.25,6.34-6.68,11.19-10.86.26-2.06.35-4.15.35-6.06,0-2.49-.14-4.98-.42-7.45-.14-.15-.37-.4-.72-.74-.74-.72-1.54-1.39-2.39-2-2.02-1.46-4.82-2.88-7.89-2.88-.31,0-.63.02-.95.05Z"/>
      <path class="cls-1" d="M167.49,95.39l-7.11-14.63c-1.75-3.61-2.73-6.19-2.95-7.74-.21-1.55.07-3.02.86-4.4.78-1.39,1.91-2.44,3.39-3.16,1.16-.56,2.29-.75,3.38-.58,1.1.16,2.08.67,2.94,1.52.86.85,2.14,3.01,3.84,6.5l8,16.49,8.55-4.15-9.75-20.08c-1.21-2.49-2.3-4.33-3.26-5.52-.93-1.15-2.1-2.1-3.42-2.77-1.31-.67-2.91-.97-4.81-.88-1.89.07-3.78.57-5.66,1.49-4.28,2.08-6.95,5.62-7.99,10.64l-2.31-4.74-7.94,3.85,15.69,32.31,8.55-4.15Z"/>
      <path class="cls-1" d="M106.38,149.6l-14.32-10.88c-2.41-1.83-4.05-3.44-4.94-4.83-.88-1.39-1.25-2.81-1.11-4.27.14-1.45.69-2.8,1.64-4.06.83-1.09,1.77-1.82,2.79-2.19.99-.36,2.08-.39,3.08-.06,1.03.33,3.04,1.63,6.04,3.91l15.11,11.48,5.75-7.57-16.78-12.75c-2.57-1.95-4.56-3.26-5.98-3.92-1.42-.67-2.9-1.03-4.44-1.09-1.55-.05-3.17.38-4.88,1.28-1.72.91-3.23,2.24-4.55,3.98-2.58,3.4-3.37,7.4-2.37,12.01l-14.52-11.03-5.75,7.57,39.48,29.99,5.75-7.57Z"/>
      <path class="cls-1" d="M304.65,83.55c1.11.99,2.49,1.75,4.11,2.3,2.65.9,5.17,1.25,7.57,1.06l1.59-7.25c-1.78.05-3.08-.07-3.92-.35-.59-.2-1.05-.53-1.37-.97-.31-.43-.45-.9-.41-1.4.04-.5.52-2.14,1.46-4.92l4.63-13.71,6.16,2.08,2.42-7.18-6.15-2.08,4.06-12.02-10.82,2.21-2.28,6.76-4.13-1.4-2.43,7.18,4.14,1.4-5.01,14.83c-1.08,3.18-1.7,5.33-1.86,6.44-.26,1.56-.23,2.87.08,3.94.32,1.07,1.04,2.1,2.16,3.08Z"/>
      <path class="cls-1" d="M363.26,114.32c1.18,3.12,2.97,5.8,5.38,8.05,3.9,3.62,8.35,5.31,13.35,5.08,5.01-.24,9.36-2.34,13.05-6.32,3.67-3.95,5.43-8.4,5.29-13.35-.14-4.95-2.21-9.27-6.19-12.97-2.57-2.39-5.44-3.99-8.59-4.79-3.14-.8-6.29-.65-9.44.46-3.15,1.1-5.8,2.81-7.95,5.13-2.81,3.02-4.62,6.11-5.44,9.28-.81,3.16-.63,6.31.54,9.43ZM374.95,102.6c2.43-2.61,4.9-4.03,7.43-4.26,2.53-.24,4.7.48,6.52,2.17,1.82,1.69,2.7,3.8,2.64,6.33-.06,2.53-1.29,5.08-3.68,7.66-2.46,2.64-4.94,4.09-7.46,4.33-2.52.25-4.69-.47-6.51-2.16s-2.7-3.8-2.65-6.34c.05-2.54,1.29-5.12,3.71-7.73Z"/>
      <path class="cls-1" d="M113.05,112.03c2.62,3.19,5.44,5.4,8.47,6.63,3.02,1.23,6.16,1.48,9.42.73,3.25-.75,6.15-2.17,8.69-4.26,4.11-3.38,6.39-7.56,6.83-12.55.43-4.98-1.07-9.58-4.52-13.77-3.43-4.17-7.6-6.51-12.52-7.03-4.92-.52-9.48.94-13.68,4.4-2.72,2.23-4.68,4.85-5.9,7.86-1.22,3.02-1.49,6.16-.81,9.43.67,3.27,2.01,6.12,4.02,8.56ZM120.68,92.14c1.92-1.58,4.13-2.17,6.63-1.77,2.5.39,4.86,1.95,7.1,4.67,2.29,2.78,3.39,5.44,3.29,7.97-.09,2.53-1.1,4.58-3.01,6.16-1.92,1.57-4.13,2.17-6.64,1.78s-4.9-1.96-7.16-4.71-3.34-5.4-3.24-7.94c.11-2.53,1.12-4.59,3.03-6.16Z"/>
      <polygon class="cls-1" points="403.57 84.87 395.76 77.62 395.72 91.38 400.1 95.46 403.57 84.87"/>
      <path class="cls-1" d="M263.49,74.32c1.75,1.31,3.82,2.13,6.21,2.46,2.35.32,3.52.48,6.91-.72,2.27-.81,4.18-2.07,5.73-3.79l-.73,5.33,8.74,1.21,4.91-35.59-9.41-1.29-2.07,15.01c-.71,5.09-1.38,8.26-2.03,9.5s-.97,1.86-3.07,2.92c-1.39.71-2.89.95-4.5.73-1.41-.2-2.53-.68-3.35-1.47-.83-.79-1.33-1.77-1.52-2.94-.19-1.18.06-4.27.75-9.27l2.25-16.35-9.41-1.3-3.11,22.52c-.46,3.35-.4,6.03.19,8.05.59,2.01,1.76,3.67,3.51,4.99Z"/>
      <polygon class="cls-1" points="392.82 148.59 432.4 118.72 426.68 111.14 387.1 141 392.82 148.59"/>
      <path class="cls-1" d="M329.11,93.57l2.59-4.59c.27,2.45,1.02,4.62,2.26,6.49,1.23,1.88,2.74,3.32,4.53,4.32,3.63,2.05,7.54,2.35,11.71.89,4.17-1.45,7.76-4.85,10.77-10.19,2.91-5.17,3.89-9.84,2.95-14-.94-4.17-3.31-7.32-7.12-9.47-3.5-1.97-7.34-2.22-11.53-.75l8.76-15.56-8.28-4.67-24.34,43.2,7.7,4.33ZM338.83,77.55c1.77-3.14,3.75-5.12,5.94-5.92,2.18-.8,4.27-.64,6.25.48,2.02,1.14,3.24,2.86,3.64,5.18.41,2.31-.4,5.25-2.41,8.83-1.89,3.36-3.92,5.45-6.09,6.29-2.17.84-4.16.74-5.99-.29-2.38-1.34-3.66-3.51-3.85-6.52-.15-2.13.69-4.81,2.51-8.05Z"/>
      <polygon class="cls-1" points="412.57 184.15 426.75 179.3 437.21 184.31 419.6 204.73 423.79 216.98 446.07 188.57 470.38 200 466.03 187.26 438.65 175.24 459.49 168.12 456.25 158.65 409.33 174.67 412.57 184.15"/>
      <polygon class="cls-1" points="227.03 76.31 225.02 55.33 245.63 53.36 244.83 45.01 224.22 46.98 223.11 35.3 246.98 33.02 246.18 24.67 212.34 27.91 217.06 77.26 227.03 76.31"/>
      <path class="cls-1" d="M446.25,295.7c-3.29-1.05-6.29-.52-9,1.6-1.96,1.52-4.91,5.68-8.86,12.46-.87,1.45-1.59,2.34-2.16,2.65-.59.29-1.23.32-1.92.1-1.01-.33-1.68-.98-2.03-1.97-.48-1.45-.35-3.35.4-5.69.69-2.13,1.67-3.64,2.96-4.52,1.29-.89,2.88-1.25,4.76-1.07l1.53-9.53c-3.51-.2-6.65.76-9.41,2.87-2.76,2.11-4.88,5.49-6.37,10.15-1.65,5.13-1.76,9.37-.35,12.71,1.42,3.34,3.69,5.52,6.83,6.52,2.88.92,5.42.7,7.64-.68,2.2-1.4,4.62-4.34,7.26-8.8,2.64-4.47,4.39-7.02,5.25-7.64.65-.46,1.29-.59,1.93-.38.76.24,1.26.78,1.51,1.62.34,1.24.12,3.06-.64,5.44-.61,1.89-1.43,3.23-2.46,4.02-1.04.79-2.28,1.16-3.73,1.1l-1.15,9.04c3.25.1,6.01-.75,8.27-2.53,2.25-1.79,4.13-5.03,5.63-9.71,1.57-4.92,1.72-8.87.46-11.85-1.28-2.99-3.39-4.96-6.35-5.91Z"/>
      <path class="cls-1" d="M425.87,332.97c-3.55-2.1-6.95-3.22-10.22-3.35-3.26-.13-6.3.7-9.11,2.51-2.8,1.81-5.04,4.13-6.73,6.96-2.71,4.57-4.07,6.86-2.15,14.12,1.28,4.84,4.26,8.65,8.93,11.42,4.63,2.76,9.35,3.54,14.16,2.36,4.8-1.18,8.6-4.11,11.37-8.78,1.8-3.03,2.76-6.16,2.88-9.41.11-3.24-.7-6.29-2.44-9.14-1.75-2.84-3.98-5.07-6.69-6.69ZM425.45,354.28c-1.27,2.13-3.15,3.44-5.63,3.91-2.49.48-5.25-.18-8.27-1.98-3.1-1.84-4.65-2.76-5.81-6.38-.77-2.41-.52-4.68.75-6.81,1.27-2.14,3.15-3.45,5.64-3.93,2.49-.49,5.27.18,8.33,2,3.06,1.82,4.98,3.94,5.74,6.36s.51,4.7-.75,6.83Z"/>
      <path class="cls-1" d="M423.71,272.02l11.01,1.34c6.07.74,10.02,1.49,11.86,2.25,1.84.75,3.06,1.63,3.68,2.64s.84,2.17.68,3.49c-.16,1.37-.86,2.78-2.08,4.24l7.87,3.93c1.43-1.85,2.27-3.85,2.53-6,.19-1.52-.03-2.93-.64-4.22-.62-1.29-2.03-2.83-4.24-4.62l5.07.62,1.06-8.77-35.65-4.33-1.15,9.43Z"/>
      <path class="cls-1" d="M458.21,225.04c-1.75-2.74-4.16-4.77-7.22-6.11-3.06-1.33-6.17-1.88-9.32-1.65-4.11.3-7.55,1.33-10.3,3.09s-4.76,4.19-6.03,7.27c-1.26,3.09-1.78,6.28-1.54,9.56.39,5.31.59,7.96,6.32,12.81,3.82,3.24,8.44,4.66,13.86,4.26,5.37-.39,9.69-2.45,12.96-6.17,3.26-3.72,4.7-8.29,4.3-13.71-.26-3.5-1.27-6.62-3.03-9.35ZM451.14,241.42c-1.77,1.82-4.4,2.85-7.91,3.11-3.6.26-6.41-.38-8.42-1.91-2.01-1.54-3.1-3.54-3.29-6.02-.18-2.47.62-4.62,2.38-6.45,1.77-1.82,4.43-2.86,7.98-3.12,3.55-.26,6.33.38,8.35,1.93,2.01,1.55,3.1,3.56,3.29,6.03.18,2.48-.62,4.62-2.38,6.43Z"/>
      <polygon class="cls-1" points="474.13 222.9 464.73 232.95 465.16 238.92 474.91 233.53 474.13 222.9"/>
      <path class="cls-1" d="M389.88,364.79c-1.97-.72-4.01-.76-6.1-.13-2.1.64-3.99,1.82-5.67,3.55-1.64,1.69-2.84,3.74-3.51,6-.69,2.29-.81,4.58-.35,6.85l-3.85-3.74-6.15,6.33,25.76,25.03,6.62-6.82-10.87-10.56c-3.68-3.58-5.83-6-6.45-7.26-.62-1.26-.79-2.66-.54-4.2.26-1.54.95-2.9,2.08-4.06.99-1.02,2.05-1.63,3.17-1.83s2.21-.03,3.27.51c1.06.55,3.4,2.58,7.02,6.1l11.84,11.5,6.62-6.82-16.3-15.83c-2.42-2.36-4.62-3.9-6.59-4.62Z"/>
      <polygon class="cls-1" points="124.37 400.76 108.89 387.02 103.32 393.29 118.8 407.03 111.01 415.81 93.08 399.88 87.51 406.15 112.92 428.73 145.85 391.66 138.36 385.01 124.37 400.76"/>
      <path class="cls-1" d="M63.57,289.07l-3.95-23.48c-7.21,1.08-12.29,3.43-15.26,7.06-2.97,3.63-4.01,8.09-3.12,13.36.79,4.69,3.1,8.29,6.94,10.8,3.84,2.5,8.7,3.26,14.57,2.28,4.91-.83,8.79-2.68,11.62-5.56,3.52-3.63,4.77-8.53,3.73-14.69-.65-3.89-2.09-6.98-4.32-9.27-2.22-2.29-5.15-3.74-8.77-4.37v9.6c1.86.22,3.28.75,4.25,1.62.97.87,1.58,2.03,1.82,3.5.37,2.16-.1,4.09-1.41,5.79-1.3,1.71-3.33,2.83-6.1,3.36ZM51.4,288.93c-1.71-1.09-2.74-2.65-3.08-4.7-.33-1.91.11-3.65,1.29-5.22,1.19-1.58,3.14-2.62,5.84-3.15l2.35,14.01c-2.55.45-4.68.14-6.4-.94Z"/>
      <path class="cls-1" d="M49.42,224.12l3.29-8.12c-1.52-.92-2.5-1.91-2.96-2.97-.46-1.06-.51-2.42-.17-4.08.51-2.45,1.24-4.03,2.19-4.76.94-.72,2.31-.9,4.1-.52l.92.19c.36,1.82.49,5,.4,9.51-.05,3.36.16,5.97.63,7.86.47,1.88,1.38,3.46,2.74,4.73,1.36,1.27,3.03,2.12,5.02,2.53,3,.63,5.7.1,8.1-1.57,2.4-1.68,3.98-4.33,4.73-7.95.43-2.05.45-4.06.05-6.03-.39-1.97-1.2-3.91-2.41-5.83.19-.03.58-.06,1.16-.1,1.29-.1,2.27-.21,2.93-.32l1.92-9.21c-1.85.47-3.53.7-5.06.69s-3.84-.33-6.93-.98l-10.84-2.36c-4.04-.84-6.9-1.01-8.59-.5-1.68.52-3.23,1.69-4.63,3.51-1.41,1.83-2.54,4.82-3.41,8.97-.95,4.57-.85,8.18.3,10.84,1.15,2.66,3.32,4.81,6.52,6.47ZM64.7,205.51c2.23.46,3.72.9,4.46,1.31,1.15.6,2.02,1.56,2.62,2.86.79,1.75,1.01,3.47.66,5.14-.32,1.5-1.05,2.64-2.2,3.41-1.15.78-2.38,1.03-3.68.76-1.33-.28-2.29-1.11-2.9-2.51-.36-.9-.55-2.7-.57-5.4-.01-2.7-.09-4.68-.24-5.96l1.85.39Z"/>
      <path class="cls-1" d="M44.15,246.11l-5.1-.1-.17,8.83,35.91.67.18-9.5-11.09-.21c-6.11-.11-10.12-.45-12.02-1.02-1.91-.56-3.22-1.32-3.94-2.25-.71-.94-1.05-2.08-1.03-3.41.03-1.37.57-2.85,1.64-4.43l-8.23-3.1c-1.23,1.99-1.87,4.06-1.91,6.22-.03,1.54.33,2.91,1.07,4.13.75,1.23,2.31,2.61,4.69,4.17Z"/>
      <path class="cls-1" d="M89.76,331.63c1.94-3.99,2.12-7.89.53-11.7-.77-1.87-2.01-3.54-3.7-5-1.7-1.45-3.77-2.46-6.23-3.03l4.87-2.03-3.39-8.14-45.78,19.04,3.65,8.78,16.49-6.86c-1.95,3.98-2.16,7.83-.62,11.54,1.69,4.04,4.54,6.77,8.56,8.19,4.03,1.43,8.85.98,14.47-1.37,5.5-2.28,9.21-5.42,11.15-9.42ZM65.99,333.32c-2.23-.72-3.79-2.11-4.65-4.2-.9-2.14-.79-4.25.31-6.32,1.11-2.07,3.56-3.9,7.37-5.48,3.42-1.42,6.28-1.78,8.58-1.08,2.31.7,3.88,2.06,4.72,4.08,1.06,2.54.74,4.99-.96,7.36-1.18,1.63-3.53,3.19-7.07,4.66-3.29,1.37-6.06,1.7-8.3.98Z"/>
      <path class="cls-1" d="M102.97,375.83c4.05-2.9,6.72-6.26,8-10.09,1.58-4.81.55-9.76-3.08-14.84-2.3-3.21-4.95-5.36-7.95-6.44-3-1.08-6.27-1.11-9.8-.08l4.21,8.63c1.77-.63,3.28-.76,4.53-.41,1.25.35,2.31,1.14,3.17,2.35,1.27,1.77,1.91,2.67,1.27,5.82-.42,2.1-1.76,4-4.01,5.7l-13.85-19.37c-6,4.12-9.54,8.47-10.61,13.03-1.08,4.57-.06,9.02,3.05,13.37,2.76,3.87,6.42,6.09,10.98,6.66,4.55.57,9.24-.87,14.09-4.33ZM83.48,368.8c-1.13-1.58-1.5-3.33-1.13-5.26.38-1.94,1.67-3.73,3.87-5.39l8.26,11.56c-2.1,1.53-4.15,2.18-6.17,1.96-2.01-.22-3.63-1.18-4.83-2.87Z"/>
      <path class="cls-1" d="M60.15,182.48c3.15,1.42,6.19,1.23,9.12-.56,2.12-1.3,5.52-5.1,10.21-11.39,1.03-1.34,1.84-2.14,2.45-2.39.62-.21,1.25-.17,1.91.12.97.44,1.57,1.17,1.8,2.19.31,1.5-.03,3.37-1.04,5.61-.92,2.04-2.07,3.42-3.45,4.16-1.38.74-3,.91-4.86.52l-2.59,9.29c3.47.6,6.69,0,9.67-1.78s5.48-4.91,7.49-9.37c2.21-4.92,2.8-9.11,1.77-12.59-1.03-3.48-3.04-5.9-6.04-7.25-2.76-1.24-5.31-1.3-7.67-.19-2.35,1.14-5.08,3.79-8.21,7.93-3.13,4.15-5.15,6.48-6.08,7-.69.38-1.35.43-1.96.15-.72-.32-1.16-.91-1.32-1.77-.19-1.28.23-3.06,1.26-5.34.81-1.81,1.78-3.05,2.9-3.72,1.11-.67,2.39-.89,3.82-.67l2.17-8.85c-3.23-.46-6.06.06-8.5,1.58-2.44,1.53-4.67,4.53-6.69,9.01-2.12,4.71-2.72,8.62-1.8,11.73.93,3.11,2.81,5.31,5.64,6.58Z"/>
    </g>
  </g>
</svg>