<svg xmlns="http://www.w3.org/2000/svg" viewBox="0 0 73.4 90.2"><defs><mask id="k" maskUnits="userSpaceOnUse"><path d="M68.2,11.7c-18.5-3.4-44.7-3.6-63,0-4.2,25.7.7,54.3,31.5,73.6,30.8-19.3,35.7-47.9,31.5-73.6" fill="#fff" fill-rule="nonzero"/>
<path d="M66.5,7.7c-.1-1.1-.3-2.2-.5-3.2C48.8,1.6,24.4,1.4,7.4,4.5c-.2,1.1-.4,2.1-.5,3.2,17.7-3.1,41.7-2.9,59.6,0" fill="#fff" fill-rule="nonzero"/>
<path d="M69.7,11.5l-.2-1-1-.2c-19.4-3.6-45.5-3.6-63.5,0l-1,.2-.2,1c-2.4,14.7-1.5,28.2,2.7,39.9,5.1,14.2,15,26.1,29.5,35.2l.8.5.8-.5c14.5-9.1,24.4-20.9,29.5-35.2,4.2-11.8,5.1-25.2,2.7-39.9ZM64.2,50.4c-4.8,13.3-14,24.5-27.5,33.2-13.5-8.7-22.7-19.8-27.5-33.2-3.9-11-4.9-23.6-2.7-37.4h0c17.1-3.2,42.1-3.2,60.4,0,2.1,13.8,1.2,26.4-2.7,37.4Z" fill="#fff" fill-rule="nonzero"/>
<path d="M62.8,22.6c-.5-1.8-2.9-1.9-3.6-.3-1.7-2.3-4.8-3.9-6.4-3.6,0,1.1.6,2.2,2.1,3.2-1.6.1-2.6,1.1-2.1,2.8,3.6-2.1,7.3,2.2,6.6,6.2-.3,1.9-.3,3.9-1.2,5.6,0-2.6-3.5-2.9-3.6-.5,1.1-.8,2.4,0,1.7,1.8-.6.9-.7,2.6-1.3,3.5-1.2-1.7-2.9-4.4-3.7-6.2-1.3-3,1.8-3.5,2.4-2,.9-2.2-1.5-3.7-2.9-3.1,1.4-1.8,4-1.3,4.7.3,1.1-3.1-2.2-4.1-4.4-2.6,1.7-3.3.2-4.1.2-4.1-1.3.8-2.9,4.8-2.9,7.6s1.2,5.4,2.6,7.7c-1.5-1.1-3.5-1.1-4.8-.2,0,0,.5,1.6,4,1.6-.8.7-.8,2.3.7,3.2-.2-2,1.6-3,2.8-1.9,0,0,0,1.3.1,1.4-1.5,2.2-3,4-3,6.1s.7,3.7,1.7,5c0,0,.2,0,.2,0-2.4,0-4.2-2.2-4.7-4.9-3.5-2.5-5.9-5.7-4.6-11,1.3-.6,2-2.1,1.6-3.4,1.2-.9,1.6-2.5.8-3.9,1-1.1,1-2.8,0-4,.7-1.3.3-2.9-.9-3.7,0,0,0,0,0,0,.2-.9,0-1.9-.7-2.6.4-1,.6-2,.6-2,0,0-1-.4-1.9-.5l1.6-2.8s-3.2-.9-2.1,1.5c0,0-6.5.4-6.5.4-2,.2-5.8,3.1-5.8,3.1.2,2,.7,3.3,1,4-.7.2-1.4.3-2.1.4-1.4.1-2.2-1-2.3-1.7-1.3,1.2-.7,5.7,4.8,3.7.4.9.3,1.9.3,1.9,0,0,0,0,.2,0,3.1-2.1,4.2-.4,3.8.5-2.3.7-3.7,2.2-4.9,3.1-4.6-2.2-7.5-4.4-9.1-6-1.2-2.1,1.6-5.1,1.6-5.1,0,0-.1-.2-.2-.2.2-1.6-1.3-2.2-2.4-1.7h0c.3,0,.9.3.9,1.1-1.1,0-2.1.6-2.1,2.3-.3-.9-2-2.1-2.3-3-.1,0-.3,0-.4,0-.4-1-2.1-.9-2.5.2h0c.3-.1.9,0,1,.5-.5,1.4.3,2.7,2.2,3.7-.8-.2-1.7,0-2.2-.2-.2.2-.3.5-.4.7-1.5,0-2.2,1.2-1.6,2.3h0c0-.4.4-.8.9-.6.6.8,1.5,1.2,3.6.9-.5.5-.6,1.8-.6,2.2,0,.8-.3,1.5-1.3,1.3h0c.5,1.5,2.5,1.7,3.4.6l.6-.2s.1-1,.3-1.7c.5.8,1.7,3,2,3.5-.6.1-1,.4-1.2.5,0,.6.5,1.5,1.8,1.6-.9.7-.5,2,0,2.6.7-.2,1.6-.9,2.6-1.4.4.5,1.3,1.6,1.7,2-1.6,1.2-3.4,2.5-4.7,3.1-1.3.5-1.9-2-2.1-3.4,0,0-2.9.3-1.7,3h0c-1.2-.7-2.8-2.3-2.8-2.3-2.6-.2-3.1,1.5-2.7,2.4h0c.1-.3.5-.6.9-.6,0,1.1.9,2,3.2,2l.3.6c-.9,0-2.1.3-2.6.5,0,.2-.1,0-.2.3,0,0,0,0,0,0-1.5.9-1.6,3.2-.2,3.8h0c-.1-.4,0-1.5.6-1.9.6.7,2.4.9,4.1-.9h.5s-.5,3.1-.5,3.1c.3.7-.5,1.3-.8,1.3h0c.8,1,2.5.7,3.1-.3.7-.3,1-1,1-1,0,0,.2-.7.2-3,0,0,2-.3,3.1-.2-.1.5,0,.9,0,.9.7.3,1.7.3,2.5-.4,0,0,.3.6.6,1.2.9-.1,2.3-1.1,2.6-2.3,1.6,1.7,3.8,2.9,5.5,4-3.8-.3-10.3,1.1-10.3,1.1,0,0,.5,1.3,2.2.9-.1,2.1,2,6.1,2.6,7.3-4.1-.4-4.7-4.5-4.7-4.5-2.5-.6-5.1,1.3-1.9,4.3-1.4-.7-2.3-1.4-2.6-1.6-.1,0-.3.1-.4.2-1.5-.5-2.7.7-2.4,2.1h0c0-.3.6-.5,1-.4.4,1,1.2,1.6,3.5,1.6l.2.4c-1,.4-1.9.9-2.4,1.4,0,.3.2.6.2.8-1,1.1-.5,2.8.7,3.2h0c-.2-.4-.2-1.2.6-1.5,1.5,0,2.7-1.1,3.3-2.2-.4,1.4-.2,3.2,1.2,3.9.3.3,0,1-.3,1.2,1.1.4,2.3-.7,2.3-1.9.4-.3.6-.6.6-.6-.7-1.2-1.3-2.5-1.3-3,0-.6,1-1.1,2.9-1.4,1.4,1.5,3.4,1.2,3.7,1.1,0-.5-.4-1.5-1.1-1.8.9-.5,1.2-1.7,1-2.2-.3,0-1.1.2-1.5.4-.2-3.2,0-3.2,4.3-2.2-1.1,2.5-1.8,3.5-1.6,4.7,0,2.3,0,3.6,0,3.6.9.3,1.8-.3,1.9-.9,1.2.8,3,1.8,5.7,2.6-.3.4-2.4,3.1-4.8,2.8-1.1-.3-2.2-2.2-2.2-2.2-.2,0-.3,0-.5,0-1.3-.7-2.6.2-2.6,1.2h0c.1-.2,0,.6.6.7-.3.6.3.5,1.2,1.1-.8,0-1.6-.2-2.4-.3-.2.1-.4.3-.6.5-1.9,0-2.6,1.8-2,2.9h0c0-.4.5-1,1.2-1,.8,1,2.6,2,5.7,0h.2c-.8.8-1.6,1.7-2,2.6,0,.3.1.6.2.8-.7,1.5.5,2.9,2,2.7h0c-.1-.1-.3-.5-.2-.8.2-1,1.9-.6,2.7-3.6,0-.3.3-.5.5.2.2.7.7.9,1.1,1,.9.3.5.9,0,1.1h0c1.3.6,2.4-.8,2.3-1.9.3-.4.4-1.2.4-1.2-1.1-1.1-1.1-2-1.1-2,0,0,1-2.2,3.1-4.3,2.5.4,4.6-.7,4.9-1.8-.5-.7-1.5-1.1-2.6-.9,1.7-1.4,1.2-3.5.5-3.9-1.3.1-2.9,2-3.1,3.7l-3.7-3.3c1.9-1.2,3.8-2.9,4.9-5,4.9,3.4,11,.7,11-6.1s-.8-3.1-2.2-5.2c2.4-3.4,5.3-8.2,5.3-12.5s-.3-2.4-.6-3.3h0c-.6-1.5-1.1-4.3,1.9-4.2ZM56.5,49.2c0,1.7-.3,3.3-1.4,4.1-1.1-.8-1.8-2.7-1.8-4.3s.5-3,1.7-4.6c1.2,1.6,1.5,3.2,1.5,4.8Z" fill="#fff" fill-rule="nonzero"/>
<path d="M38,20.8s-.5.2-1.1.4c0,0,1.3,1.1,3.3,2.9-.5-1-1.7-2.9-2.2-3.3" fill="#fff" fill-rule="nonzero"/>
<path d="M29.6,21.1c.4,0,1.5-.6,1.6-.7h0c-.2,0-1.8.4-2.1-.1,0,.1.1.7.5.8" fill="#fff" fill-rule="nonzero"/>
<path d="M58.4,20.9h0c.2.3.3.7.4,1,.6-1.9,2.7-2.1,3.4-1.3-.8-1.3-3.2-1.1-3.9.3" fill="#fff" fill-rule="nonzero"/>
<path d="M49.8,29.7c.2-.3.5-.5.9-.7,1.5-1.7,4.2-2,5.5-.7-.8-2.7-5.7-2.7-6.4,1.4" fill="#fff" fill-rule="nonzero"/>
<path d="M50.9,26h0c.9-1.7,0-2.7-.1-2.7h0c-.6.7-1.6,2.8-1.6,5.3.3-1.2.9-2,1.7-2.5" fill="#fff" fill-rule="nonzero"/>
<path d="M53.5,31.6c-.5-2.1-4-1.8-2.9,1.4.3.8.5,1.2.6,1.4-1.5-3,.9-4,2.3-2.8" fill="#fff" fill-rule="nonzero"/>
<path d="M50.3,42c.2-1.5,1.8-2.3,3-1l-.6-.8c-1.3-1.6-3.5,0-2.4,1.9" fill="#fff" fill-rule="nonzero"/>
<path d="M49.6,38.7c.4-.3.9-.5,1.6-.4-1.5-.9-3.4-1.6-5.4-1.5,0,0,.5,1.6,3.8,1.8" fill="#fff" fill-rule="nonzero"/>
<path d="M56.8,36.4c1.3-2.3-1.5-3.7-2.6-1.9,1.4-.6,3,.5,2.3,2.2,0-.1.2-.2.2-.4" fill="#fff" fill-rule="nonzero"/>
<path d="M52.3,23.8c3.9-2.3,7.1,1.7,7.1,5.6s-.6,3.6-1.5,5.2c5.8-10-2.8-15.2-5.6-10.8" fill="#fff" fill-rule="nonzero"/>
<path d="M55.9,41.2c1.2-1.7,2.6-3.5,3.7-5.4-1.2,1.7-2.7,3.3-4.1,4.8.1.2.3.4.4.6" fill="#fff" fill-rule="nonzero"/>
<path d="M54,42c-1.5,1.9-3,4-3,6.4s0,1.1.2,1.5c.3.9.7,1.7,1.3,2.4.8,0,1.6-.3,2.2-.8-1.1-.8-1.8-2.3-1.8-3.9s.8-3,1.8-4.6c-.2-.3-.5-.7-.7-1" fill="#fff" fill-rule="nonzero"/>
<path d="M53.4,53.8c-2.7,0-4.8-2-5.5-4.3,0,.9-.3,1.8-.7,2.6,1.3,1.4,3,2.4,5.1,2.4s3.6-.9,4.7-2.4c-.9,1-2.2,1.7-3.6,1.7" fill="#fff" fill-rule="nonzero"/>
<path d="M37.5,60.6c-1-.6-1.5-1.3-1.6-2.2,0,2.3,0,3.7,0,3.7,1.3.5,1.9-.7,1.6-1.5" fill="#fff" fill-rule="nonzero"/>
<path d="M56.9,21.3c-1.1-1-2-2.2-3.1-4,0,.8.3,2.2,1.3,3.6.6,0,1.3.1,1.8.4" fill="#fff" fill-rule="nonzero"/>
<path d="M40.8,19.7s1.3-.6,2.6-1.3c-.8-.2-3-.1-2.6,1.3" fill="#fff" fill-rule="nonzero"/>
<path d="M41,21c.6.3,1.6.3,2.2,0,1,1.6.1,4.3.1,4.3,0,0,.5-.8.8-1.8.8.9.6,3.1-1.2,5,.7-.5,1.2-.9,1.6-1.4.7,2-1.3,3.9-3.4,4.3,1,0,2-.3,2.9-.8.2,2.2-2.6,3.5-5.8,3.4,1.7.3,3.3.3,4.5,0,0,2.3-4.6,2.9-9.4,1.5,3.1,1.4,5.7,1.8,7.7,1.6,0,1.4-2,1.9-3,1.8-.4,2.7,7.6,7.4,9.7,8.5-3.5-2.5-5.9-5.9-4.6-11,1.3-.5,2-2,1.6-3.3,1.2-.8,1.5-2.4.8-3.7,1-1.1,1-2.7,0-3.8.7-1.2.3-2.8-.9-3.6,0,0,0,0,0,0,.2-.9,0-1.8-.7-2.4.3-.8.3-1.6.3-1.6,0,0-.9,2.9-3.1,3h0Z" fill="#fff" fill-rule="nonzero"/>
<path d="M31,25.7s0-.7,0-1.4c0,0,0,0,0,0,0,0,.5.5,1.2.8,1.5-.6,2.8-.8,3.3-.9.1,0,.2,0,.2-.2h0c-.8,0-2.6,0-4.7.2,0-.2.3-.8.6-1.4-.7.2-1.2.3-1.4.2.2.6.5,1.1.7,1.3-.7,0-1.5.2-2.2.3-2.4.4-3.3.2-3.2-.8-.2,1.6.8,4.3,5.4,2" fill="#fff" fill-rule="nonzero"/>
<path d="M37.6,22.7c.3.8.5,1.8-.5,2.3,1,.7.3,1.6.3,1.6-.4-.5-1.8-1.4-5.4.6h0c2.7-1.5,4.1,0,3.7.7,2.4-.8,5.5-1.9,1.8-5.3" fill="#fff" fill-rule="nonzero"/>
<path d="M14.9,43.2c0,.5-.4.7-.5.7,0,0-.1,0-.2,0,.7.9,2.4,1,4.5-.9h0s.2-.5.3-.8c-1.3.7-3.2,1.3-4.2.9" fill="#fff" fill-rule="nonzero"/>
<path d="M24.9,44.1c.6.3,1.5.3,2.3-.5-.1-.5-.1-1.1,0-1.6-1.1,1.7-2.2,2.1-2.2,2.1" fill="#fff" fill-rule="nonzero"/>
<path d="M30.4,42.1c.1.1.3.3.4.4,1.3.5,2.9.2,2.9.2-.4-1.1-1.3-2.5-4-2.3-.5,3.3-2.3,4.1-2.3,4.1,1.6-.2,2.6-1.1,2.9-2.5" fill="#fff" fill-rule="nonzero"/>
<path d="M28.1,48.5c0-.1.2-.2.2-.3-.6.1-2,.4-2.6-.1,0,0,.5,1.3,2.2.9h0c0-.2,0-.3.2-.4" fill="#fff" fill-rule="nonzero"/>
<path d="M16.6,41.1h0c.2,0,.6,0,.9,0-3-1.5-3.3-3.3-3.3-3.7-.3.3-.5.7-.5,1.1-.2,1.2.6,2.6,2.9,2.6" fill="#fff" fill-rule="nonzero"/>
<path d="M37.1,72.3c.1.2,0,.5,0,.6,0,.1-.1.2-.1.4,1.2.2,2.2-1,3.4-3.8-.1-.7-.2-1.5-.2-1.5-.6,1.4-2,3.8-3.1,4.4" fill="#fff" fill-rule="nonzero"/>
<path d="M37.3,68.8c.2-.2.5-.4.7-.6v-.2c-2.4.8-4.7.7-5.4.2-.2.3-.4.5-.7.4.4,1.2,2.1,2,5.2.1h.2Z" fill="#fff" fill-rule="nonzero"/>
<path d="M42.5,17.5l1.4-3.2s-1.5-.4-1.6.8c0,0-.1,0-.2,0-.6,0-1,.3-1.1.7,0,.2,0,.4.2.6.2,0,.4,0,.5.2-.2.2-1,.4-1.7.3-.4,0-.8-.3-1-.5.1-.1.5-.1.6,0,.4-.1.6-.4.7-.7,0-.5-.4-.9-1-.9-.1,0-.2,0-.3,0,.5-1.3-.8-1.7-.8-1.7.7,2.9-1.4,4.2-2.5,4.4h0c2.3,0,4,.6,4,.6.7-.6,1.7-.6,2.6-.4h0Z" fill="#fff" fill-rule="nonzero"/>
<path d="M37.3,47.1c.5,5.1-12.2-3.2-6.2,9.4-2.1.2-3.2-.5-4.1-1.5-1.5-1.4-1.4-3.8-1.4-3.8-1.9.4-2.2,3.3-.6,4.7-1.2-.2-2.7-.7-3.9-1.5-.7.8-.7,2.3.4,2.9.5.2,1,.3,1.7.3h0c.4,0,.7.1.7.1-.8.4-1.8,1.1-2.3,1.6,0,0-.1.2-.1.3.5.3.9,1.3.5,1.5,0,0,0,0-.1,0,1.7.7,3-.8,3.7-1.8-.2.9-.1,1.8,0,2.2.2.8.8,1.5,1.5,1.5,0,.5-.5,1-.8,1.1h0c1.1.6,2.5-.4,2.5-1.6.2-.2.4-.4.6-.6-.7-1.2-.9-2.1-.9-2.6.3-.8,1.1-1.2,3-1.5,1.4,1.5,3.1.9,3.4.8,0-.5-.1-1.1-.9-1.4.9-.5,1.2-1.7,1-2.2-.3,0-1,.5-1.6,1.3,0,0,0-.4-.2-.8-.5-3.4,0-3.6,4.3-2.7.4-.9.8-1.9,1.3-2.8.5-1.2-.1-2.1-1.3-3h0Z" fill="#fff" fill-rule="nonzero"/>
<path d="M21.4,43.6s.6-.1,3.6-.6c.2-.7.5-1.2.9-1.6,0,0-2.4.6-3.9,1.4-.7-.6-1.4-.6-1.4-.6-.5,2.8-1,3.7-1,3.7.8,0,1,.7.9,1,0,.2,0,.3-.2.5.7-.3,1-1,1-1,0,0,0-.8,0-2.7h0Z" fill="#fff" fill-rule="nonzero"/>
<path d="M18.3,29.9c.4,0,.6-.2.6-.2.1-.3.4-1.1.7-1.8.5.8,2.1,3.1,2.4,3.5-.6.1-1,.4-1.2.5,0,.8.5,1.6,1.9,1.7-.9.7-.8,2-.5,2.6,1.4-.8,1.6-2.4,2.7-1.3.5.5.9,1,1.4,1.5,1.3-.9,2.8-1.9,5.2-1.5-1-.4-2.7-.6-4-.1v-.3c2.4-3.6,7.6-2.3,10.7-2.9-2.1,0-6-1.2-9.1.6v-.3c.2-.3.5-.6.8-.9,0,0-6.2-3.5-7.5-3.1.2-1.2-.2-2.1-.8-3.1-1-1.6.5-3.4,1.4-5.5-.9-1.2-3.6,0-2.9,3.4h0c-.9-1.5-1.2-3-1.8-4.6h0c-1.3.3-2.4,2.4-.4,4.7.6.3.9.7.9.7h0c-1.8,0-3.6-.7-3.6-.7,0,.6-.4,1.5-.8,1.4,0,0-.2,0-.3,0,.3,1,1.2,1.7,3.5,1.5.3,0,.5,0,.8,0-.6.7-1.5,2.1-1.1,2.7.2-.1.8,0,.9.3-.3.7-1.2,1.6-2,1.4.6.3,1.6.2,2.3-.4h0Z" fill="#fff" fill-rule="nonzero"/><path d="M31.1,24.2c0-.2.3-.8.6-1.4,1.2-.3,2.9-.8,2.9-.8.7.4,1.3,1.6,1.2,2-.8,0-2.6,0-4.7.2M34.7,19.4c-.5-.4-.9-.5-.9-.5.1-.3.4-.5.4-.5,0,0,.8-.2,2.6.3l-2.1.7ZM60.6,25.1c-.7-1.6-.9-4.5,1.8-4.4-.7-1.5-3.3-1.3-3.9.2-1.2-2.3-3.1-3.6-4.7-3.6,0,.8.3,2.2,1.3,3.6-1.8,0-3.2,1.2-2.8,2.9,3.9-2.3,7.1,1.7,7.1,5.6s-.6,3.7-1.5,5.4c0-2.6-3.5-2.6-3.6-.2,1.4-.6,3,.5,2.3,2.2-.6.9-1.3,1.9-2,2.8-1.2-1.7-2.5-3.4-3.4-5.1-1.5-3,.8-4,2.3-2.8.5-2.1-1.3-3.1-2.7-2.5,1.5-1.7,4.2-2,5.5-.7.1-2.7-3.1-3.9-5.3-2.4,1-1.8-.1-2.7-.1-2.7-1.3.8-2.8,3.3-2.8,6.1s1.2,5.4,2.6,7.7c-1.5-1.1-3.5-1.1-4.8-.2,0,0,.5,1.6,3.8,1.8-.8.7-.9,2.3.6,3.2.2-1.5,1.8-2.3,3-1l.2.3c-1.5,2.2-2.7,4.3-2.7,6.4s.7,3.5,1.7,4.7h-.1c-2.4,0-4.2-2.2-4.7-4.9-3.5-2.5-5.9-5.9-4.6-11,1.3-.5,2-2,1.6-3.3,1.2-.8,1.5-2.4.8-3.7,1-1.1,1-2.7,0-3.8.7-1.2.3-2.8-.9-3.6,0,0,0,0,0,0,.2-.9,0-1.8-.7-2.4.3-.8.3-1.6.3-1.6,0,0-.7-.3-1.6-.5l1.4-3.2s-1.5-.4-1.6.8c0,0-.1,0-.2,0-.6,0-1,.3-1.1.7,0,.2,0,.4.2.6.2,0,.4,0,.5.2-.2.2-1,.4-1.7.3-.4,0-.8-.3-1-.5.1-.1.5-.1.6,0,.4-.1.6-.4.7-.7,0-.5-.4-.9-1-.9-.1,0-.2,0-.3,0,.5-1.3-.8-1.7-.8-1.7,0,0-1.3.2-1,1.6,0,0-.2,0-.3,0-.6,0-1,.3-1.1.8,0,.4.2.7.6.8.2,0,.5,0,.6,0-.2.2-.6.4-1,.4-.7,0-1.5-.2-1.6-.5.1-.1.4-.1.6,0,.2-.1.3-.3.3-.5,0-.4-.4-.8-1-.9,0,0-.2,0-.2,0,0-1.2-1.5-1-1.5-1l1.1,3.9c-.4.2-1,.6-1.4,1l-3.5,1.8c0,.1.1.7.5.8,0,.7,0,1.6.7,1.9.2.6.5,1.1.7,1.3-.7,0-1.5.2-2.2.3-1.4.2-2.6-.2-3.1-1.4-.6,1.3,0,5.1,5.2,2.5.4.9.3,1.9.3,1.9,0,0,0,0,.2,0,3.1-2.1,4.7-.5,4.3.3-2.3.7-4.1,1.6-5.3,2.6-4.6-2.2-7.3-4-8.9-5.6-1-1.6.5-3.4,1.4-5.5,0,0-.1-.2-.2-.2.2-1.6-1.3-2.2-2.4-1.7h0c.3,0,.9.3.9,1.1-1.1,0-2.1.6-2.1,2.3-.3-.9-.5-1.7-.9-2.7-.1,0-.3,0-.4,0-1-1.2-2.8-.6-3,.3h0c.3-.1,1.1-.2,1.5.4-.7.9-.8,2.6.9,3.8-.8-.2-1.9-.5-2.5-.6-.2.2-.3.4-.5.6-1.4.1-2.2,1.3-1.5,2.5h0c0-.4.7-.9,1.3-.9.3,1,1.2,1.7,3.5,1.5-.5.5-1,1-1.2,1.4-.3.6-.3,1.2,0,1.7-.4,0-.9,0-1.1-.2h0c0,1.5,1.8,2,3.2,1h0c.4,0,.6-.2.6-.2.1-.3.4-1.1.7-1.8.5.8,2.1,3.1,2.4,3.5-.6.1-1,.4-1.2.5,0,.8.5,1.6,1.9,1.7-.9.7-.8,2-.5,2.6.7-.2,1.8-.6,2.8-1.1.4.5.8.9,1.3,1.4-1.6,1.2-3.4,2.5-4.7,3.1-1.6.7-1.7-3.5-1.8-4.2-.1,0-.3,0-.4,0-.8-1.1-2.4-1-2.8.2h0c.3-.1.9-.2,1.3.2-.9.7-1.4,2,0,3.4h0c-1.2-.7-2.8-2.3-2.8-2.3-.1,0-.3.1-.4.2-1.6-.2-2.5,1.2-2.1,2.1h0c.1-.3.6-.8,1.2-.7-.2,1.2.6,2.6,2.9,2.6h0c-.9.2-2.1.4-2.6.6,0,.2-.2.4-.2.6,0,0,0,0,0,0-1.5.9-1.5,2.9-.2,3.5h0c-.1-.4,0-1.5.6-1.9.7.9,2.4,1,4.5-.9h0c-.7,1.6-1,2.7-1,2.7,0,.5.3,1,.8,1.3-.3.4-.9.6-1.3.6h0c.8,1,2.5.7,3.1-.3.7-.3,1-1,1-1,0,0,0-1.3,0-2.7,0,0,.5-.1,3.6-.6,0,.3-.2.9-.2,1.1.6.3,1.5.3,2.3-.5,0,.4.2.7.3,1.1,1.6-.2,2.6-1.1,2.9-2.5,1.6,1.7,3.8,2.9,5.5,4-3.8-.3-10.1,1.8-10.1,1.8,0,0,.5,1.3,2.2.9-.4,1.8,1.3,5.5,1.9,6.6-4.4,1-4.3-4.3-4.3-4.3-.3,0-.6,0-.9,0-1-.8-2.4-.2-2.7.8h0c.2-.2.9-.4,1.5,0-.5.8-.5,2,.5,3.1-1.4-.7-2.3-1.4-2.6-1.6-.1,0-.3.1-.4.2-1.6-.2-2.6,1.1-2.2,2.1h0c0-.3.7-.6,1.3-.6,0,1.1.9,2.2,3.1,2.1h0c-1,.4-1.8.9-2.4,1.4,0,.3,0,.5,0,.8-1,1.1-.5,2.8.9,3.2h0c-.2-.4-.4-1.4.2-1.8,1.7.7,3-.8,3.7-1.8-.2.9-.1,1.8,0,2.2.2.8.8,1.5,1.5,1.5,0,.5-.5,1-.8,1.1h0c1.1.6,2.5-.4,2.5-1.6.2-.2.4-.4.6-.6-.7-1.2-.9-2.1-.9-2.6.3-.8,1.1-1.2,3-1.5,1.4,1.5,3.1.9,3.4.8,0-.5-.1-1.1-.9-1.4.9-.5,1.2-1.7,1-2.2-.3,0-1.1,0-1.7.5-.5-3.4,0-3.6,4.3-2.7-1.1,2.5-1.7,4.2-1.4,5.5,0,2.3,0,3.7,0,3.7,1.3.5,1.9-.7,1.6-1.5,1.3.8,3.1,1.5,5.9,2.3-.3.4-2.4,3.1-4.8,2.8-1.1-.3-2.2-2.2-2.2-2.2-.1,0-.3,0-.4,0-1.3-.7-2.6.2-2.6,1.2h0c.1-.2.6-.4,1.1-.2-.3.6-.2,1.4.7,2.1-.8,0-1.6-.2-2.4-.3-.2.1-.3.2-.5.4-1.9,0-2.7,1.9-2.1,3h0c0-.4.7-1.3,1.7-1.1.4,1.2,2.1,2,5.2.1h.2c-.8.8-1.6,1.7-2,2.6,0,.3.1.6.2.8-.7,1.5.5,2.9,2,2.7h0c-.3-.2-.7-.9-.5-1.6h0c1.2.2,2.2-1,3.4-3.8.1.7.3,1.3.3,1.3.2.5.9,1,1.7,1,0,.5-.5.9-.7,1h0c1.3.6,2.4-.8,2.3-1.9.3-.4.4-1.2.4-1.2-1.1-1.1-1.1-2-1.1-2,0,0,1-2.1,3.1-4.1,2.2.4,4.7-.5,5.1-1.5-.5-.7-1.6-1-2.7-.8,1.4-1.3.9-3.6.2-4-1.3.1-2.7,1.6-3,3.2l-3.7-3.3c1.9-1.2,4-2.9,5.1-5.1,1.3,1.4,3,2.4,5.1,2.4,3.4,0,6.2-3.1,6.2-6.9s-1.2-4.2-2.7-6.4c2.5-3.5,5.6-7.5,5.6-11.9s-.5-3.2-.9-4.2M56.4,47.6c0,1.7-.7,3.1-1.8,3.9-1.1-.8-1.8-2.3-1.8-3.9s.8-3,1.8-4.6c1,1.6,1.8,3.2,1.8,4.6" fill="#000" fill-rule="nonzero"/></mask></defs><g mask="url(#k)" fill="#e8718b"><path d="M68.2,11.7c-18.5-3.4-44.7-3.6-63,0-4.2,25.7.7,54.3,31.5,73.6,30.8-19.3,35.7-47.9,31.5-73.6" fill="#e8718b" fill-rule="nonzero"/>
<path d="M66.5,7.7c-.1-1.1-.3-2.2-.5-3.2C48.8,1.6,24.4,1.4,7.4,4.5c-.2,1.1-.4,2.1-.5,3.2,17.7-3.1,41.7-2.9,59.6,0" fill="#e8718b" fill-rule="nonzero"/>
<path d="M69.7,11.5l-.2-1-1-.2c-19.4-3.6-45.5-3.6-63.5,0l-1,.2-.2,1c-2.4,14.7-1.5,28.2,2.7,39.9,5.1,14.2,15,26.1,29.5,35.2l.8.5.8-.5c14.5-9.1,24.4-20.9,29.5-35.2,4.2-11.8,5.1-25.2,2.7-39.9ZM64.2,50.4c-4.8,13.3-14,24.5-27.5,33.2-13.5-8.7-22.7-19.8-27.5-33.2-3.9-11-4.9-23.6-2.7-37.4h0c17.1-3.2,42.1-3.2,60.4,0,2.1,13.8,1.2,26.4-2.7,37.4Z" fill="#e8718b" fill-rule="nonzero"/>
<path d="M62.8,22.6c-.5-1.8-2.9-1.9-3.6-.3-1.7-2.3-4.8-3.9-6.4-3.6,0,1.1.6,2.2,2.1,3.2-1.6.1-2.6,1.1-2.1,2.8,3.6-2.1,7.3,2.2,6.6,6.2-.3,1.9-.3,3.9-1.2,5.6,0-2.6-3.5-2.9-3.6-.5,1.1-.8,2.4,0,1.7,1.8-.6.9-.7,2.6-1.3,3.5-1.2-1.7-2.9-4.4-3.7-6.2-1.3-3,1.8-3.5,2.4-2,.9-2.2-1.5-3.7-2.9-3.1,1.4-1.8,4-1.3,4.7.3,1.1-3.1-2.2-4.1-4.4-2.6,1.7-3.3.2-4.1.2-4.1-1.3.8-2.9,4.8-2.9,7.6s1.2,5.4,2.6,7.7c-1.5-1.1-3.5-1.1-4.8-.2,0,0,.5,1.6,4,1.6-.8.7-.8,2.3.7,3.2-.2-2,1.6-3,2.8-1.9,0,0,0,1.3.1,1.4-1.5,2.2-3,4-3,6.1s.7,3.7,1.7,5c0,0,.2,0,.2,0-2.4,0-4.2-2.2-4.7-4.9-3.5-2.5-5.9-5.7-4.6-11,1.3-.6,2-2.1,1.6-3.4,1.2-.9,1.6-2.5.8-3.9,1-1.1,1-2.8,0-4,.7-1.3.3-2.9-.9-3.7,0,0,0,0,0,0,.2-.9,0-1.9-.7-2.6.4-1,.6-2,.6-2,0,0-1-.4-1.9-.5l1.6-2.8s-3.2-.9-2.1,1.5c0,0-6.5.4-6.5.4-2,.2-5.8,3.1-5.8,3.1.2,2,.7,3.3,1,4-.7.2-1.4.3-2.1.4-1.4.1-2.2-1-2.3-1.7-1.3,1.2-.7,5.7,4.8,3.7.4.9.3,1.9.3,1.9,0,0,0,0,.2,0,3.1-2.1,4.2-.4,3.8.5-2.3.7-3.7,2.2-4.9,3.1-4.6-2.2-7.5-4.4-9.1-6-1.2-2.1,1.6-5.1,1.6-5.1,0,0-.1-.2-.2-.2.2-1.6-1.3-2.2-2.4-1.7h0c.3,0,.9.3.9,1.1-1.1,0-2.1.6-2.1,2.3-.3-.9-2-2.1-2.3-3-.1,0-.3,0-.4,0-.4-1-2.1-.9-2.5.2h0c.3-.1.9,0,1,.5-.5,1.4.3,2.7,2.2,3.7-.8-.2-1.7,0-2.2-.2-.2.2-.3.5-.4.7-1.5,0-2.2,1.2-1.6,2.3h0c0-.4.4-.8.9-.6.6.8,1.5,1.2,3.6.9-.5.5-.6,1.8-.6,2.2,0,.8-.3,1.5-1.3,1.3h0c.5,1.5,2.5,1.7,3.4.6l.6-.2s.1-1,.3-1.7c.5.8,1.7,3,2,3.5-.6.1-1,.4-1.2.5,0,.6.5,1.5,1.8,1.6-.9.7-.5,2,0,2.6.7-.2,1.6-.9,2.6-1.4.4.5,1.3,1.6,1.7,2-1.6,1.2-3.4,2.5-4.7,3.1-1.3.5-1.9-2-2.1-3.4,0,0-2.9.3-1.7,3h0c-1.2-.7-2.8-2.3-2.8-2.3-2.6-.2-3.1,1.5-2.7,2.4h0c.1-.3.5-.6.9-.6,0,1.1.9,2,3.2,2l.3.6c-.9,0-2.1.3-2.6.5,0,.2-.1,0-.2.3,0,0,0,0,0,0-1.5.9-1.6,3.2-.2,3.8h0c-.1-.4,0-1.5.6-1.9.6.7,2.4.9,4.1-.9h.5s-.5,3.1-.5,3.1c.3.7-.5,1.3-.8,1.3h0c.8,1,2.5.7,3.1-.3.7-.3,1-1,1-1,0,0,.2-.7.2-3,0,0,2-.3,3.1-.2-.1.5,0,.9,0,.9.7.3,1.7.3,2.5-.4,0,0,.3.6.6,1.2.9-.1,2.3-1.1,2.6-2.3,1.6,1.7,3.8,2.9,5.5,4-3.8-.3-10.3,1.1-10.3,1.1,0,0,.5,1.3,2.2.9-.1,2.1,2,6.1,2.6,7.3-4.1-.4-4.7-4.5-4.7-4.5-2.5-.6-5.1,1.3-1.9,4.3-1.4-.7-2.3-1.4-2.6-1.6-.1,0-.3.1-.4.2-1.5-.5-2.7.7-2.4,2.1h0c0-.3.6-.5,1-.4.4,1,1.2,1.6,3.5,1.6l.2.4c-1,.4-1.9.9-2.4,1.4,0,.3.2.6.2.8-1,1.1-.5,2.8.7,3.2h0c-.2-.4-.2-1.2.6-1.5,1.5,0,2.7-1.1,3.3-2.2-.4,1.4-.2,3.2,1.2,3.9.3.3,0,1-.3,1.2,1.1.4,2.3-.7,2.3-1.9.4-.3.6-.6.6-.6-.7-1.2-1.3-2.5-1.3-3,0-.6,1-1.1,2.9-1.4,1.4,1.5,3.4,1.2,3.7,1.1,0-.5-.4-1.5-1.1-1.8.9-.5,1.2-1.7,1-2.2-.3,0-1.1.2-1.5.4-.2-3.2,0-3.2,4.3-2.2-1.1,2.5-1.8,3.5-1.6,4.7,0,2.3,0,3.6,0,3.6.9.3,1.8-.3,1.9-.9,1.2.8,3,1.8,5.7,2.6-.3.4-2.4,3.1-4.8,2.8-1.1-.3-2.2-2.2-2.2-2.2-.2,0-.3,0-.5,0-1.3-.7-2.6.2-2.6,1.2h0c.1-.2,0,.6.6.7-.3.6.3.5,1.2,1.1-.8,0-1.6-.2-2.4-.3-.2.1-.4.3-.6.5-1.9,0-2.6,1.8-2,2.9h0c0-.4.5-1,1.2-1,.8,1,2.6,2,5.7,0h.2c-.8.8-1.6,1.7-2,2.6,0,.3.1.6.2.8-.7,1.5.5,2.9,2,2.7h0c-.1-.1-.3-.5-.2-.8.2-1,1.9-.6,2.7-3.6,0-.3.3-.5.5.2.2.7.7.9,1.1,1,.9.3.5.9,0,1.1h0c1.3.6,2.4-.8,2.3-1.9.3-.4.4-1.2.4-1.2-1.1-1.1-1.1-2-1.1-2,0,0,1-2.2,3.1-4.3,2.5.4,4.6-.7,4.9-1.8-.5-.7-1.5-1.1-2.6-.9,1.7-1.4,1.2-3.5.5-3.9-1.3.1-2.9,2-3.1,3.7l-3.7-3.3c1.9-1.2,3.8-2.9,4.9-5,4.9,3.4,11,.7,11-6.1s-.8-3.1-2.2-5.2c2.4-3.4,5.3-8.2,5.3-12.5s-.3-2.4-.6-3.3h0c-.6-1.5-1.1-4.3,1.9-4.2ZM56.5,49.2c0,1.7-.3,3.3-1.4,4.1-1.1-.8-1.8-2.7-1.8-4.3s.5-3,1.7-4.6c1.2,1.6,1.5,3.2,1.5,4.8Z" fill="#e8718b" fill-rule="nonzero"/>
<path d="M38,20.8s-.5.2-1.1.4c0,0,1.3,1.1,3.3,2.9-.5-1-1.7-2.9-2.2-3.3" fill="#e8718b" fill-rule="nonzero"/>
<path d="M29.6,21.1c.4,0,1.5-.6,1.6-.7h0c-.2,0-1.8.4-2.1-.1,0,.1.1.7.5.8" fill="#e8718b" fill-rule="nonzero"/>
<path d="M58.4,20.9h0c.2.3.3.7.4,1,.6-1.9,2.7-2.1,3.4-1.3-.8-1.3-3.2-1.1-3.9.3" fill="#e8718b" fill-rule="nonzero"/>
<path d="M49.8,29.7c.2-.3.5-.5.9-.7,1.5-1.7,4.2-2,5.5-.7-.8-2.7-5.7-2.7-6.4,1.4" fill="#e8718b" fill-rule="nonzero"/>
<path d="M50.9,26h0c.9-1.7,0-2.7-.1-2.7h0c-.6.7-1.6,2.8-1.6,5.3.3-1.2.9-2,1.7-2.5" fill="#e8718b" fill-rule="nonzero"/>
<path d="M53.5,31.6c-.5-2.1-4-1.8-2.9,1.4.3.8.5,1.2.6,1.4-1.5-3,.9-4,2.3-2.8" fill="#e8718b" fill-rule="nonzero"/>
<path d="M50.3,42c.2-1.5,1.8-2.3,3-1l-.6-.8c-1.3-1.6-3.5,0-2.4,1.9" fill="#e8718b" fill-rule="nonzero"/>
<path d="M49.6,38.7c.4-.3.9-.5,1.6-.4-1.5-.9-3.4-1.6-5.4-1.5,0,0,.5,1.6,3.8,1.8" fill="#e8718b" fill-rule="nonzero"/>
<path d="M56.8,36.4c1.3-2.3-1.5-3.7-2.6-1.9,1.4-.6,3,.5,2.3,2.2,0-.1.2-.2.2-.4" fill="#e8718b" fill-rule="nonzero"/>
<path d="M52.3,23.8c3.9-2.3,7.1,1.7,7.1,5.6s-.6,3.6-1.5,5.2c5.8-10-2.8-15.2-5.6-10.8" fill="#e8718b" fill-rule="nonzero"/>
<path d="M55.9,41.2c1.2-1.7,2.6-3.5,3.7-5.4-1.2,1.7-2.7,3.3-4.1,4.8.1.2.3.4.4.6" fill="#e8718b" fill-rule="nonzero"/>
<path d="M54,42c-1.5,1.9-3,4-3,6.4s0,1.1.2,1.5c.3.9.7,1.7,1.3,2.4.8,0,1.6-.3,2.2-.8-1.1-.8-1.8-2.3-1.8-3.9s.8-3,1.8-4.6c-.2-.3-.5-.7-.7-1" fill="#e8718b" fill-rule="nonzero"/>
<path d="M53.4,53.8c-2.7,0-4.8-2-5.5-4.3,0,.9-.3,1.8-.7,2.6,1.3,1.4,3,2.4,5.1,2.4s3.6-.9,4.7-2.4c-.9,1-2.2,1.7-3.6,1.7" fill="#e8718b" fill-rule="nonzero"/>
<path d="M37.5,60.6c-1-.6-1.5-1.3-1.6-2.2,0,2.3,0,3.7,0,3.7,1.3.5,1.9-.7,1.6-1.5" fill="#e8718b" fill-rule="nonzero"/>
<path d="M56.9,21.3c-1.1-1-2-2.2-3.1-4,0,.8.3,2.2,1.3,3.6.6,0,1.3.1,1.8.4" fill="#e8718b" fill-rule="nonzero"/>
<path d="M40.8,19.7s1.3-.6,2.6-1.3c-.8-.2-3-.1-2.6,1.3" fill="#e8718b" fill-rule="nonzero"/>
<path d="M41,21c.6.3,1.6.3,2.2,0,1,1.6.1,4.3.1,4.3,0,0,.5-.8.8-1.8.8.9.6,3.1-1.2,5,.7-.5,1.2-.9,1.6-1.4.7,2-1.3,3.9-3.4,4.3,1,0,2-.3,2.9-.8.2,2.2-2.6,3.5-5.8,3.4,1.7.3,3.3.3,4.5,0,0,2.3-4.6,2.9-9.4,1.5,3.1,1.4,5.7,1.8,7.7,1.6,0,1.4-2,1.9-3,1.8-.4,2.7,7.6,7.4,9.7,8.5-3.5-2.5-5.9-5.9-4.6-11,1.3-.5,2-2,1.6-3.3,1.2-.8,1.5-2.4.8-3.7,1-1.1,1-2.7,0-3.8.7-1.2.3-2.8-.9-3.6,0,0,0,0,0,0,.2-.9,0-1.8-.7-2.4.3-.8.3-1.6.3-1.6,0,0-.9,2.9-3.1,3h0Z" fill="#e8718b" fill-rule="nonzero"/>
<path d="M31,25.7s0-.7,0-1.4c0,0,0,0,0,0,0,0,.5.5,1.2.8,1.5-.6,2.8-.8,3.3-.9.1,0,.2,0,.2-.2h0c-.8,0-2.6,0-4.7.2,0-.2.3-.8.6-1.4-.7.2-1.2.3-1.4.2.2.6.5,1.1.7,1.3-.7,0-1.5.2-2.2.3-2.4.4-3.3.2-3.2-.8-.2,1.6.8,4.3,5.4,2" fill="#e8718b" fill-rule="nonzero"/>
<path d="M37.6,22.7c.3.8.5,1.8-.5,2.3,1,.7.3,1.6.3,1.6-.4-.5-1.8-1.4-5.4.6h0c2.7-1.5,4.1,0,3.7.7,2.4-.8,5.5-1.9,1.8-5.3" fill="#e8718b" fill-rule="nonzero"/>
<path d="M14.9,43.2c0,.5-.4.7-.5.7,0,0-.1,0-.2,0,.7.9,2.4,1,4.5-.9h0s.2-.5.3-.8c-1.3.7-3.2,1.3-4.2.9" fill="#e8718b" fill-rule="nonzero"/>
<path d="M24.9,44.1c.6.3,1.5.3,2.3-.5-.1-.5-.1-1.1,0-1.6-1.1,1.7-2.2,2.1-2.2,2.1" fill="#e8718b" fill-rule="nonzero"/>
<path d="M30.4,42.1c.1.1.3.3.4.4,1.3.5,2.9.2,2.9.2-.4-1.1-1.3-2.5-4-2.3-.5,3.3-2.3,4.1-2.3,4.1,1.6-.2,2.6-1.1,2.9-2.5" fill="#e8718b" fill-rule="nonzero"/>
<path d="M28.1,48.5c0-.1.2-.2.2-.3-.6.1-2,.4-2.6-.1,0,0,.5,1.3,2.2.9h0c0-.2,0-.3.2-.4" fill="#e8718b" fill-rule="nonzero"/>
<path d="M16.6,41.1h0c.2,0,.6,0,.9,0-3-1.5-3.3-3.3-3.3-3.7-.3.3-.5.7-.5,1.1-.2,1.2.6,2.6,2.9,2.6" fill="#e8718b" fill-rule="nonzero"/>
<path d="M37.1,72.3c.1.2,0,.5,0,.6,0,.1-.1.2-.1.4,1.2.2,2.2-1,3.4-3.8-.1-.7-.2-1.5-.2-1.5-.6,1.4-2,3.8-3.1,4.4" fill="#e8718b" fill-rule="nonzero"/>
<path d="M37.3,68.8c.2-.2.5-.4.7-.6v-.2c-2.4.8-4.7.7-5.4.2-.2.3-.4.5-.7.4.4,1.2,2.1,2,5.2.1h.2Z" fill="#e8718b" fill-rule="nonzero"/>
<path d="M42.5,17.5l1.4-3.2s-1.5-.4-1.6.8c0,0-.1,0-.2,0-.6,0-1,.3-1.1.7,0,.2,0,.4.2.6.2,0,.4,0,.5.2-.2.2-1,.4-1.7.3-.4,0-.8-.3-1-.5.1-.1.5-.1.6,0,.4-.1.6-.4.7-.7,0-.5-.4-.9-1-.9-.1,0-.2,0-.3,0,.5-1.3-.8-1.7-.8-1.7.7,2.9-1.4,4.2-2.5,4.4h0c2.3,0,4,.6,4,.6.7-.6,1.7-.6,2.6-.4h0Z" fill="#e8718b" fill-rule="nonzero"/>
<path d="M37.3,47.1c.5,5.1-12.2-3.2-6.2,9.4-2.1.2-3.2-.5-4.1-1.5-1.5-1.4-1.4-3.8-1.4-3.8-1.9.4-2.2,3.3-.6,4.7-1.2-.2-2.7-.7-3.9-1.5-.7.8-.7,2.3.4,2.9.5.2,1,.3,1.7.3h0c.4,0,.7.1.7.1-.8.4-1.8,1.1-2.3,1.6,0,0-.1.2-.1.3.5.3.9,1.3.5,1.5,0,0,0,0-.1,0,1.7.7,3-.8,3.7-1.8-.2.9-.1,1.8,0,2.2.2.8.8,1.5,1.5,1.5,0,.5-.5,1-.8,1.1h0c1.1.6,2.5-.4,2.5-1.6.2-.2.4-.4.6-.6-.7-1.2-.9-2.1-.9-2.6.3-.8,1.1-1.2,3-1.5,1.4,1.5,3.1.9,3.4.8,0-.5-.1-1.1-.9-1.4.9-.5,1.2-1.7,1-2.2-.3,0-1,.5-1.6,1.3,0,0,0-.4-.2-.8-.5-3.4,0-3.6,4.3-2.7.4-.9.8-1.9,1.3-2.8.5-1.2-.1-2.1-1.3-3h0Z" fill="#e8718b" fill-rule="nonzero"/>
<path d="M21.4,43.6s.6-.1,3.6-.6c.2-.7.5-1.2.9-1.6,0,0-2.4.6-3.9,1.4-.7-.6-1.4-.6-1.4-.6-.5,2.8-1,3.7-1,3.7.8,0,1,.7.9,1,0,.2,0,.3-.2.5.7-.3,1-1,1-1,0,0,0-.8,0-2.7h0Z" fill="#e8718b" fill-rule="nonzero"/>
<path d="M18.3,29.9c.4,0,.6-.2.6-.2.1-.3.4-1.1.7-1.8.5.8,2.1,3.1,2.4,3.5-.6.1-1,.4-1.2.5,0,.8.5,1.6,1.9,1.7-.9.7-.8,2-.5,2.6,1.4-.8,1.6-2.4,2.7-1.3.5.5.9,1,1.4,1.5,1.3-.9,2.8-1.9,5.2-1.5-1-.4-2.7-.6-4-.1v-.3c2.4-3.6,7.6-2.3,10.7-2.9-2.1,0-6-1.2-9.1.6v-.3c.2-.3.5-.6.8-.9,0,0-6.2-3.5-7.5-3.1.2-1.2-.2-2.1-.8-3.1-1-1.6.5-3.4,1.4-5.5-.9-1.2-3.6,0-2.9,3.4h0c-.9-1.5-1.2-3-1.8-4.6h0c-1.3.3-2.4,2.4-.4,4.7.6.3.9.7.9.7h0c-1.8,0-3.6-.7-3.6-.7,0,.6-.4,1.5-.8,1.4,0,0-.2,0-.3,0,.3,1,1.2,1.7,3.5,1.5.3,0,.5,0,.8,0-.6.7-1.5,2.1-1.1,2.7.2-.1.8,0,.9.3-.3.7-1.2,1.6-2,1.4.6.3,1.6.2,2.3-.4h0Z" fill="#e8718b" fill-rule="nonzero"/></g></svg>