<?xml version="1.0" encoding="UTF-8"?>
<svg fill="#e8718b" id="Layer_2" data-name="Layer 2" xmlns="http://www.w3.org/2000/svg" viewBox="0 0 68.5 84.82">
  <defs>
    <style>
      .cls-1 {
        fill:#e8718b;
      }
    </style>
  </defs>
  <g id="Layer_1-2" data-name="Layer 1">
    <g>
      <path class="cls-1" d="M64.05,5.5h0c-.15-1.09-.32-2.17-.51-3.25C46.33-.66,21.93-.84,4.95,2.25c-.19,1.07-.36,2.14-.51,3.22,17.67-3.07,41.73-2.9,59.6.03Z"/>
      <path class="cls-1" d="M67.2,9.24l-.17-1.02-1.02-.19c-19.36-3.57-45.49-3.57-63.53,0l-1.01.2-.16,1.01C-1.09,23.96-.18,37.4,4.02,49.16c5.07,14.24,14.98,26.07,29.45,35.17l.78.49.79-.49c14.47-9.1,24.38-20.93,29.45-35.17,4.19-11.76,5.11-25.2,2.71-39.92ZM61.72,48.17c-4.76,13.34-14,24.49-27.47,33.16-13.46-8.67-22.7-19.82-27.46-33.16C2.87,37.15,1.94,24.56,4.06,10.73c8.54-1.6,19.04-2.4,29.7-2.4s21.54.81,30.7,2.41c2.1,13.82,1.18,26.41-2.74,37.43Z"/>
      <path class="cls-1" d="M59.88,18.52c-.03-.06-.08-.1-.11-.16.01.01.04.02.05.04-.04-.07-.1-.11-.14-.17-.06-.07-.11-.15-.18-.22-.07-.06-.16-.11-.24-.16-.08-.05-.15-.1-.23-.14-.09-.04-.2-.07-.3-.09-.09-.02-.17-.06-.26-.07-.11-.02-.23-.02-.34-.02-.08,0-.17-.01-.25,0-.12,0-.25.04-.37.06-.08.02-.15.02-.23.04-.13.04-.25.1-.38.16-.06.03-.12.04-.17.07-.14.08-.26.18-.38.29-.03.02-.06.04-.08.07-.13.14-.25.3-.33.48,0,0,0,0,0,0h0s0,0,0,0c-1.17-2.33-3.06-3.64-4.67-3.62h0s0,0,0,0c-.02.29.02.68.12,1.12.13.56.38,1.21.77,1.88.02.03.03.06.05.09.02.03.05.07.07.1.09.14.18.28.28.42h0s0,0,0,0c-1.77.01-3.17,1.18-2.76,2.88,0,0,0,0,0,0,0,0,0,0,0,0h0c.73-.43,1.43-.65,2.1-.68,2.87-.14,4.97,3.11,4.97,6.24,0,.02,0,.04,0,.05,0,.41-.04.82-.1,1.22,0,.04,0,.07-.01.11-.06.4-.16.8-.27,1.2-.01.05-.02.09-.04.14-.12.38-.25.76-.41,1.14-.02.05-.04.11-.07.16-.15.36-.33.72-.51,1.08-.04.08-.08.17-.13.25.05-2.6-3.48-2.6-3.58-.18,1.4-.63,3.02.46,2.34,2.24-.62.94-1.29,1.86-1.95,2.77-1.22-1.67-2.5-3.38-3.45-5.13-1.1-2.19-.13-3.32,1.03-3.3.42.01.86.17,1.25.49,0,0,0,0,0,0,0,0,0,0,0,0,.54-2.12-1.32-3.06-2.72-2.51,0,0,0,0,0,0,0,0,0,0,0,0,.55-.65,1.28-1.09,2.04-1.32,1.27-.38,2.64-.17,3.43.61h0s0,0,0,0c0,0,0,0,0,0,.14-2.74-3.14-3.86-5.33-2.38.08-.15.13-.28.18-.42.02-.06.06-.13.08-.19.04-.12.05-.22.08-.33.01-.07.04-.15.05-.22.01-.1,0-.19,0-.28,0-.06,0-.13,0-.19,0-.08-.03-.16-.04-.23-.01-.05-.02-.11-.03-.16-.02-.07-.05-.13-.07-.19-.02-.04-.03-.08-.05-.11-.03-.06-.06-.11-.09-.15-.02-.02-.03-.05-.04-.07-.04-.05-.06-.09-.09-.12,0,0-.01-.02-.02-.02-.04-.04-.07-.07-.07-.07,0,0,0,0,0,0h0s0,0,0,0c-1.27.83-2.77,3.25-2.77,6.1s1.17,5.35,2.64,7.75c-1.51-1.09-3.54-1.07-4.84-.15h0,0s0,0,0,0c0,0,.16.52.89,1,.57.38,1.48.73,2.92.8-.84.73-.89,2.29.64,3.25,0,0,0,0,0,0h0s0,0,0,0c.16-1.47,1.81-2.32,2.99-1.05l.19.27c-1.51,2.18-2.71,4.29-2.71,6.43,0,.8.13,1.56.36,2.28,0,.02,0,.04,0,.05.02.05.04.09.05.14.04.1.07.2.11.3.04.11.09.21.13.32.05.1.1.2.15.3.05.09.09.18.14.27.08.13.16.26.24.38.04.05.07.11.1.16.13.18.26.36.41.53h-.11c-2.36,0-4.24-2.2-4.7-4.92-2.86-2.02-4.95-4.65-4.95-8.29,0-.01,0-.02,0-.04,0-.83.11-1.71.35-2.65.32-.13.61-.32.85-.55.48-.46.77-1.08.82-1.74.01-.17.01-.33,0-.5s-.05-.34-.1-.5c1.17-.84,1.52-2.43.81-3.69.96-1.08.96-2.72-.02-3.79.67-1.25.29-2.79-.88-3.59-.02-.01-.04-.02-.06-.03.21-.88-.05-1.8-.68-2.45.06-.2.12-.4.16-.59.13-.56.17-.99.17-.99,0,0-.69-.34-1.57-.51l1.42-3.23s-.1-.03-.25-.04c-.18-.02-.44-.02-.69.05-.32.09-.61.31-.67.82-.07-.02-.15-.03-.22-.04h0c-.08,0-.15.01-.23.02-.06,0-.12,0-.17.02-.33.09-.56.31-.63.59,0,.04-.03.07-.04.11,0,0,0,0,0,0,0,0,0,0,0,0-.01.21.07.41.23.56.08-.01.17,0,.25.02.03,0,.06.01.09.02.08.03.16.07.2.13-.14.18-.61.32-1.13.32-.17,0-.35-.02-.52-.05-.42-.08-.78-.3-.98-.52.15-.13.45-.1.64,0,.09-.03.18-.06.26-.11.23-.14.39-.37.41-.63.03-.42-.3-.77-.76-.88-.06-.02-.12-.04-.19-.05h0s-.02,0-.03,0c-.09,0-.18,0-.27.02.43-1.11-.47-1.57-.7-1.66-.03-.01-.05-.02-.05-.02h0s-1.29.24-.98,1.56c-.1-.03-.2-.05-.3-.06-.56-.04-1.04.31-1.07.79-.02.35.21.67.56.83.2-.08.5-.07.63.09-.23.19-.61.36-1.04.38-.71.05-1.45-.24-1.6-.49.11-.13.36-.15.56-.09.17-.13.29-.32.3-.53.03-.45-.4-.84-.95-.88-.08,0-.15,0-.23,0,.02-1.22-1.48-1.03-1.48-1.03l1.12,3.94c-.4.23-.96.58-1.38.97l-3.53,1.81h0s0,0,0,0c0,.11.06.47.26.68.07.07.15.12.25.14-.09.73.04,1.6.7,1.91.06.16.13.32.2.47.17.34.35.61.48.75.01.01.03.04.04.05-.71.08-1.46.18-2.22.3-1.39.22-2.58-.22-3.06-1.35-.07.15-.12.34-.16.54,0,0,0,0,0-.01,0,0,0,.02,0,.03,0,.03,0,.07-.01.11,0,.07-.01.15-.02.22,0,.04,0,.09,0,.13,0,.07,0,.14.01.22,0,.05.01.09.02.14.01.07.02.15.04.22.01.05.02.09.03.14.02.07.04.15.07.22.02.04.03.09.05.13.03.08.07.15.11.22.02.04.04.08.06.11.06.09.12.17.19.25.02.02.03.04.04.06.09.09.19.18.3.26.03.02.06.04.09.05.08.05.17.11.27.15.05.02.1.04.15.06.09.03.18.06.27.08.06.01.13.02.2.03.1.02.2.03.3.03.08,0,.16,0,.24,0,.11,0,.23-.01.34-.02.09,0,.18-.02.27-.03.13-.02.26-.05.4-.08.1-.02.2-.05.3-.08.15-.04.31-.1.47-.16.1-.04.2-.07.31-.11.23-.09.46-.2.71-.32.05-.03.1-.04.16-.07.42.86.31,1.94.31,1.94,0,0,.09.04.15.05.29-.2.56-.35.83-.49.1-.05.2-.1.3-.15.04-.02.08-.03.12-.05.38-.16.72-.26,1.03-.31.04,0,.09-.02.13-.02.08,0,.16-.01.23-.02.05,0,.09,0,.14,0,.07,0,.14,0,.2.01.04,0,.09,0,.13.01.06,0,.12.02.17.03.04,0,.08.02.12.03.05.01.1.03.15.05.04.01.07.03.11.04.04.02.09.04.13.06.03.02.06.04.1.06.04.02.07.05.1.07.03.02.05.05.08.07.03.03.06.05.08.08.02.03.04.05.06.08.02.03.04.06.06.09.02.03.03.06.04.09.01.03.03.06.04.09.01.03.02.06.02.09,0,.03.01.06.02.08,0,.03,0,.06,0,.1,0,.03,0,.05,0,.08,0,.04-.02.08-.03.11,0,.02,0,.03-.02.05,0,0,0,0,0,0,0,0,0,0,0,0-2.31.66-4.11,1.63-5.34,2.61-4.65-2.17-7.3-3.98-8.92-5.63,0,0,0,0,0,0-.8-1.23-.09-2.56.68-4.06.24-.46.48-.93.69-1.42h0s0,0,0,0c-.07-.08-.15-.15-.23-.21.18-1.61-1.34-2.16-2.36-1.71v.02c.3.05.91.31.86,1.11-1.08-.06-2.12.62-2.1,2.3-.02-.06-.04-.12-.06-.18-.12-.35-.23-.69-.34-1.04-.15-.47-.3-.95-.49-1.43h-.03s0,0,0,0c-.13-.02-.27-.04-.4-.03-1.04-1.23-2.77-.58-2.98.33l.02.02c.27-.16,1.12-.22,1.54.4-.73.86-.77,2.6.89,3.76-.78-.24-1.93-.51-2.49-.58-.19.18-.35.37-.47.58-1.41.12-2.18,1.35-1.54,2.52h.02c.09-.36.7-.95,1.33-.94.13.4.36.75.74,1.02.54.38,1.38.6,2.73.53-.53.46-1.01,1.01-1.18,1.4-.25.56-.31,1.22,0,1.73-.45.07-.93-.05-1.12-.23h-.02c-.01.67.37,1.13.9,1.36-.02,0-.03,0-.05,0,.03.01.06.02.09.03.1.04.2.07.31.09.07.01.13.03.2.04.12.01.24,0,.36,0,.07,0,.13,0,.2-.01.13-.02.27-.06.4-.11.06-.02.12-.03.17-.05.19-.08.38-.19.56-.32h0s0,0,0,0c.14-.02.26-.05.35-.08.16-.05.26-.1.26-.1.14-.3.44-1.1.7-1.83.42.68,1.56,2.31,2.13,3.12.13.18.23.33.29.4-.62.12-1.05.39-1.24.52.01.4.15.79.44,1.1.3.31.76.54,1.42.62-.55.42-.74,1.11-.72,1.69.01.35.11.66.25.87.69-.16,1.84-.64,2.82-1.11.37.43.76.84,1.16,1.25.04.04.07.08.11.12-1.63,1.22-3.38,2.45-4.68,3.12-1.64.66-1.66-3.46-1.82-4.19-.13-.04-.26-.06-.39-.06-.79-1.06-2.37-.96-2.85.24v.02c.3-.14.94-.2,1.34.23-.9.66-1.38,1.96-.1,3.39l-.07.09c-1.2-.8-2.77-2.41-2.77-2.41-.13.05-.26.12-.38.21-1.64-.23-2.49,1.22-2.1,2.08h.02c.11-.27.57-.78,1.21-.68-.04.22-.03.45,0,.68.14.99.99,1.94,2.87,1.95l.06.1c-.85.1-2.06.29-2.63.48-.1.2-.17.4-.21.6-.03.01-.06.03-.09.05-1.49.86-1.52,2.86-.2,3.5h.02c-.14-.38.06-1.52.64-1.88.09.11.2.21.32.3.72.51,1.92.51,3.42-.57.25-.18.51-.39.78-.63h.03c-.65,1.57-.97,2.66-.97,2.66.07.52.34,1.02.78,1.33-.33.41-.95.62-1.26.55v.02c.76.99,2.5.7,3.1-.36.09-.04.17-.08.25-.13.53-.34.75-.86.75-.86,0,0,0-.01,0-.01,0-.05.04-.43.05-1.2,0-.44,0-.95-.03-1.46,0,0,0,0,0,0,0,0,.53-.13,3.39-.58.08-.01.16-.03.25-.04-.09.31-.18.91-.16,1.11h0c.56.34,1.48.33,2.29-.52,0,0,0,0,0,0h0c.08.36.19.72.34,1.06h0s0,0,0,0h0c.93-.14,1.65-.49,2.16-1.04.36-.39.62-.87.76-1.45.14.15.29.29.44.44.02,0,.04.01.06.02,1.53,1.42,3.42,2.52,4.97,3.53-3.75-.26-10.14,1.84-10.14,1.84h0s0,0,0,0c0,0,.46,1.35,2.2.91,0,0,0,0,0,0v.02s0,0,0,0c-.35,1.78,1.29,5.49,1.9,6.63-1.61.36-2.61-.11-3.25-.86-.72-.9-.96-2.06-1.04-2.78,0-.03,0-.06,0-.09,0-.05,0-.09-.01-.13,0-.07-.01-.15-.01-.2,0,0,0,0,0-.01,0-.06,0-.11,0-.15,0,0,0-.02,0-.02,0-.02,0-.04,0-.04,0,0,0,0,0,0h0c-.31-.05-.62-.04-.93.04-1.05-.76-2.37-.16-2.7.78l.02.02c.23-.18.89-.4,1.46.08-.54.81-.55,2,.47,3.07-1.44-.67-2.31-1.4-2.64-1.58-.14.07-.28.15-.41.24-1.59-.23-2.6,1.11-2.21,2.12h.02c.1-.26.73-.64,1.33-.61-.04.74.39,1.47,1.38,1.85.01,0,.02.02.03.03.03.01.08.02.11.03.15.05.32.09.49.13.08.02.16.04.24.05.26.04.54.06.85.05,0,0,.02,0,.03,0l.03.03s0,0,0,0c-1,.4-1.85.86-2.42,1.36-.05.27-.05.55,0,.82-1.01,1.09-.51,2.81.87,3.19l.02-.02c-.19-.35-.35-1.43.2-1.81,0,0,0,0,0,0,0,0,0,0,0,0,1.66.66,3.03-.8,3.72-1.8-.08.46-.12.9-.11,1.28,0,.38.03.71.09.94.21.84.79,1.47,1.45,1.54,0,.1-.02.19-.05.29,0,.03,0,.07-.02.1-.03.06-.08.12-.12.18-.03.05-.06.11-.1.16-.02.02-.03.03-.05.05-.07.08-.15.15-.23.21-.05.03-.09.05-.13.07-.05.03-.1.06-.14.08v.02c.71.39,1.51.14,2-.41.28-.31.45-.72.48-1.16,0-.03.01-.06.01-.09.18-.14.34-.32.49-.5.02-.02.05-.04.06-.07-.71-1.21-.9-2.13-.94-2.64.07-.19.18-.36.33-.51.45-.46,1.28-.78,2.67-1.02,1.34,1.34,2.8,1,3.29.84.04-.01.09-.03.11-.04.09-.53-.13-1.1-.89-1.41.44-.25.75-.68.92-1.1.17-.42.21-.84.11-1.06-.29,0-1.07.08-1.74.51-.18-1.27-.21-2.1.04-2.59.42-.82,1.64-.69,4.3-.07,0,0,0,0,0,0,0,0,0,0,0,0-1.1,2.54-1.66,4.24-1.45,5.51,0,0,0,0,0,0,0,0,0,0,0,0-.04,2.27.07,3.71.07,3.71.8.28,1.34-.07,1.56-.58.13-.3.14-.66.01-.97,1.27.78,3.14,1.53,5.87,2.28-.29.36-2.41,3.06-4.83,2.81-1.13-.26-2.24-2.2-2.24-2.2-.15-.01-.3-.01-.45,0-1.32-.66-2.6.21-2.64,1.23h.02c.14-.16.6-.35,1.13-.23-.32.62-.21,1.42.69,2.08-.81-.08-1.6-.2-2.38-.26-.18.1-.34.24-.47.4-1.94-.06-2.71,1.85-2.06,2.96h.03c.08-.38.72-1.34,1.66-1.08.08.23.2.44.36.62.72.79,2.31,1.04,4.88-.48l.19.11c-.79.73-1.57,1.61-1.96,2.46.03.3.11.58.22.82-.68,1.48.54,2.93,1.96,2.73v-.02c-.27-.22-.7-.87-.54-1.56h0s0,0,0,0c1.23.15,2.17-.98,3.38-3.82,0,0,0,0,0,0,0,0,0,0,0,0,.13.72.31,1.34.31,1.34.25.54.94.98,1.66.99-.07.48-.47.89-.74,1.02v.02c1.27.54,2.38-.82,2.28-1.96.32-.38.41-1.16.41-1.16-1.12-1.14-1.08-2.04-1.08-2.04,0,0,1.01-2.05,3.1-4.08,2.23.45,4.71-.46,5.07-1.5-.51-.66-1.64-.98-2.72-.82,1.45-1.32.95-3.59.2-4-1.28.14-2.74,1.63-2.98,3.24l-3.7-3.26c1.92-1.16,4.04-2.92,5.1-5.11,1.25,1.41,3.04,2.39,5.09,2.39.05,0,.1,0,.15,0,.17,0,.34-.01.51-.03.09-.01.17-.03.26-.04.13-.02.27-.04.4-.07.09-.02.17-.05.26-.07.13-.04.25-.07.37-.12.08-.03.16-.06.24-.1.12-.05.24-.1.36-.16.08-.04.15-.08.22-.12.12-.07.24-.13.35-.21.07-.04.13-.09.2-.13.12-.08.23-.17.35-.26.06-.05.11-.09.17-.14.12-.1.23-.21.34-.32.04-.04.09-.09.13-.13.12-.13.24-.27.35-.41.02-.03.04-.05.06-.07,0,0-.01.01-.02.02.94-1.2,1.51-2.77,1.51-4.48,0-2.09-1.18-4.2-2.67-6.37,1.21-1.69,2.56-3.48,3.64-5.39,0-.01.01-.02.02-.03,0,0,0,0,0,0,1.15-2.04,1.99-4.21,1.99-6.52,0-1.91-.5-3.23-.9-4.17h0c-.68-1.61-.91-4.45,1.76-4.4ZM33.3,21.78s-.08,0-.11,0c-.85-.06-2.54,0-4.55.22.05-.17.26-.83.57-1.45,1.25-.3,2.86-.8,2.86-.8.72.4,1.33,1.56,1.24,2.03ZM32.17,17.18c-.46-.44-.92-.54-.92-.54.14-.28.39-.48.39-.48,0,0,.81-.18,2.62.35l-2.09.67ZM53.96,45.39h0c0,1.66-.7,3.1-1.81,3.95,0,0,0,0,0,0,0,0,0,0,0,0-.69-.53-1.23-1.29-1.53-2.19-.18-.54-.28-1.13-.28-1.76,0-.09.01-.19.02-.28,0-.09,0-.17.02-.26,0-.04.02-.09.02-.13.19-1.23.87-2.54,1.78-3.93,1.04,1.64,1.78,3.18,1.78,4.6Z"/>
    </g>
  </g>
</svg>