<svg xmlns="http://www.w3.org/2000/svg" viewBox="0 0 227.29 350.67"><defs><mask id="k" maskUnits="userSpaceOnUse"><path d="M0 295.739h228.526V0H0Z" fill="#fff" fill-rule="nonzero"/>
<path d="M0 0h-85.232c-23.538 0-42.617-19.08-42.617-42.616v-42.616c0-23.537 19.079-42.617 42.617-42.617H0c23.537 0 42.616 19.08 42.616 42.617S23.537-42.616 0-42.616h42.616C42.616-19.08 23.537 0 0 0m0 135.151h-85.232c-23.538 0-42.617-19.08-42.617-42.616h42.617c-23.538 0-42.617-19.079-42.617-42.616V7.302H42.616v42.617H0c23.537 0 42.616 19.08 42.616 42.616S23.537 135.151 0 135.151" fill="#fff" fill-rule="nonzero"/>
<path d="M0 0h-.722v-4.565H0v1.818h3.662v.922H0Z" fill="#fff" fill-rule="nonzero"/>
<path d="M0 0h-3.984a.4.4 0 0 1-.293-.1q-.107-.1-.107-.287v-1.018l3.47-1.61-3.47-1.614v-1.013q0-.18.107-.287a.4.4 0 0 1 .293-.106H0v.896h-3.661L0-3.462v.883L-3.661-.896H0Z" fill="#fff" fill-rule="nonzero"/><path d="M0 0v-24.857h7.68v8.977h5.528l1.966 5.432H7.68v5.032h9.308L18.947 0Z" fill="#000" fill-rule="nonzero"/>
<path d="m0 0 .001-24.857H7.68V0Z" fill="#000" fill-rule="nonzero"/>
<path d="M0 0v-24.857h7.68v8.977h5.528l1.966 5.432H7.68v5.032h9.308L18.947 0Z" fill="#000" fill-rule="nonzero"/>
<path d="m0 0 3.069-10.354h-6.037zm-3.871 6.388-8.989-24.859h7.561l.96 3.34H4.34l1.003-3.34h7.756L4.113 6.388Z" fill="#000" fill-rule="nonzero"/></mask></defs><g mask="url(#k)" fill="#e8718b"><path d="M0 295.739h228.526V0H0Z" fill="#e8718b" fill-rule="nonzero"/>
<path d="M0 0h-85.232c-23.538 0-42.617-19.08-42.617-42.616v-42.616c0-23.537 19.079-42.617 42.617-42.617H0c23.537 0 42.616 19.08 42.616 42.617S23.537-42.616 0-42.616h42.616C42.616-19.08 23.537 0 0 0m0 135.151h-85.232c-23.538 0-42.617-19.08-42.617-42.616h42.617c-23.538 0-42.617-19.079-42.617-42.616V7.302H42.616v42.617H0c23.537 0 42.616 19.08 42.616 42.616S23.537 135.151 0 135.151" fill="#e8718b" fill-rule="nonzero"/>
<path d="M0 0h-.722v-4.565H0v1.818h3.662v.922H0Z" fill="#e8718b" fill-rule="nonzero"/>
<path d="M0 0h-3.984a.4.4 0 0 1-.293-.1q-.107-.1-.107-.287v-1.018l3.47-1.61-3.47-1.614v-1.013q0-.18.107-.287a.4.4 0 0 1 .293-.106H0v.896h-3.661L0-3.462v.883L-3.661-.896H0Z" fill="#e8718b" fill-rule="nonzero"/></g></svg>