<svg xmlns="http://www.w3.org/2000/svg" viewBox="0 0 100 100"><defs><mask id="k" maskUnits="userSpaceOnUse"><path d="M821.497 469.098c0 179.36-145.4 324.76-324.76 324.76s-324.76-145.4-324.76-324.76 145.4-324.76 324.76-324.76 324.76 145.4 324.76 324.76" fill="#fff" fill-rule="nonzero"/><path d="M425 200c-110.457 0-200 89.543-200 200s89.543 200 200 200c71.169 0 133.646-37.167 169.094-93.156C564.802 539.477 522.304 560 475 560c-88.366 0-160-71.634-160-160s71.634-160 160-160c47.303 0 89.802 20.523 119.094 53.156C558.646 237.167 496.169 200 425 200" fill="#000" fill-rule="nonzero"/>
<path d="M764.235 341.221 583.334 400l180.901 58.779-111.804-153.885v190.212z" fill="#000" fill-rule="nonzero"/></mask></defs><g mask="url(#k)" fill="#e8718b"><path d="M821.497 469.098c0 179.36-145.4 324.76-324.76 324.76s-324.76-145.4-324.76-324.76 145.4-324.76 324.76-324.76 324.76 145.4 324.76 324.76" fill="#e8718b" fill-rule="nonzero"/></g></svg>